<svg width="40" height="40" viewBox="0 0 40 40" fill="none" xmlns="http://www.w3.org/2000/svg">
<path d="M12.5002 7.50016C12.5002 5.19898 14.3656 3.3335 16.6668 3.3335C18.968 3.3335 20.8335 5.19898 20.8335 7.50016V10.0002H22.5002C24.8299 10.0002 25.9947 10.0002 26.9136 10.3808C28.1387 10.8882 29.1121 11.8616 29.6196 13.0867C30.0002 14.0056 30.0002 15.1705 30.0002 17.5002H32.5002C34.8014 17.5002 36.6668 19.3656 36.6668 21.6668C36.6668 23.968 34.8014 25.8335 32.5002 25.8335H30.0002V28.6668C30.0002 31.4671 30.0002 32.8672 29.4552 33.9368C28.9758 34.8776 28.2109 35.6425 27.2701 36.1219C26.2006 36.6668 24.8004 36.6668 22.0002 36.6668H20.8335V33.7502C20.8335 31.6791 19.1546 30.0002 17.0835 30.0002C15.0124 30.0002 13.3335 31.6791 13.3335 33.7502V36.6668H11.3335C8.53323 36.6668 7.1331 36.6668 6.06354 36.1219C5.12273 35.6425 4.35783 34.8776 3.87846 33.9368C3.3335 32.8672 3.3335 31.4671 3.3335 28.6668V25.8335H5.8335C8.13468 25.8335 10.0002 23.968 10.0002 21.6668C10.0002 19.3656 8.13468 17.5002 5.8335 17.5002H3.3335C3.3335 15.1705 3.3335 14.0056 3.7141 13.0867C4.22157 11.8616 5.19494 10.8882 6.42008 10.3808C7.33893 10.0002 8.50379 10.0002 10.8335 10.0002H12.5002V7.50016Z" stroke="#131316" stroke-width="2" stroke-linecap="round" stroke-linejoin="round"/>
</svg>
