<svg width="40" height="40" viewBox="0 0 40 40" fill="none" xmlns="http://www.w3.org/2000/svg">
<path d="M6.66683 30.0002V29.6668C6.66683 26.8666 6.66683 25.4664 7.2118 24.3969C7.69116 23.4561 8.45607 22.6912 9.39688 22.2118C10.4664 21.6668 11.8666 21.6668 14.6668 21.6668H25.3335C28.1338 21.6668 29.5339 21.6668 30.6035 22.2118C31.5443 22.6912 32.3092 23.4561 32.7885 24.3969C33.3335 25.4664 33.3335 26.8666 33.3335 29.6668V30.0002M6.66683 30.0002C4.82588 30.0002 3.3335 31.4925 3.3335 33.3335C3.3335 35.1744 4.82588 36.6668 6.66683 36.6668C8.50778 36.6668 10.0002 35.1744 10.0002 33.3335C10.0002 31.4925 8.50778 30.0002 6.66683 30.0002ZM33.3335 30.0002C31.4925 30.0002 30.0002 31.4925 30.0002 33.3335C30.0002 35.1744 31.4925 36.6668 33.3335 36.6668C35.1744 36.6668 36.6668 35.1744 36.6668 33.3335C36.6668 31.4925 35.1744 30.0002 33.3335 30.0002ZM20.0002 30.0002C18.1592 30.0002 16.6668 31.4925 16.6668 33.3335C16.6668 35.1744 18.1592 36.6668 20.0002 36.6668C21.8411 36.6668 23.3335 35.1744 23.3335 33.3335C23.3335 31.4925 21.8411 30.0002 20.0002 30.0002ZM20.0002 30.0002V13.3335M10.0002 13.3335H30.0002C31.5533 13.3335 32.3299 13.3335 32.9424 13.0798C33.7592 12.7414 34.4081 12.0925 34.7464 11.2758C35.0002 10.6632 35.0002 9.88664 35.0002 8.3335C35.0002 6.78036 35.0002 6.00379 34.7464 5.39122C34.4081 4.57446 33.7592 3.92554 32.9424 3.58723C32.3299 3.3335 31.5533 3.3335 30.0002 3.3335H10.0002C8.44702 3.3335 7.67046 3.3335 7.05788 3.58723C6.24112 3.92554 5.59221 4.57446 5.2539 5.39122C5.00016 6.00379 5.00016 6.78036 5.00016 8.3335C5.00016 9.88664 5.00016 10.6632 5.2539 11.2758C5.59221 12.0925 6.24112 12.7414 7.05788 13.0798C7.67046 13.3335 8.44702 13.3335 10.0002 13.3335Z" stroke="#131316" stroke-width="1.5" stroke-linecap="round" stroke-linejoin="round"/>
</svg>
