<svg width="1147" height="1078" viewBox="0 0 1147 1078" fill="none" xmlns="http://www.w3.org/2000/svg">
<g opacity="0.2">
<path opacity="0.05" d="M324.171 133.11L573.5 0.415334L822.829 133.11L822.833 133.112L1069.87 269.505L1072.15 538.576V538.581L1069.87 807.652L822.833 944.044L822.829 944.046L573.5 1076.74L324.171 944.046L324.167 944.044L77.1306 807.652L74.8527 538.581V538.576L77.1306 269.505L324.167 133.112L324.171 133.11Z" stroke="white" stroke-width="0.595377"/>
<path opacity="0.1" d="M352.124 178.57L573.5 60.7513L794.877 178.57L794.881 178.572L1014.22 299.673L1016.24 538.575V538.58L1014.22 777.483L794.881 898.584L794.877 898.586L573.5 1016.4L352.124 898.586L352.12 898.584L132.78 777.483L130.757 538.58V538.575L132.78 299.673L352.12 178.572L352.124 178.57Z" stroke="white" stroke-width="0.595377"/>
<path opacity="0.2" d="M380.076 224.029L573.5 121.087L766.925 224.029L766.929 224.032L958.572 329.84L960.339 538.575V538.58L958.572 747.315L766.929 853.124L766.925 853.126L573.5 956.068L380.076 853.126L380.072 853.124L188.428 747.315L186.661 538.58V538.575L188.428 329.84L380.072 224.032L380.076 224.029Z" stroke="white" stroke-width="0.595377"/>
<path opacity="0.3" d="M408.028 269.489L573.5 181.423L738.972 269.489L738.976 269.491L902.922 360.008L904.434 538.574V538.579L902.922 717.146L738.976 807.663L738.972 807.665L573.5 895.731L408.028 807.665L408.024 807.663L244.077 717.146L242.566 538.579V538.574L244.077 360.008L408.024 269.491L408.028 269.489Z" stroke="white" stroke-width="0.595377"/>
<path opacity="0.4" d="M435.98 314.948L573.5 241.759L711.02 314.948L711.024 314.951L847.274 390.176L848.53 538.574V538.579L847.274 686.978L711.024 762.203L711.02 762.205L573.5 835.394L435.98 762.205L435.976 762.203L299.726 686.978L298.47 538.579V538.574L299.726 390.176L435.976 314.951L435.98 314.948Z" stroke="white" stroke-width="0.595377"/>
<path opacity="0.6" d="M463.932 360.408L573.5 302.095L683.068 360.408L683.072 360.41L791.625 420.344L792.626 538.574V538.579L791.625 656.81L683.072 716.743L683.068 716.746L573.5 775.059L463.932 716.746L463.928 716.743L355.375 656.81L354.374 538.579V538.574L355.375 420.344L463.928 360.41L463.932 360.408Z" stroke="white" stroke-width="0.595377"/>
<path opacity="0.8" d="M491.884 405.868L573.5 362.431L655.116 405.868L655.12 405.87L735.977 450.512L736.722 538.574V538.579L735.977 626.642L655.12 671.283L655.116 671.286L573.5 714.722L491.884 671.286L491.88 671.283L411.024 626.642L410.278 538.579V538.574L411.024 450.512L491.88 405.87L491.884 405.868Z" stroke="white" stroke-width="0.595377"/>
<path opacity="0.8" d="M519.837 451.327L573.501 422.767L627.164 451.327L627.168 451.329L680.328 480.68L680.818 538.574V538.579L680.328 596.473L627.168 625.824L627.164 625.826L573.501 654.386L519.837 625.826L519.833 625.824L466.673 596.473L466.183 538.579V538.574L466.673 480.68L519.833 451.329L519.837 451.327Z" stroke="white" stroke-width="0.595377"/>
<path d="M547.789 496.787L573.501 483.103L599.213 496.787L599.217 496.789L624.68 510.848L624.914 538.574V538.579L624.68 566.305L599.217 580.364L599.213 580.366L573.501 594.05L547.789 580.366L547.785 580.364L522.322 566.305L522.087 538.579V538.574L522.322 510.848L547.785 496.789L547.789 496.787Z" stroke="white" stroke-width="0.595377"/>
</g>
</svg>
