<svg width="1440" height="2021" viewBox="0 0 1440 2021" fill="none" xmlns="http://www.w3.org/2000/svg">
<g opacity="0.3" filter="url(#filter0_f_821_1239)">
<path d="M1881.96 790.883C1786.38 952.885 1874.44 280.105 1176.93 264.022C1105.86 222.093 1125.72 56.7748 1221.3 -105.227C1316.88 -267.229 1377.19 -690.076 1448.25 -648.147C1519.32 -606.219 1977.53 628.881 1881.96 790.883Z" fill="#FF6B00"/>
</g>
<g opacity="0.5" filter="url(#filter1_f_821_1239)">
<path d="M-1389.1 710.151C-1456.22 965.271 -872.67 213.576 -168.295 892.803C-56.3763 922.249 88.764 739.303 155.885 484.183C223.005 229.063 584.875 -248.328 472.956 -277.773C361.037 -307.218 -1321.98 455.031 -1389.1 710.151Z" fill="url(#paint0_linear_821_1239)" fill-opacity="0.5"/>
</g>
<g opacity="0.4" filter="url(#filter2_f_821_1239)">
<path d="M1103.84 1296.83C1124.62 1383.12 1288.25 1405.14 1379.92 1345.24C1506.86 1262.28 1513.77 1156.46 1416.29 1035.62C1294.44 884.57 1228.78 899.575 1250.37 1122.77C1271.96 1345.97 1083.06 1210.55 1103.84 1296.83Z" fill="#FFC700"/>
</g>
<g opacity="0.5" filter="url(#filter3_f_821_1239)">
<path d="M302.292 1367.72C524.567 1509.8 -413.991 1352.67 -471.477 2329.49C-533.804 2427 -764.519 2390.88 -986.794 2248.8C-1209.07 2106.72 -1798.71 2001.01 -1736.38 1903.5C-1674.05 1805.99 80.0184 1225.64 302.292 1367.72Z" fill="url(#paint1_linear_821_1239)" fill-opacity="0.5"/>
</g>
<defs>
<filter id="filter0_f_821_1239" x="818.312" y="-967.055" width="1392.7" height="2099.09" filterUnits="userSpaceOnUse" color-interpolation-filters="sRGB">
<feFlood flood-opacity="0" result="BackgroundImageFix"/>
<feBlend mode="normal" in="SourceGraphic" in2="BackgroundImageFix" result="shape"/>
<feGaussianBlur stdDeviation="158" result="effect1_foregroundBlur_821_1239"/>
</filter>
<filter id="filter1_f_821_1239" x="-1710.37" y="-594.602" width="2520.65" height="1806.52" filterUnits="userSpaceOnUse" color-interpolation-filters="sRGB">
<feFlood flood-opacity="0" result="BackgroundImageFix"/>
<feBlend mode="normal" in="SourceGraphic" in2="BackgroundImageFix" result="shape"/>
<feGaussianBlur stdDeviation="158" result="effect1_foregroundBlur_821_1239"/>
</filter>
<filter id="filter2_f_821_1239" x="660.438" y="494.427" width="1264.4" height="1326.38" filterUnits="userSpaceOnUse" color-interpolation-filters="sRGB">
<feFlood flood-opacity="0" result="BackgroundImageFix"/>
<feBlend mode="normal" in="SourceGraphic" in2="BackgroundImageFix" result="shape"/>
<feGaussianBlur stdDeviation="220.9" result="effect1_foregroundBlur_821_1239"/>
</filter>
<filter id="filter3_f_821_1239" x="-2056.97" y="1029.45" width="2709.25" height="1670.84" filterUnits="userSpaceOnUse" color-interpolation-filters="sRGB">
<feFlood flood-opacity="0" result="BackgroundImageFix"/>
<feBlend mode="normal" in="SourceGraphic" in2="BackgroundImageFix" result="shape"/>
<feGaussianBlur stdDeviation="158" result="effect1_foregroundBlur_821_1239"/>
</filter>
<linearGradient id="paint0_linear_821_1239" x1="-358.033" y1="503.282" x2="63.3812" y2="-132.086" gradientUnits="userSpaceOnUse">
<stop stop-color="#00A3FF"/>
<stop offset="1" stop-color="#2ED3B7"/>
</linearGradient>
<linearGradient id="paint1_linear_821_1239" x1="-596" y1="1914.5" x2="-1336.5" y2="1733" gradientUnits="userSpaceOnUse">
<stop stop-color="#00A3FF"/>
<stop offset="1" stop-color="#2ED3B7"/>
</linearGradient>
</defs>
</svg>
