<svg width="460" height="460" viewBox="0 0 460 460" fill="none" xmlns="http://www.w3.org/2000/svg">
<g filter="url(#filter0_d_800_25643)">
<rect x="63" y="39" width="178.533" height="178.539" rx="32" fill="white"/>
</g>
<g filter="url(#filter1_f_800_25643)">
<ellipse cx="152.753" cy="127.683" rx="53.292" ry="48.4487" fill="url(#paint0_angular_800_25643)"/>
</g>
<rect x="101.977" y="77.3516" width="100.582" height="101.517" rx="50.2911" fill="#0F0F0F"/>
<rect x="101.977" y="77.3516" width="100.582" height="101.517" rx="50.2911" fill="url(#paint1_radial_800_25643)" fill-opacity="0.3"/>
<path d="M176.927 113.893V142.325L152.269 156.543L127.61 142.325V113.893L152.269 99.6752L176.927 113.893Z" stroke="white" stroke-width="3.01751"/>
<g filter="url(#filter2_d_800_25643)">
<rect x="239" y="229" width="178.534" height="178.538" rx="32" fill="white" shape-rendering="crispEdges"/>
<rect x="239" y="229" width="178.534" height="178.538" rx="32" fill="white" shape-rendering="crispEdges"/>
<rect x="239" y="229" width="178.534" height="178.538" rx="32" fill="url(#paint2_linear_800_25643)" fill-opacity="0.4" shape-rendering="crispEdges"/>
<rect x="239.629" y="229.629" width="177.277" height="177.281" rx="31.3714" stroke="#00A3FF" stroke-width="1.2573" shape-rendering="crispEdges"/>
<path d="M277.705 291.202L270.644 303.664V311.117H266.48V303.664L259.419 291.202H263.855L267.053 297.146L268.562 300.284L270.101 297.146L273.299 291.202H277.705ZM284.2 295.728C285.729 295.728 287.067 296.04 288.214 296.663C289.38 297.287 290.286 298.182 290.929 299.349C291.593 300.516 291.925 301.924 291.925 303.573C291.925 305.203 291.593 306.611 290.929 307.798C290.286 308.965 289.38 309.86 288.214 310.484C287.067 311.107 285.729 311.419 284.2 311.419C282.692 311.419 281.354 311.107 280.187 310.484C279.02 309.86 278.105 308.965 277.441 307.798C276.797 306.611 276.475 305.203 276.475 303.573C276.475 301.924 276.797 300.516 277.441 299.349C278.105 298.182 279.02 297.287 280.187 296.663C281.354 296.04 282.692 295.728 284.2 295.728ZM284.2 298.806C283.436 298.806 282.782 298.987 282.239 299.349C281.716 299.691 281.314 300.214 281.032 300.918C280.75 301.622 280.609 302.507 280.609 303.573C280.609 304.64 280.75 305.525 281.032 306.229C281.314 306.933 281.716 307.466 282.239 307.828C282.782 308.17 283.436 308.341 284.2 308.341C284.945 308.341 285.578 308.17 286.101 307.828C286.644 307.466 287.057 306.933 287.338 306.229C287.62 305.525 287.761 304.64 287.761 303.573C287.761 302.507 287.62 301.622 287.338 300.918C287.057 300.214 286.644 299.691 286.101 299.349C285.578 298.987 284.945 298.806 284.2 298.806ZM300.635 311.419C299.629 311.419 298.724 311.238 297.919 310.876C297.114 310.514 296.47 309.94 295.988 309.156C295.525 308.351 295.294 307.315 295.294 306.048V296.03H299.428V305.052C299.428 306.219 299.669 307.033 300.152 307.496C300.635 307.939 301.329 308.16 302.234 308.16C302.656 308.16 303.069 308.09 303.471 307.949C303.873 307.788 304.225 307.546 304.527 307.225C304.849 306.903 305.101 306.49 305.282 305.987C305.463 305.464 305.553 304.851 305.553 304.147V296.03H309.687V311.117H306.006L305.855 308.492C305.352 309.498 304.658 310.242 303.773 310.725C302.908 311.188 301.862 311.419 300.635 311.419ZM314.037 311.117V296.03H317.628L317.9 298.987C318.302 297.941 318.885 297.136 319.65 296.573C320.434 296.01 321.41 295.728 322.577 295.728C322.919 295.728 323.231 295.758 323.512 295.818C323.794 295.879 324.025 295.959 324.206 296.06L323.724 299.53C323.522 299.449 323.271 299.389 322.969 299.349C322.688 299.309 322.315 299.289 321.853 299.289C321.249 299.289 320.666 299.439 320.103 299.741C319.539 300.023 319.077 300.465 318.714 301.069C318.352 301.652 318.171 302.397 318.171 303.302V311.117H314.037ZM278.761 341.625C278.379 342.913 277.775 343.989 276.951 344.854C276.126 345.719 275.15 346.363 274.024 346.785C272.897 347.208 271.66 347.419 270.312 347.419C268.341 347.419 266.631 347.007 265.182 346.182C263.754 345.357 262.648 344.18 261.863 342.651C261.099 341.122 260.716 339.292 260.716 337.159C260.716 335.027 261.099 333.196 261.863 331.668C262.648 330.139 263.754 328.962 265.182 328.137C266.631 327.312 268.321 326.9 270.252 326.9C271.62 326.9 272.857 327.091 273.963 327.473C275.07 327.835 276.005 328.409 276.77 329.193C277.554 329.958 278.128 330.913 278.49 332.06L274.718 333.659C274.376 332.452 273.853 331.597 273.149 331.094C272.445 330.571 271.539 330.31 270.433 330.31C269.347 330.31 268.391 330.571 267.566 331.094C266.762 331.617 266.138 332.392 265.695 333.418C265.253 334.424 265.032 335.671 265.032 337.159C265.032 338.628 265.233 339.875 265.635 340.901C266.057 341.927 266.671 342.702 267.476 343.225C268.28 343.748 269.266 344.009 270.433 344.009C271.519 344.009 272.455 343.717 273.239 343.134C274.044 342.551 274.607 341.666 274.929 340.479L278.761 341.625ZM288.768 331.728C290.297 331.728 291.634 332.04 292.781 332.663C293.948 333.287 294.853 334.182 295.497 335.349C296.161 336.516 296.493 337.924 296.493 339.573C296.493 341.203 296.161 342.611 295.497 343.798C294.853 344.965 293.948 345.86 292.781 346.484C291.634 347.107 290.297 347.419 288.768 347.419C287.259 347.419 285.921 347.107 284.754 346.484C283.588 345.86 282.672 344.965 282.009 343.798C281.365 342.611 281.043 341.203 281.043 339.573C281.043 337.924 281.365 336.516 282.009 335.349C282.672 334.182 283.588 333.287 284.754 332.663C285.921 332.04 287.259 331.728 288.768 331.728ZM288.768 334.806C288.003 334.806 287.35 334.987 286.806 335.349C286.283 335.691 285.881 336.214 285.599 336.918C285.318 337.622 285.177 338.507 285.177 339.573C285.177 340.64 285.318 341.525 285.599 342.229C285.881 342.933 286.283 343.466 286.806 343.828C287.35 344.17 288.003 344.341 288.768 344.341C289.512 344.341 290.146 344.17 290.669 343.828C291.212 343.466 291.624 342.933 291.906 342.229C292.188 341.525 292.328 340.64 292.328 339.573C292.328 338.507 292.188 337.622 291.906 336.918C291.624 336.214 291.212 335.691 290.669 335.349C290.146 334.987 289.512 334.806 288.768 334.806ZM299.952 347.117V332.03H303.663L303.814 334.745C304.317 333.74 305.001 332.985 305.866 332.482C306.751 331.979 307.727 331.728 308.793 331.728C309.879 331.728 310.855 331.979 311.72 332.482C312.605 332.985 313.269 333.729 313.712 334.715C314.033 334.051 314.466 333.498 315.009 333.056C315.552 332.613 316.156 332.281 316.82 332.06C317.483 331.839 318.157 331.728 318.841 331.728C319.827 331.728 320.722 331.929 321.527 332.331C322.352 332.734 323.005 333.337 323.488 334.142C323.971 334.947 324.212 335.973 324.212 337.22V347.117H320.078V338.034C320.078 336.928 319.837 336.144 319.354 335.681C318.871 335.218 318.248 334.987 317.483 334.987C316.88 334.987 316.317 335.138 315.794 335.439C315.291 335.741 314.888 336.194 314.587 336.797C314.305 337.381 314.164 338.115 314.164 339V347.117H310.03V338.034C310.03 336.928 309.779 336.144 309.276 335.681C308.793 335.218 308.169 334.987 307.405 334.987C306.882 334.987 306.359 335.128 305.836 335.409C305.333 335.691 304.91 336.133 304.568 336.737C304.247 337.34 304.086 338.135 304.086 339.121V347.117H299.952ZM328.477 353.454V332.03H332.188L332.46 336.827L331.947 336.284C332.128 335.399 332.46 334.615 332.943 333.931C333.445 333.247 334.079 332.714 334.844 332.331C335.608 331.929 336.463 331.728 337.408 331.728C338.636 331.728 339.732 332.04 340.698 332.663C341.663 333.287 342.417 334.182 342.961 335.349C343.524 336.496 343.806 337.894 343.806 339.543C343.806 341.193 343.524 342.611 342.961 343.798C342.397 344.965 341.623 345.86 340.637 346.484C339.672 347.107 338.565 347.419 337.318 347.419C335.99 347.419 334.884 347.047 333.999 346.302C333.134 345.558 332.54 344.623 332.218 343.496L332.611 342.862V353.454H328.477ZM336.111 344.251C337.217 344.251 338.082 343.858 338.706 343.074C339.35 342.269 339.672 341.102 339.672 339.573C339.672 338.045 339.36 336.888 338.736 336.103C338.133 335.299 337.278 334.896 336.171 334.896C335.467 334.896 334.844 335.087 334.3 335.47C333.777 335.832 333.365 336.365 333.063 337.069C332.761 337.753 332.611 338.588 332.611 339.573C332.611 340.519 332.751 341.354 333.033 342.078C333.315 342.782 333.717 343.325 334.24 343.707C334.783 344.07 335.407 344.251 336.111 344.251ZM355.906 337.491C355.906 336.626 355.655 335.952 355.152 335.47C354.669 334.987 354.026 334.745 353.221 334.745C352.477 334.745 351.823 334.936 351.26 335.319C350.696 335.701 350.284 336.335 350.022 337.22L346.492 336.133C346.834 334.806 347.578 333.74 348.725 332.935C349.892 332.13 351.451 331.728 353.402 331.728C354.73 331.728 355.886 331.939 356.872 332.362C357.858 332.764 358.622 333.377 359.165 334.202C359.729 335.027 360.01 336.063 360.01 337.31V343.436C360.01 344.2 360.372 344.582 361.097 344.582C361.439 344.582 361.76 344.532 362.062 344.432L361.821 346.996C361.298 347.258 360.644 347.389 359.859 347.389C359.155 347.389 358.522 347.268 357.958 347.027C357.395 346.785 356.953 346.423 356.631 345.94C356.309 345.437 356.148 344.814 356.148 344.07V343.949L356.872 343.828C356.751 344.593 356.419 345.246 355.876 345.789C355.333 346.313 354.669 346.715 353.885 346.996C353.12 347.278 352.326 347.419 351.501 347.419C350.475 347.419 349.59 347.268 348.845 346.966C348.101 346.644 347.528 346.182 347.126 345.578C346.723 344.975 346.522 344.23 346.522 343.345C346.522 342.219 346.884 341.303 347.608 340.599C348.333 339.875 349.369 339.382 350.716 339.121L356.389 337.974L356.359 340.539L352.738 341.263C352.054 341.404 351.531 341.595 351.169 341.837C350.827 342.058 350.656 342.43 350.656 342.953C350.656 343.456 350.837 343.838 351.199 344.1C351.581 344.361 352.034 344.492 352.557 344.492C352.979 344.492 353.392 344.442 353.794 344.341C354.197 344.24 354.559 344.08 354.881 343.858C355.202 343.637 355.454 343.335 355.635 342.953C355.816 342.571 355.906 342.108 355.906 341.565V337.491ZM364.634 347.117V332.03H368.345L368.587 336.556L368.074 336.073C368.315 335.087 368.697 334.283 369.22 333.659C369.743 333.015 370.377 332.533 371.121 332.211C371.886 331.889 372.721 331.728 373.626 331.728C374.672 331.728 375.597 331.929 376.402 332.331C377.227 332.734 377.871 333.347 378.333 334.172C378.816 334.977 379.057 335.993 379.057 337.22V347.117H374.923V338.397C374.923 337.109 374.672 336.224 374.169 335.741C373.666 335.238 373.012 334.987 372.208 334.987C371.644 334.987 371.091 335.128 370.548 335.409C370.025 335.671 369.592 336.103 369.25 336.707C368.929 337.31 368.768 338.115 368.768 339.121V347.117H364.634ZM396.939 332.03L390.843 348.053C390.361 349.421 389.817 350.507 389.214 351.312C388.631 352.116 387.947 352.7 387.162 353.062C386.398 353.424 385.482 353.605 384.416 353.605C383.632 353.605 382.907 353.504 382.243 353.303C381.6 353.122 381.036 352.881 380.554 352.579L381.429 349.592C381.811 349.893 382.213 350.105 382.636 350.225C383.058 350.366 383.541 350.436 384.084 350.436C384.647 350.436 385.13 350.316 385.533 350.074C385.955 349.833 386.307 349.35 386.589 348.626L387.102 347.328L385.442 343.406L380.825 332.03H385.412L388.278 341.082L389.063 344.1L389.998 340.901L392.744 332.03H396.939Z" fill="black"/>
</g>
<g filter="url(#filter3_d_800_25643)">
<rect x="196" y="178" width="71" height="71" rx="14.2" fill="white" shape-rendering="crispEdges"/>
<path d="M242.795 212.245L245.306 214.756C248.772 218.222 248.772 223.841 245.306 227.307C241.84 230.773 236.22 230.773 232.755 227.307L230.244 224.797M232.755 202.205L230.244 199.694C226.778 196.228 221.159 196.228 217.693 199.694C214.227 203.16 214.227 208.78 217.693 212.245L220.203 214.756M237.712 219.713L225.287 207.288" stroke="black" stroke-width="3.55" stroke-linecap="round" stroke-linejoin="round"/>
</g>
<rect x="22" y="182" width="62" height="62" rx="15.5" fill="url(#paint3_linear_800_25643)"/>
<path d="M59.4596 222.688L64.3034 217.844M64.3034 217.844L69.1471 222.688M64.3034 217.844V227.531M53.0013 218.651H45.7357C43.4824 218.651 42.3558 218.651 41.439 218.929C39.375 219.555 37.7597 221.171 37.1336 223.235C36.8555 224.151 36.8555 225.278 36.8555 227.531M57.0378 205.734C57.0378 209.747 53.7848 213 49.7721 213C45.7594 213 42.5065 209.747 42.5065 205.734C42.5065 201.722 45.7594 198.469 49.7721 198.469C53.7848 198.469 57.0378 201.722 57.0378 205.734Z" stroke="white" stroke-width="2.90625" stroke-linecap="round" stroke-linejoin="round"/>
<rect x="324" width="94" height="94" rx="23.5" fill="url(#paint4_linear_800_25643)"/>
<path d="M379.57 26.1914V22.5195M389.213 28.7878L391.81 26.1914M391.835 38.431H395.507M395.361 49.4466C394.133 61.8167 383.696 71.4779 371.003 71.4779C357.483 71.4779 346.523 60.5182 346.523 46.9987C346.523 34.3054 356.185 23.8686 368.555 22.6404M371.003 37.207H380.794V46.9987M379.863 37.207C374.1 45.3527 364.605 50.6706 353.867 50.6706C351.412 50.6706 349.022 50.3926 346.727 49.8663" stroke="white" stroke-width="3" stroke-linecap="round" stroke-linejoin="round"/>
<rect x="124" y="351" width="72" height="72" rx="18" fill="url(#paint5_linear_800_25643)"/>
<path d="M167.496 370.125H176.871V379.5" stroke="white" stroke-width="3.375" stroke-linecap="round" stroke-linejoin="round"/>
<path d="M152.5 370.125H143.125V379.5" stroke="white" stroke-width="3.375" stroke-linecap="round" stroke-linejoin="round"/>
<path d="M160 405.75V390.187C160.011 389.189 159.822 388.198 159.444 387.273C159.067 386.349 158.509 385.509 157.803 384.803L143.125 370.125" stroke="white" stroke-width="3.375" stroke-linecap="round" stroke-linejoin="round"/>
<path d="M165.625 381.375L176.875 370.125" stroke="white" stroke-width="3.375" stroke-linecap="round" stroke-linejoin="round"/>
<defs>
<filter id="filter0_d_800_25643" x="35.5725" y="22.8662" width="233.39" height="233.394" filterUnits="userSpaceOnUse" color-interpolation-filters="sRGB">
<feFlood flood-opacity="0" result="BackgroundImageFix"/>
<feColorMatrix in="SourceAlpha" type="matrix" values="0 0 0 0 0 0 0 0 0 0 0 0 0 0 0 0 0 0 127 0" result="hardAlpha"/>
<feOffset dy="11.2937"/>
<feGaussianBlur stdDeviation="13.7138"/>
<feComposite in2="hardAlpha" operator="out"/>
<feColorMatrix type="matrix" values="0 0 0 0 0 0 0 0 0 0 0 0 0 0 0 0 0 0 0.15 0"/>
<feBlend mode="normal" in2="BackgroundImageFix" result="effect1_dropShadow_800_25643"/>
<feBlend mode="normal" in="SourceGraphic" in2="effect1_dropShadow_800_25643" result="shape"/>
</filter>
<filter id="filter1_f_800_25643" x="60.7026" y="40.476" width="184.099" height="174.415" filterUnits="userSpaceOnUse" color-interpolation-filters="sRGB">
<feFlood flood-opacity="0" result="BackgroundImageFix"/>
<feBlend mode="normal" in="SourceGraphic" in2="BackgroundImageFix" result="shape"/>
<feGaussianBlur stdDeviation="19.3792" result="effect1_foregroundBlur_800_25643"/>
</filter>
<filter id="filter2_d_800_25643" x="211.572" y="212.866" width="233.39" height="233.394" filterUnits="userSpaceOnUse" color-interpolation-filters="sRGB">
<feFlood flood-opacity="0" result="BackgroundImageFix"/>
<feColorMatrix in="SourceAlpha" type="matrix" values="0 0 0 0 0 0 0 0 0 0 0 0 0 0 0 0 0 0 127 0" result="hardAlpha"/>
<feOffset dy="11.2937"/>
<feGaussianBlur stdDeviation="13.7138"/>
<feComposite in2="hardAlpha" operator="out"/>
<feColorMatrix type="matrix" values="0 0 0 0 0 0 0 0 0 0 0 0 0 0 0 0 0 0 0.15 0"/>
<feBlend mode="normal" in2="BackgroundImageFix" result="effect1_dropShadow_800_25643"/>
<feBlend mode="normal" in="SourceGraphic" in2="effect1_dropShadow_800_25643" result="shape"/>
</filter>
<filter id="filter3_d_800_25643" x="147.316" y="149.362" width="168.368" height="168.368" filterUnits="userSpaceOnUse" color-interpolation-filters="sRGB">
<feFlood flood-opacity="0" result="BackgroundImageFix"/>
<feColorMatrix in="SourceAlpha" type="matrix" values="0 0 0 0 0 0 0 0 0 0 0 0 0 0 0 0 0 0 127 0" result="hardAlpha"/>
<feOffset dy="20.0463"/>
<feGaussianBlur stdDeviation="24.3419"/>
<feComposite in2="hardAlpha" operator="out"/>
<feColorMatrix type="matrix" values="0 0 0 0 0 0 0 0 0 0 0 0 0 0 0 0 0 0 0.15 0"/>
<feBlend mode="normal" in2="BackgroundImageFix" result="effect1_dropShadow_800_25643"/>
<feBlend mode="normal" in="SourceGraphic" in2="effect1_dropShadow_800_25643" result="shape"/>
</filter>
<radialGradient id="paint0_angular_800_25643" cx="0" cy="0" r="1" gradientUnits="userSpaceOnUse" gradientTransform="translate(153.203 128.925) rotate(-0.584954) scale(121.683 114.388)">
<stop offset="0.045503" stop-color="#00D1FF"/>
<stop offset="0.118718" stop-color="#E3FF10"/>
<stop offset="0.17354" stop-color="#35FF73"/>
<stop offset="0.261942" stop-color="#059EFF"/>
<stop offset="0.326616" stop-color="#1DF1E6"/>
<stop offset="0.384667" stop-color="#FFF938"/>
<stop offset="0.469703" stop-color="#933EFF"/>
<stop offset="0.499616" stop-color="#0036C9"/>
<stop offset="0.588374" stop-color="#2DCEFF"/>
<stop offset="0.612096" stop-color="#68D5D3"/>
<stop offset="0.639008" stop-color="#EFC11C"/>
<stop offset="0.657004" stop-color="#FF8540"/>
<stop offset="0.678465" stop-color="#FF2C00"/>
<stop offset="0.708549" stop-color="#FF6DD6"/>
<stop offset="0.723287" stop-color="#E482FF"/>
<stop offset="0.756122" stop-color="#4E45C9"/>
<stop offset="0.823559" stop-color="#5DC9EB"/>
<stop offset="0.868801" stop-color="#FDFFA7"/>
<stop offset="0.926487" stop-color="#0697FF"/>
<stop offset="0.954862" stop-color="#0040D0"/>
<stop offset="0.986084" stop-color="#0082C9"/>
</radialGradient>
<radialGradient id="paint1_radial_800_25643" cx="0" cy="0" r="1" gradientUnits="userSpaceOnUse" gradientTransform="translate(174.899 178.868) rotate(-120.614) scale(106.162 105.694)">
<stop stop-color="white"/>
<stop offset="1" stop-color="white" stop-opacity="0"/>
</radialGradient>
<linearGradient id="paint2_linear_800_25643" x1="418.575" y1="393.098" x2="238.413" y2="387.444" gradientUnits="userSpaceOnUse">
<stop stop-color="#00A3FF"/>
<stop offset="1" stop-color="#00A3FF" stop-opacity="0"/>
</linearGradient>
<linearGradient id="paint3_linear_800_25643" x1="53" y1="244" x2="53" y2="182" gradientUnits="userSpaceOnUse">
<stop stop-color="#EE46BC"/>
<stop offset="1" stop-color="#FF692E"/>
</linearGradient>
<linearGradient id="paint4_linear_800_25643" x1="371" y1="94" x2="371" y2="0" gradientUnits="userSpaceOnUse">
<stop stop-color="#16B364"/>
<stop offset="1" stop-color="#3DE103"/>
</linearGradient>
<linearGradient id="paint5_linear_800_25643" x1="160" y1="423" x2="160" y2="351" gradientUnits="userSpaceOnUse">
<stop stop-color="#2970FF"/>
<stop offset="1" stop-color="#7A5AF8"/>
</linearGradient>
</defs>
</svg>
