<svg width="440" height="476" viewBox="0 0 440 476" fill="none" xmlns="http://www.w3.org/2000/svg">
<g clip-path="url(#clip0_807_4126)">
<path d="M380.307 380.191C403.776 350.152 418.347 314.132 422.365 276.224C426.383 238.317 419.686 200.043 403.035 165.752C386.384 131.461 360.447 102.528 328.173 82.2434C295.899 61.9585 258.581 51.1343 220.461 51.0012C182.342 50.8682 144.949 61.4315 112.534 81.4907C80.1186 101.55 53.9807 130.3 37.0909 164.474C20.2011 198.648 13.2369 236.875 16.9899 274.809C20.7428 312.744 35.0624 348.865 58.321 379.067" stroke="#131316" stroke-opacity="0.1" stroke-width="19" stroke-linecap="round" stroke-linejoin="round"/>
<path d="M59.1928 380.191C41.3922 357.407 28.6445 331.096 21.7969 303.006C14.9492 274.915 14.1583 245.689 19.4769 217.27C24.7955 188.85 36.1017 161.888 52.6441 138.175C69.1865 114.462 90.5862 94.5416 115.421 79.7369C140.256 64.9323 167.958 55.5828 196.685 52.3097C225.412 49.0367 254.507 51.9151 282.035 60.7536C309.564 69.5922 334.897 84.1884 356.349 103.572C377.802 122.956 394.884 146.684 406.459 173.179" stroke="#00A3FF" stroke-width="19" stroke-linecap="round" stroke-linejoin="round"/>
<circle cx="219.5" cy="255.5" r="186" stroke="#131316" stroke-opacity="0.1" stroke-width="17" stroke-dasharray="2 34"/>
</g>
<path d="M109.515 296L106.023 284.12H108.057L110.721 294.326L113.313 284.12H115.293L117.903 294.344L120.549 284.12H122.511L119.037 296H116.769L114.879 288.872L114.285 286.136H114.267L113.673 288.872L111.801 296H109.515ZM125.206 285.488C124.786 285.488 124.462 285.386 124.234 285.182C124.018 284.966 123.91 284.666 123.91 284.282C123.91 283.898 124.018 283.604 124.234 283.4C124.462 283.196 124.786 283.094 125.206 283.094C125.614 283.094 125.926 283.196 126.142 283.4C126.37 283.604 126.484 283.898 126.484 284.282C126.484 284.666 126.37 284.966 126.142 285.182C125.926 285.386 125.614 285.488 125.206 285.488ZM126.16 287V296H124.234V287H126.16ZM131.531 284.354V293.3C131.531 293.744 131.645 294.068 131.873 294.272C132.113 294.476 132.431 294.578 132.827 294.578C133.151 294.578 133.433 294.53 133.673 294.434C133.913 294.326 134.135 294.182 134.339 294.002L134.771 295.406C134.495 295.646 134.153 295.838 133.745 295.982C133.349 296.114 132.905 296.18 132.413 296.18C131.897 296.18 131.423 296.096 130.991 295.928C130.559 295.76 130.223 295.49 129.983 295.118C129.743 294.734 129.617 294.236 129.605 293.624V284.894L131.531 284.354ZM134.627 287V288.512H127.877V287H134.627ZM136.332 296V282.95H138.258V288.44C138.558 287.876 138.96 287.468 139.464 287.216C139.98 286.952 140.55 286.82 141.174 286.82C141.81 286.82 142.38 286.946 142.884 287.198C143.4 287.438 143.808 287.804 144.108 288.296C144.408 288.788 144.558 289.412 144.558 290.168V296H142.632V290.78C142.632 289.892 142.446 289.274 142.074 288.926C141.714 288.578 141.258 288.404 140.706 288.404C140.322 288.404 139.938 288.5 139.554 288.692C139.182 288.872 138.87 289.172 138.618 289.592C138.378 290 138.258 290.552 138.258 291.248V296H136.332ZM156.678 286.82C157.398 286.82 158.01 286.928 158.514 287.144C159.03 287.348 159.462 287.642 159.81 288.026C160.158 288.41 160.422 288.848 160.602 289.34L158.784 290.06C158.628 289.508 158.376 289.088 158.028 288.8C157.692 288.5 157.248 288.35 156.696 288.35C156.156 288.35 155.694 288.476 155.31 288.728C154.926 288.968 154.632 289.322 154.428 289.79C154.236 290.258 154.14 290.834 154.14 291.518C154.14 292.19 154.242 292.76 154.446 293.228C154.65 293.696 154.944 294.05 155.328 294.29C155.712 294.53 156.168 294.65 156.696 294.65C157.104 294.65 157.458 294.584 157.758 294.452C158.058 294.308 158.304 294.11 158.496 293.858C158.7 293.594 158.838 293.276 158.91 292.904L160.656 293.498C160.488 294.038 160.224 294.512 159.864 294.92C159.516 295.316 159.078 295.628 158.55 295.856C158.022 296.072 157.416 296.18 156.732 296.18C155.844 296.18 155.058 295.994 154.374 295.622C153.69 295.25 153.156 294.716 152.772 294.02C152.4 293.312 152.214 292.472 152.214 291.5C152.214 290.528 152.4 289.694 152.772 288.998C153.156 288.29 153.684 287.75 154.356 287.378C155.04 287.006 155.814 286.82 156.678 286.82ZM164.5 282.95V293.48C164.5 293.924 164.578 294.23 164.734 294.398C164.89 294.566 165.148 294.65 165.508 294.65C165.724 294.65 165.904 294.638 166.048 294.614C166.204 294.578 166.396 294.518 166.624 294.434L166.408 295.874C166.204 295.97 165.97 296.042 165.706 296.09C165.442 296.15 165.178 296.18 164.914 296.18C164.11 296.18 163.516 295.976 163.132 295.568C162.76 295.148 162.574 294.506 162.574 293.642V282.95H164.5ZM171.871 286.82C172.747 286.82 173.521 287.006 174.193 287.378C174.865 287.75 175.387 288.29 175.759 288.998C176.143 289.694 176.335 290.528 176.335 291.5C176.335 292.472 176.143 293.312 175.759 294.02C175.387 294.716 174.865 295.25 174.193 295.622C173.521 295.994 172.747 296.18 171.871 296.18C170.995 296.18 170.221 295.994 169.549 295.622C168.877 295.25 168.349 294.716 167.965 294.02C167.581 293.312 167.389 292.472 167.389 291.5C167.389 290.528 167.581 289.694 167.965 288.998C168.349 288.29 168.877 287.75 169.549 287.378C170.221 287.006 170.995 286.82 171.871 286.82ZM171.871 288.332C171.331 288.332 170.869 288.458 170.485 288.71C170.113 288.95 169.825 289.304 169.621 289.772C169.417 290.24 169.315 290.816 169.315 291.5C169.315 292.172 169.417 292.748 169.621 293.228C169.825 293.696 170.113 294.056 170.485 294.308C170.869 294.548 171.331 294.668 171.871 294.668C172.411 294.668 172.867 294.548 173.239 294.308C173.611 294.056 173.899 293.696 174.103 293.228C174.307 292.748 174.409 292.172 174.409 291.5C174.409 290.816 174.307 290.24 174.103 289.772C173.899 289.304 173.611 288.95 173.239 288.71C172.867 288.458 172.411 288.332 171.871 288.332ZM181.692 296.18C181.104 296.18 180.558 296.072 180.054 295.856C179.562 295.64 179.166 295.292 178.866 294.812C178.566 294.332 178.416 293.708 178.416 292.94V287H180.342V292.454C180.342 293.27 180.516 293.834 180.864 294.146C181.212 294.446 181.698 294.596 182.322 294.596C182.622 294.596 182.91 294.548 183.186 294.452C183.474 294.344 183.732 294.182 183.96 293.966C184.188 293.738 184.362 293.45 184.482 293.102C184.614 292.754 184.68 292.346 184.68 291.878V287H186.606V296H184.914L184.824 294.542C184.512 295.106 184.092 295.52 183.564 295.784C183.036 296.048 182.412 296.18 181.692 296.18ZM192.801 296.18C192.057 296.18 191.379 295.994 190.767 295.622C190.167 295.25 189.693 294.716 189.345 294.02C188.997 293.324 188.823 292.49 188.823 291.518C188.823 290.51 189.009 289.658 189.381 288.962C189.753 288.266 190.251 287.738 190.875 287.378C191.499 287.006 192.183 286.82 192.927 286.82C193.695 286.82 194.343 287.03 194.871 287.45C195.399 287.87 195.753 288.416 195.933 289.088L195.717 289.286V282.95H197.643V296H195.933L195.789 293.552L196.041 293.57C195.957 294.11 195.759 294.578 195.447 294.974C195.135 295.358 194.745 295.658 194.277 295.874C193.821 296.078 193.329 296.18 192.801 296.18ZM193.215 294.632C193.731 294.632 194.175 294.5 194.547 294.236C194.919 293.972 195.207 293.6 195.411 293.12C195.615 292.64 195.717 292.064 195.717 291.392C195.717 290.768 195.615 290.234 195.411 289.79C195.207 289.334 194.919 288.986 194.547 288.746C194.187 288.506 193.767 288.386 193.287 288.386C192.483 288.386 191.859 288.662 191.415 289.214C190.971 289.766 190.749 290.528 190.749 291.5C190.749 292.472 190.965 293.24 191.397 293.804C191.829 294.356 192.435 294.632 193.215 294.632ZM206.57 290.366V292.148H200.432V290.366H206.57ZM214.178 296.18C213.65 296.18 213.164 296.078 212.72 295.874C212.288 295.67 211.922 295.388 211.622 295.028C211.322 294.656 211.1 294.242 210.956 293.786L211.19 293.48L211.046 296H209.354V282.95H211.28V289.268L211.064 288.962C211.292 288.338 211.682 287.828 212.234 287.432C212.786 287.024 213.452 286.82 214.232 286.82C214.952 286.82 215.612 287.006 216.212 287.378C216.824 287.75 217.304 288.284 217.652 288.98C218 289.676 218.174 290.522 218.174 291.518C218.174 292.49 217.994 293.324 217.634 294.02C217.286 294.716 216.806 295.25 216.194 295.622C215.594 295.994 214.922 296.18 214.178 296.18ZM213.764 294.632C214.544 294.632 215.15 294.356 215.582 293.804C216.026 293.24 216.248 292.472 216.248 291.5C216.248 290.528 216.032 289.766 215.6 289.214C215.168 288.662 214.562 288.386 213.782 288.386C213.278 288.386 212.84 288.518 212.468 288.782C212.096 289.034 211.802 289.394 211.586 289.862C211.382 290.33 211.28 290.888 211.28 291.536C211.28 292.172 211.382 292.724 211.586 293.192C211.79 293.648 212.078 294.002 212.45 294.254C212.834 294.506 213.272 294.632 213.764 294.632ZM225.553 290.222C225.553 289.622 225.385 289.16 225.049 288.836C224.725 288.5 224.275 288.332 223.699 288.332C223.159 288.332 222.697 288.458 222.313 288.71C221.929 288.962 221.647 289.37 221.467 289.934L219.847 289.25C220.075 288.518 220.519 287.93 221.179 287.486C221.851 287.042 222.715 286.82 223.771 286.82C224.491 286.82 225.127 286.94 225.679 287.18C226.231 287.408 226.663 287.756 226.975 288.224C227.299 288.692 227.461 289.292 227.461 290.024V294.038C227.461 294.482 227.683 294.704 228.127 294.704C228.343 294.704 228.553 294.674 228.757 294.614L228.649 295.946C228.373 296.078 228.025 296.144 227.605 296.144C227.221 296.144 226.873 296.078 226.561 295.946C226.261 295.802 226.021 295.592 225.841 295.316C225.673 295.028 225.589 294.674 225.589 294.254V294.128L225.985 294.11C225.877 294.578 225.655 294.968 225.319 295.28C224.983 295.58 224.593 295.808 224.149 295.964C223.705 296.108 223.255 296.18 222.799 296.18C222.235 296.18 221.725 296.09 221.269 295.91C220.825 295.73 220.471 295.46 220.207 295.1C219.955 294.728 219.829 294.272 219.829 293.732C219.829 293.06 220.045 292.508 220.477 292.076C220.921 291.644 221.545 291.35 222.349 291.194L225.841 290.51L225.823 291.86L223.285 292.382C222.781 292.478 222.403 292.616 222.151 292.796C221.899 292.976 221.773 293.24 221.773 293.588C221.773 293.924 221.899 294.194 222.151 294.398C222.415 294.59 222.763 294.686 223.195 294.686C223.495 294.686 223.783 294.65 224.059 294.578C224.347 294.506 224.605 294.392 224.833 294.236C225.061 294.068 225.235 293.858 225.355 293.606C225.487 293.342 225.553 293.03 225.553 292.67V290.222ZM233.767 296.18C232.867 296.18 232.045 296.006 231.301 295.658C230.557 295.31 229.969 294.818 229.537 294.182L230.869 293.03C231.133 293.522 231.511 293.918 232.003 294.218C232.507 294.506 233.107 294.65 233.803 294.65C234.355 294.65 234.793 294.554 235.117 294.362C235.441 294.17 235.603 293.9 235.603 293.552C235.603 293.324 235.525 293.126 235.369 292.958C235.225 292.778 234.943 292.64 234.523 292.544L232.633 292.148C231.673 291.956 230.989 291.65 230.581 291.23C230.173 290.798 229.969 290.252 229.969 289.592C229.969 289.1 230.113 288.644 230.401 288.224C230.689 287.804 231.109 287.468 231.661 287.216C232.225 286.952 232.897 286.82 233.677 286.82C234.577 286.82 235.345 286.982 235.981 287.306C236.617 287.618 237.103 288.068 237.439 288.656L236.107 289.772C235.879 289.292 235.543 288.938 235.099 288.71C234.655 288.47 234.193 288.35 233.713 288.35C233.329 288.35 232.999 288.398 232.723 288.494C232.447 288.59 232.237 288.722 232.093 288.89C231.949 289.058 231.877 289.256 231.877 289.484C231.877 289.724 231.967 289.934 232.147 290.114C232.327 290.294 232.651 290.432 233.119 290.528L235.171 290.96C236.035 291.128 236.641 291.416 236.989 291.824C237.349 292.22 237.529 292.706 237.529 293.282C237.529 293.858 237.379 294.368 237.079 294.812C236.779 295.244 236.347 295.58 235.783 295.82C235.219 296.06 234.547 296.18 233.767 296.18ZM243.547 296.18C242.647 296.18 241.855 295.994 241.171 295.622C240.487 295.25 239.953 294.716 239.569 294.02C239.197 293.312 239.011 292.472 239.011 291.5C239.011 290.528 239.197 289.694 239.569 288.998C239.953 288.29 240.481 287.75 241.153 287.378C241.825 287.006 242.587 286.82 243.439 286.82C244.315 286.82 245.059 287 245.671 287.36C246.283 287.72 246.751 288.212 247.075 288.836C247.399 289.46 247.561 290.168 247.561 290.96C247.561 291.176 247.555 291.38 247.543 291.572C247.531 291.764 247.513 291.932 247.489 292.076H240.253V290.6H246.643L245.689 290.888C245.689 290.072 245.485 289.448 245.077 289.016C244.669 288.572 244.111 288.35 243.403 288.35C242.887 288.35 242.437 288.47 242.053 288.71C241.669 288.95 241.375 289.31 241.171 289.79C240.967 290.258 240.865 290.834 240.865 291.518C240.865 292.19 240.973 292.76 241.189 293.228C241.405 293.696 241.711 294.05 242.107 294.29C242.503 294.53 242.971 294.65 243.511 294.65C244.111 294.65 244.597 294.536 244.969 294.308C245.341 294.08 245.635 293.762 245.851 293.354L247.381 294.074C247.165 294.506 246.871 294.884 246.499 295.208C246.139 295.52 245.707 295.76 245.203 295.928C244.699 296.096 244.147 296.18 243.547 296.18ZM253.179 296.18C252.435 296.18 251.757 295.994 251.145 295.622C250.545 295.25 250.071 294.716 249.723 294.02C249.375 293.324 249.201 292.49 249.201 291.518C249.201 290.51 249.387 289.658 249.759 288.962C250.131 288.266 250.629 287.738 251.253 287.378C251.877 287.006 252.561 286.82 253.305 286.82C254.073 286.82 254.721 287.03 255.249 287.45C255.777 287.87 256.131 288.416 256.311 289.088L256.095 289.286V282.95H258.021V296H256.311L256.167 293.552L256.419 293.57C256.335 294.11 256.137 294.578 255.825 294.974C255.513 295.358 255.123 295.658 254.655 295.874C254.199 296.078 253.707 296.18 253.179 296.18ZM253.593 294.632C254.109 294.632 254.553 294.5 254.925 294.236C255.297 293.972 255.585 293.6 255.789 293.12C255.993 292.64 256.095 292.064 256.095 291.392C256.095 290.768 255.993 290.234 255.789 289.79C255.585 289.334 255.297 288.986 254.925 288.746C254.565 288.506 254.145 288.386 253.665 288.386C252.861 288.386 252.237 288.662 251.793 289.214C251.349 289.766 251.127 290.528 251.127 291.5C251.127 292.472 251.343 293.24 251.775 293.804C252.207 294.356 252.813 294.632 253.593 294.632ZM269.742 296.18C268.842 296.18 268.02 296.006 267.276 295.658C266.532 295.31 265.944 294.818 265.512 294.182L266.844 293.03C267.108 293.522 267.486 293.918 267.978 294.218C268.482 294.506 269.082 294.65 269.778 294.65C270.33 294.65 270.768 294.554 271.092 294.362C271.416 294.17 271.578 293.9 271.578 293.552C271.578 293.324 271.5 293.126 271.344 292.958C271.2 292.778 270.918 292.64 270.498 292.544L268.608 292.148C267.648 291.956 266.964 291.65 266.556 291.23C266.148 290.798 265.944 290.252 265.944 289.592C265.944 289.1 266.088 288.644 266.376 288.224C266.664 287.804 267.084 287.468 267.636 287.216C268.2 286.952 268.872 286.82 269.652 286.82C270.552 286.82 271.32 286.982 271.956 287.306C272.592 287.618 273.078 288.068 273.414 288.656L272.082 289.772C271.854 289.292 271.518 288.938 271.074 288.71C270.63 288.47 270.168 288.35 269.688 288.35C269.304 288.35 268.974 288.398 268.698 288.494C268.422 288.59 268.212 288.722 268.068 288.89C267.924 289.058 267.852 289.256 267.852 289.484C267.852 289.724 267.942 289.934 268.122 290.114C268.302 290.294 268.626 290.432 269.094 290.528L271.146 290.96C272.01 291.128 272.616 291.416 272.964 291.824C273.324 292.22 273.504 292.706 273.504 293.282C273.504 293.858 273.354 294.368 273.054 294.812C272.754 295.244 272.322 295.58 271.758 295.82C271.194 296.06 270.522 296.18 269.742 296.18ZM279.468 286.82C280.344 286.82 281.118 287.006 281.79 287.378C282.462 287.75 282.984 288.29 283.356 288.998C283.74 289.694 283.932 290.528 283.932 291.5C283.932 292.472 283.74 293.312 283.356 294.02C282.984 294.716 282.462 295.25 281.79 295.622C281.118 295.994 280.344 296.18 279.468 296.18C278.592 296.18 277.818 295.994 277.146 295.622C276.474 295.25 275.946 294.716 275.562 294.02C275.178 293.312 274.986 292.472 274.986 291.5C274.986 290.528 275.178 289.694 275.562 288.998C275.946 288.29 276.474 287.75 277.146 287.378C277.818 287.006 278.592 286.82 279.468 286.82ZM279.468 288.332C278.928 288.332 278.466 288.458 278.082 288.71C277.71 288.95 277.422 289.304 277.218 289.772C277.014 290.24 276.912 290.816 276.912 291.5C276.912 292.172 277.014 292.748 277.218 293.228C277.422 293.696 277.71 294.056 278.082 294.308C278.466 294.548 278.928 294.668 279.468 294.668C280.008 294.668 280.464 294.548 280.836 294.308C281.208 294.056 281.496 293.696 281.7 293.228C281.904 292.748 282.006 292.172 282.006 291.5C282.006 290.816 281.904 290.24 281.7 289.772C281.496 289.304 281.208 288.95 280.836 288.71C280.464 288.458 280.008 288.332 279.468 288.332ZM287.956 282.95V293.48C287.956 293.924 288.034 294.23 288.19 294.398C288.346 294.566 288.604 294.65 288.964 294.65C289.18 294.65 289.36 294.638 289.504 294.614C289.66 294.578 289.852 294.518 290.08 294.434L289.864 295.874C289.66 295.97 289.426 296.042 289.162 296.09C288.898 296.15 288.634 296.18 288.37 296.18C287.566 296.18 286.972 295.976 286.588 295.568C286.216 295.148 286.03 294.506 286.03 293.642V282.95H287.956ZM294.626 296.18C294.038 296.18 293.492 296.072 292.988 295.856C292.496 295.64 292.1 295.292 291.8 294.812C291.5 294.332 291.35 293.708 291.35 292.94V287H293.276V292.454C293.276 293.27 293.45 293.834 293.798 294.146C294.146 294.446 294.632 294.596 295.256 294.596C295.556 294.596 295.844 294.548 296.12 294.452C296.408 294.344 296.666 294.182 296.894 293.966C297.122 293.738 297.296 293.45 297.416 293.102C297.548 292.754 297.614 292.346 297.614 291.878V287H299.54V296H297.848L297.758 294.542C297.446 295.106 297.026 295.52 296.498 295.784C295.97 296.048 295.346 296.18 294.626 296.18ZM304.907 284.354V293.3C304.907 293.744 305.021 294.068 305.249 294.272C305.489 294.476 305.807 294.578 306.203 294.578C306.527 294.578 306.809 294.53 307.049 294.434C307.289 294.326 307.511 294.182 307.715 294.002L308.147 295.406C307.871 295.646 307.529 295.838 307.121 295.982C306.725 296.114 306.281 296.18 305.789 296.18C305.273 296.18 304.799 296.096 304.367 295.928C303.935 295.76 303.599 295.49 303.359 295.118C303.119 294.734 302.993 294.236 302.981 293.624V284.894L304.907 284.354ZM308.003 287V288.512H301.253V287H308.003ZM310.61 285.488C310.19 285.488 309.866 285.386 309.638 285.182C309.422 284.966 309.314 284.666 309.314 284.282C309.314 283.898 309.422 283.604 309.638 283.4C309.866 283.196 310.19 283.094 310.61 283.094C311.018 283.094 311.33 283.196 311.546 283.4C311.774 283.604 311.888 283.898 311.888 284.282C311.888 284.666 311.774 284.966 311.546 285.182C311.33 285.386 311.018 285.488 310.61 285.488ZM311.564 287V296H309.638V287H311.564ZM318.213 286.82C319.089 286.82 319.863 287.006 320.535 287.378C321.207 287.75 321.729 288.29 322.101 288.998C322.485 289.694 322.677 290.528 322.677 291.5C322.677 292.472 322.485 293.312 322.101 294.02C321.729 294.716 321.207 295.25 320.535 295.622C319.863 295.994 319.089 296.18 318.213 296.18C317.337 296.18 316.563 295.994 315.891 295.622C315.219 295.25 314.691 294.716 314.307 294.02C313.923 293.312 313.731 292.472 313.731 291.5C313.731 290.528 313.923 289.694 314.307 288.998C314.691 288.29 315.219 287.75 315.891 287.378C316.563 287.006 317.337 286.82 318.213 286.82ZM318.213 288.332C317.673 288.332 317.211 288.458 316.827 288.71C316.455 288.95 316.167 289.304 315.963 289.772C315.759 290.24 315.657 290.816 315.657 291.5C315.657 292.172 315.759 292.748 315.963 293.228C316.167 293.696 316.455 294.056 316.827 294.308C317.211 294.548 317.673 294.668 318.213 294.668C318.753 294.668 319.209 294.548 319.581 294.308C319.953 294.056 320.241 293.696 320.445 293.228C320.649 292.748 320.751 292.172 320.751 291.5C320.751 290.816 320.649 290.24 320.445 289.772C320.241 289.304 319.953 288.95 319.581 288.71C319.209 288.458 318.753 288.332 318.213 288.332ZM324.83 296V287H326.54L326.666 289.34L326.414 289.088C326.582 288.572 326.822 288.146 327.134 287.81C327.458 287.462 327.836 287.21 328.268 287.054C328.712 286.898 329.18 286.82 329.672 286.82C330.308 286.82 330.878 286.946 331.382 287.198C331.898 287.438 332.306 287.804 332.606 288.296C332.906 288.788 333.056 289.412 333.056 290.168V296H331.13V290.762C331.13 289.874 330.944 289.262 330.572 288.926C330.212 288.578 329.756 288.404 329.204 288.404C328.808 288.404 328.424 288.5 328.052 288.692C327.68 288.872 327.368 289.166 327.116 289.574C326.876 289.982 326.756 290.528 326.756 291.212V296H324.83Z" fill="#131316" fill-opacity="0.8"/>
<path d="M132.745 260V205.52H152.825C156.665 205.52 160.078 206.293 163.065 207.84C166.051 209.387 168.371 211.547 170.025 214.32C171.731 217.093 172.585 220.347 172.585 224.08C172.585 227.813 171.731 231.067 170.025 233.84C168.371 236.613 166.051 238.773 163.065 240.32C160.078 241.813 156.665 242.56 152.825 242.56H141.065V232.56H151.785C154.878 232.56 157.331 231.84 159.145 230.4C160.958 228.907 161.865 226.8 161.865 224.08C161.865 221.253 160.958 219.12 159.145 217.68C157.331 216.24 154.878 215.52 151.785 215.52H140.985L143.225 213.2V260H132.745ZM161.705 260L149.705 237.68H161.225L173.145 260H161.705ZM178.287 232.8C178.287 228.693 178.981 224.933 180.367 221.52C181.754 218.053 183.701 215.067 186.207 212.56C188.714 210.053 191.674 208.107 195.087 206.72C198.554 205.333 202.341 204.64 206.447 204.64C210.501 204.64 214.234 205.333 217.647 206.72C221.061 208.107 224.021 210.053 226.527 212.56C229.034 215.067 230.981 218.053 232.367 221.52C233.754 224.933 234.447 228.693 234.447 232.8C234.447 236.853 233.754 240.613 232.367 244.08C230.981 247.493 229.034 250.48 226.527 253.04C224.021 255.547 221.061 257.493 217.647 258.88C214.234 260.267 210.501 260.96 206.447 260.96C202.341 260.96 198.554 260.267 195.087 258.88C191.674 257.493 188.714 255.547 186.207 253.04C183.701 250.48 181.754 247.493 180.367 244.08C178.981 240.613 178.287 236.853 178.287 232.8ZM189.007 232.8C189.007 236.32 189.754 239.44 191.247 242.16C192.741 244.827 194.794 246.907 197.407 248.4C200.074 249.893 203.087 250.64 206.447 250.64C209.807 250.64 212.767 249.893 215.327 248.4C217.941 246.907 219.994 244.827 221.487 242.16C222.981 239.44 223.727 236.32 223.727 232.8C223.727 229.227 222.981 226.107 221.487 223.44C219.994 220.72 217.941 218.613 215.327 217.12C212.767 215.627 209.807 214.88 206.447 214.88C203.087 214.88 200.074 215.653 197.407 217.2C194.794 218.693 192.741 220.773 191.247 223.44C189.754 226.107 189.007 229.227 189.007 232.8ZM252.287 260H241.807V205.52H252.287V260Z" fill="#131316"/>
<path d="M323.665 219.666L302.682 240.649C301.626 241.705 301.098 242.233 300.489 242.431C299.954 242.605 299.377 242.605 298.841 242.431C298.232 242.233 297.704 241.705 296.648 240.649L289.349 233.35C288.293 232.294 287.765 231.766 287.156 231.568C286.62 231.394 286.044 231.394 285.508 231.568C284.899 231.766 284.371 232.294 283.315 233.35L270.332 246.333M323.665 219.666H304.999M323.665 219.666V238.333" stroke="black" stroke-width="5.33333" stroke-linecap="round" stroke-linejoin="round"/>
<circle opacity="0.4" cx="220.198" cy="257.198" r="217.698" stroke="white"/>
<circle opacity="0.4" cx="220.396" cy="257" r="191.713" stroke="white"/>
<circle opacity="0.4" cx="220.2" cy="257.198" r="165.727" stroke="white"/>
<circle opacity="0.7" cx="220.398" cy="257" r="139.742" stroke="white"/>
<circle opacity="0.7" cx="220.198" cy="257.198" r="113.757" stroke="white"/>
<defs>
<clipPath id="clip0_807_4126">
<rect width="440" height="390" fill="white"/>
</clipPath>
</defs>
</svg>
