<svg width="460" height="460" viewBox="0 0 460 460" fill="none" xmlns="http://www.w3.org/2000/svg">
<path d="M15.3582 110.177C16.7422 109.157 17.803 108.318 18.5405 107.662C19.2779 106.995 19.8033 106.394 20.1164 105.858C20.4397 105.313 20.6013 104.742 20.6013 104.146C20.6013 103.55 20.4094 103.07 20.0255 102.706C19.6416 102.333 19.1264 102.146 18.4798 102.146C17.803 102.146 17.2524 102.368 16.8281 102.813C16.4139 103.257 16.1715 103.858 16.1007 104.616L15.04 103.979C15.1713 103.08 15.535 102.363 16.131 101.828C16.7372 101.282 17.5353 101.009 18.5253 101.009C19.1921 101.009 19.778 101.141 20.2831 101.403C20.7983 101.666 21.1923 102.035 21.4651 102.509C21.7379 102.984 21.8742 103.53 21.8742 104.146C21.8742 104.793 21.7177 105.414 21.4045 106.01C21.1014 106.606 20.6013 107.232 19.9043 107.889C19.2072 108.546 18.2677 109.268 17.0857 110.056V110.071C17.7525 110.041 18.2525 110.026 18.5859 110.026H22.0864V111.162H15.3582V110.177ZM27.2539 101.009C27.9105 101.009 28.4712 101.13 28.9359 101.373C29.4107 101.605 29.7694 101.918 30.0118 102.312C30.2543 102.706 30.3755 103.141 30.3755 103.616C30.3755 104.08 30.2896 104.5 30.1179 104.873C29.9461 105.247 29.7138 105.545 29.4208 105.767C29.138 105.98 28.8298 106.086 28.4965 106.086V106.116C29.1329 106.116 29.6431 106.348 30.027 106.813C30.4109 107.268 30.6028 107.823 30.6028 108.48C30.6028 109.015 30.4563 109.5 30.1633 109.935C29.8805 110.369 29.4713 110.708 28.9359 110.95C28.4005 111.192 27.7842 111.314 27.0872 111.314C25.4203 111.314 24.2686 110.516 23.6322 108.919L24.7535 108.328C24.9556 108.945 25.2334 109.409 25.587 109.723C25.9507 110.026 26.481 110.177 27.1781 110.177C27.855 110.177 28.3853 110.01 28.7692 109.677C29.1531 109.334 29.3451 108.894 29.3451 108.359C29.3451 107.742 29.1582 107.313 28.7844 107.071C28.4207 106.818 27.8398 106.692 27.0417 106.692H26.6477V105.555H27.0417C28.4257 105.555 29.1177 104.99 29.1177 103.858C29.1177 103.292 28.9561 102.868 28.6328 102.585C28.3197 102.292 27.8651 102.146 27.269 102.146C26.6831 102.146 26.2133 102.282 25.8597 102.555C25.5163 102.818 25.2789 103.191 25.1475 103.676L24.011 103.146C24.2535 102.489 24.6626 101.969 25.2384 101.585C25.8244 101.201 26.4962 101.009 27.2539 101.009ZM34.4671 101.009C35.2045 101.009 35.7905 101.262 36.2249 101.767C36.6593 102.262 36.8765 102.929 36.8765 103.767C36.8765 104.606 36.6593 105.277 36.2249 105.783C35.7905 106.278 35.2045 106.525 34.4671 106.525C33.7296 106.525 33.1437 106.278 32.7093 105.783C32.2749 105.277 32.0577 104.606 32.0577 103.767C32.0577 102.929 32.2749 102.262 32.7093 101.767C33.1437 101.262 33.7296 101.009 34.4671 101.009ZM40.5436 101.161H41.6953L35.3308 111.162H34.1791L40.5436 101.161ZM34.4671 101.964C34.0428 101.964 33.7144 102.12 33.4821 102.434C33.2497 102.747 33.1336 103.191 33.1336 103.767C33.1336 104.343 33.2497 104.788 33.4821 105.101C33.7144 105.414 34.0428 105.57 34.4671 105.57C34.8914 105.57 35.2197 105.414 35.452 105.101C35.6844 104.788 35.8006 104.343 35.8006 103.767C35.8006 103.191 35.6844 102.747 35.452 102.434C35.2197 102.12 34.8914 101.964 34.4671 101.964ZM41.4074 105.798C42.1449 105.798 42.7308 106.05 43.1652 106.555C43.5996 107.05 43.8168 107.717 43.8168 108.556C43.8168 109.394 43.5996 110.066 43.1652 110.571C42.7308 111.066 42.1449 111.314 41.4074 111.314C40.6699 111.314 40.084 111.066 39.6496 110.571C39.2152 110.066 38.998 109.394 38.998 108.556C38.998 107.717 39.2152 107.05 39.6496 106.555C40.084 106.05 40.6699 105.798 41.4074 105.798ZM41.4074 106.752C40.9831 106.752 40.6548 106.909 40.4224 107.222C40.1901 107.535 40.0739 107.98 40.0739 108.556C40.0739 109.132 40.1901 109.576 40.4224 109.889C40.6548 110.202 40.9831 110.359 41.4074 110.359C41.8317 110.359 42.16 110.202 42.3924 109.889C42.6247 109.576 42.7409 109.132 42.7409 108.556C42.7409 107.98 42.6247 107.535 42.3924 107.222C42.16 106.909 41.8317 106.752 41.4074 106.752Z" fill="white" fill-opacity="0.8"/>
<path d="M14.7663 170.79C16.1503 169.77 17.2111 168.932 17.9485 168.275C18.686 167.608 19.2113 167.007 19.5245 166.472C19.8478 165.926 20.0094 165.355 20.0094 164.759C20.0094 164.163 19.8175 163.683 19.4336 163.32C19.0497 162.946 18.5345 162.759 17.8879 162.759C17.2111 162.759 16.6605 162.981 16.2362 163.426C15.822 163.87 15.5795 164.471 15.5088 165.229L14.4481 164.593C14.5794 163.694 14.9431 162.976 15.5391 162.441C16.1453 161.895 16.9433 161.623 17.9334 161.623C18.6001 161.623 19.1861 161.754 19.6912 162.017C20.2064 162.279 20.6004 162.648 20.8732 163.123C21.1459 163.598 21.2823 164.143 21.2823 164.759C21.2823 165.406 21.1257 166.027 20.8125 166.623C20.5095 167.219 20.0094 167.846 19.3123 168.502C18.6153 169.159 17.6758 169.881 16.4938 170.669V170.684C17.1605 170.654 17.6606 170.639 17.994 170.639H21.4945V171.775H14.7663V170.79ZM26.965 171.927C25.7527 171.927 24.8283 171.487 24.1919 170.609C23.5555 169.73 23.2372 168.452 23.2372 166.775C23.2372 165.098 23.5555 163.82 24.1919 162.941C24.8283 162.062 25.7527 161.623 26.965 161.623C28.1773 161.623 29.1016 162.062 29.7381 162.941C30.3745 163.82 30.6928 165.098 30.6928 166.775C30.6928 168.452 30.3745 169.73 29.7381 170.609C29.1016 171.487 28.1773 171.927 26.965 171.927ZM26.965 170.836C27.7631 170.836 28.3743 170.492 28.7986 169.805C29.2229 169.108 29.435 168.098 29.435 166.775C29.435 165.451 29.2229 164.446 28.7986 163.759C28.3743 163.062 27.7631 162.714 26.965 162.714C26.1669 162.714 25.5557 163.062 25.1314 163.759C24.7071 164.446 24.495 165.451 24.495 166.775C24.495 168.098 24.7071 169.108 25.1314 169.805C25.5557 170.492 26.1669 170.836 26.965 170.836ZM34.4671 161.623C35.2045 161.623 35.7905 161.875 36.2249 162.38C36.6593 162.875 36.8765 163.542 36.8765 164.38C36.8765 165.219 36.6593 165.891 36.2249 166.396C35.7905 166.891 35.2045 167.138 34.4671 167.138C33.7296 167.138 33.1437 166.891 32.7093 166.396C32.2749 165.891 32.0577 165.219 32.0577 164.38C32.0577 163.542 32.2749 162.875 32.7093 162.38C33.1437 161.875 33.7296 161.623 34.4671 161.623ZM40.5436 161.774H41.6953L35.3308 171.775H34.1791L40.5436 161.774ZM34.4671 162.577C34.0428 162.577 33.7144 162.734 33.4821 163.047C33.2497 163.36 33.1336 163.805 33.1336 164.38C33.1336 164.956 33.2497 165.401 33.4821 165.714C33.7144 166.027 34.0428 166.184 34.4671 166.184C34.8914 166.184 35.2197 166.027 35.452 165.714C35.6844 165.401 35.8006 164.956 35.8006 164.38C35.8006 163.805 35.6844 163.36 35.452 163.047C35.2197 162.734 34.8914 162.577 34.4671 162.577ZM41.4074 166.411C42.1449 166.411 42.7308 166.664 43.1652 167.169C43.5996 167.664 43.8168 168.33 43.8168 169.169C43.8168 170.007 43.5996 170.679 43.1652 171.184C42.7308 171.679 42.1449 171.927 41.4074 171.927C40.6699 171.927 40.084 171.679 39.6496 171.184C39.2152 170.679 38.998 170.007 38.998 169.169C38.998 168.33 39.2152 167.664 39.6496 167.169C40.084 166.664 40.6699 166.411 41.4074 166.411ZM41.4074 167.366C40.9831 167.366 40.6548 167.522 40.4224 167.835C40.1901 168.149 40.0739 168.593 40.0739 169.169C40.0739 169.745 40.1901 170.189 40.4224 170.502C40.6548 170.816 40.9831 170.972 41.4074 170.972C41.8317 170.972 42.16 170.816 42.3924 170.502C42.6247 170.189 42.7409 169.745 42.7409 169.169C42.7409 168.593 42.6247 168.149 42.3924 167.835C42.16 167.522 41.8317 167.366 41.4074 167.366Z" fill="white" fill-opacity="0.8"/>
<path d="M14.7663 231.406C16.1503 230.385 17.2111 229.547 17.9485 228.89C18.686 228.223 19.2113 227.622 19.5245 227.087C19.8478 226.541 20.0094 225.971 20.0094 225.375C20.0094 224.778 19.8175 224.299 19.4336 223.935C19.0497 223.561 18.5345 223.374 17.8879 223.374C17.2111 223.374 16.6605 223.597 16.2362 224.041C15.822 224.486 15.5795 225.087 15.5088 225.844L14.4481 225.208C14.5794 224.309 14.9431 223.591 15.5391 223.056C16.1453 222.511 16.9433 222.238 17.9334 222.238C18.6001 222.238 19.1861 222.369 19.6912 222.632C20.2064 222.894 20.6004 223.263 20.8732 223.738C21.1459 224.213 21.2823 224.758 21.2823 225.375C21.2823 226.021 21.1257 226.642 20.8125 227.238C20.5095 227.834 20.0094 228.461 19.3123 229.117C18.6153 229.774 17.6758 230.496 16.4938 231.284V231.3C17.1605 231.269 17.6606 231.254 17.994 231.254H21.4945V232.391H14.7663V231.406ZM26.965 232.542C25.7527 232.542 24.8283 232.103 24.1919 231.224C23.5555 230.345 23.2372 229.067 23.2372 227.39C23.2372 225.713 23.5555 224.435 24.1919 223.556C24.8283 222.677 25.7527 222.238 26.965 222.238C28.1773 222.238 29.1016 222.677 29.7381 223.556C30.3745 224.435 30.6928 225.713 30.6928 227.39C30.6928 229.067 30.3745 230.345 29.7381 231.224C29.1016 232.103 28.1773 232.542 26.965 232.542ZM26.965 231.451C27.7631 231.451 28.3743 231.108 28.7986 230.421C29.2229 229.724 29.435 228.713 29.435 227.39C29.435 226.067 29.2229 225.061 28.7986 224.374C28.3743 223.677 27.7631 223.329 26.965 223.329C26.1669 223.329 25.5557 223.677 25.1314 224.374C24.7071 225.061 24.495 226.067 24.495 227.39C24.495 228.713 24.7071 229.724 25.1314 230.421C25.5557 231.108 26.1669 231.451 26.965 231.451ZM34.4671 222.238C35.2045 222.238 35.7905 222.49 36.2249 222.995C36.6593 223.49 36.8765 224.157 36.8765 224.996C36.8765 225.834 36.6593 226.506 36.2249 227.011C35.7905 227.506 35.2045 227.754 34.4671 227.754C33.7296 227.754 33.1437 227.506 32.7093 227.011C32.2749 226.506 32.0577 225.834 32.0577 224.996C32.0577 224.157 32.2749 223.49 32.7093 222.995C33.1437 222.49 33.7296 222.238 34.4671 222.238ZM40.5436 222.389H41.6953L35.3308 232.391H34.1791L40.5436 222.389ZM34.4671 223.192C34.0428 223.192 33.7144 223.349 33.4821 223.662C33.2497 223.975 33.1336 224.42 33.1336 224.996C33.1336 225.572 33.2497 226.016 33.4821 226.329C33.7144 226.642 34.0428 226.799 34.4671 226.799C34.8914 226.799 35.2197 226.642 35.452 226.329C35.6844 226.016 35.8006 225.572 35.8006 224.996C35.8006 224.42 35.6844 223.975 35.452 223.662C35.2197 223.349 34.8914 223.192 34.4671 223.192ZM41.4074 227.026C42.1449 227.026 42.7308 227.279 43.1652 227.784C43.5996 228.279 43.8168 228.946 43.8168 229.784C43.8168 230.623 43.5996 231.295 43.1652 231.8C42.7308 232.295 42.1449 232.542 41.4074 232.542C40.6699 232.542 40.084 232.295 39.6496 231.8C39.2152 231.295 38.998 230.623 38.998 229.784C38.998 228.946 39.2152 228.279 39.6496 227.784C40.084 227.279 40.6699 227.026 41.4074 227.026ZM41.4074 227.981C40.9831 227.981 40.6548 228.138 40.4224 228.451C40.1901 228.764 40.0739 229.208 40.0739 229.784C40.0739 230.36 40.1901 230.805 40.4224 231.118C40.6548 231.431 40.9831 231.587 41.4074 231.587C41.8317 231.587 42.16 231.431 42.3924 231.118C42.6247 230.805 42.7409 230.36 42.7409 229.784C42.7409 229.208 42.6247 228.764 42.3924 228.451C42.16 228.138 41.8317 227.981 41.4074 227.981Z" fill="white" fill-opacity="0.8"/>
<path d="M20.9312 283.003V293.004H19.7189V285.67C19.7189 285.457 19.729 285.069 19.7492 284.503C19.4057 284.836 19.0067 285.129 18.5521 285.382C18.0975 285.624 17.6327 285.801 17.1579 285.912L16.8397 284.806C17.0822 284.776 17.4105 284.664 17.8247 284.472C18.2389 284.27 18.6379 284.038 19.0218 283.775C19.4057 283.503 19.6886 283.245 19.8704 283.003H20.9312ZM26.965 293.155C25.7527 293.155 24.8284 292.716 24.1919 291.837C23.5555 290.958 23.2372 289.68 23.2372 288.003C23.2372 286.326 23.5555 285.048 24.1919 284.169C24.8284 283.29 25.7527 282.851 26.965 282.851C28.1773 282.851 29.1016 283.29 29.7381 284.169C30.3745 285.048 30.6928 286.326 30.6928 288.003C30.6928 289.68 30.3745 290.958 29.7381 291.837C29.1016 292.716 28.1773 293.155 26.965 293.155ZM26.965 292.064C27.7631 292.064 28.3743 291.721 28.7986 291.034C29.2229 290.337 29.435 289.327 29.435 288.003C29.435 286.68 29.2229 285.675 28.7986 284.988C28.3743 284.291 27.7631 283.942 26.965 283.942C26.1669 283.942 25.5557 284.291 25.1314 284.988C24.7071 285.675 24.495 286.68 24.495 288.003C24.495 289.327 24.7071 290.337 25.1314 291.034C25.5557 291.721 26.1669 292.064 26.965 292.064ZM34.4671 282.851C35.2045 282.851 35.7905 283.104 36.2249 283.609C36.6593 284.104 36.8765 284.77 36.8765 285.609C36.8765 286.447 36.6593 287.119 36.2249 287.624C35.7905 288.119 35.2045 288.367 34.4671 288.367C33.7296 288.367 33.1437 288.119 32.7093 287.624C32.2749 287.119 32.0577 286.447 32.0577 285.609C32.0577 284.77 32.2749 284.104 32.7093 283.609C33.1437 283.104 33.7296 282.851 34.4671 282.851ZM40.5436 283.003H41.6953L35.3308 293.004H34.1791L40.5436 283.003ZM34.4671 283.806C34.0428 283.806 33.7144 283.962 33.4821 284.275C33.2497 284.589 33.1336 285.033 33.1336 285.609C33.1336 286.185 33.2497 286.629 33.4821 286.942C33.7144 287.256 34.0428 287.412 34.4671 287.412C34.8914 287.412 35.2197 287.256 35.452 286.942C35.6844 286.629 35.8006 286.185 35.8006 285.609C35.8006 285.033 35.6844 284.589 35.452 284.275C35.2197 283.962 34.8914 283.806 34.4671 283.806ZM41.4074 287.64C42.1449 287.64 42.7308 287.892 43.1652 288.397C43.5996 288.892 43.8168 289.559 43.8168 290.397C43.8168 291.236 43.5996 291.908 43.1652 292.413C42.7308 292.908 42.1449 293.155 41.4074 293.155C40.6699 293.155 40.084 292.908 39.6496 292.413C39.2152 291.908 38.998 291.236 38.998 290.397C38.998 289.559 39.2152 288.892 39.6496 288.397C40.084 287.892 40.6699 287.64 41.4074 287.64ZM41.4074 288.594C40.9831 288.594 40.6548 288.751 40.4224 289.064C40.1901 289.377 40.0739 289.822 40.0739 290.397C40.0739 290.973 40.1901 291.418 40.4224 291.731C40.6548 292.044 40.9831 292.201 41.4074 292.201C41.8317 292.201 42.16 292.044 42.3924 291.731C42.6247 291.418 42.7409 290.973 42.7409 290.397C42.7409 289.822 42.6247 289.377 42.3924 289.064C42.16 288.751 41.8317 288.594 41.4074 288.594Z" fill="white" fill-opacity="0.8"/>
<path d="M15.9945 352.634C17.3786 351.614 18.4393 350.775 19.1768 350.119C19.9143 349.452 20.4396 348.851 20.7528 348.315C21.076 347.77 21.2377 347.199 21.2377 346.603C21.2377 346.007 21.0457 345.527 20.6618 345.163C20.2779 344.79 19.7627 344.603 19.1162 344.603C18.4393 344.603 17.8887 344.825 17.4644 345.27C17.0502 345.714 16.8078 346.315 16.7371 347.073L15.6763 346.436C15.8077 345.537 16.1713 344.82 16.7674 344.285C17.3735 343.739 18.1716 343.466 19.1616 343.466C19.8284 343.466 20.4143 343.598 20.9194 343.86C21.4347 344.123 21.8287 344.492 22.1014 344.966C22.3742 345.441 22.5106 345.987 22.5106 346.603C22.5106 347.25 22.354 347.871 22.0408 348.467C21.7377 349.063 21.2377 349.689 20.5406 350.346C19.8435 351.003 18.904 351.725 17.7221 352.513V352.528C18.3888 352.498 18.8889 352.483 19.2223 352.483H22.7227V353.619H15.9945V352.634ZM31.1553 343.618V344.754C29.9127 346.058 29.0035 347.431 28.4277 348.876C27.8619 350.321 27.5791 351.902 27.5791 353.619H26.3365C26.3365 351.983 26.6294 350.412 27.2154 348.906C27.8114 347.391 28.6853 346.007 29.8369 344.754H23.7907V343.618H31.1553ZM34.4671 343.466C35.2045 343.466 35.7905 343.719 36.2249 344.224C36.6593 344.719 36.8765 345.386 36.8765 346.224C36.8765 347.063 36.6593 347.735 36.2249 348.24C35.7905 348.735 35.2045 348.982 34.4671 348.982C33.7296 348.982 33.1437 348.735 32.7093 348.24C32.2749 347.735 32.0577 347.063 32.0577 346.224C32.0577 345.386 32.2749 344.719 32.7093 344.224C33.1437 343.719 33.7296 343.466 34.4671 343.466ZM40.5436 343.618H41.6953L35.3308 353.619H34.1791L40.5436 343.618ZM34.4671 344.421C34.0428 344.421 33.7144 344.578 33.4821 344.891C33.2497 345.204 33.1336 345.648 33.1336 346.224C33.1336 346.8 33.2497 347.245 33.4821 347.558C33.7144 347.871 34.0428 348.027 34.4671 348.027C34.8914 348.027 35.2197 347.871 35.452 347.558C35.6844 347.245 35.8006 346.8 35.8006 346.224C35.8006 345.648 35.6844 345.204 35.452 344.891C35.2197 344.578 34.8914 344.421 34.4671 344.421ZM41.4074 348.255C42.1449 348.255 42.7308 348.507 43.1652 349.012C43.5996 349.507 43.8168 350.174 43.8168 351.013C43.8168 351.851 43.5996 352.523 43.1652 353.028C42.7308 353.523 42.1449 353.771 41.4074 353.771C40.6699 353.771 40.084 353.523 39.6496 353.028C39.2152 352.523 38.998 351.851 38.998 351.013C38.998 350.174 39.2152 349.507 39.6496 349.012C40.084 348.507 40.6699 348.255 41.4074 348.255ZM41.4074 349.209C40.9831 349.209 40.6548 349.366 40.4224 349.679C40.1901 349.992 40.0739 350.437 40.0739 351.013C40.0739 351.589 40.1901 352.033 40.4224 352.346C40.6548 352.659 40.9831 352.816 41.4074 352.816C41.8317 352.816 42.16 352.659 42.3924 352.346C42.6247 352.033 42.7409 351.589 42.7409 351.013C42.7409 350.437 42.6247 349.992 42.3924 349.679C42.16 349.366 41.8317 349.209 41.4074 349.209Z" fill="white" fill-opacity="0.8"/>
<circle cx="137.155" cy="397.258" r="5.0219" fill="url(#paint0_linear_807_2445)"/>
<path d="M152.367 391.756C153.377 391.756 154.19 392.034 154.806 392.59C155.423 393.135 155.731 393.873 155.731 394.802C155.731 395.732 155.423 396.474 154.806 397.03C154.19 397.575 153.377 397.848 152.367 397.848H150.048V401.758H148.836V391.756H152.367ZM152.185 396.712C152.963 396.712 153.533 396.555 153.897 396.242C154.271 395.919 154.458 395.439 154.458 394.802C154.458 394.166 154.271 393.691 153.897 393.378C153.533 393.055 152.963 392.893 152.185 392.893H150.048V396.712H152.185ZM161.206 394.03C161.57 394.03 161.848 394.08 162.04 394.181L161.797 395.363C161.555 395.232 161.237 395.166 160.843 395.166C160.519 395.166 160.201 395.262 159.888 395.454C159.585 395.636 159.332 395.919 159.13 396.303C158.938 396.676 158.842 397.131 158.842 397.666V401.758H157.63V394.181H158.615L158.782 395.424C159.206 394.494 160.014 394.03 161.206 394.03ZM164.195 392.726C163.922 392.726 163.7 392.645 163.528 392.484C163.366 392.312 163.286 392.09 163.286 391.817C163.286 391.544 163.366 391.327 163.528 391.165C163.7 390.994 163.922 390.908 164.195 390.908C164.468 390.908 164.685 390.994 164.846 391.165C165.018 391.327 165.104 391.544 165.104 391.817C165.104 392.09 165.018 392.312 164.846 392.484C164.685 392.645 164.468 392.726 164.195 392.726ZM164.801 401.758H163.589V394.181H164.801V401.758ZM176.191 394.03C176.696 394.03 177.166 394.136 177.6 394.348C178.044 394.55 178.403 394.868 178.676 395.302C178.949 395.737 179.085 396.272 179.085 396.909V401.758H177.873V397.03C177.873 396.373 177.706 395.888 177.373 395.575C177.049 395.252 176.62 395.09 176.085 395.09C175.68 395.09 175.307 395.191 174.963 395.393C174.63 395.585 174.357 395.873 174.145 396.257C173.943 396.631 173.842 397.08 173.842 397.606V401.758H172.63V397.03C172.63 396.373 172.463 395.888 172.13 395.575C171.806 395.252 171.377 395.09 170.841 395.09C170.478 395.09 170.124 395.186 169.781 395.378C169.437 395.56 169.154 395.848 168.932 396.242C168.71 396.636 168.599 397.126 168.599 397.712V401.758H167.386V394.181H168.447L168.523 395.363C168.786 394.919 169.129 394.585 169.553 394.363C169.988 394.141 170.453 394.03 170.948 394.03C171.503 394.03 172.013 394.156 172.478 394.408C172.953 394.661 173.311 395.03 173.554 395.515C173.776 395.03 174.14 394.661 174.645 394.408C175.15 394.156 175.665 394.03 176.191 394.03ZM187.815 400.879C188.017 400.879 188.219 400.854 188.421 400.803L188.346 401.758C188.063 401.859 187.76 401.909 187.436 401.909C187.042 401.909 186.729 401.823 186.497 401.652C186.275 401.48 186.133 401.192 186.073 400.788C185.84 401.142 185.497 401.419 185.042 401.621C184.598 401.813 184.128 401.909 183.633 401.909C182.885 401.909 182.269 401.738 181.784 401.394C181.299 401.041 181.057 400.535 181.057 399.879C181.057 399.303 181.309 398.808 181.815 398.394C182.32 397.969 183.052 397.676 184.012 397.515L186.027 397.181V396.757C186.027 396.252 185.871 395.848 185.557 395.545C185.244 395.242 184.81 395.09 184.254 395.09C183.749 395.09 183.31 395.211 182.936 395.454C182.572 395.696 182.289 396.055 182.087 396.53L181.193 395.878C181.395 395.313 181.769 394.863 182.315 394.53C182.87 394.196 183.517 394.03 184.254 394.03C185.153 394.03 185.876 394.247 186.421 394.681C186.967 395.116 187.239 395.757 187.239 396.606V400.333C187.239 400.515 187.285 400.652 187.376 400.743C187.467 400.833 187.613 400.879 187.815 400.879ZM183.694 400.849C184.33 400.849 184.876 400.697 185.33 400.394C185.795 400.091 186.027 399.697 186.027 399.212V398.166L184.33 398.485C183.653 398.606 183.148 398.783 182.815 399.015C182.481 399.237 182.315 399.525 182.315 399.879C182.315 400.192 182.436 400.434 182.678 400.606C182.921 400.768 183.259 400.849 183.694 400.849ZM193.534 394.03C193.898 394.03 194.176 394.08 194.368 394.181L194.125 395.363C193.883 395.232 193.565 395.166 193.171 395.166C192.847 395.166 192.529 395.262 192.216 395.454C191.913 395.636 191.66 395.919 191.458 396.303C191.266 396.676 191.17 397.131 191.17 397.666V401.758H189.958V394.181H190.943L191.11 395.424C191.534 394.494 192.342 394.03 193.534 394.03ZM198.796 403.031C198.503 403.758 198.174 404.268 197.811 404.561C197.447 404.864 196.977 405.016 196.401 405.016C196.018 405.016 195.694 404.965 195.432 404.864C195.179 404.763 194.947 404.602 194.735 404.379L195.159 403.349C195.452 403.753 195.861 403.955 196.386 403.955C196.679 403.955 196.937 403.864 197.159 403.682C197.391 403.511 197.594 403.192 197.765 402.728L198.159 401.743L194.992 394.181H196.371L198.265 399.121L198.735 400.47L199.281 398.97L201.054 394.181H202.357L198.796 403.031Z" fill="white"/>
<circle cx="245.592" cy="397.258" r="5.0219" fill="url(#paint1_linear_807_2445)"/>
<path d="M260.486 391.605C262.274 391.605 263.562 392.312 264.35 393.726L263.304 394.575C263.001 393.908 262.638 393.439 262.213 393.166C261.799 392.883 261.228 392.741 260.501 392.741C259.733 392.741 259.127 392.903 258.683 393.226C258.248 393.54 258.031 393.944 258.031 394.439C258.031 394.762 258.117 395.03 258.289 395.242C258.46 395.454 258.743 395.641 259.137 395.802C259.541 395.954 260.097 396.09 260.804 396.212C262.127 396.434 263.062 396.767 263.607 397.212C264.163 397.656 264.441 398.272 264.441 399.06C264.441 399.626 264.279 400.126 263.956 400.561C263.643 400.985 263.193 401.318 262.607 401.561C262.021 401.793 261.345 401.909 260.577 401.909C259.567 401.909 258.703 401.712 257.986 401.318C257.278 400.924 256.738 400.399 256.364 399.742L257.41 398.894C257.682 399.49 258.081 399.955 258.607 400.288C259.142 400.611 259.809 400.773 260.607 400.773C261.395 400.773 262.021 400.631 262.486 400.349C262.951 400.056 263.183 399.646 263.183 399.121C263.183 398.677 262.981 398.323 262.577 398.06C262.173 397.798 261.456 397.575 260.425 397.394C259.092 397.161 258.147 396.828 257.592 396.393C257.036 395.959 256.758 395.353 256.758 394.575C256.758 394.04 256.91 393.545 257.213 393.09C257.516 392.635 257.95 392.277 258.516 392.014C259.082 391.741 259.738 391.605 260.486 391.605ZM273.027 397.575C273.027 397.858 273.007 398.141 272.967 398.424H267.254C267.325 399.192 267.577 399.788 268.011 400.212C268.456 400.636 269.027 400.849 269.724 400.849C270.279 400.849 270.739 400.753 271.103 400.561C271.477 400.369 271.729 400.091 271.86 399.727L272.876 400.258C272.573 400.793 272.169 401.202 271.663 401.485C271.158 401.768 270.512 401.909 269.724 401.909C268.582 401.909 267.683 401.561 267.026 400.864C266.38 400.167 266.057 399.202 266.057 397.969C266.057 396.737 266.365 395.772 266.981 395.075C267.607 394.378 268.491 394.03 269.633 394.03C270.34 394.03 270.951 394.186 271.466 394.499C271.982 394.812 272.371 395.237 272.633 395.772C272.896 396.308 273.027 396.909 273.027 397.575ZM269.633 395.09C268.966 395.09 268.426 395.287 268.011 395.681C267.607 396.075 267.36 396.631 267.269 397.348H271.86C271.78 396.641 271.547 396.09 271.163 395.696C270.78 395.292 270.269 395.09 269.633 395.09ZM278.302 394.03C279.059 394.03 279.696 394.206 280.211 394.56C280.736 394.903 281.145 395.398 281.438 396.045L280.287 396.59C279.963 395.59 279.292 395.09 278.271 395.09C277.514 395.09 276.918 395.348 276.483 395.863C276.059 396.368 275.847 397.07 275.847 397.969C275.847 398.869 276.059 399.576 276.483 400.091C276.918 400.596 277.514 400.849 278.271 400.849C278.857 400.849 279.327 400.717 279.681 400.455C280.044 400.182 280.282 399.793 280.393 399.288L281.514 399.682C281.251 400.389 280.847 400.94 280.302 401.334C279.756 401.717 279.09 401.909 278.302 401.909C277.16 401.909 276.261 401.561 275.604 400.864C274.958 400.167 274.634 399.202 274.634 397.969C274.634 396.737 274.958 395.772 275.604 395.075C276.261 394.378 277.16 394.03 278.302 394.03ZM286.628 394.03C287.769 394.03 288.663 394.378 289.31 395.075C289.967 395.772 290.295 396.737 290.295 397.969C290.295 399.202 289.967 400.167 289.31 400.864C288.663 401.561 287.769 401.909 286.628 401.909C285.486 401.909 284.587 401.561 283.93 400.864C283.284 400.167 282.961 399.202 282.961 397.969C282.961 396.737 283.284 395.772 283.93 395.075C284.587 394.378 285.486 394.03 286.628 394.03ZM286.628 395.075C285.86 395.075 285.259 395.333 284.824 395.848C284.39 396.363 284.173 397.07 284.173 397.969C284.173 398.869 284.39 399.576 284.824 400.091C285.259 400.606 285.86 400.864 286.628 400.864C287.395 400.864 287.997 400.606 288.431 400.091C288.865 399.576 289.083 398.869 289.083 397.969C289.083 397.07 288.865 396.363 288.431 395.848C287.997 395.333 287.395 395.075 286.628 395.075ZM296.105 394.03C296.963 394.03 297.671 394.277 298.226 394.772C298.782 395.267 299.06 395.979 299.06 396.909V401.758H297.847V397.333C297.847 396.545 297.676 395.974 297.332 395.621C296.999 395.267 296.549 395.09 295.983 395.09C295.579 395.09 295.201 395.181 294.847 395.363C294.493 395.535 294.2 395.823 293.968 396.227C293.746 396.621 293.635 397.121 293.635 397.727V401.758H292.422V394.181H293.483L293.559 395.363C293.811 394.908 294.16 394.575 294.605 394.363C295.049 394.141 295.549 394.03 296.105 394.03ZM308.305 390.696V401.758H307.245L307.169 400.439C306.947 400.884 306.603 401.243 306.138 401.515C305.684 401.778 305.164 401.909 304.578 401.909C303.517 401.909 302.673 401.561 302.047 400.864C301.431 400.157 301.123 399.192 301.123 397.969C301.123 396.747 301.431 395.787 302.047 395.09C302.673 394.383 303.517 394.03 304.578 394.03C305.133 394.03 305.628 394.151 306.063 394.393C306.507 394.636 306.851 394.959 307.093 395.363V390.696H308.305ZM304.714 400.849C305.441 400.849 306.017 400.596 306.442 400.091C306.876 399.586 307.093 398.909 307.093 398.06V397.879C307.093 397.03 306.876 396.353 306.442 395.848C306.017 395.343 305.441 395.09 304.714 395.09C303.977 395.09 303.396 395.353 302.971 395.878C302.547 396.393 302.335 397.091 302.335 397.969C302.335 398.848 302.547 399.55 302.971 400.076C303.396 400.591 303.977 400.849 304.714 400.849ZM317.108 400.879C317.31 400.879 317.512 400.854 317.714 400.803L317.638 401.758C317.355 401.859 317.052 401.909 316.729 401.909C316.335 401.909 316.022 401.823 315.79 401.652C315.567 401.48 315.426 401.192 315.365 400.788C315.133 401.142 314.789 401.419 314.335 401.621C313.89 401.813 313.421 401.909 312.925 401.909C312.178 401.909 311.562 401.738 311.077 401.394C310.592 401.041 310.349 400.535 310.349 399.879C310.349 399.303 310.602 398.808 311.107 398.394C311.612 397.969 312.345 397.676 313.304 397.515L315.32 397.181V396.757C315.32 396.252 315.163 395.848 314.85 395.545C314.537 395.242 314.102 395.09 313.547 395.09C313.042 395.09 312.602 395.211 312.228 395.454C311.865 395.696 311.582 396.055 311.38 396.53L310.486 395.878C310.688 395.313 311.062 394.863 311.607 394.53C312.163 394.196 312.809 394.03 313.547 394.03C314.446 394.03 315.168 394.247 315.714 394.681C316.259 395.116 316.532 395.757 316.532 396.606V400.333C316.532 400.515 316.578 400.652 316.668 400.743C316.759 400.833 316.906 400.879 317.108 400.879ZM312.986 400.849C313.623 400.849 314.168 400.697 314.623 400.394C315.087 400.091 315.32 399.697 315.32 399.212V398.166L313.623 398.485C312.946 398.606 312.441 398.783 312.107 399.015C311.774 399.237 311.607 399.525 311.607 399.879C311.607 400.192 311.728 400.434 311.971 400.606C312.213 400.768 312.552 400.849 312.986 400.849ZM322.827 394.03C323.191 394.03 323.468 394.08 323.66 394.181L323.418 395.363C323.175 395.232 322.857 395.166 322.463 395.166C322.14 395.166 321.822 395.262 321.509 395.454C321.205 395.636 320.953 395.919 320.751 396.303C320.559 396.676 320.463 397.131 320.463 397.666V401.758H319.251V394.181H320.236L320.402 395.424C320.827 394.494 321.635 394.03 322.827 394.03ZM328.088 403.031C327.795 403.758 327.467 404.268 327.103 404.561C326.74 404.864 326.27 405.016 325.694 405.016C325.31 405.016 324.987 404.965 324.724 404.864C324.472 404.763 324.239 404.602 324.027 404.379L324.451 403.349C324.744 403.753 325.154 403.955 325.679 403.955C325.972 403.955 326.229 403.864 326.452 403.682C326.684 403.511 326.886 403.192 327.058 402.728L327.452 401.743L324.285 394.181H325.664L327.558 399.121L328.028 400.47L328.573 398.97L330.346 394.181H331.649L328.088 403.031Z" fill="white"/>
<mask id="mask0_807_2445" style="mask-type:alpha" maskUnits="userSpaceOnUse" x="52" y="81" width="395" height="51">
<path d="M52.5781 131.674L52.5781 81.1621L89.7043 81.1621L89.7043 131.674L52.5781 131.674Z" fill="#D9D9D9"/>
<path d="M92.2299 131.674L92.2299 81.1621L129.356 81.1621V131.674H92.2299Z" fill="#D9D9D9"/>
<path d="M131.882 131.674V81.1621L169.008 81.1621V131.674H131.882Z" fill="#D9D9D9"/>
<path d="M171.533 131.674V81.1621L208.66 81.1621V131.674H171.533Z" fill="#D9D9D9"/>
<path d="M211.185 131.674V81.1621L248.311 81.1621L248.311 131.674H211.185Z" fill="#D9D9D9"/>
<path d="M250.837 131.674V81.1621L287.963 81.1621V131.674L250.837 131.674Z" fill="#D9D9D9"/>
<path d="M290.489 131.674V81.1621L327.615 81.1621V131.674H290.489Z" fill="#D9D9D9"/>
<path d="M330.14 131.674V81.1621L367.267 81.1621V131.674H330.14Z" fill="#D9D9D9"/>
<path d="M369.792 131.674V81.1621L406.918 81.1621V131.674L369.792 131.674Z" fill="#D9D9D9"/>
<path d="M409.444 131.674V81.1621L446.57 81.1621V131.674H409.444Z" fill="#D9D9D9"/>
</mask>
<g mask="url(#mask0_807_2445)">
<path d="M446.57 81.1621V131.674L52.5781 131.674L52.5781 81.1621L446.57 81.1621Z" fill="white" fill-opacity="0.1"/>
<path d="M194.011 81.1621L194.011 131.674L52.5781 131.674L52.5781 81.1621L194.011 81.1621Z" fill="url(#paint2_linear_807_2445)"/>
</g>
<mask id="mask1_807_2445" style="mask-type:alpha" maskUnits="userSpaceOnUse" x="52" y="141" width="395" height="52">
<path d="M52.5781 192.287L52.5781 141.775L89.7043 141.775L89.7043 192.287L52.5781 192.287Z" fill="#D9D9D9"/>
<path d="M92.2299 192.287L92.2299 141.775L129.356 141.775V192.287H92.2299Z" fill="#D9D9D9"/>
<path d="M131.882 192.287V141.775L169.008 141.775V192.287H131.882Z" fill="#D9D9D9"/>
<path d="M171.533 192.287V141.775L208.66 141.775V192.287H171.533Z" fill="#D9D9D9"/>
<path d="M211.185 192.287V141.775L248.311 141.775L248.311 192.287H211.185Z" fill="#D9D9D9"/>
<path d="M250.837 192.287V141.775L287.963 141.775V192.287L250.837 192.287Z" fill="#D9D9D9"/>
<path d="M290.489 192.287V141.775L327.615 141.775V192.287H290.489Z" fill="#D9D9D9"/>
<path d="M330.14 192.287V141.775L367.267 141.775V192.287H330.14Z" fill="#D9D9D9"/>
<path d="M369.792 192.287V141.775L406.918 141.775V192.287L369.792 192.287Z" fill="#D9D9D9"/>
<path d="M409.444 192.287V141.775L446.57 141.775V192.287H409.444Z" fill="#D9D9D9"/>
</mask>
<g mask="url(#mask1_807_2445)">
<path d="M446.57 141.775V192.287L52.5781 192.287L52.5781 141.775L446.57 141.775Z" fill="white" fill-opacity="0.1"/>
<path d="M129.609 141.775L129.609 192.287L52.5781 192.287L52.5781 141.775L129.609 141.775Z" fill="url(#paint3_linear_807_2445)"/>
</g>
<mask id="mask2_807_2445" style="mask-type:alpha" maskUnits="userSpaceOnUse" x="52" y="202" width="395" height="51">
<path d="M52.5781 252.902L52.5781 202.391L89.7043 202.391L89.7043 252.902L52.5781 252.902Z" fill="#D9D9D9"/>
<path d="M92.2299 252.902L92.2299 202.391L129.356 202.391V252.902H92.2299Z" fill="#D9D9D9"/>
<path d="M131.882 252.902V202.391L169.008 202.391V252.902H131.882Z" fill="#D9D9D9"/>
<path d="M171.533 252.902V202.391L208.66 202.391V252.902H171.533Z" fill="#D9D9D9"/>
<path d="M211.185 252.902V202.391L248.311 202.391L248.311 252.902H211.185Z" fill="#D9D9D9"/>
<path d="M250.837 252.902V202.391L287.963 202.391V252.902L250.837 252.902Z" fill="#D9D9D9"/>
<path d="M290.489 252.902V202.391L327.615 202.391V252.902H290.489Z" fill="#D9D9D9"/>
<path d="M330.14 252.902V202.391L367.267 202.391V252.902H330.14Z" fill="#D9D9D9"/>
<path d="M369.792 252.902V202.391L406.918 202.391V252.902L369.792 252.902Z" fill="#D9D9D9"/>
<path d="M409.444 252.902V202.391L446.57 202.391V252.902H409.444Z" fill="#D9D9D9"/>
</mask>
<g mask="url(#mask2_807_2445)">
<path d="M446.57 202.391V252.902L52.5781 252.902L52.5781 202.391L446.57 202.391Z" fill="white" fill-opacity="0.1"/>
<path d="M129.609 202.391L129.609 252.902L52.5781 252.902L52.5781 202.391L129.609 202.391Z" fill="white" fill-opacity="0.2"/>
</g>
<mask id="mask3_807_2445" style="mask-type:alpha" maskUnits="userSpaceOnUse" x="52" y="263" width="395" height="51">
<path d="M52.5781 313.516L52.5781 263.004L89.7043 263.004L89.7043 313.516L52.5781 313.516Z" fill="#D9D9D9"/>
<path d="M92.2299 313.516L92.2299 263.004L129.356 263.004V313.516H92.2299Z" fill="#D9D9D9"/>
<path d="M131.882 313.516V263.004L169.008 263.004V313.516H131.882Z" fill="#D9D9D9"/>
<path d="M171.533 313.516V263.004L208.66 263.004V313.516H171.533Z" fill="#D9D9D9"/>
<path d="M211.185 313.516V263.004L248.311 263.004L248.311 313.516H211.185Z" fill="#D9D9D9"/>
<path d="M250.837 313.516V263.004L287.963 263.004V313.516L250.837 313.516Z" fill="#D9D9D9"/>
<path d="M290.489 313.516V263.004L327.615 263.004V313.516H290.489Z" fill="#D9D9D9"/>
<path d="M330.14 313.516V263.004L367.267 263.004V313.516H330.14Z" fill="#D9D9D9"/>
<path d="M369.792 313.516V263.004L406.918 263.004V313.516L369.792 313.516Z" fill="#D9D9D9"/>
<path d="M409.444 313.516V263.004L446.57 263.004V313.516H409.444Z" fill="#D9D9D9"/>
</mask>
<g mask="url(#mask3_807_2445)">
<path d="M446.57 263.004V313.516L52.5781 313.516L52.5781 263.004L446.57 263.004Z" fill="white" fill-opacity="0.1"/>
<path d="M90.462 263.004L90.462 313.516L52.5781 313.516L52.5781 263.004L90.462 263.004Z" fill="white" fill-opacity="0.2"/>
</g>
<mask id="mask4_807_2445" style="mask-type:alpha" maskUnits="userSpaceOnUse" x="52" y="323" width="395" height="52">
<path d="M52.5781 374.131L52.5781 323.619L89.7043 323.619L89.7043 374.131L52.5781 374.131Z" fill="#D9D9D9"/>
<path d="M92.2299 374.131L92.2299 323.619L129.356 323.619V374.131H92.2299Z" fill="#D9D9D9"/>
<path d="M131.882 374.131V323.619L169.008 323.619V374.131H131.882Z" fill="#D9D9D9"/>
<path d="M171.533 374.131V323.619L208.66 323.619V374.131H171.533Z" fill="#D9D9D9"/>
<path d="M211.185 374.131V323.619L248.311 323.619L248.311 374.131H211.185Z" fill="#D9D9D9"/>
<path d="M250.837 374.131V323.619L287.963 323.619V374.131L250.837 374.131Z" fill="#D9D9D9"/>
<path d="M290.489 374.131V323.619L327.615 323.619V374.131H290.489Z" fill="#D9D9D9"/>
<path d="M330.14 374.131V323.619L367.267 323.619V374.131H330.14Z" fill="#D9D9D9"/>
<path d="M369.792 374.131V323.619L406.918 323.619V374.131L369.792 374.131Z" fill="#D9D9D9"/>
<path d="M409.444 374.131V323.619L446.57 323.619V374.131H409.444Z" fill="#D9D9D9"/>
</mask>
<g mask="url(#mask4_807_2445)">
<path d="M446.57 323.619V374.131L52.5781 374.131L52.5781 323.619L446.57 323.619Z" fill="white" fill-opacity="0.1"/>
<path d="M157.39 323.619L157.39 374.131L52.5781 374.131L52.5781 323.619L157.39 323.619Z" fill="white" fill-opacity="0.2"/>
</g>
<path d="M348.369 108.601C348.056 109.45 347.54 110.117 346.823 110.601C346.106 111.076 345.277 111.314 344.338 111.314C343.398 111.314 342.58 111.107 341.883 110.692C341.186 110.268 340.645 109.672 340.262 108.904C339.888 108.126 339.701 107.212 339.701 106.161C339.701 105.121 339.888 104.212 340.262 103.434C340.645 102.656 341.186 102.06 341.883 101.646C342.58 101.221 343.388 101.009 344.308 101.009C345.267 101.009 346.07 101.206 346.717 101.6C347.374 101.994 347.864 102.575 348.187 103.343L346.99 103.904C346.767 103.318 346.444 102.878 346.02 102.585C345.596 102.292 345.055 102.146 344.398 102.146C343.712 102.146 343.11 102.307 342.595 102.631C342.08 102.944 341.681 103.403 341.398 104.01C341.115 104.616 340.974 105.333 340.974 106.161C340.974 107.414 341.272 108.399 341.868 109.116C342.474 109.824 343.297 110.177 344.338 110.177C345.015 110.177 345.601 110.005 346.096 109.662C346.591 109.318 346.944 108.813 347.156 108.147L348.369 108.601ZM353.438 103.434C354.58 103.434 355.474 103.782 356.12 104.479C356.777 105.176 357.105 106.141 357.105 107.374C357.105 108.606 356.777 109.571 356.12 110.268C355.474 110.965 354.58 111.314 353.438 111.314C352.297 111.314 351.398 110.965 350.741 110.268C350.094 109.571 349.771 108.606 349.771 107.374C349.771 106.141 350.094 105.176 350.741 104.479C351.398 103.782 352.297 103.434 353.438 103.434ZM353.438 104.479C352.671 104.479 352.069 104.737 351.635 105.252C351.201 105.767 350.983 106.475 350.983 107.374C350.983 108.273 351.201 108.98 351.635 109.495C352.069 110.01 352.671 110.268 353.438 110.268C354.206 110.268 354.807 110.01 355.242 109.495C355.676 108.98 355.893 108.273 355.893 107.374C355.893 106.475 355.676 105.767 355.242 105.252C354.807 104.737 354.206 104.479 353.438 104.479ZM360.385 109.132C360.385 109.515 360.44 109.783 360.551 109.935C360.673 110.076 360.89 110.147 361.203 110.147C361.415 110.147 361.597 110.132 361.748 110.101C361.91 110.071 362.097 110.015 362.309 109.935L362.112 111.101C361.779 111.243 361.405 111.314 360.991 111.314C360.375 111.314 359.915 111.147 359.612 110.814C359.319 110.48 359.172 109.97 359.172 109.283V100.1H360.385V109.132ZM364.789 109.132C364.789 109.515 364.845 109.783 364.956 109.935C365.077 110.076 365.294 110.147 365.608 110.147C365.82 110.147 366.002 110.132 366.153 110.101C366.315 110.071 366.502 110.015 366.714 109.935L366.517 111.101C366.183 111.243 365.81 111.314 365.395 111.314C364.779 111.314 364.319 111.147 364.016 110.814C363.723 110.48 363.577 109.97 363.577 109.283V100.1H364.789V109.132ZM374.255 110.283C374.457 110.283 374.659 110.258 374.861 110.207L374.785 111.162C374.503 111.263 374.2 111.314 373.876 111.314C373.482 111.314 373.169 111.228 372.937 111.056C372.714 110.884 372.573 110.596 372.512 110.192C372.28 110.546 371.937 110.824 371.482 111.026C371.037 111.218 370.568 111.314 370.073 111.314C369.325 111.314 368.709 111.142 368.224 110.798C367.739 110.445 367.497 109.94 367.497 109.283C367.497 108.707 367.749 108.212 368.254 107.798C368.759 107.374 369.492 107.081 370.452 106.919L372.467 106.586V106.161C372.467 105.656 372.31 105.252 371.997 104.949C371.684 104.646 371.25 104.495 370.694 104.495C370.189 104.495 369.749 104.616 369.376 104.858C369.012 105.101 368.729 105.459 368.527 105.934L367.633 105.283C367.835 104.717 368.209 104.267 368.754 103.934C369.31 103.6 369.957 103.434 370.694 103.434C371.593 103.434 372.315 103.651 372.861 104.085C373.406 104.52 373.679 105.161 373.679 106.01V109.738C373.679 109.92 373.725 110.056 373.816 110.147C373.907 110.238 374.053 110.283 374.255 110.283ZM370.133 110.253C370.77 110.253 371.315 110.101 371.77 109.798C372.235 109.495 372.467 109.101 372.467 108.616V107.571L370.77 107.889C370.093 108.01 369.588 108.187 369.254 108.419C368.921 108.642 368.754 108.929 368.754 109.283C368.754 109.596 368.876 109.839 369.118 110.01C369.361 110.172 369.699 110.253 370.133 110.253ZM380.126 103.434C381.186 103.434 382.025 103.787 382.641 104.495C383.268 105.192 383.581 106.151 383.581 107.374C383.581 108.596 383.268 109.561 382.641 110.268C382.025 110.965 381.186 111.314 380.126 111.314C379.54 111.314 379.014 111.182 378.55 110.92C378.095 110.647 377.757 110.288 377.534 109.844L377.459 111.162H376.398V100.1H377.61V104.767C377.853 104.363 378.191 104.04 378.625 103.797C379.07 103.555 379.57 103.434 380.126 103.434ZM379.989 110.253C380.727 110.253 381.308 109.995 381.732 109.48C382.156 108.955 382.368 108.253 382.368 107.374C382.368 106.495 382.156 105.798 381.732 105.283C381.308 104.757 380.727 104.495 379.989 104.495C379.262 104.495 378.681 104.747 378.247 105.252C377.822 105.757 377.61 106.434 377.61 107.283V107.465C377.61 108.313 377.822 108.99 378.247 109.495C378.681 110 379.262 110.253 379.989 110.253ZM388.913 103.434C390.055 103.434 390.949 103.782 391.595 104.479C392.252 105.176 392.58 106.141 392.58 107.374C392.58 108.606 392.252 109.571 391.595 110.268C390.949 110.965 390.055 111.314 388.913 111.314C387.771 111.314 386.872 110.965 386.216 110.268C385.569 109.571 385.246 108.606 385.246 107.374C385.246 106.141 385.569 105.176 386.216 104.479C386.872 103.782 387.771 103.434 388.913 103.434ZM388.913 104.479C388.145 104.479 387.544 104.737 387.11 105.252C386.675 105.767 386.458 106.475 386.458 107.374C386.458 108.273 386.675 108.98 387.11 109.495C387.544 110.01 388.145 110.268 388.913 110.268C389.681 110.268 390.282 110.01 390.716 109.495C391.151 108.98 391.368 108.273 391.368 107.374C391.368 106.475 391.151 105.767 390.716 105.252C390.282 104.737 389.681 104.479 388.913 104.479ZM398.284 103.434C398.648 103.434 398.925 103.484 399.117 103.585L398.875 104.767C398.632 104.636 398.314 104.57 397.92 104.57C397.597 104.57 397.279 104.666 396.966 104.858C396.662 105.04 396.41 105.323 396.208 105.707C396.016 106.081 395.92 106.535 395.92 107.071V111.162H394.708V103.585H395.693L395.859 104.828C396.284 103.899 397.092 103.434 398.284 103.434ZM406.672 110.283C406.874 110.283 407.076 110.258 407.278 110.207L407.202 111.162C406.919 111.263 406.616 111.314 406.293 111.314C405.899 111.314 405.586 111.228 405.353 111.056C405.131 110.884 404.99 110.596 404.929 110.192C404.697 110.546 404.353 110.824 403.899 111.026C403.454 111.218 402.984 111.314 402.489 111.314C401.742 111.314 401.126 111.142 400.641 110.798C400.156 110.445 399.913 109.94 399.913 109.283C399.913 108.707 400.166 108.212 400.671 107.798C401.176 107.374 401.909 107.081 402.868 106.919L404.884 106.586V106.161C404.884 105.656 404.727 105.252 404.414 104.949C404.101 104.646 403.666 104.495 403.111 104.495C402.606 104.495 402.166 104.616 401.792 104.858C401.429 105.101 401.146 105.459 400.944 105.934L400.05 105.283C400.252 104.717 400.626 104.267 401.171 103.934C401.727 103.6 402.373 103.434 403.111 103.434C404.01 103.434 404.732 103.651 405.278 104.085C405.823 104.52 406.096 105.161 406.096 106.01V109.738C406.096 109.92 406.141 110.056 406.232 110.147C406.323 110.238 406.47 110.283 406.672 110.283ZM402.55 110.253C403.187 110.253 403.732 110.101 404.187 109.798C404.651 109.495 404.884 109.101 404.884 108.616V107.571L403.187 107.889C402.51 108.01 402.005 108.187 401.671 108.419C401.338 108.642 401.171 108.929 401.171 109.283C401.171 109.596 401.292 109.839 401.535 110.01C401.777 110.172 402.116 110.253 402.55 110.253ZM413.156 110.632C412.651 111.086 411.999 111.314 411.201 111.314C410.585 111.314 410.079 111.147 409.685 110.814C409.302 110.48 409.105 109.97 409.095 109.283V104.631H407.579V103.585H409.095V101.767L410.307 101.434V103.585H413.11V104.631H410.307V109.071C410.307 109.435 410.408 109.712 410.61 109.904C410.822 110.086 411.1 110.177 411.443 110.177C411.928 110.177 412.358 109.99 412.731 109.616L413.156 110.632ZM415.246 102.131C414.973 102.131 414.751 102.05 414.579 101.888C414.418 101.716 414.337 101.494 414.337 101.221C414.337 100.949 414.418 100.731 414.579 100.57C414.751 100.398 414.973 100.312 415.246 100.312C415.519 100.312 415.736 100.398 415.898 100.57C416.069 100.731 416.155 100.949 416.155 101.221C416.155 101.494 416.069 101.716 415.898 101.888C415.736 102.05 415.519 102.131 415.246 102.131ZM415.852 111.162H414.64V103.585H415.852V111.162ZM422.12 103.434C422.979 103.434 423.686 103.681 424.242 104.176C424.797 104.671 425.075 105.384 425.075 106.313V111.162H423.863V106.737C423.863 105.949 423.691 105.379 423.347 105.025C423.014 104.671 422.565 104.495 421.999 104.495C421.595 104.495 421.216 104.585 420.862 104.767C420.509 104.939 420.216 105.227 419.983 105.631C419.761 106.025 419.65 106.525 419.65 107.131V111.162H418.438V103.585H419.498L419.574 104.767C419.827 104.313 420.175 103.979 420.62 103.767C421.064 103.545 421.564 103.434 422.12 103.434ZM431.82 110.192C432.538 110.192 433.098 110.354 433.502 110.677C433.907 111 434.109 111.44 434.109 111.996C434.109 112.48 433.942 112.905 433.609 113.268C433.275 113.642 432.821 113.925 432.245 114.117C431.679 114.319 431.053 114.42 430.366 114.42C429.214 114.42 428.345 114.233 427.759 113.859C427.173 113.496 426.88 113.016 426.88 112.42C426.88 112.076 426.997 111.773 427.229 111.511C427.471 111.248 427.8 111.061 428.214 110.95C427.901 110.798 427.648 110.606 427.456 110.374C427.274 110.142 427.183 109.869 427.183 109.556C427.183 109.182 427.284 108.874 427.487 108.631C427.689 108.379 427.966 108.192 428.32 108.071C427.956 107.849 427.678 107.561 427.487 107.207C427.305 106.843 427.214 106.439 427.214 105.995C427.214 105.5 427.345 105.06 427.608 104.676C427.87 104.282 428.239 103.979 428.714 103.767C429.189 103.545 429.724 103.434 430.32 103.434C430.886 103.434 431.401 103.535 431.866 103.737C432.149 102.706 432.861 102.191 434.003 102.191L434.275 103.252C433.285 103.252 432.684 103.53 432.472 104.085C432.775 104.318 433.007 104.596 433.169 104.919C433.341 105.242 433.427 105.601 433.427 105.995C433.427 106.49 433.295 106.934 433.033 107.328C432.77 107.712 432.401 108.015 431.927 108.237C431.452 108.45 430.916 108.556 430.32 108.556C429.876 108.556 429.487 108.51 429.153 108.419C428.85 108.49 428.633 108.601 428.502 108.753C428.37 108.904 428.305 109.111 428.305 109.374C428.305 109.637 428.396 109.839 428.578 109.98C428.759 110.122 429.002 110.192 429.305 110.192H431.82ZM430.32 104.419C429.795 104.419 429.355 104.565 429.002 104.858C428.648 105.151 428.471 105.53 428.471 105.995C428.471 106.459 428.648 106.838 429.002 107.131C429.355 107.424 429.795 107.571 430.32 107.571C430.846 107.571 431.285 107.424 431.639 107.131C431.992 106.838 432.169 106.459 432.169 105.995C432.169 105.53 431.992 105.151 431.639 104.858C431.285 104.565 430.846 104.419 430.32 104.419ZM430.502 113.405C431.27 113.405 431.876 113.279 432.32 113.026C432.765 112.784 432.987 112.486 432.987 112.132C432.987 111.839 432.871 111.617 432.639 111.465C432.416 111.314 432.033 111.238 431.487 111.238H429.456C428.992 111.238 428.633 111.319 428.381 111.48C428.128 111.652 428.002 111.884 428.002 112.177C428.002 112.561 428.214 112.859 428.638 113.071C429.062 113.294 429.684 113.405 430.502 113.405Z" fill="white"/>
<path d="M324.279 169.002H319.748L318.687 171.775H317.414L321.309 161.774H322.748L326.628 171.775H325.34L324.279 169.002ZM323.84 167.866L322.491 164.32L322.021 162.926H321.991L321.551 164.274L320.188 167.866H323.84ZM331.27 164.047C332.028 164.047 332.664 164.224 333.18 164.577C333.705 164.921 334.114 165.416 334.407 166.063L333.255 166.608C332.932 165.608 332.26 165.108 331.24 165.108C330.482 165.108 329.886 165.365 329.452 165.881C329.028 166.386 328.815 167.088 328.815 167.987C328.815 168.886 329.028 169.593 329.452 170.109C329.886 170.614 330.482 170.866 331.24 170.866C331.826 170.866 332.296 170.735 332.649 170.472C333.013 170.199 333.25 169.81 333.362 169.305L334.483 169.699C334.22 170.407 333.816 170.957 333.271 171.351C332.725 171.735 332.058 171.927 331.27 171.927C330.129 171.927 329.23 171.578 328.573 170.881C327.926 170.184 327.603 169.219 327.603 167.987C327.603 166.755 327.926 165.79 328.573 165.093C329.23 164.396 330.129 164.047 331.27 164.047ZM339.596 164.047C340.354 164.047 340.991 164.224 341.506 164.577C342.031 164.921 342.44 165.416 342.733 166.063L341.582 166.608C341.258 165.608 340.587 165.108 339.566 165.108C338.808 165.108 338.212 165.365 337.778 165.881C337.354 166.386 337.142 167.088 337.142 167.987C337.142 168.886 337.354 169.593 337.778 170.109C338.212 170.614 338.808 170.866 339.566 170.866C340.152 170.866 340.622 170.735 340.975 170.472C341.339 170.199 341.577 169.81 341.688 169.305L342.809 169.699C342.546 170.407 342.142 170.957 341.597 171.351C341.051 171.735 340.384 171.927 339.596 171.927C338.455 171.927 337.556 171.578 336.899 170.881C336.253 170.184 335.929 169.219 335.929 167.987C335.929 166.755 336.253 165.79 336.899 165.093C337.556 164.396 338.455 164.047 339.596 164.047ZM347.923 164.047C349.064 164.047 349.958 164.396 350.605 165.093C351.261 165.79 351.59 166.755 351.59 167.987C351.59 169.219 351.261 170.184 350.605 170.881C349.958 171.578 349.064 171.927 347.923 171.927C346.781 171.927 345.882 171.578 345.225 170.881C344.579 170.184 344.255 169.219 344.255 167.987C344.255 166.755 344.579 165.79 345.225 165.093C345.882 164.396 346.781 164.047 347.923 164.047ZM347.923 165.093C347.155 165.093 346.554 165.35 346.119 165.866C345.685 166.381 345.468 167.088 345.468 167.987C345.468 168.886 345.685 169.593 346.119 170.109C346.554 170.624 347.155 170.881 347.923 170.881C348.69 170.881 349.292 170.624 349.726 170.109C350.16 169.593 350.378 168.886 350.378 167.987C350.378 167.088 350.16 166.381 349.726 165.866C349.292 165.35 348.69 165.093 347.923 165.093ZM362.522 164.047C363.027 164.047 363.496 164.153 363.931 164.365C364.375 164.567 364.734 164.886 365.007 165.32C365.279 165.754 365.416 166.29 365.416 166.926V171.775H364.204V167.047C364.204 166.391 364.037 165.906 363.704 165.593C363.38 165.269 362.951 165.108 362.415 165.108C362.011 165.108 361.638 165.209 361.294 165.411C360.961 165.603 360.688 165.891 360.476 166.275C360.274 166.648 360.173 167.098 360.173 167.623V171.775H358.96V167.047C358.96 166.391 358.794 165.906 358.46 165.593C358.137 165.269 357.708 165.108 357.172 165.108C356.809 165.108 356.455 165.204 356.112 165.396C355.768 165.578 355.485 165.866 355.263 166.26C355.041 166.653 354.93 167.143 354.93 167.729V171.775H353.717V164.199H354.778L354.854 165.381C355.116 164.936 355.46 164.603 355.884 164.38C356.319 164.158 356.783 164.047 357.278 164.047C357.834 164.047 358.344 164.173 358.809 164.426C359.284 164.678 359.642 165.047 359.885 165.532C360.107 165.047 360.471 164.678 360.976 164.426C361.481 164.173 361.996 164.047 362.522 164.047ZM376.737 164.047C377.243 164.047 377.712 164.153 378.147 164.365C378.591 164.567 378.95 164.886 379.223 165.32C379.495 165.754 379.632 166.29 379.632 166.926V171.775H378.419V167.047C378.419 166.391 378.253 165.906 377.919 165.593C377.596 165.269 377.167 165.108 376.631 165.108C376.227 165.108 375.853 165.209 375.51 165.411C375.177 165.603 374.904 165.891 374.692 166.275C374.49 166.648 374.389 167.098 374.389 167.623V171.775H373.176V167.047C373.176 166.391 373.01 165.906 372.676 165.593C372.353 165.269 371.924 165.108 371.388 165.108C371.025 165.108 370.671 165.204 370.327 165.396C369.984 165.578 369.701 165.866 369.479 166.26C369.257 166.653 369.146 167.143 369.146 167.729V171.775H367.933V164.199H368.994L369.07 165.381C369.332 164.936 369.676 164.603 370.1 164.38C370.535 164.158 370.999 164.047 371.494 164.047C372.05 164.047 372.56 164.173 373.025 164.426C373.5 164.678 373.858 165.047 374.101 165.532C374.323 165.047 374.687 164.678 375.192 164.426C375.697 164.173 376.212 164.047 376.737 164.047ZM385.347 164.047C386.488 164.047 387.382 164.396 388.029 165.093C388.685 165.79 389.014 166.755 389.014 167.987C389.014 169.219 388.685 170.184 388.029 170.881C387.382 171.578 386.488 171.927 385.347 171.927C384.205 171.927 383.306 171.578 382.649 170.881C382.003 170.184 381.679 169.219 381.679 167.987C381.679 166.755 382.003 165.79 382.649 165.093C383.306 164.396 384.205 164.047 385.347 164.047ZM385.347 165.093C384.579 165.093 383.978 165.35 383.543 165.866C383.109 166.381 382.892 167.088 382.892 167.987C382.892 168.886 383.109 169.593 383.543 170.109C383.978 170.624 384.579 170.881 385.347 170.881C386.114 170.881 386.715 170.624 387.15 170.109C387.584 169.593 387.801 168.886 387.801 167.987C387.801 167.088 387.584 166.381 387.15 165.866C386.715 165.35 386.114 165.093 385.347 165.093ZM397.869 160.713V171.775H396.809L396.733 170.457C396.511 170.902 396.167 171.26 395.702 171.533C395.248 171.796 394.728 171.927 394.142 171.927C393.081 171.927 392.237 171.578 391.611 170.881C390.995 170.174 390.687 169.209 390.687 167.987C390.687 166.765 390.995 165.805 391.611 165.108C392.237 164.401 393.081 164.047 394.142 164.047C394.697 164.047 395.192 164.168 395.627 164.411C396.071 164.653 396.415 164.977 396.657 165.381V160.713H397.869ZM394.278 170.866C395.005 170.866 395.581 170.614 396.006 170.109C396.44 169.603 396.657 168.927 396.657 168.078V167.896C396.657 167.047 396.44 166.371 396.006 165.866C395.581 165.36 395.005 165.108 394.278 165.108C393.541 165.108 392.96 165.37 392.535 165.896C392.111 166.411 391.899 167.108 391.899 167.987C391.899 168.866 392.111 169.568 392.535 170.093C392.96 170.609 393.541 170.866 394.278 170.866ZM406.672 170.896C406.874 170.896 407.076 170.871 407.278 170.821L407.202 171.775C406.919 171.876 406.616 171.927 406.293 171.927C405.899 171.927 405.586 171.841 405.353 171.669C405.131 171.498 404.99 171.21 404.929 170.806C404.697 171.159 404.353 171.437 403.899 171.639C403.454 171.831 402.984 171.927 402.489 171.927C401.742 171.927 401.126 171.755 400.641 171.412C400.156 171.058 399.913 170.553 399.913 169.896C399.913 169.321 400.166 168.826 400.671 168.411C401.176 167.987 401.909 167.694 402.868 167.532L404.884 167.199V166.775C404.884 166.27 404.727 165.866 404.414 165.562C404.101 165.259 403.666 165.108 403.111 165.108C402.606 165.108 402.166 165.229 401.792 165.472C401.429 165.714 401.146 166.073 400.944 166.547L400.05 165.896C400.252 165.33 400.626 164.881 401.171 164.547C401.727 164.214 402.373 164.047 403.111 164.047C404.01 164.047 404.732 164.264 405.278 164.699C405.823 165.133 406.096 165.775 406.096 166.623V170.351C406.096 170.533 406.141 170.669 406.232 170.76C406.323 170.851 406.47 170.896 406.672 170.896ZM402.55 170.866C403.187 170.866 403.732 170.715 404.187 170.412C404.651 170.109 404.884 169.715 404.884 169.23V168.184L403.187 168.502C402.51 168.623 402.005 168.8 401.671 169.033C401.338 169.255 401.171 169.543 401.171 169.896C401.171 170.21 401.292 170.452 401.535 170.624C401.777 170.785 402.116 170.866 402.55 170.866ZM413.156 171.245C412.651 171.7 411.999 171.927 411.201 171.927C410.585 171.927 410.079 171.76 409.685 171.427C409.302 171.093 409.105 170.583 409.095 169.896V165.244H407.579V164.199H409.095V162.38L410.307 162.047V164.199H413.11V165.244H410.307V169.684C410.307 170.048 410.408 170.326 410.61 170.518C410.822 170.699 411.1 170.79 411.443 170.79C411.928 170.79 412.358 170.604 412.731 170.23L413.156 171.245ZM415.246 162.744C414.973 162.744 414.751 162.663 414.579 162.501C414.418 162.33 414.337 162.107 414.337 161.835C414.337 161.562 414.418 161.345 414.579 161.183C414.751 161.011 414.973 160.925 415.246 160.925C415.519 160.925 415.736 161.011 415.898 161.183C416.069 161.345 416.155 161.562 416.155 161.835C416.155 162.107 416.069 162.33 415.898 162.501C415.736 162.663 415.519 162.744 415.246 162.744ZM415.852 171.775H414.64V164.199H415.852V171.775ZM422.12 164.047C422.979 164.047 423.686 164.295 424.242 164.79C424.797 165.285 425.075 165.997 425.075 166.926V171.775H423.863V167.351C423.863 166.563 423.691 165.992 423.347 165.638C423.014 165.285 422.565 165.108 421.999 165.108C421.595 165.108 421.216 165.199 420.862 165.381C420.509 165.552 420.216 165.84 419.983 166.244C419.761 166.638 419.65 167.138 419.65 167.745V171.775H418.438V164.199H419.498L419.574 165.381C419.827 164.926 420.175 164.593 420.62 164.38C421.064 164.158 421.564 164.047 422.12 164.047ZM431.82 170.806C432.538 170.806 433.098 170.967 433.502 171.29C433.907 171.614 434.109 172.053 434.109 172.609C434.109 173.094 433.942 173.518 433.609 173.882C433.275 174.256 432.821 174.538 432.245 174.73C431.679 174.932 431.053 175.033 430.366 175.033C429.214 175.033 428.345 174.847 427.759 174.473C427.173 174.109 426.88 173.629 426.88 173.033C426.88 172.69 426.997 172.387 427.229 172.124C427.471 171.861 427.8 171.674 428.214 171.563C427.901 171.412 427.648 171.22 427.456 170.987C427.274 170.755 427.183 170.482 427.183 170.169C427.183 169.795 427.284 169.487 427.487 169.245C427.689 168.992 427.966 168.805 428.32 168.684C427.956 168.462 427.678 168.174 427.487 167.82C427.305 167.457 427.214 167.053 427.214 166.608C427.214 166.113 427.345 165.674 427.608 165.29C427.87 164.896 428.239 164.593 428.714 164.38C429.189 164.158 429.724 164.047 430.32 164.047C430.886 164.047 431.401 164.148 431.866 164.35C432.149 163.32 432.861 162.804 434.003 162.804L434.275 163.865C433.285 163.865 432.684 164.143 432.472 164.699C432.775 164.931 433.007 165.209 433.169 165.532C433.341 165.855 433.427 166.214 433.427 166.608C433.427 167.103 433.295 167.548 433.033 167.942C432.77 168.325 432.401 168.629 431.927 168.851C431.452 169.063 430.916 169.169 430.32 169.169C429.876 169.169 429.487 169.124 429.153 169.033C428.85 169.103 428.633 169.214 428.502 169.366C428.37 169.518 428.305 169.725 428.305 169.987C428.305 170.25 428.396 170.452 428.578 170.593C428.759 170.735 429.002 170.806 429.305 170.806H431.82ZM430.32 165.032C429.795 165.032 429.355 165.179 429.002 165.472C428.648 165.764 428.471 166.143 428.471 166.608C428.471 167.073 428.648 167.452 429.002 167.745C429.355 168.038 429.795 168.184 430.32 168.184C430.846 168.184 431.285 168.038 431.639 167.745C431.992 167.452 432.169 167.073 432.169 166.608C432.169 166.143 431.992 165.764 431.639 165.472C431.285 165.179 430.846 165.032 430.32 165.032ZM430.502 174.018C431.27 174.018 431.876 173.892 432.32 173.639C432.765 173.397 432.987 173.099 432.987 172.745C432.987 172.452 432.871 172.23 432.639 172.078C432.416 171.927 432.033 171.851 431.487 171.851H429.456C428.992 171.851 428.633 171.932 428.381 172.094C428.128 172.265 428.002 172.498 428.002 172.791C428.002 173.175 428.214 173.473 428.638 173.685C429.062 173.907 429.684 174.018 430.502 174.018Z" fill="white" fill-opacity="0.8"/>
<path d="M339.751 229.83C339.438 230.678 338.922 231.345 338.205 231.83C337.488 232.305 336.659 232.542 335.72 232.542C334.78 232.542 333.962 232.335 333.265 231.921C332.568 231.497 332.027 230.901 331.644 230.133C331.27 229.355 331.083 228.441 331.083 227.39C331.083 226.349 331.27 225.44 331.644 224.662C332.027 223.884 332.568 223.288 333.265 222.874C333.962 222.45 334.77 222.238 335.69 222.238C336.649 222.238 337.452 222.435 338.099 222.829C338.756 223.223 339.246 223.804 339.569 224.571L338.372 225.132C338.15 224.546 337.826 224.107 337.402 223.814C336.978 223.521 336.437 223.374 335.781 223.374C335.094 223.374 334.492 223.536 333.977 223.859C333.462 224.172 333.063 224.632 332.78 225.238C332.497 225.844 332.356 226.562 332.356 227.39C332.356 228.643 332.654 229.628 333.25 230.345C333.856 231.052 334.679 231.406 335.72 231.406C336.397 231.406 336.983 231.234 337.478 230.89C337.973 230.547 338.326 230.042 338.538 229.375L339.751 229.83ZM344.82 224.662C345.962 224.662 346.856 225.011 347.502 225.708C348.159 226.405 348.487 227.37 348.487 228.602C348.487 229.835 348.159 230.8 347.502 231.497C346.856 232.194 345.962 232.542 344.82 232.542C343.679 232.542 342.78 232.194 342.123 231.497C341.476 230.8 341.153 229.835 341.153 228.602C341.153 227.37 341.476 226.405 342.123 225.708C342.78 225.011 343.679 224.662 344.82 224.662ZM344.82 225.708C344.053 225.708 343.451 225.966 343.017 226.481C342.583 226.996 342.365 227.703 342.365 228.602C342.365 229.501 342.583 230.209 343.017 230.724C343.451 231.239 344.053 231.497 344.82 231.497C345.588 231.497 346.189 231.239 346.624 230.724C347.058 230.209 347.275 229.501 347.275 228.602C347.275 227.703 347.058 226.996 346.624 226.481C346.189 225.966 345.588 225.708 344.82 225.708ZM359.419 224.662C359.924 224.662 360.394 224.768 360.828 224.981C361.273 225.183 361.632 225.501 361.904 225.935C362.177 226.37 362.314 226.905 362.314 227.541V232.391H361.101V227.663C361.101 227.006 360.935 226.521 360.601 226.208C360.278 225.885 359.849 225.723 359.313 225.723C358.909 225.723 358.535 225.824 358.192 226.026C357.858 226.218 357.586 226.506 357.373 226.89C357.171 227.264 357.07 227.713 357.07 228.239V232.391H355.858V227.663C355.858 227.006 355.691 226.521 355.358 226.208C355.035 225.885 354.605 225.723 354.07 225.723C353.706 225.723 353.353 225.819 353.009 226.011C352.666 226.193 352.383 226.481 352.161 226.875C351.938 227.269 351.827 227.759 351.827 228.345V232.391H350.615V224.814H351.676L351.752 225.996C352.014 225.551 352.358 225.218 352.782 224.996C353.216 224.773 353.681 224.662 354.176 224.662C354.732 224.662 355.242 224.789 355.707 225.041C356.181 225.294 356.54 225.662 356.782 226.147C357.005 225.662 357.368 225.294 357.874 225.041C358.379 224.789 358.894 224.662 359.419 224.662ZM368.559 224.662C369.619 224.662 370.458 225.016 371.074 225.723C371.701 226.42 372.014 227.38 372.014 228.602C372.014 229.825 371.701 230.789 371.074 231.497C370.458 232.194 369.619 232.542 368.559 232.542C368.003 232.542 367.503 232.421 367.058 232.178C366.624 231.936 366.286 231.613 366.043 231.209V235.573H364.831V224.814H365.892L365.967 226.132C366.19 225.688 366.528 225.334 366.983 225.071C367.447 224.799 367.973 224.662 368.559 224.662ZM368.422 231.481C369.16 231.481 369.741 231.224 370.165 230.709C370.589 230.183 370.801 229.481 370.801 228.602C370.801 227.723 370.589 227.026 370.165 226.511C369.741 225.986 369.16 225.723 368.422 225.723C367.695 225.723 367.114 225.976 366.68 226.481C366.255 226.986 366.043 227.663 366.043 228.511V228.693C366.043 229.542 366.255 230.219 366.68 230.724C367.114 231.229 367.695 231.481 368.422 231.481ZM377.725 224.662C378.088 224.662 378.366 224.713 378.558 224.814L378.316 225.996C378.073 225.865 377.755 225.799 377.361 225.799C377.038 225.799 376.72 225.895 376.406 226.087C376.103 226.269 375.851 226.551 375.649 226.935C375.457 227.309 375.361 227.764 375.361 228.299V232.391H374.149V224.814H375.134L375.3 226.056C375.725 225.127 376.533 224.662 377.725 224.662ZM383.068 224.662C384.209 224.662 385.103 225.011 385.75 225.708C386.406 226.405 386.735 227.37 386.735 228.602C386.735 229.835 386.406 230.8 385.75 231.497C385.103 232.194 384.209 232.542 383.068 232.542C381.926 232.542 381.027 232.194 380.37 231.497C379.724 230.8 379.4 229.835 379.4 228.602C379.4 227.37 379.724 226.405 380.37 225.708C381.027 225.011 381.926 224.662 383.068 224.662ZM383.068 225.708C382.3 225.708 381.699 225.966 381.264 226.481C380.83 226.996 380.613 227.703 380.613 228.602C380.613 229.501 380.83 230.209 381.264 230.724C381.699 231.239 382.3 231.497 383.068 231.497C383.835 231.497 384.436 231.239 384.871 230.724C385.305 230.209 385.522 229.501 385.522 228.602C385.522 227.703 385.305 226.996 384.871 226.481C384.436 225.966 383.835 225.708 383.068 225.708ZM397.666 224.662C398.172 224.662 398.641 224.768 399.076 224.981C399.52 225.183 399.879 225.501 400.152 225.935C400.424 226.37 400.561 226.905 400.561 227.541V232.391H399.349V227.663C399.349 227.006 399.182 226.521 398.848 226.208C398.525 225.885 398.096 225.723 397.56 225.723C397.156 225.723 396.783 225.824 396.439 226.026C396.106 226.218 395.833 226.506 395.621 226.89C395.419 227.264 395.318 227.713 395.318 228.239V232.391H394.105V227.663C394.105 227.006 393.939 226.521 393.605 226.208C393.282 225.885 392.853 225.723 392.317 225.723C391.954 225.723 391.6 225.819 391.257 226.011C390.913 226.193 390.63 226.481 390.408 226.875C390.186 227.269 390.075 227.759 390.075 228.345V232.391H388.862V224.814H389.923L389.999 225.996C390.261 225.551 390.605 225.218 391.029 224.996C391.464 224.773 391.928 224.662 392.423 224.662C392.979 224.662 393.489 224.789 393.954 225.041C394.429 225.294 394.787 225.662 395.03 226.147C395.252 225.662 395.616 225.294 396.121 225.041C396.626 224.789 397.141 224.662 397.666 224.662ZM403.684 223.359C403.412 223.359 403.189 223.278 403.018 223.117C402.856 222.945 402.775 222.723 402.775 222.45C402.775 222.177 402.856 221.96 403.018 221.798C403.189 221.627 403.412 221.541 403.684 221.541C403.957 221.541 404.174 221.627 404.336 221.798C404.508 221.96 404.594 222.177 404.594 222.45C404.594 222.723 404.508 222.945 404.336 223.117C404.174 223.278 403.957 223.359 403.684 223.359ZM404.29 232.391H403.078V224.814H404.29V232.391ZM409.452 232.542C408.725 232.542 408.068 232.401 407.482 232.118C406.896 231.825 406.467 231.396 406.194 230.83L407.179 230.148C407.351 230.592 407.649 230.926 408.073 231.148C408.497 231.37 408.998 231.481 409.573 231.481C410.169 231.481 410.624 231.375 410.937 231.163C411.25 230.951 411.407 230.683 411.407 230.36C411.407 230.067 411.26 229.835 410.968 229.663C410.675 229.481 410.159 229.325 409.422 229.193C408.694 229.062 408.119 228.905 407.694 228.723C407.27 228.532 406.962 228.294 406.77 228.011C406.578 227.718 406.482 227.36 406.482 226.935C406.482 226.521 406.603 226.142 406.846 225.799C407.088 225.455 407.437 225.183 407.891 224.981C408.346 224.768 408.871 224.662 409.467 224.662C410.275 224.662 410.922 224.814 411.407 225.117C411.902 225.41 412.256 225.865 412.468 226.481L411.437 227.087C411.276 226.602 411.028 226.253 410.695 226.041C410.371 225.829 409.962 225.723 409.467 225.723C408.972 225.723 408.553 225.834 408.21 226.056C407.866 226.279 407.694 226.536 407.694 226.829C407.694 227.163 407.841 227.42 408.134 227.602C408.437 227.784 408.972 227.941 409.74 228.072C410.791 228.244 411.533 228.501 411.968 228.845C412.402 229.188 412.619 229.673 412.619 230.299C412.619 230.734 412.488 231.123 412.225 231.466C411.973 231.8 411.604 232.062 411.119 232.254C410.644 232.446 410.089 232.542 409.452 232.542ZM415.246 223.359C414.973 223.359 414.751 223.278 414.579 223.117C414.418 222.945 414.337 222.723 414.337 222.45C414.337 222.177 414.418 221.96 414.579 221.798C414.751 221.627 414.973 221.541 415.246 221.541C415.519 221.541 415.736 221.627 415.898 221.798C416.069 221.96 416.155 222.177 416.155 222.45C416.155 222.723 416.069 222.945 415.898 223.117C415.736 223.278 415.519 223.359 415.246 223.359ZM415.852 232.391H414.64V224.814H415.852V232.391ZM422.12 224.662C422.979 224.662 423.686 224.91 424.242 225.405C424.797 225.9 425.075 226.612 425.075 227.541V232.391H423.863V227.966C423.863 227.178 423.691 226.607 423.347 226.253C423.014 225.9 422.565 225.723 421.999 225.723C421.595 225.723 421.216 225.814 420.862 225.996C420.509 226.168 420.216 226.455 419.983 226.86C419.761 227.254 419.65 227.754 419.65 228.36V232.391H418.438V224.814H419.498L419.574 225.996C419.827 225.541 420.175 225.208 420.62 224.996C421.064 224.773 421.564 224.662 422.12 224.662ZM431.82 231.421C432.538 231.421 433.098 231.582 433.502 231.906C433.907 232.229 434.109 232.668 434.109 233.224C434.109 233.709 433.942 234.133 433.609 234.497C433.275 234.871 432.821 235.154 432.245 235.346C431.679 235.548 431.053 235.649 430.366 235.649C429.214 235.649 428.345 235.462 427.759 235.088C427.173 234.724 426.88 234.244 426.88 233.648C426.88 233.305 426.997 233.002 427.229 232.739C427.471 232.476 427.8 232.29 428.214 232.178C427.901 232.027 427.648 231.835 427.456 231.603C427.274 231.37 427.183 231.098 427.183 230.784C427.183 230.411 427.284 230.102 427.487 229.86C427.689 229.607 427.966 229.421 428.32 229.299C427.956 229.077 427.678 228.789 427.487 228.436C427.305 228.072 427.214 227.668 427.214 227.223C427.214 226.728 427.345 226.289 427.608 225.905C427.87 225.511 428.239 225.208 428.714 224.996C429.189 224.773 429.724 224.662 430.32 224.662C430.886 224.662 431.401 224.763 431.866 224.965C432.149 223.935 432.861 223.42 434.003 223.42L434.275 224.48C433.285 224.48 432.684 224.758 432.472 225.314C432.775 225.546 433.007 225.824 433.169 226.147C433.341 226.471 433.427 226.829 433.427 227.223C433.427 227.718 433.295 228.163 433.033 228.557C432.77 228.941 432.401 229.244 431.927 229.466C431.452 229.678 430.916 229.784 430.32 229.784C429.876 229.784 429.487 229.739 429.153 229.648C428.85 229.719 428.633 229.83 428.502 229.981C428.37 230.133 428.305 230.34 428.305 230.603C428.305 230.865 428.396 231.067 428.578 231.209C428.759 231.35 429.002 231.421 429.305 231.421H431.82ZM430.32 225.647C429.795 225.647 429.355 225.794 429.002 226.087C428.648 226.38 428.471 226.759 428.471 227.223C428.471 227.688 428.648 228.067 429.002 228.36C429.355 228.653 429.795 228.799 430.32 228.799C430.846 228.799 431.285 228.653 431.639 228.36C431.992 228.067 432.169 227.688 432.169 227.223C432.169 226.759 431.992 226.38 431.639 226.087C431.285 225.794 430.846 225.647 430.32 225.647ZM430.502 234.633C431.27 234.633 431.876 234.507 432.32 234.255C432.765 234.012 432.987 233.714 432.987 233.36C432.987 233.067 432.871 232.845 432.639 232.694C432.416 232.542 432.033 232.466 431.487 232.466H429.456C428.992 232.466 428.633 232.547 428.381 232.709C428.128 232.881 428.002 233.113 428.002 233.406C428.002 233.79 428.214 234.088 428.638 234.3C429.062 234.522 429.684 234.633 430.502 234.633Z" fill="white" fill-opacity="0.8"/>
<path d="M381.463 290.231H376.932L375.871 293.004H374.598L378.493 283.003H379.932L383.812 293.004H382.524L381.463 290.231ZM381.023 289.094L379.675 285.548L379.205 284.154H379.175L378.735 285.503L377.371 289.094H381.023ZM391.176 285.427L388.024 293.004H386.811L383.659 285.427H385.038L387.433 291.776L389.903 285.427H391.176ZM395.73 285.276C396.871 285.276 397.765 285.624 398.412 286.321C399.069 287.018 399.397 287.983 399.397 289.216C399.397 290.448 399.069 291.413 398.412 292.11C397.765 292.807 396.871 293.155 395.73 293.155C394.588 293.155 393.689 292.807 393.032 292.11C392.386 291.413 392.063 290.448 392.063 289.216C392.063 287.983 392.386 287.018 393.032 286.321C393.689 285.624 394.588 285.276 395.73 285.276ZM395.73 286.321C394.962 286.321 394.361 286.579 393.926 287.094C393.492 287.609 393.275 288.316 393.275 289.216C393.275 290.115 393.492 290.822 393.926 291.337C394.361 291.852 394.962 292.11 395.73 292.11C396.497 292.11 397.099 291.852 397.533 291.337C397.967 290.822 398.185 290.115 398.185 289.216C398.185 288.316 397.967 287.609 397.533 287.094C397.099 286.579 396.497 286.321 395.73 286.321ZM402.131 283.972C401.858 283.972 401.635 283.892 401.464 283.73C401.302 283.558 401.221 283.336 401.221 283.063C401.221 282.79 401.302 282.573 401.464 282.412C401.635 282.24 401.858 282.154 402.131 282.154C402.403 282.154 402.62 282.24 402.782 282.412C402.954 282.573 403.04 282.79 403.04 283.063C403.04 283.336 402.954 283.558 402.782 283.73C402.62 283.892 402.403 283.972 402.131 283.972ZM402.737 293.004H401.524V285.427H402.737V293.004ZM412.05 281.942V293.004H410.99L410.914 291.686C410.692 292.13 410.348 292.489 409.883 292.761C409.429 293.024 408.909 293.155 408.323 293.155C407.262 293.155 406.418 292.807 405.792 292.11C405.176 291.403 404.868 290.438 404.868 289.216C404.868 287.993 405.176 287.033 405.792 286.336C406.418 285.629 407.262 285.276 408.323 285.276C408.878 285.276 409.373 285.397 409.808 285.639C410.252 285.882 410.596 286.205 410.838 286.609V281.942H412.05ZM408.459 292.095C409.186 292.095 409.762 291.842 410.187 291.337C410.621 290.832 410.838 290.155 410.838 289.306V289.125C410.838 288.276 410.621 287.599 410.187 287.094C409.762 286.589 409.186 286.336 408.459 286.336C407.722 286.336 407.141 286.599 406.716 287.124C406.292 287.64 406.08 288.337 406.08 289.216C406.08 290.094 406.292 290.797 406.716 291.322C407.141 291.837 407.722 292.095 408.459 292.095ZM415.246 283.972C414.973 283.972 414.751 283.892 414.579 283.73C414.418 283.558 414.337 283.336 414.337 283.063C414.337 282.79 414.418 282.573 414.579 282.412C414.751 282.24 414.973 282.154 415.246 282.154C415.519 282.154 415.736 282.24 415.898 282.412C416.069 282.573 416.155 282.79 416.155 283.063C416.155 283.336 416.069 283.558 415.898 283.73C415.736 283.892 415.519 283.972 415.246 283.972ZM415.852 293.004H414.64V285.427H415.852V293.004ZM422.12 285.276C422.979 285.276 423.686 285.523 424.242 286.018C424.797 286.513 425.075 287.225 425.075 288.155V293.004H423.863V288.579C423.863 287.791 423.691 287.22 423.347 286.867C423.014 286.513 422.565 286.336 421.999 286.336C421.595 286.336 421.216 286.427 420.862 286.609C420.509 286.781 420.216 287.069 419.983 287.473C419.761 287.867 419.65 288.367 419.65 288.973V293.004H418.438V285.427H419.498L419.574 286.609C419.827 286.155 420.175 285.821 420.62 285.609C421.064 285.387 421.564 285.276 422.12 285.276ZM431.82 292.034C432.538 292.034 433.098 292.196 433.502 292.519C433.907 292.842 434.109 293.282 434.109 293.837C434.109 294.322 433.942 294.747 433.609 295.11C433.275 295.484 432.821 295.767 432.245 295.959C431.679 296.161 431.053 296.262 430.366 296.262C429.214 296.262 428.345 296.075 427.759 295.701C427.173 295.338 426.88 294.858 426.88 294.262C426.88 293.918 426.997 293.615 427.229 293.352C427.471 293.09 427.8 292.903 428.214 292.792C427.901 292.64 427.648 292.448 427.456 292.216C427.274 291.984 427.183 291.711 427.183 291.398C427.183 291.024 427.284 290.716 427.487 290.473C427.689 290.221 427.966 290.034 428.32 289.913C427.956 289.69 427.678 289.402 427.487 289.049C427.305 288.685 427.214 288.281 427.214 287.837C427.214 287.342 427.345 286.902 427.608 286.518C427.87 286.124 428.239 285.821 428.714 285.609C429.189 285.387 429.724 285.276 430.32 285.276C430.886 285.276 431.401 285.377 431.866 285.579C432.149 284.548 432.861 284.033 434.003 284.033L434.275 285.094C433.285 285.094 432.684 285.372 432.472 285.927C432.775 286.16 433.007 286.437 433.169 286.761C433.341 287.084 433.427 287.443 433.427 287.837C433.427 288.332 433.295 288.776 433.033 289.17C432.77 289.554 432.401 289.857 431.927 290.079C431.452 290.291 430.916 290.397 430.32 290.397C429.876 290.397 429.487 290.352 429.153 290.261C428.85 290.332 428.633 290.443 428.502 290.594C428.37 290.746 428.305 290.953 428.305 291.216C428.305 291.478 428.396 291.68 428.578 291.822C428.759 291.963 429.002 292.034 429.305 292.034H431.82ZM430.32 286.261C429.795 286.261 429.355 286.407 429.002 286.7C428.648 286.993 428.472 287.372 428.472 287.837C428.472 288.301 428.648 288.68 429.002 288.973C429.355 289.266 429.795 289.413 430.32 289.413C430.846 289.413 431.285 289.266 431.639 288.973C431.992 288.68 432.169 288.301 432.169 287.837C432.169 287.372 431.992 286.993 431.639 286.7C431.285 286.407 430.846 286.261 430.32 286.261ZM430.502 295.247C431.27 295.247 431.876 295.12 432.321 294.868C432.765 294.625 432.987 294.327 432.987 293.974C432.987 293.681 432.871 293.459 432.639 293.307C432.416 293.155 432.033 293.08 431.487 293.08H429.456C428.992 293.08 428.633 293.16 428.381 293.322C428.128 293.494 428.002 293.726 428.002 294.019C428.002 294.403 428.214 294.701 428.638 294.913C429.062 295.136 429.684 295.247 430.502 295.247Z" fill="white" fill-opacity="0.8"/>
<path d="M365.765 351.058C365.452 351.907 364.937 352.574 364.219 353.058C363.502 353.533 362.674 353.771 361.734 353.771C360.795 353.771 359.976 353.564 359.279 353.149C358.582 352.725 358.042 352.129 357.658 351.361C357.284 350.583 357.097 349.669 357.097 348.618C357.097 347.578 357.284 346.669 357.658 345.891C358.042 345.113 358.582 344.517 359.279 344.103C359.976 343.678 360.785 343.466 361.704 343.466C362.664 343.466 363.467 343.663 364.113 344.057C364.77 344.451 365.26 345.032 365.583 345.8L364.386 346.361C364.164 345.775 363.841 345.335 363.416 345.042C362.992 344.749 362.452 344.603 361.795 344.603C361.108 344.603 360.507 344.764 359.992 345.088C359.476 345.401 359.077 345.861 358.794 346.467C358.512 347.073 358.37 347.79 358.37 348.618C358.37 349.871 358.668 350.856 359.264 351.573C359.87 352.281 360.694 352.634 361.734 352.634C362.411 352.634 362.997 352.462 363.492 352.119C363.987 351.775 364.341 351.27 364.553 350.604L365.765 351.058ZM370.835 345.891C371.976 345.891 372.87 346.239 373.517 346.936C374.173 347.633 374.502 348.598 374.502 349.831C374.502 351.063 374.173 352.028 373.517 352.725C372.87 353.422 371.976 353.771 370.835 353.771C369.693 353.771 368.794 353.422 368.137 352.725C367.491 352.028 367.168 351.063 367.168 349.831C367.168 348.598 367.491 347.633 368.137 346.936C368.794 346.239 369.693 345.891 370.835 345.891ZM370.835 346.936C370.067 346.936 369.466 347.194 369.031 347.709C368.597 348.224 368.38 348.932 368.38 349.831C368.38 350.73 368.597 351.437 369.031 351.952C369.466 352.467 370.067 352.725 370.835 352.725C371.602 352.725 372.204 352.467 372.638 351.952C373.072 351.437 373.29 350.73 373.29 349.831C373.29 348.932 373.072 348.224 372.638 347.709C372.204 347.194 371.602 346.936 370.835 346.936ZM385.434 345.891C385.939 345.891 386.408 345.997 386.843 346.209C387.287 346.411 387.646 346.729 387.919 347.164C388.191 347.598 388.328 348.134 388.328 348.77V353.619H387.116V348.891C387.116 348.235 386.949 347.75 386.616 347.436C386.292 347.113 385.863 346.952 385.327 346.952C384.923 346.952 384.55 347.053 384.206 347.255C383.873 347.447 383.6 347.735 383.388 348.118C383.186 348.492 383.085 348.942 383.085 349.467V353.619H381.872V348.891C381.872 348.235 381.706 347.75 381.372 347.436C381.049 347.113 380.62 346.952 380.084 346.952C379.721 346.952 379.367 347.048 379.024 347.24C378.68 347.421 378.397 347.709 378.175 348.103C377.953 348.497 377.842 348.987 377.842 349.573V353.619H376.629V346.042H377.69L377.766 347.224C378.029 346.78 378.372 346.446 378.796 346.224C379.231 346.002 379.695 345.891 380.19 345.891C380.746 345.891 381.256 346.017 381.721 346.27C382.196 346.522 382.554 346.891 382.797 347.376C383.019 346.891 383.383 346.522 383.888 346.27C384.393 346.017 384.908 345.891 385.434 345.891ZM394.573 345.891C395.634 345.891 396.472 346.244 397.089 346.952C397.715 347.649 398.028 348.608 398.028 349.831C398.028 351.053 397.715 352.018 397.089 352.725C396.472 353.422 395.634 353.771 394.573 353.771C394.017 353.771 393.517 353.649 393.073 353.407C392.638 353.165 392.3 352.841 392.058 352.437V356.801H390.845V346.042H391.906L391.982 347.361C392.204 346.916 392.542 346.563 392.997 346.3C393.462 346.027 393.987 345.891 394.573 345.891ZM394.437 352.71C395.174 352.71 395.755 352.452 396.179 351.937C396.604 351.412 396.816 350.71 396.816 349.831C396.816 348.952 396.604 348.255 396.179 347.74C395.755 347.214 395.174 346.952 394.437 346.952C393.709 346.952 393.128 347.204 392.694 347.709C392.27 348.214 392.058 348.891 392.058 349.74V349.922C392.058 350.77 392.27 351.447 392.694 351.952C393.128 352.457 393.709 352.71 394.437 352.71ZM406.664 349.437C406.664 349.72 406.644 350.002 406.603 350.285H400.89C400.961 351.053 401.214 351.649 401.648 352.073C402.092 352.498 402.663 352.71 403.36 352.71C403.916 352.71 404.376 352.614 404.739 352.422C405.113 352.23 405.366 351.952 405.497 351.589L406.512 352.119C406.209 352.654 405.805 353.064 405.3 353.346C404.795 353.629 404.148 353.771 403.36 353.771C402.219 353.771 401.32 353.422 400.663 352.725C400.016 352.028 399.693 351.063 399.693 349.831C399.693 348.598 400.001 347.633 400.618 346.936C401.244 346.239 402.128 345.891 403.269 345.891C403.977 345.891 404.588 346.047 405.103 346.361C405.618 346.674 406.007 347.098 406.27 347.633C406.532 348.169 406.664 348.77 406.664 349.437ZM403.269 346.952C402.603 346.952 402.062 347.149 401.648 347.543C401.244 347.937 400.996 348.492 400.905 349.209H405.497C405.416 348.502 405.184 347.952 404.8 347.558C404.416 347.154 403.906 346.952 403.269 346.952ZM413.156 353.089C412.651 353.543 411.999 353.771 411.201 353.771C410.585 353.771 410.079 353.604 409.685 353.271C409.302 352.937 409.105 352.427 409.095 351.74V347.088H407.579V346.042H409.095V344.224L410.307 343.891V346.042H413.11V347.088H410.307V351.528C410.307 351.892 410.408 352.169 410.61 352.361C410.822 352.543 411.1 352.634 411.443 352.634C411.928 352.634 412.358 352.447 412.731 352.073L413.156 353.089ZM415.246 344.588C414.973 344.588 414.751 344.507 414.579 344.345C414.418 344.173 414.337 343.951 414.337 343.678C414.337 343.406 414.418 343.188 414.579 343.027C414.751 342.855 414.973 342.769 415.246 342.769C415.519 342.769 415.736 342.855 415.898 343.027C416.069 343.188 416.155 343.406 416.155 343.678C416.155 343.951 416.069 344.173 415.898 344.345C415.736 344.507 415.519 344.588 415.246 344.588ZM415.852 353.619H414.64V346.042H415.852V353.619ZM422.12 345.891C422.979 345.891 423.686 346.138 424.242 346.633C424.797 347.128 425.075 347.841 425.075 348.77V353.619H423.863V349.194C423.863 348.406 423.691 347.836 423.347 347.482C423.014 347.128 422.565 346.952 421.999 346.952C421.595 346.952 421.216 347.043 420.862 347.224C420.509 347.396 420.216 347.684 419.983 348.088C419.761 348.482 419.65 348.982 419.65 349.588V353.619H418.438V346.042H419.498L419.574 347.224C419.827 346.77 420.175 346.436 420.62 346.224C421.064 346.002 421.564 345.891 422.12 345.891ZM431.82 352.649C432.538 352.649 433.098 352.811 433.502 353.134C433.907 353.458 434.109 353.897 434.109 354.453C434.109 354.937 433.942 355.362 433.609 355.725C433.275 356.099 432.821 356.382 432.245 356.574C431.679 356.776 431.053 356.877 430.366 356.877C429.214 356.877 428.345 356.69 427.759 356.316C427.173 355.953 426.88 355.473 426.88 354.877C426.88 354.533 426.997 354.23 427.229 353.968C427.471 353.705 427.8 353.518 428.214 353.407C427.901 353.255 427.648 353.064 427.456 352.831C427.274 352.599 427.183 352.326 427.183 352.013C427.183 351.639 427.284 351.331 427.487 351.088C427.689 350.836 427.966 350.649 428.32 350.528C427.956 350.306 427.678 350.018 427.487 349.664C427.305 349.3 427.214 348.896 427.214 348.452C427.214 347.957 427.345 347.517 427.608 347.133C427.87 346.739 428.239 346.436 428.714 346.224C429.189 346.002 429.724 345.891 430.32 345.891C430.886 345.891 431.401 345.992 431.866 346.194C432.149 345.163 432.861 344.648 434.003 344.648L434.275 345.709C433.285 345.709 432.684 345.987 432.472 346.542C432.775 346.775 433.007 347.053 433.169 347.376C433.341 347.699 433.427 348.058 433.427 348.452C433.427 348.947 433.295 349.391 433.033 349.785C432.77 350.169 432.401 350.472 431.927 350.695C431.452 350.907 430.916 351.013 430.32 351.013C429.876 351.013 429.487 350.967 429.153 350.876C428.85 350.947 428.633 351.058 428.502 351.21C428.37 351.361 428.305 351.568 428.305 351.831C428.305 352.094 428.396 352.296 428.578 352.437C428.759 352.579 429.002 352.649 429.305 352.649H431.82ZM430.32 346.876C429.795 346.876 429.355 347.022 429.002 347.315C428.648 347.608 428.471 347.987 428.471 348.452C428.471 348.916 428.648 349.295 429.002 349.588C429.355 349.881 429.795 350.028 430.32 350.028C430.846 350.028 431.285 349.881 431.639 349.588C431.992 349.295 432.169 348.916 432.169 348.452C432.169 347.987 431.992 347.608 431.639 347.315C431.285 347.022 430.846 346.876 430.32 346.876ZM430.502 355.862C431.27 355.862 431.876 355.736 432.32 355.483C432.765 355.241 432.987 354.943 432.987 354.589C432.987 354.296 432.871 354.074 432.639 353.922C432.416 353.771 432.033 353.695 431.487 353.695H429.456C428.992 353.695 428.633 353.776 428.381 353.937C428.128 354.109 428.002 354.341 428.002 354.634C428.002 355.018 428.214 355.316 428.638 355.528C429.062 355.751 429.684 355.862 430.502 355.862Z" fill="white"/>
<defs>
<linearGradient id="paint0_linear_807_2445" x1="131.849" y1="397.258" x2="142.177" y2="397.258" gradientUnits="userSpaceOnUse">
<stop stop-color="#E64100"/>
<stop offset="1" stop-color="#FF7D45"/>
</linearGradient>
<linearGradient id="paint1_linear_807_2445" x1="240.57" y1="400.522" x2="250.046" y2="402.843" gradientUnits="userSpaceOnUse">
<stop stop-color="#FF8624"/>
<stop offset="1" stop-color="#EECA49"/>
</linearGradient>
<linearGradient id="paint2_linear_807_2445" x1="48.5753" y1="106.418" x2="194.011" y2="106.418" gradientUnits="userSpaceOnUse">
<stop stop-color="#E64100"/>
<stop offset="1" stop-color="#FF7D45"/>
</linearGradient>
<linearGradient id="paint3_linear_807_2445" x1="52.5781" y1="183.448" x2="120.18" y2="208.695" gradientUnits="userSpaceOnUse">
<stop stop-color="#FF8624"/>
<stop offset="1" stop-color="#EECA49"/>
</linearGradient>
</defs>
</svg>
