<svg width="460" height="460" viewBox="0 0 460 460" fill="none" xmlns="http://www.w3.org/2000/svg">
<path d="M352.509 120.32H189.594V283.236H352.509V120.32Z" fill="url(#paint0_linear_807_2337)"/>
<line x1="229.68" y1="66.4434" x2="229.68" y2="393.557" stroke="white" stroke-width="0.641399"/>
<line x1="66.4414" y1="229.679" x2="393.555" y2="229.679" stroke="white" stroke-width="0.641399"/>
<path d="M235.101 66.4434H224.898" stroke="white" stroke-width="0.637681" stroke-miterlimit="10"/>
<path d="M224.867 82.7988L235.13 82.7988" stroke="white" stroke-width="0.637681" stroke-miterlimit="10"/>
<path d="M224.867 99.1543L235.13 99.1543" stroke="white" stroke-width="0.637681" stroke-miterlimit="10"/>
<path d="M224.867 115.51L235.13 115.51" stroke="white" stroke-width="0.637681" stroke-miterlimit="10"/>
<path d="M224.867 131.865L235.13 131.865" stroke="white" stroke-width="0.637681" stroke-miterlimit="10"/>
<path d="M224.867 148.223L235.13 148.223" stroke="white" stroke-width="0.637681" stroke-miterlimit="10"/>
<path d="M224.867 164.578L235.13 164.578" stroke="white" stroke-width="0.637681" stroke-miterlimit="10"/>
<path d="M224.867 180.934L235.13 180.934" stroke="white" stroke-width="0.637681" stroke-miterlimit="10"/>
<path d="M224.867 197.289L235.13 197.289" stroke="white" stroke-width="0.637681" stroke-miterlimit="10"/>
<path d="M224.867 213.645L235.13 213.645" stroke="white" stroke-width="0.637681" stroke-miterlimit="10"/>
<path d="M224.867 246.355L235.13 246.355" stroke="white" stroke-width="0.637681" stroke-miterlimit="10"/>
<path d="M224.867 262.711L235.13 262.711" stroke="white" stroke-width="0.637681" stroke-miterlimit="10"/>
<path d="M224.867 279.066L235.13 279.066" stroke="white" stroke-width="0.637681" stroke-miterlimit="10"/>
<path d="M224.867 295.424L235.13 295.424" stroke="white" stroke-width="0.637681" stroke-miterlimit="10"/>
<path d="M224.867 311.779L235.13 311.779" stroke="white" stroke-width="0.637681" stroke-miterlimit="10"/>
<path d="M224.867 328.135L235.13 328.135" stroke="white" stroke-width="0.637681" stroke-miterlimit="10"/>
<path d="M224.867 344.49L235.13 344.49" stroke="white" stroke-width="0.637681" stroke-miterlimit="10"/>
<path d="M224.867 360.846L235.13 360.846" stroke="white" stroke-width="0.637681" stroke-miterlimit="10"/>
<path d="M224.867 377.201L235.13 377.201" stroke="white" stroke-width="0.637681" stroke-miterlimit="10"/>
<path d="M235.101 393.557H224.898" stroke="white" stroke-width="0.637681" stroke-miterlimit="10"/>
<path d="M66.4414 224.228L66.4414 234.49" stroke="white" stroke-width="0.637681" stroke-miterlimit="10"/>
<path d="M82.7969 234.49V224.228" stroke="white" stroke-width="0.637681" stroke-miterlimit="10"/>
<path d="M99.1523 234.49V224.228" stroke="white" stroke-width="0.637681" stroke-miterlimit="10"/>
<path d="M115.508 234.49V224.228" stroke="white" stroke-width="0.637681" stroke-miterlimit="10"/>
<path d="M131.863 234.49V224.228" stroke="white" stroke-width="0.637681" stroke-miterlimit="10"/>
<path d="M148.219 234.49V224.228" stroke="white" stroke-width="0.637681" stroke-miterlimit="10"/>
<path d="M164.574 234.49V224.228" stroke="white" stroke-width="0.637681" stroke-miterlimit="10"/>
<path d="M180.93 234.49V224.228" stroke="white" stroke-width="0.637681" stroke-miterlimit="10"/>
<path d="M197.285 234.49V224.228" stroke="white" stroke-width="0.637681" stroke-miterlimit="10"/>
<path d="M213.641 234.49V224.228" stroke="white" stroke-width="0.637681" stroke-miterlimit="10"/>
<path d="M246.355 234.49V224.228" stroke="white" stroke-width="0.637681" stroke-miterlimit="10"/>
<path d="M262.711 234.49V224.228" stroke="white" stroke-width="0.637681" stroke-miterlimit="10"/>
<path d="M279.066 234.49V224.228" stroke="white" stroke-width="0.637681" stroke-miterlimit="10"/>
<path d="M295.422 234.49V224.228" stroke="white" stroke-width="0.637681" stroke-miterlimit="10"/>
<path d="M311.777 234.49V224.228" stroke="white" stroke-width="0.637681" stroke-miterlimit="10"/>
<path d="M328.133 234.49V224.228" stroke="white" stroke-width="0.637681" stroke-miterlimit="10"/>
<path d="M344.488 234.49V224.228" stroke="white" stroke-width="0.637681" stroke-miterlimit="10"/>
<path d="M360.844 234.49V224.228" stroke="white" stroke-width="0.637681" stroke-miterlimit="10"/>
<path d="M377.199 234.49V224.228" stroke="white" stroke-width="0.637681" stroke-miterlimit="10"/>
<path d="M393.555 224.228L393.555 234.49" stroke="white" stroke-width="0.637681" stroke-miterlimit="10"/>
<path d="M220.456 15.6863C221.267 15.6863 221.929 15.8556 222.442 16.1943C222.955 16.5329 223.371 17.0769 223.689 17.826L222.55 18.3648C222.222 17.3488 221.498 16.8408 220.379 16.8408C219.846 16.8408 219.369 17.0307 218.948 17.4104C218.537 17.7901 218.214 18.3083 217.978 18.9651C217.752 19.6219 217.639 20.3506 217.639 21.151V21.4281H217.701C217.855 20.8226 218.204 20.3608 218.748 20.0427C219.292 19.7245 219.871 19.5655 220.487 19.5655C221.524 19.5655 222.35 19.8631 222.966 20.4583C223.592 21.0535 223.905 21.854 223.905 22.8597C223.905 23.8654 223.586 24.6659 222.95 25.2611C222.324 25.8563 221.477 26.1539 220.41 26.1539C219.579 26.1539 218.866 25.9333 218.27 25.492C217.686 25.0405 217.239 24.4247 216.931 23.6448C216.634 22.8546 216.485 21.9464 216.485 20.9201C216.485 19.8118 216.654 18.8676 216.993 18.0877C217.342 17.2975 217.814 16.7023 218.409 16.302C219.015 15.8915 219.697 15.6863 220.456 15.6863ZM220.395 20.7508C219.738 20.7508 219.204 20.9458 218.794 21.3357C218.383 21.7257 218.178 22.2286 218.178 22.8443C218.178 23.4806 218.378 23.9937 218.778 24.3837C219.189 24.7736 219.728 24.9686 220.395 24.9686C221.093 24.9686 221.637 24.7839 222.027 24.4145C222.416 24.0348 222.611 23.5114 222.611 22.8443C222.611 22.1978 222.416 21.6898 222.027 21.3203C221.637 20.9406 221.093 20.7508 220.395 20.7508ZM232.623 15.8402V16.9948C231.361 18.3186 230.438 19.7143 229.853 21.1818C229.278 22.6493 228.991 24.2554 228.991 26H227.728C227.728 24.3375 228.026 22.7417 228.621 21.2126C229.227 19.6732 230.114 18.2673 231.284 16.9948H225.142V15.8402H232.623ZM235.988 15.6863C236.737 15.6863 237.332 15.9429 237.773 16.456C238.215 16.9588 238.435 17.6362 238.435 18.4879C238.435 19.3397 238.215 20.0222 237.773 20.5353C237.332 21.0381 236.737 21.2896 235.988 21.2896C235.239 21.2896 234.643 21.0381 234.202 20.5353C233.761 20.0222 233.54 19.3397 233.54 18.4879C233.54 17.6362 233.761 16.9588 234.202 16.456C234.643 15.9429 235.239 15.6863 235.988 15.6863ZM242.16 15.8402H243.33L236.865 26H235.695L242.16 15.8402ZM235.988 16.6561C235.557 16.6561 235.223 16.8152 234.987 17.1333C234.751 17.4514 234.633 17.903 234.633 18.4879C234.633 19.0729 234.751 19.5244 234.987 19.8426C235.223 20.1607 235.557 20.3198 235.988 20.3198C236.419 20.3198 236.752 20.1607 236.988 19.8426C237.224 19.5244 237.342 19.0729 237.342 18.4879C237.342 17.903 237.224 17.4514 236.988 17.1333C236.752 16.8152 236.419 16.6561 235.988 16.6561ZM243.038 20.5507C243.787 20.5507 244.382 20.8072 244.824 21.3203C245.265 21.8232 245.486 22.5005 245.486 23.3523C245.486 24.2041 245.265 24.8865 244.824 25.3997C244.382 25.9025 243.787 26.1539 243.038 26.1539C242.289 26.1539 241.694 25.9025 241.252 25.3997C240.811 24.8865 240.59 24.2041 240.59 23.3523C240.59 22.5005 240.811 21.8232 241.252 21.3203C241.694 20.8072 242.289 20.5507 243.038 20.5507ZM243.038 21.5205C242.607 21.5205 242.273 21.6795 242.037 21.9977C241.801 22.3158 241.683 22.7673 241.683 23.3523C241.683 23.9373 241.801 24.3888 242.037 24.7069C242.273 25.0251 242.607 25.1841 243.038 25.1841C243.469 25.1841 243.802 25.0251 244.039 24.7069C244.275 24.3888 244.393 23.9373 244.393 23.3523C244.393 22.7673 244.275 22.3158 244.039 21.9977C243.802 21.6795 243.469 21.5205 243.038 21.5205Z" fill="white"/>
<path d="M204.714 36.6863C205.668 36.6863 206.5 36.9018 207.208 37.3328C207.916 37.7536 208.46 38.3591 208.84 39.1493C209.229 39.9292 209.424 40.8528 209.424 41.9201C209.424 42.9874 209.229 43.9162 208.84 44.7064C208.46 45.4863 207.916 46.0918 207.208 46.5228C206.5 46.9436 205.668 47.1539 204.714 47.1539C203.76 47.1539 202.928 46.9436 202.22 46.5228C201.512 46.0918 200.963 45.4863 200.573 44.7064C200.193 43.9162 200.004 42.9874 200.004 41.9201C200.004 40.8528 200.193 39.9292 200.573 39.1493C200.963 38.3591 201.512 37.7536 202.22 37.3328C202.928 36.9018 203.76 36.6863 204.714 36.6863ZM204.714 37.8408C203.657 37.8408 202.821 38.2051 202.205 38.9338C201.599 39.6521 201.297 40.6476 201.297 41.9201C201.297 43.1927 201.599 44.1932 202.205 44.9219C202.821 45.6402 203.657 45.9994 204.714 45.9994C205.771 45.9994 206.602 45.6402 207.208 44.9219C207.824 44.1932 208.131 43.1927 208.131 41.9201C208.131 40.6476 207.824 39.6521 207.208 38.9338C206.602 38.2051 205.771 37.8408 204.714 37.8408ZM218.338 39.3032V47H217.261L217.184 45.8301C216.67 46.7127 215.752 47.1539 214.428 47.1539C213.597 47.1539 212.914 46.923 212.381 46.4612C211.857 45.9994 211.596 45.2913 211.596 44.3369V39.3032H212.827V44.0136C212.827 44.7628 212.981 45.2964 213.289 45.6146C213.597 45.9224 214.048 46.0764 214.644 46.0764C215.352 46.0764 215.937 45.8609 216.398 45.4299C216.871 44.9988 217.107 44.3523 217.107 43.4903V39.3032H218.338ZM225.683 46.4612C225.17 46.923 224.508 47.1539 223.697 47.1539C223.071 47.1539 222.558 46.9846 222.158 46.6459C221.768 46.3073 221.568 45.789 221.558 45.0912V40.3654H220.018V39.3032H221.558V37.456L222.789 37.1173V39.3032H225.637V40.3654H222.789V44.8757C222.789 45.2451 222.892 45.5273 223.097 45.7223C223.312 45.9071 223.595 45.9994 223.944 45.9994C224.436 45.9994 224.872 45.8096 225.252 45.4299L225.683 46.4612ZM238.366 39.3032L235.688 47H234.456L232.286 40.8734L230.239 47H229.007L226.329 39.3032H227.699L229.638 45.5684L231.732 39.3032H232.963L235.057 45.5684L236.996 39.3032H238.366ZM246.29 46.1072C246.495 46.1072 246.7 46.0815 246.905 46.0302L246.828 47C246.541 47.1026 246.233 47.1539 245.905 47.1539C245.505 47.1539 245.186 47.0667 244.95 46.8922C244.725 46.7178 244.581 46.4253 244.519 46.0148C244.283 46.374 243.934 46.6562 243.473 46.8615C243.021 47.0564 242.544 47.1539 242.041 47.1539C241.282 47.1539 240.656 46.9795 240.163 46.6306C239.67 46.2714 239.424 45.7583 239.424 45.0912C239.424 44.5062 239.681 44.0034 240.194 43.5826C240.707 43.1516 241.451 42.854 242.426 42.6898L244.473 42.3511V41.9201C244.473 41.407 244.314 40.9965 243.996 40.6886C243.678 40.3808 243.237 40.2268 242.672 40.2268C242.159 40.2268 241.713 40.35 241.333 40.5963C240.963 40.8426 240.676 41.2069 240.471 41.6892L239.563 41.0273C239.768 40.4526 240.148 39.9959 240.702 39.6573C241.266 39.3186 241.923 39.1493 242.672 39.1493C243.585 39.1493 244.319 39.3699 244.873 39.8112C245.428 40.2525 245.705 40.9041 245.705 41.7662V45.553C245.705 45.7377 245.751 45.8763 245.843 45.9686C245.936 46.061 246.084 46.1072 246.29 46.1072ZM242.103 46.0764C242.749 46.0764 243.303 45.9224 243.765 45.6146C244.237 45.3067 244.473 44.9065 244.473 44.4139V43.3517L242.749 43.675C242.061 43.7981 241.548 43.9777 241.21 44.2138C240.871 44.4395 240.702 44.732 240.702 45.0912C240.702 45.4093 240.825 45.6556 241.071 45.8301C241.317 45.9943 241.661 46.0764 242.103 46.0764ZM252.099 39.1493C252.469 39.1493 252.751 39.2006 252.946 39.3032L252.7 40.5039C252.453 40.3705 252.13 40.3038 251.73 40.3038C251.401 40.3038 251.078 40.4013 250.76 40.5963C250.452 40.781 250.196 41.0683 249.99 41.4583C249.795 41.838 249.698 42.2998 249.698 42.8437V47H248.466V39.3032H249.467L249.636 40.5655C250.067 39.6213 250.888 39.1493 252.099 39.1493ZM261.113 35.7627V47H260.036L259.959 45.6608C259.733 46.1123 259.384 46.4766 258.912 46.7537C258.45 47.0205 257.922 47.1539 257.327 47.1539C256.249 47.1539 255.392 46.7999 254.756 46.0918C254.13 45.3734 253.817 44.3934 253.817 43.1516C253.817 41.9099 254.13 40.9349 254.756 40.2268C255.392 39.5085 256.249 39.1493 257.327 39.1493C257.891 39.1493 258.394 39.2724 258.835 39.5187C259.287 39.765 259.636 40.0934 259.882 40.5039V35.7627H261.113ZM257.465 46.0764C258.204 46.0764 258.789 45.8198 259.22 45.3067C259.661 44.7936 259.882 44.106 259.882 43.244V43.0592C259.882 42.1972 259.661 41.5096 259.22 40.9965C258.789 40.4834 258.204 40.2268 257.465 40.2268C256.716 40.2268 256.126 40.4936 255.695 41.0273C255.264 41.5507 255.048 42.2588 255.048 43.1516C255.048 44.0444 255.264 44.7577 255.695 45.2913C256.126 45.8147 256.716 46.0764 257.465 46.0764Z" fill="white"/>
<path d="M219.894 413.686C220.561 413.686 221.131 413.809 221.603 414.056C222.085 414.292 222.45 414.61 222.696 415.01C222.942 415.41 223.065 415.852 223.065 416.334C223.065 416.806 222.978 417.232 222.804 417.612C222.629 417.991 222.393 418.294 222.096 418.52C221.808 418.735 221.495 418.843 221.157 418.843V418.874C221.803 418.874 222.321 419.11 222.711 419.582C223.101 420.044 223.296 420.608 223.296 421.275C223.296 421.819 223.147 422.312 222.85 422.753C222.562 423.194 222.147 423.538 221.603 423.784C221.059 424.031 220.433 424.154 219.725 424.154C218.032 424.154 216.862 423.343 216.215 421.722L217.354 421.121C217.56 421.747 217.842 422.219 218.201 422.538C218.57 422.845 219.109 422.999 219.817 422.999C220.505 422.999 221.044 422.83 221.434 422.491C221.824 422.143 222.019 421.696 222.019 421.152C222.019 420.526 221.829 420.09 221.449 419.844C221.08 419.587 220.489 419.459 219.679 419.459H219.279V418.304H219.679C221.085 418.304 221.788 417.73 221.788 416.58C221.788 416.006 221.623 415.575 221.295 415.287C220.977 414.99 220.515 414.841 219.91 414.841C219.314 414.841 218.837 414.979 218.478 415.256C218.129 415.523 217.888 415.903 217.755 416.396L216.6 415.857C216.846 415.19 217.262 414.661 217.847 414.271C218.442 413.881 219.125 413.686 219.894 413.686ZM228.638 413.686C229.305 413.686 229.875 413.809 230.347 414.056C230.829 414.292 231.193 414.61 231.44 415.01C231.686 415.41 231.809 415.852 231.809 416.334C231.809 416.806 231.722 417.232 231.547 417.612C231.373 417.991 231.137 418.294 230.839 418.52C230.552 418.735 230.239 418.843 229.9 418.843V418.874C230.547 418.874 231.065 419.11 231.455 419.582C231.845 420.044 232.04 420.608 232.04 421.275C232.04 421.819 231.891 422.312 231.594 422.753C231.306 423.194 230.891 423.538 230.347 423.784C229.803 424.031 229.177 424.154 228.469 424.154C226.775 424.154 225.605 423.343 224.959 421.722L226.098 421.121C226.303 421.747 226.585 422.219 226.945 422.538C227.314 422.845 227.853 422.999 228.561 422.999C229.249 422.999 229.787 422.83 230.177 422.491C230.567 422.143 230.762 421.696 230.762 421.152C230.762 420.526 230.572 420.09 230.193 419.844C229.823 419.587 229.233 419.459 228.422 419.459H228.022V418.304H228.422C229.828 418.304 230.531 417.73 230.531 416.58C230.531 416.006 230.367 415.575 230.039 415.287C229.721 414.99 229.259 414.841 228.653 414.841C228.058 414.841 227.581 414.979 227.222 415.256C226.873 415.523 226.632 415.903 226.498 416.396L225.344 415.857C225.59 415.19 226.006 414.661 226.591 414.271C227.186 413.881 227.868 413.686 228.638 413.686ZM235.965 413.686C236.715 413.686 237.31 413.943 237.751 414.456C238.192 414.959 238.413 415.636 238.413 416.488C238.413 417.34 238.192 418.022 237.751 418.535C237.31 419.038 236.715 419.29 235.965 419.29C235.216 419.29 234.621 419.038 234.18 418.535C233.738 418.022 233.518 417.34 233.518 416.488C233.518 415.636 233.738 414.959 234.18 414.456C234.621 413.943 235.216 413.686 235.965 413.686ZM242.138 413.84H243.308L236.843 424H235.673L242.138 413.84ZM235.965 414.656C235.534 414.656 235.201 414.815 234.965 415.133C234.729 415.451 234.611 415.903 234.611 416.488C234.611 417.073 234.729 417.524 234.965 417.843C235.201 418.161 235.534 418.32 235.965 418.32C236.396 418.32 236.73 418.161 236.966 417.843C237.202 417.524 237.32 417.073 237.32 416.488C237.32 415.903 237.202 415.451 236.966 415.133C236.73 414.815 236.396 414.656 235.965 414.656ZM243.016 418.551C243.765 418.551 244.36 418.807 244.801 419.32C245.243 419.823 245.463 420.501 245.463 421.352C245.463 422.204 245.243 422.887 244.801 423.4C244.36 423.903 243.765 424.154 243.016 424.154C242.267 424.154 241.671 423.903 241.23 423.4C240.789 422.887 240.568 422.204 240.568 421.352C240.568 420.501 240.789 419.823 241.23 419.32C241.671 418.807 242.267 418.551 243.016 418.551ZM243.016 419.52C242.585 419.52 242.251 419.68 242.015 419.998C241.779 420.316 241.661 420.767 241.661 421.352C241.661 421.937 241.779 422.389 242.015 422.707C242.251 423.025 242.585 423.184 243.016 423.184C243.447 423.184 243.78 423.025 244.016 422.707C244.252 422.389 244.37 421.937 244.37 421.352C244.37 420.767 244.252 420.316 244.016 419.998C243.78 419.68 243.447 419.52 243.016 419.52Z" fill="white"/>
<path d="M208.538 445H207.307V434.84H208.538V445ZM215.065 437.149C215.937 437.149 216.656 437.401 217.22 437.904C217.785 438.406 218.067 439.13 218.067 440.074V445H216.835V440.505C216.835 439.705 216.661 439.125 216.312 438.766C215.973 438.406 215.517 438.227 214.942 438.227C214.531 438.227 214.147 438.319 213.787 438.504C213.428 438.678 213.131 438.971 212.895 439.381C212.669 439.782 212.556 440.29 212.556 440.905V445H211.324V437.303H212.402L212.479 438.504C212.736 438.042 213.09 437.703 213.541 437.488C213.993 437.262 214.501 437.149 215.065 437.149ZM231.68 437.303L229.001 445H227.77L225.599 438.873L223.552 445H222.321L219.642 437.303H221.012L222.952 443.568L225.045 437.303H226.277L228.37 443.568L230.31 437.303H231.68ZM239.603 444.107C239.808 444.107 240.013 444.082 240.219 444.03L240.142 445C239.854 445.103 239.547 445.154 239.218 445.154C238.818 445.154 238.5 445.067 238.264 444.892C238.038 444.718 237.894 444.425 237.833 444.015C237.597 444.374 237.248 444.656 236.786 444.861C236.334 445.056 235.857 445.154 235.354 445.154C234.595 445.154 233.969 444.979 233.476 444.631C232.984 444.271 232.737 443.758 232.737 443.091C232.737 442.506 232.994 442.003 233.507 441.583C234.02 441.152 234.764 440.854 235.739 440.69L237.787 440.351V439.92C237.787 439.407 237.627 438.997 237.309 438.689C236.991 438.381 236.55 438.227 235.985 438.227C235.472 438.227 235.026 438.35 234.646 438.596C234.277 438.843 233.989 439.207 233.784 439.689L232.876 439.027C233.081 438.453 233.461 437.996 234.015 437.657C234.58 437.319 235.236 437.149 235.985 437.149C236.899 437.149 237.633 437.37 238.187 437.811C238.741 438.252 239.018 438.904 239.018 439.766V443.553C239.018 443.738 239.064 443.876 239.157 443.969C239.249 444.061 239.398 444.107 239.603 444.107ZM235.416 444.076C236.062 444.076 236.617 443.922 237.078 443.615C237.551 443.307 237.787 442.906 237.787 442.414V441.352L236.062 441.675C235.375 441.798 234.862 441.978 234.523 442.214C234.184 442.44 234.015 442.732 234.015 443.091C234.015 443.409 234.138 443.656 234.385 443.83C234.631 443.994 234.975 444.076 235.416 444.076ZM245.413 437.149C245.782 437.149 246.064 437.201 246.259 437.303L246.013 438.504C245.767 438.37 245.443 438.304 245.043 438.304C244.715 438.304 244.392 438.401 244.073 438.596C243.766 438.781 243.509 439.068 243.304 439.458C243.109 439.838 243.011 440.3 243.011 440.844V445H241.78V437.303H242.78L242.95 438.565C243.381 437.621 244.202 437.149 245.413 437.149ZM254.427 433.763V445H253.349L253.272 443.661C253.046 444.112 252.698 444.477 252.225 444.754C251.764 445.021 251.235 445.154 250.64 445.154C249.562 445.154 248.705 444.8 248.069 444.092C247.443 443.373 247.13 442.393 247.13 441.152C247.13 439.91 247.443 438.935 248.069 438.227C248.705 437.508 249.562 437.149 250.64 437.149C251.204 437.149 251.707 437.272 252.149 437.519C252.6 437.765 252.949 438.093 253.195 438.504V433.763H254.427ZM250.778 444.076C251.517 444.076 252.102 443.82 252.533 443.307C252.975 442.794 253.195 442.106 253.195 441.244V441.059C253.195 440.197 252.975 439.51 252.533 438.997C252.102 438.483 251.517 438.227 250.778 438.227C250.029 438.227 249.439 438.494 249.008 439.027C248.577 439.551 248.362 440.259 248.362 441.152C248.362 442.044 248.577 442.758 249.008 443.291C249.439 443.815 250.029 444.076 250.778 444.076Z" fill="white"/>
<path d="M22.7499 223.999C24.1558 222.963 25.2334 222.111 25.9825 221.444C26.7317 220.767 27.2653 220.156 27.5834 219.612C27.9118 219.058 28.076 218.478 28.076 217.873C28.076 217.267 27.8811 216.78 27.4911 216.41C27.1011 216.031 26.5777 215.841 25.9209 215.841C25.2334 215.841 24.6741 216.067 24.243 216.518C23.8223 216.97 23.576 217.58 23.5041 218.35L22.4266 217.703C22.56 216.79 22.9294 216.061 23.5349 215.518C24.1507 214.963 24.9614 214.686 25.9671 214.686C26.6444 214.686 27.2397 214.82 27.7528 215.087C28.2762 215.353 28.6764 215.728 28.9535 216.21C29.2306 216.693 29.3691 217.247 29.3691 217.873C29.3691 218.53 29.21 219.161 28.8919 219.766C28.584 220.372 28.076 221.008 27.3679 221.675C26.6598 222.342 25.7054 223.076 24.5047 223.876V223.892C25.182 223.861 25.69 223.845 26.0287 223.845H29.5846V225H22.7499V223.999ZM35.1418 218.489C36.1065 218.489 36.8813 218.791 37.4662 219.397C38.0512 219.992 38.3437 220.782 38.3437 221.767C38.3437 222.824 38.0358 223.656 37.4201 224.261C36.8043 224.856 35.9525 225.154 34.8647 225.154C33.9514 225.154 33.2074 224.959 32.6327 224.569C32.0682 224.169 31.6321 223.589 31.3242 222.83L32.5249 222.198C32.6994 222.794 32.9559 223.245 33.2946 223.553C33.6435 223.851 34.1515 223.999 34.8186 223.999C35.5164 223.999 36.0654 223.81 36.4657 223.43C36.8659 223.05 37.066 222.527 37.066 221.86C37.066 221.141 36.8813 220.592 36.5118 220.213C36.1424 219.833 35.6088 219.643 34.9109 219.643C33.8539 219.643 33.0996 219.971 32.6481 220.628H31.5551L32.1709 214.84H37.8819V215.995H33.2176L32.8174 219.197L32.802 219.335H32.8174C33.3613 218.771 34.1361 218.489 35.1418 218.489ZM42.1464 214.686C42.8955 214.686 43.4908 214.943 43.932 215.456C44.3733 215.959 44.594 216.636 44.594 217.488C44.594 218.34 44.3733 219.022 43.932 219.535C43.4908 220.038 42.8955 220.29 42.1464 220.29C41.3972 220.29 40.802 220.038 40.3607 219.535C39.9194 219.022 39.6988 218.34 39.6988 217.488C39.6988 216.636 39.9194 215.959 40.3607 215.456C40.802 214.943 41.3972 214.686 42.1464 214.686ZM48.3192 214.84H49.4891L43.0238 225H41.8539L48.3192 214.84ZM42.1464 215.656C41.7154 215.656 41.3818 215.815 41.1458 216.133C40.9098 216.451 40.7917 216.903 40.7917 217.488C40.7917 218.073 40.9098 218.524 41.1458 218.843C41.3818 219.161 41.7154 219.32 42.1464 219.32C42.5774 219.32 42.9109 219.161 43.147 218.843C43.383 218.524 43.501 218.073 43.501 217.488C43.501 216.903 43.383 216.451 43.147 216.133C42.9109 215.815 42.5774 215.656 42.1464 215.656ZM49.1966 219.551C49.9458 219.551 50.541 219.807 50.9823 220.32C51.4236 220.823 51.6442 221.501 51.6442 222.352C51.6442 223.204 51.4236 223.887 50.9823 224.4C50.541 224.903 49.9458 225.154 49.1966 225.154C48.4475 225.154 47.8523 224.903 47.411 224.4C46.9697 223.887 46.7491 223.204 46.7491 222.352C46.7491 221.501 46.9697 220.823 47.411 220.32C47.8523 219.807 48.4475 219.551 49.1966 219.551ZM49.1966 220.52C48.7656 220.52 48.4321 220.68 48.1961 220.998C47.96 221.316 47.842 221.767 47.842 222.352C47.842 222.937 47.96 223.389 48.1961 223.707C48.4321 224.025 48.7656 224.184 49.1966 224.184C49.6277 224.184 49.9612 224.025 50.1972 223.707C50.4333 223.389 50.5513 222.937 50.5513 222.352C50.5513 221.767 50.4333 221.316 50.1972 220.998C49.9612 220.68 49.6277 220.52 49.1966 220.52Z" fill="white"/>
<path d="M19.8519 243.398C19.5338 244.261 19.0104 244.938 18.2818 245.43C17.5531 245.913 16.7116 246.154 15.7572 246.154C14.8028 246.154 13.9715 245.944 13.2634 245.523C12.5553 245.092 12.0063 244.486 11.6163 243.706C11.2366 242.916 11.0468 241.987 11.0468 240.92C11.0468 239.863 11.2366 238.939 11.6163 238.149C12.0063 237.359 12.5553 236.754 13.2634 236.333C13.9715 235.902 14.7925 235.686 15.7264 235.686C16.7013 235.686 17.5172 235.886 18.174 236.287C18.8411 236.687 19.3388 237.277 19.6672 238.057L18.4511 238.626C18.2253 238.031 17.8969 237.585 17.4659 237.287C17.0349 236.99 16.4858 236.841 15.8188 236.841C15.1209 236.841 14.5103 237.005 13.9869 237.333C13.4636 237.652 13.0582 238.118 12.7708 238.734C12.4835 239.35 12.3398 240.079 12.3398 240.92C12.3398 242.193 12.6426 243.193 13.248 243.922C13.8638 244.64 14.7002 244.999 15.7572 244.999C16.4448 244.999 17.04 244.825 17.5429 244.476C18.0457 244.127 18.4049 243.614 18.6204 242.937L19.8519 243.398ZM28.0651 245.107C28.2703 245.107 28.4756 245.082 28.6808 245.03L28.6039 246C28.3165 246.103 28.0087 246.154 27.6803 246.154C27.28 246.154 26.9619 246.067 26.7259 245.892C26.5001 245.718 26.3564 245.425 26.2948 245.015C26.0588 245.374 25.7099 245.656 25.2481 245.861C24.7965 246.056 24.3193 246.154 23.8165 246.154C23.057 246.154 22.431 245.979 21.9384 245.631C21.4459 245.271 21.1996 244.758 21.1996 244.091C21.1996 243.506 21.4561 243.003 21.9692 242.583C22.4824 242.152 23.2264 241.854 24.2013 241.69L26.2487 241.351V240.92C26.2487 240.407 26.0896 239.997 25.7715 239.689C25.4533 239.381 25.012 239.227 24.4476 239.227C23.9345 239.227 23.4881 239.35 23.1084 239.596C22.7389 239.843 22.4516 240.207 22.2463 240.689L21.3381 240.027C21.5433 239.453 21.9231 238.996 22.4772 238.657C23.0417 238.319 23.6984 238.149 24.4476 238.149C25.361 238.149 26.0947 238.37 26.6489 238.811C27.2031 239.252 27.4801 239.904 27.4801 240.766V244.553C27.4801 244.738 27.5263 244.876 27.6187 244.969C27.711 245.061 27.8598 245.107 28.0651 245.107ZM23.878 245.076C24.5246 245.076 25.0787 244.922 25.5405 244.615C26.0126 244.307 26.2487 243.906 26.2487 243.414V242.352L24.5246 242.675C23.837 242.798 23.3239 242.978 22.9852 243.214C22.6466 243.44 22.4772 243.732 22.4772 244.091C22.4772 244.409 22.6004 244.656 22.8467 244.83C23.093 244.994 23.4368 245.076 23.878 245.076ZM33.8747 238.149C34.2442 238.149 34.5264 238.201 34.7214 238.303L34.4751 239.504C34.2288 239.37 33.9055 239.304 33.5053 239.304C33.1769 239.304 32.8536 239.401 32.5355 239.596C32.2276 239.781 31.9711 240.068 31.7658 240.458C31.5708 240.838 31.4733 241.3 31.4733 241.844V246H30.2418V238.303H31.2424L31.4118 239.565C31.8428 238.621 32.6638 238.149 33.8747 238.149ZM42.658 241.751C42.658 242.039 42.6375 242.326 42.5964 242.613H36.793C36.8649 243.393 37.1214 243.999 37.5627 244.43C38.0142 244.861 38.5941 245.076 39.3022 245.076C39.8666 245.076 40.3335 244.979 40.703 244.784C41.0827 244.589 41.3393 244.307 41.4727 243.937L42.504 244.476C42.1962 245.02 41.7857 245.436 41.2726 245.723C40.7594 246.01 40.1026 246.154 39.3022 246.154C38.1425 246.154 37.2292 245.8 36.5621 245.092C35.9053 244.384 35.5769 243.404 35.5769 242.152C35.5769 240.9 35.8899 239.92 36.5159 239.211C37.1522 238.503 38.0502 238.149 39.2098 238.149C39.9282 238.149 40.5491 238.308 41.0724 238.626C41.5958 238.945 41.9909 239.376 42.2577 239.92C42.5246 240.463 42.658 241.074 42.658 241.751ZM39.2098 239.227C38.5325 239.227 37.9835 239.427 37.5627 239.827C37.1522 240.227 36.9008 240.792 36.8084 241.52H41.4727C41.3906 240.802 41.1545 240.243 40.7646 239.843C40.3746 239.432 39.8563 239.227 39.2098 239.227ZM46.5244 238.303H49.0951V239.365H46.5244V246H45.2929V239.365H43.7536V238.303H45.2929V237.01C45.2929 236.302 45.5084 235.738 45.9395 235.317C46.3705 234.896 46.9965 234.686 47.8175 234.686C48.0946 234.686 48.346 234.717 48.5718 234.778C48.8078 234.84 48.9925 234.927 49.1259 235.04L48.8027 236.04C48.5564 235.886 48.2639 235.809 47.9252 235.809C46.9914 235.809 46.5244 236.251 46.5244 237.133V238.303ZM57.1703 238.303V246H56.0927L56.0158 244.83C55.5026 245.713 54.5842 246.154 53.2603 246.154C52.4291 246.154 51.7466 245.923 51.213 245.461C50.6896 244.999 50.4279 244.291 50.4279 243.337V238.303H51.6594V243.014C51.6594 243.763 51.8133 244.296 52.1212 244.615C52.4291 244.922 52.8806 245.076 53.4758 245.076C54.1839 245.076 54.7689 244.861 55.2307 244.43C55.7028 243.999 55.9388 243.352 55.9388 242.49V238.303H57.1703ZM60.9747 243.937C60.9747 244.327 61.0311 244.599 61.144 244.753C61.2671 244.897 61.4878 244.969 61.8059 244.969C62.0214 244.969 62.2061 244.953 62.3601 244.922C62.5243 244.892 62.7141 244.835 62.9296 244.753L62.7295 245.938C62.3909 246.082 62.0112 246.154 61.5904 246.154C60.9644 246.154 60.4975 245.985 60.1896 245.646C59.892 245.307 59.7432 244.789 59.7432 244.091V234.763H60.9747V243.937Z" fill="white"/>
<path d="M416.002 214.84V215.995C414.739 217.319 413.816 218.714 413.231 220.182C412.656 221.649 412.369 223.255 412.369 225H411.107C411.107 223.337 411.404 221.742 411.999 220.213C412.605 218.673 413.493 217.267 414.662 215.995H408.52V214.84H416.002ZM421.09 218.489C422.055 218.489 422.83 218.791 423.414 219.397C423.999 219.992 424.292 220.782 424.292 221.767C424.292 222.824 423.984 223.656 423.368 224.261C422.753 224.856 421.901 225.154 420.813 225.154C419.9 225.154 419.156 224.959 418.581 224.569C418.016 224.169 417.58 223.589 417.272 222.83L418.473 222.198C418.648 222.794 418.904 223.245 419.243 223.553C419.592 223.851 420.1 223.999 420.767 223.999C421.465 223.999 422.014 223.81 422.414 223.43C422.814 223.05 423.014 222.527 423.014 221.86C423.014 221.141 422.83 220.592 422.46 220.213C422.091 219.833 421.557 219.643 420.859 219.643C419.802 219.643 419.048 219.971 418.596 220.628H417.503L418.119 214.84H423.83V215.995H419.166L418.766 219.197L418.75 219.335H418.766C419.31 218.771 420.084 218.489 421.09 218.489ZM428.095 214.686C428.844 214.686 429.439 214.943 429.88 215.456C430.322 215.959 430.542 216.636 430.542 217.488C430.542 218.34 430.322 219.022 429.88 219.535C429.439 220.038 428.844 220.29 428.095 220.29C427.345 220.29 426.75 220.038 426.309 219.535C425.868 219.022 425.647 218.34 425.647 217.488C425.647 216.636 425.868 215.959 426.309 215.456C426.75 214.943 427.345 214.686 428.095 214.686ZM434.267 214.84H435.437L428.972 225H427.802L434.267 214.84ZM428.095 215.656C427.664 215.656 427.33 215.815 427.094 216.133C426.858 216.451 426.74 216.903 426.74 217.488C426.74 218.073 426.858 218.524 427.094 218.843C427.33 219.161 427.664 219.32 428.095 219.32C428.526 219.32 428.859 219.161 429.095 218.843C429.331 218.524 429.449 218.073 429.449 217.488C429.449 216.903 429.331 216.451 429.095 216.133C428.859 215.815 428.526 215.656 428.095 215.656ZM435.145 219.551C435.894 219.551 436.489 219.807 436.931 220.32C437.372 220.823 437.592 221.501 437.592 222.352C437.592 223.204 437.372 223.887 436.931 224.4C436.489 224.903 435.894 225.154 435.145 225.154C434.396 225.154 433.8 224.903 433.359 224.4C432.918 223.887 432.697 223.204 432.697 222.352C432.697 221.501 432.918 220.823 433.359 220.32C433.8 219.807 434.396 219.551 435.145 219.551ZM435.145 220.52C434.714 220.52 434.38 220.68 434.144 220.998C433.908 221.316 433.79 221.767 433.79 222.352C433.79 222.937 433.908 223.389 434.144 223.707C434.38 224.025 434.714 224.184 435.145 224.184C435.576 224.184 435.909 224.025 436.145 223.707C436.381 223.389 436.499 222.937 436.499 222.352C436.499 221.767 436.381 221.316 436.145 220.998C435.909 220.68 435.576 220.52 435.145 220.52Z" fill="white"/>
<path d="M407.629 241.782H405.197V246H403.965V235.84H407.814C408.85 235.84 409.682 236.107 410.308 236.641C410.934 237.174 411.247 237.898 411.247 238.811C411.247 239.53 411.046 240.135 410.646 240.628C410.246 241.12 409.697 241.459 408.999 241.644L411.862 246H410.4L407.629 241.782ZM405.197 240.628H407.798C409.235 240.628 409.953 240.022 409.953 238.811C409.953 237.6 409.235 236.995 407.798 236.995H405.197V240.628ZM420.052 245.107C420.258 245.107 420.463 245.082 420.668 245.03L420.591 246C420.304 246.103 419.996 246.154 419.667 246.154C419.267 246.154 418.949 246.067 418.713 245.892C418.487 245.718 418.344 245.425 418.282 245.015C418.046 245.374 417.697 245.656 417.235 245.861C416.784 246.056 416.307 246.154 415.804 246.154C415.044 246.154 414.418 245.979 413.926 245.631C413.433 245.271 413.187 244.758 413.187 244.091C413.187 243.506 413.443 243.003 413.956 242.583C414.47 242.152 415.214 241.854 416.188 241.69L418.236 241.351V240.92C418.236 240.407 418.077 239.997 417.759 239.689C417.441 239.381 416.999 239.227 416.435 239.227C415.922 239.227 415.475 239.35 415.096 239.596C414.726 239.843 414.439 240.207 414.234 240.689L413.325 240.027C413.531 239.453 413.91 238.996 414.464 238.657C415.029 238.319 415.686 238.149 416.435 238.149C417.348 238.149 418.082 238.37 418.636 238.811C419.19 239.252 419.467 239.904 419.467 240.766V244.553C419.467 244.738 419.514 244.876 419.606 244.969C419.698 245.061 419.847 245.107 420.052 245.107ZM415.865 245.076C416.512 245.076 417.066 244.922 417.528 244.615C418 244.307 418.236 243.906 418.236 243.414V242.352L416.512 242.675C415.824 242.798 415.311 242.978 414.972 243.214C414.634 243.44 414.464 243.732 414.464 244.091C414.464 244.409 414.588 244.656 414.834 244.83C415.08 244.994 415.424 245.076 415.865 245.076ZM426.016 238.149C427.093 238.149 427.945 238.508 428.571 239.227C429.207 239.935 429.526 240.91 429.526 242.152C429.526 243.393 429.207 244.373 428.571 245.092C427.945 245.8 427.093 246.154 426.016 246.154C425.451 246.154 424.943 246.031 424.492 245.784C424.051 245.538 423.707 245.21 423.461 244.799V249.233H422.229V238.303H423.307L423.384 239.642C423.609 239.191 423.953 238.832 424.415 238.565C424.887 238.288 425.421 238.149 426.016 238.149ZM425.877 245.076C426.626 245.076 427.217 244.815 427.648 244.291C428.079 243.758 428.294 243.044 428.294 242.152C428.294 241.259 428.079 240.551 427.648 240.027C427.217 239.494 426.626 239.227 425.877 239.227C425.138 239.227 424.548 239.483 424.107 239.997C423.676 240.51 423.461 241.197 423.461 242.059V242.244C423.461 243.106 423.676 243.794 424.107 244.307C424.548 244.82 425.138 245.076 425.877 245.076ZM432.31 236.825C432.033 236.825 431.807 236.743 431.633 236.579C431.469 236.405 431.386 236.179 431.386 235.902C431.386 235.625 431.469 235.404 431.633 235.24C431.807 235.065 432.033 234.978 432.31 234.978C432.587 234.978 432.808 235.065 432.972 235.24C433.146 235.404 433.234 235.625 433.234 235.902C433.234 236.179 433.146 236.405 432.972 236.579C432.808 236.743 432.587 236.825 432.31 236.825ZM432.926 246H431.694V238.303H432.926V246ZM442.387 234.763V246H441.31L441.233 244.661C441.007 245.112 440.658 245.477 440.186 245.754C439.724 246.021 439.195 246.154 438.6 246.154C437.523 246.154 436.666 245.8 436.03 245.092C435.404 244.373 435.091 243.393 435.091 242.152C435.091 240.91 435.404 239.935 436.03 239.227C436.666 238.508 437.523 238.149 438.6 238.149C439.165 238.149 439.668 238.272 440.109 238.519C440.56 238.765 440.909 239.093 441.156 239.504V234.763H442.387ZM438.739 245.076C439.478 245.076 440.063 244.82 440.494 244.307C440.935 243.794 441.156 243.106 441.156 242.244V242.059C441.156 241.197 440.935 240.51 440.494 239.997C440.063 239.483 439.478 239.227 438.739 239.227C437.99 239.227 437.4 239.494 436.969 240.027C436.537 240.551 436.322 241.259 436.322 242.152C436.322 243.044 436.537 243.758 436.969 244.291C437.4 244.815 437.99 245.076 438.739 245.076Z" fill="white"/>
<defs>
<linearGradient id="paint0_linear_807_2337" x1="271.051" y1="283.236" x2="271.051" y2="120.32" gradientUnits="userSpaceOnUse">
<stop stop-color="#16B364"/>
<stop offset="1" stop-color="#3DE103"/>
</linearGradient>
</defs>
</svg>
