<svg width="460" height="460" viewBox="0 0 460 460" fill="none" xmlns="http://www.w3.org/2000/svg">
<path d="M365.64 76.6918H362.502V81.332H360.356V76.6918H351.72V75.1093L359.793 63.6294H362.502V74.8411H365.64V76.6918ZM353.999 74.8411H360.356V68.216L360.464 65.3728H360.41C359.963 66.2848 359.373 67.2683 358.64 68.3233L353.999 74.8411ZM374.876 81.6003C372.73 81.6003 371.094 80.8224 369.967 79.2667C368.841 77.711 368.278 75.449 368.278 72.4807C368.278 69.5124 368.841 67.2504 369.967 65.6947C371.094 64.139 372.73 63.3612 374.876 63.3612C377.022 63.3612 378.658 64.139 379.784 65.6947C380.911 67.2504 381.474 69.5124 381.474 72.4807C381.474 75.449 380.911 77.711 379.784 79.2667C378.658 80.8224 377.022 81.6003 374.876 81.6003ZM374.876 79.6691C376.288 79.6691 377.37 79.0611 378.121 77.8452C378.872 76.6113 379.248 74.8232 379.248 72.4807C379.248 70.1383 378.872 68.359 378.121 67.1431C377.37 65.9093 376.288 65.2924 374.876 65.2924C373.463 65.2924 372.381 65.9093 371.63 67.1431C370.879 68.359 370.504 70.1383 370.504 72.4807C370.504 74.8232 370.879 76.6113 371.63 77.8452C372.381 79.0611 373.463 79.6691 374.876 79.6691ZM388.155 63.3612C389.46 63.3612 390.497 63.8082 391.266 64.7023C392.035 65.5785 392.419 66.7587 392.419 68.2428C392.419 69.727 392.035 70.9161 391.266 71.8102C390.497 72.6864 389.46 73.1245 388.155 73.1245C386.849 73.1245 385.812 72.6864 385.043 71.8102C384.274 70.9161 383.89 69.727 383.89 68.2428C383.89 66.7587 384.274 65.5785 385.043 64.7023C385.812 63.8082 386.849 63.3612 388.155 63.3612ZM398.91 63.6294H400.949L389.684 81.332H387.645L398.91 63.6294ZM388.155 65.051C387.404 65.051 386.823 65.3281 386.411 65.8825C386 66.4368 385.794 67.2236 385.794 68.2428C385.794 69.2621 386 70.0488 386.411 70.6032C386.823 71.1575 387.404 71.4347 388.155 71.4347C388.906 71.4347 389.487 71.1575 389.898 70.6032C390.309 70.0488 390.515 69.2621 390.515 68.2428C390.515 67.2236 390.309 66.4368 389.898 65.8825C389.487 65.3281 388.906 65.051 388.155 65.051ZM400.439 71.837C401.745 71.837 402.782 72.284 403.551 73.1781C404.32 74.0543 404.704 75.2345 404.704 76.7186C404.704 78.2028 404.32 79.3919 403.551 80.286C402.782 81.1622 401.745 81.6003 400.439 81.6003C399.134 81.6003 398.097 81.1622 397.328 80.286C396.559 79.3919 396.175 78.2028 396.175 76.7186C396.175 75.2345 396.559 74.0543 397.328 73.1781C398.097 72.284 399.134 71.837 400.439 71.837ZM400.439 73.5268C399.688 73.5268 399.107 73.8039 398.696 74.3583C398.285 74.9126 398.079 75.6994 398.079 76.7186C398.079 77.7379 398.285 78.5246 398.696 79.079C399.107 79.6333 399.688 79.9105 400.439 79.9105C401.19 79.9105 401.771 79.6333 402.183 79.079C402.594 78.5246 402.8 77.7379 402.8 76.7186C402.8 75.6994 402.594 74.9126 402.183 74.3583C401.771 73.8039 401.19 73.5268 400.439 73.5268Z" fill="white"/>
<path d="M359.964 104.612C359.631 105.513 359.084 106.222 358.322 106.737C357.561 107.241 356.681 107.493 355.683 107.493C354.685 107.493 353.816 107.273 353.076 106.833C352.336 106.383 351.762 105.75 351.354 104.934C350.957 104.108 350.759 103.137 350.759 102.021C350.759 100.916 350.957 99.9506 351.354 99.1245C351.762 98.2983 352.336 97.6653 353.076 97.2254C353.816 96.7748 354.675 96.5495 355.651 96.5495C356.67 96.5495 357.523 96.7587 358.21 97.1772C358.907 97.5956 359.427 98.2125 359.771 99.0279L358.499 99.6233C358.263 99.0011 357.92 98.5344 357.469 98.2232C357.019 97.9121 356.445 97.7565 355.747 97.7565C355.018 97.7565 354.379 97.9282 353.832 98.2715C353.285 98.6041 352.861 99.0923 352.561 99.736C352.261 100.38 352.11 101.141 352.11 102.021C352.11 103.352 352.427 104.398 353.06 105.159C353.704 105.91 354.578 106.286 355.683 106.286C356.402 106.286 357.024 106.104 357.55 105.739C358.076 105.374 358.451 104.838 358.676 104.129L359.964 104.612ZM365.348 99.1245C366.56 99.1245 367.51 99.4946 368.196 100.235C368.894 100.975 369.242 102 369.242 103.309C369.242 104.618 368.894 105.642 368.196 106.383C367.51 107.123 366.56 107.493 365.348 107.493C364.135 107.493 363.181 107.123 362.483 106.383C361.797 105.642 361.453 104.618 361.453 103.309C361.453 102 361.797 100.975 362.483 100.235C363.181 99.4946 364.135 99.1245 365.348 99.1245ZM365.348 100.235C364.532 100.235 363.894 100.508 363.433 101.056C362.971 101.603 362.741 102.354 362.741 103.309C362.741 104.264 362.971 105.015 363.433 105.562C363.894 106.109 364.532 106.383 365.348 106.383C366.163 106.383 366.802 106.109 367.263 105.562C367.724 105.015 367.955 104.264 367.955 103.309C367.955 102.354 367.724 101.603 367.263 101.056C366.802 100.508 366.163 100.235 365.348 100.235ZM375.413 99.1245C376.325 99.1245 377.076 99.3873 377.666 99.913C378.256 100.439 378.551 101.195 378.551 102.182V107.332H377.263V102.633C377.263 101.796 377.081 101.19 376.716 100.814C376.362 100.439 375.885 100.251 375.284 100.251C374.855 100.251 374.452 100.348 374.077 100.541C373.701 100.723 373.39 101.029 373.143 101.458C372.907 101.876 372.789 102.407 372.789 103.051V107.332H371.502V99.2854H372.628L372.709 100.541C372.977 100.058 373.347 99.7038 373.819 99.4785C374.291 99.2425 374.822 99.1245 375.413 99.1245ZM386.039 106.769C385.503 107.252 384.811 107.493 383.963 107.493C383.309 107.493 382.772 107.316 382.354 106.962C381.946 106.608 381.737 106.066 381.726 105.336V100.396H380.117V99.2854H381.726V97.3542L383.013 97.0001V99.2854H385.991V100.396H383.013V105.111C383.013 105.497 383.121 105.792 383.335 105.996C383.561 106.189 383.856 106.286 384.22 106.286C384.735 106.286 385.191 106.087 385.588 105.691L386.039 106.769ZM391.413 99.1245C391.8 99.1245 392.095 99.1781 392.298 99.2854L392.041 100.541C391.783 100.401 391.445 100.331 391.027 100.331C390.684 100.331 390.346 100.433 390.013 100.637C389.691 100.83 389.423 101.131 389.209 101.538C389.005 101.935 388.903 102.418 388.903 102.987V107.332H387.615V99.2854H388.661L388.838 100.605C389.289 99.618 390.147 99.1245 391.413 99.1245ZM397.087 99.1245C398.3 99.1245 399.249 99.4946 399.936 100.235C400.633 100.975 400.982 102 400.982 103.309C400.982 104.618 400.633 105.642 399.936 106.383C399.249 107.123 398.3 107.493 397.087 107.493C395.875 107.493 394.92 107.123 394.223 106.383C393.536 105.642 393.193 104.618 393.193 103.309C393.193 102 393.536 100.975 394.223 100.235C394.92 99.4946 395.875 99.1245 397.087 99.1245ZM397.087 100.235C396.272 100.235 395.634 100.508 395.172 101.056C394.711 101.603 394.48 102.354 394.48 103.309C394.48 104.264 394.711 105.015 395.172 105.562C395.634 106.109 396.272 106.383 397.087 106.383C397.903 106.383 398.541 106.109 399.003 105.562C399.464 105.015 399.695 104.264 399.695 103.309C399.695 102.354 399.464 101.603 399.003 101.056C398.541 100.508 397.903 100.235 397.087 100.235ZM404.465 105.176C404.465 105.583 404.524 105.868 404.642 106.028C404.77 106.179 405.001 106.254 405.334 106.254C405.559 106.254 405.752 106.238 405.913 106.206C406.085 106.173 406.283 106.114 406.508 106.028L406.299 107.268C405.945 107.418 405.548 107.493 405.108 107.493C404.454 107.493 403.966 107.316 403.644 106.962C403.333 106.608 403.177 106.066 403.177 105.336V95.5839H404.465V105.176Z" fill="white"/>
<path d="M309.024 390.18V407.883H306.878V394.901C306.878 394.525 306.896 393.837 306.932 392.836C306.324 393.426 305.617 393.944 304.813 394.391C304.008 394.82 303.186 395.133 302.345 395.33L301.782 393.372C302.211 393.318 302.792 393.122 303.525 392.782C304.258 392.424 304.965 392.013 305.644 391.548C306.324 391.065 306.824 390.609 307.146 390.18H309.024ZM319.704 408.151C317.558 408.151 315.922 407.373 314.795 405.818C313.669 404.262 313.106 402 313.106 399.032C313.106 396.063 313.669 393.801 314.795 392.245C315.922 390.69 317.558 389.912 319.704 389.912C321.85 389.912 323.486 390.69 324.612 392.245C325.739 393.801 326.302 396.063 326.302 399.032C326.302 402 325.739 404.262 324.612 405.818C323.486 407.373 321.85 408.151 319.704 408.151ZM319.704 406.22C321.117 406.22 322.198 405.612 322.949 404.396C323.7 403.162 324.076 401.374 324.076 399.032C324.076 396.689 323.7 394.91 322.949 393.694C322.198 392.46 321.117 391.843 319.704 391.843C318.291 391.843 317.209 392.46 316.458 393.694C315.707 394.91 315.332 396.689 315.332 399.032C315.332 401.374 315.707 403.162 316.458 404.396C317.209 405.612 318.291 406.22 319.704 406.22ZM332.983 389.912C334.288 389.912 335.325 390.359 336.094 391.253C336.863 392.129 337.247 393.309 337.247 394.794C337.247 396.278 336.863 397.467 336.094 398.361C335.325 399.237 334.288 399.675 332.983 399.675C331.677 399.675 330.64 399.237 329.871 398.361C329.102 397.467 328.718 396.278 328.718 394.794C328.718 393.309 329.102 392.129 329.871 391.253C330.64 390.359 331.677 389.912 332.983 389.912ZM343.738 390.18H345.777L334.512 407.883H332.473L343.738 390.18ZM332.983 391.602C332.232 391.602 331.651 391.879 331.239 392.433C330.828 392.988 330.622 393.774 330.622 394.794C330.622 395.813 330.828 396.6 331.239 397.154C331.651 397.708 332.232 397.985 332.983 397.985C333.734 397.985 334.315 397.708 334.726 397.154C335.137 396.6 335.343 395.813 335.343 394.794C335.343 393.774 335.137 392.988 334.726 392.433C334.315 391.879 333.734 391.602 332.983 391.602ZM345.267 398.388C346.573 398.388 347.61 398.835 348.379 399.729C349.148 400.605 349.532 401.785 349.532 403.269C349.532 404.754 349.148 405.943 348.379 406.837C347.61 407.713 346.573 408.151 345.267 408.151C343.962 408.151 342.925 407.713 342.156 406.837C341.387 405.943 341.003 404.754 341.003 403.269C341.003 401.785 341.387 400.605 342.156 399.729C342.925 398.835 343.962 398.388 345.267 398.388ZM345.267 400.078C344.516 400.078 343.935 400.355 343.524 400.909C343.113 401.463 342.907 402.25 342.907 403.269C342.907 404.289 343.113 405.075 343.524 405.63C343.935 406.184 344.516 406.461 345.267 406.461C346.018 406.461 346.599 406.184 347.011 405.63C347.422 405.075 347.628 404.289 347.628 403.269C347.628 402.25 347.422 401.463 347.011 400.909C346.599 400.355 346.018 400.078 345.267 400.078Z" fill="white"/>
<path d="M299.244 423.1C301.143 423.1 302.511 423.851 303.348 425.353L302.237 426.255C301.916 425.546 301.529 425.048 301.079 424.758C300.639 424.458 300.033 424.307 299.26 424.307C298.445 424.307 297.801 424.479 297.329 424.822C296.868 425.155 296.637 425.584 296.637 426.11C296.637 426.453 296.728 426.737 296.911 426.963C297.093 427.188 297.393 427.386 297.812 427.558C298.241 427.719 298.831 427.864 299.582 427.993C300.988 428.229 301.98 428.583 302.559 429.055C303.149 429.527 303.444 430.181 303.444 431.018C303.444 431.619 303.273 432.15 302.929 432.611C302.597 433.062 302.119 433.416 301.497 433.674C300.875 433.92 300.156 434.044 299.341 434.044C298.268 434.044 297.35 433.835 296.589 433.416C295.838 432.998 295.264 432.44 294.867 431.742L295.977 430.841C296.267 431.474 296.691 431.968 297.249 432.322C297.817 432.665 298.525 432.837 299.373 432.837C300.21 432.837 300.875 432.687 301.368 432.386C301.862 432.075 302.109 431.64 302.109 431.083C302.109 430.611 301.894 430.235 301.465 429.956C301.036 429.677 300.274 429.441 299.18 429.248C297.764 429.001 296.76 428.647 296.17 428.186C295.58 427.724 295.285 427.081 295.285 426.255C295.285 425.686 295.446 425.16 295.768 424.677C296.09 424.195 296.551 423.814 297.152 423.535C297.753 423.245 298.45 423.1 299.244 423.1ZM312.563 429.441C312.563 429.741 312.542 430.042 312.499 430.342H306.432C306.507 431.158 306.775 431.791 307.236 432.241C307.709 432.692 308.315 432.917 309.055 432.917C309.645 432.917 310.133 432.815 310.519 432.611C310.916 432.408 311.185 432.113 311.324 431.726L312.402 432.29C312.081 432.858 311.651 433.293 311.115 433.593C310.578 433.894 309.892 434.044 309.055 434.044C307.843 434.044 306.888 433.674 306.19 432.933C305.504 432.193 305.16 431.168 305.16 429.859C305.16 428.551 305.488 427.526 306.142 426.786C306.807 426.045 307.746 425.675 308.958 425.675C309.709 425.675 310.359 425.842 310.906 426.174C311.453 426.507 311.866 426.957 312.145 427.526C312.424 428.095 312.563 428.733 312.563 429.441ZM308.958 426.802C308.25 426.802 307.676 427.011 307.236 427.429C306.807 427.848 306.544 428.438 306.448 429.2H311.324C311.238 428.449 310.992 427.864 310.584 427.445C310.176 427.016 309.634 426.802 308.958 426.802ZM318.165 425.675C318.969 425.675 319.645 425.863 320.192 426.238C320.75 426.603 321.185 427.129 321.496 427.816L320.273 428.395C319.93 427.333 319.216 426.802 318.132 426.802C317.328 426.802 316.695 427.075 316.233 427.623C315.783 428.159 315.558 428.905 315.558 429.859C315.558 430.814 315.783 431.565 316.233 432.113C316.695 432.649 317.328 432.917 318.132 432.917C318.755 432.917 319.254 432.778 319.629 432.499C320.015 432.209 320.268 431.796 320.386 431.26L321.576 431.678C321.298 432.429 320.868 433.014 320.289 433.432C319.71 433.84 319.002 434.044 318.165 434.044C316.952 434.044 315.997 433.674 315.3 432.933C314.613 432.193 314.27 431.168 314.27 429.859C314.27 428.551 314.613 427.526 315.3 426.786C315.997 426.045 316.952 425.675 318.165 425.675ZM330.58 425.836V433.883H329.453L329.373 432.66C328.836 433.582 327.876 434.044 326.492 434.044C325.623 434.044 324.91 433.802 324.352 433.32C323.805 432.837 323.531 432.096 323.531 431.099V425.836H324.818V430.761C324.818 431.544 324.979 432.102 325.301 432.434C325.623 432.756 326.095 432.917 326.718 432.917C327.458 432.917 328.069 432.692 328.552 432.241C329.046 431.791 329.292 431.115 329.292 430.214V425.836H330.58ZM337.132 425.675C337.518 425.675 337.813 425.729 338.017 425.836L337.76 427.091C337.502 426.952 337.164 426.882 336.746 426.882C336.403 426.882 336.065 426.984 335.732 427.188C335.41 427.381 335.142 427.682 334.927 428.089C334.724 428.486 334.622 428.969 334.622 429.538V433.883H333.334V425.836H334.38L334.557 427.156C335.008 426.169 335.866 425.675 337.132 425.675ZM340.306 424.291C340.016 424.291 339.78 424.205 339.598 424.034C339.426 423.851 339.34 423.615 339.34 423.326C339.34 423.036 339.426 422.805 339.598 422.634C339.78 422.451 340.016 422.36 340.306 422.36C340.595 422.36 340.826 422.451 340.998 422.634C341.18 422.805 341.271 423.036 341.271 423.326C341.271 423.615 341.18 423.851 340.998 424.034C340.826 424.205 340.595 424.291 340.306 424.291ZM340.95 433.883H339.662V425.836H340.95V433.883ZM348.62 433.32C348.084 433.802 347.392 434.044 346.544 434.044C345.889 434.044 345.353 433.867 344.935 433.513C344.527 433.159 344.318 432.617 344.307 431.887V426.947H342.698V425.836H344.307V423.905L345.594 423.551V425.836H348.572V426.947H345.594V431.662C345.594 432.048 345.702 432.343 345.916 432.547C346.142 432.74 346.437 432.837 346.801 432.837C347.316 432.837 347.772 432.638 348.169 432.241L348.62 433.32ZM353.254 435.235C352.943 436.007 352.594 436.549 352.208 436.86C351.822 437.182 351.323 437.343 350.711 437.343C350.304 437.343 349.96 437.289 349.681 437.182C349.413 437.075 349.166 436.903 348.941 436.667L349.392 435.573C349.703 436.002 350.137 436.216 350.695 436.216C351.006 436.216 351.28 436.12 351.516 435.927C351.763 435.744 351.977 435.406 352.16 434.913L352.578 433.867L349.215 425.836H350.679L352.691 431.083L353.19 432.515L353.769 430.922L355.652 425.836H357.036L353.254 435.235Z" fill="white"/>
<path d="M66.2778 57.9863C67.9587 57.9863 69.3087 58.5138 70.328 59.5688C71.3472 60.6059 71.8568 61.9828 71.8568 63.6994C71.8568 65.5412 71.3204 66.9896 70.2475 68.0446C69.1746 69.0817 67.6905 69.6003 65.795 69.6003C64.2036 69.6003 62.9072 69.2605 61.9058 68.581C60.9223 67.8836 60.1624 66.8733 59.6259 65.5501L61.7181 64.4504C62.0221 65.4875 62.4691 66.2743 63.0592 66.8107C63.6671 67.3293 64.5523 67.5886 65.7146 67.5886C66.9305 67.5886 67.8872 67.2578 68.5845 66.5962C69.2819 65.9346 69.6306 65.0226 69.6306 63.8603C69.6306 62.6086 69.3087 61.652 68.665 60.9903C68.0213 60.3287 67.0914 59.9979 65.8755 59.9979C64.0337 59.9979 62.7194 60.5701 61.9326 61.7145H60.0283L61.1012 51.6294H71.0522V53.6411H62.9251L62.2277 59.2201L62.2009 59.4615H62.2277C63.1754 58.478 64.5255 57.9863 66.2778 57.9863ZM81.4868 69.6003C79.3411 69.6003 77.7049 68.8224 76.5784 67.2667C75.4519 65.711 74.8886 63.449 74.8886 60.4807C74.8886 57.5124 75.4519 55.2504 76.5784 53.6947C77.7049 52.139 79.3411 51.3612 81.4868 51.3612C83.6326 51.3612 85.2688 52.139 86.3953 53.6947C87.5218 55.2504 88.0851 57.5124 88.0851 60.4807C88.0851 63.449 87.5218 65.711 86.3953 67.2667C85.2688 68.8224 83.6326 69.6003 81.4868 69.6003ZM81.4868 67.6691C82.8995 67.6691 83.9813 67.0611 84.7323 65.8452C85.4833 64.6113 85.8588 62.8232 85.8588 60.4807C85.8588 58.1383 85.4833 56.359 84.7323 55.1431C83.9813 53.9093 82.8995 53.2924 81.4868 53.2924C80.0742 53.2924 78.9924 53.9093 78.2414 55.1431C77.4903 56.359 77.1148 58.1383 77.1148 60.4807C77.1148 62.8232 77.4903 64.6113 78.2414 65.8452C78.9924 67.0611 80.0742 67.6691 81.4868 67.6691ZM94.7657 51.3612C96.071 51.3612 97.1082 51.8082 97.8771 52.7023C98.646 53.5785 99.0304 54.7587 99.0304 56.2428C99.0304 57.727 98.646 58.9161 97.8771 59.8102C97.1082 60.6864 96.071 61.1245 94.7657 61.1245C93.4603 61.1245 92.4232 60.6864 91.6543 59.8102C90.8854 58.9161 90.501 57.727 90.501 56.2428C90.501 54.7587 90.8854 53.5785 91.6543 52.7023C92.4232 51.8082 93.4603 51.3612 94.7657 51.3612ZM105.521 51.6294H107.56L96.2946 69.332H94.2561L105.521 51.6294ZM94.7657 53.051C94.0147 53.051 93.4335 53.3281 93.0223 53.8825C92.611 54.4368 92.4053 55.2236 92.4053 56.2428C92.4053 57.2621 92.611 58.0488 93.0223 58.6032C93.4335 59.1575 94.0147 59.4347 94.7657 59.4347C95.5167 59.4347 96.0979 59.1575 96.5091 58.6032C96.9204 58.0488 97.126 57.2621 97.126 56.2428C97.126 55.2236 96.9204 54.4368 96.5091 53.8825C96.0979 53.3281 95.5167 53.051 94.7657 53.051ZM107.05 59.837C108.356 59.837 109.393 60.284 110.162 61.1781C110.931 62.0543 111.315 63.2345 111.315 64.7186C111.315 66.2028 110.931 67.3919 110.162 68.286C109.393 69.1622 108.356 69.6003 107.05 69.6003C105.745 69.6003 104.708 69.1622 103.939 68.286C103.17 67.3919 102.786 66.2028 102.786 64.7186C102.786 63.2345 103.17 62.0543 103.939 61.1781C104.708 60.284 105.745 59.837 107.05 59.837ZM107.05 61.5268C106.299 61.5268 105.718 61.8039 105.307 62.3583C104.896 62.9126 104.69 63.6994 104.69 64.7186C104.69 65.7379 104.896 66.5246 105.307 67.079C105.718 67.6333 106.299 67.9105 107.05 67.9105C107.801 67.9105 108.382 67.6333 108.794 67.079C109.205 66.5246 109.411 65.7379 109.411 64.7186C109.411 63.6994 109.205 62.9126 108.794 62.3583C108.382 61.8039 107.801 61.5268 107.05 61.5268Z" fill="white"/>
<path d="M44.1329 84.5495C46.0319 84.5495 47.3998 85.3005 48.2367 86.8026L47.1263 87.7038C46.8044 86.9957 46.4181 86.4968 45.9675 86.2071C45.5277 85.9067 44.9215 85.7565 44.149 85.7565C43.3336 85.7565 42.6899 85.9282 42.2178 86.2715C41.7565 86.6041 41.5258 87.0333 41.5258 87.559C41.5258 87.9023 41.617 88.1866 41.7994 88.4119C41.9818 88.6372 42.2822 88.8357 42.7006 89.0074C43.1298 89.1683 43.7198 89.3131 44.4709 89.4419C45.8763 89.6779 46.8688 90.032 47.4481 90.504C48.0382 90.9761 48.3333 91.6306 48.3333 92.4674C48.3333 93.0682 48.1616 93.5993 47.8183 94.0607C47.4857 94.5113 47.0082 94.8653 46.386 95.1228C45.7637 95.3696 45.0449 95.493 44.2295 95.493C43.1566 95.493 42.2393 95.2838 41.4775 94.8653C40.7265 94.4469 40.1525 93.889 39.7555 93.1916L40.866 92.2904C41.1556 92.9234 41.5794 93.4169 42.1373 93.771C42.706 94.1143 43.4141 94.286 44.2616 94.286C45.0985 94.286 45.7637 94.1358 46.2572 93.8354C46.7507 93.5242 46.9975 93.0897 46.9975 92.5318C46.9975 92.0597 46.7829 91.6842 46.3538 91.4053C45.9246 91.1263 45.1629 90.8903 44.0685 90.6972C42.6523 90.4504 41.6492 90.0963 41.0591 89.635C40.469 89.1737 40.174 88.5299 40.174 87.7038C40.174 87.1352 40.3349 86.6095 40.6567 86.1267C40.9786 85.6439 41.44 85.263 42.0408 84.984C42.6416 84.6944 43.339 84.5495 44.1329 84.5495ZM51.1132 85.7404C50.8236 85.7404 50.5875 85.6546 50.4051 85.4829C50.2335 85.3005 50.1476 85.0645 50.1476 84.7748C50.1476 84.4852 50.2335 84.2545 50.4051 84.0828C50.5875 83.9004 50.8236 83.8092 51.1132 83.8092C51.4029 83.8092 51.6336 83.9004 51.8053 84.0828C51.9876 84.2545 52.0788 84.4852 52.0788 84.7748C52.0788 85.0645 51.9876 85.3005 51.8053 85.4829C51.6336 85.6546 51.4029 85.7404 51.1132 85.7404ZM51.757 95.332H50.4695V87.2854H51.757V95.332ZM58.9929 94.3021C59.7547 94.3021 60.3501 94.4737 60.7793 94.817C61.2084 95.1604 61.423 95.6271 61.423 96.2172C61.423 96.7321 61.246 97.1828 60.8919 97.569C60.5379 97.966 60.0551 98.2664 59.4435 98.4702C58.8427 98.6848 58.1775 98.7921 57.448 98.7921C56.2249 98.7921 55.3022 98.5936 54.6799 98.1966C54.0576 97.8104 53.7465 97.3008 53.7465 96.6678C53.7465 96.303 53.8699 95.9811 54.1167 95.7022C54.3741 95.4232 54.7228 95.2247 55.1627 95.1067C54.8301 94.9458 54.5619 94.7419 54.3581 94.4952C54.1649 94.2484 54.0684 93.9587 54.0684 93.6261C54.0684 93.2292 54.1757 92.9019 54.3902 92.6445C54.6048 92.3762 54.8999 92.1777 55.2754 92.049C54.8891 91.813 54.5941 91.5072 54.3902 91.1317C54.1971 90.7454 54.1006 90.3163 54.1006 89.8442C54.1006 89.3185 54.24 88.8518 54.519 88.4441C54.7979 88.0257 55.1895 87.7038 55.6938 87.4785C56.1981 87.2425 56.7667 87.1245 57.3997 87.1245C58.0005 87.1245 58.5477 87.2317 59.0412 87.4463C59.3416 86.352 60.098 85.8048 61.3104 85.8048L61.6 86.9313C60.5486 86.9313 59.9102 87.2264 59.6849 87.8165C60.0068 88.0632 60.2536 88.3583 60.4252 88.7016C60.6076 89.0449 60.6988 89.4258 60.6988 89.8442C60.6988 90.3699 60.5593 90.842 60.2804 91.2604C60.0014 91.6681 59.6098 91.99 59.1056 92.226C58.6013 92.4513 58.0327 92.564 57.3997 92.564C56.9276 92.564 56.5146 92.5157 56.1605 92.4191C55.8386 92.4942 55.608 92.6123 55.4685 92.7732C55.329 92.9341 55.2593 93.1541 55.2593 93.433C55.2593 93.712 55.3558 93.9266 55.549 94.0768C55.7421 94.227 55.9996 94.3021 56.3214 94.3021H58.9929ZM57.3997 88.1705C56.8418 88.1705 56.3751 88.3261 55.9996 88.6372C55.6241 88.9484 55.4363 89.3507 55.4363 89.8442C55.4363 90.3377 55.6241 90.7401 55.9996 91.0512C56.3751 91.3624 56.8418 91.5179 57.3997 91.5179C57.9576 91.5179 58.4243 91.3624 58.7998 91.0512C59.1753 90.7401 59.3631 90.3377 59.3631 89.8442C59.3631 89.3507 59.1753 88.9484 58.7998 88.6372C58.4243 88.3261 57.9576 88.1705 57.3997 88.1705ZM57.5928 97.7138C58.4082 97.7138 59.0519 97.5797 59.524 97.3115C59.9961 97.054 60.2321 96.7375 60.2321 96.362C60.2321 96.0509 60.1087 95.8148 59.862 95.6539C59.6259 95.493 59.2182 95.4125 58.6389 95.4125H56.4824C55.9888 95.4125 55.608 95.4983 55.3397 95.67C55.0715 95.8524 54.9374 96.0991 54.9374 96.4103C54.9374 96.818 55.1627 97.1345 55.6133 97.3598C56.0639 97.5958 56.7238 97.7138 57.5928 97.7138ZM67.0046 87.1245C67.9166 87.1245 68.6676 87.3873 69.2577 87.913C69.8478 88.4387 70.1428 89.1951 70.1428 90.1822V95.332H68.8553V90.6328C68.8553 89.7959 68.673 89.1898 68.3082 88.8142C67.9541 88.4387 67.4767 88.251 66.8759 88.251C66.4467 88.251 66.0444 88.3475 65.6689 88.5407C65.2934 88.7231 64.9822 89.0288 64.7355 89.458C64.4994 89.8764 64.3814 90.4075 64.3814 91.0512V95.332H63.0939V87.2854H64.2205L64.3009 88.5407C64.5692 88.0579 64.9393 87.7038 65.4114 87.4785C65.8834 87.2425 66.4145 87.1245 67.0046 87.1245ZM73.4603 85.7404C73.1706 85.7404 72.9346 85.6546 72.7522 85.4829C72.5805 85.3005 72.4947 85.0645 72.4947 84.7748C72.4947 84.4852 72.5805 84.2545 72.7522 84.0828C72.9346 83.9004 73.1706 83.8092 73.4603 83.8092C73.75 83.8092 73.9806 83.9004 74.1523 84.0828C74.3347 84.2545 74.4259 84.4852 74.4259 84.7748C74.4259 85.0645 74.3347 85.3005 74.1523 85.4829C73.9806 85.6546 73.75 85.7404 73.4603 85.7404ZM74.104 95.332H72.8166V87.2854H74.104V95.332ZM78.765 87.2854H81.4526V88.3958H78.765V95.332H77.4776V88.3958H75.8682V87.2854H77.4776V85.9335C77.4776 85.1933 77.7029 84.6032 78.1535 84.1633C78.6041 83.7234 79.2586 83.5035 80.1169 83.5035C80.4066 83.5035 80.6694 83.5356 80.9054 83.6C81.1522 83.6644 81.3453 83.7556 81.4848 83.8736L81.1468 84.9197C80.8894 84.7587 80.5836 84.6783 80.2295 84.6783C79.2532 84.6783 78.765 85.1396 78.765 86.0623V87.2854ZM83.8183 85.7404C83.5287 85.7404 83.2926 85.6546 83.1102 85.4829C82.9386 85.3005 82.8527 85.0645 82.8527 84.7748C82.8527 84.4852 82.9386 84.2545 83.1102 84.0828C83.2926 83.9004 83.5287 83.8092 83.8183 83.8092C84.108 83.8092 84.3387 83.9004 84.5103 84.0828C84.6927 84.2545 84.7839 84.4852 84.7839 84.7748C84.7839 85.0645 84.6927 85.3005 84.5103 85.4829C84.3387 85.6546 84.108 85.7404 83.8183 85.7404ZM84.4621 95.332H83.1746V87.2854H84.4621V95.332ZM90.6126 87.1245C91.4173 87.1245 92.0932 87.3122 92.6403 87.6877C93.1983 88.0525 93.6328 88.5782 93.9439 89.2649L92.7208 89.8442C92.3775 88.7821 91.664 88.251 90.5804 88.251C89.7757 88.251 89.1427 88.5246 88.6814 89.0717C88.2308 89.6082 88.0055 90.3538 88.0055 91.3087C88.0055 92.2636 88.2308 93.0146 88.6814 93.5618C89.1427 94.0982 89.7757 94.3664 90.5804 94.3664C91.2027 94.3664 91.7016 94.227 92.0771 93.948C92.4633 93.6583 92.7155 93.2453 92.8335 92.7088L94.0244 93.1273C93.7454 93.8783 93.3163 94.463 92.7369 94.8814C92.1576 95.2891 91.4494 95.493 90.6126 95.493C89.4002 95.493 88.4454 95.1228 87.748 94.3825C87.0613 93.6422 86.718 92.6176 86.718 91.3087C86.718 89.9998 87.0613 88.9752 87.748 88.2349C88.4454 87.4946 89.4002 87.1245 90.6126 87.1245ZM102.658 94.3986C102.872 94.3986 103.087 94.3718 103.301 94.3182L103.221 95.332C102.921 95.4393 102.599 95.493 102.255 95.493C101.837 95.493 101.504 95.4018 101.258 95.2194C101.022 95.037 100.871 94.7312 100.807 94.3021C100.56 94.6776 100.195 94.9726 99.7126 95.1872C99.2405 95.391 98.7416 95.493 98.2159 95.493C97.422 95.493 96.7675 95.3106 96.2525 94.9458C95.7376 94.5703 95.4801 94.0338 95.4801 93.3365C95.4801 92.7249 95.7483 92.1992 96.2847 91.7593C96.8212 91.3087 97.599 90.9976 98.6183 90.8259L100.759 90.4719V90.0212C100.759 89.4848 100.592 89.0556 100.26 88.7338C99.9272 88.4119 99.4658 88.251 98.8757 88.251C98.3393 88.251 97.8726 88.3797 97.4756 88.6372C97.0894 88.8947 96.789 89.2756 96.5744 89.7798L95.6249 89.0878C95.8395 88.487 96.2364 88.0096 96.8158 87.6555C97.4059 87.3015 98.0925 87.1245 98.8757 87.1245C99.8306 87.1245 100.598 87.3551 101.177 87.8165C101.756 88.2778 102.046 88.9591 102.046 89.8603V93.8193C102.046 94.0124 102.094 94.1572 102.191 94.2538C102.288 94.3503 102.443 94.3986 102.658 94.3986ZM98.2803 94.3664C98.9562 94.3664 99.5356 94.2055 100.018 93.8836C100.512 93.5618 100.759 93.1433 100.759 92.6284V91.5179L98.9562 91.8559C98.2374 91.9846 97.7009 92.1724 97.3469 92.4191C96.9928 92.6552 96.8158 92.961 96.8158 93.3365C96.8158 93.6691 96.9445 93.9266 97.202 94.1089C97.4595 94.2806 97.8189 94.3664 98.2803 94.3664ZM108.844 87.1245C109.756 87.1245 110.507 87.3873 111.097 87.913C111.687 88.4387 111.982 89.1951 111.982 90.1822V95.332H110.695V90.6328C110.695 89.7959 110.512 89.1898 110.148 88.8142C109.794 88.4387 109.316 88.251 108.715 88.251C108.286 88.251 107.884 88.3475 107.508 88.5407C107.133 88.7231 106.822 89.0288 106.575 89.458C106.339 89.8764 106.221 90.4075 106.221 91.0512V95.332H104.933V87.2854H106.06L106.14 88.5407C106.409 88.0579 106.779 87.7038 107.251 87.4785C107.723 87.2425 108.254 87.1245 108.844 87.1245ZM118.052 87.1245C118.856 87.1245 119.532 87.3122 120.079 87.6877C120.637 88.0525 121.072 88.5782 121.383 89.2649L120.16 89.8442C119.817 88.7821 119.103 88.251 118.019 88.251C117.215 88.251 116.582 88.5246 116.12 89.0717C115.67 89.6082 115.445 90.3538 115.445 91.3087C115.445 92.2636 115.67 93.0146 116.12 93.5618C116.582 94.0982 117.215 94.3664 118.019 94.3664C118.642 94.3664 119.141 94.227 119.516 93.948C119.902 93.6583 120.155 93.2453 120.273 92.7088L121.463 93.1273C121.184 93.8783 120.755 94.463 120.176 94.8814C119.597 95.2891 118.889 95.493 118.052 95.493C116.839 95.493 115.884 95.1228 115.187 94.3825C114.5 93.6422 114.157 92.6176 114.157 91.3087C114.157 89.9998 114.5 88.9752 115.187 88.2349C115.884 87.4946 116.839 87.1245 118.052 87.1245ZM130.403 90.8903C130.403 91.1907 130.381 91.4911 130.338 91.7915H124.271C124.346 92.6069 124.614 93.2399 125.076 93.6905C125.548 94.1411 126.154 94.3664 126.894 94.3664C127.484 94.3664 127.972 94.2645 128.359 94.0607C128.756 93.8568 129.024 93.5618 129.163 93.1755L130.242 93.7388C129.92 94.3074 129.491 94.7419 128.954 95.0424C128.418 95.3428 127.731 95.493 126.894 95.493C125.682 95.493 124.727 95.1228 124.03 94.3825C123.343 93.6422 123 92.6176 123 91.3087C123 89.9998 123.327 88.9752 123.981 88.2349C124.646 87.4946 125.585 87.1245 126.798 87.1245C127.549 87.1245 128.198 87.2907 128.745 87.6233C129.292 87.9559 129.705 88.4066 129.984 88.9752C130.263 89.5438 130.403 90.1822 130.403 90.8903ZM126.798 88.251C126.09 88.251 125.516 88.4602 125.076 88.8786C124.646 89.297 124.384 89.8871 124.287 90.6489H129.163C129.077 89.8979 128.831 89.3131 128.423 88.8947C128.015 88.4656 127.474 88.251 126.798 88.251Z" fill="white"/>
<mask id="mask0_807_2661" style="mask-type:alpha" maskUnits="userSpaceOnUse" x="79" y="79" width="302" height="302">
<path fill-rule="evenodd" clip-rule="evenodd" d="M225.269 79.1851L225.27 230L225.269 380.814C144.132 378.315 79.125 311.75 79.125 230C79.125 148.25 144.132 81.6842 225.269 79.1851ZM231.975 79.125L231.976 228.91L320.524 350.721C357.17 323.193 380.874 279.364 380.874 230C380.874 147.326 314.39 80.1824 231.975 79.125ZM315.075 354.628L231.976 240.314L231.975 380.874C262.781 380.479 291.361 370.85 315.075 354.628Z" fill="#D9D9D9"/>
</mask>
<g mask="url(#mask0_807_2661)">
<path d="M230 380.859C189.985 380.859 151.61 364.963 123.315 336.668C95.0207 308.374 79.125 269.998 79.125 229.984C79.125 189.97 95.0207 151.594 123.315 123.3C151.61 95.005 189.985 79.1094 230 79.1094L230 229.984L230 380.859Z" fill="url(#paint0_linear_807_2661)"/>
<path d="M316.538 353.573C290.438 371.848 259.223 381.392 227.367 380.836L230 229.984L316.538 353.573Z" fill="url(#paint1_linear_807_2661)"/>
<path d="M230 79.1094C261.861 79.1094 292.905 89.1961 318.681 107.924C344.458 126.652 363.644 153.059 373.49 183.361C383.336 213.663 383.336 246.305 373.49 276.607C363.644 306.909 344.458 333.316 318.681 352.044L230 229.984L230 79.1094Z" fill="url(#paint2_linear_807_2661)"/>
</g>
<defs>
<linearGradient id="paint0_linear_807_2661" x1="380.933" y1="230.655" x2="380.933" y2="79.1094" gradientUnits="userSpaceOnUse">
<stop stop-color="#F990FF"/>
<stop offset="1" stop-color="#F88AFF"/>
</linearGradient>
<linearGradient id="paint1_linear_807_2661" x1="79.125" y1="79.1094" x2="79.125" y2="387.61" gradientUnits="userSpaceOnUse">
<stop stop-color="#E75CEF"/>
<stop offset="1" stop-color="#E382FF"/>
</linearGradient>
<linearGradient id="paint2_linear_807_2661" x1="79.125" y1="238.663" x2="153.543" y2="427.621" gradientUnits="userSpaceOnUse">
<stop stop-color="#C235C5"/>
<stop offset="1" stop-color="#F961FD"/>
</linearGradient>
</defs>
</svg>
