<svg width="460" height="460" viewBox="0 0 460 460" fill="none" xmlns="http://www.w3.org/2000/svg">
<path d="M8.9581 73.5331C9.78932 73.5331 10.468 73.7067 10.9941 74.0539C11.5201 74.4011 11.9463 74.9588 12.2725 75.7269L11.1045 76.2792C10.7678 75.2376 10.0261 74.7168 8.87919 74.7168C8.33206 74.7168 7.8428 74.9114 7.41141 75.3007C6.99054 75.69 6.6591 76.2214 6.4171 76.8948C6.18563 77.5682 6.06989 78.3152 6.06989 79.1359V79.42H6.13302C6.29084 78.7992 6.64858 78.3257 7.20623 77.9996C7.76389 77.6734 8.35836 77.5103 8.98967 77.5103C10.0524 77.5103 10.8994 77.8154 11.5307 78.4257C12.1725 79.0359 12.4934 79.8566 12.4934 80.8878C12.4934 81.9189 12.1672 82.7396 11.5149 83.3499C10.8731 83.9601 10.005 84.2652 8.91076 84.2652C8.05849 84.2652 7.32723 84.039 6.71697 83.5866C6.11723 83.1236 5.65954 82.4923 5.34389 81.6927C5.03876 80.8825 4.88619 79.9513 4.88619 78.8992C4.88619 77.7628 5.0598 76.7948 5.40702 75.9952C5.76476 75.185 6.24876 74.5747 6.85902 74.1644C7.4798 73.7435 8.17949 73.5331 8.9581 73.5331ZM8.89497 78.7256C8.22158 78.7256 7.67445 78.9255 7.25358 79.3253C6.83271 79.7251 6.62228 80.2407 6.62228 80.872C6.62228 81.5243 6.82745 82.0504 7.2378 82.4502C7.65867 82.8501 8.21106 83.05 8.89497 83.05C9.61045 83.05 10.1681 82.8606 10.5679 82.4818C10.9678 82.0925 11.1677 81.5559 11.1677 80.872C11.1677 80.2091 10.9678 79.6883 10.5679 79.3095C10.1681 78.9202 9.61045 78.7256 8.89497 78.7256ZM18.1935 84.2652C16.9309 84.2652 15.9682 83.8076 15.3053 82.8922C14.6424 81.9768 14.311 80.6458 14.311 78.8992C14.311 77.1526 14.6424 75.8216 15.3053 74.9062C15.9682 73.9908 16.9309 73.5331 18.1935 73.5331C19.4561 73.5331 20.4189 73.9908 21.0817 74.9062C21.7446 75.8216 22.076 77.1526 22.076 78.8992C22.076 80.6458 21.7446 81.9768 21.0817 82.8922C20.4189 83.8076 19.4561 84.2652 18.1935 84.2652ZM18.1935 83.1289C19.0247 83.1289 19.6613 82.7712 20.1032 82.0557C20.5451 81.3297 20.7661 80.2775 20.7661 78.8992C20.7661 77.5208 20.5451 76.4739 20.1032 75.7584C19.6613 75.0324 19.0247 74.6694 18.1935 74.6694C17.3623 74.6694 16.7257 75.0324 16.2838 75.7584C15.8419 76.4739 15.621 77.5208 15.621 78.8992C15.621 80.2775 15.8419 81.3297 16.2838 82.0557C16.7257 82.7712 17.3623 83.1289 18.1935 83.1289ZM26.007 73.5331C26.7751 73.5331 27.3854 73.7961 27.8378 74.3222C28.2902 74.8378 28.5165 75.5322 28.5165 76.4055C28.5165 77.2788 28.2902 77.9785 27.8378 78.5046C27.3854 79.0202 26.7751 79.2779 26.007 79.2779C25.2389 79.2779 24.6287 79.0202 24.1762 78.5046C23.7238 77.9785 23.4976 77.2788 23.4976 76.4055C23.4976 75.5322 23.7238 74.8378 24.1762 74.3222C24.6287 73.7961 25.2389 73.5331 26.007 73.5331ZM32.3358 73.6909H33.5353L26.9066 84.1074H25.7071L32.3358 73.6909ZM26.007 74.5274C25.5651 74.5274 25.2231 74.6905 24.9811 75.0166C24.7391 75.3428 24.6181 75.8058 24.6181 76.4055C24.6181 77.0052 24.7391 77.4682 24.9811 77.7944C25.2231 78.1206 25.5651 78.2836 26.007 78.2836C26.4489 78.2836 26.7909 78.1206 27.0329 77.7944C27.2749 77.4682 27.3959 77.0052 27.3959 76.4055C27.3959 75.8058 27.2749 75.3428 27.0329 75.0166C26.7909 74.6905 26.4489 74.5274 26.007 74.5274ZM33.2355 78.5204C34.0035 78.5204 34.6138 78.7834 35.0662 79.3095C35.5187 79.8251 35.7449 80.5195 35.7449 81.3928C35.7449 82.2661 35.5187 82.9658 35.0662 83.4919C34.6138 84.0075 34.0035 84.2652 33.2355 84.2652C32.4674 84.2652 31.8571 84.0075 31.4047 83.4919C30.9522 82.9658 30.726 82.2661 30.726 81.3928C30.726 80.5195 30.9522 79.8251 31.4047 79.3095C31.8571 78.7834 32.4674 78.5204 33.2355 78.5204ZM33.2355 79.5147C32.7935 79.5147 32.4516 79.6778 32.2096 80.0039C31.9676 80.3301 31.8466 80.7931 31.8466 81.3928C31.8466 81.9926 31.9676 82.4555 32.2096 82.7817C32.4516 83.1079 32.7935 83.2709 33.2355 83.2709C33.6774 83.2709 34.0193 83.1079 34.2613 82.7817C34.5033 82.4555 34.6243 81.9926 34.6243 81.3928C34.6243 80.7931 34.5033 80.3301 34.2613 80.0039C34.0193 79.6778 33.6774 79.5147 33.2355 79.5147ZM48.2167 81.2192H43.4977L42.3929 84.1074H41.0672L45.1233 73.6909H46.6227L50.663 84.1074H49.3215L48.2167 81.2192ZM47.759 80.0355L46.3544 76.3424L45.8651 74.8904H45.8336L45.3759 76.295L43.9554 80.0355H47.759ZM56.5815 83.555C56.0554 84.0285 55.3768 84.2652 54.5455 84.2652C53.9037 84.2652 53.3776 84.0916 52.9673 83.7444C52.5675 83.3972 52.3623 82.8659 52.3518 82.1504V77.3051H50.7735V76.2161H52.3518V74.3222L53.6144 73.975V76.2161H56.5342V77.3051H53.6144V81.9294C53.6144 82.3082 53.7196 82.5976 53.93 82.7975C54.151 82.9869 54.4403 83.0816 54.7981 83.0816C55.3031 83.0816 55.7503 82.8869 56.1396 82.4976L56.5815 83.555ZM61.9396 83.555C61.4135 84.0285 60.7348 84.2652 59.9036 84.2652C59.2618 84.2652 58.7357 84.0916 58.3254 83.7444C57.9255 83.3972 57.7204 82.8659 57.7098 82.1504V77.3051H56.1316V76.2161H57.7098V74.3222L58.9724 73.975V76.2161H61.8922V77.3051H58.9724V81.9294C58.9724 82.3082 59.0777 82.5976 59.2881 82.7975C59.5091 82.9869 59.7984 83.0816 60.1561 83.0816C60.6612 83.0816 61.1084 82.8869 61.4977 82.4976L61.9396 83.555ZM69.9563 83.192C70.1667 83.192 70.3771 83.1657 70.5876 83.1131L70.5087 84.1074C70.2141 84.2126 69.8984 84.2652 69.5617 84.2652C69.1514 84.2652 68.8252 84.1758 68.5832 83.9969C68.3517 83.8181 68.2044 83.5182 68.1413 83.0973C67.8993 83.4656 67.5415 83.7549 67.0681 83.9654C66.6051 84.1653 66.1158 84.2652 65.6003 84.2652C64.8217 84.2652 64.1798 84.0864 63.6748 83.7286C63.1698 83.3604 62.9172 82.8343 62.9172 82.1504C62.9172 81.5506 63.1803 81.0351 63.7064 80.6037C64.2325 80.1618 64.9953 79.8566 65.9948 79.6883L68.0939 79.3411V78.8992C68.0939 78.3731 67.9308 77.9522 67.6047 77.6366C67.2785 77.3209 66.8261 77.1631 66.2474 77.1631C65.7213 77.1631 65.2636 77.2893 64.8743 77.5419C64.4955 77.7944 64.2009 78.1679 63.9905 78.6624L63.0593 77.9838C63.2697 77.3946 63.659 76.9263 64.2272 76.5791C64.8059 76.2319 65.4793 76.0583 66.2474 76.0583C67.1838 76.0583 67.9361 76.2845 68.5043 76.7369C69.0725 77.1894 69.3565 77.8575 69.3565 78.7413V82.6239C69.3565 82.8132 69.4039 82.9553 69.4986 83.05C69.5933 83.1447 69.7458 83.192 69.9563 83.192ZM65.6634 83.1605C66.3263 83.1605 66.8945 83.0026 67.3679 82.687C67.8519 82.3713 68.0939 81.961 68.0939 81.4559V80.3669L66.3263 80.6984C65.6213 80.8246 65.0952 81.0088 64.748 81.2508C64.4008 81.4822 64.2272 81.7821 64.2272 82.1504C64.2272 82.4766 64.3535 82.7291 64.606 82.9079C64.8585 83.0763 65.211 83.1605 65.6634 83.1605ZM72.8193 74.701C72.5353 74.701 72.3038 74.6168 72.1249 74.4485C71.9566 74.2696 71.8724 74.0381 71.8724 73.754C71.8724 73.4699 71.9566 73.2437 72.1249 73.0754C72.3038 72.8965 72.5353 72.8071 72.8193 72.8071C73.1034 72.8071 73.3297 72.8965 73.498 73.0754C73.6769 73.2437 73.7663 73.4699 73.7663 73.754C73.7663 74.0381 73.6769 74.2696 73.498 74.4485C73.3297 74.6168 73.1034 74.701 72.8193 74.701ZM73.4507 84.1074H72.188V76.2161H73.4507V84.1074ZM79.9787 76.0583C80.8731 76.0583 81.6096 76.3161 82.1883 76.8316C82.767 77.3472 83.0563 78.089 83.0563 79.057V84.1074H81.7937V79.4989C81.7937 78.6782 81.6149 78.0837 81.2571 77.7155C80.9099 77.3472 80.4417 77.1631 79.8525 77.1631C79.4316 77.1631 79.037 77.2578 78.6688 77.4472C78.3005 77.626 77.9954 77.9259 77.7534 78.3468C77.5219 78.7571 77.4062 79.2779 77.4062 79.9092V84.1074H76.1436V76.2161H77.2483L77.3273 77.4472C77.5903 76.9737 77.9533 76.6265 78.4163 76.4055C78.8792 76.174 79.4 76.0583 79.9787 76.0583ZM94.8482 76.0583C95.3743 76.0583 95.8635 76.1688 96.3159 76.3897C96.7789 76.6002 97.1524 76.9316 97.4365 77.384C97.7206 77.8365 97.8626 78.3941 97.8626 79.057V84.1074H96.6V79.1832C96.6 78.4993 96.4264 77.9943 96.0792 77.6681C95.7425 77.3314 95.2953 77.1631 94.7377 77.1631C94.3168 77.1631 93.9275 77.2683 93.5698 77.4787C93.2226 77.6786 92.9385 77.9785 92.7175 78.3783C92.5071 78.7676 92.4019 79.2359 92.4019 79.783V84.1074H91.1393V79.1832C91.1393 78.4993 90.9656 77.9943 90.6184 77.6681C90.2817 77.3314 89.8346 77.1631 89.2769 77.1631C88.8981 77.1631 88.5299 77.263 88.1721 77.4629C87.8144 77.6523 87.5198 77.9522 87.2883 78.3626C87.0568 78.7729 86.9411 79.2832 86.9411 79.8935V84.1074H85.6785V76.2161H86.7833L86.8622 77.4472C87.1357 76.9842 87.4935 76.637 87.9354 76.4055C88.3878 76.174 88.8718 76.0583 89.3874 76.0583C89.9661 76.0583 90.4974 76.1898 90.9814 76.4529C91.4759 76.7159 91.8495 77.0999 92.102 77.605C92.3335 77.0999 92.7123 76.7159 93.2383 76.4529C93.7644 76.1898 94.301 76.0583 94.8482 76.0583ZM107.255 79.7514C107.255 80.046 107.234 80.3406 107.192 80.6352H101.242C101.316 81.4349 101.579 82.0557 102.031 82.4976C102.494 82.9395 103.089 83.1605 103.815 83.1605C104.393 83.1605 104.872 83.0605 105.251 82.8606C105.64 82.6607 105.903 82.3713 106.04 81.9926L107.097 82.5449C106.782 83.1026 106.361 83.5287 105.835 83.8233C105.309 84.1179 104.635 84.2652 103.815 84.2652C102.626 84.2652 101.689 83.9022 101.005 83.1762C100.332 82.4502 99.9953 81.4454 99.9953 80.1618C99.9953 78.8781 100.316 77.8733 100.958 77.1473C101.61 76.4213 102.531 76.0583 103.72 76.0583C104.456 76.0583 105.093 76.2214 105.63 76.5476C106.166 76.8737 106.571 77.3156 106.845 77.8733C107.118 78.4309 107.255 79.057 107.255 79.7514ZM103.72 77.1631C103.026 77.1631 102.463 77.3682 102.031 77.7786C101.61 78.1889 101.353 78.7676 101.258 79.5147H106.04C105.956 78.7782 105.714 78.2047 105.314 77.7944C104.914 77.3735 104.383 77.1631 103.72 77.1631ZM113.254 76.0583C114.148 76.0583 114.884 76.3161 115.463 76.8316C116.042 77.3472 116.331 78.089 116.331 79.057V84.1074H115.069V79.4989C115.069 78.6782 114.89 78.0837 114.532 77.7155C114.185 77.3472 113.716 77.1631 113.127 77.1631C112.706 77.1631 112.312 77.2578 111.944 77.4472C111.575 77.626 111.27 77.9259 111.028 78.3468C110.797 78.7571 110.681 79.2779 110.681 79.9092V84.1074H109.418V76.2161H110.523L110.602 77.4472C110.865 76.9737 111.228 76.6265 111.691 76.4055C112.154 76.174 112.675 76.0583 113.254 76.0583ZM123.675 83.555C123.149 84.0285 122.47 84.2652 121.639 84.2652C120.997 84.2652 120.471 84.0916 120.061 83.7444C119.661 83.3972 119.456 82.8659 119.445 82.1504V77.3051H117.867V76.2161H119.445V74.3222L120.708 73.975V76.2161H123.628V77.3051H120.708V81.9294C120.708 82.3082 120.813 82.5976 121.023 82.7975C121.244 82.9869 121.534 83.0816 121.891 83.0816C122.396 83.0816 122.844 82.8869 123.233 82.4976L123.675 83.555ZM133.693 76.0583C134.882 76.0583 135.813 76.4213 136.487 77.1473C137.171 77.8733 137.512 78.8781 137.512 80.1618C137.512 81.4454 137.171 82.4502 136.487 83.1762C135.813 83.9022 134.882 84.2652 133.693 84.2652C132.504 84.2652 131.568 83.9022 130.884 83.1762C130.21 82.4502 129.874 81.4454 129.874 80.1618C129.874 78.8781 130.21 77.8733 130.884 77.1473C131.568 76.4213 132.504 76.0583 133.693 76.0583ZM133.693 77.1473C132.893 77.1473 132.267 77.4156 131.815 77.9522C131.363 78.4888 131.136 79.2253 131.136 80.1618C131.136 81.0982 131.363 81.8347 131.815 82.3713C132.267 82.9079 132.893 83.1762 133.693 83.1762C134.493 83.1762 135.119 82.9079 135.571 82.3713C136.024 81.8347 136.25 81.0982 136.25 80.1618C136.25 79.2253 136.024 78.4888 135.571 77.9522C135.119 77.4156 134.493 77.1473 133.693 77.1473ZM141.468 76.2161H144.103V77.3051H141.468V84.1074H140.205V77.3051H138.627V76.2161H140.205V74.8904C140.205 74.1644 140.426 73.5857 140.868 73.1543C141.31 72.7229 141.952 72.5072 142.794 72.5072C143.078 72.5072 143.335 72.5388 143.567 72.6019C143.809 72.665 143.998 72.7545 144.135 72.8702L143.804 73.8961C143.551 73.7382 143.251 73.6593 142.904 73.6593C141.947 73.6593 141.468 74.1118 141.468 75.0166V76.2161ZM158.771 78.8518V84.1074H157.824L157.777 82.7028C157.472 83.2078 157.04 83.5971 156.483 83.8707C155.936 84.1337 155.273 84.2652 154.494 84.2652C153.516 84.2652 152.663 84.0496 151.937 83.6182C151.211 83.1762 150.648 82.5555 150.249 81.7558C149.859 80.9456 149.665 79.9934 149.665 78.8992C149.665 77.8154 149.865 76.8685 150.264 76.0583C150.675 75.2481 151.243 74.6273 151.969 74.1959C152.705 73.754 153.558 73.5331 154.526 73.5331C155.557 73.5331 156.404 73.7277 157.067 74.117C157.74 74.5063 158.282 75.1061 158.692 75.9162L157.54 76.5476C157.309 75.9583 156.93 75.5059 156.404 75.1902C155.888 74.8746 155.262 74.7168 154.526 74.7168C153.821 74.7168 153.2 74.8851 152.663 75.2218C152.137 75.5585 151.727 76.0425 151.432 76.6738C151.138 77.2946 150.99 78.0364 150.99 78.8992C150.99 80.2249 151.295 81.256 151.906 81.9926C152.516 82.7186 153.395 83.0816 154.541 83.0816C155.446 83.0816 156.183 82.8501 156.751 82.3871C157.33 81.9242 157.619 81.2613 157.619 80.3985V80.0355H154.305V78.8518H158.771ZM164.573 76.0583C165.762 76.0583 166.694 76.4213 167.367 77.1473C168.051 77.8733 168.393 78.8781 168.393 80.1618C168.393 81.4454 168.051 82.4502 167.367 83.1762C166.694 83.9022 165.762 84.2652 164.573 84.2652C163.384 84.2652 162.448 83.9022 161.764 83.1762C161.091 82.4502 160.754 81.4454 160.754 80.1618C160.754 78.8781 161.091 77.8733 161.764 77.1473C162.448 76.4213 163.384 76.0583 164.573 76.0583ZM164.573 77.1473C163.774 77.1473 163.148 77.4156 162.695 77.9522C162.243 78.4888 162.017 79.2253 162.017 80.1618C162.017 81.0982 162.243 81.8347 162.695 82.3713C163.148 82.9079 163.774 83.1762 164.573 83.1762C165.373 83.1762 165.999 82.9079 166.452 82.3713C166.904 81.8347 167.13 81.0982 167.13 80.1618C167.13 79.2253 166.904 78.4888 166.452 77.9522C165.999 77.4156 165.373 77.1473 164.573 77.1473ZM177.08 83.192C177.29 83.192 177.5 83.1657 177.711 83.1131L177.632 84.1074C177.337 84.2126 177.022 84.2652 176.685 84.2652C176.275 84.2652 175.948 84.1758 175.706 83.9969C175.475 83.8181 175.328 83.5182 175.265 83.0973C175.023 83.4656 174.665 83.7549 174.191 83.9654C173.728 84.1653 173.239 84.2652 172.724 84.2652C171.945 84.2652 171.303 84.0864 170.798 83.7286C170.293 83.3604 170.04 82.8343 170.04 82.1504C170.04 81.5506 170.304 81.0351 170.83 80.6037C171.356 80.1618 172.119 79.8566 173.118 79.6883L175.217 79.3411V78.8992C175.217 78.3731 175.054 77.9522 174.728 77.6366C174.402 77.3209 173.949 77.1631 173.371 77.1631C172.845 77.1631 172.387 77.2893 171.998 77.5419C171.619 77.7944 171.324 78.1679 171.114 78.6624L170.183 77.9838C170.393 77.3946 170.782 76.9263 171.35 76.5791C171.929 76.2319 172.603 76.0583 173.371 76.0583C174.307 76.0583 175.059 76.2845 175.628 76.7369C176.196 77.1894 176.48 77.8575 176.48 78.7413V82.6239C176.48 82.8132 176.527 82.9553 176.622 83.05C176.717 83.1447 176.869 83.192 177.08 83.192ZM172.787 83.1605C173.45 83.1605 174.018 83.0026 174.491 82.687C174.975 82.3713 175.217 81.961 175.217 81.4559V80.3669L173.45 80.6984C172.745 80.8246 172.218 81.0088 171.871 81.2508C171.524 81.4822 171.35 81.7821 171.35 82.1504C171.35 82.4766 171.477 82.7291 171.729 82.9079C171.982 83.0763 172.334 83.1605 172.787 83.1605ZM180.511 81.9926C180.511 82.3924 180.569 82.6712 180.684 82.829C180.811 82.9763 181.037 83.05 181.363 83.05C181.584 83.05 181.773 83.0342 181.931 83.0026C182.1 82.9711 182.294 82.9132 182.515 82.829L182.31 84.0443C181.963 84.1916 181.573 84.2652 181.142 84.2652C180.5 84.2652 180.021 84.0916 179.706 83.7444C179.401 83.3972 179.248 82.8659 179.248 82.1504V72.5861H180.511V81.9926ZM186.582 84.2652C185.824 84.2652 185.14 84.1179 184.53 83.8233C183.92 83.5182 183.473 83.071 183.188 82.4818L184.214 81.7716C184.393 82.2346 184.704 82.5818 185.146 82.8132C185.587 83.0447 186.108 83.1605 186.708 83.1605C187.329 83.1605 187.802 83.05 188.128 82.829C188.455 82.6081 188.618 82.3292 188.618 81.9926C188.618 81.6874 188.465 81.4454 188.16 81.2666C187.855 81.0772 187.318 80.9141 186.55 80.7773C185.793 80.6405 185.193 80.4774 184.751 80.288C184.309 80.0881 183.988 79.8409 183.788 79.5462C183.588 79.2411 183.488 78.8676 183.488 78.4257C183.488 77.9943 183.615 77.5997 183.867 77.242C184.12 76.8842 184.483 76.6002 184.956 76.3897C185.43 76.1688 185.977 76.0583 186.598 76.0583C187.439 76.0583 188.113 76.2161 188.618 76.5318C189.133 76.8369 189.502 77.3104 189.722 77.9522L188.649 78.5835C188.481 78.0785 188.223 77.7155 187.876 77.4945C187.539 77.2736 187.113 77.1631 186.598 77.1631C186.082 77.1631 185.645 77.2788 185.288 77.5103C184.93 77.7418 184.751 78.0101 184.751 78.3152C184.751 78.6624 184.904 78.9307 185.209 79.1201C185.524 79.3095 186.082 79.4726 186.882 79.6094C187.976 79.7882 188.749 80.0566 189.202 80.4143C189.654 80.772 189.88 81.2771 189.88 81.9294C189.88 82.3819 189.744 82.7869 189.47 83.1447C189.207 83.4919 188.823 83.7655 188.318 83.9654C187.823 84.1653 187.245 84.2652 186.582 84.2652Z" fill="white"/>
<path d="M257.379 81.377H255.533V84.1074H254.27V81.377H249.188V80.4459L253.939 73.6909H255.533V80.288H257.379V81.377ZM250.53 80.288H254.27V76.3897L254.333 74.7168H254.302C254.039 75.2534 253.692 75.8321 253.26 76.4529L250.53 80.288ZM262.814 84.2652C261.551 84.2652 260.588 83.8076 259.926 82.8922C259.263 81.9768 258.931 80.6458 258.931 78.8992C258.931 77.1526 259.263 75.8216 259.926 74.9062C260.588 73.9908 261.551 73.5331 262.814 73.5331C264.076 73.5331 265.039 73.9908 265.702 74.9062C266.365 75.8216 266.696 77.1526 266.696 78.8992C266.696 80.6458 266.365 81.9768 265.702 82.8922C265.039 83.8076 264.076 84.2652 262.814 84.2652ZM262.814 83.1289C263.645 83.1289 264.282 82.7712 264.723 82.0557C265.165 81.3297 265.386 80.2775 265.386 78.8992C265.386 77.5208 265.165 76.4739 264.723 75.7584C264.282 75.0324 263.645 74.6694 262.814 74.6694C261.983 74.6694 261.346 75.0324 260.904 75.7584C260.462 76.4739 260.241 77.5208 260.241 78.8992C260.241 80.2775 260.462 81.3297 260.904 82.0557C261.346 82.7712 261.983 83.1289 262.814 83.1289ZM270.627 73.5331C271.395 73.5331 272.006 73.7961 272.458 74.3222C272.911 74.8378 273.137 75.5322 273.137 76.4055C273.137 77.2788 272.911 77.9785 272.458 78.5046C272.006 79.0202 271.395 79.2779 270.627 79.2779C269.859 79.2779 269.249 79.0202 268.797 78.5046C268.344 77.9785 268.118 77.2788 268.118 76.4055C268.118 75.5322 268.344 74.8378 268.797 74.3222C269.249 73.7961 269.859 73.5331 270.627 73.5331ZM276.956 73.6909H278.156L271.527 84.1074H270.327L276.956 73.6909ZM270.627 74.5274C270.185 74.5274 269.843 74.6905 269.601 75.0166C269.359 75.3428 269.238 75.8058 269.238 76.4055C269.238 77.0052 269.359 77.4682 269.601 77.7944C269.843 78.1206 270.185 78.2836 270.627 78.2836C271.069 78.2836 271.411 78.1206 271.653 77.7944C271.895 77.4682 272.016 77.0052 272.016 76.4055C272.016 75.8058 271.895 75.3428 271.653 75.0166C271.411 74.6905 271.069 74.5274 270.627 74.5274ZM277.856 78.5204C278.624 78.5204 279.234 78.7834 279.687 79.3095C280.139 79.8251 280.365 80.5195 280.365 81.3928C280.365 82.2661 280.139 82.9658 279.687 83.4919C279.234 84.0075 278.624 84.2652 277.856 84.2652C277.088 84.2652 276.477 84.0075 276.025 83.4919C275.573 82.9658 275.346 82.2661 275.346 81.3928C275.346 80.5195 275.573 79.8251 276.025 79.3095C276.477 78.7834 277.088 78.5204 277.856 78.5204ZM277.856 79.5147C277.414 79.5147 277.072 79.6778 276.83 80.0039C276.588 80.3301 276.467 80.7931 276.467 81.3928C276.467 81.9926 276.588 82.4555 276.83 82.7817C277.072 83.1079 277.414 83.2709 277.856 83.2709C278.298 83.2709 278.64 83.1079 278.882 82.7817C279.124 82.4555 279.245 81.9926 279.245 81.3928C279.245 80.7931 279.124 80.3301 278.882 80.0039C278.64 79.6778 278.298 79.5147 277.856 79.5147ZM291.37 79.783H288.876V84.1074H287.614V73.6909H291.559C292.622 73.6909 293.474 73.9645 294.116 74.5116C294.758 75.0587 295.079 75.8005 295.079 76.7369C295.079 77.4735 294.874 78.0942 294.463 78.5993C294.053 79.1043 293.49 79.4516 292.774 79.6409L295.71 84.1074H294.211L291.37 79.783ZM288.876 78.5993H291.543C293.016 78.5993 293.753 77.9785 293.753 76.7369C293.753 75.4954 293.016 74.8746 291.543 74.8746H288.876V78.5993ZM304.145 79.7514C304.145 80.046 304.124 80.3406 304.082 80.6352H298.132C298.205 81.4349 298.468 82.0557 298.921 82.4976C299.384 82.9395 299.978 83.1605 300.704 83.1605C301.283 83.1605 301.762 83.0605 302.14 82.8606C302.53 82.6607 302.793 82.3713 302.93 81.9926L303.987 82.5449C303.671 83.1026 303.251 83.5287 302.724 83.8233C302.198 84.1179 301.525 84.2652 300.704 84.2652C299.515 84.2652 298.579 83.9022 297.895 83.1762C297.222 82.4502 296.885 81.4454 296.885 80.1618C296.885 78.8781 297.206 77.8733 297.848 77.1473C298.5 76.4213 299.421 76.0583 300.61 76.0583C301.346 76.0583 301.983 76.2214 302.519 76.5476C303.056 76.8737 303.461 77.3156 303.735 77.8733C304.008 78.4309 304.145 79.057 304.145 79.7514ZM300.61 77.1631C299.915 77.1631 299.352 77.3682 298.921 77.7786C298.5 78.1889 298.242 78.7676 298.147 79.5147H302.93C302.845 78.7782 302.603 78.2047 302.204 77.7944C301.804 77.3735 301.272 77.1631 300.61 77.1631ZM309.638 76.0583C310.427 76.0583 311.09 76.2424 311.627 76.6107C312.174 76.9684 312.6 77.484 312.905 78.1574L311.706 78.7256C311.369 77.6839 310.669 77.1631 309.607 77.1631C308.817 77.1631 308.197 77.4314 307.744 77.968C307.302 78.4941 307.081 79.2253 307.081 80.1618C307.081 81.0982 307.302 81.8347 307.744 82.3713C308.197 82.8974 308.817 83.1605 309.607 83.1605C310.217 83.1605 310.706 83.0237 311.074 82.7501C311.453 82.466 311.7 82.0609 311.816 81.5349L312.984 81.9452C312.71 82.6817 312.29 83.2552 311.721 83.6655C311.153 84.0653 310.459 84.2652 309.638 84.2652C308.449 84.2652 307.513 83.9022 306.829 83.1762C306.155 82.4502 305.819 81.4454 305.819 80.1618C305.819 78.8781 306.155 77.8733 306.829 77.1473C307.513 76.4213 308.449 76.0583 309.638 76.0583ZM318.31 76.0583C319.499 76.0583 320.43 76.4213 321.103 77.1473C321.787 77.8733 322.129 78.8781 322.129 80.1618C322.129 81.4454 321.787 82.4502 321.103 83.1762C320.43 83.9022 319.499 84.2652 318.31 84.2652C317.121 84.2652 316.184 83.9022 315.501 83.1762C314.827 82.4502 314.49 81.4454 314.49 80.1618C314.49 78.8781 314.827 77.8733 315.501 77.1473C316.184 76.4213 317.121 76.0583 318.31 76.0583ZM318.31 77.1473C317.51 77.1473 316.884 77.4156 316.432 77.9522C315.979 78.4888 315.753 79.2253 315.753 80.1618C315.753 81.0982 315.979 81.8347 316.432 82.3713C316.884 82.9079 317.51 83.1762 318.31 83.1762C319.11 83.1762 319.736 82.9079 320.188 82.3713C320.64 81.8347 320.867 81.0982 320.867 80.1618C320.867 79.2253 320.64 78.4888 320.188 77.9522C319.736 77.4156 319.11 77.1473 318.31 77.1473ZM328.748 83.0973C329.496 83.0973 330.079 83.2657 330.5 83.6024C330.921 83.9391 331.132 84.3968 331.132 84.9755C331.132 85.4805 330.958 85.9224 330.611 86.3012C330.264 86.6905 329.79 86.9851 329.19 87.185C328.601 87.3955 327.949 87.5007 327.233 87.5007C326.034 87.5007 325.129 87.306 324.519 86.9167C323.908 86.5379 323.603 86.0382 323.603 85.4174C323.603 85.0596 323.724 84.744 323.966 84.4704C324.219 84.1969 324.561 84.0022 324.992 83.8865C324.666 83.7286 324.403 83.5287 324.203 83.2867C324.014 83.0447 323.919 82.7606 323.919 82.4345C323.919 82.0452 324.024 81.7242 324.235 81.4717C324.445 81.2087 324.734 81.014 325.103 80.8878C324.724 80.6563 324.435 80.3564 324.235 79.9882C324.045 79.6094 323.951 79.1885 323.951 78.7256C323.951 78.21 324.087 77.7523 324.361 77.3525C324.634 76.9421 325.019 76.6265 325.513 76.4055C326.008 76.174 326.565 76.0583 327.186 76.0583C327.775 76.0583 328.312 76.1635 328.796 76.3739C329.09 75.3007 329.832 74.7641 331.021 74.7641L331.305 75.8689C330.274 75.8689 329.648 76.1582 329.427 76.7369C329.743 76.9789 329.985 77.2683 330.153 77.605C330.332 77.9417 330.421 78.3152 330.421 78.7256C330.421 79.2411 330.285 79.7041 330.011 80.1144C329.738 80.5142 329.353 80.8299 328.859 81.0614C328.364 81.2823 327.807 81.3928 327.186 81.3928C326.723 81.3928 326.318 81.3455 325.971 81.2508C325.655 81.3244 325.429 81.4402 325.292 81.598C325.155 81.7558 325.087 81.9715 325.087 82.2451C325.087 82.5186 325.182 82.7291 325.371 82.8764C325.56 83.0237 325.813 83.0973 326.129 83.0973H328.748ZM327.186 77.0842C326.639 77.0842 326.181 77.2367 325.813 77.5419C325.445 77.847 325.261 78.2416 325.261 78.7256C325.261 79.2096 325.445 79.6041 325.813 79.9092C326.181 80.2144 326.639 80.3669 327.186 80.3669C327.733 80.3669 328.191 80.2144 328.559 79.9092C328.927 79.6041 329.111 79.2096 329.111 78.7256C329.111 78.2416 328.927 77.847 328.559 77.5419C328.191 77.2367 327.733 77.0842 327.186 77.0842ZM327.375 86.4432C328.175 86.4432 328.806 86.3117 329.269 86.0487C329.732 85.7962 329.964 85.4858 329.964 85.1175C329.964 84.8124 329.843 84.5809 329.601 84.4231C329.369 84.2652 328.969 84.1863 328.401 84.1863H326.286C325.802 84.1863 325.429 84.2705 325.166 84.4389C324.903 84.6177 324.771 84.8597 324.771 85.1649C324.771 85.5647 324.992 85.8751 325.434 86.096C325.876 86.3275 326.523 86.4432 327.375 86.4432ZM336.606 76.0583C337.5 76.0583 338.236 76.3161 338.815 76.8316C339.394 77.3472 339.683 78.089 339.683 79.057V84.1074H338.421V79.4989C338.421 78.6782 338.242 78.0837 337.884 77.7155C337.537 77.3472 337.068 77.1631 336.479 77.1631C336.058 77.1631 335.664 77.2578 335.296 77.4472C334.927 77.626 334.622 77.9259 334.38 78.3468C334.149 78.7571 334.033 79.2779 334.033 79.9092V84.1074H332.77V76.2161H333.875L333.954 77.4472C334.217 76.9737 334.58 76.6265 335.043 76.4055C335.506 76.174 336.027 76.0583 336.606 76.0583ZM342.937 74.701C342.652 74.701 342.421 74.6168 342.242 74.4485C342.074 74.2696 341.99 74.0381 341.99 73.754C341.99 73.4699 342.074 73.2437 342.242 73.0754C342.421 72.8965 342.652 72.8071 342.937 72.8071C343.221 72.8071 343.447 72.8965 343.615 73.0754C343.794 73.2437 343.884 73.4699 343.884 73.754C343.884 74.0381 343.794 74.2696 343.615 74.4485C343.447 74.6168 343.221 74.701 342.937 74.701ZM343.568 84.1074H342.305V76.2161H343.568V84.1074ZM351.09 83.555C350.564 84.0285 349.885 84.2652 349.054 84.2652C348.412 84.2652 347.886 84.0916 347.476 83.7444C347.076 83.3972 346.871 82.8659 346.86 82.1504V77.3051H345.282V76.2161H346.86V74.3222L348.123 73.975V76.2161H351.043V77.3051H348.123V81.9294C348.123 82.3082 348.228 82.5976 348.439 82.7975C348.66 82.9869 348.949 83.0816 349.307 83.0816C349.812 83.0816 350.259 82.8869 350.648 82.4976L351.09 83.555ZM353.267 74.701C352.983 74.701 352.752 74.6168 352.573 74.4485C352.405 74.2696 352.32 74.0381 352.32 73.754C352.32 73.4699 352.405 73.2437 352.573 73.0754C352.752 72.8965 352.983 72.8071 353.267 72.8071C353.551 72.8071 353.778 72.8965 353.946 73.0754C354.125 73.2437 354.214 73.4699 354.214 73.754C354.214 74.0381 354.125 74.2696 353.946 74.4485C353.778 74.6168 353.551 74.701 353.267 74.701ZM353.899 84.1074H352.636V76.2161H353.899V84.1074ZM359.922 76.0583C361.111 76.0583 362.042 76.4213 362.715 77.1473C363.399 77.8733 363.741 78.8781 363.741 80.1618C363.741 81.4454 363.399 82.4502 362.715 83.1762C362.042 83.9022 361.111 84.2652 359.922 84.2652C358.733 84.2652 357.796 83.9022 357.112 83.1762C356.439 82.4502 356.102 81.4454 356.102 80.1618C356.102 78.8781 356.439 77.8733 357.112 77.1473C357.796 76.4213 358.733 76.0583 359.922 76.0583ZM359.922 77.1473C359.122 77.1473 358.496 77.4156 358.044 77.9522C357.591 78.4888 357.365 79.2253 357.365 80.1618C357.365 81.0982 357.591 81.8347 358.044 82.3713C358.496 82.9079 359.122 83.1762 359.922 83.1762C360.721 83.1762 361.347 82.9079 361.8 82.3713C362.252 81.8347 362.478 81.0982 362.478 80.1618C362.478 79.2253 362.252 78.4888 361.8 77.9522C361.347 77.4156 360.721 77.1473 359.922 77.1473ZM369.792 76.0583C370.686 76.0583 371.423 76.3161 372.002 76.8316C372.58 77.3472 372.87 78.089 372.87 79.057V84.1074H371.607V79.4989C371.607 78.6782 371.428 78.0837 371.071 77.7155C370.723 77.3472 370.255 77.1631 369.666 77.1631C369.245 77.1631 368.85 77.2578 368.482 77.4472C368.114 77.626 367.809 77.9259 367.567 78.3468C367.335 78.7571 367.22 79.2779 367.22 79.9092V84.1074H365.957V76.2161H367.062L367.141 77.4472C367.404 76.9737 367.767 76.6265 368.23 76.4055C368.693 76.174 369.213 76.0583 369.792 76.0583ZM382.219 76.2161H384.855V77.3051H382.219V84.1074H380.957V77.3051H379.379V76.2161H380.957V74.8904C380.957 74.1644 381.178 73.5857 381.62 73.1543C382.062 72.7229 382.703 72.5072 383.545 72.5072C383.829 72.5072 384.087 72.5388 384.319 72.6019C384.561 72.665 384.75 72.7545 384.887 72.8702L384.555 73.8961C384.303 73.7382 384.003 73.6593 383.656 73.6593C382.698 73.6593 382.219 74.1118 382.219 75.0166V76.2161ZM389.415 76.0583C390.604 76.0583 391.535 76.4213 392.208 77.1473C392.892 77.8733 393.234 78.8781 393.234 80.1618C393.234 81.4454 392.892 82.4502 392.208 83.1762C391.535 83.9022 390.604 84.2652 389.415 84.2652C388.226 84.2652 387.289 83.9022 386.606 83.1762C385.932 82.4502 385.595 81.4454 385.595 80.1618C385.595 78.8781 385.932 77.8733 386.606 77.1473C387.289 76.4213 388.226 76.0583 389.415 76.0583ZM389.415 77.1473C388.615 77.1473 387.989 77.4156 387.537 77.9522C387.084 78.4888 386.858 79.2253 386.858 80.1618C386.858 81.0982 387.084 81.8347 387.537 82.3713C387.989 82.9079 388.615 83.1762 389.415 83.1762C390.214 83.1762 390.841 82.9079 391.293 82.3713C391.745 81.8347 391.972 81.0982 391.972 80.1618C391.972 79.2253 391.745 78.4888 391.293 77.9522C390.841 77.4156 390.214 77.1473 389.415 77.1473ZM399.175 76.0583C399.554 76.0583 399.843 76.1109 400.043 76.2161L399.79 77.4472C399.538 77.3104 399.206 77.242 398.796 77.242C398.459 77.242 398.128 77.3419 397.802 77.5419C397.486 77.7312 397.223 78.0259 397.013 78.4257C396.813 78.815 396.713 79.2885 396.713 79.8461V84.1074H395.45V76.2161H396.476L396.65 77.5103C397.091 76.5423 397.933 76.0583 399.175 76.0583ZM414.209 82.9237V84.1074H406.665V73.6909H413.972V74.8746H407.928V78.2363H412.631V79.42H407.928V82.9237H414.209ZM417.888 76.2161H420.523V77.3051H417.888V84.1074H416.625V77.3051H415.047V76.2161H416.625V74.8904C416.625 74.1644 416.846 73.5857 417.288 73.1543C417.73 72.7229 418.372 72.5072 419.213 72.5072C419.497 72.5072 419.755 72.5388 419.987 72.6019C420.229 72.665 420.418 72.7545 420.555 72.8702L420.223 73.8961C419.971 73.7382 419.671 73.6593 419.324 73.6593C418.366 73.6593 417.888 74.1118 417.888 75.0166V76.2161ZM422.737 76.2161H425.373V77.3051H422.737V84.1074H421.474V77.3051H419.896V76.2161H421.474V74.8904C421.474 74.1644 421.695 73.5857 422.137 73.1543C422.579 72.7229 423.221 72.5072 424.063 72.5072C424.347 72.5072 424.605 72.5388 424.836 72.6019C425.078 72.665 425.267 72.7545 425.404 72.8702L425.073 73.8961C424.82 73.7382 424.52 73.6593 424.173 73.6593C423.216 73.6593 422.737 74.1118 422.737 75.0166V76.2161ZM429.932 76.0583C431.121 76.0583 432.053 76.4213 432.726 77.1473C433.41 77.8733 433.752 78.8781 433.752 80.1618C433.752 81.4454 433.41 82.4502 432.726 83.1762C432.053 83.9022 431.121 84.2652 429.932 84.2652C428.743 84.2652 427.807 83.9022 427.123 83.1762C426.45 82.4502 426.113 81.4454 426.113 80.1618C426.113 78.8781 426.45 77.8733 427.123 77.1473C427.807 76.4213 428.743 76.0583 429.932 76.0583ZM429.932 77.1473C429.133 77.1473 428.507 77.4156 428.054 77.9522C427.602 78.4888 427.376 79.2253 427.376 80.1618C427.376 81.0982 427.602 81.8347 428.054 82.3713C428.507 82.9079 429.133 83.1762 429.932 83.1762C430.732 83.1762 431.358 82.9079 431.811 82.3713C432.263 81.8347 432.489 81.0982 432.489 80.1618C432.489 79.2253 432.263 78.4888 431.811 77.9522C431.358 77.4156 430.732 77.1473 429.932 77.1473ZM439.692 76.0583C440.071 76.0583 440.36 76.1109 440.56 76.2161L440.308 77.4472C440.055 77.3104 439.724 77.242 439.314 77.242C438.977 77.242 438.645 77.3419 438.319 77.5419C438.004 77.7312 437.741 78.0259 437.53 78.4257C437.33 78.815 437.23 79.2885 437.23 79.8461V84.1074H435.968V76.2161H436.993L437.167 77.5103C437.609 76.5423 438.451 76.0583 439.692 76.0583ZM446.525 83.555C445.999 84.0285 445.32 84.2652 444.489 84.2652C443.847 84.2652 443.321 84.0916 442.911 83.7444C442.511 83.3972 442.306 82.8659 442.295 82.1504V77.3051H440.717V76.2161H442.295V74.3222L443.558 73.975V76.2161H446.478V77.3051H443.558V81.9294C443.558 82.3082 443.663 82.5976 443.874 82.7975C444.095 82.9869 444.384 83.0816 444.742 83.0816C445.247 83.0816 445.694 82.8869 446.083 82.4976L446.525 83.555ZM450.754 84.2652C449.996 84.2652 449.312 84.1179 448.702 83.8233C448.092 83.5182 447.645 83.071 447.361 82.4818L448.387 81.7716C448.565 82.2346 448.876 82.5818 449.318 82.8132C449.76 83.0447 450.28 83.1605 450.88 83.1605C451.501 83.1605 451.974 83.05 452.301 82.829C452.627 82.6081 452.79 82.3292 452.79 81.9926C452.79 81.6874 452.637 81.4454 452.332 81.2666C452.027 81.0772 451.49 80.9141 450.722 80.7773C449.965 80.6405 449.365 80.4774 448.923 80.288C448.481 80.0881 448.16 79.8409 447.96 79.5462C447.761 79.2411 447.661 78.8676 447.661 78.4257C447.661 77.9943 447.787 77.5997 448.039 77.242C448.292 76.8842 448.655 76.6002 449.128 76.3897C449.602 76.1688 450.149 76.0583 450.77 76.0583C451.611 76.0583 452.285 76.2161 452.79 76.5318C453.305 76.8369 453.674 77.3104 453.895 77.9522L452.821 78.5835C452.653 78.0785 452.395 77.7155 452.048 77.4945C451.711 77.2736 451.285 77.1631 450.77 77.1631C450.254 77.1631 449.818 77.2788 449.46 77.5103C449.102 77.7418 448.923 78.0101 448.923 78.3152C448.923 78.6624 449.076 78.9307 449.381 79.1201C449.697 79.3095 450.254 79.4726 451.054 79.6094C452.148 79.7882 452.921 80.0566 453.374 80.4143C453.826 80.772 454.053 81.2771 454.053 81.9294C454.053 82.3819 453.916 82.7869 453.642 83.1447C453.379 83.4919 452.995 83.7655 452.49 83.9654C451.996 84.1653 451.417 84.2652 450.754 84.2652Z" fill="white"/>
<mask id="mask0_807_2553" style="mask-type:alpha" maskUnits="userSpaceOnUse" x="3" y="95" width="220" height="53">
<path d="M3.76563 147.978L3.76562 95.3692L23.2308 95.3691L23.2308 147.978H3.76563Z" fill="#D9D9D9"/>
<path d="M25.8613 147.978L25.8613 95.3691L45.3265 95.3691L45.3265 147.978H25.8613Z" fill="#D9D9D9"/>
<path d="M47.9569 147.978V95.3691L67.4221 95.3691V147.978L47.9569 147.978Z" fill="#D9D9D9"/>
<path d="M70.0526 147.978V95.3691L89.5178 95.3691V147.978H70.0526Z" fill="#D9D9D9"/>
<path d="M92.1482 147.978V95.3691L111.613 95.3691V147.978H92.1482Z" fill="#D9D9D9"/>
<path d="M114.244 147.978V95.3691L133.709 95.3691V147.978H114.244Z" fill="#D9D9D9"/>
<path d="M136.34 147.978V95.3691L155.805 95.3691V147.978H136.34Z" fill="#D9D9D9"/>
<path d="M158.435 147.978V95.3691L177.9 95.3691V147.978L158.435 147.978Z" fill="#D9D9D9"/>
<path d="M180.531 147.978V95.3691L199.996 95.3691V147.978H180.531Z" fill="#D9D9D9"/>
<path d="M202.627 147.978V95.3691L222.092 95.3691V147.978H202.627Z" fill="#D9D9D9"/>
</mask>
<g mask="url(#mask0_807_2553)">
<path d="M3.76377 147.979V95.3698L222.09 95.3698L222.09 147.979L3.76377 147.979Z" fill="white" fill-opacity="0.1"/>
<path d="M90.5915 147.979L90.5915 95.3698L222.113 95.3698L222.113 147.979L90.5915 147.979Z" fill="url(#paint0_linear_807_2553)"/>
</g>
<mask id="mask1_807_2553" style="mask-type:alpha" maskUnits="userSpaceOnUse" x="235" y="95" width="219" height="53">
<path d="M235.242 147.978L235.242 95.3692L254.707 95.3691L254.707 147.978H235.242Z" fill="#D9D9D9"/>
<path d="M257.338 147.978L257.338 95.3691L276.803 95.3691L276.803 147.978H257.338Z" fill="#D9D9D9"/>
<path d="M279.433 147.978V95.3691L298.899 95.3691V147.978L279.433 147.978Z" fill="#D9D9D9"/>
<path d="M301.529 147.978V95.3691L320.994 95.3691V147.978H301.529Z" fill="#D9D9D9"/>
<path d="M323.625 147.978V95.3691L343.09 95.3691V147.978H323.625Z" fill="#D9D9D9"/>
<path d="M345.72 147.978V95.3691L365.186 95.3691V147.978H345.72Z" fill="#D9D9D9"/>
<path d="M367.816 147.978V95.3691L387.281 95.3691V147.978H367.816Z" fill="#D9D9D9"/>
<path d="M389.912 147.978V95.3691L409.377 95.3691V147.978L389.912 147.978Z" fill="#D9D9D9"/>
<path d="M412.007 147.978V95.3691L431.473 95.3691V147.978H412.007Z" fill="#D9D9D9"/>
<path d="M434.103 147.978V95.3691L453.568 95.3691V147.978H434.103Z" fill="#D9D9D9"/>
</mask>
<g mask="url(#mask1_807_2553)">
<path d="M235.24 147.979V95.3698L453.566 95.3698L453.566 147.979L235.24 147.979Z" fill="white" fill-opacity="0.1"/>
<path opacity="0.5" d="M322.066 147.979L322.066 95.3698L235.262 95.3698L235.262 147.979L322.066 147.979Z" fill="url(#paint1_linear_807_2553)"/>
</g>
<path d="M8.35836 195.49C9.04228 195.49 9.62623 195.616 10.1102 195.869C10.6048 196.111 10.9783 196.437 11.2308 196.847C11.4833 197.258 11.6096 197.71 11.6096 198.205C11.6096 198.689 11.5201 199.125 11.3413 199.515C11.1624 199.904 10.9204 200.214 10.6153 200.446C10.3207 200.667 9.99976 200.777 9.65254 200.777V200.809C10.3154 200.809 10.8468 201.051 11.2466 201.535C11.6464 202.008 11.8463 202.587 11.8463 203.271C11.8463 203.829 11.6938 204.334 11.3886 204.786C11.094 205.238 10.6679 205.591 10.1102 205.843C9.55258 206.096 8.91076 206.222 8.18476 206.222C6.44867 206.222 5.24919 205.391 4.58632 203.729L5.75423 203.113C5.96467 203.755 6.25402 204.239 6.62228 204.565C7.00106 204.881 7.55345 205.039 8.27945 205.039C8.98441 205.039 9.5368 204.865 9.93663 204.518C10.3365 204.16 10.5364 203.702 10.5364 203.145C10.5364 202.503 10.3417 202.056 9.95241 201.803C9.57362 201.54 8.96862 201.409 8.13741 201.409H7.72706V200.225H8.13741C9.57889 200.225 10.2996 199.636 10.2996 198.457C10.2996 197.868 10.1313 197.426 9.79458 197.131C9.46841 196.826 8.99493 196.674 8.37415 196.674C7.76389 196.674 7.27463 196.816 6.90636 197.1C6.54863 197.373 6.30136 197.763 6.16458 198.268L4.98089 197.715C5.23341 197.032 5.65954 196.49 6.25928 196.09C6.86954 195.69 7.56923 195.49 8.35836 195.49ZM17.6387 206.222C16.3761 206.222 15.4133 205.765 14.7504 204.849C14.0876 203.934 13.7561 202.603 13.7561 200.856C13.7561 199.11 14.0876 197.779 14.7504 196.863C15.4133 195.948 16.3761 195.49 17.6387 195.49C18.9013 195.49 19.864 195.948 20.5269 196.863C21.1897 197.779 21.5212 199.11 21.5212 200.856C21.5212 202.603 21.1897 203.934 20.5269 204.849C19.864 205.765 18.9013 206.222 17.6387 206.222ZM17.6387 205.086C18.4699 205.086 19.1064 204.728 19.5484 204.013C19.9903 203.287 20.2112 202.235 20.2112 200.856C20.2112 199.478 19.9903 198.431 19.5484 197.715C19.1064 196.989 18.4699 196.626 17.6387 196.626C16.8074 196.626 16.1709 196.989 15.729 197.715C15.2871 198.431 15.0661 199.478 15.0661 200.856C15.0661 202.235 15.2871 203.287 15.729 204.013C16.1709 204.728 16.8074 205.086 17.6387 205.086ZM25.4522 195.49C26.2202 195.49 26.8305 195.753 27.2829 196.279C27.7354 196.795 27.9616 197.489 27.9616 198.363C27.9616 199.236 27.7354 199.936 27.2829 200.462C26.8305 200.977 26.2202 201.235 25.4522 201.235C24.6841 201.235 24.0738 200.977 23.6214 200.462C23.1689 199.936 22.9427 199.236 22.9427 198.363C22.9427 197.489 23.1689 196.795 23.6214 196.279C24.0738 195.753 24.6841 195.49 25.4522 195.49ZM31.781 195.648H32.9805L26.3518 206.064H25.1523L31.781 195.648ZM25.4522 196.484C25.0102 196.484 24.6683 196.647 24.4263 196.974C24.1843 197.3 24.0633 197.763 24.0633 198.363C24.0633 198.962 24.1843 199.425 24.4263 199.751C24.6683 200.078 25.0102 200.241 25.4522 200.241C25.8941 200.241 26.236 200.078 26.478 199.751C26.72 199.425 26.841 198.962 26.841 198.363C26.841 197.763 26.72 197.3 26.478 196.974C26.236 196.647 25.8941 196.484 25.4522 196.484ZM32.6806 200.477C33.4487 200.477 34.0589 200.74 34.5114 201.267C34.9638 201.782 35.19 202.477 35.19 203.35C35.19 204.223 34.9638 204.923 34.5114 205.449C34.0589 205.964 33.4487 206.222 32.6806 206.222C31.9125 206.222 31.3022 205.964 30.8498 205.449C30.3974 204.923 30.1712 204.223 30.1712 203.35C30.1712 202.477 30.3974 201.782 30.8498 201.267C31.3022 200.74 31.9125 200.477 32.6806 200.477ZM32.6806 201.472C32.2387 201.472 31.8967 201.635 31.6547 201.961C31.4127 202.287 31.2917 202.75 31.2917 203.35C31.2917 203.95 31.4127 204.413 31.6547 204.739C31.8967 205.065 32.2387 205.228 32.6806 205.228C33.1225 205.228 33.4645 205.065 33.7065 204.739C33.9485 204.413 34.0695 203.95 34.0695 203.35C34.0695 202.75 33.9485 202.287 33.7065 201.961C33.4645 201.635 33.1225 201.472 32.6806 201.472ZM43.701 206.064H42.4384V195.648H43.701V206.064ZM50.3931 198.015C51.2875 198.015 52.024 198.273 52.6027 198.789C53.1814 199.304 53.4707 200.046 53.4707 201.014V206.064H52.2081V201.456C52.2081 200.635 52.0293 200.041 51.6715 199.672C51.3243 199.304 50.8561 199.12 50.2669 199.12C49.846 199.12 49.4514 199.215 49.0832 199.404C48.7149 199.583 48.4098 199.883 48.1678 200.304C47.9363 200.714 47.8206 201.235 47.8206 201.866V206.064H46.5579V198.173H47.6627L47.7416 199.404C48.0047 198.931 48.3677 198.583 48.8306 198.363C49.2936 198.131 49.8144 198.015 50.3931 198.015ZM57.8631 198.173H60.4988V199.262H57.8631V206.064H56.6005V199.262H55.0222V198.173H56.6005V196.847C56.6005 196.121 56.8215 195.543 57.2634 195.111C57.7053 194.68 58.3471 194.464 59.1888 194.464C59.4729 194.464 59.7307 194.496 59.9622 194.559C60.2042 194.622 60.3936 194.711 60.5304 194.827L60.1989 195.853C59.9464 195.695 59.6465 195.616 59.2993 195.616C58.3418 195.616 57.8631 196.069 57.8631 196.974V198.173ZM63.387 203.95C63.387 204.349 63.4449 204.628 63.5606 204.786C63.6869 204.933 63.9131 205.007 64.2393 205.007C64.4602 205.007 64.6496 204.991 64.8075 204.96C64.9758 204.928 65.1705 204.87 65.3914 204.786L65.1862 206.001C64.839 206.149 64.4497 206.222 64.0183 206.222C63.3765 206.222 62.8978 206.049 62.5821 205.701C62.277 205.354 62.1244 204.823 62.1244 204.107V194.543H63.387V203.95ZM73.6176 198.173V206.064H72.5128L72.4339 204.865C71.9078 205.77 70.9661 206.222 69.6088 206.222C68.7566 206.222 68.0569 205.986 67.5097 205.512C66.9731 205.039 66.7048 204.313 66.7048 203.334V198.173H67.9674V203.003C67.9674 203.771 68.1253 204.318 68.4409 204.644C68.7566 204.96 69.2195 205.117 69.8298 205.117C70.5558 205.117 71.1555 204.897 71.629 204.455C72.113 204.013 72.355 203.35 72.355 202.466V198.173H73.6176ZM83.0894 201.708C83.0894 202.003 83.0683 202.298 83.0263 202.592H77.0762C77.1499 203.392 77.4129 204.013 77.8653 204.455C78.3283 204.897 78.9228 205.117 79.6488 205.117C80.2275 205.117 80.7062 205.018 81.085 204.818C81.4743 204.618 81.7373 204.328 81.8741 203.95L82.9316 204.502C82.6159 205.06 82.195 205.486 81.6689 205.78C81.1429 206.075 80.4695 206.222 79.6488 206.222C78.4598 206.222 77.5234 205.859 76.8395 205.133C76.1661 204.407 75.8294 203.402 75.8294 202.119C75.8294 200.835 76.1503 199.83 76.7921 199.104C77.4445 198.378 78.3651 198.015 79.5541 198.015C80.2906 198.015 80.9272 198.178 81.4638 198.505C82.0004 198.831 82.4055 199.273 82.679 199.83C82.9526 200.388 83.0894 201.014 83.0894 201.708ZM79.5541 199.12C78.8596 199.12 78.2967 199.325 77.8653 199.736C77.4445 200.146 77.1867 200.725 77.092 201.472H81.8741C81.7899 200.735 81.5479 200.162 81.1481 199.751C80.7483 199.331 80.2169 199.12 79.5541 199.12ZM89.0876 198.015C89.982 198.015 90.7185 198.273 91.2972 198.789C91.8759 199.304 92.1652 200.046 92.1652 201.014V206.064H90.9026V201.456C90.9026 200.635 90.7238 200.041 90.366 199.672C90.0188 199.304 89.5506 199.12 88.9614 199.12C88.5405 199.12 88.1459 199.215 87.7777 199.404C87.4094 199.583 87.1043 199.883 86.8623 200.304C86.6308 200.714 86.5151 201.235 86.5151 201.866V206.064H85.2525V198.173H86.3572L86.4362 199.404C86.6992 198.931 87.0622 198.583 87.5252 198.363C87.9881 198.131 88.5089 198.015 89.0876 198.015ZM98.1175 198.015C98.9066 198.015 99.5695 198.199 100.106 198.568C100.653 198.925 101.079 199.441 101.385 200.114L100.185 200.683C99.8483 199.641 99.1486 199.12 98.0859 199.12C97.2968 199.12 96.676 199.388 96.2236 199.925C95.7817 200.451 95.5607 201.182 95.5607 202.119C95.5607 203.055 95.7817 203.792 96.2236 204.328C96.676 204.854 97.2968 205.117 98.0859 205.117C98.6962 205.117 99.1855 204.981 99.5537 204.707C99.9325 204.423 100.18 204.018 100.296 203.492L101.463 203.902C101.19 204.639 100.769 205.212 100.201 205.623C99.6326 206.022 98.9382 206.222 98.1175 206.222C96.9286 206.222 95.9921 205.859 95.3082 205.133C94.6348 204.407 94.2981 203.402 94.2981 202.119C94.2981 200.835 94.6348 199.83 95.3082 199.104C95.9921 198.378 96.9286 198.015 98.1175 198.015ZM110.23 201.708C110.23 202.003 110.209 202.298 110.167 202.592H104.217C104.29 203.392 104.553 204.013 105.006 204.455C105.469 204.897 106.063 205.117 106.789 205.117C107.368 205.117 107.847 205.018 108.226 204.818C108.615 204.618 108.878 204.328 109.015 203.95L110.072 204.502C109.756 205.06 109.336 205.486 108.809 205.78C108.283 206.075 107.61 206.222 106.789 206.222C105.6 206.222 104.664 205.859 103.98 205.133C103.307 204.407 102.97 203.402 102.97 202.119C102.97 200.835 103.291 199.83 103.933 199.104C104.585 198.378 105.506 198.015 106.695 198.015C107.431 198.015 108.068 198.178 108.604 198.505C109.141 198.831 109.546 199.273 109.82 199.83C110.093 200.388 110.23 201.014 110.23 201.708ZM106.695 199.12C106 199.12 105.437 199.325 105.006 199.736C104.585 200.146 104.327 200.725 104.233 201.472H109.015C108.93 200.735 108.688 200.162 108.289 199.751C107.889 199.331 107.357 199.12 106.695 199.12Z" fill="white"/>
<path d="M337.84 195.648V196.832C336.546 198.189 335.599 199.62 335 201.124C334.41 202.629 334.116 204.276 334.116 206.064H332.822C332.822 204.36 333.127 202.724 333.737 201.156C334.358 199.578 335.268 198.136 336.467 196.832H330.17V195.648H337.84ZM342.749 206.222C341.486 206.222 340.524 205.765 339.861 204.849C339.198 203.934 338.866 202.603 338.866 200.856C338.866 199.11 339.198 197.779 339.861 196.863C340.524 195.948 341.486 195.49 342.749 195.49C344.012 195.49 344.974 195.948 345.637 196.863C346.3 197.779 346.632 199.11 346.632 200.856C346.632 202.603 346.3 203.934 345.637 204.849C344.974 205.765 344.012 206.222 342.749 206.222ZM342.749 205.086C343.58 205.086 344.217 204.728 344.659 204.013C345.101 203.287 345.322 202.235 345.322 200.856C345.322 199.478 345.101 198.431 344.659 197.715C344.217 196.989 343.58 196.626 342.749 196.626C341.918 196.626 341.281 196.989 340.839 197.715C340.397 198.431 340.176 199.478 340.176 200.856C340.176 202.235 340.397 203.287 340.839 204.013C341.281 204.728 341.918 205.086 342.749 205.086ZM350.563 195.49C351.331 195.49 351.941 195.753 352.393 196.279C352.846 196.795 353.072 197.489 353.072 198.363C353.072 199.236 352.846 199.936 352.393 200.462C351.941 200.977 351.331 201.235 350.563 201.235C349.794 201.235 349.184 200.977 348.732 200.462C348.279 199.936 348.053 199.236 348.053 198.363C348.053 197.489 348.279 196.795 348.732 196.279C349.184 195.753 349.794 195.49 350.563 195.49ZM356.891 195.648H358.091L351.462 206.064H350.263L356.891 195.648ZM350.563 196.484C350.121 196.484 349.779 196.647 349.537 196.974C349.295 197.3 349.174 197.763 349.174 198.363C349.174 198.962 349.295 199.425 349.537 199.751C349.779 200.078 350.121 200.241 350.563 200.241C351.004 200.241 351.346 200.078 351.588 199.751C351.83 199.425 351.951 198.962 351.951 198.363C351.951 197.763 351.83 197.3 351.588 196.974C351.346 196.647 351.004 196.484 350.563 196.484ZM357.791 200.477C358.559 200.477 359.169 200.74 359.622 201.267C360.074 201.782 360.3 202.477 360.3 203.35C360.3 204.223 360.074 204.923 359.622 205.449C359.169 205.964 358.559 206.222 357.791 206.222C357.023 206.222 356.413 205.964 355.96 205.449C355.508 204.923 355.282 204.223 355.282 203.35C355.282 202.477 355.508 201.782 355.96 201.267C356.413 200.74 357.023 200.477 357.791 200.477ZM357.791 201.472C357.349 201.472 357.007 201.635 356.765 201.961C356.523 202.287 356.402 202.75 356.402 203.35C356.402 203.95 356.523 204.413 356.765 204.739C357.007 205.065 357.349 205.228 357.791 205.228C358.233 205.228 358.575 205.065 358.817 204.739C359.059 204.413 359.18 203.95 359.18 203.35C359.18 202.75 359.059 202.287 358.817 201.961C358.575 201.635 358.233 201.472 357.791 201.472ZM375.945 203.397C375.619 204.281 375.082 204.975 374.335 205.48C373.588 205.975 372.725 206.222 371.747 206.222C370.768 206.222 369.916 206.007 369.19 205.575C368.464 205.133 367.901 204.512 367.501 203.713C367.112 202.903 366.917 201.95 366.917 200.856C366.917 199.772 367.112 198.825 367.501 198.015C367.901 197.205 368.464 196.584 369.19 196.153C369.916 195.711 370.758 195.49 371.715 195.49C372.715 195.49 373.551 195.695 374.225 196.106C374.909 196.516 375.419 197.121 375.756 197.921L374.509 198.505C374.277 197.894 373.941 197.437 373.499 197.131C373.057 196.826 372.494 196.674 371.81 196.674C371.095 196.674 370.469 196.842 369.932 197.179C369.395 197.505 368.98 197.984 368.685 198.615C368.391 199.246 368.243 199.993 368.243 200.856C368.243 202.161 368.554 203.187 369.174 203.934C369.806 204.67 370.663 205.039 371.747 205.039C372.452 205.039 373.062 204.86 373.578 204.502C374.093 204.144 374.462 203.618 374.683 202.924L375.945 203.397ZM381.225 198.015C382.414 198.015 383.345 198.378 384.019 199.104C384.703 199.83 385.045 200.835 385.045 202.119C385.045 203.402 384.703 204.407 384.019 205.133C383.345 205.859 382.414 206.222 381.225 206.222C380.036 206.222 379.1 205.859 378.416 205.133C377.742 204.407 377.406 203.402 377.406 202.119C377.406 200.835 377.742 199.83 378.416 199.104C379.1 198.378 380.036 198.015 381.225 198.015ZM381.225 199.104C380.426 199.104 379.799 199.373 379.347 199.909C378.895 200.446 378.668 201.182 378.668 202.119C378.668 203.055 378.895 203.792 379.347 204.328C379.799 204.865 380.426 205.133 381.225 205.133C382.025 205.133 382.651 204.865 383.103 204.328C383.556 203.792 383.782 203.055 383.782 202.119C383.782 201.182 383.556 200.446 383.103 199.909C382.651 199.373 382.025 199.104 381.225 199.104ZM396.43 198.015C396.956 198.015 397.445 198.126 397.898 198.347C398.361 198.557 398.734 198.889 399.018 199.341C399.303 199.793 399.445 200.351 399.445 201.014V206.064H398.182V201.14C398.182 200.456 398.008 199.951 397.661 199.625C397.324 199.288 396.877 199.12 396.32 199.12C395.899 199.12 395.509 199.225 395.152 199.436C394.804 199.636 394.52 199.936 394.299 200.335C394.089 200.725 393.984 201.193 393.984 201.74V206.064H392.721V201.14C392.721 200.456 392.548 199.951 392.2 199.625C391.864 199.288 391.416 199.12 390.859 199.12C390.48 199.12 390.112 199.22 389.754 199.42C389.396 199.609 389.102 199.909 388.87 200.32C388.639 200.73 388.523 201.24 388.523 201.85V206.064H387.26V198.173H388.365L388.444 199.404C388.718 198.941 389.075 198.594 389.517 198.363C389.97 198.131 390.454 198.015 390.969 198.015C391.548 198.015 392.079 198.147 392.563 198.41C393.058 198.673 393.431 199.057 393.684 199.562C393.915 199.057 394.294 198.673 394.82 198.41C395.346 198.147 395.883 198.015 396.43 198.015ZM405.949 198.015C407.054 198.015 407.927 198.384 408.569 199.12C409.221 199.846 409.547 200.846 409.547 202.119C409.547 203.392 409.221 204.397 408.569 205.133C407.927 205.859 407.054 206.222 405.949 206.222C405.37 206.222 404.849 206.096 404.387 205.843C403.934 205.591 403.582 205.254 403.329 204.833V209.379H402.066V198.173H403.171L403.25 199.546C403.482 199.083 403.834 198.715 404.308 198.441C404.792 198.157 405.339 198.015 405.949 198.015ZM405.807 205.117C406.575 205.117 407.18 204.849 407.622 204.313C408.064 203.765 408.285 203.034 408.285 202.119C408.285 201.203 408.064 200.477 407.622 199.941C407.18 199.394 406.575 199.12 405.807 199.12C405.049 199.12 404.444 199.383 403.992 199.909C403.55 200.435 403.329 201.14 403.329 202.024V202.213C403.329 203.097 403.55 203.802 403.992 204.328C404.444 204.854 405.049 205.117 405.807 205.117ZM412.97 203.95C412.97 204.349 413.028 204.628 413.144 204.786C413.27 204.933 413.496 205.007 413.823 205.007C414.044 205.007 414.233 204.991 414.391 204.96C414.559 204.928 414.754 204.87 414.975 204.786L414.77 206.001C414.422 206.149 414.033 206.222 413.602 206.222C412.96 206.222 412.481 206.049 412.165 205.701C411.86 205.354 411.708 204.823 411.708 204.107V194.543H412.97V203.95ZM416.99 196.658C416.706 196.658 416.474 196.574 416.295 196.405C416.127 196.227 416.043 195.995 416.043 195.711C416.043 195.427 416.127 195.201 416.295 195.032C416.474 194.854 416.706 194.764 416.99 194.764C417.274 194.764 417.5 194.854 417.668 195.032C417.847 195.201 417.937 195.427 417.937 195.711C417.937 195.995 417.847 196.227 417.668 196.405C417.5 196.574 417.274 196.658 416.99 196.658ZM417.621 206.064H416.358V198.173H417.621V206.064ZM426.785 205.149C426.995 205.149 427.206 205.123 427.416 205.07L427.337 206.064C427.043 206.17 426.727 206.222 426.39 206.222C425.98 206.222 425.654 206.133 425.412 205.954C425.18 205.775 425.033 205.475 424.97 205.054C424.728 205.423 424.37 205.712 423.897 205.922C423.434 206.122 422.944 206.222 422.429 206.222C421.65 206.222 421.008 206.043 420.503 205.686C419.998 205.317 419.746 204.791 419.746 204.107C419.746 203.508 420.009 202.992 420.535 202.561C421.061 202.119 421.824 201.814 422.823 201.645L424.922 201.298V200.856C424.922 200.33 424.759 199.909 424.433 199.594C424.107 199.278 423.655 199.12 423.076 199.12C422.55 199.12 422.092 199.246 421.703 199.499C421.324 199.751 421.029 200.125 420.819 200.619L419.888 199.941C420.098 199.352 420.487 198.883 421.056 198.536C421.634 198.189 422.308 198.015 423.076 198.015C424.012 198.015 424.765 198.242 425.333 198.694C425.901 199.146 426.185 199.815 426.185 200.698V204.581C426.185 204.77 426.232 204.912 426.327 205.007C426.422 205.102 426.574 205.149 426.785 205.149ZM422.492 205.117C423.155 205.117 423.723 204.96 424.196 204.644C424.68 204.328 424.922 203.918 424.922 203.413V202.324L423.155 202.655C422.45 202.782 421.924 202.966 421.576 203.208C421.229 203.439 421.056 203.739 421.056 204.107C421.056 204.434 421.182 204.686 421.434 204.865C421.687 205.033 422.039 205.117 422.492 205.117ZM432.852 198.015C433.746 198.015 434.483 198.273 435.061 198.789C435.64 199.304 435.929 200.046 435.929 201.014V206.064H434.667V201.456C434.667 200.635 434.488 200.041 434.13 199.672C433.783 199.304 433.315 199.12 432.725 199.12C432.305 199.12 431.91 199.215 431.542 199.404C431.173 199.583 430.868 199.883 430.626 200.304C430.395 200.714 430.279 201.235 430.279 201.866V206.064H429.016V198.173H430.121L430.2 199.404C430.463 198.931 430.826 198.583 431.289 198.363C431.752 198.131 432.273 198.015 432.852 198.015ZM441.882 198.015C442.671 198.015 443.334 198.199 443.87 198.568C444.417 198.925 444.843 199.441 445.149 200.114L443.949 200.683C443.612 199.641 442.913 199.12 441.85 199.12C441.061 199.12 440.44 199.388 439.988 199.925C439.546 200.451 439.325 201.182 439.325 202.119C439.325 203.055 439.546 203.792 439.988 204.328C440.44 204.854 441.061 205.117 441.85 205.117C442.46 205.117 442.95 204.981 443.318 204.707C443.697 204.423 443.944 204.018 444.06 203.492L445.227 203.902C444.954 204.639 444.533 205.212 443.965 205.623C443.397 206.022 442.702 206.222 441.882 206.222C440.693 206.222 439.756 205.859 439.072 205.133C438.399 204.407 438.062 203.402 438.062 202.119C438.062 200.835 438.399 199.83 439.072 199.104C439.756 198.378 440.693 198.015 441.882 198.015ZM453.994 201.708C453.994 202.003 453.973 202.298 453.931 202.592H447.981C448.054 203.392 448.317 204.013 448.77 204.455C449.233 204.897 449.827 205.117 450.553 205.117C451.132 205.117 451.611 205.018 451.99 204.818C452.379 204.618 452.642 204.328 452.779 203.95L453.836 204.502C453.52 205.06 453.1 205.486 452.574 205.78C452.047 206.075 451.374 206.222 450.553 206.222C449.364 206.222 448.428 205.859 447.744 205.133C447.071 204.407 446.734 203.402 446.734 202.119C446.734 200.835 447.055 199.83 447.697 199.104C448.349 198.378 449.27 198.015 450.459 198.015C451.195 198.015 451.832 198.178 452.368 198.505C452.905 198.831 453.31 199.273 453.584 199.83C453.857 200.388 453.994 201.014 453.994 201.708ZM450.459 199.12C449.764 199.12 449.201 199.325 448.77 199.736C448.349 200.146 448.091 200.725 447.997 201.472H452.779C452.695 200.735 452.453 200.162 452.053 199.751C451.653 199.331 451.122 199.12 450.459 199.12Z" fill="white"/>
<mask id="mask2_807_2553" style="mask-type:alpha" maskUnits="userSpaceOnUse" x="3" y="217" width="220" height="53">
<path d="M3.76563 269.935L3.76562 217.326L23.2308 217.326L23.2308 269.935H3.76563Z" fill="#D9D9D9"/>
<path d="M25.8613 269.935L25.8613 217.326L45.3265 217.326L45.3265 269.935H25.8613Z" fill="#D9D9D9"/>
<path d="M47.9569 269.935V217.326L67.4221 217.326V269.935L47.9569 269.935Z" fill="#D9D9D9"/>
<path d="M70.0526 269.935V217.326L89.5178 217.326V269.935H70.0526Z" fill="#D9D9D9"/>
<path d="M92.1482 269.935V217.326L111.613 217.326V269.935H92.1482Z" fill="#D9D9D9"/>
<path d="M114.244 269.935V217.326L133.709 217.326V269.935H114.244Z" fill="#D9D9D9"/>
<path d="M136.34 269.935V217.326L155.805 217.326V269.935H136.34Z" fill="#D9D9D9"/>
<path d="M158.435 269.935V217.326L177.9 217.326V269.935L158.435 269.935Z" fill="#D9D9D9"/>
<path d="M180.531 269.935V217.326L199.996 217.326V269.935H180.531Z" fill="#D9D9D9"/>
<path d="M202.627 269.935V217.326L222.092 217.326V269.935H202.627Z" fill="#D9D9D9"/>
</mask>
<g mask="url(#mask2_807_2553)">
<path d="M3.76377 269.936V217.327L222.09 217.327L222.09 269.936L3.76377 269.936Z" fill="white" fill-opacity="0.1"/>
<path opacity="0.5" d="M156.352 269.936L156.352 217.327L222.113 217.327L222.113 269.936L156.352 269.936Z" fill="url(#paint2_linear_807_2553)"/>
</g>
<mask id="mask3_807_2553" style="mask-type:alpha" maskUnits="userSpaceOnUse" x="235" y="217" width="219" height="53">
<path d="M235.242 269.935L235.242 217.326L254.707 217.326L254.707 269.935H235.242Z" fill="#D9D9D9"/>
<path d="M257.338 269.935L257.338 217.326L276.803 217.326L276.803 269.935H257.338Z" fill="#D9D9D9"/>
<path d="M279.433 269.935V217.326L298.899 217.326V269.935L279.433 269.935Z" fill="#D9D9D9"/>
<path d="M301.529 269.935V217.326L320.994 217.326V269.935H301.529Z" fill="#D9D9D9"/>
<path d="M323.625 269.935V217.326L343.09 217.326V269.935H323.625Z" fill="#D9D9D9"/>
<path d="M345.72 269.935V217.326L365.186 217.326V269.935H345.72Z" fill="#D9D9D9"/>
<path d="M367.816 269.935V217.326L387.281 217.326V269.935H367.816Z" fill="#D9D9D9"/>
<path d="M389.912 269.935V217.326L409.377 217.326V269.935L389.912 269.935Z" fill="#D9D9D9"/>
<path d="M412.007 269.935V217.326L431.473 217.326V269.935H412.007Z" fill="#D9D9D9"/>
<path d="M434.103 269.935V217.326L453.568 217.326V269.935H434.103Z" fill="#D9D9D9"/>
</mask>
<g mask="url(#mask3_807_2553)">
<path d="M235.24 269.936V217.327L453.566 217.327L453.566 269.936L235.24 269.936Z" fill="white" fill-opacity="0.1"/>
<path d="M389.142 269.936L389.142 217.327L235.262 217.327L235.262 269.936L389.142 269.936Z" fill="url(#paint3_linear_807_2553)"/>
</g>
<path d="M8.62667 317.461C9.63676 317.461 10.4417 317.708 11.0414 318.203C11.6411 318.687 11.941 319.35 11.941 320.191C11.941 320.728 11.8095 321.201 11.5465 321.612C11.2939 322.012 10.9362 322.317 10.4732 322.527V322.543C11.0835 322.774 11.557 323.116 11.8937 323.569C12.2409 324.021 12.4145 324.568 12.4145 325.21C12.4145 325.81 12.2567 326.336 11.941 326.788C11.6359 327.23 11.194 327.572 10.6153 327.814C10.0471 328.056 9.38423 328.177 8.62667 328.177C7.8691 328.177 7.20623 328.056 6.63806 327.814C6.06989 327.572 5.62797 327.23 5.31232 326.788C4.99667 326.336 4.83884 325.81 4.83884 325.21C4.83884 324.579 5.00719 324.032 5.34389 323.569C5.6911 323.106 6.1751 322.764 6.79589 322.543V322.527C6.33293 322.327 5.96993 322.022 5.70689 321.612C5.44384 321.201 5.31232 320.728 5.31232 320.191C5.31232 319.35 5.61219 318.687 6.21193 318.203C6.81167 317.708 7.61658 317.461 8.62667 317.461ZM8.62667 318.645C8.00589 318.645 7.51662 318.792 7.15889 319.087C6.80115 319.381 6.62228 319.792 6.62228 320.318C6.62228 320.823 6.80641 321.228 7.17467 321.533C7.54293 321.827 8.02693 321.975 8.62667 321.975C9.22641 321.975 9.71041 321.827 10.0787 321.533C10.4469 321.228 10.6311 320.823 10.6311 320.318C10.6311 319.792 10.4522 319.381 10.0945 319.087C9.73671 318.792 9.24745 318.645 8.62667 318.645ZM8.62667 326.994C9.39476 326.994 9.99976 326.825 10.4417 326.489C10.8836 326.141 11.1045 325.673 11.1045 325.084C11.1045 324.484 10.8783 324.016 10.4259 323.679C9.98397 323.332 9.38423 323.158 8.62667 323.158C7.87963 323.158 7.27989 323.332 6.82745 323.679C6.37502 324.027 6.1488 324.495 6.1488 325.084C6.1488 325.673 6.36976 326.141 6.81167 326.489C7.2641 326.825 7.8691 326.994 8.62667 326.994ZM18.1627 328.177C16.9001 328.177 15.9373 327.72 15.2745 326.804C14.6116 325.889 14.2802 324.558 14.2802 322.811C14.2802 321.065 14.6116 319.734 15.2745 318.818C15.9373 317.903 16.9001 317.445 18.1627 317.445C19.4253 317.445 20.388 317.903 21.0509 318.818C21.7138 319.734 22.0452 321.065 22.0452 322.811C22.0452 324.558 21.7138 325.889 21.0509 326.804C20.388 327.72 19.4253 328.177 18.1627 328.177ZM18.1627 327.041C18.9939 327.041 19.6305 326.683 20.0724 325.968C20.5143 325.242 20.7353 324.19 20.7353 322.811C20.7353 321.433 20.5143 320.386 20.0724 319.671C19.6305 318.945 18.9939 318.582 18.1627 318.582C17.3315 318.582 16.6949 318.945 16.253 319.671C15.8111 320.386 15.5901 321.433 15.5901 322.811C15.5901 324.19 15.8111 325.242 16.253 325.968C16.6949 326.683 17.3315 327.041 18.1627 327.041ZM25.9762 317.445C26.7443 317.445 27.3545 317.708 27.807 318.234C28.2594 318.75 28.4856 319.444 28.4856 320.318C28.4856 321.191 28.2594 321.891 27.807 322.417C27.3545 322.932 26.7443 323.19 25.9762 323.19C25.2081 323.19 24.5978 322.932 24.1454 322.417C23.693 321.891 23.4668 321.191 23.4668 320.318C23.4668 319.444 23.693 318.75 24.1454 318.234C24.5978 317.708 25.2081 317.445 25.9762 317.445ZM32.305 317.603H33.5045L26.8758 328.02H25.6763L32.305 317.603ZM25.9762 318.439C25.5343 318.439 25.1923 318.603 24.9503 318.929C24.7083 319.255 24.5873 319.718 24.5873 320.318C24.5873 320.917 24.7083 321.38 24.9503 321.706C25.1923 322.033 25.5343 322.196 25.9762 322.196C26.4181 322.196 26.7601 322.033 27.0021 321.706C27.2441 321.38 27.3651 320.917 27.3651 320.318C27.3651 319.718 27.2441 319.255 27.0021 318.929C26.7601 318.603 26.4181 318.439 25.9762 318.439ZM33.2046 322.432C33.9727 322.432 34.583 322.696 35.0354 323.222C35.4878 323.737 35.7141 324.432 35.7141 325.305C35.7141 326.178 35.4878 326.878 35.0354 327.404C34.583 327.92 33.9727 328.177 33.2046 328.177C32.4365 328.177 31.8263 327.92 31.3738 327.404C30.9214 326.878 30.6952 326.178 30.6952 325.305C30.6952 324.432 30.9214 323.737 31.3738 323.222C31.8263 322.696 32.4365 322.432 33.2046 322.432ZM33.2046 323.427C32.7627 323.427 32.4208 323.59 32.1788 323.916C31.9368 324.242 31.8158 324.705 31.8158 325.305C31.8158 325.905 31.9368 326.368 32.1788 326.694C32.4208 327.02 32.7627 327.183 33.2046 327.183C33.6465 327.183 33.9885 327.02 34.2305 326.694C34.4725 326.368 34.5935 325.905 34.5935 325.305C34.5935 324.705 34.4725 324.242 34.2305 323.916C33.9885 323.59 33.6465 323.427 33.2046 323.427ZM48.1859 325.131H43.4669L42.3621 328.02H41.0364L45.0925 317.603H46.5919L50.6322 328.02H49.2907L48.1859 325.131ZM47.7282 323.948L46.3236 320.254L45.8343 318.802H45.8027L45.345 320.207L43.9246 323.948H47.7282ZM55.4675 319.97C56.2566 319.97 56.9195 320.155 57.4561 320.523C58.0032 320.881 58.4293 321.396 58.7345 322.069L57.535 322.638C57.1983 321.596 56.4986 321.075 55.4359 321.075C54.6468 321.075 54.026 321.343 53.5736 321.88C53.1317 322.406 52.9107 323.137 52.9107 324.074C52.9107 325.01 53.1317 325.747 53.5736 326.283C54.026 326.81 54.6468 327.073 55.4359 327.073C56.0462 327.073 56.5354 326.936 56.9037 326.662C57.2825 326.378 57.5297 325.973 57.6455 325.447L58.8134 325.857C58.5398 326.594 58.119 327.167 57.5508 327.578C56.9826 327.977 56.2882 328.177 55.4675 328.177C54.2785 328.177 53.3421 327.814 52.6582 327.088C51.9848 326.362 51.6481 325.358 51.6481 324.074C51.6481 322.79 51.9848 321.785 52.6582 321.059C53.3421 320.333 54.2785 319.97 55.4675 319.97ZM65.6386 327.467C65.1125 327.941 64.4339 328.177 63.6027 328.177C62.9608 328.177 62.4348 328.004 62.0244 327.657C61.6246 327.309 61.4194 326.778 61.4089 326.062V321.217H59.8306V320.128H61.4089V318.234L62.6715 317.887V320.128H65.5913V321.217H62.6715V325.842C62.6715 326.22 62.7767 326.51 62.9871 326.71C63.2081 326.899 63.4975 326.994 63.8552 326.994C64.3602 326.994 64.8074 326.799 65.1967 326.41L65.6386 327.467ZM67.8158 318.613C67.5317 318.613 67.3002 318.529 67.1213 318.361C66.953 318.182 66.8688 317.95 66.8688 317.666C66.8688 317.382 66.953 317.156 67.1213 316.987C67.3002 316.809 67.5317 316.719 67.8158 316.719C68.0999 316.719 68.3261 316.809 68.4944 316.987C68.6733 317.156 68.7627 317.382 68.7627 317.666C68.7627 317.95 68.6733 318.182 68.4944 318.361C68.3261 318.529 68.0999 318.613 67.8158 318.613ZM68.4471 328.02H67.1845V320.128H68.4471V328.02ZM77.6898 320.128L74.407 328.02H73.1444L69.8616 320.128H71.2978L73.7915 326.741L76.364 320.128H77.6898ZM79.7341 318.613C79.45 318.613 79.2185 318.529 79.0397 318.361C78.8713 318.182 78.7871 317.95 78.7871 317.666C78.7871 317.382 78.8713 317.156 79.0397 316.987C79.2185 316.809 79.45 316.719 79.7341 316.719C80.0182 316.719 80.2444 316.809 80.4127 316.987C80.5916 317.156 80.6811 317.382 80.6811 317.666C80.6811 317.95 80.5916 318.182 80.4127 318.361C80.2444 318.529 80.0182 318.613 79.7341 318.613ZM80.3654 328.02H79.1028V320.128H80.3654V328.02ZM87.8878 327.467C87.3617 327.941 86.6831 328.177 85.8518 328.177C85.21 328.177 84.6839 328.004 84.2736 327.657C83.8737 327.309 83.6686 326.778 83.6581 326.062V321.217H82.0798V320.128H83.6581V318.234L84.9207 317.887V320.128H87.8404V321.217H84.9207V325.842C84.9207 326.22 85.0259 326.51 85.2363 326.71C85.4573 326.899 85.7466 326.994 86.1044 326.994C86.6094 326.994 87.0566 326.799 87.4459 326.41L87.8878 327.467ZM92.4323 329.345C92.1272 330.103 91.7852 330.634 91.4065 330.939C91.0277 331.255 90.5384 331.413 89.9387 331.413C89.5388 331.413 89.2021 331.36 88.9286 331.255C88.6655 331.15 88.4235 330.981 88.2026 330.75L88.6445 329.677C88.9496 330.098 89.3758 330.308 89.9229 330.308C90.228 330.308 90.4963 330.213 90.7278 330.024C90.9698 329.845 91.1802 329.514 91.3591 329.03L91.7695 328.004L88.4709 320.128H89.9071L91.8799 325.273L92.3692 326.678L92.9374 325.116L94.7839 320.128H96.1412L92.4323 329.345Z" fill="white"/>
<path d="M348.524 326.994C349.965 325.931 351.07 325.058 351.838 324.374C352.606 323.679 353.153 323.053 353.479 322.496C353.816 321.927 353.985 321.333 353.985 320.712C353.985 320.091 353.785 319.592 353.385 319.213C352.985 318.824 352.448 318.629 351.775 318.629C351.07 318.629 350.497 318.86 350.055 319.323C349.623 319.786 349.371 320.412 349.297 321.201L348.192 320.539C348.329 319.602 348.708 318.855 349.329 318.297C349.96 317.729 350.791 317.445 351.822 317.445C352.517 317.445 353.127 317.582 353.653 317.856C354.19 318.129 354.6 318.513 354.884 319.008C355.168 319.502 355.31 320.07 355.31 320.712C355.31 321.386 355.147 322.033 354.821 322.653C354.505 323.274 353.985 323.927 353.259 324.61C352.533 325.294 351.554 326.047 350.323 326.867V326.883C351.017 326.852 351.538 326.836 351.885 326.836H355.531V328.02H348.524V326.994ZM361.229 328.177C359.966 328.177 359.003 327.72 358.341 326.804C357.678 325.889 357.346 324.558 357.346 322.811C357.346 321.065 357.678 319.734 358.341 318.818C359.003 317.903 359.966 317.445 361.229 317.445C362.491 317.445 363.454 317.903 364.117 318.818C364.78 319.734 365.111 321.065 365.111 322.811C365.111 324.558 364.78 325.889 364.117 326.804C363.454 327.72 362.491 328.177 361.229 328.177ZM361.229 327.041C362.06 327.041 362.697 326.683 363.139 325.968C363.58 325.242 363.801 324.19 363.801 322.811C363.801 321.433 363.58 320.386 363.139 319.671C362.697 318.945 362.06 318.582 361.229 318.582C360.398 318.582 359.761 318.945 359.319 319.671C358.877 320.386 358.656 321.433 358.656 322.811C358.656 324.19 358.877 325.242 359.319 325.968C359.761 326.683 360.398 327.041 361.229 327.041ZM369.042 317.445C369.81 317.445 370.421 317.708 370.873 318.234C371.326 318.75 371.552 319.444 371.552 320.318C371.552 321.191 371.326 321.891 370.873 322.417C370.421 322.932 369.81 323.19 369.042 323.19C368.274 323.19 367.664 322.932 367.212 322.417C366.759 321.891 366.533 321.191 366.533 320.318C366.533 319.444 366.759 318.75 367.212 318.234C367.664 317.708 368.274 317.445 369.042 317.445ZM375.371 317.603H376.571L369.942 328.02H368.742L375.371 317.603ZM369.042 318.439C368.6 318.439 368.258 318.603 368.016 318.929C367.774 319.255 367.653 319.718 367.653 320.318C367.653 320.917 367.774 321.38 368.016 321.706C368.258 322.033 368.6 322.196 369.042 322.196C369.484 322.196 369.826 322.033 370.068 321.706C370.31 321.38 370.431 320.917 370.431 320.318C370.431 319.718 370.31 319.255 370.068 318.929C369.826 318.603 369.484 318.439 369.042 318.439ZM376.271 322.432C377.039 322.432 377.649 322.696 378.102 323.222C378.554 323.737 378.78 324.432 378.78 325.305C378.78 326.178 378.554 326.878 378.102 327.404C377.649 327.92 377.039 328.177 376.271 328.177C375.503 328.177 374.892 327.92 374.44 327.404C373.988 326.878 373.761 326.178 373.761 325.305C373.761 324.432 373.988 323.737 374.44 323.222C374.892 322.696 375.503 322.432 376.271 322.432ZM376.271 323.427C375.829 323.427 375.487 323.59 375.245 323.916C375.003 324.242 374.882 324.705 374.882 325.305C374.882 325.905 375.003 326.368 375.245 326.694C375.487 327.02 375.829 327.183 376.271 327.183C376.713 327.183 377.055 327.02 377.297 326.694C377.539 326.368 377.66 325.905 377.66 325.305C377.66 324.705 377.539 324.242 377.297 323.916C377.055 323.59 376.713 323.427 376.271 323.427ZM391.252 325.131H386.533L385.428 328.02H384.103L388.159 317.603H389.658L393.698 328.02H392.357L391.252 325.131ZM390.794 323.948L389.39 320.254L388.9 318.802H388.869L388.411 320.207L386.991 323.948H390.794ZM396.85 320.128H399.486V321.217H396.85V328.02H395.588V321.217H394.01V320.128H395.588V318.802C395.588 318.076 395.809 317.498 396.251 317.066C396.693 316.635 397.334 316.419 398.176 316.419C398.46 316.419 398.718 316.451 398.95 316.514C399.192 316.577 399.381 316.667 399.518 316.782L399.186 317.808C398.934 317.65 398.634 317.571 398.287 317.571C397.329 317.571 396.85 318.024 396.85 318.929V320.128ZM401.7 320.128H404.336V321.217H401.7V328.02H400.437V321.217H398.859V320.128H400.437V318.802C400.437 318.076 400.658 317.498 401.1 317.066C401.542 316.635 402.184 316.419 403.026 316.419C403.31 316.419 403.567 316.451 403.799 316.514C404.041 316.577 404.23 316.667 404.367 316.782L404.036 317.808C403.783 317.65 403.483 317.571 403.136 317.571C402.179 317.571 401.7 318.024 401.7 318.929V320.128ZM406.656 318.613C406.372 318.613 406.14 318.529 405.961 318.361C405.793 318.182 405.709 317.95 405.709 317.666C405.709 317.382 405.793 317.156 405.961 316.987C406.14 316.809 406.372 316.719 406.656 316.719C406.94 316.719 407.166 316.809 407.334 316.987C407.513 317.156 407.603 317.382 407.603 317.666C407.603 317.95 407.513 318.182 407.334 318.361C407.166 318.529 406.94 318.613 406.656 318.613ZM407.287 328.02H406.024V320.128H407.287V328.02ZM411.188 325.905C411.188 326.304 411.246 326.583 411.362 326.741C411.488 326.888 411.714 326.962 412.04 326.962C412.261 326.962 412.451 326.946 412.609 326.915C412.777 326.883 412.972 326.825 413.192 326.741L412.987 327.956C412.64 328.104 412.251 328.177 411.819 328.177C411.178 328.177 410.699 328.004 410.383 327.657C410.078 327.309 409.925 326.778 409.925 326.062V316.498H411.188V325.905ZM415.207 318.613C414.923 318.613 414.692 318.529 414.513 318.361C414.345 318.182 414.26 317.95 414.26 317.666C414.26 317.382 414.345 317.156 414.513 316.987C414.692 316.809 414.923 316.719 415.207 316.719C415.491 316.719 415.718 316.809 415.886 316.987C416.065 317.156 416.154 317.382 416.154 317.666C416.154 317.95 416.065 318.182 415.886 318.361C415.718 318.529 415.491 318.613 415.207 318.613ZM415.839 328.02H414.576V320.128H415.839V328.02ZM425.002 327.104C425.213 327.104 425.423 327.078 425.634 327.025L425.555 328.02C425.26 328.125 424.945 328.177 424.608 328.177C424.198 328.177 423.871 328.088 423.629 327.909C423.398 327.73 423.251 327.43 423.187 327.009C422.945 327.378 422.588 327.667 422.114 327.877C421.651 328.077 421.162 328.177 420.646 328.177C419.868 328.177 419.226 327.998 418.721 327.641C418.216 327.272 417.963 326.746 417.963 326.062C417.963 325.463 418.226 324.947 418.753 324.516C419.279 324.074 420.041 323.769 421.041 323.6L423.14 323.253V322.811C423.14 322.285 422.977 321.864 422.651 321.549C422.325 321.233 421.872 321.075 421.294 321.075C420.767 321.075 420.31 321.201 419.92 321.454C419.542 321.706 419.247 322.08 419.037 322.575L418.105 321.896C418.316 321.307 418.705 320.838 419.273 320.491C419.852 320.144 420.525 319.97 421.294 319.97C422.23 319.97 422.982 320.197 423.55 320.649C424.119 321.101 424.403 321.77 424.403 322.653V326.536C424.403 326.725 424.45 326.867 424.545 326.962C424.639 327.057 424.792 327.104 425.002 327.104ZM420.71 327.073C421.372 327.073 421.941 326.915 422.414 326.599C422.898 326.283 423.14 325.873 423.14 325.368V324.279L421.372 324.61C420.667 324.737 420.141 324.921 419.794 325.163C419.447 325.394 419.273 325.694 419.273 326.062C419.273 326.389 419.4 326.641 419.652 326.82C419.905 326.988 420.257 327.073 420.71 327.073ZM431.755 327.467C431.229 327.941 430.551 328.177 429.719 328.177C429.078 328.177 428.552 328.004 428.141 327.657C427.741 327.309 427.536 326.778 427.526 326.062V321.217H425.947V320.128H427.526V318.234L428.788 317.887V320.128H431.708V321.217H428.788V325.842C428.788 326.22 428.893 326.51 429.104 326.71C429.325 326.899 429.614 326.994 429.972 326.994C430.477 326.994 430.924 326.799 431.313 326.41L431.755 327.467ZM433.933 318.613C433.648 318.613 433.417 318.529 433.238 318.361C433.07 318.182 432.986 317.95 432.986 317.666C432.986 317.382 433.07 317.156 433.238 316.987C433.417 316.809 433.648 316.719 433.933 316.719C434.217 316.719 434.443 316.809 434.611 316.987C434.79 317.156 434.879 317.382 434.879 317.666C434.879 317.95 434.79 318.182 434.611 318.361C434.443 318.529 434.217 318.613 433.933 318.613ZM434.564 328.02H433.301V320.128H434.564V328.02ZM440.587 319.97C441.776 319.97 442.707 320.333 443.38 321.059C444.064 321.785 444.406 322.79 444.406 324.074C444.406 325.358 444.064 326.362 443.38 327.088C442.707 327.814 441.776 328.177 440.587 328.177C439.398 328.177 438.461 327.814 437.778 327.088C437.104 326.362 436.767 325.358 436.767 324.074C436.767 322.79 437.104 321.785 437.778 321.059C438.461 320.333 439.398 319.97 440.587 319.97ZM440.587 321.059C439.787 321.059 439.161 321.328 438.709 321.864C438.256 322.401 438.03 323.137 438.03 324.074C438.03 325.01 438.256 325.747 438.709 326.283C439.161 326.82 439.787 327.088 440.587 327.088C441.387 327.088 442.013 326.82 442.465 326.283C442.917 325.747 443.144 325.01 443.144 324.074C443.144 323.137 442.917 322.401 442.465 321.864C442.013 321.328 441.387 321.059 440.587 321.059ZM450.457 319.97C451.352 319.97 452.088 320.228 452.667 320.744C453.246 321.259 453.535 322.001 453.535 322.969V328.02H452.272V323.411C452.272 322.59 452.093 321.996 451.736 321.628C451.388 321.259 450.92 321.075 450.331 321.075C449.91 321.075 449.516 321.17 449.147 321.359C448.779 321.538 448.474 321.838 448.232 322.259C448 322.669 447.885 323.19 447.885 323.821V328.02H446.622V320.128H447.727L447.806 321.359C448.069 320.886 448.432 320.539 448.895 320.318C449.358 320.086 449.879 319.97 450.457 319.97Z" fill="white"/>
<mask id="mask4_807_2553" style="mask-type:alpha" maskUnits="userSpaceOnUse" x="3" y="339" width="220" height="53">
<path d="M3.76563 391.89L3.76562 339.281L23.2308 339.281L23.2308 391.89H3.76563Z" fill="#D9D9D9"/>
<path d="M25.8613 391.89L25.8613 339.281L45.3265 339.281L45.3265 391.89H25.8613Z" fill="#D9D9D9"/>
<path d="M47.9569 391.89V339.281L67.4221 339.281V391.89L47.9569 391.89Z" fill="#D9D9D9"/>
<path d="M70.0526 391.89V339.281L89.5178 339.281V391.89H70.0526Z" fill="#D9D9D9"/>
<path d="M92.1482 391.89V339.281L111.613 339.281V391.89H92.1482Z" fill="#D9D9D9"/>
<path d="M114.244 391.89V339.281L133.709 339.281V391.89H114.244Z" fill="#D9D9D9"/>
<path d="M136.34 391.89V339.281L155.805 339.281V391.89H136.34Z" fill="#D9D9D9"/>
<path d="M158.435 391.89V339.281L177.9 339.281V391.89L158.435 391.89Z" fill="#D9D9D9"/>
<path d="M180.531 391.89V339.281L199.996 339.281V391.89H180.531Z" fill="#D9D9D9"/>
<path d="M202.627 391.89V339.281L222.092 339.281V391.89H202.627Z" fill="#D9D9D9"/>
</mask>
<g mask="url(#mask4_807_2553)">
<path d="M3.76377 391.891V339.282L222.09 339.282L222.09 391.891L3.76377 391.891Z" fill="white" fill-opacity="0.1"/>
<path d="M47.1894 391.891L47.1894 339.282L222.113 339.282L222.113 391.891L47.1894 391.891Z" fill="url(#paint4_linear_807_2553)"/>
</g>
<mask id="mask5_807_2553" style="mask-type:alpha" maskUnits="userSpaceOnUse" x="235" y="339" width="219" height="53">
<path d="M235.242 391.89L235.242 339.281L254.707 339.281L254.707 391.89H235.242Z" fill="#D9D9D9"/>
<path d="M257.338 391.89L257.338 339.281L276.803 339.281L276.803 391.89H257.338Z" fill="#D9D9D9"/>
<path d="M279.433 391.89V339.281L298.899 339.281V391.89L279.433 391.89Z" fill="#D9D9D9"/>
<path d="M301.529 391.89V339.281L320.994 339.281V391.89H301.529Z" fill="#D9D9D9"/>
<path d="M323.625 391.89V339.281L343.09 339.281V391.89H323.625Z" fill="#D9D9D9"/>
<path d="M345.72 391.89V339.281L365.186 339.281V391.89H345.72Z" fill="#D9D9D9"/>
<path d="M367.816 391.89V339.281L387.281 339.281V391.89H367.816Z" fill="#D9D9D9"/>
<path d="M389.912 391.89V339.281L409.377 339.281V391.89L389.912 391.89Z" fill="#D9D9D9"/>
<path d="M412.007 391.89V339.281L431.473 339.281V391.89H412.007Z" fill="#D9D9D9"/>
<path d="M434.103 391.89V339.281L453.568 339.281V391.89H434.103Z" fill="#D9D9D9"/>
</mask>
<g mask="url(#mask5_807_2553)">
<path d="M235.24 391.891V339.282L453.566 339.282L453.566 391.891L235.24 391.891Z" fill="white" fill-opacity="0.1"/>
<path opacity="0.5" d="M278.664 391.891L278.664 339.282L235.262 339.282L235.262 391.891L278.664 391.891Z" fill="url(#paint5_linear_807_2553)"/>
</g>
<defs>
<linearGradient id="paint0_linear_807_2553" x1="222.113" y1="126.277" x2="144.233" y2="61.643" gradientUnits="userSpaceOnUse">
<stop stop-color="#0077A9"/>
<stop offset="1" stop-color="#25F5F8"/>
</linearGradient>
<linearGradient id="paint1_linear_807_2553" x1="235.262" y1="126.277" x2="302.033" y2="89.7037" gradientUnits="userSpaceOnUse">
<stop stop-color="#0077A9"/>
<stop offset="1" stop-color="#25F5F8"/>
</linearGradient>
<linearGradient id="paint2_linear_807_2553" x1="222.113" y1="248.234" x2="166.013" y2="224.955" gradientUnits="userSpaceOnUse">
<stop stop-color="#0077A9"/>
<stop offset="1" stop-color="#25F5F8"/>
</linearGradient>
<linearGradient id="paint3_linear_807_2553" x1="235.262" y1="248.234" x2="314.465" y2="171.328" gradientUnits="userSpaceOnUse">
<stop stop-color="#0077A9"/>
<stop offset="1" stop-color="#25F5F8"/>
</linearGradient>
<linearGradient id="paint4_linear_807_2553" x1="222.113" y1="370.19" x2="143.261" y2="283.152" gradientUnits="userSpaceOnUse">
<stop stop-color="#0077A9"/>
<stop offset="1" stop-color="#25F5F8"/>
</linearGradient>
<linearGradient id="paint5_linear_807_2553" x1="235.262" y1="370.19" x2="275.636" y2="359.132" gradientUnits="userSpaceOnUse">
<stop stop-color="#0077A9"/>
<stop offset="1" stop-color="#25F5F8"/>
</linearGradient>
</defs>
</svg>
