<svg width="460" height="460" viewBox="0 0 460 460" fill="none" xmlns="http://www.w3.org/2000/svg">
<path opacity="0.3" d="M418.423 40.2344H40.2305V418.425H418.423V40.2344Z" fill="white" fill-opacity="0.2"/>
<path d="M121.16 121.164L335.017 125.775L342.894 342.897L102.48 357.556L121.16 121.164Z" fill="url(#paint0_linear_807_2121)" stroke="#05D8B5" stroke-width="1.55635" stroke-miterlimit="10"/>
<path d="M63.0312 63.0332L394.285 64.3743L286.326 286.328L145.509 313.15L63.0312 63.0332Z" fill="url(#paint1_linear_807_2121)"/>
<path d="M337.494 121.164H119.605V339.053H337.494V121.164Z" fill="white" fill-opacity="0.2"/>
<path d="M419.095 40.9043L40.9023 419.095" stroke="white" stroke-opacity="0.4" stroke-width="1.34111" stroke-miterlimit="10"/>
<path d="M419.095 419.095L40.9023 40.9043" stroke="white" stroke-opacity="0.4" stroke-width="1.34111" stroke-miterlimit="10"/>
<g filter="url(#filter0_d_807_2121)">
<path d="M52.0214 220.579H49.4787V224.988H48.1912V214.367H52.2145C53.2981 214.367 54.1672 214.646 54.8216 215.204C55.4761 215.761 55.8033 216.518 55.8033 217.473C55.8033 218.224 55.5941 218.857 55.1757 219.372C54.7573 219.887 54.1833 220.241 53.4537 220.434L56.4471 224.988H54.9182L52.0214 220.579ZM49.4787 219.372H52.1984C53.7005 219.372 54.4515 218.739 54.4515 217.473C54.4515 216.207 53.7005 215.574 52.1984 215.574H49.4787V219.372ZM65.2893 220.547C65.2893 220.847 65.2679 221.147 65.2249 221.448H59.1578C59.2329 222.263 59.5011 222.896 59.9624 223.347C60.4345 223.797 61.0407 224.023 61.781 224.023C62.3711 224.023 62.8592 223.921 63.2455 223.717C63.6424 223.513 63.9107 223.218 64.0501 222.832L65.1284 223.395C64.8065 223.964 64.3774 224.398 63.8409 224.699C63.3045 224.999 62.6178 225.149 61.781 225.149C60.5686 225.149 59.6138 224.779 58.9164 224.039C58.2297 223.298 57.8864 222.274 57.8864 220.965C57.8864 219.656 58.2136 218.631 58.8681 217.891C59.5333 217.151 60.4721 216.781 61.6844 216.781C62.4354 216.781 63.0845 216.947 63.6317 217.28C64.1789 217.612 64.5919 218.063 64.8709 218.631C65.1498 219.2 65.2893 219.838 65.2893 220.547ZM61.6844 217.907C60.9763 217.907 60.4023 218.116 59.9624 218.535C59.5333 218.953 59.2704 219.543 59.1739 220.305H64.0501C63.9643 219.554 63.7175 218.969 63.3098 218.551C62.9021 218.122 62.3603 217.907 61.6844 217.907ZM70.4722 225.149C69.6998 225.149 69.0024 224.999 68.3801 224.699C67.7578 224.387 67.3019 223.931 67.0122 223.331L68.0582 222.606C68.2406 223.079 68.5571 223.433 69.0078 223.669C69.4584 223.905 69.9894 224.023 70.601 224.023C71.234 224.023 71.7168 223.91 72.0494 223.685C72.382 223.459 72.5483 223.175 72.5483 222.832C72.5483 222.521 72.3927 222.274 72.0816 222.091C71.7704 221.898 71.2233 221.732 70.4401 221.593C69.6676 221.453 69.056 221.287 68.6054 221.094C68.1548 220.89 67.8276 220.638 67.6237 220.337C67.4199 220.026 67.318 219.645 67.318 219.195C67.318 218.755 67.4467 218.352 67.7042 217.988C67.9617 217.623 68.3318 217.333 68.8146 217.119C69.2974 216.893 69.8553 216.781 70.4883 216.781C71.3466 216.781 72.0333 216.942 72.5483 217.263C73.074 217.575 73.4495 218.057 73.6748 218.712L72.5805 219.356C72.4088 218.841 72.1459 218.47 71.7919 218.245C71.4486 218.02 71.014 217.907 70.4883 217.907C69.9626 217.907 69.5174 218.025 69.1526 218.261C68.7878 218.497 68.6054 218.771 68.6054 219.082C68.6054 219.436 68.761 219.71 69.0721 219.903C69.394 220.096 69.9626 220.262 70.778 220.402C71.8938 220.584 72.6824 220.858 73.1437 221.222C73.6051 221.587 73.8357 222.102 73.8357 222.767C73.8357 223.229 73.6963 223.642 73.4173 224.007C73.1491 224.361 72.7575 224.64 72.2425 224.843C71.7382 225.047 71.1482 225.149 70.4722 225.149ZM83.1915 216.942V224.988H82.0649L81.9845 223.765C81.448 224.688 80.4878 225.149 79.1038 225.149C78.2347 225.149 77.5213 224.908 76.9634 224.425C76.4162 223.942 76.1426 223.202 76.1426 222.204V216.942H77.4301V221.866C77.4301 222.649 77.591 223.207 77.9129 223.54C78.2347 223.862 78.7068 224.023 79.3291 224.023C80.0694 224.023 80.6809 223.797 81.1637 223.347C81.6572 222.896 81.904 222.22 81.904 221.319V216.942H83.1915ZM87.4102 222.832C87.4102 223.239 87.4692 223.524 87.5872 223.685C87.716 223.835 87.9466 223.91 88.2792 223.91C88.5045 223.91 88.6976 223.894 88.8586 223.862C89.0302 223.83 89.2287 223.771 89.454 223.685L89.2448 224.924C88.8908 225.074 88.4938 225.149 88.0539 225.149C87.3995 225.149 86.9113 224.972 86.5894 224.618C86.2783 224.264 86.1227 223.722 86.1227 222.993V213.24H87.4102V222.832ZM95.7165 224.425C95.18 224.908 94.488 225.149 93.6404 225.149C92.986 225.149 92.4495 224.972 92.0311 224.618C91.6234 224.264 91.4142 223.722 91.4035 222.993V218.052H89.7941V216.942H91.4035V215.01L92.6909 214.656V216.942H95.6682V218.052H92.6909V222.767C92.6909 223.154 92.7982 223.449 93.0128 223.653C93.2381 223.846 93.5331 223.942 93.8979 223.942C94.4129 223.942 94.8689 223.744 95.2658 223.347L95.7165 224.425ZM100.27 225.149C99.4975 225.149 98.8001 224.999 98.1779 224.699C97.5556 224.387 97.0996 223.931 96.8099 223.331L97.856 222.606C98.0384 223.079 98.3549 223.433 98.8055 223.669C99.2561 223.905 99.7872 224.023 100.399 224.023C101.032 224.023 101.515 223.91 101.847 223.685C102.18 223.459 102.346 223.175 102.346 222.832C102.346 222.521 102.19 222.274 101.879 222.091C101.568 221.898 101.021 221.732 100.238 221.593C99.4653 221.453 98.8538 221.287 98.4032 221.094C97.9525 220.89 97.6253 220.638 97.4215 220.337C97.2176 220.026 97.1157 219.645 97.1157 219.195C97.1157 218.755 97.2444 218.352 97.5019 217.988C97.7594 217.623 98.1296 217.333 98.6124 217.119C99.0952 216.893 99.6531 216.781 100.286 216.781C101.144 216.781 101.831 216.942 102.346 217.263C102.872 217.575 103.247 218.057 103.473 218.712L102.378 219.356C102.207 218.841 101.944 218.47 101.59 218.245C101.246 218.02 100.812 217.907 100.286 217.907C99.7604 217.907 99.3151 218.025 98.9503 218.261C98.5856 218.497 98.4032 218.771 98.4032 219.082C98.4032 219.436 98.5587 219.71 98.8699 219.903C99.1917 220.096 99.7604 220.262 100.576 220.402C101.692 220.584 102.48 220.858 102.941 221.222C103.403 221.587 103.633 222.102 103.633 222.767C103.633 223.229 103.494 223.642 103.215 224.007C102.947 224.361 102.555 224.64 102.04 224.843C101.536 225.047 100.946 225.149 100.27 225.149ZM51.6191 236.367C53.2928 236.367 54.6017 236.828 55.5458 237.751C56.49 238.673 56.962 239.982 56.962 241.677C56.962 243.373 56.49 244.682 55.5458 245.604C54.6017 246.527 53.2928 246.988 51.6191 246.988H48.1912V236.367H51.6191ZM51.7478 245.781C52.9602 245.781 53.9043 245.422 54.5802 244.703C55.2669 243.973 55.6102 242.965 55.6102 241.677C55.6102 240.39 55.2669 239.387 54.5802 238.668C53.9043 237.938 52.9602 237.574 51.7478 237.574H49.4787V245.781H51.7478ZM63.2677 238.781C63.654 238.781 63.949 238.834 64.1529 238.942L63.8954 240.197C63.6379 240.057 63.2999 239.988 62.8815 239.988C62.5382 239.988 62.2002 240.09 61.8676 240.293C61.5457 240.487 61.2775 240.787 61.0629 241.195C60.8591 241.592 60.7572 242.074 60.7572 242.643V246.988H59.4697V238.942H60.5158L60.6928 240.261C61.1434 239.274 62.0017 238.781 63.2677 238.781ZM66.6828 237.397C66.3931 237.397 66.1571 237.311 65.9747 237.139C65.803 236.957 65.7172 236.721 65.7172 236.431C65.7172 236.141 65.803 235.911 65.9747 235.739C66.1571 235.557 66.3931 235.465 66.6828 235.465C66.9725 235.465 67.2031 235.557 67.3748 235.739C67.5572 235.911 67.6484 236.141 67.6484 236.431C67.6484 236.721 67.5572 236.957 67.3748 237.139C67.2031 237.311 66.9725 237.397 66.6828 237.397ZM67.3265 246.988H66.039V238.942H67.3265V246.988ZM76.9925 238.942L73.6451 246.988H72.3577L69.0103 238.942H70.4748L73.0175 245.685L75.6407 238.942H76.9925ZM85.5788 242.547C85.5788 242.847 85.5574 243.147 85.5144 243.448H79.4473C79.5224 244.263 79.7906 244.896 80.2519 245.347C80.724 245.797 81.3302 246.023 82.0705 246.023C82.6606 246.023 83.1487 245.921 83.535 245.717C83.9319 245.513 84.2002 245.218 84.3396 244.832L85.4179 245.395C85.096 245.964 84.6669 246.398 84.1304 246.699C83.594 246.999 82.9073 247.149 82.0705 247.149C80.8581 247.149 79.9032 246.779 79.2059 246.039C78.5192 245.298 78.1759 244.274 78.1759 242.965C78.1759 241.656 78.5031 240.631 79.1576 239.891C79.8228 239.151 80.7616 238.781 81.9739 238.781C82.7249 238.781 83.374 238.947 83.9212 239.28C84.4684 239.612 84.8814 240.063 85.1604 240.631C85.4393 241.2 85.5788 241.838 85.5788 242.547ZM81.9739 239.907C81.2658 239.907 80.6918 240.116 80.2519 240.535C79.8228 240.953 79.5599 241.543 79.4634 242.305H84.3396C84.2538 241.554 84.007 240.969 83.5993 240.551C83.1916 240.122 82.6498 239.907 81.9739 239.907ZM91.9365 238.781C92.8485 238.781 93.5995 239.044 94.1896 239.569C94.7797 240.095 95.0747 240.851 95.0747 241.838V246.988H93.7873V242.289C93.7873 241.452 93.6049 240.846 93.2401 240.47C92.886 240.095 92.4086 239.907 91.8078 239.907C91.3786 239.907 90.9763 240.004 90.6008 240.197C90.2253 240.379 89.9142 240.685 89.6674 241.114C89.4314 241.533 89.3133 242.064 89.3133 242.707V246.988H88.0259V238.942H89.1524L89.2329 240.197C89.5011 239.714 89.8712 239.36 90.3433 239.135C90.8154 238.899 91.3465 238.781 91.9365 238.781Z" fill="#FAFAFA"/>
</g>
<g filter="url(#filter1_d_807_2121)">
<path d="M364.453 214.367C365.526 214.367 366.389 214.662 367.044 215.252C367.698 215.831 368.025 216.614 368.025 217.601C368.025 218.589 367.698 219.377 367.044 219.967C366.389 220.547 365.526 220.836 364.453 220.836H361.991V224.988H360.703V214.367H364.453ZM364.26 219.629C365.086 219.629 365.692 219.463 366.078 219.13C366.475 218.787 366.674 218.277 366.674 217.601C366.674 216.926 366.475 216.421 366.078 216.089C365.692 215.745 365.086 215.574 364.26 215.574H361.991V219.629H364.26ZM377.047 220.547C377.047 220.847 377.025 221.147 376.982 221.448H370.915C370.99 222.263 371.259 222.896 371.72 223.347C372.192 223.797 372.798 224.023 373.538 224.023C374.129 224.023 374.617 223.921 375.003 223.717C375.4 223.513 375.668 223.218 375.808 222.832L376.886 223.395C376.564 223.964 376.135 224.398 375.598 224.699C375.062 224.999 374.375 225.149 373.538 225.149C372.326 225.149 371.371 224.779 370.674 224.039C369.987 223.298 369.644 222.274 369.644 220.965C369.644 219.656 369.971 218.631 370.626 217.891C371.291 217.151 372.23 216.781 373.442 216.781C374.193 216.781 374.842 216.947 375.389 217.28C375.936 217.612 376.349 218.063 376.628 218.631C376.907 219.2 377.047 219.838 377.047 220.547ZM373.442 217.907C372.734 217.907 372.16 218.116 371.72 218.535C371.291 218.953 371.028 219.543 370.931 220.305H375.808C375.722 219.554 375.475 218.969 375.067 218.551C374.66 218.122 374.118 217.907 373.442 217.907ZM382.89 216.781C384.102 216.781 385.051 217.151 385.738 217.891C386.435 218.631 386.784 219.656 386.784 220.965C386.784 222.274 386.435 223.298 385.738 224.039C385.051 224.779 384.102 225.149 382.89 225.149C381.677 225.149 380.722 224.779 380.025 224.039C379.338 223.298 378.995 222.274 378.995 220.965C378.995 219.656 379.338 218.631 380.025 217.891C380.722 217.151 381.677 216.781 382.89 216.781ZM382.89 217.891C382.074 217.891 381.436 218.165 380.974 218.712C380.513 219.259 380.282 220.01 380.282 220.965C380.282 221.92 380.513 222.671 380.974 223.218C381.436 223.765 382.074 224.039 382.89 224.039C383.705 224.039 384.343 223.765 384.805 223.218C385.266 222.671 385.497 221.92 385.497 220.965C385.497 220.01 385.266 219.259 384.805 218.712C384.343 218.165 383.705 217.891 382.89 217.891ZM393.244 216.781C394.37 216.781 395.261 217.156 395.915 217.907C396.581 218.648 396.913 219.667 396.913 220.965C396.913 222.263 396.581 223.288 395.915 224.039C395.261 224.779 394.37 225.149 393.244 225.149C392.654 225.149 392.123 225.02 391.651 224.763C391.189 224.505 390.83 224.162 390.572 223.733V228.368H389.285V216.942H390.412L390.492 218.342C390.728 217.87 391.087 217.494 391.57 217.215C392.064 216.926 392.622 216.781 393.244 216.781ZM393.099 224.023C393.882 224.023 394.499 223.749 394.95 223.202C395.4 222.644 395.626 221.898 395.626 220.965C395.626 220.032 395.4 219.291 394.95 218.744C394.499 218.186 393.882 217.907 393.099 217.907C392.327 217.907 391.71 218.175 391.248 218.712C390.798 219.248 390.572 219.967 390.572 220.868V221.062C390.572 221.963 390.798 222.682 391.248 223.218C391.71 223.754 392.327 224.023 393.099 224.023ZM400.645 222.832C400.645 223.239 400.704 223.524 400.822 223.685C400.951 223.835 401.181 223.91 401.514 223.91C401.739 223.91 401.932 223.894 402.093 223.862C402.265 223.83 402.464 223.771 402.689 223.685L402.48 224.924C402.126 225.074 401.729 225.149 401.289 225.149C400.634 225.149 400.146 224.972 399.824 224.618C399.513 224.264 399.357 223.722 399.357 222.993V213.24H400.645V222.832ZM411.245 220.547C411.245 220.847 411.224 221.147 411.181 221.448H405.113C405.189 222.263 405.457 222.896 405.918 223.347C406.39 223.797 406.996 224.023 407.737 224.023C408.327 224.023 408.815 223.921 409.201 223.717C409.598 223.513 409.866 223.218 410.006 222.832L411.084 223.395C410.762 223.964 410.333 224.398 409.797 224.699C409.26 224.999 408.574 225.149 407.737 225.149C406.524 225.149 405.569 224.779 404.872 224.039C404.185 223.298 403.842 222.274 403.842 220.965C403.842 219.656 404.169 218.631 404.824 217.891C405.489 217.151 406.428 216.781 407.64 216.781C408.391 216.781 409.04 216.947 409.587 217.28C410.135 217.612 410.548 218.063 410.827 218.631C411.106 219.2 411.245 219.838 411.245 220.547ZM407.64 217.907C406.932 217.907 406.358 218.116 405.918 218.535C405.489 218.953 405.226 219.543 405.13 220.305H410.006C409.92 219.554 409.673 218.969 409.266 218.551C408.858 218.122 408.316 217.907 407.64 217.907ZM367.321 236.367C368.995 236.367 370.304 236.828 371.248 237.751C372.192 238.673 372.664 239.982 372.664 241.677C372.664 243.373 372.192 244.682 371.248 245.604C370.304 246.527 368.995 246.988 367.321 246.988H363.893V236.367H367.321ZM367.45 245.781C368.662 245.781 369.607 245.422 370.282 244.703C370.969 243.973 371.312 242.965 371.312 241.677C371.312 240.39 370.969 239.387 370.282 238.668C369.607 237.938 368.662 237.574 367.45 237.574H365.181V245.781H367.45ZM378.97 238.781C379.356 238.781 379.651 238.834 379.855 238.942L379.598 240.197C379.34 240.057 379.002 239.988 378.584 239.988C378.24 239.988 377.902 240.09 377.57 240.293C377.248 240.487 376.98 240.787 376.765 241.195C376.561 241.592 376.459 242.074 376.459 242.643V246.988H375.172V238.942H376.218L376.395 240.261C376.846 239.274 377.704 238.781 378.97 238.781ZM382.385 237.397C382.095 237.397 381.859 237.311 381.677 237.139C381.505 236.957 381.419 236.721 381.419 236.431C381.419 236.141 381.505 235.911 381.677 235.739C381.859 235.557 382.095 235.465 382.385 235.465C382.675 235.465 382.905 235.557 383.077 235.739C383.259 235.911 383.351 236.141 383.351 236.431C383.351 236.721 383.259 236.957 383.077 237.139C382.905 237.311 382.675 237.397 382.385 237.397ZM383.029 246.988H381.741V238.942H383.029V246.988ZM392.695 238.942L389.347 246.988H388.06L384.712 238.942H386.177L388.72 245.685L391.343 238.942H392.695ZM401.281 242.547C401.281 242.847 401.26 243.147 401.217 243.448H395.149C395.225 244.263 395.493 244.896 395.954 245.347C396.426 245.797 397.032 246.023 397.773 246.023C398.363 246.023 398.851 245.921 399.237 245.717C399.634 245.513 399.902 245.218 400.042 244.832L401.12 245.395C400.798 245.964 400.369 246.398 399.833 246.699C399.296 246.999 398.61 247.149 397.773 247.149C396.56 247.149 395.605 246.779 394.908 246.039C394.221 245.298 393.878 244.274 393.878 242.965C393.878 241.656 394.205 240.631 394.86 239.891C395.525 239.151 396.464 238.781 397.676 238.781C398.427 238.781 399.076 238.947 399.623 239.28C400.171 239.612 400.584 240.063 400.863 240.631C401.142 241.2 401.281 241.838 401.281 242.547ZM397.676 239.907C396.968 239.907 396.394 240.116 395.954 240.535C395.525 240.953 395.262 241.543 395.166 242.305H400.042C399.956 241.554 399.709 240.969 399.302 240.551C398.894 240.122 398.352 239.907 397.676 239.907ZM407.639 238.781C408.551 238.781 409.302 239.044 409.892 239.569C410.482 240.095 410.777 240.851 410.777 241.838V246.988H409.489V242.289C409.489 241.452 409.307 240.846 408.942 240.47C408.588 240.095 408.111 239.907 407.51 239.907C407.081 239.907 406.679 240.004 406.303 240.197C405.928 240.379 405.616 240.685 405.37 241.114C405.134 241.533 405.016 242.064 405.016 242.707V246.988H403.728V238.942H404.855L404.935 240.197C405.203 239.714 405.573 239.36 406.046 239.135C406.518 238.899 407.049 238.781 407.639 238.781Z" fill="#FAFAFA"/>
</g>
<g filter="url(#filter2_d_807_2121)">
<path d="M188.451 51.8355H192.233C193.456 51.8355 194.363 52.0929 194.953 52.6079C195.554 53.1122 195.854 53.831 195.854 54.7644C195.854 55.3223 195.693 55.8159 195.371 56.245C195.06 56.6742 194.626 56.9424 194.068 57.0497V57.0658C194.69 57.1838 195.189 57.4681 195.564 57.9187C195.94 58.3693 196.128 58.8897 196.128 59.4798C196.128 60.3917 195.784 61.1159 195.098 61.6524C194.411 62.1888 193.451 62.457 192.217 62.457H188.451V51.8355ZM192.249 56.5025C193.011 56.5025 193.574 56.363 193.939 56.0841C194.314 55.7944 194.502 55.3545 194.502 54.7644C194.502 53.6164 193.751 53.0425 192.249 53.0425H189.739V56.5025H192.249ZM192.523 61.25C193.274 61.25 193.837 61.0998 194.213 60.7994C194.588 60.4883 194.776 60.0484 194.776 59.4798C194.776 58.9111 194.588 58.4766 194.213 58.1762C193.837 57.8651 193.274 57.7095 192.523 57.7095H189.739V61.25H192.523ZM199.368 52.8654C199.078 52.8654 198.842 52.7796 198.659 52.6079C198.488 52.4255 198.402 52.1895 198.402 51.8998C198.402 51.6102 198.488 51.3795 198.659 51.2078C198.842 51.0254 199.078 50.9342 199.368 50.9342C199.657 50.9342 199.888 51.0254 200.06 51.2078C200.242 51.3795 200.333 51.6102 200.333 51.8998C200.333 52.1895 200.242 52.4255 200.06 52.6079C199.888 52.7796 199.657 52.8654 199.368 52.8654ZM200.011 62.457H198.724V54.4104H200.011V62.457ZM207.489 61.4271C208.25 61.4271 208.846 61.5987 209.275 61.942C209.704 62.2854 209.919 62.7521 209.919 63.3422C209.919 63.8571 209.742 64.3078 209.388 64.694C209.034 65.091 208.551 65.3914 207.939 65.5952C207.338 65.8098 206.673 65.9171 205.944 65.9171C204.721 65.9171 203.798 65.7186 203.176 65.3216C202.553 64.9354 202.242 64.4258 202.242 63.7928C202.242 63.428 202.366 63.1061 202.612 62.8272C202.87 62.5482 203.219 62.3497 203.658 62.2317C203.326 62.0708 203.058 61.8669 202.854 61.6202C202.661 61.3734 202.564 61.0837 202.564 60.7511C202.564 60.3542 202.671 60.0269 202.886 59.7695C203.1 59.5012 203.396 59.3027 203.771 59.174C203.385 58.938 203.09 58.6322 202.886 58.2567C202.693 57.8704 202.596 57.4413 202.596 56.9692C202.596 56.4435 202.736 55.9768 203.015 55.5691C203.294 55.1507 203.685 54.8288 204.189 54.6035C204.694 54.3675 205.262 54.2495 205.895 54.2495C206.496 54.2495 207.043 54.3567 207.537 54.5713C207.837 53.477 208.594 52.9298 209.806 52.9298L210.096 54.0563C209.044 54.0563 208.406 54.3514 208.181 54.9415C208.502 55.1882 208.749 55.4833 208.921 55.8266C209.103 56.1699 209.194 56.5508 209.194 56.9692C209.194 57.4949 209.055 57.967 208.776 58.3854C208.497 58.7931 208.106 59.115 207.601 59.351C207.097 59.5763 206.528 59.689 205.895 59.689C205.423 59.689 205.01 59.6407 204.656 59.5441C204.334 59.6192 204.104 59.7373 203.964 59.8982C203.825 60.0591 203.755 60.2791 203.755 60.558C203.755 60.837 203.852 61.0516 204.045 61.2018C204.238 61.352 204.495 61.4271 204.817 61.4271H207.489ZM205.895 55.2955C205.337 55.2955 204.871 55.4511 204.495 55.7622C204.12 56.0734 203.932 56.4757 203.932 56.9692C203.932 57.4627 204.12 57.8651 204.495 58.1762C204.871 58.4874 205.337 58.6429 205.895 58.6429C206.453 58.6429 206.92 58.4874 207.295 58.1762C207.671 57.8651 207.859 57.4627 207.859 56.9692C207.859 56.4757 207.671 56.0734 207.295 55.7622C206.92 55.4511 206.453 55.2955 205.895 55.2955ZM206.088 64.8388C206.904 64.8388 207.548 64.7047 208.02 64.4365C208.492 64.179 208.728 63.8625 208.728 63.487C208.728 63.1759 208.604 62.9398 208.358 62.7789C208.122 62.618 207.714 62.5375 207.135 62.5375H204.978C204.485 62.5375 204.104 62.6233 203.835 62.795C203.567 62.9774 203.433 63.2241 203.433 63.5353C203.433 63.943 203.658 64.2595 204.109 64.4848C204.56 64.7208 205.219 64.8388 206.088 64.8388ZM221.307 51.8355C222.38 51.8355 223.244 52.1305 223.898 52.7206C224.553 53.2999 224.88 54.0832 224.88 55.0702C224.88 56.0573 224.553 56.8458 223.898 57.4359C223.244 58.0153 222.38 58.305 221.307 58.305H218.845V62.457H217.557V51.8355H221.307ZM221.114 57.098C221.94 57.098 222.546 56.9317 222.932 56.5991C223.329 56.2557 223.528 55.7461 223.528 55.0702C223.528 54.3943 223.329 53.89 222.932 53.5574C222.546 53.2141 221.94 53.0425 221.114 53.0425H218.845V57.098H221.114ZM227.782 52.8654C227.493 52.8654 227.257 52.7796 227.074 52.6079C226.902 52.4255 226.817 52.1895 226.817 51.8998C226.817 51.6102 226.902 51.3795 227.074 51.2078C227.257 51.0254 227.493 50.9342 227.782 50.9342C228.072 50.9342 228.303 51.0254 228.474 51.2078C228.657 51.3795 228.748 51.6102 228.748 51.8998C228.748 52.1895 228.657 52.4255 228.474 52.6079C228.303 52.7796 228.072 52.8654 227.782 52.8654ZM228.426 62.457H227.139V54.4104H228.426V62.457ZM234.809 54.2495C235.614 54.2495 236.29 54.4372 236.837 54.8127C237.395 55.1775 237.829 55.7032 238.14 56.3899L236.917 56.9692C236.574 55.9071 235.86 55.376 234.777 55.376C233.972 55.376 233.339 55.6496 232.878 56.1967C232.427 56.7332 232.202 57.4788 232.202 58.4337C232.202 59.3886 232.427 60.1396 232.878 60.6868C233.339 61.2232 233.972 61.4914 234.777 61.4914C235.399 61.4914 235.898 61.352 236.273 61.073C236.66 60.7833 236.912 60.3703 237.03 59.8338L238.221 60.2522C237.942 61.0033 237.513 61.588 236.933 62.0064C236.354 62.4141 235.646 62.618 234.809 62.618C233.597 62.618 232.642 62.2478 231.944 61.5075C231.258 60.7672 230.914 59.7426 230.914 58.4337C230.914 57.1248 231.258 56.1002 231.944 55.3599C232.642 54.6196 233.597 54.2495 234.809 54.2495ZM245.422 61.8938C244.885 62.3766 244.193 62.618 243.346 62.618C242.691 62.618 242.155 62.4409 241.736 62.0869C241.329 61.7328 241.119 61.191 241.109 60.4615V55.5208H239.499V54.4104H241.109V52.4792L242.396 52.1251V54.4104H245.373V55.5208H242.396V60.2362C242.396 60.6224 242.503 60.9174 242.718 61.1213C242.943 61.3144 243.238 61.411 243.603 61.411C244.118 61.411 244.574 61.2125 244.971 60.8155L245.422 61.8938ZM254.208 54.4104V62.457H253.081L253.001 61.2339C252.464 62.1566 251.504 62.618 250.12 62.618C249.251 62.618 248.538 62.3766 247.98 61.8938C247.433 61.411 247.159 60.6707 247.159 59.6729V54.4104H248.446V59.3349C248.446 60.1181 248.607 60.676 248.929 61.0086C249.251 61.3305 249.723 61.4914 250.345 61.4914C251.086 61.4914 251.697 61.2661 252.18 60.8155C252.674 60.3649 252.92 59.689 252.92 58.7878V54.4104H254.208ZM261.001 54.2495C261.388 54.2495 261.683 54.3031 261.887 54.4104L261.629 55.6657C261.372 55.5262 261.034 55.4564 260.615 55.4564C260.272 55.4564 259.934 55.5584 259.601 55.7622C259.279 55.9553 259.011 56.2557 258.797 56.6634C258.593 57.0604 258.491 57.5432 258.491 58.1118V62.457H257.203V54.4104H258.249L258.427 55.73C258.877 54.743 259.735 54.2495 261.001 54.2495ZM270.425 58.0153C270.425 58.3157 270.404 58.6161 270.361 58.9165H264.294C264.369 59.7319 264.637 60.3649 265.098 60.8155C265.571 61.2661 266.177 61.4914 266.917 61.4914C267.507 61.4914 267.995 61.3895 268.381 61.1857C268.778 60.9818 269.047 60.6868 269.186 60.3005L270.264 60.8638C269.943 61.4324 269.513 61.8669 268.977 62.1674C268.44 62.4678 267.754 62.618 266.917 62.618C265.705 62.618 264.75 62.2478 264.052 61.5075C263.366 60.7672 263.022 59.7426 263.022 58.4337C263.022 57.1248 263.35 56.1002 264.004 55.3599C264.669 54.6196 265.608 54.2495 266.82 54.2495C267.571 54.2495 268.221 54.4157 268.768 54.7483C269.315 55.0809 269.728 55.5316 270.007 56.1002C270.286 56.6688 270.425 57.3072 270.425 58.0153ZM266.82 55.376C266.112 55.376 265.538 55.5852 265.098 56.0036C264.669 56.422 264.406 57.0121 264.31 57.7739H269.186C269.1 57.0229 268.854 56.4381 268.446 56.0197C268.038 55.5906 267.496 55.376 266.82 55.376ZM200.944 73.6745C201.941 73.6745 202.81 73.8998 203.551 74.3504C204.291 74.7903 204.86 75.4233 205.257 76.2495C205.664 77.0648 205.868 78.0304 205.868 79.1462C205.868 80.262 205.664 81.233 205.257 82.0591C204.86 82.8745 204.291 83.5075 203.551 83.9581C202.81 84.398 201.941 84.618 200.944 84.618C199.946 84.618 199.077 84.398 198.336 83.9581C197.596 83.5075 197.022 82.8745 196.614 82.0591C196.218 81.233 196.019 80.262 196.019 79.1462C196.019 78.0304 196.218 77.0648 196.614 76.2495C197.022 75.4233 197.596 74.7903 198.336 74.3504C199.077 73.8998 199.946 73.6745 200.944 73.6745ZM200.944 74.8815C199.839 74.8815 198.964 75.2624 198.32 76.0241C197.687 76.7752 197.371 77.8159 197.371 79.1462C197.371 80.4766 197.687 81.5227 198.32 82.2844C198.964 83.0355 199.839 83.411 200.944 83.411C202.049 83.411 202.918 83.0355 203.551 82.2844C204.194 81.5227 204.516 80.4766 204.516 79.1462C204.516 77.8159 204.194 76.7752 203.551 76.0241C202.918 75.2624 202.049 74.8815 200.944 74.8815ZM212.179 76.2495C212.566 76.2495 212.861 76.3031 213.064 76.4104L212.807 77.6657C212.549 77.5262 212.212 77.4564 211.793 77.4564C211.45 77.4564 211.112 77.5584 210.779 77.7622C210.457 77.9553 210.189 78.2557 209.975 78.6634C209.771 79.0604 209.669 79.5432 209.669 80.1118V84.457H208.381V76.4104H209.427L209.604 77.73C210.055 76.743 210.913 76.2495 212.179 76.2495ZM215.594 74.8654C215.305 74.8654 215.069 74.7796 214.886 74.6079C214.715 74.4255 214.629 74.1895 214.629 73.8998C214.629 73.6102 214.715 73.3795 214.886 73.2078C215.069 73.0254 215.305 72.9342 215.594 72.9342C215.884 72.9342 216.115 73.0254 216.286 73.2078C216.469 73.3795 216.56 73.6102 216.56 73.8998C216.56 74.1895 216.469 74.4255 216.286 74.6079C216.115 74.7796 215.884 74.8654 215.594 74.8654ZM216.238 84.457H214.951V76.4104H216.238V84.457ZM226.129 80.0153C226.129 80.3157 226.108 80.6161 226.065 80.9165H219.998C220.073 81.7319 220.341 82.3649 220.803 82.8155C221.275 83.2661 221.881 83.4914 222.621 83.4914C223.211 83.4914 223.699 83.3895 224.086 83.1857C224.483 82.9818 224.751 82.6868 224.89 82.3005L225.969 82.8638C225.647 83.4324 225.218 83.8669 224.681 84.1674C224.145 84.4678 223.458 84.618 222.621 84.618C221.409 84.618 220.454 84.2478 219.757 83.5075C219.07 82.7672 218.727 81.7426 218.727 80.4337C218.727 79.1248 219.054 78.1002 219.708 77.3599C220.373 76.6196 221.312 76.2495 222.525 76.2495C223.276 76.2495 223.925 76.4157 224.472 76.7483C225.019 77.0809 225.432 77.5316 225.711 78.1002C225.99 78.6688 226.129 79.3072 226.129 80.0153ZM222.525 77.376C221.816 77.376 221.242 77.5852 220.803 78.0036C220.373 78.422 220.111 79.0121 220.014 79.7739H224.89C224.804 79.0229 224.558 78.4381 224.15 78.0197C223.742 77.5906 223.2 77.376 222.525 77.376ZM232.487 76.2495C233.399 76.2495 234.15 76.5123 234.74 77.038C235.33 77.5637 235.625 78.3201 235.625 79.3072V84.457H234.338V79.7578C234.338 78.9209 234.156 78.3148 233.791 77.9392C233.437 77.5637 232.959 77.376 232.358 77.376C231.929 77.376 231.527 77.4725 231.151 77.6657C230.776 77.8481 230.465 78.1538 230.218 78.583C229.982 79.0014 229.864 79.5325 229.864 80.1762V84.457H228.577V76.4104H229.703L229.784 77.6657C230.052 77.1829 230.422 76.8288 230.894 76.6035C231.366 76.3675 231.897 76.2495 232.487 76.2495ZM243.355 83.8938C242.819 84.3766 242.127 84.618 241.279 84.618C240.625 84.618 240.088 84.4409 239.67 84.0869C239.262 83.7328 239.053 83.191 239.042 82.4615V77.5208H237.433V76.4104H239.042V74.4792L240.33 74.1251V76.4104H243.307V77.5208H240.33V82.2362C240.33 82.6224 240.437 82.9174 240.651 83.1213C240.877 83.3144 241.172 83.411 241.537 83.411C242.052 83.411 242.507 83.2125 242.904 82.8155L243.355 83.8938ZM252.077 80.0153C252.077 80.3157 252.055 80.6161 252.012 80.9165H245.945C246.02 81.7319 246.289 82.3649 246.75 82.8155C247.222 83.2661 247.828 83.4914 248.568 83.4914C249.159 83.4914 249.647 83.3895 250.033 83.1857C250.43 82.9818 250.698 82.6868 250.838 82.3005L251.916 82.8638C251.594 83.4324 251.165 83.8669 250.628 84.1674C250.092 84.4678 249.405 84.618 248.568 84.618C247.356 84.618 246.401 84.2478 245.704 83.5075C245.017 82.7672 244.674 81.7426 244.674 80.4337C244.674 79.1248 245.001 78.1002 245.656 77.3599C246.321 76.6196 247.26 76.2495 248.472 76.2495C249.223 76.2495 249.872 76.4157 250.419 76.7483C250.966 77.0809 251.379 77.5316 251.658 78.1002C251.937 78.6688 252.077 79.3072 252.077 80.0153ZM248.472 77.376C247.764 77.376 247.19 77.5852 246.75 78.0036C246.321 78.422 246.058 79.0121 245.961 79.7739H250.838C250.752 79.0229 250.505 78.4381 250.097 78.0197C249.69 77.5906 249.148 77.376 248.472 77.376ZM261.669 72.7089V84.457H260.543L260.462 83.0569C260.226 83.529 259.861 83.9099 259.368 84.1995C258.885 84.4785 258.333 84.618 257.71 84.618C256.584 84.618 255.688 84.2478 255.023 83.5075C254.368 82.7565 254.041 81.7319 254.041 80.4337C254.041 79.1355 254.368 78.1163 255.023 77.376C255.688 76.625 256.584 76.2495 257.71 76.2495C258.3 76.2495 258.826 76.3782 259.287 76.6357C259.76 76.8932 260.124 77.2365 260.382 77.6657V72.7089H261.669ZM257.855 83.4914C258.628 83.4914 259.239 83.2232 259.69 82.6868C260.151 82.1503 260.382 81.4315 260.382 80.5303V80.3371C260.382 79.4359 260.151 78.7171 259.69 78.1806C259.239 77.6442 258.628 77.376 257.855 77.376C257.072 77.376 256.455 77.6549 256.004 78.2128C255.554 78.76 255.328 79.5003 255.328 80.4337C255.328 81.3671 255.554 82.1128 256.004 82.6707C256.455 83.2178 257.072 83.4914 257.855 83.4914Z" fill="#FAFAFA"/>
</g>
<g filter="url(#filter3_d_807_2121)">
<path d="M208.868 374.578C210.542 374.578 211.851 375.039 212.795 375.962C213.739 376.884 214.211 378.193 214.211 379.888C214.211 381.584 213.739 382.893 212.795 383.815C211.851 384.738 210.542 385.199 208.868 385.199H205.44V374.578H208.868ZM208.997 383.992C210.209 383.992 211.153 383.633 211.829 382.914C212.516 382.184 212.859 381.176 212.859 379.888C212.859 378.601 212.516 377.598 211.829 376.879C211.153 376.149 210.209 375.785 208.997 375.785H206.728V383.992H208.997ZM223.701 380.757C223.701 381.058 223.68 381.358 223.637 381.659H217.57C217.645 382.474 217.913 383.107 218.374 383.558C218.847 384.008 219.453 384.234 220.193 384.234C220.783 384.234 221.271 384.132 221.657 383.928C222.054 383.724 222.323 383.429 222.462 383.043L223.54 383.606C223.219 384.175 222.789 384.609 222.253 384.91C221.716 385.21 221.03 385.36 220.193 385.36C218.981 385.36 218.026 384.99 217.328 384.25C216.642 383.509 216.298 382.485 216.298 381.176C216.298 379.867 216.626 378.842 217.28 378.102C217.945 377.362 218.884 376.992 220.096 376.992C220.847 376.992 221.497 377.158 222.044 377.491C222.591 377.823 223.004 378.274 223.283 378.842C223.562 379.411 223.701 380.049 223.701 380.757ZM220.096 378.118C219.388 378.118 218.814 378.327 218.374 378.746C217.945 379.164 217.682 379.754 217.586 380.516H222.462C222.376 379.765 222.13 379.18 221.722 378.762C221.314 378.333 220.772 378.118 220.096 378.118ZM230.837 384.636C230.301 385.119 229.609 385.36 228.761 385.36C228.107 385.36 227.57 385.183 227.152 384.829C226.744 384.475 226.535 383.933 226.524 383.204V378.263H224.915V377.153H226.524V375.221L227.812 374.867V377.153H230.789V378.263H227.812V382.978C227.812 383.365 227.919 383.66 228.134 383.863C228.359 384.057 228.654 384.153 229.019 384.153C229.534 384.153 229.99 383.955 230.387 383.558L230.837 384.636ZM239.253 384.266C239.468 384.266 239.682 384.239 239.897 384.185L239.816 385.199C239.516 385.307 239.194 385.36 238.851 385.36C238.432 385.36 238.1 385.269 237.853 385.087C237.617 384.904 237.467 384.598 237.402 384.169C237.156 384.545 236.791 384.84 236.308 385.054C235.836 385.258 235.337 385.36 234.811 385.36C234.017 385.36 233.363 385.178 232.848 384.813C232.333 384.437 232.076 383.901 232.076 383.204C232.076 382.592 232.344 382.066 232.88 381.627C233.417 381.176 234.194 380.865 235.214 380.693L237.354 380.339V379.888C237.354 379.352 237.188 378.923 236.855 378.601C236.523 378.279 236.061 378.118 235.471 378.118C234.935 378.118 234.468 378.247 234.071 378.504C233.685 378.762 233.384 379.143 233.17 379.647L232.22 378.955C232.435 378.354 232.832 377.877 233.411 377.523C234.001 377.169 234.688 376.992 235.471 376.992C236.426 376.992 237.193 377.222 237.773 377.684C238.352 378.145 238.642 378.826 238.642 379.727V383.686C238.642 383.88 238.69 384.024 238.786 384.121C238.883 384.218 239.039 384.266 239.253 384.266ZM234.876 384.234C235.552 384.234 236.131 384.073 236.614 383.751C237.107 383.429 237.354 383.011 237.354 382.496V381.385L235.552 381.723C234.833 381.852 234.296 382.04 233.942 382.286C233.588 382.522 233.411 382.828 233.411 383.204C233.411 383.536 233.54 383.794 233.797 383.976C234.055 384.148 234.414 384.234 234.876 384.234ZM242.414 375.608C242.124 375.608 241.888 375.522 241.706 375.35C241.534 375.168 241.448 374.932 241.448 374.642C241.448 374.352 241.534 374.122 241.706 373.95C241.888 373.768 242.124 373.676 242.414 373.676C242.704 373.676 242.934 373.768 243.106 373.95C243.288 374.122 243.38 374.352 243.38 374.642C243.38 374.932 243.288 375.168 243.106 375.35C242.934 375.522 242.704 375.608 242.414 375.608ZM243.058 385.199H241.77V377.153H243.058V385.199ZM247.268 383.043C247.268 383.45 247.327 383.735 247.445 383.896C247.574 384.046 247.805 384.121 248.137 384.121C248.362 384.121 248.556 384.105 248.716 384.073C248.888 384.041 249.087 383.981 249.312 383.896L249.103 385.135C248.749 385.285 248.352 385.36 247.912 385.36C247.257 385.36 246.769 385.183 246.447 384.829C246.136 384.475 245.981 383.933 245.981 383.204V373.451H247.268V383.043ZM200.944 396.417C201.941 396.417 202.81 396.642 203.551 397.093C204.291 397.533 204.86 398.166 205.257 398.992C205.664 399.807 205.868 400.773 205.868 401.888C205.868 403.004 205.664 403.975 205.257 404.801C204.86 405.617 204.291 406.25 203.551 406.7C202.81 407.14 201.941 407.36 200.944 407.36C199.946 407.36 199.077 407.14 198.336 406.7C197.596 406.25 197.022 405.617 196.614 404.801C196.218 403.975 196.019 403.004 196.019 401.888C196.019 400.773 196.218 399.807 196.614 398.992C197.022 398.166 197.596 397.533 198.336 397.093C199.077 396.642 199.946 396.417 200.944 396.417ZM200.944 397.624C199.839 397.624 198.964 398.005 198.32 398.766C197.687 399.517 197.371 400.558 197.371 401.888C197.371 403.219 197.687 404.265 198.32 405.027C198.964 405.778 199.839 406.153 200.944 406.153C202.049 406.153 202.918 405.778 203.551 405.027C204.194 404.265 204.516 403.219 204.516 401.888C204.516 400.558 204.194 399.517 203.551 398.766C202.918 398.005 202.049 397.624 200.944 397.624ZM212.179 398.992C212.566 398.992 212.861 399.045 213.064 399.153L212.807 400.408C212.549 400.268 212.212 400.199 211.793 400.199C211.45 400.199 211.112 400.301 210.779 400.504C210.457 400.698 210.189 400.998 209.975 401.406C209.771 401.803 209.669 402.285 209.669 402.854V407.199H208.381V399.153H209.427L209.604 400.472C210.055 399.485 210.913 398.992 212.179 398.992ZM215.594 397.608C215.305 397.608 215.069 397.522 214.886 397.35C214.715 397.168 214.629 396.932 214.629 396.642C214.629 396.352 214.715 396.122 214.886 395.95C215.069 395.768 215.305 395.676 215.594 395.676C215.884 395.676 216.115 395.768 216.286 395.95C216.469 396.122 216.56 396.352 216.56 396.642C216.56 396.932 216.469 397.168 216.286 397.35C216.115 397.522 215.884 397.608 215.594 397.608ZM216.238 407.199H214.951V399.153H216.238V407.199ZM226.129 402.757C226.129 403.058 226.108 403.358 226.065 403.659H219.998C220.073 404.474 220.341 405.107 220.803 405.558C221.275 406.008 221.881 406.234 222.621 406.234C223.211 406.234 223.699 406.132 224.086 405.928C224.483 405.724 224.751 405.429 224.89 405.043L225.969 405.606C225.647 406.175 225.218 406.609 224.681 406.91C224.145 407.21 223.458 407.36 222.621 407.36C221.409 407.36 220.454 406.99 219.757 406.25C219.07 405.509 218.727 404.485 218.727 403.176C218.727 401.867 219.054 400.842 219.708 400.102C220.373 399.362 221.312 398.992 222.525 398.992C223.276 398.992 223.925 399.158 224.472 399.491C225.019 399.823 225.432 400.274 225.711 400.842C225.99 401.411 226.129 402.049 226.129 402.757ZM222.525 400.118C221.816 400.118 221.242 400.327 220.803 400.746C220.373 401.164 220.111 401.754 220.014 402.516H224.89C224.804 401.765 224.558 401.18 224.15 400.762C223.742 400.333 223.2 400.118 222.525 400.118ZM232.487 398.992C233.399 398.992 234.15 399.254 234.74 399.78C235.33 400.306 235.625 401.062 235.625 402.049V407.199H234.338V402.5C234.338 401.663 234.156 401.057 233.791 400.681C233.437 400.306 232.959 400.118 232.358 400.118C231.929 400.118 231.527 400.215 231.151 400.408C230.776 400.59 230.465 400.896 230.218 401.325C229.982 401.744 229.864 402.275 229.864 402.918V407.199H228.577V399.153H229.703L229.784 400.408C230.052 399.925 230.422 399.571 230.894 399.346C231.366 399.11 231.897 398.992 232.487 398.992ZM243.355 406.636C242.819 407.119 242.127 407.36 241.279 407.36C240.625 407.36 240.088 407.183 239.67 406.829C239.262 406.475 239.053 405.933 239.042 405.204V400.263H237.433V399.153H239.042V397.221L240.33 396.867V399.153H243.307V400.263H240.33V404.978C240.33 405.365 240.437 405.66 240.651 405.863C240.877 406.057 241.172 406.153 241.537 406.153C242.052 406.153 242.507 405.955 242.904 405.558L243.355 406.636ZM252.077 402.757C252.077 403.058 252.055 403.358 252.012 403.659H245.945C246.02 404.474 246.289 405.107 246.75 405.558C247.222 406.008 247.828 406.234 248.568 406.234C249.159 406.234 249.647 406.132 250.033 405.928C250.43 405.724 250.698 405.429 250.838 405.043L251.916 405.606C251.594 406.175 251.165 406.609 250.628 406.91C250.092 407.21 249.405 407.36 248.568 407.36C247.356 407.36 246.401 406.99 245.704 406.25C245.017 405.509 244.674 404.485 244.674 403.176C244.674 401.867 245.001 400.842 245.656 400.102C246.321 399.362 247.26 398.992 248.472 398.992C249.223 398.992 249.872 399.158 250.419 399.491C250.966 399.823 251.379 400.274 251.658 400.842C251.937 401.411 252.077 402.049 252.077 402.757ZM248.472 400.118C247.764 400.118 247.19 400.327 246.75 400.746C246.321 401.164 246.058 401.754 245.961 402.516H250.838C250.752 401.765 250.505 401.18 250.097 400.762C249.69 400.333 249.148 400.118 248.472 400.118ZM261.669 395.451V407.199H260.543L260.462 405.799C260.226 406.271 259.861 406.652 259.368 406.942C258.885 407.221 258.333 407.36 257.71 407.36C256.584 407.36 255.688 406.99 255.023 406.25C254.368 405.499 254.041 404.474 254.041 403.176C254.041 401.878 254.368 400.858 255.023 400.118C255.688 399.367 256.584 398.992 257.71 398.992C258.3 398.992 258.826 399.12 259.287 399.378C259.76 399.635 260.124 399.979 260.382 400.408V395.451H261.669ZM257.855 406.234C258.628 406.234 259.239 405.965 259.69 405.429C260.151 404.893 260.382 404.174 260.382 403.272V403.079C260.382 402.178 260.151 401.459 259.69 400.923C259.239 400.386 258.628 400.118 257.855 400.118C257.072 400.118 256.455 400.397 256.004 400.955C255.554 401.502 255.328 402.242 255.328 403.176C255.328 404.109 255.554 404.855 256.004 405.413C256.455 405.96 257.072 406.234 257.855 406.234Z" fill="#FAFAFA"/>
</g>
<path d="M6.60898 7.60816C7.9483 7.60816 9.00599 7.95238 9.78204 8.64082C10.5706 9.32925 10.9649 10.2743 10.9649 11.4759C10.9649 12.6776 10.5706 13.6226 9.78204 14.311C9.00599 14.9869 7.9483 15.3249 6.60898 15.3249H3.84898V20H1.84V7.60816H6.60898ZM6.2898 13.6163C7.16599 13.6163 7.81687 13.4411 8.24245 13.0906C8.66803 12.7276 8.88082 12.1894 8.88082 11.4759C8.88082 10.0365 8.01714 9.31674 6.2898 9.31674H3.84898V13.6163H6.2898ZM18.4742 7.42041C19.6633 7.42041 20.696 7.67701 21.5722 8.1902C22.4609 8.7034 23.1431 9.44191 23.6187 10.4057C24.0944 11.3695 24.3322 12.5023 24.3322 13.8041C24.3322 15.1059 24.0944 16.2386 23.6187 17.2024C23.1431 18.1663 22.4609 18.9048 21.5722 19.418C20.696 19.9312 19.6633 20.1878 18.4742 20.1878C17.2851 20.1878 16.2525 19.9312 15.3763 19.418C14.5001 18.9048 13.8242 18.1663 13.3485 17.2024C12.8729 16.2386 12.635 15.1059 12.635 13.8041C12.635 12.5023 12.8729 11.3695 13.3485 10.4057C13.8242 9.44191 14.5001 8.7034 15.3763 8.1902C16.2525 7.67701 17.2851 7.42041 18.4742 7.42041ZM18.4742 9.16653C17.3101 9.16653 16.3964 9.57333 15.733 10.3869C15.0696 11.2005 14.7379 12.3396 14.7379 13.8041C14.7379 15.2686 15.0696 16.4076 15.733 17.2212C16.3964 18.0348 17.3101 18.4416 18.4742 18.4416C19.6508 18.4416 20.5708 18.0348 21.2342 17.2212C21.8976 16.4076 22.2293 15.2686 22.2293 13.8041C22.2293 12.3396 21.8976 11.2005 21.2342 10.3869C20.5708 9.57333 19.6508 9.16653 18.4742 9.16653ZM31.5674 20H29.1829L25.5404 7.60816H27.7184L30.422 18.4041L33.1445 7.60816H35.2098L37.951 18.4229L40.6735 7.60816H42.7388L39.1151 20H36.7494L34.778 12.5649L34.1584 9.71102H34.1396L33.52 12.5649L31.5674 20ZM54.0544 18.2727V20H44.8168V7.60816H53.7915V9.33551H46.8258V12.9029H52.2707V14.5927H46.8258V18.2727H54.0544ZM61.1279 15.0433H58.4618V20H56.4716V7.60816H61.5222C62.8615 7.60816 63.9192 7.93986 64.6953 8.60327C65.4713 9.25415 65.8594 10.1616 65.8594 11.3257C65.8594 12.2144 65.6278 12.9592 65.1647 13.56C64.714 14.1483 64.0694 14.5676 63.2308 14.818L66.5916 20H64.2822L61.1279 15.0433ZM58.4618 13.3722H61.3532C62.1668 13.3722 62.7739 13.2095 63.1745 12.8841C63.575 12.5461 63.7753 12.0329 63.7753 11.3445C63.7753 10.6561 63.575 10.1491 63.1745 9.82367C62.7739 9.48571 62.1668 9.31674 61.3532 9.31674H58.4618V13.3722ZM70.8137 9.33551V12.9216H76.2586V14.6678H70.8137V20H68.8048V7.60816H77.7607V9.33551H70.8137ZM89.9709 15.2498C89.9709 16.877 89.5391 18.1099 88.6754 18.9486C87.8117 19.7747 86.5538 20.1878 84.9015 20.1878C83.2493 20.1878 81.9913 19.7747 81.1277 18.9486C80.264 18.1099 79.8321 16.877 79.8321 15.2498V7.60816H81.8599V15.0057C81.8599 16.1823 82.104 17.0522 82.5921 17.6155C83.0928 18.1663 83.8626 18.4416 84.9015 18.4416C85.9404 18.4416 86.704 18.1663 87.1921 17.6155C87.6928 17.0522 87.9432 16.1823 87.9432 15.0057V7.60816H89.9709V15.2498ZM102.039 18.2727V20H93.196V7.60816H95.205V18.2727H102.039Z" fill="white"/>
<path d="M6.60898 440.608C7.9483 440.608 9.00599 440.952 9.78204 441.641C10.5706 442.329 10.9649 443.274 10.9649 444.476C10.9649 445.678 10.5706 446.623 9.78204 447.311C9.00599 447.987 7.9483 448.325 6.60898 448.325H3.84898V453H1.84V440.608H6.60898ZM6.2898 446.616C7.16599 446.616 7.81687 446.441 8.24245 446.091C8.66803 445.728 8.88082 445.189 8.88082 444.476C8.88082 443.036 8.01714 442.317 6.2898 442.317H3.84898V446.616H6.2898ZM17.9861 448.043H15.3199V453H13.3297V440.608H18.3803C19.7197 440.608 20.7774 440.94 21.5534 441.603C22.3295 442.254 22.7175 443.162 22.7175 444.326C22.7175 445.214 22.4859 445.959 22.0228 446.56C21.5722 447.148 20.9276 447.568 20.0889 447.818L23.4497 453H21.1403L17.9861 448.043ZM15.3199 446.372H18.2114C19.025 446.372 19.632 446.21 20.0326 445.884C20.4331 445.546 20.6334 445.033 20.6334 444.344C20.6334 443.656 20.4331 443.149 20.0326 442.824C19.632 442.486 19.025 442.317 18.2114 442.317H15.3199V446.372ZM34.9004 451.273V453H25.6629V440.608H34.6376V442.336H27.6719V445.903H33.1168V447.593H27.6719V451.273H34.9004ZM47.3678 449.714C46.9923 450.828 46.3477 451.686 45.4339 452.287C44.5327 452.887 43.4688 453.188 42.2421 453.188C41.053 453.188 40.0203 452.931 39.1441 452.418C38.268 451.905 37.592 451.166 37.1164 450.202C36.6407 449.239 36.4029 448.106 36.4029 446.804C36.4029 445.502 36.6407 444.37 37.1164 443.406C37.592 442.442 38.268 441.703 39.1441 441.19C40.0203 440.677 41.0467 440.42 42.2233 440.42C43.4625 440.42 44.5014 440.677 45.3401 441.19C46.1912 441.703 46.8046 442.461 47.1801 443.462L45.2837 444.307C45.0334 443.568 44.6704 443.03 44.1948 442.692C43.7191 442.342 43.0995 442.167 42.336 442.167C41.1719 442.167 40.2394 442.58 39.5384 443.406C38.85 444.219 38.5058 445.352 38.5058 446.804C38.5058 448.269 38.8375 449.408 39.5009 450.221C40.1643 451.035 41.0843 451.442 42.2609 451.442C43.062 451.442 43.7316 451.241 44.2699 450.841C44.8206 450.44 45.2149 449.852 45.4527 449.076L47.3678 449.714ZM51.6598 453H49.6508V440.608H51.6598V453ZM59.2777 440.42C60.4167 440.42 61.3868 440.627 62.1879 441.04C63.0015 441.453 63.6836 442.085 64.2344 442.936L62.7136 444.307C62.3631 443.556 61.925 443.011 61.3993 442.673C60.8736 442.336 60.1726 442.167 59.2964 442.167C58.4328 442.167 57.7631 442.342 57.2875 442.692C56.8118 443.03 56.574 443.468 56.574 444.007C56.574 444.507 56.8055 444.908 57.2687 445.208C57.7318 445.496 58.5579 445.746 59.747 445.959C60.8611 446.159 61.7435 446.416 62.3944 446.729C63.0578 447.029 63.5397 447.411 63.8401 447.874C64.1405 448.325 64.2907 448.888 64.2907 449.564C64.2907 450.29 64.0842 450.928 63.6711 451.479C63.2581 452.03 62.676 452.456 61.925 452.756C61.1865 453.044 60.3291 453.188 59.3528 453.188C56.8368 453.188 55.0594 452.349 54.0205 450.672L55.4287 449.264C55.8292 450.015 56.3424 450.565 56.9683 450.916C57.6066 451.266 58.3952 451.442 59.334 451.442C60.2227 451.442 60.9174 451.291 61.4181 450.991C61.9313 450.678 62.1879 450.24 62.1879 449.677C62.1879 449.226 61.9563 448.863 61.4932 448.588C61.0426 448.312 60.2477 448.068 59.1087 447.856C57.9696 447.643 57.0621 447.38 56.3862 447.067C55.7103 446.754 55.2159 446.366 54.903 445.903C54.6026 445.44 54.4523 444.876 54.4523 444.213C54.4523 443.512 54.6464 442.874 55.0344 442.298C55.4224 441.722 55.9794 441.265 56.7054 440.927C57.4439 440.589 58.3013 440.42 59.2777 440.42ZM76.0555 451.273V453H66.8179V440.608H75.7926V442.336H68.8269V445.903H74.2718V447.593H68.8269V451.273H76.0555Z" fill="white"/>
<path d="M369.483 20H367.136L362.536 7.60816H364.677L367.568 15.8506L368.319 18.3102L369.07 15.8694L371.961 7.60816H374.083L369.483 20ZM385.295 18.2727V20H376.058V7.60816H385.033V9.33551H378.067V12.9029H383.512V14.5927H378.067V18.2727H385.295ZM392.369 15.0433H389.703V20H387.713V7.60816H392.763C394.103 7.60816 395.16 7.93986 395.936 8.60327C396.712 9.25415 397.1 10.1616 397.1 11.3257C397.1 12.2144 396.869 12.9592 396.406 13.56C395.955 14.1483 395.31 14.5676 394.472 14.818L397.833 20H395.523L392.369 15.0433ZM389.703 13.3722H392.594C393.408 13.3722 394.015 13.2095 394.416 12.8841C394.816 12.5461 395.016 12.0329 395.016 11.3445C395.016 10.6561 394.816 10.1491 394.416 9.82367C394.015 9.48571 393.408 9.31674 392.594 9.31674H389.703V13.3722ZM404.27 7.42041C405.409 7.42041 406.379 7.62694 407.181 8.04C407.994 8.45306 408.676 9.08517 409.227 9.93633L407.706 11.3069C407.356 10.5559 406.918 10.0114 406.392 9.67347C405.866 9.33551 405.165 9.16653 404.289 9.16653C403.425 9.16653 402.756 9.34177 402.28 9.69225C401.804 10.0302 401.567 10.4683 401.567 11.0065C401.567 11.5072 401.798 11.9078 402.261 12.2082C402.724 12.4961 403.551 12.7464 404.74 12.9592C405.854 13.1595 406.736 13.4161 407.387 13.729C408.05 14.0294 408.532 14.4112 408.833 14.8743C409.133 15.3249 409.283 15.8882 409.283 16.5641C409.283 17.2901 409.077 17.9284 408.664 18.4792C408.251 19.0299 407.669 19.4555 406.918 19.7559C406.179 20.0438 405.322 20.1878 404.345 20.1878C401.83 20.1878 400.052 19.3491 399.013 17.6718L400.421 16.2637C400.822 17.0147 401.335 17.5654 401.961 17.9159C402.599 18.2664 403.388 18.4416 404.327 18.4416C405.215 18.4416 405.91 18.2914 406.411 17.991C406.924 17.6781 407.181 17.24 407.181 16.6767C407.181 16.2261 406.949 15.8631 406.486 15.5878C406.035 15.3124 405.24 15.0683 404.101 14.8555C402.962 14.6427 402.055 14.3799 401.379 14.0669C400.703 13.754 400.209 13.366 399.896 12.9029C399.595 12.4397 399.445 11.8765 399.445 11.2131C399.445 10.5121 399.639 9.87374 400.027 9.29796C400.415 8.72218 400.972 8.26531 401.698 7.92735C402.437 7.58939 403.294 7.42041 404.27 7.42041ZM418.686 16.7518H413.466L412.283 20H410.218L414.893 7.60816H417.296L421.971 20H419.85L418.686 16.7518ZM418.085 15.1184L416.658 11.138L416.094 9.35429H416.038L415.512 11.1004L414.048 15.1184H418.085ZM431.419 9.33551H427.176V20H425.167V9.33551H420.923V7.60816H431.419V9.33551ZM435.552 20H433.543V7.60816H435.552V20ZM447.789 18.2727V20H438.946V7.60816H440.955V18.2727H447.789ZM459.141 18.2727V20H449.904V7.60816H458.878V9.33551H451.913V12.9029H457.357V14.5927H451.913V18.2727H459.141Z" fill="white"/>
<path d="M387.915 449.752H382.696L381.513 453H379.447L384.123 440.608H386.526L391.201 453H389.079L387.915 449.752ZM387.314 448.118L385.887 444.138L385.324 442.354H385.268L384.742 444.1L383.278 448.118H387.314ZM405.79 453H403.95V445.828L404.082 442.411H404.063L400.289 453H398.618L394.844 442.411H394.825L394.976 445.828V453H393.117V440.608H396.102L398.599 447.78L399.463 450.728H399.5L400.383 447.78L402.861 440.608H405.79V453ZM411.199 453H409.19V440.608H411.199V453ZM421.596 449.752H416.376L415.194 453H413.128L417.803 440.608H420.207L424.882 453H422.76L421.596 449.752ZM420.995 448.118L419.568 444.138L419.005 442.354H418.949L418.423 444.1L416.958 448.118H420.995ZM426.798 440.608H431.679C433.131 440.608 434.208 440.902 434.909 441.491C435.622 442.079 435.979 442.918 435.979 444.007C435.979 444.682 435.785 445.271 435.397 445.771C435.009 446.272 434.464 446.585 433.763 446.71V446.729C434.539 446.854 435.153 447.18 435.603 447.705C436.066 448.231 436.298 448.851 436.298 449.564C436.298 450.641 435.904 451.485 435.115 452.099C434.327 452.7 433.206 453 431.754 453H426.798V440.608ZM431.529 445.94C433.106 445.94 433.895 445.333 433.895 444.119C433.895 442.905 433.106 442.298 431.529 442.298H428.769V445.94H431.529ZM431.848 451.329C432.624 451.329 433.213 451.173 433.613 450.86C434.014 450.534 434.214 450.071 434.214 449.47C434.214 448.869 434.014 448.413 433.613 448.1C433.213 447.774 432.624 447.611 431.848 447.611H428.769V451.329H431.848ZM447.791 451.273V453H438.947V440.608H440.956V451.273H447.791ZM459.143 451.273V453H449.905V440.608H458.88V442.336H451.914V445.903H457.359V447.593H451.914V451.273H459.143Z" fill="white"/>
<defs>
<filter id="filter0_d_807_2121" x="42.827" y="207.876" width="66.1703" height="44.6371" filterUnits="userSpaceOnUse" color-interpolation-filters="sRGB">
<feFlood flood-opacity="0" result="BackgroundImageFix"/>
<feColorMatrix in="SourceAlpha" type="matrix" values="0 0 0 0 0 0 0 0 0 0 0 0 0 0 0 0 0 0 127 0" result="hardAlpha"/>
<feOffset/>
<feGaussianBlur stdDeviation="2.68222"/>
<feComposite in2="hardAlpha" operator="out"/>
<feColorMatrix type="matrix" values="0 0 0 0 0 0 0 0 0 0 0 0 0 0 0 0 0 0 0.5 0"/>
<feBlend mode="normal" in2="BackgroundImageFix" result="effect1_dropShadow_807_2121"/>
<feBlend mode="normal" in="SourceGraphic" in2="effect1_dropShadow_807_2121" result="shape"/>
</filter>
<filter id="filter1_d_807_2121" x="355.339" y="207.876" width="61.2718" height="44.6371" filterUnits="userSpaceOnUse" color-interpolation-filters="sRGB">
<feFlood flood-opacity="0" result="BackgroundImageFix"/>
<feColorMatrix in="SourceAlpha" type="matrix" values="0 0 0 0 0 0 0 0 0 0 0 0 0 0 0 0 0 0 127 0" result="hardAlpha"/>
<feOffset/>
<feGaussianBlur stdDeviation="2.68222"/>
<feComposite in2="hardAlpha" operator="out"/>
<feColorMatrix type="matrix" values="0 0 0 0 0 0 0 0 0 0 0 0 0 0 0 0 0 0 0.5 0"/>
<feBlend mode="normal" in2="BackgroundImageFix" result="effect1_dropShadow_807_2121"/>
<feBlend mode="normal" in="SourceGraphic" in2="effect1_dropShadow_807_2121" result="shape"/>
</filter>
<filter id="filter2_d_807_2121" x="183.085" y="45.5692" width="92.7054" height="44.4125" filterUnits="userSpaceOnUse" color-interpolation-filters="sRGB">
<feFlood flood-opacity="0" result="BackgroundImageFix"/>
<feColorMatrix in="SourceAlpha" type="matrix" values="0 0 0 0 0 0 0 0 0 0 0 0 0 0 0 0 0 0 127 0" result="hardAlpha"/>
<feOffset/>
<feGaussianBlur stdDeviation="2.68222"/>
<feComposite in2="hardAlpha" operator="out"/>
<feColorMatrix type="matrix" values="0 0 0 0 0 0 0 0 0 0 0 0 0 0 0 0 0 0 0.5 0"/>
<feBlend mode="normal" in2="BackgroundImageFix" result="effect1_dropShadow_807_2121"/>
<feBlend mode="normal" in="SourceGraphic" in2="effect1_dropShadow_807_2121" result="shape"/>
</filter>
<filter id="filter3_d_807_2121" x="190.655" y="368.087" width="76.3773" height="44.6371" filterUnits="userSpaceOnUse" color-interpolation-filters="sRGB">
<feFlood flood-opacity="0" result="BackgroundImageFix"/>
<feColorMatrix in="SourceAlpha" type="matrix" values="0 0 0 0 0 0 0 0 0 0 0 0 0 0 0 0 0 0 127 0" result="hardAlpha"/>
<feOffset/>
<feGaussianBlur stdDeviation="2.68222"/>
<feComposite in2="hardAlpha" operator="out"/>
<feColorMatrix type="matrix" values="0 0 0 0 0 0 0 0 0 0 0 0 0 0 0 0 0 0 0.5 0"/>
<feBlend mode="normal" in2="BackgroundImageFix" result="effect1_dropShadow_807_2121"/>
<feBlend mode="normal" in="SourceGraphic" in2="effect1_dropShadow_807_2121" result="shape"/>
</filter>
<linearGradient id="paint0_linear_807_2121" x1="222.687" y1="352.042" x2="215.157" y2="121.41" gradientUnits="userSpaceOnUse">
<stop stop-color="#05B2D8"/>
<stop offset="1" stop-color="#05D8B5"/>
</linearGradient>
<linearGradient id="paint1_linear_807_2121" x1="228.658" y1="313.15" x2="228.658" y2="63.0332" gradientUnits="userSpaceOnUse">
<stop stop-color="#FF692E"/>
<stop offset="1" stop-color="#F9D423"/>
<stop offset="1" stop-color="#FFC700"/>
</linearGradient>
</defs>
</svg>
