<svg width="460" height="460" viewBox="0 0 460 460" fill="none" xmlns="http://www.w3.org/2000/svg">
<path d="M30.668 54.6746V62.9102H29.6697V56.8707C29.6697 56.696 29.6781 56.3758 29.6947 55.9099C29.4119 56.1844 29.0833 56.4257 28.7089 56.6337C28.3346 56.8333 27.9519 56.9789 27.5609 57.0704L27.2989 56.1595C27.4985 56.1345 27.7689 56.043 28.11 55.885C28.451 55.7186 28.7796 55.5273 29.0957 55.311C29.4119 55.0864 29.6448 54.8742 29.7945 54.6746H30.668ZM35.6365 63.0349C34.6383 63.0349 33.8771 62.6731 33.353 61.9493C32.8289 61.2256 32.5669 60.1733 32.5669 58.7924C32.5669 57.4115 32.8289 56.3591 33.353 55.6354C33.8771 54.9117 34.6383 54.5498 35.6365 54.5498C36.6348 54.5498 37.3959 54.9117 37.92 55.6354C38.4441 56.3591 38.7061 57.4115 38.7061 58.7924C38.7061 60.1733 38.4441 61.2256 37.92 61.9493C37.3959 62.6731 36.6348 63.0349 35.6365 63.0349ZM35.6365 62.1365C36.2937 62.1365 36.797 61.8537 37.1464 61.288C37.4958 60.714 37.6705 59.8821 37.6705 58.7924C37.6705 57.7026 37.4958 56.8749 37.1464 56.3092C36.797 55.7352 36.2937 55.4482 35.6365 55.4482C34.9793 55.4482 34.4761 55.7352 34.1267 56.3092C33.7773 56.8749 33.6026 57.7026 33.6026 58.7924C33.6026 59.8821 33.7773 60.714 34.1267 61.288C34.4761 61.8537 34.9793 62.1365 35.6365 62.1365ZM43.2116 63.0349C42.2134 63.0349 41.4522 62.6731 40.9281 61.9493C40.4041 61.2256 40.142 60.1733 40.142 58.7924C40.142 57.4115 40.4041 56.3591 40.9281 55.6354C41.4522 54.9117 42.2134 54.5498 43.2116 54.5498C44.2099 54.5498 44.971 54.9117 45.4951 55.6354C46.0192 56.3591 46.2813 57.4115 46.2813 58.7924C46.2813 60.1733 46.0192 61.2256 45.4951 61.9493C44.971 62.6731 44.2099 63.0349 43.2116 63.0349ZM43.2116 62.1365C43.8688 62.1365 44.3721 61.8537 44.7215 61.288C45.0709 60.714 45.2456 59.8821 45.2456 58.7924C45.2456 57.7026 45.0709 56.8749 44.7215 56.3092C44.3721 55.7352 43.8688 55.4482 43.2116 55.4482C42.5545 55.4482 42.0512 55.7352 41.7018 56.3092C41.3524 56.8749 41.1777 57.7026 41.1777 58.7924C41.1777 59.8821 41.3524 60.714 41.7018 61.288C42.0512 61.8537 42.5545 62.1365 43.2116 62.1365ZM49.3892 54.5498C49.9965 54.5498 50.4789 54.7578 50.8366 55.1737C51.1944 55.5813 51.3732 56.1304 51.3732 56.8208C51.3732 57.5113 51.1944 58.0645 50.8366 58.4804C50.4789 58.888 49.9965 59.0918 49.3892 59.0918C48.7819 59.0918 48.2994 58.888 47.9417 58.4804C47.584 58.0645 47.4052 57.5113 47.4052 56.8208C47.4052 56.1304 47.584 55.5813 47.9417 55.1737C48.2994 54.7578 48.7819 54.5498 49.3892 54.5498ZM54.3929 54.6746H55.3413L50.1004 62.9102H49.1521L54.3929 54.6746ZM49.3892 55.3359C49.0398 55.3359 48.7694 55.4649 48.5781 55.7228C48.3868 55.9806 48.2911 56.3467 48.2911 56.8208C48.2911 57.295 48.3868 57.661 48.5781 57.9189C48.7694 58.1768 49.0398 58.3057 49.3892 58.3057C49.7386 58.3057 50.0089 58.1768 50.2003 57.9189C50.3916 57.661 50.4873 57.295 50.4873 56.8208C50.4873 56.3467 50.3916 55.9806 50.2003 55.7228C50.0089 55.4649 49.7386 55.3359 49.3892 55.3359ZM55.1042 58.4929C55.7114 58.4929 56.1939 58.7009 56.5516 59.1168C56.9093 59.5244 57.0882 60.0735 57.0882 60.7639C57.0882 61.4544 56.9093 62.0076 56.5516 62.4235C56.1939 62.8311 55.7114 63.0349 55.1042 63.0349C54.4969 63.0349 54.0144 62.8311 53.6567 62.4235C53.299 62.0076 53.1201 61.4544 53.1201 60.7639C53.1201 60.0735 53.299 59.5244 53.6567 59.1168C54.0144 58.7009 54.4969 58.4929 55.1042 58.4929ZM55.1042 59.279C54.7548 59.279 54.4844 59.408 54.2931 59.6658C54.1018 59.9237 54.0061 60.2897 54.0061 60.7639C54.0061 61.2381 54.1018 61.6041 54.2931 61.862C54.4844 62.1199 54.7548 62.2488 55.1042 62.2488C55.4536 62.2488 55.7239 62.1199 55.9152 61.862C56.1066 61.6041 56.2022 61.2381 56.2022 60.7639C56.2022 60.2897 56.1066 59.9237 55.9152 59.6658C55.7239 59.408 55.4536 59.279 55.1042 59.279Z" fill="white" fill-opacity="0.5"/>
<path d="M43.2116 234.558C42.2134 234.558 41.4522 234.197 40.9281 233.473C40.4041 232.749 40.142 231.697 40.142 230.316C40.142 228.935 40.4041 227.883 40.9281 227.159C41.4522 226.435 42.2134 226.073 43.2116 226.073C44.2099 226.073 44.971 226.435 45.4951 227.159C46.0192 227.883 46.2813 228.935 46.2813 230.316C46.2813 231.697 46.0192 232.749 45.4951 233.473C44.971 234.197 44.2099 234.558 43.2116 234.558ZM43.2116 233.66C43.8688 233.66 44.3721 233.377 44.7215 232.811C45.0709 232.237 45.2456 231.406 45.2456 230.316C45.2456 229.226 45.0709 228.398 44.7215 227.833C44.3721 227.259 43.8688 226.972 43.2116 226.972C42.5545 226.972 42.0512 227.259 41.7018 227.833C41.3524 228.398 41.1777 229.226 41.1777 230.316C41.1777 231.406 41.3524 232.237 41.7018 232.811C42.0512 233.377 42.5545 233.66 43.2116 233.66ZM49.3892 226.073C49.9965 226.073 50.4789 226.281 50.8366 226.697C51.1944 227.105 51.3732 227.654 51.3732 228.344C51.3732 229.035 51.1944 229.588 50.8366 230.004C50.4789 230.411 49.9965 230.615 49.3892 230.615C48.7819 230.615 48.2994 230.411 47.9417 230.004C47.584 229.588 47.4052 229.035 47.4052 228.344C47.4052 227.654 47.584 227.105 47.9417 226.697C48.2994 226.281 48.7819 226.073 49.3892 226.073ZM54.3929 226.198H55.3413L50.1004 234.434H49.1521L54.3929 226.198ZM49.3892 226.859C49.0398 226.859 48.7694 226.988 48.5781 227.246C48.3868 227.504 48.2911 227.87 48.2911 228.344C48.2911 228.818 48.3868 229.184 48.5781 229.442C48.7694 229.7 49.0398 229.829 49.3892 229.829C49.7386 229.829 50.0089 229.7 50.2003 229.442C50.3916 229.184 50.4873 228.818 50.4873 228.344C50.4873 227.87 50.3916 227.504 50.2003 227.246C50.0089 226.988 49.7386 226.859 49.3892 226.859ZM55.1042 230.016C55.7114 230.016 56.1939 230.224 56.5516 230.64C56.9093 231.048 57.0882 231.597 57.0882 232.287C57.0882 232.978 56.9093 233.531 56.5516 233.947C56.1939 234.355 55.7114 234.558 55.1042 234.558C54.4969 234.558 54.0144 234.355 53.6567 233.947C53.299 233.531 53.1201 232.978 53.1201 232.287C53.1201 231.597 53.299 231.048 53.6567 230.64C54.0144 230.224 54.4969 230.016 55.1042 230.016ZM55.1042 230.802C54.7548 230.802 54.4844 230.931 54.2931 231.189C54.1018 231.447 54.0061 231.813 54.0061 232.287C54.0061 232.762 54.1018 233.128 54.2931 233.385C54.4844 233.643 54.7548 233.772 55.1042 233.772C55.4536 233.772 55.7239 233.643 55.9152 233.385C56.1066 233.128 56.2022 232.762 56.2022 232.287C56.2022 231.813 56.1066 231.447 55.9152 231.189C55.7239 230.931 55.4536 230.802 55.1042 230.802Z" fill="white" fill-opacity="0.5"/>
<path d="M30.668 397.721V405.957H29.6697V399.918C29.6697 399.743 29.6781 399.423 29.6947 398.957C29.4119 399.231 29.0833 399.473 28.7089 399.681C28.3346 399.88 27.9519 400.026 27.5609 400.117L27.2989 399.206C27.4985 399.181 27.7689 399.09 28.11 398.932C28.451 398.765 28.7796 398.574 29.0957 398.358C29.4119 398.133 29.6448 397.921 29.7945 397.721H30.668ZM35.6365 406.082C34.6383 406.082 33.8771 405.72 33.353 404.996C32.8289 404.272 32.5669 403.22 32.5669 401.839C32.5669 400.458 32.8289 399.406 33.353 398.682C33.8771 397.959 34.6383 397.597 35.6365 397.597C36.6348 397.597 37.3959 397.959 37.92 398.682C38.4441 399.406 38.7061 400.458 38.7061 401.839C38.7061 403.22 38.4441 404.272 37.92 404.996C37.3959 405.72 36.6348 406.082 35.6365 406.082ZM35.6365 405.183C36.2937 405.183 36.797 404.901 37.1464 404.335C37.4958 403.761 37.6705 402.929 37.6705 401.839C37.6705 400.749 37.4958 399.922 37.1464 399.356C36.797 398.782 36.2937 398.495 35.6365 398.495C34.9793 398.495 34.4761 398.782 34.1267 399.356C33.7773 399.922 33.6026 400.749 33.6026 401.839C33.6026 402.929 33.7773 403.761 34.1267 404.335C34.4761 404.901 34.9793 405.183 35.6365 405.183ZM43.2116 406.082C42.2134 406.082 41.4522 405.72 40.9281 404.996C40.4041 404.272 40.142 403.22 40.142 401.839C40.142 400.458 40.4041 399.406 40.9281 398.682C41.4522 397.959 42.2134 397.597 43.2116 397.597C44.2099 397.597 44.971 397.959 45.4951 398.682C46.0192 399.406 46.2813 400.458 46.2813 401.839C46.2813 403.22 46.0192 404.272 45.4951 404.996C44.971 405.72 44.2099 406.082 43.2116 406.082ZM43.2116 405.183C43.8688 405.183 44.3721 404.901 44.7215 404.335C45.0709 403.761 45.2456 402.929 45.2456 401.839C45.2456 400.749 45.0709 399.922 44.7215 399.356C44.3721 398.782 43.8688 398.495 43.2116 398.495C42.5545 398.495 42.0512 398.782 41.7018 399.356C41.3524 399.922 41.1777 400.749 41.1777 401.839C41.1777 402.929 41.3524 403.761 41.7018 404.335C42.0512 404.901 42.5545 405.183 43.2116 405.183ZM49.3892 397.597C49.9965 397.597 50.4789 397.805 50.8366 398.221C51.1944 398.628 51.3732 399.177 51.3732 399.868C51.3732 400.558 51.1944 401.111 50.8366 401.527C50.4789 401.935 49.9965 402.139 49.3892 402.139C48.7819 402.139 48.2994 401.935 47.9417 401.527C47.584 401.111 47.4052 400.558 47.4052 399.868C47.4052 399.177 47.584 398.628 47.9417 398.221C48.2994 397.805 48.7819 397.597 49.3892 397.597ZM54.3929 397.721H55.3413L50.1004 405.957H49.1521L54.3929 397.721ZM49.3892 398.383C49.0398 398.383 48.7694 398.512 48.5781 398.77C48.3868 399.028 48.2911 399.394 48.2911 399.868C48.2911 400.342 48.3868 400.708 48.5781 400.966C48.7694 401.224 49.0398 401.353 49.3892 401.353C49.7386 401.353 50.0089 401.224 50.2003 400.966C50.3916 400.708 50.4873 400.342 50.4873 399.868C50.4873 399.394 50.3916 399.028 50.2003 398.77C50.0089 398.512 49.7386 398.383 49.3892 398.383ZM55.1042 401.54C55.7114 401.54 56.1939 401.748 56.5516 402.164C56.9093 402.571 57.0882 403.12 57.0882 403.811C57.0882 404.501 56.9093 405.054 56.5516 405.47C56.1939 405.878 55.7114 406.082 55.1042 406.082C54.4969 406.082 54.0144 405.878 53.6567 405.47C53.299 405.054 53.1201 404.501 53.1201 403.811C53.1201 403.12 53.299 402.571 53.6567 402.164C54.0144 401.748 54.4969 401.54 55.1042 401.54ZM55.1042 402.326C54.7548 402.326 54.4844 402.455 54.2931 402.713C54.1018 402.971 54.0061 403.337 54.0061 403.811C54.0061 404.285 54.1018 404.651 54.2931 404.909C54.4844 405.167 54.7548 405.296 55.1042 405.296C55.4536 405.296 55.7239 405.167 55.9152 404.909C56.1066 404.651 56.2022 404.285 56.2022 403.811C56.2022 403.337 56.1066 402.971 55.9152 402.713C55.7239 402.455 55.4536 402.326 55.1042 402.326Z" fill="white" fill-opacity="0.5"/>
<path d="M94.4635 17.6661C95.4018 17.6661 96.1555 17.9606 96.7245 18.5496C97.2935 19.1285 97.578 19.8972 97.578 20.8555C97.578 21.8837 97.2785 22.6923 96.6796 23.2813C96.0806 23.8602 95.2521 24.1497 94.1939 24.1497C93.3055 24.1497 92.5818 23.9601 92.0227 23.5807C91.4737 23.1914 91.0494 22.6274 90.75 21.8887L91.9179 21.2748C92.0876 21.8538 92.3372 22.293 92.6666 22.5925C93.006 22.882 93.5002 23.0267 94.149 23.0267C94.8278 23.0267 95.3619 22.842 95.7512 22.4727C96.1405 22.1033 96.3352 21.5942 96.3352 20.9454C96.3352 20.2466 96.1555 19.7125 95.7961 19.3432C95.4368 18.9738 94.9177 18.7891 94.2389 18.7891C93.2107 18.7891 92.4769 19.1086 92.0377 19.7475H90.9746L91.5735 14.1173H97.1288V15.2403H92.5917L92.2024 18.3549L92.1875 18.4897H92.2024C92.7315 17.9406 93.4852 17.6661 94.4635 17.6661ZM102.954 24.1497C101.756 24.1497 100.843 23.7155 100.214 22.847C99.585 21.9785 99.2705 20.7158 99.2705 19.0587C99.2705 17.4016 99.585 16.1388 100.214 15.2703C100.843 14.4018 101.756 13.9676 102.954 13.9676C104.152 13.9676 105.065 14.4018 105.694 15.2703C106.323 16.1388 106.638 17.4016 106.638 19.0587C106.638 20.7158 106.323 21.9785 105.694 22.847C105.065 23.7155 104.152 24.1497 102.954 24.1497ZM102.954 23.0716C103.743 23.0716 104.347 22.7322 104.766 22.0534C105.185 21.3646 105.395 20.3664 105.395 19.0587C105.395 17.751 105.185 16.7577 104.766 16.0789C104.347 15.3901 103.743 15.0457 102.954 15.0457C102.165 15.0457 101.561 15.3901 101.142 16.0789C100.723 16.7577 100.513 17.751 100.513 19.0587C100.513 20.3664 100.723 21.3646 101.142 22.0534C101.561 22.7322 102.165 23.0716 102.954 23.0716ZM110.367 13.9676C111.096 13.9676 111.675 14.2171 112.104 14.7163C112.533 15.2054 112.748 15.8643 112.748 16.6928C112.748 17.5214 112.533 18.1852 112.104 18.6843C111.675 19.1735 111.096 19.418 110.367 19.418C109.638 19.418 109.059 19.1735 108.63 18.6843C108.201 18.1852 107.986 17.5214 107.986 16.6928C107.986 15.8643 108.201 15.2054 108.63 14.7163C109.059 14.2171 109.638 13.9676 110.367 13.9676ZM116.372 14.1173H117.51L111.221 24H110.083L116.372 14.1173ZM110.367 14.9109C109.948 14.9109 109.623 15.0657 109.394 15.3751C109.164 15.6846 109.049 16.1238 109.049 16.6928C109.049 17.2618 109.164 17.701 109.394 18.0105C109.623 18.32 109.948 18.4747 110.367 18.4747C110.786 18.4747 111.111 18.32 111.34 18.0105C111.57 17.701 111.685 17.2618 111.685 16.6928C111.685 16.1238 111.57 15.6846 111.34 15.3751C111.111 15.0657 110.786 14.9109 110.367 14.9109ZM117.225 18.6993C117.954 18.6993 118.533 18.9489 118.962 19.448C119.391 19.9371 119.606 20.596 119.606 21.4245C119.606 22.2531 119.391 22.9169 118.962 23.416C118.533 23.9052 117.954 24.1497 117.225 24.1497C116.496 24.1497 115.917 23.9052 115.488 23.416C115.059 22.9169 114.844 22.2531 114.844 21.4245C114.844 20.596 115.059 19.9371 115.488 19.448C115.917 18.9489 116.496 18.6993 117.225 18.6993ZM117.225 19.6426C116.806 19.6426 116.481 19.7974 116.252 20.1068C116.022 20.4163 115.907 20.8555 115.907 21.4245C115.907 21.9935 116.022 22.4327 116.252 22.7422C116.481 23.0517 116.806 23.2064 117.225 23.2064C117.644 23.2064 117.969 23.0517 118.198 22.7422C118.428 22.4327 118.543 21.9935 118.543 21.4245C118.543 20.8555 118.428 20.4163 118.198 20.1068C117.969 19.7974 117.644 19.6426 117.225 19.6426ZM84.0959 42.877V44H76.9384V34.1173H83.8713V35.2403H78.1363V38.4298H82.5985V39.5528H78.1363V42.877H84.0959ZM90.6648 44L88.5984 41.1101L86.4722 44H85.0796L87.9546 40.2266L85.2593 36.5131H86.7567L88.7332 39.2833L90.6798 36.5131H92.0873L89.3771 40.1817L92.1322 44H90.6648ZM98.3793 43.4759C97.8802 43.9251 97.2363 44.1497 96.4477 44.1497C95.8388 44.1497 95.3397 43.985 94.9503 43.6556C94.571 43.3262 94.3764 42.8221 94.3664 42.1433V37.5463H92.869V36.5131H94.3664V34.7163L95.5643 34.3868V36.5131H98.3344V37.5463H95.5643V41.9336C95.5643 42.293 95.6641 42.5675 95.8637 42.7572C96.0734 42.9369 96.3479 43.0267 96.6873 43.0267C97.1665 43.0267 97.5907 42.842 97.9601 42.4727L98.3793 43.4759ZM106.27 39.8672C106.27 40.1468 106.25 40.4263 106.21 40.7058H100.565C100.635 41.4644 100.884 42.0534 101.313 42.4727C101.753 42.8919 102.317 43.1016 103.005 43.1016C103.554 43.1016 104.009 43.0067 104.368 42.8171C104.737 42.6274 104.987 42.3529 105.117 41.9935L106.12 42.5176C105.82 43.0467 105.421 43.451 104.922 43.7305C104.423 44.01 103.784 44.1497 103.005 44.1497C101.877 44.1497 100.989 43.8053 100.34 43.1165C99.7012 42.4278 99.3818 41.4744 99.3818 40.2566C99.3818 39.0387 99.6862 38.0854 100.295 37.3966C100.914 36.7078 101.788 36.3634 102.916 36.3634C103.614 36.3634 104.218 36.5181 104.727 36.8276C105.237 37.137 105.621 37.5563 105.88 38.0854C106.14 38.6144 106.27 39.2084 106.27 39.8672ZM102.916 37.4115C102.257 37.4115 101.723 37.6062 101.313 37.9955C100.914 38.3848 100.67 38.9339 100.58 39.6426H105.117C105.037 38.9439 104.807 38.3998 104.428 38.0105C104.049 37.6112 103.544 37.4115 102.916 37.4115ZM111.856 36.3634C112.215 36.3634 112.49 36.4133 112.679 36.5131L112.44 37.6811C112.2 37.5513 111.886 37.4864 111.496 37.4864C111.177 37.4864 110.862 37.5812 110.553 37.7709C110.254 37.9506 110.004 38.2301 109.804 38.6094C109.615 38.9788 109.52 39.428 109.52 39.9571V44H108.322V36.5131H109.295L109.46 37.741C109.879 36.8226 110.678 36.3634 111.856 36.3634ZM117.848 36.3634C118.697 36.3634 119.396 36.608 119.945 37.0971C120.494 37.5862 120.768 38.29 120.768 39.2084V44H119.57V39.6277C119.57 38.849 119.401 38.285 119.061 37.9356C118.732 37.5862 118.287 37.4115 117.728 37.4115C117.329 37.4115 116.955 37.5014 116.605 37.6811C116.256 37.8508 115.967 38.1353 115.737 38.5346C115.517 38.9239 115.408 39.418 115.408 40.017V44H114.21V36.5131H115.258L115.333 37.6811C115.582 37.2319 115.927 36.9024 116.366 36.6928C116.805 36.4732 117.299 36.3634 117.848 36.3634ZM129.395 43.1315C129.595 43.1315 129.794 43.1066 129.994 43.0567L129.919 44C129.64 44.0998 129.34 44.1497 129.021 44.1497C128.631 44.1497 128.322 44.0649 128.092 43.8952C127.873 43.7255 127.733 43.441 127.673 43.0417C127.444 43.3911 127.104 43.6656 126.655 43.8652C126.216 44.0549 125.752 44.1497 125.262 44.1497C124.524 44.1497 123.915 43.98 123.436 43.6406C122.956 43.2912 122.717 42.7921 122.717 42.1433C122.717 41.5743 122.966 41.0851 123.466 40.6758C123.965 40.2566 124.688 39.9671 125.637 39.8073L127.628 39.4779V39.0587C127.628 38.5595 127.474 38.1602 127.164 37.8608C126.855 37.5613 126.425 37.4115 125.876 37.4115C125.377 37.4115 124.943 37.5313 124.574 37.7709C124.214 38.0105 123.935 38.3649 123.735 38.8341L122.852 38.1902C123.051 37.6312 123.421 37.1869 123.96 36.8575C124.509 36.5281 125.148 36.3634 125.876 36.3634C126.765 36.3634 127.478 36.578 128.018 37.0073C128.557 37.4365 128.826 38.0704 128.826 38.9089V42.5925C128.826 42.7722 128.871 42.9069 128.961 42.9968C129.051 43.0866 129.195 43.1315 129.395 43.1315ZM125.322 43.1016C125.951 43.1016 126.49 42.9518 126.939 42.6524C127.399 42.3529 127.628 41.9636 127.628 41.4844V40.4512L125.951 40.7657C125.282 40.8855 124.783 41.0602 124.454 41.2897C124.124 41.5094 123.96 41.7939 123.96 42.1433C123.96 42.4527 124.079 42.6923 124.319 42.862C124.559 43.0217 124.893 43.1016 125.322 43.1016ZM132.651 41.9935C132.651 42.3729 132.705 42.6374 132.815 42.7871C132.935 42.9269 133.15 42.9968 133.459 42.9968C133.669 42.9968 133.848 42.9818 133.998 42.9518C134.158 42.9219 134.343 42.867 134.552 42.7871L134.358 43.9401C134.028 44.0799 133.659 44.1497 133.249 44.1497C132.641 44.1497 132.186 43.985 131.887 43.6556C131.597 43.3262 131.453 42.8221 131.453 42.1433V33.0692H132.651V41.9935Z" fill="white"/>
<path d="M180.485 21.4095H178.733V24H177.535V21.4095H172.714V20.5261L177.221 14.1173H178.733V20.3763H180.485V21.4095ZM173.987 20.3763H177.535V16.6778L177.595 15.0906H177.565C177.316 15.5997 176.986 16.1488 176.577 16.7377L173.987 20.3763ZM185.641 24.1497C184.443 24.1497 183.53 23.7155 182.901 22.847C182.272 21.9785 181.958 20.7158 181.958 19.0587C181.958 17.4016 182.272 16.1388 182.901 15.2703C183.53 14.4018 184.443 13.9676 185.641 13.9676C186.839 13.9676 187.752 14.4018 188.381 15.2703C189.01 16.1388 189.325 17.4016 189.325 19.0587C189.325 20.7158 189.01 21.9785 188.381 22.847C187.752 23.7155 186.839 24.1497 185.641 24.1497ZM185.641 23.0716C186.43 23.0716 187.034 22.7322 187.453 22.0534C187.872 21.3646 188.082 20.3664 188.082 19.0587C188.082 17.751 187.872 16.7577 187.453 16.0789C187.034 15.3901 186.43 15.0457 185.641 15.0457C184.853 15.0457 184.249 15.3901 183.829 16.0789C183.41 16.7577 183.2 17.751 183.2 19.0587C183.2 20.3664 183.41 21.3646 183.829 22.0534C184.249 22.7322 184.853 23.0716 185.641 23.0716ZM193.054 13.9676C193.783 13.9676 194.362 14.2171 194.791 14.7163C195.22 15.2054 195.435 15.8643 195.435 16.6928C195.435 17.5214 195.22 18.1852 194.791 18.6843C194.362 19.1735 193.783 19.418 193.054 19.418C192.326 19.418 191.747 19.1735 191.317 18.6843C190.888 18.1852 190.673 17.5214 190.673 16.6928C190.673 15.8643 190.888 15.2054 191.317 14.7163C191.747 14.2171 192.326 13.9676 193.054 13.9676ZM199.059 14.1173H200.197L193.908 24H192.77L199.059 14.1173ZM193.054 14.9109C192.635 14.9109 192.311 15.0657 192.081 15.3751C191.851 15.6846 191.737 16.1238 191.737 16.6928C191.737 17.2618 191.851 17.701 192.081 18.0105C192.311 18.32 192.635 18.4747 193.054 18.4747C193.473 18.4747 193.798 18.32 194.028 18.0105C194.257 17.701 194.372 17.2618 194.372 16.6928C194.372 16.1238 194.257 15.6846 194.028 15.3751C193.798 15.0657 193.473 14.9109 193.054 14.9109ZM199.912 18.6993C200.641 18.6993 201.22 18.9489 201.649 19.448C202.078 19.9371 202.293 20.596 202.293 21.4245C202.293 22.2531 202.078 22.9169 201.649 23.416C201.22 23.9052 200.641 24.1497 199.912 24.1497C199.183 24.1497 198.605 23.9052 198.175 23.416C197.746 22.9169 197.531 22.2531 197.531 21.4245C197.531 20.596 197.746 19.9371 198.175 19.448C198.605 18.9489 199.183 18.6993 199.912 18.6993ZM199.912 19.6426C199.493 19.6426 199.169 19.7974 198.939 20.1068C198.709 20.4163 198.595 20.8555 198.595 21.4245C198.595 21.9935 198.709 22.4327 198.939 22.7422C199.169 23.0517 199.493 23.2064 199.912 23.2064C200.331 23.2064 200.656 23.0517 200.886 22.7422C201.115 22.4327 201.23 21.9935 201.23 21.4245C201.23 20.8555 201.115 20.4163 200.886 20.1068C200.656 19.7974 200.331 19.6426 199.912 19.6426ZM164.518 41.4694C164.209 42.308 163.7 42.9668 162.991 43.446C162.282 43.9151 161.464 44.1497 160.535 44.1497C159.607 44.1497 158.798 43.9451 158.109 43.5358C157.421 43.1165 156.887 42.5276 156.507 41.7689C156.138 41.0003 155.953 40.0968 155.953 39.0587C155.953 38.0305 156.138 37.132 156.507 36.3634C156.887 35.5947 157.421 35.0058 158.109 34.5965C158.798 34.1772 159.597 33.9676 160.505 33.9676C161.454 33.9676 162.247 34.1622 162.886 34.5516C163.535 34.9409 164.019 35.5149 164.338 36.2735L163.156 36.8276C162.936 36.2486 162.616 35.8143 162.197 35.5249C161.778 35.2354 161.244 35.0906 160.595 35.0906C159.916 35.0906 159.322 35.2503 158.813 35.5698C158.304 35.8792 157.91 36.3334 157.63 36.9324C157.351 37.5313 157.211 38.2401 157.211 39.0587C157.211 40.2965 157.505 41.2698 158.094 41.9785C158.693 42.6773 159.507 43.0267 160.535 43.0267C161.204 43.0267 161.783 42.857 162.272 42.5176C162.761 42.1782 163.111 41.6791 163.32 41.0202L164.518 41.4694ZM169.528 36.3634C170.656 36.3634 171.539 36.7078 172.178 37.3966C172.827 38.0854 173.151 39.0387 173.151 40.2566C173.151 41.4744 172.827 42.4278 172.178 43.1165C171.539 43.8053 170.656 44.1497 169.528 44.1497C168.4 44.1497 167.511 43.8053 166.862 43.1165C166.223 42.4278 165.904 41.4744 165.904 40.2566C165.904 39.0387 166.223 38.0854 166.862 37.3966C167.511 36.7078 168.4 36.3634 169.528 36.3634ZM169.528 37.3966C168.769 37.3966 168.175 37.6511 167.746 38.1602C167.316 38.6693 167.102 39.3681 167.102 40.2566C167.102 41.145 167.316 41.8438 167.746 42.3529C168.175 42.862 168.769 43.1165 169.528 43.1165C170.286 43.1165 170.88 42.862 171.309 42.3529C171.739 41.8438 171.953 41.145 171.953 40.2566C171.953 39.3681 171.739 38.6693 171.309 38.1602C170.88 37.6511 170.286 37.3966 169.528 37.3966ZM178.892 36.3634C179.741 36.3634 180.439 36.608 180.988 37.0971C181.538 37.5862 181.812 38.29 181.812 39.2084V44H180.614V39.6277C180.614 38.849 180.444 38.285 180.105 37.9356C179.776 37.5862 179.331 37.4115 178.772 37.4115C178.373 37.4115 177.999 37.5014 177.649 37.6811C177.3 37.8508 177.01 38.1353 176.781 38.5346C176.561 38.9239 176.451 39.418 176.451 40.017V44H175.254V36.5131H176.302L176.377 37.6811C176.626 37.2319 176.971 36.9024 177.41 36.6928C177.849 36.4732 178.343 36.3634 178.892 36.3634ZM187.459 36.3634C188.208 36.3634 188.837 36.5381 189.346 36.8875C189.865 37.2269 190.269 37.716 190.559 38.3549L189.421 38.8939C189.101 37.9057 188.438 37.4115 187.429 37.4115C186.681 37.4115 186.092 37.6661 185.662 38.1752C185.243 38.6743 185.034 39.3681 185.034 40.2566C185.034 41.145 185.243 41.8438 185.662 42.3529C186.092 42.852 186.681 43.1016 187.429 43.1016C188.008 43.1016 188.472 42.9718 188.822 42.7123C189.181 42.4427 189.416 42.0584 189.526 41.5593L190.634 41.9486C190.374 42.6474 189.975 43.1914 189.436 43.5807C188.897 43.9601 188.238 44.1497 187.459 44.1497C186.331 44.1497 185.443 43.8053 184.794 43.1165C184.155 42.4278 183.836 41.4744 183.836 40.2566C183.836 39.0387 184.155 38.0854 184.794 37.3966C185.443 36.7078 186.331 36.3634 187.459 36.3634ZM196.061 36.3634C196.42 36.3634 196.695 36.4133 196.885 36.5131L196.645 37.6811C196.405 37.5513 196.091 37.4864 195.702 37.4864C195.382 37.4864 195.068 37.5812 194.758 37.7709C194.459 37.9506 194.209 38.2301 194.01 38.6094C193.82 38.9788 193.725 39.428 193.725 39.9571V44H192.527V36.5131H193.5L193.665 37.741C194.084 36.8226 194.883 36.3634 196.061 36.3634ZM204.605 39.8672C204.605 40.1468 204.585 40.4263 204.545 40.7058H198.9C198.97 41.4644 199.219 42.0534 199.648 42.4727C200.088 42.8919 200.652 43.1016 201.34 43.1016C201.889 43.1016 202.344 43.0067 202.703 42.8171C203.072 42.6274 203.322 42.3529 203.452 41.9935L204.455 42.5176C204.155 43.0467 203.756 43.451 203.257 43.7305C202.758 44.01 202.119 44.1497 201.34 44.1497C200.212 44.1497 199.324 43.8053 198.675 43.1165C198.036 42.4278 197.717 41.4744 197.717 40.2566C197.717 39.0387 198.021 38.0854 198.63 37.3966C199.249 36.7078 200.123 36.3634 201.251 36.3634C201.949 36.3634 202.553 36.5181 203.062 36.8276C203.571 37.137 203.956 37.5563 204.215 38.0854C204.475 38.6144 204.605 39.2084 204.605 39.8672ZM201.251 37.4115C200.592 37.4115 200.058 37.6062 199.648 37.9955C199.249 38.3848 199.004 38.9339 198.915 39.6426H203.452C203.372 38.9439 203.142 38.3998 202.763 38.0105C202.384 37.6112 201.879 37.4115 201.251 37.4115ZM211.02 43.4759C210.52 43.9251 209.877 44.1497 209.088 44.1497C208.479 44.1497 207.98 43.985 207.591 43.6556C207.211 43.3262 207.017 42.8221 207.007 42.1433V37.5463H205.509V36.5131H207.007V34.7163L208.204 34.3868V36.5131H210.975V37.5463H208.204V41.9336C208.204 42.293 208.304 42.5675 208.504 42.7572C208.714 42.9369 208.988 43.0267 209.327 43.0267C209.807 43.0267 210.231 42.842 210.6 42.4727L211.02 43.4759ZM218.91 39.8672C218.91 40.1468 218.89 40.4263 218.85 40.7058H213.205C213.275 41.4644 213.524 42.0534 213.954 42.4727C214.393 42.8919 214.957 43.1016 215.646 43.1016C216.195 43.1016 216.649 43.0067 217.008 42.8171C217.378 42.6274 217.627 42.3529 217.757 41.9935L218.76 42.5176C218.461 43.0467 218.061 43.451 217.562 43.7305C217.063 44.01 216.424 44.1497 215.646 44.1497C214.518 44.1497 213.629 43.8053 212.98 43.1165C212.341 42.4278 212.022 41.4744 212.022 40.2566C212.022 39.0387 212.326 38.0854 212.935 37.3966C213.554 36.7078 214.428 36.3634 215.556 36.3634C216.255 36.3634 216.858 36.5181 217.368 36.8276C217.877 37.137 218.261 37.5563 218.521 38.0854C218.78 38.6144 218.91 39.2084 218.91 39.8672ZM215.556 37.4115C214.897 37.4115 214.363 37.6062 213.954 37.9955C213.554 38.3848 213.31 38.9339 213.22 39.6426H217.757C217.677 38.9439 217.447 38.3998 217.068 38.0105C216.689 37.6112 216.185 37.4115 215.556 37.4115Z" fill="white"/>
<path d="M259.473 13.9676C260.262 13.9676 260.906 14.1323 261.405 14.4617C261.904 14.7911 262.308 15.3202 262.618 16.0489L261.51 16.573C261.19 15.5847 260.486 15.0906 259.398 15.0906C258.879 15.0906 258.415 15.2753 258.006 15.6446C257.606 16.014 257.292 16.5181 257.062 17.157C256.843 17.7959 256.733 18.5046 256.733 19.2833V19.5528H256.793C256.943 18.9638 257.282 18.5146 257.811 18.2052C258.34 17.8957 258.904 17.741 259.503 17.741C260.511 17.741 261.315 18.0305 261.914 18.6094C262.523 19.1884 262.827 19.9671 262.827 20.9454C262.827 21.9236 262.518 22.7023 261.899 23.2813C261.29 23.8602 260.466 24.1497 259.428 24.1497C258.62 24.1497 257.926 23.9351 257.347 23.5059C256.778 23.0666 256.344 22.4677 256.044 21.709C255.755 20.9404 255.61 20.0569 255.61 19.0587C255.61 17.9805 255.775 17.0622 256.104 16.3035C256.443 15.5348 256.903 14.9558 257.482 14.5665C258.071 14.1672 258.734 13.9676 259.473 13.9676ZM259.413 18.8939C258.774 18.8939 258.255 19.0836 257.856 19.463C257.457 19.8423 257.257 20.3314 257.257 20.9304C257.257 21.5493 257.452 22.0484 257.841 22.4278C258.24 22.8071 258.764 22.9968 259.413 22.9968C260.092 22.9968 260.621 22.8171 261 22.4577C261.38 22.0883 261.57 21.5792 261.57 20.9304C261.57 20.3015 261.38 19.8073 261 19.448C260.621 19.0786 260.092 18.8939 259.413 18.8939ZM268.235 17.6661C269.174 17.6661 269.927 17.9606 270.496 18.5496C271.065 19.1285 271.35 19.8972 271.35 20.8555C271.35 21.8837 271.05 22.6923 270.451 23.2813C269.852 23.8602 269.024 24.1497 267.966 24.1497C267.077 24.1497 266.354 23.9601 265.795 23.5807C265.246 23.1914 264.821 22.6274 264.522 21.8887L265.69 21.2748C265.859 21.8538 266.109 22.293 266.438 22.5925C266.778 22.882 267.272 23.0267 267.921 23.0267C268.6 23.0267 269.134 22.842 269.523 22.4727C269.912 22.1033 270.107 21.5942 270.107 20.9454C270.107 20.2466 269.927 19.7125 269.568 19.3432C269.209 18.9738 268.689 18.7891 268.011 18.7891C266.982 18.7891 266.249 19.1086 265.81 19.7475H264.746L265.345 14.1173H270.901V15.2403H266.364L265.974 18.3549L265.959 18.4897H265.974C266.503 17.9406 267.257 17.6661 268.235 17.6661ZM275.049 13.9676C275.778 13.9676 276.357 14.2171 276.786 14.7163C277.215 15.2054 277.43 15.8643 277.43 16.6928C277.43 17.5214 277.215 18.1852 276.786 18.6843C276.357 19.1735 275.778 19.418 275.049 19.418C274.32 19.418 273.741 19.1735 273.312 18.6843C272.883 18.1852 272.668 17.5214 272.668 16.6928C272.668 15.8643 272.883 15.2054 273.312 14.7163C273.741 14.2171 274.32 13.9676 275.049 13.9676ZM281.053 14.1173H282.191L275.902 24H274.764L281.053 14.1173ZM275.049 14.9109C274.63 14.9109 274.305 15.0657 274.076 15.3751C273.846 15.6846 273.731 16.1238 273.731 16.6928C273.731 17.2618 273.846 17.701 274.076 18.0105C274.305 18.32 274.63 18.4747 275.049 18.4747C275.468 18.4747 275.793 18.32 276.022 18.0105C276.252 17.701 276.367 17.2618 276.367 16.6928C276.367 16.1238 276.252 15.6846 276.022 15.3751C275.793 15.0657 275.468 14.9109 275.049 14.9109ZM281.907 18.6993C282.636 18.6993 283.215 18.9489 283.644 19.448C284.073 19.9371 284.288 20.596 284.288 21.4245C284.288 22.2531 284.073 22.9169 283.644 23.416C283.215 23.9052 282.636 24.1497 281.907 24.1497C281.178 24.1497 280.599 23.9052 280.17 23.416C279.741 22.9169 279.526 22.2531 279.526 21.4245C279.526 20.596 279.741 19.9371 280.17 19.448C280.599 18.9489 281.178 18.6993 281.907 18.6993ZM281.907 19.6426C281.488 19.6426 281.163 19.7974 280.933 20.1068C280.704 20.4163 280.589 20.8555 280.589 21.4245C280.589 21.9935 280.704 22.4327 280.933 22.7422C281.163 23.0517 281.488 23.2064 281.907 23.2064C282.326 23.2064 282.65 23.0517 282.88 22.7422C283.11 22.4327 283.224 21.9935 283.224 21.4245C283.224 20.8555 283.11 20.4163 282.88 20.1068C282.65 19.7974 282.326 19.6426 281.907 19.6426ZM259.401 42.877V44H252.543V34.1173H253.741V42.877H259.401ZM263.983 36.3634C265.111 36.3634 265.994 36.7078 266.633 37.3966C267.282 38.0854 267.607 39.0387 267.607 40.2566C267.607 41.4744 267.282 42.4278 266.633 43.1165C265.994 43.8053 265.111 44.1497 263.983 44.1497C262.855 44.1497 261.966 43.8053 261.318 43.1165C260.679 42.4278 260.359 41.4744 260.359 40.2566C260.359 39.0387 260.679 38.0854 261.318 37.3966C261.966 36.7078 262.855 36.3634 263.983 36.3634ZM263.983 37.3966C263.224 37.3966 262.63 37.6511 262.201 38.1602C261.772 38.6693 261.557 39.3681 261.557 40.2566C261.557 41.145 261.772 41.8438 262.201 42.3529C262.63 42.862 263.224 43.1165 263.983 43.1165C264.742 43.1165 265.335 42.862 265.765 42.3529C266.194 41.8438 266.409 41.145 266.409 40.2566C266.409 39.3681 266.194 38.6693 265.765 38.1602C265.335 37.6511 264.742 37.3966 263.983 37.3966ZM273.886 43.0417C274.595 43.0417 275.149 43.2014 275.549 43.5208C275.948 43.8403 276.148 44.2745 276.148 44.8236C276.148 45.3027 275.983 45.722 275.653 46.0814C275.324 46.4507 274.875 46.7302 274.306 46.9199C273.747 47.1195 273.128 47.2194 272.449 47.2194C271.311 47.2194 270.452 47.0347 269.874 46.6653C269.295 46.306 269.005 45.8318 269.005 45.2428C269.005 44.9034 269.12 44.6039 269.349 44.3444C269.589 44.0849 269.913 43.9002 270.323 43.7904C270.013 43.6406 269.764 43.451 269.574 43.2214C269.394 42.9918 269.305 42.7222 269.305 42.4128C269.305 42.0434 269.404 41.739 269.604 41.4994C269.804 41.2498 270.078 41.0651 270.428 40.9454C270.068 40.7257 269.794 40.4412 269.604 40.0918C269.424 39.7325 269.334 39.3332 269.334 38.8939C269.334 38.4048 269.464 37.9706 269.724 37.5912C269.983 37.2019 270.348 36.9024 270.817 36.6928C271.286 36.4732 271.815 36.3634 272.404 36.3634C272.963 36.3634 273.472 36.4632 273.931 36.6629C274.211 35.6446 274.915 35.1355 276.043 35.1355L276.312 36.1837C275.334 36.1837 274.74 36.4582 274.53 37.0073C274.83 37.2369 275.059 37.5114 275.219 37.8308C275.389 38.1503 275.474 38.5046 275.474 38.8939C275.474 39.3831 275.344 39.8223 275.084 40.2116C274.825 40.591 274.46 40.8904 273.991 41.1101C273.522 41.3197 272.993 41.4245 272.404 41.4245C271.965 41.4245 271.581 41.3796 271.251 41.2897C270.952 41.3596 270.737 41.4694 270.607 41.6192C270.477 41.7689 270.413 41.9736 270.413 42.2331C270.413 42.4926 270.502 42.6923 270.682 42.832C270.862 42.9718 271.101 43.0417 271.401 43.0417H273.886ZM272.404 37.3367C271.885 37.3367 271.451 37.4814 271.101 37.7709C270.752 38.0604 270.577 38.4348 270.577 38.8939C270.577 39.3531 270.752 39.7275 271.101 40.017C271.451 40.3065 271.885 40.4512 272.404 40.4512C272.923 40.4512 273.357 40.3065 273.707 40.017C274.056 39.7275 274.231 39.3531 274.231 38.8939C274.231 38.4348 274.056 38.0604 273.707 37.7709C273.357 37.4814 272.923 37.3367 272.404 37.3367ZM272.584 46.2161C273.342 46.2161 273.941 46.0913 274.381 45.8418C274.82 45.6022 275.039 45.3077 275.039 44.9583C275.039 44.6688 274.925 44.4492 274.695 44.2995C274.475 44.1497 274.096 44.0749 273.557 44.0749H271.551C271.091 44.0749 270.737 44.1547 270.487 44.3144C270.238 44.4842 270.113 44.7137 270.113 45.0032C270.113 45.3826 270.323 45.6771 270.742 45.8867C271.161 46.1063 271.775 46.2161 272.584 46.2161ZM278.301 35.0756C278.032 35.0756 277.812 34.9958 277.642 34.8361C277.483 34.6664 277.403 34.4467 277.403 34.1772C277.403 33.9077 277.483 33.6931 277.642 33.5333C277.812 33.3636 278.032 33.2788 278.301 33.2788C278.571 33.2788 278.785 33.3636 278.945 33.5333C279.115 33.6931 279.2 33.9077 279.2 34.1772C279.2 34.4467 279.115 34.6664 278.945 34.8361C278.785 34.9958 278.571 35.0756 278.301 35.0756ZM278.9 44H277.702V36.5131H278.9V44ZM284.614 36.3634C285.363 36.3634 285.992 36.5381 286.501 36.8875C287.02 37.2269 287.425 37.716 287.714 38.3549L286.576 38.8939C286.257 37.9057 285.593 37.4115 284.585 37.4115C283.836 37.4115 283.247 37.6661 282.818 38.1752C282.398 38.6743 282.189 39.3681 282.189 40.2566C282.189 41.145 282.398 41.8438 282.818 42.3529C283.247 42.852 283.836 43.1016 284.585 43.1016C285.164 43.1016 285.628 42.9718 285.977 42.7123C286.336 42.4427 286.571 42.0584 286.681 41.5593L287.789 41.9486C287.529 42.6474 287.13 43.1914 286.591 43.5807C286.052 43.9601 285.393 44.1497 284.614 44.1497C283.486 44.1497 282.598 43.8053 281.949 43.1165C281.31 42.4278 280.991 41.4744 280.991 40.2566C280.991 39.0387 281.31 38.0854 281.949 37.3966C282.598 36.7078 283.486 36.3634 284.614 36.3634Z" fill="white"/>
<path d="M338.274 23.0267C339.641 22.0185 340.689 21.1899 341.418 20.5411C342.147 19.8822 342.666 19.2883 342.975 18.7592C343.295 18.2201 343.454 17.6561 343.454 17.0671C343.454 16.4782 343.265 16.004 342.885 15.6446C342.506 15.2753 341.997 15.0906 341.358 15.0906C340.689 15.0906 340.145 15.3102 339.726 15.7495C339.317 16.1887 339.077 16.7826 339.007 17.5313L337.959 16.9024C338.089 16.014 338.448 15.3052 339.037 14.7762C339.636 14.2371 340.425 13.9676 341.403 13.9676C342.062 13.9676 342.641 14.0974 343.14 14.3569C343.649 14.6164 344.038 14.9808 344.308 15.45C344.577 15.9192 344.712 16.4582 344.712 17.0671C344.712 17.706 344.558 18.32 344.248 18.9089C343.949 19.4979 343.454 20.1168 342.766 20.7657C342.077 21.4145 341.149 22.1283 339.981 22.9069V22.9219C340.639 22.8919 341.134 22.877 341.463 22.877H344.922V24H338.274V23.0267ZM350.328 17.6661C351.266 17.6661 352.02 17.9606 352.589 18.5496C353.158 19.1285 353.442 19.8972 353.442 20.8555C353.442 21.8837 353.143 22.6923 352.544 23.2813C351.945 23.8602 351.116 24.1497 350.058 24.1497C349.17 24.1497 348.446 23.9601 347.887 23.5807C347.338 23.1914 346.914 22.6274 346.614 21.8887L347.782 21.2748C347.952 21.8538 348.201 22.293 348.531 22.5925C348.87 22.882 349.364 23.0267 350.013 23.0267C350.692 23.0267 351.226 22.842 351.615 22.4727C352.005 22.1033 352.199 21.5942 352.199 20.9454C352.199 20.2466 352.02 19.7125 351.66 19.3432C351.301 18.9738 350.782 18.7891 350.103 18.7891C349.075 18.7891 348.341 19.1086 347.902 19.7475H346.839L347.438 14.1173H352.993V15.2403H348.456L348.067 18.3549L348.052 18.4897H348.067C348.596 17.9406 349.349 17.6661 350.328 17.6661ZM357.141 13.9676C357.87 13.9676 358.449 14.2171 358.878 14.7163C359.307 15.2054 359.522 15.8643 359.522 16.6928C359.522 17.5214 359.307 18.1852 358.878 18.6843C358.449 19.1735 357.87 19.418 357.141 19.418C356.412 19.418 355.833 19.1735 355.404 18.6843C354.975 18.1852 354.76 17.5214 354.76 16.6928C354.76 15.8643 354.975 15.2054 355.404 14.7163C355.833 14.2171 356.412 13.9676 357.141 13.9676ZM363.146 14.1173H364.284L357.995 24H356.857L363.146 14.1173ZM357.141 14.9109C356.722 14.9109 356.397 15.0657 356.168 15.3751C355.938 15.6846 355.823 16.1238 355.823 16.6928C355.823 17.2618 355.938 17.701 356.168 18.0105C356.397 18.32 356.722 18.4747 357.141 18.4747C357.56 18.4747 357.885 18.32 358.114 18.0105C358.344 17.701 358.459 17.2618 358.459 16.6928C358.459 16.1238 358.344 15.6846 358.114 15.3751C357.885 15.0657 357.56 14.9109 357.141 14.9109ZM363.999 18.6993C364.728 18.6993 365.307 18.9489 365.736 19.448C366.165 19.9371 366.38 20.596 366.38 21.4245C366.38 22.2531 366.165 22.9169 365.736 23.416C365.307 23.9052 364.728 24.1497 363.999 24.1497C363.27 24.1497 362.691 23.9052 362.262 23.416C361.833 22.9169 361.618 22.2531 361.618 21.4245C361.618 20.596 361.833 19.9371 362.262 19.448C362.691 18.9489 363.27 18.6993 363.999 18.6993ZM363.999 19.6426C363.58 19.6426 363.255 19.7974 363.026 20.1068C362.796 20.4163 362.681 20.8555 362.681 21.4245C362.681 21.9935 362.796 22.4327 363.026 22.7422C363.255 23.0517 363.58 23.2064 363.999 23.2064C364.418 23.2064 364.743 23.0517 364.972 22.7422C365.202 22.4327 365.317 21.9935 365.317 21.4245C365.317 20.8555 365.202 20.4163 364.972 20.1068C364.743 19.7974 364.418 19.6426 363.999 19.6426ZM331.619 33.9676C332.547 33.9676 333.356 34.1772 334.045 34.5965C334.734 35.0058 335.263 35.5947 335.632 36.3634C336.011 37.1221 336.201 38.0205 336.201 39.0587C336.201 40.0968 336.011 41.0003 335.632 41.7689C335.263 42.5276 334.734 43.1165 334.045 43.5358C333.356 43.9451 332.547 44.1497 331.619 44.1497C330.691 44.1497 329.882 43.9451 329.193 43.5358C328.504 43.1165 327.97 42.5276 327.591 41.7689C327.222 41.0003 327.037 40.0968 327.037 39.0587C327.037 38.0205 327.222 37.1221 327.591 36.3634C327.97 35.5947 328.504 35.0058 329.193 34.5965C329.882 34.1772 330.691 33.9676 331.619 33.9676ZM331.619 35.0906C330.591 35.0906 329.777 35.445 329.178 36.1537C328.589 36.8525 328.295 37.8208 328.295 39.0587C328.295 40.2965 328.589 41.2698 329.178 41.9785C329.777 42.6773 330.591 43.0267 331.619 43.0267C332.647 43.0267 333.456 42.6773 334.045 41.9785C334.644 41.2698 334.943 40.2965 334.943 39.0587C334.943 37.8208 334.644 36.8525 334.045 36.1537C333.456 35.445 332.647 35.0906 331.619 35.0906ZM341.849 36.3634C342.208 36.3634 342.482 36.4133 342.672 36.5131L342.433 37.6811C342.193 37.5513 341.878 37.4864 341.489 37.4864C341.17 37.4864 340.855 37.5812 340.546 37.7709C340.246 37.9506 339.997 38.2301 339.797 38.6094C339.607 38.9788 339.513 39.428 339.513 39.9571V44H338.315V36.5131H339.288L339.453 37.741C339.872 36.8226 340.671 36.3634 341.849 36.3634ZM350.617 33.0692V44H349.569L349.494 42.6973C349.274 43.1365 348.935 43.4909 348.476 43.7604C348.026 44.02 347.512 44.1497 346.933 44.1497C345.885 44.1497 345.052 43.8053 344.433 43.1165C343.824 42.4178 343.519 41.4644 343.519 40.2566C343.519 39.0487 343.824 38.1003 344.433 37.4115C345.052 36.7128 345.885 36.3634 346.933 36.3634C347.482 36.3634 347.971 36.4832 348.401 36.7228C348.84 36.9623 349.179 37.2818 349.419 37.6811V33.0692H350.617ZM347.068 43.1016C347.787 43.1016 348.356 42.852 348.775 42.3529C349.204 41.8538 349.419 41.1849 349.419 40.3464V40.1667C349.419 39.3282 349.204 38.6594 348.775 38.1602C348.356 37.6611 347.787 37.4115 347.068 37.4115C346.339 37.4115 345.765 37.6711 345.346 38.1902C344.927 38.6993 344.717 39.3881 344.717 40.2566C344.717 41.125 344.927 41.8188 345.346 42.3379C345.765 42.847 346.339 43.1016 347.068 43.1016ZM359.599 39.8672C359.599 40.1468 359.579 40.4263 359.539 40.7058H353.894C353.964 41.4644 354.214 42.0534 354.643 42.4727C355.082 42.8919 355.646 43.1016 356.335 43.1016C356.884 43.1016 357.338 43.0067 357.698 42.8171C358.067 42.6274 358.317 42.3529 358.446 41.9935L359.45 42.5176C359.15 43.0467 358.751 43.451 358.252 43.7305C357.753 44.01 357.114 44.1497 356.335 44.1497C355.207 44.1497 354.319 43.8053 353.67 43.1165C353.031 42.4278 352.711 41.4744 352.711 40.2566C352.711 39.0387 353.016 38.0854 353.625 37.3966C354.244 36.7078 355.117 36.3634 356.245 36.3634C356.944 36.3634 357.548 36.5181 358.057 36.8276C358.566 37.137 358.95 37.5563 359.21 38.0854C359.47 38.6144 359.599 39.2084 359.599 39.8672ZM356.245 37.4115C355.586 37.4115 355.052 37.6062 354.643 37.9955C354.244 38.3848 353.999 38.9339 353.909 39.6426H358.446C358.366 38.9439 358.137 38.3998 357.758 38.0105C357.378 37.6112 356.874 37.4115 356.245 37.4115ZM365.185 36.3634C365.545 36.3634 365.819 36.4133 366.009 36.5131L365.769 37.6811C365.53 37.5513 365.215 37.4864 364.826 37.4864C364.507 37.4864 364.192 37.5812 363.883 37.7709C363.583 37.9506 363.334 38.2301 363.134 38.6094C362.944 38.9788 362.849 39.428 362.849 39.9571V44H361.652V36.5131H362.625L362.79 37.741C363.209 36.8226 364.007 36.3634 365.185 36.3634ZM368.677 41.9935C368.677 42.3729 368.732 42.6374 368.842 42.7871C368.962 42.9269 369.176 42.9968 369.486 42.9968C369.696 42.9968 369.875 42.9818 370.025 42.9518C370.185 42.9219 370.369 42.867 370.579 42.7871L370.384 43.9401C370.055 44.0799 369.686 44.1497 369.276 44.1497C368.667 44.1497 368.213 43.985 367.914 43.6556C367.624 43.3262 367.479 42.8221 367.479 42.1433V33.0692H368.677V41.9935ZM374.356 45.2578C374.067 45.9765 373.743 46.4807 373.383 46.7701C373.024 47.0696 372.56 47.2194 371.991 47.2194C371.611 47.2194 371.292 47.1694 371.032 47.0696C370.783 46.9698 370.553 46.8101 370.343 46.5905L370.763 45.5722C371.052 45.9715 371.457 46.1712 371.976 46.1712C372.265 46.1712 372.52 46.0814 372.739 45.9017C372.969 45.732 373.169 45.4175 373.338 44.9583L373.728 43.985L370.598 36.5131H371.961L373.832 41.3946L374.297 42.7272L374.836 41.2448L376.588 36.5131H377.875L374.356 45.2578Z" fill="white"/>
<mask id="mask0_807_2229" style="mask-type:alpha" maskUnits="userSpaceOnUse" x="70" y="49" width="70" height="175">
<path d="M70.0703 49H139.948V64.2233H70.0703V49Z" fill="#D9D9D9"/>
<path d="M70.0703 66.7189H139.948V81.9423H70.0703V66.7189Z" fill="#D9D9D9"/>
<path d="M70.0703 84.4379H139.948V99.6612H70.0703V84.4379Z" fill="#D9D9D9"/>
<path d="M70.0703 102.157H139.948V117.38H70.0703V102.157Z" fill="#D9D9D9"/>
<path d="M70.0703 119.876H139.948V135.099H70.0703V119.876Z" fill="#D9D9D9"/>
<path d="M70.0703 137.595H139.948V152.818H70.0703V137.595Z" fill="#D9D9D9"/>
<path d="M70.0703 155.314H139.948V170.537H70.0703V155.314Z" fill="#D9D9D9"/>
<path d="M70.0703 173.033H139.948V188.256H70.0703V173.033Z" fill="#D9D9D9"/>
<path d="M70.0703 190.752H139.948V205.975H70.0703V190.752Z" fill="#D9D9D9"/>
<path d="M70.0703 208.471H139.948V223.694H70.0703V208.471Z" fill="#D9D9D9"/>
</mask>
<g mask="url(#mask0_807_2229)">
<rect width="69.8775" height="174.694" transform="matrix(1 0 0 -1 70.0703 223.693)" fill="white" fill-opacity="0.1"/>
<rect opacity="0.5" width="69.8775" height="86.0991" transform="matrix(1 0 0 -1 70.0703 223.693)" fill="url(#paint0_linear_807_2229)"/>
</g>
<mask id="mask1_807_2229" style="mask-type:alpha" maskUnits="userSpaceOnUse" x="70" y="236" width="70" height="175">
<path d="M70.0703 236.172H139.948V251.395H70.0703V236.172Z" fill="#D9D9D9"/>
<path d="M70.0703 253.891H139.948V269.114H70.0703V253.891Z" fill="#D9D9D9"/>
<path d="M70.0703 271.61H139.948V286.833H70.0703V271.61Z" fill="#D9D9D9"/>
<path d="M70.0703 289.329H139.948V304.552H70.0703V289.329Z" fill="#D9D9D9"/>
<path d="M70.0703 307.048H139.948V322.271H70.0703V307.048Z" fill="#D9D9D9"/>
<path d="M70.0703 324.767H139.948V339.99H70.0703V324.767Z" fill="#D9D9D9"/>
<path d="M70.0703 342.486H139.948V357.709H70.0703V342.486Z" fill="#D9D9D9"/>
<path d="M70.0703 360.205H139.948V375.428H70.0703V360.205Z" fill="#D9D9D9"/>
<path d="M70.0703 377.923H139.948V393.147H70.0703V377.923Z" fill="#D9D9D9"/>
<path d="M70.0703 395.642H139.948V410.866H70.0703V395.642Z" fill="#D9D9D9"/>
</mask>
<g mask="url(#mask1_807_2229)">
<rect width="69.8775" height="174.694" transform="matrix(1 0 0 -1 70.0703 410.865)" fill="white" fill-opacity="0.1"/>
<rect opacity="0.5" width="69.8775" height="87.3469" transform="matrix(1 0 0 -1 70.0703 323.52)" fill="url(#paint1_linear_807_2229)"/>
</g>
<mask id="mask2_807_2229" style="mask-type:alpha" maskUnits="userSpaceOnUse" x="152" y="49" width="71" height="175">
<path d="M152.426 49H222.303V64.2233H152.426V49Z" fill="#D9D9D9"/>
<path d="M152.426 66.7189H222.303V81.9423H152.426V66.7189Z" fill="#D9D9D9"/>
<path d="M152.426 84.4379H222.303V99.6612H152.426V84.4379Z" fill="#D9D9D9"/>
<path d="M152.426 102.157H222.303V117.38H152.426V102.157Z" fill="#D9D9D9"/>
<path d="M152.426 119.876H222.303V135.099H152.426V119.876Z" fill="#D9D9D9"/>
<path d="M152.426 137.595H222.303V152.818H152.426V137.595Z" fill="#D9D9D9"/>
<path d="M152.426 155.314H222.303V170.537H152.426V155.314Z" fill="#D9D9D9"/>
<path d="M152.426 173.033H222.303V188.256H152.426V173.033Z" fill="#D9D9D9"/>
<path d="M152.426 190.752H222.303V205.975H152.426V190.752Z" fill="#D9D9D9"/>
<path d="M152.426 208.471H222.303V223.694H152.426V208.471Z" fill="#D9D9D9"/>
</mask>
<g mask="url(#mask2_807_2229)">
<rect width="69.8775" height="174.694" transform="matrix(1 0 0 -1 152.426 223.693)" fill="white" fill-opacity="0.1"/>
<rect width="69.8775" height="68.6297" transform="matrix(1 0 0 -1 152.426 223.693)" fill="url(#paint2_linear_807_2229)"/>
</g>
<mask id="mask3_807_2229" style="mask-type:alpha" maskUnits="userSpaceOnUse" x="152" y="236" width="71" height="175">
<path d="M152.426 236.172H222.303V251.395H152.426V236.172Z" fill="#D9D9D9"/>
<path d="M152.426 253.891H222.303V269.114H152.426V253.891Z" fill="#D9D9D9"/>
<path d="M152.426 271.61H222.303V286.833H152.426V271.61Z" fill="#D9D9D9"/>
<path d="M152.426 289.329H222.303V304.552H152.426V289.329Z" fill="#D9D9D9"/>
<path d="M152.426 307.048H222.303V322.271H152.426V307.048Z" fill="#D9D9D9"/>
<path d="M152.426 324.767H222.303V339.99H152.426V324.767Z" fill="#D9D9D9"/>
<path d="M152.426 342.486H222.303V357.709H152.426V342.486Z" fill="#D9D9D9"/>
<path d="M152.426 360.205H222.303V375.428H152.426V360.205Z" fill="#D9D9D9"/>
<path d="M152.426 377.923H222.303V393.147H152.426V377.923Z" fill="#D9D9D9"/>
<path d="M152.426 395.642H222.303V410.866H152.426V395.642Z" fill="#D9D9D9"/>
</mask>
<g mask="url(#mask3_807_2229)">
<rect width="69.8775" height="174.694" transform="matrix(1 0 0 -1 152.426 410.865)" fill="white" fill-opacity="0.1"/>
<rect width="69.8775" height="104.816" transform="matrix(1 0 0 -1 152.426 340.988)" fill="url(#paint3_linear_807_2229)"/>
</g>
<mask id="mask4_807_2229" style="mask-type:alpha" maskUnits="userSpaceOnUse" x="234" y="49" width="71" height="175">
<path d="M234.781 49H304.659V64.2233H234.781V49Z" fill="#D9D9D9"/>
<path d="M234.781 66.7189H304.659V81.9423H234.781V66.7189Z" fill="#D9D9D9"/>
<path d="M234.781 84.4379H304.659V99.6612H234.781V84.4379Z" fill="#D9D9D9"/>
<path d="M234.781 102.157H304.659V117.38H234.781V102.157Z" fill="#D9D9D9"/>
<path d="M234.781 119.876H304.659V135.099H234.781V119.876Z" fill="#D9D9D9"/>
<path d="M234.781 137.595H304.659V152.818H234.781V137.595Z" fill="#D9D9D9"/>
<path d="M234.781 155.314H304.659V170.537H234.781V155.314Z" fill="#D9D9D9"/>
<path d="M234.781 173.033H304.659V188.256H234.781V173.033Z" fill="#D9D9D9"/>
<path d="M234.781 190.752H304.659V205.975H234.781V190.752Z" fill="#D9D9D9"/>
<path d="M234.781 208.471H304.659V223.694H234.781V208.471Z" fill="#D9D9D9"/>
</mask>
<g mask="url(#mask4_807_2229)">
<rect width="69.8775" height="174.694" transform="matrix(1 0 0 -1 234.781 223.693)" fill="white" fill-opacity="0.1"/>
<rect width="69.8775" height="114.799" transform="matrix(1 0 0 -1 234.781 223.693)" fill="url(#paint4_linear_807_2229)"/>
</g>
<mask id="mask5_807_2229" style="mask-type:alpha" maskUnits="userSpaceOnUse" x="234" y="236" width="71" height="175">
<path d="M234.781 236.172H304.659V251.395H234.781V236.172Z" fill="#D9D9D9"/>
<path d="M234.781 253.891H304.659V269.114H234.781V253.891Z" fill="#D9D9D9"/>
<path d="M234.781 271.61H304.659V286.833H234.781V271.61Z" fill="#D9D9D9"/>
<path d="M234.781 289.329H304.659V304.552H234.781V289.329Z" fill="#D9D9D9"/>
<path d="M234.781 307.048H304.659V322.271H234.781V307.048Z" fill="#D9D9D9"/>
<path d="M234.781 324.767H304.659V339.99H234.781V324.767Z" fill="#D9D9D9"/>
<path d="M234.781 342.486H304.659V357.709H234.781V342.486Z" fill="#D9D9D9"/>
<path d="M234.781 360.205H304.659V375.428H234.781V360.205Z" fill="#D9D9D9"/>
<path d="M234.781 377.923H304.659V393.147H234.781V377.923Z" fill="#D9D9D9"/>
<path d="M234.781 395.642H304.659V410.866H234.781V395.642Z" fill="#D9D9D9"/>
</mask>
<g mask="url(#mask5_807_2229)">
<rect width="69.8775" height="174.694" transform="matrix(1 0 0 -1 234.781 410.865)" fill="white" fill-opacity="0.1"/>
<rect width="69.8775" height="61.1429" transform="matrix(1 0 0 -1 234.781 297.314)" fill="url(#paint5_linear_807_2229)"/>
</g>
<mask id="mask6_807_2229" style="mask-type:alpha" maskUnits="userSpaceOnUse" x="317" y="49" width="71" height="175">
<path d="M317.137 49H387.014V64.2233H317.137V49Z" fill="#D9D9D9"/>
<path d="M317.137 66.7189H387.014V81.9423H317.137V66.7189Z" fill="#D9D9D9"/>
<path d="M317.137 84.4379H387.014V99.6612H317.137V84.4379Z" fill="#D9D9D9"/>
<path d="M317.137 102.157H387.014V117.38H317.137V102.157Z" fill="#D9D9D9"/>
<path d="M317.137 119.876H387.014V135.099H317.137V119.876Z" fill="#D9D9D9"/>
<path d="M317.137 137.595H387.014V152.818H317.137V137.595Z" fill="#D9D9D9"/>
<path d="M317.137 155.314H387.014V170.537H317.137V155.314Z" fill="#D9D9D9"/>
<path d="M317.137 173.033H387.014V188.256H317.137V173.033Z" fill="#D9D9D9"/>
<path d="M317.137 190.752H387.014V205.975H317.137V190.752Z" fill="#D9D9D9"/>
<path d="M317.137 208.471H387.014V223.694H317.137V208.471Z" fill="#D9D9D9"/>
</mask>
<g mask="url(#mask6_807_2229)">
<rect width="69.8775" height="174.694" transform="matrix(1 0 0 -1 317.137 223.693)" fill="white" fill-opacity="0.1"/>
<rect width="69.8775" height="42.4257" transform="matrix(1 0 0 -1 317.137 223.693)" fill="url(#paint6_linear_807_2229)"/>
</g>
<mask id="mask7_807_2229" style="mask-type:alpha" maskUnits="userSpaceOnUse" x="317" y="236" width="71" height="175">
<path d="M317.137 236.172H387.014V251.395H317.137V236.172Z" fill="#D9D9D9"/>
<path d="M317.137 253.891H387.014V269.114H317.137V253.891Z" fill="#D9D9D9"/>
<path d="M317.137 271.61H387.014V286.833H317.137V271.61Z" fill="#D9D9D9"/>
<path d="M317.137 289.329H387.014V304.552H317.137V289.329Z" fill="#D9D9D9"/>
<path d="M317.137 307.048H387.014V322.271H317.137V307.048Z" fill="#D9D9D9"/>
<path d="M317.137 324.767H387.014V339.99H317.137V324.767Z" fill="#D9D9D9"/>
<path d="M317.137 342.486H387.014V357.709H317.137V342.486Z" fill="#D9D9D9"/>
<path d="M317.137 360.205H387.014V375.428H317.137V360.205Z" fill="#D9D9D9"/>
<path d="M317.137 377.923H387.014V393.147H317.137V377.923Z" fill="#D9D9D9"/>
<path d="M317.137 395.642H387.014V410.866H317.137V395.642Z" fill="#D9D9D9"/>
</mask>
<g mask="url(#mask7_807_2229)">
<rect width="69.8775" height="174.694" transform="matrix(1 0 0 -1 317.137 410.865)" fill="white" fill-opacity="0.1"/>
<rect width="69.8775" height="132.268" transform="matrix(1 0 0 -1 316.723 368.439)" fill="url(#paint7_linear_807_2229)"/>
</g>
<path d="M94.4635 419.531C95.4018 419.531 96.1555 419.826 96.7245 420.415C97.2935 420.994 97.578 421.762 97.578 422.721C97.578 423.749 97.2785 424.558 96.6796 425.146C96.0806 425.725 95.2521 426.015 94.1939 426.015C93.3055 426.015 92.5818 425.825 92.0227 425.446C91.4737 425.057 91.0494 424.493 90.75 423.754L91.9179 423.14C92.0876 423.719 92.3372 424.158 92.6666 424.458C93.006 424.747 93.5002 424.892 94.149 424.892C94.8278 424.892 95.3619 424.707 95.7512 424.338C96.1405 423.969 96.3352 423.459 96.3352 422.811C96.3352 422.112 96.1555 421.578 95.7961 421.208C95.4368 420.839 94.9177 420.654 94.2389 420.654C93.2107 420.654 92.4769 420.974 92.0377 421.613H90.9746L91.5735 415.983H97.1288V417.106H92.5917L92.2024 420.22L92.1875 420.355H92.2024C92.7315 419.806 93.4852 419.531 94.4635 419.531ZM102.954 426.015C101.756 426.015 100.843 425.581 100.214 424.712C99.585 423.844 99.2705 422.581 99.2705 420.924C99.2705 419.267 99.585 418.004 100.214 417.136C100.843 416.267 101.756 415.833 102.954 415.833C104.152 415.833 105.065 416.267 105.694 417.136C106.323 418.004 106.638 419.267 106.638 420.924C106.638 422.581 106.323 423.844 105.694 424.712C105.065 425.581 104.152 426.015 102.954 426.015ZM102.954 424.937C103.743 424.937 104.347 424.597 104.766 423.919C105.185 423.23 105.395 422.232 105.395 420.924C105.395 419.616 105.185 418.623 104.766 417.944C104.347 417.255 103.743 416.911 102.954 416.911C102.165 416.911 101.561 417.255 101.142 417.944C100.723 418.623 100.513 419.616 100.513 420.924C100.513 422.232 100.723 423.23 101.142 423.919C101.561 424.597 102.165 424.937 102.954 424.937ZM110.367 415.833C111.096 415.833 111.675 416.082 112.104 416.582C112.533 417.071 112.748 417.729 112.748 418.558C112.748 419.387 112.533 420.05 112.104 420.55C111.675 421.039 111.096 421.283 110.367 421.283C109.638 421.283 109.059 421.039 108.63 420.55C108.201 420.05 107.986 419.387 107.986 418.558C107.986 417.729 108.201 417.071 108.63 416.582C109.059 416.082 109.638 415.833 110.367 415.833ZM116.372 415.983H117.51L111.221 425.865H110.083L116.372 415.983ZM110.367 416.776C109.948 416.776 109.623 416.931 109.394 417.24C109.164 417.55 109.049 417.989 109.049 418.558C109.049 419.127 109.164 419.566 109.394 419.876C109.623 420.185 109.948 420.34 110.367 420.34C110.786 420.34 111.111 420.185 111.34 419.876C111.57 419.566 111.685 419.127 111.685 418.558C111.685 417.989 111.57 417.55 111.34 417.24C111.111 416.931 110.786 416.776 110.367 416.776ZM117.225 420.565C117.954 420.565 118.533 420.814 118.962 421.313C119.391 421.802 119.606 422.461 119.606 423.29C119.606 424.118 119.391 424.782 118.962 425.281C118.533 425.77 117.954 426.015 117.225 426.015C116.496 426.015 115.917 425.77 115.488 425.281C115.059 424.782 114.844 424.118 114.844 423.29C114.844 422.461 115.059 421.802 115.488 421.313C115.917 420.814 116.496 420.565 117.225 420.565ZM117.225 421.508C116.806 421.508 116.481 421.663 116.252 421.972C116.022 422.282 115.907 422.721 115.907 423.29C115.907 423.859 116.022 424.298 116.252 424.607C116.481 424.917 116.806 425.072 117.225 425.072C117.644 425.072 117.969 424.917 118.198 424.607C118.428 424.298 118.543 423.859 118.543 423.29C118.543 422.721 118.428 422.282 118.198 421.972C117.969 421.663 117.644 421.508 117.225 421.508ZM80.1397 445.865H78.9418V435.983H80.1397V445.865ZM86.4888 438.229C87.3373 438.229 88.0361 438.473 88.5851 438.962C89.1341 439.451 89.4087 440.155 89.4087 441.074V445.865H88.2108V441.493C88.2108 440.714 88.041 440.15 87.7016 439.801C87.3722 439.451 86.928 439.277 86.369 439.277C85.9697 439.277 85.5953 439.367 85.2459 439.546C84.8966 439.716 84.6071 440.001 84.3775 440.4C84.1579 440.789 84.048 441.283 84.048 441.882V445.865H82.8501V438.378H83.8983L83.9732 439.546C84.2227 439.097 84.5671 438.768 85.0064 438.558C85.4456 438.338 85.9397 438.229 86.4888 438.229ZM96.376 445.341C95.8769 445.79 95.233 446.015 94.4444 446.015C93.8355 446.015 93.3363 445.85 92.947 445.521C92.5677 445.191 92.373 444.687 92.363 444.008V439.412H90.8657V438.378H92.363V436.582L93.5609 436.252V438.378H96.3311V439.412H93.5609V443.799C93.5609 444.158 93.6608 444.433 93.8604 444.622C94.0701 444.802 94.3446 444.892 94.684 444.892C95.1631 444.892 95.5874 444.707 95.9567 444.338L96.376 445.341ZM104.266 441.732C104.266 442.012 104.246 442.291 104.206 442.571H98.5614C98.6312 443.33 98.8808 443.919 99.3101 444.338C99.7493 444.757 100.313 444.967 101.002 444.967C101.551 444.967 102.005 444.872 102.365 444.682C102.734 444.493 102.984 444.218 103.113 443.859L104.117 444.383C103.817 444.912 103.418 445.316 102.919 445.596C102.42 445.875 101.781 446.015 101.002 446.015C99.8741 446.015 98.9856 445.671 98.3368 444.982C97.6979 444.293 97.3784 443.34 97.3784 442.122C97.3784 440.904 97.6829 439.951 98.2918 439.262C98.9107 438.573 99.7842 438.229 100.912 438.229C101.611 438.229 102.215 438.383 102.724 438.693C103.233 439.002 103.618 439.422 103.877 439.951C104.137 440.48 104.266 441.074 104.266 441.732ZM100.912 439.277C100.253 439.277 99.7193 439.471 99.3101 439.861C98.9107 440.25 98.6662 440.799 98.5763 441.508H103.113C103.034 440.809 102.804 440.265 102.425 439.876C102.045 439.476 101.541 439.277 100.912 439.277ZM109.852 438.229C110.212 438.229 110.486 438.279 110.676 438.378L110.436 439.546C110.197 439.417 109.882 439.352 109.493 439.352C109.174 439.352 108.859 439.446 108.55 439.636C108.25 439.816 108.001 440.095 107.801 440.475C107.611 440.844 107.516 441.293 107.516 441.822V445.865H106.319V438.378H107.292L107.457 439.606C107.876 438.688 108.674 438.229 109.852 438.229ZM115.845 438.229C116.693 438.229 117.392 438.473 117.941 438.962C118.49 439.451 118.765 440.155 118.765 441.074V445.865H117.567V441.493C117.567 440.714 117.397 440.15 117.058 439.801C116.728 439.451 116.284 439.277 115.725 439.277C115.326 439.277 114.952 439.367 114.602 439.546C114.253 439.716 113.963 440.001 113.734 440.4C113.514 440.789 113.404 441.283 113.404 441.882V445.865H112.206V438.378H113.254L113.329 439.546C113.579 439.097 113.923 438.768 114.363 438.558C114.802 438.338 115.296 438.229 115.845 438.229ZM127.392 444.997C127.591 444.997 127.791 444.972 127.991 444.922L127.916 445.865C127.636 445.965 127.337 446.015 127.017 446.015C126.628 446.015 126.319 445.93 126.089 445.76C125.869 445.591 125.73 445.306 125.67 444.907C125.44 445.256 125.101 445.531 124.652 445.73C124.212 445.92 123.748 446.015 123.259 446.015C122.52 446.015 121.911 445.845 121.432 445.506C120.953 445.156 120.714 444.657 120.714 444.008C120.714 443.439 120.963 442.95 121.462 442.541C121.961 442.122 122.685 441.832 123.633 441.673L125.625 441.343V440.924C125.625 440.425 125.47 440.025 125.161 439.726C124.851 439.427 124.422 439.277 123.873 439.277C123.374 439.277 122.94 439.397 122.57 439.636C122.211 439.876 121.931 440.23 121.732 440.699L120.848 440.055C121.048 439.496 121.417 439.052 121.956 438.723C122.505 438.393 123.144 438.229 123.873 438.229C124.761 438.229 125.475 438.443 126.014 438.872C126.553 439.302 126.823 439.936 126.823 440.774V444.458C126.823 444.637 126.868 444.772 126.958 444.862C127.047 444.952 127.192 444.997 127.392 444.997ZM123.319 444.967C123.948 444.967 124.487 444.817 124.936 444.518C125.395 444.218 125.625 443.829 125.625 443.35V442.316L123.948 442.631C123.279 442.751 122.78 442.925 122.45 443.155C122.121 443.375 121.956 443.659 121.956 444.008C121.956 444.318 122.076 444.558 122.316 444.727C122.555 444.887 122.89 444.967 123.319 444.967ZM130.647 443.859C130.647 444.238 130.702 444.503 130.812 444.652C130.932 444.792 131.146 444.862 131.456 444.862C131.665 444.862 131.845 444.847 131.995 444.817C132.155 444.787 132.339 444.732 132.549 444.652L132.354 445.805C132.025 445.945 131.655 446.015 131.246 446.015C130.637 446.015 130.183 445.85 129.884 445.521C129.594 445.191 129.449 444.687 129.449 444.008V434.934H130.647V443.859Z" fill="white"/>
<path d="M176.818 415.833C177.607 415.833 178.25 415.998 178.75 416.327C179.249 416.656 179.653 417.185 179.962 417.914L178.854 418.438C178.535 417.45 177.831 416.956 176.743 416.956C176.224 416.956 175.76 417.141 175.351 417.51C174.951 417.879 174.637 418.383 174.407 419.022C174.188 419.661 174.078 420.37 174.078 421.148V421.418H174.138C174.287 420.829 174.627 420.38 175.156 420.07C175.685 419.761 176.249 419.606 176.848 419.606C177.856 419.606 178.66 419.896 179.259 420.475C179.868 421.054 180.172 421.832 180.172 422.811C180.172 423.789 179.863 424.568 179.244 425.146C178.635 425.725 177.811 426.015 176.773 426.015C175.964 426.015 175.271 425.8 174.692 425.371C174.123 424.932 173.688 424.333 173.389 423.574C173.099 422.806 172.955 421.922 172.955 420.924C172.955 419.846 173.119 418.927 173.449 418.169C173.788 417.4 174.247 416.821 174.826 416.432C175.415 416.032 176.079 415.833 176.818 415.833ZM176.758 420.759C176.119 420.759 175.6 420.949 175.201 421.328C174.801 421.708 174.602 422.197 174.602 422.796C174.602 423.415 174.796 423.914 175.186 424.293C175.585 424.672 176.109 424.862 176.758 424.862C177.437 424.862 177.966 424.682 178.345 424.323C178.725 423.954 178.914 423.444 178.914 422.796C178.914 422.167 178.725 421.673 178.345 421.313C177.966 420.944 177.437 420.759 176.758 420.759ZM185.58 426.015C184.382 426.015 183.469 425.581 182.84 424.712C182.211 423.844 181.897 422.581 181.897 420.924C181.897 419.267 182.211 418.004 182.84 417.136C183.469 416.267 184.382 415.833 185.58 415.833C186.778 415.833 187.691 416.267 188.32 417.136C188.949 418.004 189.264 419.267 189.264 420.924C189.264 422.581 188.949 423.844 188.32 424.712C187.691 425.581 186.778 426.015 185.58 426.015ZM185.58 424.937C186.369 424.937 186.973 424.597 187.392 423.919C187.811 423.23 188.021 422.232 188.021 420.924C188.021 419.616 187.811 418.623 187.392 417.944C186.973 417.255 186.369 416.911 185.58 416.911C184.791 416.911 184.187 417.255 183.768 417.944C183.349 418.623 183.139 419.616 183.139 420.924C183.139 422.232 183.349 423.23 183.768 423.919C184.187 424.597 184.791 424.937 185.58 424.937ZM192.993 415.833C193.722 415.833 194.301 416.082 194.73 416.582C195.159 417.071 195.374 417.729 195.374 418.558C195.374 419.387 195.159 420.05 194.73 420.55C194.301 421.039 193.722 421.283 192.993 421.283C192.264 421.283 191.685 421.039 191.256 420.55C190.827 420.05 190.612 419.387 190.612 418.558C190.612 417.729 190.827 417.071 191.256 416.582C191.685 416.082 192.264 415.833 192.993 415.833ZM198.998 415.983H200.136L193.847 425.865H192.709L198.998 415.983ZM192.993 416.776C192.574 416.776 192.249 416.931 192.02 417.24C191.79 417.55 191.675 417.989 191.675 418.558C191.675 419.127 191.79 419.566 192.02 419.876C192.249 420.185 192.574 420.34 192.993 420.34C193.412 420.34 193.737 420.185 193.966 419.876C194.196 419.566 194.311 419.127 194.311 418.558C194.311 417.989 194.196 417.55 193.966 417.24C193.737 416.931 193.412 416.776 192.993 416.776ZM199.851 420.565C200.58 420.565 201.159 420.814 201.588 421.313C202.017 421.802 202.232 422.461 202.232 423.29C202.232 424.118 202.017 424.782 201.588 425.281C201.159 425.77 200.58 426.015 199.851 426.015C199.122 426.015 198.543 425.77 198.114 425.281C197.685 424.782 197.47 424.118 197.47 423.29C197.47 422.461 197.685 421.802 198.114 421.313C198.543 420.814 199.122 420.565 199.851 420.565ZM199.851 421.508C199.432 421.508 199.107 421.663 198.878 421.972C198.648 422.282 198.533 422.721 198.533 423.29C198.533 423.859 198.648 424.298 198.878 424.607C199.107 424.917 199.432 425.072 199.851 425.072C200.27 425.072 200.595 424.917 200.824 424.607C201.054 424.298 201.169 423.859 201.169 423.29C201.169 422.721 201.054 422.282 200.824 421.972C200.595 421.663 200.27 421.508 199.851 421.508ZM161.189 445.865H159.991V435.983H161.189V445.865ZM167.538 438.229C168.387 438.229 169.085 438.473 169.634 438.962C170.183 439.451 170.458 440.155 170.458 441.074V445.865H169.26V441.493C169.26 440.714 169.09 440.15 168.751 439.801C168.422 439.451 167.977 439.277 167.418 439.277C167.019 439.277 166.645 439.367 166.295 439.546C165.946 439.716 165.656 440.001 165.427 440.4C165.207 440.789 165.097 441.283 165.097 441.882V445.865H163.9V438.378H164.948L165.023 439.546C165.272 439.097 165.616 438.768 166.056 438.558C166.495 438.338 166.989 438.229 167.538 438.229ZM177.425 445.341C176.926 445.79 176.282 446.015 175.494 446.015C174.885 446.015 174.386 445.85 173.996 445.521C173.617 445.191 173.422 444.687 173.412 444.008V439.412H171.915V438.378H173.412V436.582L174.61 436.252V438.378H177.38V439.412H174.61V443.799C174.61 444.158 174.71 444.433 174.91 444.622C175.119 444.802 175.394 444.892 175.733 444.892C176.212 444.892 176.637 444.707 177.006 444.338L177.425 445.341ZM185.376 438.378V445.865H184.327L184.253 444.727C183.753 445.586 182.86 446.015 181.572 446.015C180.764 446.015 180.1 445.79 179.581 445.341C179.072 444.892 178.817 444.203 178.817 443.275V438.378H180.015V442.96C180.015 443.689 180.165 444.208 180.464 444.518C180.764 444.817 181.203 444.967 181.782 444.967C182.471 444.967 183.04 444.757 183.489 444.338C183.948 443.919 184.178 443.29 184.178 442.451V438.378H185.376ZM188.537 436.941C188.268 436.941 188.048 436.861 187.878 436.701C187.719 436.532 187.639 436.312 187.639 436.042C187.639 435.773 187.719 435.558 187.878 435.399C188.048 435.229 188.268 435.144 188.537 435.144C188.807 435.144 189.021 435.229 189.181 435.399C189.351 435.558 189.436 435.773 189.436 436.042C189.436 436.312 189.351 436.532 189.181 436.701C189.021 436.861 188.807 436.941 188.537 436.941ZM189.136 445.865H187.938V438.378H189.136V445.865ZM196.273 445.341C195.774 445.79 195.13 446.015 194.341 446.015C193.732 446.015 193.233 445.85 192.844 445.521C192.465 445.191 192.27 444.687 192.26 444.008V439.412H190.763V438.378H192.26V436.582L193.458 436.252V438.378H196.228V439.412H193.458V443.799C193.458 444.158 193.558 444.433 193.757 444.622C193.967 444.802 194.242 444.892 194.581 444.892C195.06 444.892 195.484 444.707 195.854 444.338L196.273 445.341ZM198.339 436.941C198.069 436.941 197.849 436.861 197.68 436.701C197.52 436.532 197.44 436.312 197.44 436.042C197.44 435.773 197.52 435.558 197.68 435.399C197.849 435.229 198.069 435.144 198.339 435.144C198.608 435.144 198.823 435.229 198.982 435.399C199.152 435.558 199.237 435.773 199.237 436.042C199.237 436.312 199.152 436.532 198.982 436.701C198.823 436.861 198.608 436.941 198.339 436.941ZM198.938 445.865H197.74V438.378H198.938V445.865ZM207.707 438.378L204.592 445.865H203.394L200.28 438.378H201.642L204.008 444.652L206.449 438.378H207.707ZM215.471 441.732C215.471 442.012 215.451 442.291 215.411 442.571H209.766C209.836 443.33 210.085 443.919 210.515 444.338C210.954 444.757 211.518 444.967 212.207 444.967C212.756 444.967 213.21 444.872 213.569 444.682C213.939 444.493 214.188 444.218 214.318 443.859L215.321 444.383C215.022 444.912 214.622 445.316 214.123 445.596C213.624 445.875 212.985 446.015 212.207 446.015C211.079 446.015 210.19 445.671 209.541 444.982C208.902 444.293 208.583 443.34 208.583 442.122C208.583 440.904 208.887 439.951 209.496 439.262C210.115 438.573 210.989 438.229 212.117 438.229C212.816 438.229 213.419 438.383 213.929 438.693C214.438 439.002 214.822 439.422 215.082 439.951C215.341 440.48 215.471 441.074 215.471 441.732ZM212.117 439.277C211.458 439.277 210.924 439.471 210.515 439.861C210.115 440.25 209.871 440.799 209.781 441.508H214.318C214.238 440.809 214.008 440.265 213.629 439.876C213.25 439.476 212.746 439.277 212.117 439.277Z" fill="white"/>
<path d="M259.167 415.833C259.816 415.833 260.37 415.953 260.829 416.192C261.299 416.422 261.653 416.731 261.893 417.121C262.132 417.51 262.252 417.939 262.252 418.408C262.252 418.867 262.167 419.282 261.997 419.651C261.828 420.02 261.598 420.315 261.309 420.535C261.029 420.744 260.725 420.849 260.395 420.849V420.879C261.024 420.879 261.528 421.109 261.908 421.568C262.287 422.017 262.477 422.566 262.477 423.215C262.477 423.744 262.332 424.223 262.042 424.652C261.763 425.082 261.359 425.416 260.829 425.656C260.3 425.895 259.691 426.015 259.003 426.015C257.356 426.015 256.218 425.226 255.589 423.649L256.697 423.065C256.896 423.674 257.171 424.133 257.52 424.443C257.88 424.742 258.404 424.892 259.093 424.892C259.761 424.892 260.285 424.727 260.665 424.398C261.044 424.058 261.234 423.624 261.234 423.095C261.234 422.486 261.049 422.062 260.68 421.822C260.32 421.573 259.746 421.448 258.958 421.448H258.568V420.325H258.958C260.325 420.325 261.009 419.766 261.009 418.648C261.009 418.089 260.849 417.67 260.53 417.39C260.221 417.101 259.771 416.956 259.182 416.956C258.603 416.956 258.139 417.091 257.79 417.36C257.45 417.62 257.216 417.989 257.086 418.468L255.963 417.944C256.203 417.295 256.607 416.781 257.176 416.402C257.755 416.022 258.419 415.833 259.167 415.833ZM267.972 419.531C268.91 419.531 269.664 419.826 270.233 420.415C270.802 420.994 271.087 421.762 271.087 422.721C271.087 423.749 270.787 424.558 270.188 425.146C269.589 425.725 268.761 426.015 267.703 426.015C266.814 426.015 266.09 425.825 265.531 425.446C264.982 425.057 264.558 424.493 264.259 423.754L265.427 423.14C265.596 423.719 265.846 424.158 266.175 424.458C266.515 424.747 267.009 424.892 267.658 424.892C268.336 424.892 268.87 424.707 269.26 424.338C269.649 423.969 269.844 423.459 269.844 422.811C269.844 422.112 269.664 421.578 269.305 421.208C268.945 420.839 268.426 420.654 267.747 420.654C266.719 420.654 265.986 420.974 265.546 421.613H264.483L265.082 415.983H270.637V417.106H266.1L265.711 420.22L265.696 420.355H265.711C266.24 419.806 266.994 419.531 267.972 419.531ZM274.786 415.833C275.514 415.833 276.093 416.082 276.523 416.582C276.952 417.071 277.166 417.729 277.166 418.558C277.166 419.387 276.952 420.05 276.523 420.55C276.093 421.039 275.514 421.283 274.786 421.283C274.057 421.283 273.478 421.039 273.049 420.55C272.619 420.05 272.405 419.387 272.405 418.558C272.405 417.729 272.619 417.071 273.049 416.582C273.478 416.082 274.057 415.833 274.786 415.833ZM280.79 415.983H281.928L275.639 425.865H274.501L280.79 415.983ZM274.786 416.776C274.366 416.776 274.042 416.931 273.812 417.24C273.583 417.55 273.468 417.989 273.468 418.558C273.468 419.127 273.583 419.566 273.812 419.876C274.042 420.185 274.366 420.34 274.786 420.34C275.205 420.34 275.529 420.185 275.759 419.876C275.988 419.566 276.103 419.127 276.103 418.558C276.103 417.989 275.988 417.55 275.759 417.24C275.529 416.931 275.205 416.776 274.786 416.776ZM281.644 420.565C282.372 420.565 282.951 420.814 283.381 421.313C283.81 421.802 284.024 422.461 284.024 423.29C284.024 424.118 283.81 424.782 283.381 425.281C282.951 425.77 282.372 426.015 281.644 426.015C280.915 426.015 280.336 425.77 279.907 425.281C279.477 424.782 279.263 424.118 279.263 423.29C279.263 422.461 279.477 421.802 279.907 421.313C280.336 420.814 280.915 420.565 281.644 420.565ZM281.644 421.508C281.224 421.508 280.9 421.663 280.67 421.972C280.441 422.282 280.326 422.721 280.326 423.29C280.326 423.859 280.441 424.298 280.67 424.607C280.9 424.917 281.224 425.072 281.644 425.072C282.063 425.072 282.387 424.917 282.617 424.607C282.846 424.298 282.961 423.859 282.961 423.29C282.961 422.721 282.846 422.282 282.617 421.972C282.387 421.663 282.063 421.508 281.644 421.508ZM248.453 444.742V445.865H241.296V435.983H248.229V437.106H242.494V440.295H246.956V441.418H242.494V444.742H248.453ZM259.095 438.229C259.594 438.229 260.058 438.333 260.488 438.543C260.927 438.743 261.281 439.057 261.551 439.486C261.82 439.916 261.955 440.445 261.955 441.074V445.865H260.757V441.193C260.757 440.545 260.592 440.065 260.263 439.756C259.944 439.436 259.519 439.277 258.99 439.277C258.591 439.277 258.222 439.377 257.882 439.576C257.553 439.766 257.283 440.05 257.074 440.43C256.874 440.799 256.774 441.243 256.774 441.762V445.865H255.576V441.193C255.576 440.545 255.411 440.065 255.082 439.756C254.763 439.436 254.338 439.277 253.809 439.277C253.45 439.277 253.101 439.372 252.761 439.561C252.422 439.741 252.142 440.025 251.923 440.415C251.703 440.804 251.593 441.288 251.593 441.867V445.865H250.395V438.378H251.443L251.518 439.546C251.778 439.107 252.117 438.778 252.537 438.558C252.966 438.338 253.425 438.229 253.914 438.229C254.463 438.229 254.967 438.353 255.426 438.603C255.896 438.853 256.25 439.217 256.49 439.696C256.709 439.217 257.069 438.853 257.568 438.603C258.067 438.353 258.576 438.229 259.095 438.229ZM267.602 438.229C268.73 438.229 269.613 438.573 270.252 439.262C270.901 439.951 271.226 440.904 271.226 442.122C271.226 443.34 270.901 444.293 270.252 444.982C269.613 445.671 268.73 446.015 267.602 446.015C266.474 446.015 265.586 445.671 264.937 444.982C264.298 444.293 263.978 443.34 263.978 442.122C263.978 440.904 264.298 439.951 264.937 439.262C265.586 438.573 266.474 438.229 267.602 438.229ZM267.602 439.262C266.843 439.262 266.249 439.516 265.82 440.025C265.391 440.535 265.176 441.233 265.176 442.122C265.176 443.01 265.391 443.709 265.82 444.218C266.249 444.727 266.843 444.982 267.602 444.982C268.361 444.982 268.955 444.727 269.384 444.218C269.813 443.709 270.028 443.01 270.028 442.122C270.028 441.233 269.813 440.535 269.384 440.025C268.955 439.516 268.361 439.262 267.602 439.262ZM277.778 445.341C277.279 445.79 276.635 446.015 275.847 446.015C275.238 446.015 274.739 445.85 274.349 445.521C273.97 445.191 273.775 444.687 273.765 444.008V439.412H272.268V438.378H273.765V436.582L274.963 436.252V438.378H277.733V439.412H274.963V443.799C274.963 444.158 275.063 444.433 275.263 444.622C275.472 444.802 275.747 444.892 276.086 444.892C276.565 444.892 276.99 444.707 277.359 444.338L277.778 445.341ZM279.844 436.941C279.574 436.941 279.355 436.861 279.185 436.701C279.025 436.532 278.945 436.312 278.945 436.042C278.945 435.773 279.025 435.558 279.185 435.399C279.355 435.229 279.574 435.144 279.844 435.144C280.113 435.144 280.328 435.229 280.488 435.399C280.657 435.558 280.742 435.773 280.742 436.042C280.742 436.312 280.657 436.532 280.488 436.701C280.328 436.861 280.113 436.941 279.844 436.941ZM280.443 445.865H279.245V438.378H280.443V445.865ZM286.157 438.229C287.285 438.229 288.169 438.573 288.808 439.262C289.456 439.951 289.781 440.904 289.781 442.122C289.781 443.34 289.456 444.293 288.808 444.982C288.169 445.671 287.285 446.015 286.157 446.015C285.029 446.015 284.141 445.671 283.492 444.982C282.853 444.293 282.534 443.34 282.534 442.122C282.534 440.904 282.853 439.951 283.492 439.262C284.141 438.573 285.029 438.229 286.157 438.229ZM286.157 439.262C285.399 439.262 284.805 439.516 284.375 440.025C283.946 440.535 283.731 441.233 283.731 442.122C283.731 443.01 283.946 443.709 284.375 444.218C284.805 444.727 285.399 444.982 286.157 444.982C286.916 444.982 287.51 444.727 287.939 444.218C288.368 443.709 288.583 443.01 288.583 442.122C288.583 441.233 288.368 440.535 287.939 440.025C287.51 439.516 286.916 439.262 286.157 439.262ZM295.522 438.229C296.37 438.229 297.069 438.473 297.618 438.962C298.167 439.451 298.442 440.155 298.442 441.074V445.865H297.244V441.493C297.244 440.714 297.074 440.15 296.735 439.801C296.405 439.451 295.961 439.277 295.402 439.277C295.003 439.277 294.628 439.367 294.279 439.546C293.93 439.716 293.64 440.001 293.41 440.4C293.191 440.789 293.081 441.283 293.081 441.882V445.865H291.883V438.378H292.931L293.006 439.546C293.256 439.097 293.6 438.768 294.039 438.558C294.479 438.338 294.973 438.229 295.522 438.229Z" fill="white"/>
<path d="M357.271 415.983V417.106C356.043 418.393 355.145 419.751 354.576 421.178C354.017 422.606 353.737 424.168 353.737 425.865H352.509C352.509 424.248 352.799 422.696 353.378 421.208C353.967 419.711 354.83 418.343 355.968 417.106H349.994V415.983H357.271ZM362.221 419.531C363.159 419.531 363.913 419.826 364.482 420.415C365.051 420.994 365.335 421.762 365.335 422.721C365.335 423.749 365.036 424.558 364.437 425.146C363.838 425.725 363.009 426.015 361.951 426.015C361.063 426.015 360.339 425.825 359.78 425.446C359.231 425.057 358.807 424.493 358.507 423.754L359.675 423.14C359.845 423.719 360.094 424.158 360.424 424.458C360.763 424.747 361.257 424.892 361.906 424.892C362.585 424.892 363.119 424.707 363.508 424.338C363.898 423.969 364.092 423.459 364.092 422.811C364.092 422.112 363.913 421.578 363.553 421.208C363.194 420.839 362.675 420.654 361.996 420.654C360.968 420.654 360.234 420.974 359.795 421.613H358.732L359.331 415.983H364.886V417.106H360.349L359.96 420.22L359.945 420.355H359.96C360.489 419.806 361.242 419.531 362.221 419.531ZM369.034 415.833C369.763 415.833 370.342 416.082 370.771 416.582C371.2 417.071 371.415 417.729 371.415 418.558C371.415 419.387 371.2 420.05 370.771 420.55C370.342 421.039 369.763 421.283 369.034 421.283C368.305 421.283 367.726 421.039 367.297 420.55C366.868 420.05 366.653 419.387 366.653 418.558C366.653 417.729 366.868 417.071 367.297 416.582C367.726 416.082 368.305 415.833 369.034 415.833ZM375.039 415.983H376.177L369.888 425.865H368.75L375.039 415.983ZM369.034 416.776C368.615 416.776 368.29 416.931 368.061 417.24C367.831 417.55 367.716 417.989 367.716 418.558C367.716 419.127 367.831 419.566 368.061 419.876C368.29 420.185 368.615 420.34 369.034 420.34C369.453 420.34 369.778 420.185 370.007 419.876C370.237 419.566 370.352 419.127 370.352 418.558C370.352 417.989 370.237 417.55 370.007 417.24C369.778 416.931 369.453 416.776 369.034 416.776ZM375.892 420.565C376.621 420.565 377.2 420.814 377.629 421.313C378.058 421.802 378.273 422.461 378.273 423.29C378.273 424.118 378.058 424.782 377.629 425.281C377.2 425.77 376.621 426.015 375.892 426.015C375.163 426.015 374.584 425.77 374.155 425.281C373.726 424.782 373.511 424.118 373.511 423.29C373.511 422.461 373.726 421.802 374.155 421.313C374.584 420.814 375.163 420.565 375.892 420.565ZM375.892 421.508C375.473 421.508 375.148 421.663 374.919 421.972C374.689 422.282 374.574 422.721 374.574 423.29C374.574 423.859 374.689 424.298 374.919 424.607C375.148 424.917 375.473 425.072 375.892 425.072C376.311 425.072 376.636 424.917 376.865 424.607C377.095 424.298 377.21 423.859 377.21 423.29C377.21 422.721 377.095 422.282 376.865 421.972C376.636 421.663 376.311 421.508 375.892 421.508ZM321.935 435.833C323.702 435.833 324.975 436.532 325.753 437.929L324.72 438.768C324.421 438.109 324.061 437.645 323.642 437.375C323.233 437.096 322.669 436.956 321.95 436.956C321.191 436.956 320.592 437.116 320.153 437.435C319.724 437.744 319.509 438.144 319.509 438.633C319.509 438.952 319.594 439.217 319.764 439.427C319.933 439.636 320.213 439.821 320.602 439.981C321.002 440.13 321.551 440.265 322.249 440.385C323.557 440.604 324.481 440.934 325.02 441.373C325.569 441.812 325.843 442.421 325.843 443.2C325.843 443.759 325.683 444.253 325.364 444.682C325.055 445.102 324.61 445.431 324.031 445.671C323.452 445.9 322.783 446.015 322.025 446.015C321.027 446.015 320.173 445.82 319.464 445.431C318.766 445.042 318.231 444.523 317.862 443.874L318.895 443.035C319.165 443.624 319.559 444.083 320.078 444.413C320.607 444.732 321.266 444.892 322.055 444.892C322.833 444.892 323.452 444.752 323.912 444.473C324.371 444.183 324.6 443.779 324.6 443.26C324.6 442.821 324.401 442.471 324.001 442.212C323.602 441.952 322.893 441.732 321.875 441.553C320.557 441.323 319.624 440.994 319.075 440.565C318.526 440.135 318.251 439.536 318.251 438.768C318.251 438.239 318.401 437.749 318.701 437.3C319 436.851 319.429 436.497 319.988 436.237C320.547 435.968 321.196 435.833 321.935 435.833ZM331.514 438.229C332.562 438.229 333.391 438.578 334 439.277C334.619 439.966 334.928 440.914 334.928 442.122C334.928 443.33 334.619 444.283 334 444.982C333.391 445.671 332.562 446.015 331.514 446.015C330.965 446.015 330.471 445.895 330.032 445.656C329.603 445.416 329.268 445.097 329.029 444.697V449.01H327.831V438.378H328.879L328.954 439.681C329.173 439.242 329.508 438.892 329.957 438.633C330.416 438.363 330.935 438.229 331.514 438.229ZM331.38 444.967C332.108 444.967 332.682 444.712 333.102 444.203C333.521 443.684 333.73 442.99 333.73 442.122C333.73 441.253 333.521 440.565 333.102 440.055C332.682 439.536 332.108 439.277 331.38 439.277C330.661 439.277 330.087 439.526 329.658 440.025C329.238 440.525 329.029 441.193 329.029 442.032V442.212C329.029 443.05 329.238 443.719 329.658 444.218C330.087 444.717 330.661 444.967 331.38 444.967ZM340.197 438.229C341.325 438.229 342.209 438.573 342.848 439.262C343.497 439.951 343.821 440.904 343.821 442.122C343.821 443.34 343.497 444.293 342.848 444.982C342.209 445.671 341.325 446.015 340.197 446.015C339.069 446.015 338.181 445.671 337.532 444.982C336.893 444.293 336.574 443.34 336.574 442.122C336.574 440.904 336.893 439.951 337.532 439.262C338.181 438.573 339.069 438.229 340.197 438.229ZM340.197 439.262C339.439 439.262 338.845 439.516 338.415 440.025C337.986 440.535 337.772 441.233 337.772 442.122C337.772 443.01 337.986 443.709 338.415 444.218C338.845 444.727 339.439 444.982 340.197 444.982C340.956 444.982 341.55 444.727 341.979 444.218C342.408 443.709 342.623 443.01 342.623 442.122C342.623 441.233 342.408 440.535 341.979 440.025C341.55 439.516 340.956 439.262 340.197 439.262ZM349.562 438.229C350.41 438.229 351.109 438.473 351.658 438.962C352.207 439.451 352.482 440.155 352.482 441.074V445.865H351.284V441.493C351.284 440.714 351.114 440.15 350.775 439.801C350.445 439.451 350.001 439.277 349.442 439.277C349.043 439.277 348.668 439.367 348.319 439.546C347.97 439.716 347.68 440.001 347.451 440.4C347.231 440.789 347.121 441.283 347.121 441.882V445.865H345.923V438.378H346.971L347.046 439.546C347.296 439.097 347.64 438.768 348.08 438.558C348.519 438.338 349.013 438.229 349.562 438.229ZM359.449 445.341C358.95 445.79 358.306 446.015 357.518 446.015C356.909 446.015 356.409 445.85 356.02 445.521C355.641 445.191 355.446 444.687 355.436 444.008V439.412H353.939V438.378H355.436V436.582L356.634 436.252V438.378H359.404V439.412H356.634V443.799C356.634 444.158 356.734 444.433 356.934 444.622C357.143 444.802 357.418 444.892 357.757 444.892C358.236 444.892 358.661 444.707 359.03 444.338L359.449 445.341ZM367.055 444.997C367.255 444.997 367.454 444.972 367.654 444.922L367.579 445.865C367.3 445.965 367 446.015 366.681 446.015C366.291 446.015 365.982 445.93 365.752 445.76C365.533 445.591 365.393 445.306 365.333 444.907C365.103 445.256 364.764 445.531 364.315 445.73C363.876 445.92 363.411 446.015 362.922 446.015C362.184 446.015 361.575 445.845 361.095 445.506C360.616 445.156 360.377 444.657 360.377 444.008C360.377 443.439 360.626 442.95 361.125 442.541C361.625 442.122 362.348 441.832 363.297 441.673L365.288 441.343V440.924C365.288 440.425 365.133 440.025 364.824 439.726C364.514 439.427 364.085 439.277 363.536 439.277C363.037 439.277 362.603 439.397 362.233 439.636C361.874 439.876 361.595 440.23 361.395 440.699L360.511 440.055C360.711 439.496 361.08 439.052 361.62 438.723C362.169 438.393 362.807 438.229 363.536 438.229C364.425 438.229 365.138 438.443 365.677 438.872C366.216 439.302 366.486 439.936 366.486 440.774V444.458C366.486 444.637 366.531 444.772 366.621 444.862C366.711 444.952 366.855 444.997 367.055 444.997ZM362.982 444.967C363.611 444.967 364.15 444.817 364.599 444.518C365.059 444.218 365.288 443.829 365.288 443.35V442.316L363.611 442.631C362.942 442.751 362.443 442.925 362.114 443.155C361.784 443.375 361.62 443.659 361.62 444.008C361.62 444.318 361.739 444.558 361.979 444.727C362.218 444.887 362.553 444.967 362.982 444.967ZM372.811 438.229C373.66 438.229 374.358 438.473 374.907 438.962C375.456 439.451 375.731 440.155 375.731 441.074V445.865H374.533V441.493C374.533 440.714 374.363 440.15 374.024 439.801C373.694 439.451 373.25 439.277 372.691 439.277C372.292 439.277 371.918 439.367 371.568 439.546C371.219 439.716 370.929 440.001 370.7 440.4C370.48 440.789 370.37 441.283 370.37 441.882V445.865H369.172V438.378H370.221L370.295 439.546C370.545 439.097 370.889 438.768 371.329 438.558C371.768 438.338 372.262 438.229 372.811 438.229ZM384.642 441.732C384.642 442.012 384.622 442.291 384.583 442.571H378.937C379.007 443.33 379.257 443.919 379.686 444.338C380.125 444.757 380.689 444.967 381.378 444.967C381.927 444.967 382.381 444.872 382.741 444.682C383.11 444.493 383.36 444.218 383.489 443.859L384.493 444.383C384.193 444.912 383.794 445.316 383.295 445.596C382.796 445.875 382.157 446.015 381.378 446.015C380.25 446.015 379.362 445.671 378.713 444.982C378.074 444.293 377.754 443.34 377.754 442.122C377.754 440.904 378.059 439.951 378.668 439.262C379.287 438.573 380.16 438.229 381.288 438.229C381.987 438.229 382.591 438.383 383.1 438.693C383.609 439.002 383.994 439.422 384.253 439.951C384.513 440.48 384.642 441.074 384.642 441.732ZM381.288 439.277C380.629 439.277 380.095 439.471 379.686 439.861C379.287 440.25 379.042 440.799 378.952 441.508H383.489C383.41 440.809 383.18 440.265 382.801 439.876C382.421 439.476 381.917 439.277 381.288 439.277ZM389.854 438.229C390.982 438.229 391.866 438.573 392.504 439.262C393.153 439.951 393.478 440.904 393.478 442.122C393.478 443.34 393.153 444.293 392.504 444.982C391.866 445.671 390.982 446.015 389.854 446.015C388.726 446.015 387.838 445.671 387.189 444.982C386.55 444.293 386.23 443.34 386.23 442.122C386.23 440.904 386.55 439.951 387.189 439.262C387.838 438.573 388.726 438.229 389.854 438.229ZM389.854 439.262C389.095 439.262 388.501 439.516 388.072 440.025C387.643 440.535 387.428 441.233 387.428 442.122C387.428 443.01 387.643 443.709 388.072 444.218C388.501 444.727 389.095 444.982 389.854 444.982C390.613 444.982 391.207 444.727 391.636 444.218C392.065 443.709 392.28 443.01 392.28 442.122C392.28 441.233 392.065 440.535 391.636 440.025C391.207 439.516 390.613 439.262 389.854 439.262ZM402.064 438.378V445.865H401.016L400.941 444.727C400.442 445.586 399.548 446.015 398.26 446.015C397.452 446.015 396.788 445.79 396.269 445.341C395.76 444.892 395.505 444.203 395.505 443.275V438.378H396.703V442.96C396.703 443.689 396.853 444.208 397.152 444.518C397.452 444.817 397.891 444.967 398.47 444.967C399.159 444.967 399.728 444.757 400.177 444.338C400.636 443.919 400.866 443.29 400.866 442.451V438.378H402.064ZM407.172 446.015C406.453 446.015 405.804 445.875 405.225 445.596C404.646 445.306 404.222 444.882 403.952 444.323L404.926 443.649C405.095 444.088 405.39 444.418 405.809 444.637C406.228 444.857 406.723 444.967 407.292 444.967C407.881 444.967 408.33 444.862 408.639 444.652C408.949 444.443 409.103 444.178 409.103 443.859C409.103 443.569 408.959 443.34 408.669 443.17C408.38 442.99 407.871 442.836 407.142 442.706C406.423 442.576 405.854 442.421 405.435 442.242C405.016 442.052 404.711 441.817 404.521 441.538C404.332 441.248 404.237 440.894 404.237 440.475C404.237 440.065 404.357 439.691 404.596 439.352C404.836 439.012 405.18 438.743 405.63 438.543C406.079 438.333 406.598 438.229 407.187 438.229C407.985 438.229 408.624 438.378 409.103 438.678C409.593 438.967 409.942 439.417 410.152 440.025L409.133 440.624C408.974 440.145 408.729 439.801 408.4 439.591C408.08 439.382 407.676 439.277 407.187 439.277C406.698 439.277 406.283 439.387 405.944 439.606C405.605 439.826 405.435 440.08 405.435 440.37C405.435 440.699 405.58 440.954 405.869 441.134C406.169 441.313 406.698 441.468 407.456 441.598C408.495 441.767 409.228 442.022 409.657 442.361C410.087 442.701 410.301 443.18 410.301 443.799C410.301 444.228 410.172 444.612 409.912 444.952C409.662 445.281 409.298 445.541 408.819 445.73C408.35 445.92 407.801 446.015 407.172 446.015Z" fill="white"/>
<path d="M403.323 54.6746V62.9102H402.325V56.8707C402.325 56.696 402.333 56.3758 402.35 55.9099C402.067 56.1844 401.738 56.4257 401.364 56.6337C400.99 56.8333 400.607 56.9789 400.216 57.0704L399.954 56.1595C400.154 56.1345 400.424 56.043 400.765 55.885C401.106 55.7186 401.435 55.5273 401.751 55.311C402.067 55.0864 402.3 54.8742 402.45 54.6746H403.323ZM408.292 63.0349C407.293 63.0349 406.532 62.6731 406.008 61.9493C405.484 61.2256 405.222 60.1733 405.222 58.7924C405.222 57.4115 405.484 56.3591 406.008 55.6354C406.532 54.9117 407.293 54.5498 408.292 54.5498C409.29 54.5498 410.051 54.9117 410.575 55.6354C411.099 56.3591 411.361 57.4115 411.361 58.7924C411.361 60.1733 411.099 61.2256 410.575 61.9493C410.051 62.6731 409.29 63.0349 408.292 63.0349ZM408.292 62.1365C408.949 62.1365 409.452 61.8537 409.801 61.288C410.151 60.714 410.325 59.8821 410.325 58.7924C410.325 57.7026 410.151 56.8749 409.801 56.3092C409.452 55.7352 408.949 55.4482 408.292 55.4482C407.634 55.4482 407.131 55.7352 406.782 56.3092C406.432 56.8749 406.258 57.7026 406.258 58.7924C406.258 59.8821 406.432 60.714 406.782 61.288C407.131 61.8537 407.634 62.1365 408.292 62.1365ZM415.867 63.0349C414.868 63.0349 414.107 62.6731 413.583 61.9493C413.059 61.2256 412.797 60.1733 412.797 58.7924C412.797 57.4115 413.059 56.3591 413.583 55.6354C414.107 54.9117 414.868 54.5498 415.867 54.5498C416.865 54.5498 417.626 54.9117 418.15 55.6354C418.674 56.3591 418.936 57.4115 418.936 58.7924C418.936 60.1733 418.674 61.2256 418.15 61.9493C417.626 62.6731 416.865 63.0349 415.867 63.0349ZM415.867 62.1365C416.524 62.1365 417.027 61.8537 417.376 61.288C417.726 60.714 417.901 59.8821 417.901 58.7924C417.901 57.7026 417.726 56.8749 417.376 56.3092C417.027 55.7352 416.524 55.4482 415.867 55.4482C415.209 55.4482 414.706 55.7352 414.357 56.3092C414.007 56.8749 413.833 57.7026 413.833 58.7924C413.833 59.8821 414.007 60.714 414.357 61.288C414.706 61.8537 415.209 62.1365 415.867 62.1365ZM422.044 54.5498C422.651 54.5498 423.134 54.7578 423.492 55.1737C423.849 55.5813 424.028 56.1304 424.028 56.8208C424.028 57.5113 423.849 58.0645 423.492 58.4804C423.134 58.888 422.651 59.0918 422.044 59.0918C421.437 59.0918 420.954 58.888 420.597 58.4804C420.239 58.0645 420.06 57.5113 420.06 56.8208C420.06 56.1304 420.239 55.5813 420.597 55.1737C420.954 54.7578 421.437 54.5498 422.044 54.5498ZM427.048 54.6746H427.996L422.755 62.9102H421.807L427.048 54.6746ZM422.044 55.3359C421.695 55.3359 421.424 55.4649 421.233 55.7228C421.042 55.9806 420.946 56.3467 420.946 56.8208C420.946 57.295 421.042 57.661 421.233 57.9189C421.424 58.1768 421.695 58.3057 422.044 58.3057C422.394 58.3057 422.664 58.1768 422.855 57.9189C423.047 57.661 423.142 57.295 423.142 56.8208C423.142 56.3467 423.047 55.9806 422.855 55.7228C422.664 55.4649 422.394 55.3359 422.044 55.3359ZM427.759 58.4929C428.366 58.4929 428.849 58.7009 429.207 59.1168C429.564 59.5244 429.743 60.0735 429.743 60.7639C429.743 61.4544 429.564 62.0076 429.207 62.4235C428.849 62.8311 428.366 63.0349 427.759 63.0349C427.152 63.0349 426.669 62.8311 426.312 62.4235C425.954 62.0076 425.775 61.4544 425.775 60.7639C425.775 60.0735 425.954 59.5244 426.312 59.1168C426.669 58.7009 427.152 58.4929 427.759 58.4929ZM427.759 59.279C427.41 59.279 427.139 59.408 426.948 59.6658C426.757 59.9237 426.661 60.2897 426.661 60.7639C426.661 61.2381 426.757 61.6041 426.948 61.862C427.139 62.1199 427.41 62.2488 427.759 62.2488C428.109 62.2488 428.379 62.1199 428.57 61.862C428.762 61.6041 428.857 61.2381 428.857 60.7639C428.857 60.2897 428.762 59.9237 428.57 59.6658C428.379 59.408 428.109 59.279 427.759 59.279Z" fill="white" fill-opacity="0.5"/>
<path d="M403.373 234.558C402.375 234.558 401.613 234.197 401.089 233.473C400.565 232.749 400.303 231.697 400.303 230.316C400.303 228.935 400.565 227.883 401.089 227.159C401.613 226.435 402.375 226.073 403.373 226.073C404.371 226.073 405.132 226.435 405.656 227.159C406.18 227.883 406.443 228.935 406.443 230.316C406.443 231.697 406.18 232.749 405.656 233.473C405.132 234.197 404.371 234.558 403.373 234.558ZM403.373 233.66C404.03 233.66 404.533 233.377 404.883 232.811C405.232 232.237 405.407 231.406 405.407 230.316C405.407 229.226 405.232 228.398 404.883 227.833C404.533 227.259 404.03 226.972 403.373 226.972C402.716 226.972 402.212 227.259 401.863 227.833C401.514 228.398 401.339 229.226 401.339 230.316C401.339 231.406 401.514 232.237 401.863 232.811C402.212 233.377 402.716 233.66 403.373 233.66ZM409.55 226.073C410.158 226.073 410.64 226.281 410.998 226.697C411.356 227.105 411.534 227.654 411.534 228.344C411.534 229.035 411.356 229.588 410.998 230.004C410.64 230.411 410.158 230.615 409.55 230.615C408.943 230.615 408.461 230.411 408.103 230.004C407.745 229.588 407.566 229.035 407.566 228.344C407.566 227.654 407.745 227.105 408.103 226.697C408.461 226.281 408.943 226.073 409.55 226.073ZM414.554 226.198H415.503L410.262 234.434H409.313L414.554 226.198ZM409.55 226.859C409.201 226.859 408.931 226.988 408.739 227.246C408.548 227.504 408.452 227.87 408.452 228.344C408.452 228.818 408.548 229.184 408.739 229.442C408.931 229.7 409.201 229.829 409.55 229.829C409.9 229.829 410.17 229.7 410.362 229.442C410.553 229.184 410.649 228.818 410.649 228.344C410.649 227.87 410.553 227.504 410.362 227.246C410.17 226.988 409.9 226.859 409.55 226.859ZM415.265 230.016C415.873 230.016 416.355 230.224 416.713 230.64C417.071 231.048 417.249 231.597 417.249 232.287C417.249 232.978 417.071 233.531 416.713 233.947C416.355 234.355 415.873 234.558 415.265 234.558C414.658 234.558 414.176 234.355 413.818 233.947C413.46 233.531 413.281 232.978 413.281 232.287C413.281 231.597 413.46 231.048 413.818 230.64C414.176 230.224 414.658 230.016 415.265 230.016ZM415.265 230.802C414.916 230.802 414.646 230.931 414.454 231.189C414.263 231.447 414.167 231.813 414.167 232.287C414.167 232.762 414.263 233.128 414.454 233.385C414.646 233.643 414.916 233.772 415.265 233.772C415.615 233.772 415.885 233.643 416.077 233.385C416.268 233.128 416.364 232.762 416.364 232.287C416.364 231.813 416.268 231.447 416.077 231.189C415.885 230.931 415.615 230.802 415.265 230.802Z" fill="white" fill-opacity="0.5"/>
<path d="M403.323 397.721V405.957H402.325V399.918C402.325 399.743 402.333 399.423 402.35 398.957C402.067 399.231 401.738 399.473 401.364 399.681C400.99 399.88 400.607 400.026 400.216 400.117L399.954 399.206C400.154 399.181 400.424 399.09 400.765 398.932C401.106 398.765 401.435 398.574 401.751 398.358C402.067 398.133 402.3 397.921 402.45 397.721H403.323ZM408.292 406.082C407.293 406.082 406.532 405.72 406.008 404.996C405.484 404.272 405.222 403.22 405.222 401.839C405.222 400.458 405.484 399.406 406.008 398.682C406.532 397.959 407.293 397.597 408.292 397.597C409.29 397.597 410.051 397.959 410.575 398.682C411.099 399.406 411.361 400.458 411.361 401.839C411.361 403.22 411.099 404.272 410.575 404.996C410.051 405.72 409.29 406.082 408.292 406.082ZM408.292 405.183C408.949 405.183 409.452 404.901 409.801 404.335C410.151 403.761 410.325 402.929 410.325 401.839C410.325 400.749 410.151 399.922 409.801 399.356C409.452 398.782 408.949 398.495 408.292 398.495C407.634 398.495 407.131 398.782 406.782 399.356C406.432 399.922 406.258 400.749 406.258 401.839C406.258 402.929 406.432 403.761 406.782 404.335C407.131 404.901 407.634 405.183 408.292 405.183ZM415.867 406.082C414.868 406.082 414.107 405.72 413.583 404.996C413.059 404.272 412.797 403.22 412.797 401.839C412.797 400.458 413.059 399.406 413.583 398.682C414.107 397.959 414.868 397.597 415.867 397.597C416.865 397.597 417.626 397.959 418.15 398.682C418.674 399.406 418.936 400.458 418.936 401.839C418.936 403.22 418.674 404.272 418.15 404.996C417.626 405.72 416.865 406.082 415.867 406.082ZM415.867 405.183C416.524 405.183 417.027 404.901 417.376 404.335C417.726 403.761 417.901 402.929 417.901 401.839C417.901 400.749 417.726 399.922 417.376 399.356C417.027 398.782 416.524 398.495 415.867 398.495C415.209 398.495 414.706 398.782 414.357 399.356C414.007 399.922 413.833 400.749 413.833 401.839C413.833 402.929 414.007 403.761 414.357 404.335C414.706 404.901 415.209 405.183 415.867 405.183ZM422.044 397.597C422.651 397.597 423.134 397.805 423.492 398.221C423.849 398.628 424.028 399.177 424.028 399.868C424.028 400.558 423.849 401.111 423.492 401.527C423.134 401.935 422.651 402.139 422.044 402.139C421.437 402.139 420.954 401.935 420.597 401.527C420.239 401.111 420.06 400.558 420.06 399.868C420.06 399.177 420.239 398.628 420.597 398.221C420.954 397.805 421.437 397.597 422.044 397.597ZM427.048 397.721H427.996L422.755 405.957H421.807L427.048 397.721ZM422.044 398.383C421.695 398.383 421.424 398.512 421.233 398.77C421.042 399.028 420.946 399.394 420.946 399.868C420.946 400.342 421.042 400.708 421.233 400.966C421.424 401.224 421.695 401.353 422.044 401.353C422.394 401.353 422.664 401.224 422.855 400.966C423.047 400.708 423.142 400.342 423.142 399.868C423.142 399.394 423.047 399.028 422.855 398.77C422.664 398.512 422.394 398.383 422.044 398.383ZM427.759 401.54C428.366 401.54 428.849 401.748 429.207 402.164C429.564 402.571 429.743 403.12 429.743 403.811C429.743 404.501 429.564 405.054 429.207 405.47C428.849 405.878 428.366 406.082 427.759 406.082C427.152 406.082 426.669 405.878 426.312 405.47C425.954 405.054 425.775 404.501 425.775 403.811C425.775 403.12 425.954 402.571 426.312 402.164C426.669 401.748 427.152 401.54 427.759 401.54ZM427.759 402.326C427.41 402.326 427.139 402.455 426.948 402.713C426.757 402.971 426.661 403.337 426.661 403.811C426.661 404.285 426.757 404.651 426.948 404.909C427.139 405.167 427.41 405.296 427.759 405.296C428.109 405.296 428.379 405.167 428.57 404.909C428.762 404.651 428.857 404.285 428.857 403.811C428.857 403.337 428.762 402.971 428.57 402.713C428.379 402.455 428.109 402.326 427.759 402.326Z" fill="white" fill-opacity="0.5"/>
<defs>
<linearGradient id="paint0_linear_807_2229" x1="7.22733" y1="10.3352" x2="16.094" y2="95.5113" gradientUnits="userSpaceOnUse">
<stop stop-color="#6747E6"/>
<stop offset="0.942708" stop-color="#9A59FF"/>
</linearGradient>
<linearGradient id="paint1_linear_807_2229" x1="7.22733" y1="10.485" x2="16.35" y2="96.8685" gradientUnits="userSpaceOnUse">
<stop stop-color="#6747E6"/>
<stop offset="0.942708" stop-color="#9A59FF"/>
</linearGradient>
<linearGradient id="paint2_linear_807_2229" x1="7.22733" y1="8.2382" x2="12.8831" y2="76.3986" gradientUnits="userSpaceOnUse">
<stop stop-color="#6747E6"/>
<stop offset="0.942708" stop-color="#9A59FF"/>
</linearGradient>
<linearGradient id="paint3_linear_807_2229" x1="7.22733" y1="12.582" x2="20.3005" y2="115.742" gradientUnits="userSpaceOnUse">
<stop stop-color="#6747E6"/>
<stop offset="0.942708" stop-color="#9A59FF"/>
</linearGradient>
<linearGradient id="paint4_linear_807_2229" x1="7.22733" y1="13.7803" x2="22.8599" y2="126.409" gradientUnits="userSpaceOnUse">
<stop stop-color="#6747E6"/>
<stop offset="0.942708" stop-color="#9A59FF"/>
</linearGradient>
<linearGradient id="paint5_linear_807_2229" x1="7.22733" y1="7.33949" x2="11.7227" y2="68.15" gradientUnits="userSpaceOnUse">
<stop stop-color="#6747E6"/>
<stop offset="0.942708" stop-color="#9A59FF"/>
</linearGradient>
<linearGradient id="paint6_linear_807_2229" x1="7.22733" y1="5.09271" x2="9.39783" y2="47.407" gradientUnits="userSpaceOnUse">
<stop stop-color="#6747E6"/>
<stop offset="0.942708" stop-color="#9A59FF"/>
</linearGradient>
<linearGradient id="paint7_linear_807_2229" x1="7.22733" y1="15.8773" x2="27.852" y2="144.847" gradientUnits="userSpaceOnUse">
<stop stop-color="#6747E6"/>
<stop offset="0.942708" stop-color="#9A59FF"/>
</linearGradient>
</defs>
</svg>
