<svg width="1438" height="11796" viewBox="0 0 1438 11796" fill="none" xmlns="http://www.w3.org/2000/svg">
<g opacity="0.3" filter="url(#filter0_f_571_11978)">
<path d="M-175.292 10601.9C-128.749 10796.6 261.365 10840.6 482.495 10701.6C788.729 10509.2 809.033 10269.3 580.501 9999.17C294.835 9661.48 137.45 9697.82 181.006 10202.5C224.562 10707.1 -221.834 10407.3 -175.292 10601.9Z" fill="#FF6B00"/>
</g>
<g opacity="0.8" filter="url(#filter1_f_571_11978)">
<path d="M1345.84 9458.83C1366.62 9545.11 1530.25 9567.14 1621.92 9507.24C1748.86 9424.28 1755.77 9318.46 1658.29 9197.62C1536.44 9046.57 1470.78 9061.57 1492.37 9284.77C1513.96 9507.96 1325.06 9372.55 1345.84 9458.83Z" fill="#FFC700"/>
</g>
<g filter="url(#filter2_f_571_11978)">
<path d="M572.292 9553.72C794.567 9695.8 -143.991 9538.67 -201.477 10515.5C-263.804 10613 -494.519 10576.9 -716.794 10434.8C-939.068 10292.7 -1528.71 10187 -1466.38 10089.5C-1404.05 9991.99 350.018 9411.64 572.292 9553.72Z" fill="url(#paint0_linear_571_11978)" fill-opacity="0.5"/>
</g>
<g filter="url(#filter3_f_571_11978)">
<path d="M572.292 9959.72C794.567 10101.8 -143.991 9944.67 -201.477 10921.5C-263.804 11019 -494.519 10982.9 -716.794 10840.8C-939.068 10698.7 -1528.71 10593 -1466.38 10495.5C-1404.05 10398 350.018 9817.64 572.292 9959.72Z" fill="url(#paint1_linear_571_11978)"/>
</g>
<g filter="url(#filter4_f_571_11978)">
<path d="M1061.73 11382.7C1026.68 11504.7 1359.74 11162.3 1792.41 11525.7C1859.64 11545 1942.56 11461.8 1977.61 11339.8C2012.66 11217.9 2218.98 11000 2151.75 10980.7C2084.52 10961.4 1096.79 11260.8 1061.73 11382.7Z" fill="url(#paint2_linear_571_11978)"/>
</g>
<g filter="url(#filter5_f_571_11978)">
<ellipse cx="281.242" cy="6857.69" rx="426.242" ry="235.694" fill="#00A3FF"/>
</g>
<g filter="url(#filter6_f_571_11978)">
<ellipse cx="1213.75" cy="8004.79" rx="326.237" ry="160.791" fill="#FF6B00"/>
</g>
<g filter="url(#filter7_f_571_11978)">
<ellipse cx="1253.57" cy="8118.88" rx="370.566" ry="182.729" fill="#FF6B00"/>
</g>
<g opacity="0.5" filter="url(#filter8_f_571_11978)">
<path d="M-647.471 1838.91C-600.929 2033.56 -210.815 2077.56 10.3151 1938.62C316.549 1746.2 336.854 1506.32 108.321 1236.17C-177.345 898.482 -334.73 934.819 -291.174 1439.48C-247.618 1944.14 -694.014 1644.27 -647.471 1838.91Z" fill="#FF6B00"/>
</g>
<g opacity="0.3" filter="url(#filter9_f_571_11978)">
<path d="M-412.292 5727.91C-365.749 5922.56 24.3647 5966.56 245.495 5827.62C551.728 5635.2 572.033 5395.32 343.501 5125.17C57.8347 4787.48 -99.5502 4823.82 -55.9941 5328.48C-12.438 5833.14 -458.834 5533.27 -412.292 5727.91Z" fill="#FF6B00"/>
</g>
<g opacity="0.5" filter="url(#filter10_f_571_11978)">
<path d="M1075.84 802.832C1096.62 889.115 1260.25 911.141 1351.92 851.239C1478.86 768.282 1485.77 662.461 1388.29 541.62C1266.44 390.568 1200.78 405.573 1222.37 628.769C1243.96 851.964 1055.06 716.549 1075.84 802.832Z" fill="#FFC700"/>
</g>
<g opacity="0.5" filter="url(#filter11_f_571_11978)">
<path d="M1108.84 4584.83C1129.62 4671.11 1293.25 4693.14 1384.92 4633.24C1511.86 4550.28 1518.77 4444.46 1421.29 4323.62C1299.44 4172.57 1233.78 4187.57 1255.37 4410.77C1276.96 4633.96 1088.06 4498.55 1108.84 4584.83Z" fill="#FFC700"/>
</g>
<g filter="url(#filter12_f_571_11978)">
<path d="M302.292 897.72C524.567 1039.8 -413.991 882.668 -471.477 1859.5C-533.804 1957 -764.519 1920.88 -986.794 1778.8C-1209.07 1636.72 -1798.71 1531.01 -1736.38 1433.5C-1674.05 1335.99 80.0184 755.643 302.292 897.72Z" fill="url(#paint3_linear_571_11978)" fill-opacity="0.5"/>
</g>
<g opacity="0.5" filter="url(#filter13_f_571_11978)">
<path d="M302.292 1303.72C524.567 1445.8 -413.991 1288.67 -471.477 2265.5C-533.804 2363.01 -764.519 2326.88 -986.794 2184.8C-1209.07 2042.72 -1798.71 1937.01 -1736.38 1839.5C-1674.05 1741.99 80.0184 1161.64 302.292 1303.72Z" fill="url(#paint4_linear_571_11978)"/>
</g>
<g opacity="0.5" filter="url(#filter14_f_571_11978)">
<path d="M809.735 1950.72C774.684 2072.68 1107.74 1730.25 1540.41 2093.67C1607.64 2112.99 1690.56 2029.79 1725.61 1907.83C1760.66 1785.87 1966.98 1568.02 1899.75 1548.7C1832.52 1529.38 844.786 1828.77 809.735 1950.72Z" fill="url(#paint5_linear_571_11978)"/>
</g>
<g filter="url(#filter15_f_571_11978)">
<path d="M335.292 4679.72C557.567 4821.8 -380.991 4664.67 -438.477 5641.5C-500.804 5739.01 -731.519 5702.88 -953.794 5560.8C-1176.07 5418.72 -1765.71 5313.01 -1703.38 5215.5C-1641.05 5117.99 113.018 4537.64 335.292 4679.72Z" fill="url(#paint6_linear_571_11978)" fill-opacity="0.5"/>
</g>
<g filter="url(#filter16_f_571_11978)">
<path d="M335.292 5085.72C557.567 5227.8 -380.991 5070.67 -438.477 6047.5C-500.804 6145.01 -731.519 6108.88 -953.794 5966.8C-1176.07 5824.72 -1765.71 5719.01 -1703.38 5621.5C-1641.05 5523.99 113.018 4943.64 335.292 5085.72Z" fill="url(#paint7_linear_571_11978)"/>
</g>
<g opacity="0.5" filter="url(#filter17_f_571_11978)">
<path d="M842.735 5732.72C807.684 5854.68 1140.74 5512.25 1573.41 5875.67C1640.64 5894.99 1723.56 5811.79 1758.61 5689.83C1793.66 5567.87 1999.98 5350.02 1932.75 5330.7C1865.52 5311.38 877.786 5610.77 842.735 5732.72Z" fill="url(#paint8_linear_571_11978)"/>
</g>
<g filter="url(#filter18_f_571_11978)">
<ellipse cx="452.434" cy="3306.58" rx="370.566" ry="182.729" fill="#FF6B00"/>
</g>
<g filter="url(#filter19_f_571_11978)">
<ellipse cx="381.242" cy="3091.69" rx="426.242" ry="235.694" fill="#00A3FF"/>
</g>
<defs>
<filter id="filter0_f_571_11978" x="-620.499" y="9336.72" width="1796.79" height="1887.71" filterUnits="userSpaceOnUse" color-interpolation-filters="sRGB">
<feFlood flood-opacity="0" result="BackgroundImageFix"/>
<feBlend mode="normal" in="SourceGraphic" in2="BackgroundImageFix" result="shape"/>
<feGaussianBlur stdDeviation="220.9" result="effect1_foregroundBlur_571_11978"/>
</filter>
<filter id="filter1_f_571_11978" x="902.441" y="8656.42" width="1264.41" height="1326.38" filterUnits="userSpaceOnUse" color-interpolation-filters="sRGB">
<feFlood flood-opacity="0" result="BackgroundImageFix"/>
<feBlend mode="normal" in="SourceGraphic" in2="BackgroundImageFix" result="shape"/>
<feGaussianBlur stdDeviation="220.9" result="effect1_foregroundBlur_571_11978"/>
</filter>
<filter id="filter2_f_571_11978" x="-1786.97" y="9215.45" width="2709.25" height="1670.84" filterUnits="userSpaceOnUse" color-interpolation-filters="sRGB">
<feFlood flood-opacity="0" result="BackgroundImageFix"/>
<feBlend mode="normal" in="SourceGraphic" in2="BackgroundImageFix" result="shape"/>
<feGaussianBlur stdDeviation="158" result="effect1_foregroundBlur_571_11978"/>
</filter>
<filter id="filter3_f_571_11978" x="-1786.97" y="9621.45" width="2709.25" height="1670.84" filterUnits="userSpaceOnUse" color-interpolation-filters="sRGB">
<feFlood flood-opacity="0" result="BackgroundImageFix"/>
<feBlend mode="normal" in="SourceGraphic" in2="BackgroundImageFix" result="shape"/>
<feGaussianBlur stdDeviation="158" result="effect1_foregroundBlur_571_11978"/>
</filter>
<filter id="filter4_f_571_11978" x="791.856" y="10712.5" width="1640.61" height="1083.34" filterUnits="userSpaceOnUse" color-interpolation-filters="sRGB">
<feFlood flood-opacity="0" result="BackgroundImageFix"/>
<feBlend mode="normal" in="SourceGraphic" in2="BackgroundImageFix" result="shape"/>
<feGaussianBlur stdDeviation="133.673" result="effect1_foregroundBlur_571_11978"/>
</filter>
<filter id="filter5_f_571_11978" x="-845" y="5922" width="2252.48" height="1871.39" filterUnits="userSpaceOnUse" color-interpolation-filters="sRGB">
<feFlood flood-opacity="0" result="BackgroundImageFix"/>
<feBlend mode="normal" in="SourceGraphic" in2="BackgroundImageFix" result="shape"/>
<feGaussianBlur stdDeviation="350" result="effect1_foregroundBlur_571_11978"/>
</filter>
<filter id="filter6_f_571_11978" x="242.195" y="7198.68" width="1943.12" height="1612.23" filterUnits="userSpaceOnUse" color-interpolation-filters="sRGB">
<feFlood flood-opacity="0" result="BackgroundImageFix"/>
<feBlend mode="normal" in="SourceGraphic" in2="BackgroundImageFix" result="shape"/>
<feGaussianBlur stdDeviation="322.661" result="effect1_foregroundBlur_571_11978"/>
</filter>
<filter id="filter7_f_571_11978" x="83" y="7136.15" width="2341.13" height="1965.46" filterUnits="userSpaceOnUse" color-interpolation-filters="sRGB">
<feFlood flood-opacity="0" result="BackgroundImageFix"/>
<feBlend mode="normal" in="SourceGraphic" in2="BackgroundImageFix" result="shape"/>
<feGaussianBlur stdDeviation="400" result="effect1_foregroundBlur_571_11978"/>
</filter>
<filter id="filter8_f_571_11978" x="-1092.68" y="573.718" width="1796.79" height="1887.71" filterUnits="userSpaceOnUse" color-interpolation-filters="sRGB">
<feFlood flood-opacity="0" result="BackgroundImageFix"/>
<feBlend mode="normal" in="SourceGraphic" in2="BackgroundImageFix" result="shape"/>
<feGaussianBlur stdDeviation="220.9" result="effect1_foregroundBlur_571_11978"/>
</filter>
<filter id="filter9_f_571_11978" x="-857.499" y="4462.72" width="1796.79" height="1887.71" filterUnits="userSpaceOnUse" color-interpolation-filters="sRGB">
<feFlood flood-opacity="0" result="BackgroundImageFix"/>
<feBlend mode="normal" in="SourceGraphic" in2="BackgroundImageFix" result="shape"/>
<feGaussianBlur stdDeviation="220.9" result="effect1_foregroundBlur_571_11978"/>
</filter>
<filter id="filter10_f_571_11978" x="632.44" y="0.424622" width="1264.41" height="1326.38" filterUnits="userSpaceOnUse" color-interpolation-filters="sRGB">
<feFlood flood-opacity="0" result="BackgroundImageFix"/>
<feBlend mode="normal" in="SourceGraphic" in2="BackgroundImageFix" result="shape"/>
<feGaussianBlur stdDeviation="220.9" result="effect1_foregroundBlur_571_11978"/>
</filter>
<filter id="filter11_f_571_11978" x="665.441" y="3782.42" width="1264.41" height="1326.38" filterUnits="userSpaceOnUse" color-interpolation-filters="sRGB">
<feFlood flood-opacity="0" result="BackgroundImageFix"/>
<feBlend mode="normal" in="SourceGraphic" in2="BackgroundImageFix" result="shape"/>
<feGaussianBlur stdDeviation="220.9" result="effect1_foregroundBlur_571_11978"/>
</filter>
<filter id="filter12_f_571_11978" x="-2056.97" y="559.448" width="2709.25" height="1670.83" filterUnits="userSpaceOnUse" color-interpolation-filters="sRGB">
<feFlood flood-opacity="0" result="BackgroundImageFix"/>
<feBlend mode="normal" in="SourceGraphic" in2="BackgroundImageFix" result="shape"/>
<feGaussianBlur stdDeviation="158" result="effect1_foregroundBlur_571_11978"/>
</filter>
<filter id="filter13_f_571_11978" x="-2056.97" y="965.449" width="2709.25" height="1670.83" filterUnits="userSpaceOnUse" color-interpolation-filters="sRGB">
<feFlood flood-opacity="0" result="BackgroundImageFix"/>
<feBlend mode="normal" in="SourceGraphic" in2="BackgroundImageFix" result="shape"/>
<feGaussianBlur stdDeviation="158" result="effect1_foregroundBlur_571_11978"/>
</filter>
<filter id="filter14_f_571_11978" x="539.856" y="1280.46" width="1640.61" height="1083.34" filterUnits="userSpaceOnUse" color-interpolation-filters="sRGB">
<feFlood flood-opacity="0" result="BackgroundImageFix"/>
<feBlend mode="normal" in="SourceGraphic" in2="BackgroundImageFix" result="shape"/>
<feGaussianBlur stdDeviation="133.673" result="effect1_foregroundBlur_571_11978"/>
</filter>
<filter id="filter15_f_571_11978" x="-2023.97" y="4341.45" width="2709.25" height="1670.83" filterUnits="userSpaceOnUse" color-interpolation-filters="sRGB">
<feFlood flood-opacity="0" result="BackgroundImageFix"/>
<feBlend mode="normal" in="SourceGraphic" in2="BackgroundImageFix" result="shape"/>
<feGaussianBlur stdDeviation="158" result="effect1_foregroundBlur_571_11978"/>
</filter>
<filter id="filter16_f_571_11978" x="-2023.97" y="4747.45" width="2709.25" height="1670.83" filterUnits="userSpaceOnUse" color-interpolation-filters="sRGB">
<feFlood flood-opacity="0" result="BackgroundImageFix"/>
<feBlend mode="normal" in="SourceGraphic" in2="BackgroundImageFix" result="shape"/>
<feGaussianBlur stdDeviation="158" result="effect1_foregroundBlur_571_11978"/>
</filter>
<filter id="filter17_f_571_11978" x="572.856" y="5062.46" width="1640.61" height="1083.34" filterUnits="userSpaceOnUse" color-interpolation-filters="sRGB">
<feFlood flood-opacity="0" result="BackgroundImageFix"/>
<feBlend mode="normal" in="SourceGraphic" in2="BackgroundImageFix" result="shape"/>
<feGaussianBlur stdDeviation="133.673" result="effect1_foregroundBlur_571_11978"/>
</filter>
<filter id="filter18_f_571_11978" x="-563.455" y="2478.53" width="2031.78" height="1656.1" filterUnits="userSpaceOnUse" color-interpolation-filters="sRGB">
<feFlood flood-opacity="0" result="BackgroundImageFix"/>
<feBlend mode="normal" in="SourceGraphic" in2="BackgroundImageFix" result="shape"/>
<feGaussianBlur stdDeviation="322.661" result="effect1_foregroundBlur_571_11978"/>
</filter>
<filter id="filter19_f_571_11978" x="-626.432" y="2274.57" width="2015.35" height="1634.25" filterUnits="userSpaceOnUse" color-interpolation-filters="sRGB">
<feFlood flood-opacity="0" result="BackgroundImageFix"/>
<feBlend mode="normal" in="SourceGraphic" in2="BackgroundImageFix" result="shape"/>
<feGaussianBlur stdDeviation="290.716" result="effect1_foregroundBlur_571_11978"/>
</filter>
<linearGradient id="paint0_linear_571_11978" x1="-326" y1="10100.5" x2="-1066.5" y2="9919" gradientUnits="userSpaceOnUse">
<stop stop-color="#00A3FF"/>
<stop offset="1" stop-color="#2ED3B7"/>
</linearGradient>
<linearGradient id="paint1_linear_571_11978" x1="-326" y1="10506.5" x2="-1066.5" y2="10325" gradientUnits="userSpaceOnUse">
<stop stop-color="#00A3FF"/>
<stop offset="1" stop-color="#2ED3B7"/>
</linearGradient>
<linearGradient id="paint2_linear_571_11978" x1="1671.87" y1="11326.7" x2="1865.61" y2="11006.8" gradientUnits="userSpaceOnUse">
<stop stop-color="#00A3FF"/>
<stop offset="1" stop-color="#2ED3B7"/>
</linearGradient>
<linearGradient id="paint3_linear_571_11978" x1="-596" y1="1444.5" x2="-1336.5" y2="1263" gradientUnits="userSpaceOnUse">
<stop stop-color="#00A3FF"/>
<stop offset="1" stop-color="#2ED3B7"/>
</linearGradient>
<linearGradient id="paint4_linear_571_11978" x1="-596" y1="1850.5" x2="-1336.5" y2="1669" gradientUnits="userSpaceOnUse">
<stop stop-color="#00A3FF"/>
<stop offset="1" stop-color="#2ED3B7"/>
</linearGradient>
<linearGradient id="paint5_linear_571_11978" x1="1419.87" y1="1894.65" x2="1613.61" y2="1574.81" gradientUnits="userSpaceOnUse">
<stop stop-color="#00A3FF"/>
<stop offset="1" stop-color="#2ED3B7"/>
</linearGradient>
<linearGradient id="paint6_linear_571_11978" x1="-563" y1="5226.5" x2="-1303.5" y2="5045" gradientUnits="userSpaceOnUse">
<stop stop-color="#00A3FF"/>
<stop offset="1" stop-color="#2ED3B7"/>
</linearGradient>
<linearGradient id="paint7_linear_571_11978" x1="-563" y1="5632.5" x2="-1303.5" y2="5451" gradientUnits="userSpaceOnUse">
<stop stop-color="#00A3FF"/>
<stop offset="1" stop-color="#2ED3B7"/>
</linearGradient>
<linearGradient id="paint8_linear_571_11978" x1="1452.87" y1="5676.65" x2="1646.61" y2="5356.81" gradientUnits="userSpaceOnUse">
<stop stop-color="#00A3FF"/>
<stop offset="1" stop-color="#2ED3B7"/>
</linearGradient>
</defs>
</svg>
