<svg width="32" height="32" viewBox="0 0 32 32" fill="none" xmlns="http://www.w3.org/2000/svg">
<path d="M10.0013 14.6667H6.13464C5.3879 14.6667 5.01453 14.6667 4.72931 14.812C4.47843 14.9398 4.27446 15.1438 4.14663 15.3947C4.0013 15.6799 4.0013 16.0533 4.0013 16.8V28M22.0013 14.6667H25.868C26.6147 14.6667 26.9881 14.6667 27.2733 14.812C27.5242 14.9398 27.7281 15.1438 27.856 15.3947C28.0013 15.6799 28.0013 16.0533 28.0013 16.8V28M22.0013 28V8.26667C22.0013 6.77319 22.0013 6.02646 21.7107 5.45603C21.455 4.95426 21.047 4.54631 20.5453 4.29065C19.9748 4 19.2281 4 17.7346 4H14.268C12.7745 4 12.0278 4 11.4573 4.29065C10.9556 4.54631 10.5476 4.95426 10.292 5.45603C10.0013 6.02646 10.0013 6.77319 10.0013 8.26667V28M29.3346 28H2.66797M14.668 9.33333H17.3346M14.668 14.6667H17.3346M14.668 20H17.3346" stroke="black" stroke-width="2" stroke-linecap="round" stroke-linejoin="round"/>
</svg>
