<svg width="460" height="460" viewBox="0 0 460 460" fill="none" xmlns="http://www.w3.org/2000/svg">
<path opacity="0.15" d="M391.873 74.7598H67.7617V398.871H391.873V74.7598Z" fill="black" fill-opacity="0.1"/>
<path opacity="0.8" d="M117.184 124.18L256.502 211.805L339.502 346.305L137.297 329.336L117.184 124.18Z" fill="url(#paint0_linear_807_5354)"/>
<path opacity="0.6" d="M322.517 144.117H135.785V330.849H322.517V144.117Z" fill="black" fill-opacity="0.1"/>
<path d="M392.557 75.4434L68.4453 399.554" stroke="white" stroke-opacity="0.4" stroke-width="1.14933" stroke-miterlimit="10"/>
<path d="M392.557 399.554L68.4453 75.4434" stroke="white" stroke-opacity="0.4" stroke-width="1.14933" stroke-miterlimit="10"/>
<path d="M78.1097 224.254C79.0523 224.254 79.8083 224.497 80.3777 224.982C80.947 225.467 81.2317 226.125 81.2317 226.956C81.2317 227.787 80.9423 228.435 80.3637 228.902C79.7943 229.359 79.0383 229.588 78.0957 229.588L77.9977 229.658H75.7297V233.494H74.6097V224.254H78.1097ZM78.0957 228.608C78.7583 228.608 79.2483 228.473 79.5657 228.202C79.8923 227.922 80.0557 227.507 80.0557 226.956C80.0557 226.405 79.8923 225.995 79.5657 225.724C79.2483 225.444 78.7583 225.304 78.0957 225.304H75.7297V228.608H78.0957ZM78.7397 228.832L81.7917 233.494H80.4617L77.8017 229.448L78.7397 228.832ZM86.4038 233.634C85.7411 233.634 85.1484 233.489 84.6258 233.2C84.1124 232.911 83.7111 232.495 83.4218 231.954C83.1324 231.403 82.9878 230.75 82.9878 229.994C82.9878 229.238 83.1324 228.589 83.4218 228.048C83.7111 227.497 84.1078 227.077 84.6118 226.788C85.1158 226.499 85.6898 226.354 86.3338 226.354C86.9871 226.354 87.5424 226.494 87.9998 226.774C88.4664 227.054 88.8211 227.437 89.0638 227.922C89.3064 228.398 89.4278 228.935 89.4278 229.532C89.4278 229.691 89.4231 229.835 89.4138 229.966C89.4044 230.097 89.3904 230.213 89.3718 230.316H83.7158V229.322H88.8818L88.3078 229.434C88.3078 228.762 88.1211 228.244 87.7478 227.88C87.3838 227.516 86.9031 227.334 86.3058 227.334C85.8484 227.334 85.4518 227.441 85.1158 227.656C84.7891 227.861 84.5324 228.165 84.3458 228.566C84.1684 228.958 84.0798 229.434 84.0798 229.994C84.0798 230.545 84.1731 231.021 84.3598 231.422C84.5464 231.823 84.8078 232.131 85.1438 232.346C85.4891 232.551 85.8998 232.654 86.3758 232.654C86.8891 232.654 87.3044 232.556 87.6218 232.36C87.9484 232.164 88.2098 231.898 88.4058 231.562L89.2878 232.08C89.1104 232.397 88.8818 232.673 88.6018 232.906C88.3311 233.139 88.0091 233.321 87.6358 233.452C87.2718 233.573 86.8611 233.634 86.4038 233.634ZM94.0779 233.634C93.3965 233.634 92.7665 233.489 92.1879 233.2C91.6185 232.911 91.1799 232.5 90.8719 231.968L91.8239 231.282C92.0292 231.711 92.3279 232.047 92.7199 232.29C93.1212 232.533 93.6019 232.654 94.1619 232.654C94.6565 232.654 95.0439 232.561 95.3239 232.374C95.6039 232.178 95.7439 231.926 95.7439 231.618C95.7439 231.422 95.6785 231.245 95.5479 231.086C95.4265 230.918 95.1885 230.797 94.8339 230.722L93.1539 230.372C92.4725 230.232 91.9825 229.999 91.6839 229.672C91.3945 229.345 91.2499 228.939 91.2499 228.454C91.2499 228.071 91.3572 227.721 91.5719 227.404C91.7959 227.087 92.1085 226.835 92.5099 226.648C92.9205 226.452 93.4012 226.354 93.9519 226.354C94.6425 226.354 95.2259 226.489 95.7019 226.76C96.1779 227.031 96.5325 227.413 96.7659 227.908L95.8279 228.524C95.6692 228.113 95.4125 227.815 95.0579 227.628C94.7032 227.432 94.3345 227.334 93.9519 227.334C93.6159 227.334 93.3265 227.381 93.0839 227.474C92.8505 227.567 92.6685 227.698 92.5379 227.866C92.4165 228.025 92.3559 228.207 92.3559 228.412C92.3559 228.617 92.4259 228.809 92.5659 228.986C92.7059 229.154 92.9672 229.275 93.3499 229.35L95.0999 229.714C95.7532 229.845 96.2105 230.059 96.4719 230.358C96.7332 230.657 96.8639 231.021 96.8639 231.45C96.8639 231.889 96.7472 232.276 96.5139 232.612C96.2805 232.939 95.9539 233.191 95.5339 233.368C95.1139 233.545 94.6285 233.634 94.0779 233.634ZM101.475 233.634C101.027 233.634 100.602 233.55 100.201 233.382C99.8087 233.214 99.4867 232.943 99.2347 232.57C98.992 232.187 98.8707 231.693 98.8707 231.086V226.494H99.9907V230.792C99.9907 231.501 100.145 231.991 100.453 232.262C100.761 232.523 101.195 232.654 101.755 232.654C102.016 232.654 102.273 232.612 102.525 232.528C102.777 232.435 103.001 232.295 103.197 232.108C103.402 231.912 103.561 231.665 103.673 231.366C103.794 231.067 103.855 230.713 103.855 230.302V226.494H104.975V233.494H103.995L103.925 232.43C103.682 232.85 103.351 233.158 102.931 233.354C102.52 233.541 102.035 233.634 101.475 233.634ZM108.645 223.274V231.716C108.645 232.071 108.711 232.318 108.841 232.458C108.972 232.589 109.182 232.654 109.471 232.654C109.658 232.654 109.812 232.64 109.933 232.612C110.055 232.584 110.218 232.533 110.423 232.458L110.241 233.438C110.092 233.503 109.929 233.55 109.751 233.578C109.574 233.615 109.392 233.634 109.205 233.634C108.636 233.634 108.211 233.48 107.931 233.172C107.661 232.864 107.525 232.393 107.525 231.758V223.274H108.645ZM113.239 224.506V231.562C113.239 231.907 113.337 232.164 113.533 232.332C113.729 232.5 113.981 232.584 114.289 232.584C114.56 232.584 114.793 232.537 114.989 232.444C115.185 232.351 115.362 232.225 115.521 232.066L115.913 233.004C115.698 233.2 115.442 233.354 115.143 233.466C114.854 233.578 114.518 233.634 114.135 233.634C113.78 233.634 113.449 233.573 113.141 233.452C112.833 233.321 112.586 233.121 112.399 232.85C112.222 232.57 112.128 232.206 112.119 231.758V224.814L113.239 224.506ZM115.787 226.494V227.46H110.719V226.494H115.787ZM119.972 233.634C119.291 233.634 118.661 233.489 118.082 233.2C117.513 232.911 117.074 232.5 116.766 231.968L117.718 231.282C117.924 231.711 118.222 232.047 118.614 232.29C119.016 232.533 119.496 232.654 120.056 232.654C120.551 232.654 120.938 232.561 121.218 232.374C121.498 232.178 121.638 231.926 121.638 231.618C121.638 231.422 121.573 231.245 121.442 231.086C121.321 230.918 121.083 230.797 120.728 230.722L119.048 230.372C118.367 230.232 117.877 229.999 117.578 229.672C117.289 229.345 117.144 228.939 117.144 228.454C117.144 228.071 117.252 227.721 117.466 227.404C117.69 227.087 118.003 226.835 118.404 226.648C118.815 226.452 119.296 226.354 119.846 226.354C120.537 226.354 121.12 226.489 121.596 226.76C122.072 227.031 122.427 227.413 122.66 227.908L121.722 228.524C121.564 228.113 121.307 227.815 120.952 227.628C120.598 227.432 120.229 227.334 119.846 227.334C119.51 227.334 119.221 227.381 118.978 227.474C118.745 227.567 118.563 227.698 118.432 227.866C118.311 228.025 118.25 228.207 118.25 228.412C118.25 228.617 118.32 228.809 118.46 228.986C118.6 229.154 118.862 229.275 119.244 229.35L120.994 229.714C121.648 229.845 122.105 230.059 122.366 230.358C122.628 230.657 122.758 231.021 122.758 231.45C122.758 231.889 122.642 232.276 122.408 232.612C122.175 232.939 121.848 233.191 121.428 233.368C121.008 233.545 120.523 233.634 119.972 233.634ZM77.5917 242.254C79.0383 242.254 80.1723 242.655 80.9937 243.458C81.8243 244.251 82.2397 245.39 82.2397 246.874C82.2397 248.358 81.8243 249.501 80.9937 250.304C80.1723 251.097 79.0383 251.494 77.5917 251.494H74.6097V242.254H77.5917ZM77.7037 250.444C78.7583 250.444 79.5797 250.131 80.1677 249.506C80.765 248.871 81.0637 247.994 81.0637 246.874C81.0637 245.754 80.765 244.881 80.1677 244.256C79.5797 243.621 78.7583 243.304 77.7037 243.304H75.7297V250.444H77.7037ZM84.4211 251.494V244.494H85.3311L85.4851 245.642C85.6811 245.213 85.9658 244.891 86.3391 244.676C86.7218 244.461 87.1838 244.354 87.7251 244.354C87.8465 244.354 87.9771 244.363 88.1171 244.382C88.2665 244.401 88.3925 244.438 88.4951 244.494L88.2991 245.516C88.1965 245.479 88.0845 245.451 87.9631 245.432C87.8418 245.413 87.6691 245.404 87.4451 245.404C87.1558 245.404 86.8618 245.488 86.5631 245.656C86.2738 245.824 86.0311 246.081 85.8351 246.426C85.6391 246.762 85.5411 247.191 85.5411 247.714V251.494H84.4211ZM90.696 243.15C90.444 243.15 90.2387 243.075 90.08 242.926C89.9307 242.767 89.856 242.562 89.856 242.31C89.856 242.058 89.9307 241.857 90.08 241.708C90.2387 241.549 90.444 241.47 90.696 241.47C90.948 241.47 91.1487 241.549 91.298 241.708C91.4567 241.857 91.536 242.058 91.536 242.31C91.536 242.562 91.4567 242.767 91.298 242.926C91.1487 243.075 90.948 243.15 90.696 243.15ZM91.256 244.494V251.494H90.136V244.494H91.256ZM98.4887 244.494H99.6647L96.7527 251.494H95.6327L92.7207 244.494H93.9947L96.2067 250.36L98.4887 244.494ZM104.054 251.634C103.392 251.634 102.799 251.489 102.276 251.2C101.763 250.911 101.362 250.495 101.072 249.954C100.783 249.403 100.638 248.75 100.638 247.994C100.638 247.238 100.783 246.589 101.072 246.048C101.362 245.497 101.758 245.077 102.262 244.788C102.766 244.499 103.34 244.354 103.984 244.354C104.638 244.354 105.193 244.494 105.65 244.774C106.117 245.054 106.472 245.437 106.714 245.922C106.957 246.398 107.078 246.935 107.078 247.532C107.078 247.691 107.074 247.835 107.064 247.966C107.055 248.097 107.041 248.213 107.022 248.316H101.366V247.322H106.532L105.958 247.434C105.958 246.762 105.772 246.244 105.398 245.88C105.034 245.516 104.554 245.334 103.956 245.334C103.499 245.334 103.102 245.441 102.766 245.656C102.44 245.861 102.183 246.165 101.996 246.566C101.819 246.958 101.73 247.434 101.73 247.994C101.73 248.545 101.824 249.021 102.01 249.422C102.197 249.823 102.458 250.131 102.794 250.346C103.14 250.551 103.55 250.654 104.026 250.654C104.54 250.654 104.955 250.556 105.272 250.36C105.599 250.164 105.86 249.898 106.056 249.562L106.938 250.08C106.761 250.397 106.532 250.673 106.252 250.906C105.982 251.139 105.66 251.321 105.286 251.452C104.922 251.573 104.512 251.634 104.054 251.634ZM109.208 251.494V244.494H110.188L110.286 246.062L110.104 245.908C110.254 245.535 110.454 245.236 110.706 245.012C110.958 244.779 111.248 244.611 111.574 244.508C111.91 244.405 112.256 244.354 112.61 244.354C113.114 244.354 113.572 244.452 113.982 244.648C114.393 244.835 114.72 245.124 114.962 245.516C115.214 245.908 115.34 246.407 115.34 247.014V251.494H114.22V247.406C114.22 246.631 114.052 246.095 113.716 245.796C113.39 245.488 112.984 245.334 112.498 245.334C112.162 245.334 111.826 245.413 111.49 245.572C111.154 245.731 110.874 245.987 110.65 246.342C110.436 246.697 110.328 247.173 110.328 247.77V251.494H109.208Z" fill="#131316" fill-opacity="0.8"/>
<path d="M345.28 224.254C345.906 224.254 346.447 224.371 346.904 224.604C347.371 224.828 347.735 225.15 347.996 225.57C348.258 225.99 348.388 226.489 348.388 227.068C348.388 227.647 348.258 228.146 347.996 228.566C347.735 228.986 347.371 229.313 346.904 229.546C346.447 229.77 345.906 229.882 345.28 229.882H343.138V233.494H342.018V224.254H345.28ZM345.112 228.832C345.84 228.832 346.372 228.683 346.708 228.384C347.044 228.076 347.212 227.637 347.212 227.068C347.212 226.489 347.044 226.051 346.708 225.752C346.372 225.453 345.84 225.304 345.112 225.304H343.138V228.832H345.112ZM353.156 233.634C352.494 233.634 351.901 233.489 351.378 233.2C350.865 232.911 350.464 232.495 350.174 231.954C349.885 231.403 349.74 230.75 349.74 229.994C349.74 229.238 349.885 228.589 350.174 228.048C350.464 227.497 350.86 227.077 351.364 226.788C351.868 226.499 352.442 226.354 353.086 226.354C353.74 226.354 354.295 226.494 354.752 226.774C355.219 227.054 355.574 227.437 355.816 227.922C356.059 228.398 356.18 228.935 356.18 229.532C356.18 229.691 356.176 229.835 356.166 229.966C356.157 230.097 356.143 230.213 356.124 230.316H350.468V229.322H355.634L355.06 229.434C355.06 228.762 354.874 228.244 354.5 227.88C354.136 227.516 353.656 227.334 353.058 227.334C352.601 227.334 352.204 227.441 351.868 227.656C351.542 227.861 351.285 228.165 351.098 228.566C350.921 228.958 350.832 229.434 350.832 229.994C350.832 230.545 350.926 231.021 351.112 231.422C351.299 231.823 351.56 232.131 351.896 232.346C352.242 232.551 352.652 232.654 353.128 232.654C353.642 232.654 354.057 232.556 354.374 232.36C354.701 232.164 354.962 231.898 355.158 231.562L356.04 232.08C355.863 232.397 355.634 232.673 355.354 232.906C355.084 233.139 354.762 233.321 354.388 233.452C354.024 233.573 353.614 233.634 353.156 233.634ZM361.208 226.354C361.871 226.354 362.454 226.499 362.958 226.788C363.472 227.077 363.873 227.497 364.162 228.048C364.452 228.589 364.596 229.238 364.596 229.994C364.596 230.75 364.452 231.403 364.162 231.954C363.873 232.495 363.472 232.911 362.958 233.2C362.454 233.489 361.871 233.634 361.208 233.634C360.555 233.634 359.972 233.489 359.458 233.2C358.945 232.911 358.544 232.495 358.254 231.954C357.965 231.403 357.82 230.75 357.82 229.994C357.82 229.238 357.965 228.589 358.254 228.048C358.544 227.497 358.945 227.077 359.458 226.788C359.972 226.499 360.555 226.354 361.208 226.354ZM361.208 227.32C360.732 227.32 360.326 227.427 359.99 227.642C359.654 227.857 359.393 228.165 359.206 228.566C359.029 228.958 358.94 229.434 358.94 229.994C358.94 230.545 359.029 231.021 359.206 231.422C359.393 231.823 359.654 232.131 359.99 232.346C360.326 232.561 360.732 232.668 361.208 232.668C361.684 232.668 362.09 232.561 362.426 232.346C362.762 232.131 363.019 231.823 363.196 231.422C363.383 231.021 363.476 230.545 363.476 229.994C363.476 229.434 363.383 228.958 363.196 228.566C363.019 228.165 362.762 227.857 362.426 227.642C362.09 227.427 361.684 227.32 361.208 227.32ZM366.705 236.434V226.494H367.685L367.783 228.202L367.629 228.006C367.75 227.679 367.932 227.395 368.175 227.152C368.418 226.9 368.712 226.704 369.057 226.564C369.402 226.424 369.776 226.354 370.177 226.354C370.746 226.354 371.269 226.499 371.745 226.788C372.23 227.077 372.618 227.493 372.907 228.034C373.196 228.575 373.341 229.229 373.341 229.994C373.341 230.75 373.192 231.403 372.893 231.954C372.604 232.495 372.216 232.911 371.731 233.2C371.246 233.489 370.714 233.634 370.135 233.634C369.556 233.634 369.048 233.494 368.609 233.214C368.18 232.925 367.872 232.561 367.685 232.122L367.825 231.912V236.434H366.705ZM370.023 232.654C370.714 232.654 371.25 232.411 371.633 231.926C372.025 231.441 372.221 230.797 372.221 229.994C372.221 229.191 372.03 228.547 371.647 228.062C371.274 227.577 370.746 227.334 370.065 227.334C369.617 227.334 369.225 227.446 368.889 227.67C368.553 227.885 368.292 228.193 368.105 228.594C367.918 228.986 367.825 229.453 367.825 229.994C367.825 230.526 367.914 230.993 368.091 231.394C368.278 231.795 368.534 232.108 368.861 232.332C369.197 232.547 369.584 232.654 370.023 232.654ZM376.546 223.274V231.716C376.546 232.071 376.612 232.318 376.742 232.458C376.873 232.589 377.083 232.654 377.372 232.654C377.559 232.654 377.713 232.64 377.834 232.612C377.956 232.584 378.119 232.533 378.324 232.458L378.142 233.438C377.993 233.503 377.83 233.55 377.652 233.578C377.475 233.615 377.293 233.634 377.106 233.634C376.537 233.634 376.112 233.48 375.832 233.172C375.562 232.864 375.426 232.393 375.426 231.758V223.274H376.546ZM382.688 233.634C382.025 233.634 381.432 233.489 380.91 233.2C380.396 232.911 379.995 232.495 379.706 231.954C379.416 231.403 379.272 230.75 379.272 229.994C379.272 229.238 379.416 228.589 379.706 228.048C379.995 227.497 380.392 227.077 380.896 226.788C381.4 226.499 381.974 226.354 382.618 226.354C383.271 226.354 383.826 226.494 384.284 226.774C384.75 227.054 385.105 227.437 385.348 227.922C385.59 228.398 385.712 228.935 385.712 229.532C385.712 229.691 385.707 229.835 385.698 229.966C385.688 230.097 385.674 230.213 385.656 230.316H380V229.322H385.166L384.592 229.434C384.592 228.762 384.405 228.244 384.032 227.88C383.668 227.516 383.187 227.334 382.59 227.334C382.132 227.334 381.736 227.441 381.4 227.656C381.073 227.861 380.816 228.165 380.63 228.566C380.452 228.958 380.364 229.434 380.364 229.994C380.364 230.545 380.457 231.021 380.644 231.422C380.83 231.823 381.092 232.131 381.428 232.346C381.773 232.551 382.184 232.654 382.66 232.654C383.173 232.654 383.588 232.556 383.906 232.36C384.232 232.164 384.494 231.898 384.69 231.562L385.572 232.08C385.394 232.397 385.166 232.673 384.886 232.906C384.615 233.139 384.293 233.321 383.92 233.452C383.556 233.573 383.145 233.634 382.688 233.634ZM347.557 242.254C349.004 242.254 350.138 242.655 350.959 243.458C351.79 244.251 352.205 245.39 352.205 246.874C352.205 248.358 351.79 249.501 350.959 250.304C350.138 251.097 349.004 251.494 347.557 251.494H344.575V242.254H347.557ZM347.669 250.444C348.724 250.444 349.545 250.131 350.133 249.506C350.73 248.871 351.029 247.994 351.029 246.874C351.029 245.754 350.73 244.881 350.133 244.256C349.545 243.621 348.724 243.304 347.669 243.304H345.695V250.444H347.669ZM354.387 251.494V244.494H355.297L355.451 245.642C355.647 245.213 355.931 244.891 356.305 244.676C356.687 244.461 357.149 244.354 357.691 244.354C357.812 244.354 357.943 244.363 358.083 244.382C358.232 244.401 358.358 244.438 358.461 244.494L358.265 245.516C358.162 245.479 358.05 245.451 357.929 245.432C357.807 245.413 357.635 245.404 357.411 245.404C357.121 245.404 356.827 245.488 356.529 245.656C356.239 245.824 355.997 246.081 355.801 246.426C355.605 246.762 355.507 247.191 355.507 247.714V251.494H354.387ZM360.661 243.15C360.409 243.15 360.204 243.075 360.045 242.926C359.896 242.767 359.821 242.562 359.821 242.31C359.821 242.058 359.896 241.857 360.045 241.708C360.204 241.549 360.409 241.47 360.661 241.47C360.913 241.47 361.114 241.549 361.263 241.708C361.422 241.857 361.501 242.058 361.501 242.31C361.501 242.562 361.422 242.767 361.263 242.926C361.114 243.075 360.913 243.15 360.661 243.15ZM361.221 244.494V251.494H360.101V244.494H361.221ZM368.454 244.494H369.63L366.718 251.494H365.598L362.686 244.494H363.96L366.172 250.36L368.454 244.494ZM374.02 251.634C373.357 251.634 372.764 251.489 372.242 251.2C371.728 250.911 371.327 250.495 371.038 249.954C370.748 249.403 370.604 248.75 370.604 247.994C370.604 247.238 370.748 246.589 371.038 246.048C371.327 245.497 371.724 245.077 372.228 244.788C372.732 244.499 373.306 244.354 373.95 244.354C374.603 244.354 375.158 244.494 375.616 244.774C376.082 245.054 376.437 245.437 376.68 245.922C376.922 246.398 377.044 246.935 377.044 247.532C377.044 247.691 377.039 247.835 377.03 247.966C377.02 248.097 377.006 248.213 376.988 248.316H371.332V247.322H376.498L375.924 247.434C375.924 246.762 375.737 246.244 375.364 245.88C375 245.516 374.519 245.334 373.922 245.334C373.464 245.334 373.068 245.441 372.732 245.656C372.405 245.861 372.148 246.165 371.962 246.566C371.784 246.958 371.696 247.434 371.696 247.994C371.696 248.545 371.789 249.021 371.976 249.422C372.162 249.823 372.424 250.131 372.76 250.346C373.105 250.551 373.516 250.654 373.992 250.654C374.505 250.654 374.92 250.556 375.238 250.36C375.564 250.164 375.826 249.898 376.022 249.562L376.904 250.08C376.726 250.397 376.498 250.673 376.218 250.906C375.947 251.139 375.625 251.321 375.252 251.452C374.888 251.573 374.477 251.634 374.02 251.634ZM379.174 251.494V244.494H380.154L380.252 246.062L380.07 245.908C380.219 245.535 380.42 245.236 380.672 245.012C380.924 244.779 381.213 244.611 381.54 244.508C381.876 244.405 382.221 244.354 382.576 244.354C383.08 244.354 383.537 244.452 383.948 244.648C384.358 244.835 384.685 245.124 384.928 245.516C385.18 245.908 385.306 246.407 385.306 247.014V251.494H384.186V247.406C384.186 246.631 384.018 246.095 383.682 245.796C383.355 245.488 382.949 245.334 382.464 245.334C382.128 245.334 381.792 245.413 381.456 245.572C381.12 245.731 380.84 245.987 380.616 246.342C380.401 246.697 380.294 247.173 380.294 247.77V251.494H379.174Z" fill="#131316" fill-opacity="0.8"/>
<path d="M194.453 94.0938V84.8537H197.743C198.835 84.8537 199.633 85.0824 200.137 85.5397C200.641 85.9971 200.893 86.6177 200.893 87.4017C200.893 87.8684 200.757 88.2931 200.487 88.6757C200.216 89.0491 199.833 89.2871 199.339 89.3897V89.4037C199.889 89.5064 200.323 89.7584 200.641 90.1597C200.967 90.5517 201.131 90.9997 201.131 91.5037C201.131 92.2877 200.837 92.9177 200.249 93.3937C199.661 93.8604 198.821 94.0938 197.729 94.0938H194.453ZM195.573 93.0437H197.995C198.657 93.0437 199.147 92.9084 199.465 92.6377C199.791 92.3671 199.955 91.9891 199.955 91.5037C199.955 91.0091 199.791 90.6311 199.465 90.3697C199.147 90.0991 198.657 89.9637 197.995 89.9637H195.573V93.0437ZM195.573 88.9137H197.757C199.063 88.9137 199.717 88.4097 199.717 87.4017C199.717 86.4031 199.063 85.9037 197.757 85.9037H195.573V88.9137ZM203.949 85.7497C203.697 85.7497 203.492 85.6751 203.333 85.5257C203.184 85.3671 203.109 85.1617 203.109 84.9097C203.109 84.6577 203.184 84.4571 203.333 84.3077C203.492 84.1491 203.697 84.0697 203.949 84.0697C204.201 84.0697 204.402 84.1491 204.551 84.3077C204.71 84.4571 204.789 84.6577 204.789 84.9097C204.789 85.1617 204.71 85.3671 204.551 85.5257C204.402 85.6751 204.201 85.7497 203.949 85.7497ZM204.509 87.0938V94.0938H203.389V87.0938H204.509ZM213.002 85.8057L213.254 86.7997C213.245 86.7997 213.231 86.7997 213.212 86.7997C213.193 86.7997 213.175 86.7997 213.156 86.7997C212.699 86.7997 212.344 86.8931 212.092 87.0797C211.849 87.2571 211.728 87.5464 211.728 87.9477L211.042 87.5977C211.042 87.2337 211.126 86.9164 211.294 86.6457C211.462 86.3751 211.691 86.1697 211.98 86.0297C212.269 85.8804 212.587 85.8057 212.932 85.8057C212.941 85.8057 212.951 85.8057 212.96 85.8057C212.979 85.8057 212.993 85.8057 213.002 85.8057ZM210.874 93.1977C211.537 93.1977 212.055 93.3517 212.428 93.6597C212.801 93.9584 212.988 94.3598 212.988 94.8638C212.988 95.3211 212.834 95.7178 212.526 96.0538C212.227 96.3898 211.821 96.6464 211.308 96.8238C210.804 97.0104 210.235 97.1038 209.6 97.1038C208.499 97.1038 207.673 96.9171 207.122 96.5438C206.581 96.1704 206.31 95.7224 206.31 95.1998C206.31 94.8264 206.431 94.4904 206.674 94.1918C206.926 93.9024 207.346 93.7391 207.934 93.7017L207.836 93.9117C207.519 93.8277 207.248 93.6877 207.024 93.4917C206.809 93.2864 206.702 92.9924 206.702 92.6097C206.702 92.2271 206.842 91.9004 207.122 91.6297C207.411 91.3497 207.836 91.1771 208.396 91.1117L209.138 91.4897H208.998C208.541 91.5364 208.214 91.6531 208.018 91.8397C207.831 92.0171 207.738 92.2131 207.738 92.4277C207.738 92.6891 207.831 92.8851 208.018 93.0157C208.214 93.1371 208.485 93.1977 208.83 93.1977H210.874ZM209.586 96.1658C210.127 96.1658 210.571 96.1098 210.916 95.9978C211.271 95.8858 211.532 95.7411 211.7 95.5638C211.868 95.3864 211.952 95.1951 211.952 94.9898C211.952 94.7378 211.849 94.5371 211.644 94.3878C211.448 94.2384 211.089 94.1638 210.566 94.1638H208.41C208.111 94.1638 207.859 94.2384 207.654 94.3878C207.449 94.5464 207.346 94.7611 207.346 95.0318C207.346 95.3771 207.542 95.6524 207.934 95.8578C208.335 96.0631 208.886 96.1658 209.586 96.1658ZM209.488 86.9537C210.048 86.9537 210.543 87.0564 210.972 87.2617C211.411 87.4577 211.751 87.7331 211.994 88.0877C212.237 88.4424 212.358 88.8531 212.358 89.3197C212.358 89.7771 212.237 90.1877 211.994 90.5517C211.751 90.9064 211.411 91.1864 210.972 91.3917C210.543 91.5877 210.048 91.6857 209.488 91.6857C208.564 91.6857 207.855 91.4664 207.36 91.0277C206.865 90.5797 206.618 90.0104 206.618 89.3197C206.618 88.8531 206.739 88.4424 206.982 88.0877C207.234 87.7331 207.575 87.4577 208.004 87.2617C208.433 87.0564 208.928 86.9537 209.488 86.9537ZM209.488 87.8637C209.003 87.8637 208.597 87.9991 208.27 88.2697C207.943 88.5311 207.78 88.8811 207.78 89.3197C207.78 89.7491 207.943 90.0991 208.27 90.3697C208.597 90.6404 209.003 90.7757 209.488 90.7757C209.973 90.7757 210.379 90.6404 210.706 90.3697C211.033 90.0991 211.196 89.7491 211.196 89.3197C211.196 88.8811 211.033 88.5311 210.706 88.2697C210.379 87.9991 209.973 87.8637 209.488 87.8637ZM222.803 84.8537C223.428 84.8537 223.969 84.9704 224.427 85.2037C224.893 85.4277 225.257 85.7497 225.519 86.1697C225.78 86.5897 225.911 87.0891 225.911 87.6677C225.911 88.2464 225.78 88.7457 225.519 89.1657C225.257 89.5857 224.893 89.9124 224.427 90.1457C223.969 90.3697 223.428 90.4817 222.803 90.4817H220.661V94.0938H219.541V84.8537H222.803ZM222.635 89.4317C223.363 89.4317 223.895 89.2824 224.231 88.9837C224.567 88.6757 224.735 88.2371 224.735 87.6677C224.735 87.0891 224.567 86.6504 224.231 86.3517C223.895 86.0531 223.363 85.9037 222.635 85.9037H220.661V89.4317H222.635ZM228.436 85.7497C228.184 85.7497 227.978 85.6751 227.82 85.5257C227.67 85.3671 227.596 85.1617 227.596 84.9097C227.596 84.6577 227.67 84.4571 227.82 84.3077C227.978 84.1491 228.184 84.0697 228.436 84.0697C228.688 84.0697 228.888 84.1491 229.038 84.3077C229.196 84.4571 229.276 84.6577 229.276 84.9097C229.276 85.1617 229.196 85.3671 229.038 85.5257C228.888 85.6751 228.688 85.7497 228.436 85.7497ZM228.996 87.0938V94.0938H227.876V87.0938H228.996ZM234.492 86.9537C234.978 86.9537 235.402 87.0284 235.766 87.1777C236.14 87.3271 236.462 87.5417 236.732 87.8217C237.003 88.1017 237.222 88.4331 237.39 88.8157L236.326 89.3197C236.177 88.8717 235.948 88.5311 235.64 88.2977C235.342 88.0551 234.95 87.9337 234.464 87.9337C233.998 87.9337 233.596 88.0411 233.26 88.2557C232.924 88.4611 232.668 88.7644 232.49 89.1657C232.313 89.5577 232.224 90.0337 232.224 90.5938C232.224 91.1444 232.313 91.6204 232.49 92.0217C232.668 92.4231 232.924 92.7311 233.26 92.9457C233.596 93.1511 233.998 93.2537 234.464 93.2537C234.828 93.2537 235.141 93.1977 235.402 93.0857C235.673 92.9737 235.892 92.8104 236.06 92.5957C236.238 92.3811 236.359 92.1197 236.424 91.8117L237.46 92.1757C237.302 92.6051 237.082 92.9737 236.802 93.2817C236.532 93.5897 236.2 93.8277 235.808 93.9957C235.426 94.1544 234.987 94.2338 234.492 94.2338C233.839 94.2338 233.256 94.0891 232.742 93.7997C232.229 93.5104 231.828 93.0951 231.538 92.5537C231.249 92.0031 231.104 91.3497 231.104 90.5938C231.104 89.8377 231.249 89.1891 231.538 88.6477C231.828 88.0971 232.229 87.6771 232.742 87.3877C233.256 87.0984 233.839 86.9537 234.492 86.9537ZM241.08 85.1057V92.1617C241.08 92.5071 241.178 92.7637 241.374 92.9317C241.57 93.0997 241.822 93.1837 242.13 93.1837C242.401 93.1837 242.634 93.1371 242.83 93.0437C243.026 92.9504 243.204 92.8244 243.362 92.6657L243.754 93.6037C243.54 93.7997 243.283 93.9537 242.984 94.0657C242.695 94.1778 242.359 94.2338 241.976 94.2338C241.622 94.2338 241.29 94.1731 240.982 94.0517C240.674 93.9211 240.427 93.7204 240.24 93.4497C240.063 93.1697 239.97 92.8057 239.96 92.3577V85.4137L241.08 85.1057ZM243.628 87.0938V88.0597H238.56V87.0938H243.628ZM247.828 94.2338C247.38 94.2338 246.955 94.1498 246.554 93.9817C246.162 93.8137 245.84 93.5431 245.588 93.1698C245.345 92.7871 245.224 92.2924 245.224 91.6857V87.0938H246.344V91.3917C246.344 92.1011 246.498 92.5911 246.806 92.8617C247.114 93.1231 247.548 93.2537 248.108 93.2537C248.369 93.2537 248.626 93.2117 248.878 93.1277C249.13 93.0344 249.354 92.8944 249.55 92.7077C249.755 92.5117 249.914 92.2644 250.026 91.9657C250.147 91.6671 250.208 91.3124 250.208 90.9017V87.0938H251.328V94.0938H250.348L250.278 93.0297C250.035 93.4497 249.704 93.7577 249.284 93.9537C248.873 94.1404 248.388 94.2338 247.828 94.2338ZM253.934 94.0938V87.0938H254.844L254.998 88.2417C255.194 87.8124 255.479 87.4904 255.852 87.2757C256.235 87.0611 256.697 86.9537 257.238 86.9537C257.359 86.9537 257.49 86.9631 257.63 86.9817C257.779 87.0004 257.905 87.0377 258.008 87.0938L257.812 88.1157C257.709 88.0784 257.597 88.0504 257.476 88.0317C257.355 88.0131 257.182 88.0037 256.958 88.0037C256.669 88.0037 256.375 88.0877 256.076 88.2557C255.787 88.4237 255.544 88.6804 255.348 89.0257C255.152 89.3617 255.054 89.7911 255.054 90.3137V94.0938H253.934ZM262.356 94.2338C261.694 94.2338 261.101 94.0891 260.578 93.7997C260.065 93.5104 259.664 93.0951 259.374 92.5537C259.085 92.0031 258.94 91.3497 258.94 90.5938C258.94 89.8377 259.085 89.1891 259.374 88.6477C259.664 88.0971 260.06 87.6771 260.564 87.3877C261.068 87.0984 261.642 86.9537 262.286 86.9537C262.94 86.9537 263.495 87.0937 263.952 87.3737C264.419 87.6537 264.774 88.0364 265.016 88.5217C265.259 88.9977 265.38 89.5344 265.38 90.1317C265.38 90.2904 265.376 90.4351 265.366 90.5657C265.357 90.6964 265.343 90.8131 265.324 90.9157H259.668V89.9217H264.834L264.26 90.0337C264.26 89.3617 264.074 88.8437 263.7 88.4797C263.336 88.1157 262.856 87.9337 262.258 87.9337C261.801 87.9337 261.404 88.0411 261.068 88.2557C260.742 88.4611 260.485 88.7644 260.298 89.1657C260.121 89.5577 260.032 90.0337 260.032 90.5938C260.032 91.1444 260.126 91.6204 260.312 92.0217C260.499 92.4231 260.76 92.7311 261.096 92.9457C261.442 93.1511 261.852 93.2537 262.328 93.2537C262.842 93.2537 263.257 93.1557 263.574 92.9597C263.901 92.7637 264.162 92.4977 264.358 92.1617L265.24 92.6797C265.063 92.9971 264.834 93.2724 264.554 93.5057C264.284 93.7391 263.962 93.9211 263.588 94.0517C263.224 94.1731 262.814 94.2338 262.356 94.2338ZM205.204 102.714C206.081 102.714 206.837 102.91 207.472 103.302C208.116 103.684 208.611 104.23 208.956 104.94C209.311 105.649 209.488 106.494 209.488 107.474C209.488 108.454 209.311 109.298 208.956 110.008C208.611 110.717 208.116 111.268 207.472 111.66C206.837 112.042 206.081 112.234 205.204 112.234C204.327 112.234 203.566 112.042 202.922 111.66C202.287 111.268 201.793 110.717 201.438 110.008C201.093 109.298 200.92 108.454 200.92 107.474C200.92 106.494 201.093 105.649 201.438 104.94C201.793 104.23 202.287 103.684 202.922 103.302C203.566 102.91 204.327 102.714 205.204 102.714ZM205.204 103.764C204.569 103.764 204.019 103.913 203.552 104.212C203.085 104.501 202.726 104.926 202.474 105.486C202.222 106.036 202.096 106.699 202.096 107.474C202.096 108.248 202.222 108.916 202.474 109.476C202.726 110.026 203.085 110.451 203.552 110.75C204.019 111.039 204.569 111.184 205.204 111.184C205.848 111.184 206.399 111.039 206.856 110.75C207.323 110.451 207.682 110.026 207.934 109.476C208.186 108.916 208.312 108.248 208.312 107.474C208.312 106.699 208.186 106.036 207.934 105.486C207.682 104.926 207.323 104.501 206.856 104.212C206.399 103.913 205.848 103.764 205.204 103.764ZM211.674 112.094V105.094H212.584L212.738 106.242C212.934 105.812 213.219 105.49 213.592 105.276C213.975 105.061 214.437 104.954 214.978 104.954C215.1 104.954 215.23 104.963 215.37 104.982C215.52 105 215.646 105.038 215.748 105.094L215.552 106.116C215.45 106.078 215.338 106.05 215.216 106.032C215.095 106.013 214.922 106.004 214.698 106.004C214.409 106.004 214.115 106.088 213.816 106.256C213.527 106.424 213.284 106.68 213.088 107.026C212.892 107.362 212.794 107.791 212.794 108.314V112.094H211.674ZM217.949 103.75C217.697 103.75 217.492 103.675 217.333 103.526C217.184 103.367 217.109 103.162 217.109 102.91C217.109 102.658 217.184 102.457 217.333 102.308C217.492 102.149 217.697 102.07 217.949 102.07C218.201 102.07 218.402 102.149 218.551 102.308C218.71 102.457 218.789 102.658 218.789 102.91C218.789 103.162 218.71 103.367 218.551 103.526C218.402 103.675 218.201 103.75 217.949 103.75ZM218.509 105.094V112.094H217.389V105.094H218.509ZM224.034 112.234C223.371 112.234 222.779 112.089 222.256 111.8C221.743 111.51 221.341 111.095 221.052 110.554C220.763 110.003 220.618 109.35 220.618 108.594C220.618 107.838 220.763 107.189 221.052 106.648C221.341 106.097 221.738 105.677 222.242 105.388C222.746 105.098 223.32 104.954 223.964 104.954C224.617 104.954 225.173 105.094 225.63 105.374C226.097 105.654 226.451 106.036 226.694 106.522C226.937 106.998 227.058 107.534 227.058 108.132C227.058 108.29 227.053 108.435 227.044 108.566C227.035 108.696 227.021 108.813 227.002 108.916H221.346V107.922H226.512L225.938 108.034C225.938 107.362 225.751 106.844 225.378 106.48C225.014 106.116 224.533 105.934 223.936 105.934C223.479 105.934 223.082 106.041 222.746 106.256C222.419 106.461 222.163 106.764 221.976 107.166C221.799 107.558 221.71 108.034 221.71 108.594C221.71 109.144 221.803 109.62 221.99 110.022C222.177 110.423 222.438 110.731 222.774 110.946C223.119 111.151 223.53 111.254 224.006 111.254C224.519 111.254 224.935 111.156 225.252 110.96C225.579 110.764 225.84 110.498 226.036 110.162L226.918 110.68C226.741 110.997 226.512 111.272 226.232 111.506C225.961 111.739 225.639 111.921 225.266 112.052C224.902 112.173 224.491 112.234 224.034 112.234ZM229.188 112.094V105.094H230.168L230.266 106.662L230.084 106.508C230.233 106.134 230.434 105.836 230.686 105.612C230.938 105.378 231.227 105.21 231.554 105.108C231.89 105.005 232.235 104.954 232.59 104.954C233.094 104.954 233.551 105.052 233.962 105.248C234.373 105.434 234.699 105.724 234.942 106.116C235.194 106.508 235.32 107.007 235.32 107.614V112.094H234.2V108.006C234.2 107.231 234.032 106.694 233.696 106.396C233.369 106.088 232.963 105.934 232.478 105.934C232.142 105.934 231.806 106.013 231.47 106.172C231.134 106.33 230.854 106.587 230.63 106.942C230.415 107.296 230.308 107.772 230.308 108.37V112.094H229.188ZM239.412 103.106V110.162C239.412 110.507 239.51 110.764 239.706 110.932C239.902 111.1 240.154 111.184 240.462 111.184C240.733 111.184 240.966 111.137 241.162 111.044C241.358 110.95 241.536 110.824 241.694 110.666L242.086 111.604C241.872 111.8 241.615 111.954 241.316 112.066C241.027 112.178 240.691 112.234 240.308 112.234C239.954 112.234 239.622 112.173 239.314 112.052C239.006 111.921 238.759 111.72 238.572 111.45C238.395 111.17 238.302 110.806 238.292 110.358V103.414L239.412 103.106ZM241.96 105.094V106.06H236.892V105.094H241.96ZM246.552 112.234C245.889 112.234 245.296 112.089 244.774 111.8C244.26 111.51 243.859 111.095 243.57 110.554C243.28 110.003 243.136 109.35 243.136 108.594C243.136 107.838 243.28 107.189 243.57 106.648C243.859 106.097 244.256 105.677 244.76 105.388C245.264 105.098 245.838 104.954 246.482 104.954C247.135 104.954 247.69 105.094 248.148 105.374C248.614 105.654 248.969 106.036 249.212 106.522C249.454 106.998 249.576 107.534 249.576 108.132C249.576 108.29 249.571 108.435 249.562 108.566C249.552 108.696 249.538 108.813 249.52 108.916H243.864V107.922H249.03L248.456 108.034C248.456 107.362 248.269 106.844 247.896 106.48C247.532 106.116 247.051 105.934 246.454 105.934C245.996 105.934 245.6 106.041 245.264 106.256C244.937 106.461 244.68 106.764 244.494 107.166C244.316 107.558 244.228 108.034 244.228 108.594C244.228 109.144 244.321 109.62 244.508 110.022C244.694 110.423 244.956 110.731 245.292 110.946C245.637 111.151 246.048 111.254 246.524 111.254C247.037 111.254 247.452 111.156 247.77 110.96C248.096 110.764 248.358 110.498 248.554 110.162L249.436 110.68C249.258 110.997 249.03 111.272 248.75 111.506C248.479 111.739 248.157 111.921 247.784 112.052C247.42 112.173 247.009 112.234 246.552 112.234ZM254.436 112.234C253.857 112.234 253.325 112.089 252.84 111.8C252.354 111.51 251.967 111.095 251.678 110.554C251.388 110.003 251.244 109.35 251.244 108.594C251.244 107.819 251.398 107.161 251.706 106.62C252.014 106.078 252.42 105.668 252.924 105.388C253.428 105.098 253.969 104.954 254.548 104.954C255.126 104.954 255.626 105.103 256.046 105.402C256.475 105.7 256.76 106.097 256.9 106.592L256.76 106.69V101.874H257.88V112.094H256.9L256.802 110.4L256.956 110.316C256.89 110.726 256.732 111.076 256.48 111.366C256.237 111.646 255.934 111.86 255.57 112.01C255.215 112.159 254.837 112.234 254.436 112.234ZM254.548 111.254C254.996 111.254 255.383 111.142 255.71 110.918C256.046 110.694 256.302 110.376 256.48 109.966C256.666 109.546 256.76 109.056 256.76 108.496C256.76 107.964 256.666 107.506 256.48 107.124C256.302 106.741 256.05 106.447 255.724 106.242C255.406 106.036 255.033 105.934 254.604 105.934C253.894 105.934 253.344 106.176 252.952 106.662C252.56 107.147 252.364 107.791 252.364 108.594C252.364 109.396 252.555 110.04 252.938 110.526C253.32 111.011 253.857 111.254 254.548 111.254Z" fill="#131316" fill-opacity="0.8"/>
<path d="M212.05 361.295C213.497 361.295 214.631 361.696 215.452 362.499C216.283 363.292 216.698 364.431 216.698 365.915C216.698 367.399 216.283 368.542 215.452 369.345C214.631 370.138 213.497 370.535 212.05 370.535H209.068V361.295H212.05ZM212.162 369.485C213.217 369.485 214.038 369.172 214.626 368.547C215.223 367.912 215.522 367.035 215.522 365.915C215.522 364.795 215.223 363.922 214.626 363.297C214.038 362.662 213.217 362.345 212.162 362.345H210.188V369.485H212.162ZM221.874 370.675C221.211 370.675 220.618 370.53 220.096 370.241C219.582 369.952 219.181 369.536 218.892 368.995C218.602 368.444 218.458 367.791 218.458 367.035C218.458 366.279 218.602 365.63 218.892 365.089C219.181 364.538 219.578 364.118 220.082 363.829C220.586 363.54 221.16 363.395 221.804 363.395C222.457 363.395 223.012 363.535 223.47 363.815C223.936 364.095 224.291 364.478 224.534 364.963C224.776 365.439 224.898 365.976 224.898 366.573C224.898 366.732 224.893 366.876 224.884 367.007C224.874 367.138 224.86 367.254 224.842 367.357H219.186V366.363H224.352L223.778 366.475C223.778 365.803 223.591 365.285 223.218 364.921C222.854 364.557 222.373 364.375 221.776 364.375C221.318 364.375 220.922 364.482 220.586 364.697C220.259 364.902 220.002 365.206 219.816 365.607C219.638 365.999 219.55 366.475 219.55 367.035C219.55 367.586 219.643 368.062 219.83 368.463C220.016 368.864 220.278 369.172 220.614 369.387C220.959 369.592 221.37 369.695 221.846 369.695C222.359 369.695 222.774 369.597 223.092 369.401C223.418 369.205 223.68 368.939 223.876 368.603L224.758 369.121C224.58 369.438 224.352 369.714 224.072 369.947C223.801 370.18 223.479 370.362 223.106 370.493C222.742 370.614 222.331 370.675 221.874 370.675ZM228.475 361.547V368.603C228.475 368.948 228.573 369.205 228.769 369.373C228.965 369.541 229.217 369.625 229.525 369.625C229.795 369.625 230.029 369.578 230.225 369.485C230.421 369.392 230.598 369.266 230.757 369.107L231.149 370.045C230.934 370.241 230.677 370.395 230.379 370.507C230.089 370.619 229.753 370.675 229.371 370.675C229.016 370.675 228.685 370.614 228.377 370.493C228.069 370.362 227.821 370.162 227.635 369.891C227.457 369.611 227.364 369.247 227.355 368.799V361.855L228.475 361.547ZM231.023 363.535V364.501H225.955V363.535H231.023ZM236.776 366.013C236.776 365.49 236.636 365.089 236.356 364.809C236.076 364.52 235.679 364.375 235.166 364.375C234.681 364.375 234.27 364.482 233.934 364.697C233.598 364.902 233.351 365.238 233.192 365.705L232.282 365.145C232.469 364.622 232.814 364.202 233.318 363.885C233.822 363.558 234.447 363.395 235.194 363.395C235.698 363.395 236.155 363.484 236.566 363.661C236.977 363.829 237.299 364.09 237.532 364.445C237.775 364.79 237.896 365.238 237.896 365.789V369.177C237.896 369.513 238.073 369.681 238.428 369.681C238.605 369.681 238.778 369.658 238.946 369.611L238.89 370.493C238.703 370.586 238.461 370.633 238.162 370.633C237.891 370.633 237.649 370.582 237.434 370.479C237.219 370.376 237.051 370.222 236.93 370.017C236.809 369.802 236.748 369.536 236.748 369.219V369.079L237.028 369.121C236.916 369.485 236.725 369.784 236.454 370.017C236.183 370.241 235.88 370.409 235.544 370.521C235.208 370.624 234.877 370.675 234.55 370.675C234.139 370.675 233.757 370.605 233.402 370.465C233.047 370.325 232.763 370.115 232.548 369.835C232.343 369.546 232.24 369.191 232.24 368.771C232.24 368.248 232.413 367.819 232.758 367.483C233.113 367.138 233.603 366.904 234.228 366.783L237 366.237V367.161L234.746 367.623C234.289 367.716 233.948 367.847 233.724 368.015C233.5 368.183 233.388 368.416 233.388 368.715C233.388 369.004 233.5 369.242 233.724 369.429C233.957 369.606 234.284 369.695 234.704 369.695C234.975 369.695 235.231 369.662 235.474 369.597C235.726 369.522 235.95 369.415 236.146 369.275C236.342 369.126 236.496 368.944 236.608 368.729C236.72 368.505 236.776 368.244 236.776 367.945V366.013ZM241.178 362.191C240.926 362.191 240.72 362.116 240.562 361.967C240.412 361.808 240.338 361.603 240.338 361.351C240.338 361.099 240.412 360.898 240.562 360.749C240.72 360.59 240.926 360.511 241.178 360.511C241.43 360.511 241.63 360.59 241.78 360.749C241.938 360.898 242.018 361.099 242.018 361.351C242.018 361.603 241.938 361.808 241.78 361.967C241.63 362.116 241.43 362.191 241.178 362.191ZM241.738 363.535V370.535H240.618V363.535H241.738ZM245.4 360.315V368.757C245.4 369.112 245.466 369.359 245.596 369.499C245.727 369.63 245.937 369.695 246.226 369.695C246.413 369.695 246.567 369.681 246.688 369.653C246.81 369.625 246.973 369.574 247.178 369.499L246.996 370.479C246.847 370.544 246.684 370.591 246.506 370.619C246.329 370.656 246.147 370.675 245.96 370.675C245.391 370.675 244.966 370.521 244.686 370.213C244.416 369.905 244.28 369.434 244.28 368.799V360.315H245.4ZM205.204 379.155C206.081 379.155 206.837 379.351 207.472 379.743C208.116 380.126 208.611 380.672 208.956 381.381C209.311 382.09 209.488 382.935 209.488 383.915C209.488 384.895 209.311 385.74 208.956 386.449C208.611 387.158 208.116 387.709 207.472 388.101C206.837 388.484 206.081 388.675 205.204 388.675C204.327 388.675 203.566 388.484 202.922 388.101C202.287 387.709 201.793 387.158 201.438 386.449C201.093 385.74 200.92 384.895 200.92 383.915C200.92 382.935 201.093 382.09 201.438 381.381C201.793 380.672 202.287 380.126 202.922 379.743C203.566 379.351 204.327 379.155 205.204 379.155ZM205.204 380.205C204.569 380.205 204.019 380.354 203.552 380.653C203.085 380.942 202.726 381.367 202.474 381.927C202.222 382.478 202.096 383.14 202.096 383.915C202.096 384.69 202.222 385.357 202.474 385.917C202.726 386.468 203.085 386.892 203.552 387.191C204.019 387.48 204.569 387.625 205.204 387.625C205.848 387.625 206.399 387.48 206.856 387.191C207.323 386.892 207.682 386.468 207.934 385.917C208.186 385.357 208.312 384.69 208.312 383.915C208.312 383.14 208.186 382.478 207.934 381.927C207.682 381.367 207.323 380.942 206.856 380.653C206.399 380.354 205.848 380.205 205.204 380.205ZM211.674 388.535V381.535H212.584L212.738 382.683C212.934 382.254 213.219 381.932 213.592 381.717C213.975 381.502 214.437 381.395 214.978 381.395C215.1 381.395 215.23 381.404 215.37 381.423C215.52 381.442 215.646 381.479 215.748 381.535L215.552 382.557C215.45 382.52 215.338 382.492 215.216 382.473C215.095 382.454 214.922 382.445 214.698 382.445C214.409 382.445 214.115 382.529 213.816 382.697C213.527 382.865 213.284 383.122 213.088 383.467C212.892 383.803 212.794 384.232 212.794 384.755V388.535H211.674ZM217.949 380.191C217.697 380.191 217.492 380.116 217.333 379.967C217.184 379.808 217.109 379.603 217.109 379.351C217.109 379.099 217.184 378.898 217.333 378.749C217.492 378.59 217.697 378.511 217.949 378.511C218.201 378.511 218.402 378.59 218.551 378.749C218.71 378.898 218.789 379.099 218.789 379.351C218.789 379.603 218.71 379.808 218.551 379.967C218.402 380.116 218.201 380.191 217.949 380.191ZM218.509 381.535V388.535H217.389V381.535H218.509ZM224.034 388.675C223.371 388.675 222.779 388.53 222.256 388.241C221.743 387.952 221.341 387.536 221.052 386.995C220.763 386.444 220.618 385.791 220.618 385.035C220.618 384.279 220.763 383.63 221.052 383.089C221.341 382.538 221.738 382.118 222.242 381.829C222.746 381.54 223.32 381.395 223.964 381.395C224.617 381.395 225.173 381.535 225.63 381.815C226.097 382.095 226.451 382.478 226.694 382.963C226.937 383.439 227.058 383.976 227.058 384.573C227.058 384.732 227.053 384.876 227.044 385.007C227.035 385.138 227.021 385.254 227.002 385.357H221.346V384.363H226.512L225.938 384.475C225.938 383.803 225.751 383.285 225.378 382.921C225.014 382.557 224.533 382.375 223.936 382.375C223.479 382.375 223.082 382.482 222.746 382.697C222.419 382.902 222.163 383.206 221.976 383.607C221.799 383.999 221.71 384.475 221.71 385.035C221.71 385.586 221.803 386.062 221.99 386.463C222.177 386.864 222.438 387.172 222.774 387.387C223.119 387.592 223.53 387.695 224.006 387.695C224.519 387.695 224.935 387.597 225.252 387.401C225.579 387.205 225.84 386.939 226.036 386.603L226.918 387.121C226.741 387.438 226.512 387.714 226.232 387.947C225.961 388.18 225.639 388.362 225.266 388.493C224.902 388.614 224.491 388.675 224.034 388.675ZM229.188 388.535V381.535H230.168L230.266 383.103L230.084 382.949C230.233 382.576 230.434 382.277 230.686 382.053C230.938 381.82 231.227 381.652 231.554 381.549C231.89 381.446 232.235 381.395 232.59 381.395C233.094 381.395 233.551 381.493 233.962 381.689C234.373 381.876 234.699 382.165 234.942 382.557C235.194 382.949 235.32 383.448 235.32 384.055V388.535H234.2V384.447C234.2 383.672 234.032 383.136 233.696 382.837C233.369 382.529 232.963 382.375 232.478 382.375C232.142 382.375 231.806 382.454 231.47 382.613C231.134 382.772 230.854 383.028 230.63 383.383C230.415 383.738 230.308 384.214 230.308 384.811V388.535H229.188ZM239.412 379.547V386.603C239.412 386.948 239.51 387.205 239.706 387.373C239.902 387.541 240.154 387.625 240.462 387.625C240.733 387.625 240.966 387.578 241.162 387.485C241.358 387.392 241.536 387.266 241.694 387.107L242.086 388.045C241.872 388.241 241.615 388.395 241.316 388.507C241.027 388.619 240.691 388.675 240.308 388.675C239.954 388.675 239.622 388.614 239.314 388.493C239.006 388.362 238.759 388.162 238.572 387.891C238.395 387.611 238.302 387.247 238.292 386.799V379.855L239.412 379.547ZM241.96 381.535V382.501H236.892V381.535H241.96ZM246.552 388.675C245.889 388.675 245.296 388.53 244.774 388.241C244.26 387.952 243.859 387.536 243.57 386.995C243.28 386.444 243.136 385.791 243.136 385.035C243.136 384.279 243.28 383.63 243.57 383.089C243.859 382.538 244.256 382.118 244.76 381.829C245.264 381.54 245.838 381.395 246.482 381.395C247.135 381.395 247.69 381.535 248.148 381.815C248.614 382.095 248.969 382.478 249.212 382.963C249.454 383.439 249.576 383.976 249.576 384.573C249.576 384.732 249.571 384.876 249.562 385.007C249.552 385.138 249.538 385.254 249.52 385.357H243.864V384.363H249.03L248.456 384.475C248.456 383.803 248.269 383.285 247.896 382.921C247.532 382.557 247.051 382.375 246.454 382.375C245.996 382.375 245.6 382.482 245.264 382.697C244.937 382.902 244.68 383.206 244.494 383.607C244.316 383.999 244.228 384.475 244.228 385.035C244.228 385.586 244.321 386.062 244.508 386.463C244.694 386.864 244.956 387.172 245.292 387.387C245.637 387.592 246.048 387.695 246.524 387.695C247.037 387.695 247.452 387.597 247.77 387.401C248.096 387.205 248.358 386.939 248.554 386.603L249.436 387.121C249.258 387.438 249.03 387.714 248.75 387.947C248.479 388.18 248.157 388.362 247.784 388.493C247.42 388.614 247.009 388.675 246.552 388.675ZM254.436 388.675C253.857 388.675 253.325 388.53 252.84 388.241C252.354 387.952 251.967 387.536 251.678 386.995C251.388 386.444 251.244 385.791 251.244 385.035C251.244 384.26 251.398 383.602 251.706 383.061C252.014 382.52 252.42 382.109 252.924 381.829C253.428 381.54 253.969 381.395 254.548 381.395C255.126 381.395 255.626 381.544 256.046 381.843C256.475 382.142 256.76 382.538 256.9 383.033L256.76 383.131V378.315H257.88V388.535H256.9L256.802 386.841L256.956 386.757C256.89 387.168 256.732 387.518 256.48 387.807C256.237 388.087 255.934 388.302 255.57 388.451C255.215 388.6 254.837 388.675 254.436 388.675ZM254.548 387.695C254.996 387.695 255.383 387.583 255.71 387.359C256.046 387.135 256.302 386.818 256.48 386.407C256.666 385.987 256.76 385.497 256.76 384.937C256.76 384.405 256.666 383.948 256.48 383.565C256.302 383.182 256.05 382.888 255.724 382.683C255.406 382.478 255.033 382.375 254.604 382.375C253.894 382.375 253.344 382.618 252.952 383.103C252.56 383.588 252.364 384.232 252.364 385.035C252.364 385.838 252.555 386.482 252.938 386.967C253.32 387.452 253.857 387.695 254.548 387.695Z" fill="#131316" fill-opacity="0.8"/>
<path d="M39.0545 46.7688C39.8162 46.7688 40.4705 46.9029 41.0176 47.1711C41.5754 47.4393 42.0099 47.8201 42.3209 48.3135C42.632 48.807 42.7876 49.4023 42.7876 50.0996C42.7876 50.7861 42.632 51.3815 42.3209 51.8857C42.0099 52.3791 41.5754 52.7599 41.0176 53.0281C40.4705 53.2963 39.8162 53.4304 39.0545 53.4304H36.6892V57.3887H34.9675V46.7688H39.0545ZM38.781 51.95C39.5426 51.95 40.1004 51.7945 40.4544 51.4834C40.8192 51.1616 41.0015 50.7003 41.0015 50.0996C41.0015 49.4882 40.8192 49.0269 40.4544 48.7158C40.1004 48.394 39.5426 48.2331 38.781 48.2331H36.6892V51.95H38.781ZM49.2231 46.6079C50.2529 46.6079 51.1432 46.8278 51.8941 47.2676C52.645 47.7075 53.2243 48.335 53.6319 49.1502C54.0396 49.9655 54.2434 50.9417 54.2434 52.0788C54.2434 53.2158 54.0396 54.192 53.6319 55.0073C53.2243 55.8225 52.645 56.45 51.8941 56.8899C51.1432 57.3297 50.2529 57.5496 49.2231 57.5496C48.204 57.5496 47.319 57.3297 46.5681 56.8899C45.8172 56.45 45.238 55.8225 44.8303 55.0073C44.4227 54.192 44.2189 53.2158 44.2189 52.0788C44.2189 50.9417 44.4227 49.9655 44.8303 49.1502C45.238 48.335 45.8172 47.7075 46.5681 47.2676C47.319 46.8278 48.204 46.6079 49.2231 46.6079ZM49.2231 48.1044C48.558 48.1044 47.9841 48.2599 47.5014 48.571C47.0294 48.8821 46.6647 49.3326 46.4072 49.9226C46.1498 50.5126 46.021 51.2313 46.021 52.0788C46.021 52.9155 46.1498 53.6342 46.4072 54.2349C46.6647 54.8249 47.0294 55.2754 47.5014 55.5865C47.9841 55.8976 48.558 56.0531 49.2231 56.0531C49.8989 56.0531 50.4728 55.8976 50.9448 55.5865C51.4275 55.2754 51.7976 54.8249 52.055 54.2349C52.3125 53.6342 52.4412 52.9155 52.4412 52.0788C52.4412 51.2313 52.3125 50.5126 52.055 49.9226C51.7976 49.3326 51.4275 48.8821 50.9448 48.571C50.4728 48.2599 49.8989 48.1044 49.2231 48.1044ZM58.4004 57.3887L55.2788 46.7688H57.0971L59.4785 55.8922L61.7956 46.7688H63.5655L65.8987 55.9083L68.264 46.7688H70.0179L66.9124 57.3887H64.885L63.1954 51.0168L62.6645 48.571H62.6484L62.1174 51.0168L60.4439 57.3887H58.4004ZM71.7988 57.3887V46.7688H79.4901V48.2492H73.5205V51.3064H78.1868V52.7546H73.5205V55.9083H79.7154V57.3887H71.7988ZM86.1153 46.7688C87.2524 46.7688 88.1535 47.0531 88.8186 47.6216C89.4944 48.1902 89.8323 48.9572 89.8323 49.9226C89.8323 50.9202 89.4944 51.6926 88.8186 52.2397C88.1535 52.776 87.2524 53.0442 86.1153 53.0442L85.9544 53.1407H83.4926V57.3887H81.787V46.7688H86.1153ZM85.9866 51.7087C86.6839 51.7087 87.1988 51.5692 87.5313 51.2903C87.8746 51.0007 88.0462 50.5609 88.0462 49.9709C88.0462 49.3916 87.8746 48.9572 87.5313 48.6675C87.1988 48.3779 86.6839 48.2331 85.9866 48.2331H83.4926V51.7087H85.9866ZM87.0003 52.0627L90.4598 57.3887H88.4807L85.52 52.7385L87.0003 52.0627ZM100.032 48.2492H94.0782V51.3386H98.7445V52.8189H94.0782V57.3887H92.3565V46.7688H100.032V48.2492ZM110.416 46.7688V53.3177C110.416 54.723 110.045 55.7796 109.305 56.4876C108.565 57.1956 107.487 57.5496 106.071 57.5496C104.677 57.5496 103.604 57.1956 102.853 56.4876C102.113 55.7796 101.743 54.723 101.743 53.3177V46.7688H103.464V53.1086C103.464 54.1062 103.679 54.8463 104.108 55.3291C104.537 55.8118 105.191 56.0531 106.071 56.0531C106.961 56.0531 107.621 55.8118 108.05 55.3291C108.479 54.8463 108.694 54.1062 108.694 53.1086V46.7688H110.416ZM114.84 55.9083H120.697V57.3887H113.119V46.7688H114.84V55.9083Z" fill="#131316"/>
<path d="M39.0545 417.99C39.8162 417.99 40.4705 418.124 41.0176 418.392C41.5754 418.66 42.0099 419.041 42.3209 419.534C42.632 420.028 42.7876 420.623 42.7876 421.32C42.7876 422.007 42.632 422.602 42.3209 423.106C42.0099 423.6 41.5754 423.981 41.0176 424.249C40.4705 424.517 39.8162 424.651 39.0545 424.651H36.6892V428.609H34.9675V417.99H39.0545ZM38.781 423.171C39.5426 423.171 40.1004 423.015 40.4544 422.704C40.8192 422.382 41.0015 421.921 41.0015 421.32C41.0015 420.709 40.8192 420.248 40.4544 419.937C40.1004 419.615 39.5426 419.454 38.781 419.454H36.6892V423.171H38.781ZM49.1426 417.99C50.2797 417.99 51.1808 418.274 51.8459 418.842C52.5217 419.411 52.8596 420.178 52.8596 421.143C52.8596 422.141 52.5217 422.913 51.8459 423.46C51.1808 423.997 50.2797 424.265 49.1426 424.265L48.9817 424.361H46.5199V428.609H44.8142V417.99H49.1426ZM49.0139 422.929C49.7112 422.929 50.2261 422.79 50.5586 422.511C50.9019 422.221 51.0735 421.782 51.0735 421.192C51.0735 420.612 50.9019 420.178 50.5586 419.888C50.2261 419.599 49.7112 419.454 49.0139 419.454H46.5199V422.929H49.0139ZM50.0276 423.283L53.4871 428.609H51.508L48.5473 423.959L50.0276 423.283ZM55.3838 428.609V417.99H63.0751V419.47H57.1055V422.527H61.7718V423.975H57.1055V427.129H63.3004V428.609H55.3838ZM73.985 425.794C73.7704 426.437 73.4486 426.984 73.0196 427.435C72.5905 427.875 72.0863 428.207 71.507 428.432C70.9278 428.658 70.2895 428.77 69.5922 428.77C68.5732 428.77 67.6882 428.55 66.9373 428.111C66.1864 427.671 65.6071 427.043 65.1995 426.228C64.7919 425.413 64.588 424.437 64.588 423.299C64.588 422.162 64.7919 421.186 65.1995 420.371C65.6071 419.556 66.1864 418.928 66.9373 418.488C67.6882 418.049 68.5678 417.829 69.5761 417.829C70.2734 417.829 70.9009 417.925 71.4588 418.118C72.0273 418.311 72.51 418.601 72.9069 418.987C73.3038 419.373 73.6095 419.856 73.8241 420.435L72.1989 421.159C71.9844 420.526 71.6733 420.065 71.2657 419.776C70.858 419.475 70.327 419.325 69.6727 419.325C69.0183 419.325 68.4444 419.481 67.951 419.792C67.4575 420.103 67.0714 420.553 66.7925 421.143C66.5243 421.733 66.3902 422.452 66.3902 423.299C66.3902 424.136 66.5189 424.855 66.7764 425.456C67.0338 426.046 67.4039 426.496 67.8866 426.807C68.3693 427.118 68.9486 427.274 69.6244 427.274C70.2788 427.274 70.8419 427.108 71.3139 426.775C71.7967 426.432 72.1399 425.922 72.3437 425.246L73.985 425.794ZM77.6632 417.99V428.609H75.9415V417.99H77.6632ZM84.1918 417.829C85.1465 417.829 85.9725 418.011 86.6697 418.376C87.367 418.73 87.957 419.255 88.4397 419.953L87.2812 421.063C86.8735 420.441 86.4123 419.996 85.8974 419.727C85.3932 419.448 84.7925 419.309 84.0952 419.309C83.5803 419.309 83.1566 419.379 82.824 419.518C82.4915 419.658 82.2448 419.845 82.0839 420.081C81.9337 420.307 81.8586 420.564 81.8586 420.854C81.8586 421.186 81.9712 421.476 82.1965 421.723C82.4325 421.969 82.867 422.162 83.4999 422.302L85.656 422.785C86.6858 423.01 87.4153 423.353 87.8443 423.814C88.2734 424.276 88.488 424.86 88.488 425.568C88.488 426.223 88.311 426.791 87.957 427.274C87.603 427.757 87.1095 428.127 86.4766 428.384C85.8545 428.642 85.1196 428.77 84.2722 428.77C83.5213 428.77 82.8455 428.674 82.2448 428.481C81.6441 428.288 81.1184 428.025 80.6679 427.692C80.2174 427.36 79.8473 426.979 79.5576 426.55L80.7484 425.359C80.9736 425.735 81.2579 426.072 81.6012 426.373C81.9444 426.662 82.3413 426.888 82.7919 427.049C83.2531 427.209 83.7627 427.29 84.3205 427.29C84.8139 427.29 85.2376 427.231 85.5916 427.113C85.9564 426.995 86.2299 426.823 86.4123 426.598C86.6054 426.362 86.7019 426.083 86.7019 425.761C86.7019 425.45 86.5946 425.177 86.3801 424.941C86.1763 424.705 85.7901 424.522 85.2216 424.394L82.8884 423.863C82.2448 423.723 81.7138 423.525 81.2954 423.267C80.8771 423.01 80.566 422.699 80.3622 422.334C80.1584 421.959 80.0565 421.54 80.0565 421.079C80.0565 420.478 80.2174 419.937 80.5392 419.454C80.8717 418.96 81.3491 418.569 81.9712 418.279C82.5934 417.979 83.3336 417.829 84.1918 417.829ZM90.6538 428.609V417.99H98.3451V419.47H92.3755V422.527H97.0418V423.975H92.3755V427.129H98.5704V428.609H90.6538Z" fill="#131316"/>
<path d="M353.951 46.7688L350.009 57.3887H347.997L344.055 46.7688H345.889L348.367 53.8326L349.011 55.9405L349.655 53.8487L352.133 46.7688H353.951ZM355.643 57.3887V46.7688H363.335V48.2492H357.365V51.3064H362.031V52.7546H357.365V55.9083H363.56V57.3887H355.643ZM369.96 46.7688C371.097 46.7688 371.998 47.0531 372.663 47.6216C373.339 48.1902 373.677 48.9572 373.677 49.9226C373.677 50.9202 373.339 51.6926 372.663 52.2397C371.998 52.776 371.097 53.0442 369.96 53.0442L369.799 53.1407H367.337V57.3887H365.631V46.7688H369.96ZM369.831 51.7087C370.528 51.7087 371.043 51.5692 371.376 51.2903C371.719 51.0007 371.891 50.5609 371.891 49.9709C371.891 49.3916 371.719 48.9572 371.376 48.6675C371.043 48.3779 370.528 48.2331 369.831 48.2331H367.337V51.7087H369.831ZM370.845 52.0627L374.304 57.3887H372.325L369.364 52.7385L370.845 52.0627ZM379.821 46.6079C380.776 46.6079 381.602 46.7903 382.299 47.155C382.997 47.509 383.587 48.0346 384.069 48.7319L382.911 49.8421C382.503 49.22 382.042 48.7748 381.527 48.5066C381.023 48.2277 380.422 48.0883 379.725 48.0883C379.21 48.0883 378.786 48.158 378.454 48.2974C378.121 48.4369 377.874 48.6246 377.713 48.8606C377.563 49.0859 377.488 49.3433 377.488 49.633C377.488 49.9655 377.601 50.2551 377.826 50.5019C378.062 50.7486 378.497 50.9417 379.129 51.0811L381.286 51.5638C382.315 51.7891 383.045 52.1324 383.474 52.5937C383.903 53.0549 384.118 53.6395 384.118 54.3475C384.118 55.0019 383.941 55.5704 383.587 56.0531C383.233 56.5359 382.739 56.906 382.106 57.1634C381.484 57.4209 380.749 57.5496 379.902 57.5496C379.151 57.5496 378.475 57.453 377.874 57.2599C377.274 57.0669 376.748 56.804 376.298 56.4715C375.847 56.139 375.477 55.7582 375.187 55.3291L376.378 54.1384C376.603 54.5138 376.887 54.8517 377.231 55.1521C377.574 55.4417 377.971 55.667 378.421 55.8279C378.883 55.9888 379.392 56.0692 379.95 56.0692C380.444 56.0692 380.867 56.0102 381.221 55.8922C381.586 55.7742 381.86 55.6026 382.042 55.3773C382.235 55.1413 382.332 54.8624 382.332 54.5406C382.332 54.2295 382.224 53.956 382.01 53.72C381.806 53.484 381.42 53.3016 380.851 53.1729L378.518 52.6419C377.874 52.5025 377.343 52.304 376.925 52.0466C376.507 51.7891 376.196 51.478 375.992 51.1133C375.788 50.7379 375.686 50.3195 375.686 49.8582C375.686 49.2575 375.847 48.7158 376.169 48.2331C376.501 47.7396 376.979 47.3481 377.601 47.0585C378.223 46.7581 378.963 46.6079 379.821 46.6079ZM394.991 57.3887H393.173L392.159 54.605H387.702L386.688 57.3887H384.918L388.925 46.7688H390.985L394.991 57.3887ZM388.185 53.2051H391.676L389.939 48.2492L388.185 53.2051ZM403.119 46.7688V48.2492H399.483V57.3887H397.761V48.2492H394.125V46.7688H403.119ZM406.661 46.7688V57.3887H404.94V46.7688H406.661ZM411.291 55.9083H417.148V57.3887H409.57V46.7688H411.291V55.9083ZM418.961 57.3887V46.7688H426.652V48.2492H420.682V51.3064H425.349V52.7546H420.682V55.9083H426.877V57.3887H418.961Z" fill="#131316"/>
<path d="M368.651 428.609H366.833L365.819 425.826H361.362L360.348 428.609H358.578L362.585 417.99H364.645L368.651 428.609ZM361.845 424.426H365.336L363.599 419.47L361.845 424.426ZM381.154 417.99V428.609H379.561V422.463L379.69 419.534H379.674L376.44 428.609H375.008L371.773 419.534H371.757L371.886 422.463V428.609H370.293V417.99H372.851L374.992 424.136L375.732 426.662H375.764L376.52 424.136L378.644 417.99H381.154ZM385.79 417.99V428.609H384.068V417.99H385.79ZM397.516 428.609H395.697L394.684 425.826H390.227L389.213 428.609H387.443L391.45 417.99H393.509L397.516 428.609ZM390.709 424.426H394.201L392.463 419.47L390.709 424.426ZM399.158 428.609V417.99H403.341C404.618 417.99 405.551 418.247 406.141 418.762C406.731 419.277 407.026 419.99 407.026 420.902C407.026 421.46 406.865 421.959 406.543 422.398C406.221 422.827 405.749 423.101 405.127 423.219V423.235C405.814 423.342 406.345 423.627 406.72 424.088C407.106 424.538 407.299 425.064 407.299 425.665C407.299 426.577 406.967 427.295 406.302 427.821C405.637 428.347 404.671 428.609 403.405 428.609H399.158ZM400.847 427.177H403.486C404.162 427.177 404.666 427.038 404.998 426.759C405.342 426.48 405.513 426.089 405.513 425.584C405.513 425.08 405.342 424.689 404.998 424.41C404.666 424.131 404.162 423.991 403.486 423.991H400.847V427.177ZM400.847 422.559H403.212C404.564 422.559 405.24 422.039 405.24 420.998C405.24 419.958 404.564 419.438 403.212 419.438H400.847V422.559ZM411.292 427.129H417.149V428.609H409.57V417.99H411.292V427.129ZM418.961 428.609V417.99H426.652V419.47H420.683V422.527H425.349V423.975H420.683V427.129H426.878V428.609H418.961Z" fill="#131316"/>
<defs>
<linearGradient id="paint0_linear_807_5354" x1="228.343" y1="346.305" x2="228.343" y2="124.18" gradientUnits="userSpaceOnUse">
<stop stop-color="#FF692E"/>
<stop offset="1" stop-color="#F9D423"/>
<stop offset="1" stop-color="#FFC700"/>
</linearGradient>
</defs>
</svg>
