<svg width="261" height="39" viewBox="0 0 261 39" fill="none" xmlns="http://www.w3.org/2000/svg">
<g clip-path="url(#clip0_446_49251)">
<path d="M225.239 20.8808C226.921 20.0179 229.467 19.0687 231.193 18.6372C232.876 18.2057 233.307 18.1195 235.076 17.8606C236.888 17.6017 239.995 17.2997 242.67 17.2997C243.187 17.2997 243.748 17.2997 244.309 17.2997C249.789 17.4723 255.484 18.7235 260.058 20.7514V19.759C254.664 17.2134 247.804 15.6601 240.556 15.4444C239.908 15.4444 239.304 15.4012 238.7 15.4012C236.888 15.4012 235.119 15.4875 233.436 15.617C233.436 15.617 230.675 15.8759 229.079 16.1779C227.439 16.4799 225.843 16.8251 224.376 17.2565C223.34 17.5586 222.391 17.8606 221.054 18.4215C219.932 18.8961 218.853 19.3707 217.774 20.0179C214.884 21.7437 213.158 23.901 213.071 26.2309C213.071 26.3172 213.071 26.3604 213.071 26.4467C213.071 27.9568 213.719 29.4669 215.056 30.8907C219.112 35.2916 228.734 38.3119 239.52 38.657C240.21 38.657 240.858 38.7002 241.548 38.7002C248.796 38.7002 255.398 37.5352 260.101 35.4642V34.4719H260.058C255.657 36.1114 250.005 37.0606 244.741 37.0606C244.309 37.0606 243.878 37.0606 243.49 37.0606C234.17 36.8018 225.843 34.1698 222.348 30.4161C221.226 29.208 220.665 27.9568 220.665 26.7056C220.665 26.6193 220.665 26.5761 220.665 26.533C220.708 25.7995 220.881 25.0229 221.356 24.3325C221.83 23.6853 222.175 23.2107 222.995 22.4772C223.642 21.83 223.944 21.528 225.239 20.8808Z" fill="black"/>
<path d="M228.905 12.5113C227.784 12.8996 226.705 13.5037 226.532 13.6331C225.109 14.5823 224.289 15.7904 224.116 17.1711C224.073 17.3868 224.073 17.6026 224.073 17.8615C224.073 23.1684 232.789 29.5109 244.136 32.2723C247.329 33.0489 250.694 33.4804 253.844 33.4804C255.829 33.4804 257.727 33.3078 259.496 33.0058L259.669 32.9626C259.841 32.9195 260.014 32.9195 260.1 32.8763V33.7824C260.014 33.8255 259.971 33.8255 259.841 33.8687C257.77 34.4296 255.268 34.7316 252.593 34.7316C248.839 34.7316 244.611 34.1707 240.296 33.1352C227.136 29.8992 217.04 22.4781 217.04 16.265C217.04 16.0062 217.083 15.7473 217.083 15.4884C217.342 13.8057 218.335 12.3819 220.017 11.2601C221.355 10.354 223.081 9.66368 225.109 9.23221C225.109 9.23221 226.705 8.88704 228.086 8.71446C229.466 8.58502 231.063 8.58502 231.063 8.58502C231.322 8.58502 231.537 8.58502 231.796 8.58502C235.464 8.58502 239.519 9.10278 243.705 10.1383C249.874 11.6484 255.613 14.2372 260.143 17.43V18.6381C257.339 16.7396 252.808 14.1509 246.941 12.7271C243.316 11.821 239.778 11.3895 236.629 11.3895C234.773 11.3895 233.047 11.5621 231.537 11.8641C231.494 11.821 230.027 12.1662 228.905 12.5113Z" fill="black"/>
<path d="M248.622 5.56383C242.754 2.15528 236.886 0.299988 232.442 0.299988C230.889 0.299988 229.508 0.515721 228.386 0.99033C226.661 1.68067 225.582 2.80247 225.15 4.48517C225.021 5.00293 224.935 5.56383 224.935 6.16787C224.935 7.0308 225.15 8.0663 225.366 8.88608C225.711 10.051 226.229 11.3023 227.524 13.4596C229.81 17.2133 235.98 23.2969 242.582 27.1369C248.579 30.5886 254.317 32.4439 259.236 32.4439H259.322C259.667 32.4439 259.926 32.4439 260.099 32.4439V31.581L259.107 31.5378C254.964 31.2358 250.175 29.6825 245.947 27.2232C238.655 22.9949 233.003 17.0407 231.234 12.2083C230.975 11.4317 230.759 10.6551 230.673 10.0079C230.63 9.749 230.544 8.71349 230.803 7.80742C231.191 6.46989 232.097 5.47754 233.478 4.91664C234.427 4.52832 235.635 4.31259 236.929 4.31259C240.769 4.31259 245.818 5.909 250.909 8.84294C254.145 10.6982 257.294 13.287 260.013 16.2209V14.7108C256.906 11.216 252.937 8.06631 248.622 5.56383Z" fill="black"/>
<path d="M67.3233 32.357C65.166 32.357 65.1229 31.4078 65.1229 30.3722V21.0527C65.1229 20.1034 65.9858 19.3268 67.1076 19.2837V18.4639H58.6509V19.2837C59.8159 19.3268 60.6357 20.1034 60.6357 21.0527V31.1057C60.6357 32.4001 60.0316 32.9179 58.6509 32.961V33.7808H72.1988L72.8892 28.0855H71.7242C71.7242 28.0855 70.9907 32.357 67.3233 32.357Z" fill="black"/>
<path d="M82.0362 33.8239V33.0042C80.6555 32.961 80.0514 32.4433 80.0514 31.1489V21.0527C80.0514 20.1034 80.9144 19.3268 82.0362 19.2837V18.4639H73.4932V19.2837C74.6582 19.3268 75.4779 20.1034 75.4779 21.0527V31.1057C75.4779 32.4001 74.8739 32.9179 73.4932 32.961V33.7808H82.0362V33.8239Z" fill="black"/>
<path d="M81.9932 26.2302C81.9932 21.3547 85.8332 18.0756 91.0539 18.0756C96.2746 18.0756 99.5105 21.6999 99.5105 26.1008C99.5105 31.6666 94.7645 34.3417 90.6224 34.3417C88.3357 34.3848 81.9932 32.7021 81.9932 26.2302ZM90.8813 32.8316C92.1757 32.8316 94.4624 31.9686 94.4624 26.0145C94.4624 21.9587 92.9955 19.5857 90.7519 19.5857C88.12 19.5857 86.9982 22.5196 86.9982 26.0576C87.0413 31.9687 89.5869 32.8316 90.8813 32.8316Z" fill="black"/>
<path d="M105.594 18.4639L114.31 27.654V21.0527C114.31 20.1034 113.447 19.3268 112.325 19.2837V18.4639H118.107V19.2837C116.942 19.3268 116.122 20.1034 116.122 21.0527V33.8239H113.792C113.188 33.8239 112.713 33.2199 112.109 32.5296L103.351 23.1237V31.1057C103.351 32.4001 103.955 32.9179 105.335 32.961V33.8239H99.5967V32.961C100.978 32.9179 101.582 32.4001 101.582 31.1057V21.3547C101.582 19.672 100.546 19.2837 99.7262 19.2405V18.4639H105.594Z" fill="black"/>
<path d="M57.4429 33.8239V33.0042C56.0622 32.961 55.4581 32.4433 55.4581 31.1489V21.0527C55.4581 20.1034 56.2779 19.3268 57.4429 19.2837V18.4639H48.8999V19.2837C50.0649 19.3268 50.8846 20.1034 50.8846 21.0527V31.1057C50.8846 32.4001 50.2806 32.9179 48.8999 32.961V33.7808H57.4429V33.8239Z" fill="black"/>
<path d="M25.0834 28.0855L23.4007 23.3394L21.416 28.0855H25.0834ZM24.7814 33.8239V33.0042C26.2484 33.0042 26.5504 32.4001 26.2052 31.2783L25.6012 29.5956H20.7257C19.8628 31.7098 17.0151 34.73 12.1827 34.73H12.0965C6.40117 34.73 1.26678 30.89 1.22363 23.6846C1.22363 18.8954 4.02813 13.0275 13.132 13.0275C16.7994 13.0275 20.1648 14.2787 20.1648 14.2787V19.37H18.3526C18.2664 19.0679 18.1369 14.9259 13.3477 14.9259C9.42139 14.9259 7.47982 18.507 7.47982 23.4689C7.43667 28.6895 9.76656 32.2275 13.7792 32.2275C15.4187 32.2275 17.8349 31.1057 19.345 28.1718C19.345 28.1718 21.8043 23.3826 23.6596 18.5502H26.3778C27.5428 21.2253 30.3904 28.7327 31.2533 31.0194C31.728 32.2275 32.0731 32.8316 32.9792 32.8316C33.6695 32.7884 33.9716 32.0549 33.9716 31.7098C33.9716 31.4078 33.9716 21.2684 33.9716 21.2684C33.9716 19.672 32.936 19.4563 32.0731 19.4131V18.5502H42.1262C44.2403 18.5502 46.8291 18.8091 46.8291 22.3039C46.8291 25.1515 44.3266 25.8419 43.248 26.1008V26.1439C44.4129 26.9637 46.0093 30.4585 49.5473 35.4203C49.8925 35.8518 50.7554 37.5345 52.697 37.3188V38.2248H47.1743C45.1895 38.2248 44.6718 36.3696 43.7226 34.7731C42.1262 32.0118 40.4003 28.1286 38.6745 25.3673C38.6745 25.3673 39.3648 25.4536 39.71 25.3673C41.4358 24.8927 41.8673 23.6846 41.8673 22.4333C41.8673 20.7075 40.7886 19.8014 39.6237 19.8014H38.545V31.4509C38.545 32.4433 39.1922 33.0042 40.4435 33.0473V33.8671L24.7814 33.8239Z" fill="black"/>
<path d="M139.376 27.8704L138.642 31.9693C138.513 32.5734 137.952 32.7459 137.003 33.0911C136.183 33.35 133.853 34.1698 131.48 34.1698C124.231 34.1698 120.046 30.3298 120.003 23.4695C120.003 18.9392 122.419 12.985 131.955 12.985C134.543 12.985 135.924 13.5027 137.348 13.9774C138.168 14.2362 138.47 14.6677 138.47 15.0992V18.896H137.564C136.528 16.7387 134.975 14.1499 132.084 14.1499C128.589 14.1499 126.389 17.9468 126.346 23.2538C126.302 28.6039 127.856 33.048 131.955 33.048C134.5 33.048 136.916 30.9338 138.47 27.9136H139.376V27.8704Z" fill="black"/>
<path d="M206.554 29.3374L205.993 32.4439C205.864 32.9185 205.476 33.0048 204.742 33.3068C204.138 33.5226 202.326 34.1266 200.514 34.1266C194.991 34.1266 191.798 31.1927 191.798 25.972C191.798 22.5203 193.61 17.9899 200.859 17.9899C202.844 17.9899 203.879 18.3783 204.958 18.7666C205.562 18.9823 205.821 19.2843 205.821 19.6295V22.5203H205.13C204.311 20.8807 203.146 18.896 200.945 18.9392C198.27 18.9392 196.588 21.83 196.588 25.8426C196.588 29.8983 197.752 33.2637 200.859 33.2637C202.801 33.2637 204.656 31.6673 205.821 29.3374H206.554Z" fill="black"/>
<path d="M148.48 32.3576C146.322 32.3576 146.236 31.4084 146.279 30.3729V21.0533C146.279 20.1041 147.099 19.3275 148.264 19.2843V18.4646H139.807V19.2843C140.972 19.3275 141.792 20.1041 141.792 21.0533V31.1064C141.792 32.4008 141.188 32.9185 139.807 32.9617V33.7815H153.312L154.002 28.0862H152.837C152.837 28.0862 152.104 32.3576 148.48 32.3576Z" fill="black"/>
<path d="M192.014 33.7815V32.9185C190.59 32.8754 190.029 32.3576 189.986 31.0633V21.0102C189.986 20.061 190.806 19.2843 191.971 19.2412V18.4214H183.428V19.2412C184.593 19.2843 185.413 20.061 185.413 21.0102V31.0633C185.413 32.3576 184.809 32.8754 183.428 32.9185V33.7383L192.014 33.7815Z" fill="black"/>
<path d="M163.02 33.7815V32.9617C161.639 32.9185 161.035 32.4008 161.035 31.1064V21.0533C161.035 20.1041 161.855 19.3275 163.02 19.2843V18.4646H154.477V19.3275C155.642 19.3706 156.462 20.1473 156.462 21.0965V31.1495C156.462 32.4439 155.858 32.9617 154.477 33.0048V33.8678L163.02 33.7815Z" fill="black"/>
<path d="M170.139 18.4214L178.854 27.6116V21.0102C178.854 20.061 178.035 19.2843 176.87 19.2412V18.4214H182.651V19.2412C181.486 19.2843 180.667 20.061 180.667 21.0102V33.7815H178.337C177.733 33.7815 177.258 33.1774 176.654 32.5302L167.895 23.1243V31.1064C167.895 32.4008 168.499 32.9185 169.88 32.9617V33.7815H164.142V32.9617C165.522 32.9185 166.126 32.4008 166.126 31.1064V21.3554C166.126 19.6727 165.091 19.2843 164.271 19.2843V18.4646L170.139 18.4214Z" fill="black"/>
</g>
<defs>
<clipPath id="clip0_446_49251">
<rect width="260" height="39" fill="white" transform="translate(0.799805)"/>
</clipPath>
</defs>
</svg>
