<svg width="106" height="41" viewBox="0 0 106 41" fill="none" xmlns="http://www.w3.org/2000/svg">
<g clip-path="url(#clip0_446_49329)">
<path d="M93.5881 17.7045L88.205 9.66511C85.6542 5.88288 83.9478 7.39577 83.9478 6.44582C83.9478 6.16435 84.1413 6.07639 84.3173 6.07639C85.0737 6.07639 85.0737 6.16435 88.0995 6.16435C89.1374 6.16435 90.2809 6.07639 91.3188 6.07639C91.6003 6.07639 91.8817 6.16435 91.8817 6.55137C91.8817 7.02634 90.3688 6.83284 90.3688 7.87075C90.3688 8.24018 90.8438 8.99662 92.0752 10.8965L94.5381 14.7667L96.8074 18.1619L102.859 27.6087C104.653 30.441 105.885 29.0336 105.885 30.1595C105.885 30.5289 105.515 30.5289 105.216 30.5289C104.741 30.5289 103.422 30.441 102.103 30.441C100.783 30.441 99.5517 30.5289 99.0768 30.5289C98.7073 30.5289 98.6018 30.441 98.6018 30.1595C98.6018 29.403 100.027 29.5966 100.027 28.6466C100.027 28.1716 99.9387 27.8902 99.2703 26.8522L94.9251 20.0442L93.5881 17.7045Z" fill="black"/>
<path d="M0.369388 24.4246C0.281429 23.7561 0.369386 23.3867 0.738813 23.3867C1.21379 23.3867 1.21379 23.7561 1.4073 24.5125C1.77673 26.1134 3.87015 29.7197 8.69029 29.7197C11.9975 29.7197 15.2168 27.9253 15.2168 24.2311C15.2168 17.6166 1.23138 21.2933 1.23138 12.3215C1.23138 7.9763 4.92565 5.79492 8.8838 5.79492C13.0355 5.79492 14.1789 7.02634 14.6539 7.02634C14.9354 7.02634 15.0233 6.65692 15.4103 6.65692C15.6039 6.65692 15.7798 6.74488 15.7798 7.1319L16.2547 11.8641C16.2547 12.1455 16.2547 12.3391 15.8853 12.3391C15.5159 12.3391 15.2168 11.5826 15.1289 11.3011C14.091 8.36332 11.5402 6.85043 8.51437 6.85043C5.77006 6.85043 2.93778 8.16981 2.93778 11.3011C2.93778 17.8277 16.9232 13.9399 16.9232 23.4922C16.9232 26.43 14.8474 30.7752 7.08944 30.7752C4.53863 30.7752 1.42489 29.4558 1.23138 28.8929L0.369388 24.4246Z" fill="black"/>
<path d="M22.4821 9.01422C22.4821 6.46342 19.6499 7.21986 19.6499 6.46342C19.6499 6.18195 19.7378 6.09399 20.0193 6.09399C21.3387 6.09399 22.5701 6.18195 23.8015 6.18195C24.8394 6.18195 25.9829 6.09399 27.0208 6.09399C27.5837 6.09399 27.6893 6.18195 27.6893 6.46342C27.6893 7.30782 25.2264 6.46342 25.2264 9.10218V27.6263C25.2264 29.9836 28.2522 29.1392 28.2522 30.1771C28.2522 30.4585 28.1643 30.5465 27.5837 30.5465C26.8273 30.5465 25.3144 30.4585 23.8015 30.4585C21.7257 30.4585 20.9692 30.5465 20.4943 30.5465C19.8258 30.5465 19.7378 30.353 19.7378 30.0715C19.7378 29.0336 22.3766 30.1595 22.3766 26.7643V8.99663H22.4821V9.01422Z" fill="black"/>
<path d="M60.9729 9.57714C60.9729 9.29567 61.0609 8.06425 60.6035 7.97629H55.0269C52.8455 7.97629 52.8455 8.45127 52.1946 10.4391C52.1067 10.8086 52.1067 11.1956 51.6317 11.1956C51.4382 11.1956 51.2622 10.9141 51.2622 10.8262L51.6317 7.5189C51.6317 7.14948 51.6317 6.19952 52.3002 6.19952C54.9389 6.19952 57.6832 6.28748 62.134 6.28748C68.379 6.28748 71.5807 6.19952 72.2492 6.19952C73.0057 6.19952 73.1992 6.39303 73.2871 7.23743L73.4806 9.98175C73.4806 10.3512 73.5686 10.7382 73.1112 10.7382C71.7918 10.7382 73.6741 8.09943 70.1734 8.09943H65.2653C63.7524 8.09943 63.8404 8.01147 63.8404 9.80583V27.292C63.8404 30.2299 66.6726 29.0864 66.6726 30.1243C66.6726 30.2123 66.6726 30.4937 66.3912 30.4937C65.5468 30.4937 64.5968 30.4058 63.5589 30.4058C59.6887 30.4058 59.0202 30.4937 58.8267 30.4937C58.5452 30.4937 58.4573 30.4058 58.4573 30.0188C58.4573 29.1744 61.2016 29.5438 61.2016 27.468V9.57714H60.9729Z" fill="black"/>
<path d="M81.872 21.5923C82.6285 21.5923 82.9979 21.5923 82.9979 21.0294C82.9979 19.6044 81.1156 15.5408 76.8584 15.5408C72.5132 15.5408 70.0503 19.235 70.0503 23.6681C70.0503 25.9375 71.8447 30.7576 77.0519 30.7576C80.1656 30.7576 83.1914 28.2948 83.1914 27.4504C83.1914 27.3624 83.1914 27.1689 83.1034 27.1689C82.347 27.1689 81.2211 28.9633 78.2833 28.9633C76.2075 28.9633 72.7067 27.2569 72.7067 21.5923C72.6891 21.5923 81.872 21.5923 81.872 21.5923ZM72.6891 20.7303C72.6891 18.848 74.202 16.3852 76.3834 16.3852C78.2657 16.3852 80.2536 18.0916 80.2536 20.0794C80.2536 20.5544 80.0601 20.7479 79.5851 20.7479C79.6027 20.7303 72.6891 20.7303 72.6891 20.7303Z" fill="black"/>
<path d="M103.051 0.5C75.2379 64.0414 48.4809 26.6941 48.4809 26.6941L42.7108 18.0038C45.1736 17.0538 47.0559 14.6965 47.0559 12.0402C47.0559 5.42569 39.4035 6.07658 38.9286 6.07658C37.1342 6.07658 35.1463 6.16454 33.1585 6.16454C31.3641 6.16454 31.5576 6.07658 30.9771 6.07658C30.6077 6.07658 30.3086 6.27009 30.3086 6.44601C30.3086 7.57188 33.2464 6.16454 33.2464 9.47179V27.0635C33.2464 29.7023 30.6956 29.2449 30.6956 30.0893C30.6956 30.2828 30.7836 30.4587 31.065 30.4587C32.3844 30.4587 33.7038 30.3708 35.0408 30.3708C37.8731 30.3708 38.735 30.4587 39.0165 30.4587C39.298 30.4587 39.5795 30.5467 39.5795 30.1773C39.5795 29.0514 35.9907 30.0893 35.9907 27.1515V19.8685C35.9907 19.4991 35.7972 18.9186 36.8351 18.9186C40.7053 18.9186 40.1424 18.8306 41.4618 20.7129L45.244 26.7645C45.244 26.7645 74.3584 70.2513 102.452 2.47028L103.051 0.5ZM35.9204 8.45147C35.9204 7.13209 36.6768 7.13209 37.9082 7.13209C41.3034 7.13209 44.5227 8.55702 44.5227 12.7087C44.5227 16.9659 41.2155 17.6168 39.7026 17.6168C38.1017 17.6168 35.9204 17.8103 35.9204 17.1418V8.45147Z" fill="black"/>
</g>
<defs>
<clipPath id="clip0_446_49329">
<rect width="106" height="40" fill="white" transform="translate(0 0.5)"/>
</clipPath>
</defs>
</svg>
