<svg width="107" height="45" viewBox="0 0 107 45" fill="none" xmlns="http://www.w3.org/2000/svg">
<g clip-path="url(#clip0_446_49336)">
<path d="M20.1259 2.11838C7.23128 5.50158 -0.549113 18.985 2.79495 32.1746C4.10274 37.3692 6.95566 41.7223 10.6707 44.9C6.19053 41.6605 2.7675 36.8394 1.27748 30.9826C-2.04499 17.7626 5.69374 4.3105 18.6215 0.900293C26.4802 -1.19291 34.4165 0.942704 40.2033 5.87286C34.5881 1.80849 27.3249 0.196782 20.1259 2.11838Z" fill="black"/>
<path d="M11.7112 43.1493H11.2786V44.3809H11.1097V43.1493H10.6768V43.0199H11.7112V43.1493ZM13.3593 44.3809H13.191V43.1629H13.1851L12.7166 44.3809H12.6068L12.1375 43.1629H12.1311V44.3809H11.9628V43.0198H12.2732L12.6609 44.0253H12.6673L13.0491 43.0198H13.359L13.3593 44.3809Z" fill="black"/>
<path d="M25.3526 20.0489C24.4901 20.0489 23.3975 20.3652 23.3975 21.5154C23.3975 22.4929 24.2313 22.8096 25.5539 23.2409C28.0845 24.046 31.3627 25.656 31.3627 29.5093C31.3627 34.0813 27.9402 36.1228 24.2024 36.1228C21.5569 36.1228 18.8829 35.0878 17.2148 33.2764C18.1642 32.1258 19.113 30.947 20.0617 29.7969C20.9532 30.6308 22.8223 31.4071 24.2024 31.4071C25.1801 31.4071 26.0718 30.8321 26.0718 29.5093C26.0718 28.5318 24.8638 28.0138 23.9149 27.7268C20.3205 26.6337 18.1353 25.5411 18.1353 21.5155C18.1353 17.1735 21.8731 15.3046 25.3814 15.3046C27.4502 15.3046 29.7699 16.1701 31.1302 17.5162C31.1502 17.5361 31.7481 18.1172 31.7481 18.1453V20.9118H30.2451V22.9997C30.2451 22.9696 28.328 21.1864 28.3055 21.166C27.5491 20.4828 26.3017 20.0489 25.3526 20.0489Z" fill="black"/>
<path d="M37.2927 16.2894V21.3503H39.309L40.507 25.8936H37.2927V29.9769C37.2927 31.1845 38.069 31.2419 38.6732 31.2419C39.0563 31.2419 39.4916 31.1898 39.7806 31.1351C39.7952 31.1324 40.8593 30.9458 40.8593 30.9088L40.8588 35.6126C40.2833 35.7276 39.3632 35.8426 38.6732 35.8426C35.7692 35.8426 32.1747 35.555 32.1747 29.9768V25.8935H30.6792V21.3502H32.1747V16.2893L37.2927 16.2894ZM41.3044 35.7105V21.3332H46.0206L46.1356 24.2659H46.1928C46.8541 22.397 48.6371 21.2182 50.4485 21.2182C50.9323 21.2182 51.3911 21.2684 51.8243 21.3689C51.8547 21.3758 52.6318 21.5685 53.0883 21.8692C52.3312 22.3035 52.1197 22.4815 51.563 22.9826C53.8788 25.6102 52.6652 24.274 54.6472 26.423C54.6472 26.423 51.5397 26.0428 51.4828 26.0338C51.3262 26.0091 50.9704 25.9627 50.5061 25.9627C49.2122 25.9627 47.1704 26.2789 46.4229 28.0903V35.7105H41.3044Z" fill="black"/>
<path d="M59.7252 30.4477C57.7988 30.4764 56.1023 30.7352 56.1023 31.684C56.1023 32.317 56.9362 32.5182 57.6547 32.5182C58.4314 32.5182 59.1214 32.1728 59.7253 31.8282L59.7252 30.4477ZM52.1628 23.0288C53.4567 21.8786 55.7569 20.9874 58.5176 20.9874C61.9966 20.9874 64.8435 22.7125 64.8435 26.192V28.9525C64.8435 30.4764 65.476 31.109 66.1378 31.109C66.2455 31.109 66.321 31.109 66.3643 31.0968C66.3786 31.0928 66.9954 31.0318 67.7302 30.4639C67.7692 32.4662 68.2889 33.4885 68.557 33.8237C68.0208 34.695 66.5341 35.4535 66.5225 35.4583C66.4202 35.5007 65.8751 35.7096 65.074 35.7096C63.5497 35.7096 62.0833 35.077 61.1632 34.0132H61.1059C59.8402 35.1632 58.3164 36.055 56.5625 36.055C54.0895 36.055 51.1851 34.9907 51.1851 31.5976C51.1851 28.291 55.3258 27.2848 59.7253 27.1406V26.911C59.7253 26.0193 58.6614 25.588 57.4251 25.588C56.4758 25.588 55.6712 25.933 55.2107 26.3643L52.1628 23.0288Z" fill="black"/>
<path d="M73.2943 16.2721V21.333H75.3106L76.5086 25.8762H73.2943V29.9596C73.2943 31.1671 74.0706 31.2245 74.6749 31.2245C75.047 31.2245 75.4681 31.1755 75.7567 31.1225C75.7802 31.1182 76.6317 30.9619 77.0719 30.8275C77.3517 33.6786 79.0367 35.0666 79.0367 35.0666C77.7228 35.4155 76.8124 35.6047 76.7877 35.6095C76.2097 35.7196 75.3364 35.8252 74.6747 35.8252C71.7707 35.8252 68.1762 35.5377 68.1762 29.9594V25.8761H66.6807V21.3328H68.1762V16.272L73.2943 16.2721Z" fill="black"/>
<path d="M91.8912 21.3592V35.7365H87.175L87.06 33.4072H87.0028C86.3415 35.2765 84.559 36.0817 82.7471 36.0817C79.1239 36.0817 77.2837 32.9476 77.2837 28.2315V21.3593H82.4016V28.2315C82.4016 30.187 83.1209 31.4809 84.5298 31.4809C85.5365 31.4809 86.1974 31.0784 86.7728 30.2158V21.3593L91.8912 21.3592ZM102.217 26.3906C102.217 26.3906 101.239 25.5854 99.7732 25.5854C99.2556 25.5854 98.7378 25.7291 98.7378 26.103C98.7378 26.4767 99.8594 26.6206 101.153 27.0519C102.821 27.6269 104.776 28.7199 104.776 31.5375C104.776 34.4703 102.706 36.0809 99.1119 36.0809C95.6064 36.0809 93.5053 34.3437 93.1543 34.0298C93.1195 33.9987 92.3468 33.29 92.3468 33.29C92.3468 27.8716 92.355 31.8105 92.3468 27.4337C92.3468 27.4545 95.6656 30.3867 95.6841 30.402C96.1018 30.7491 97.1824 31.5663 98.4215 31.5663C99.0257 31.5663 99.6003 31.4226 99.6003 31.02C99.6003 30.56 98.4215 30.4448 97.0988 29.9846C95.4312 29.4098 93.562 28.3457 93.562 25.4993C93.562 22.3362 96.035 21.0135 99.3703 21.0135C102.591 21.0135 104.316 22.595 104.316 22.595L102.217 26.3906ZM105.471 21.4547H105.569C105.683 21.4547 105.776 21.4166 105.776 21.3241C105.776 21.2425 105.716 21.1879 105.585 21.1879C105.531 21.1879 105.493 21.1935 105.471 21.1988V21.4547ZM105.466 21.9609H105.259V21.0684C105.34 21.0519 105.455 21.0411 105.601 21.0411C105.77 21.0411 105.847 21.0684 105.912 21.1065C105.961 21.1445 105.999 21.2153 105.999 21.3023C105.999 21.4003 105.923 21.4763 105.814 21.5091V21.5201C105.901 21.5526 105.95 21.618 105.977 21.7377C106.004 21.8737 106.021 21.9281 106.042 21.9609H105.819C105.792 21.928 105.776 21.8464 105.748 21.7431C105.732 21.6451 105.678 21.6016 105.564 21.6016H105.466V21.9609ZM104.916 21.4927C104.916 21.89 105.21 22.2057 105.613 22.2057C106.004 22.2057 106.293 21.8899 106.293 21.4981C106.293 21.1008 106.004 20.7798 105.607 20.7798C105.21 20.7798 104.916 21.1009 104.916 21.4927ZM106.521 21.4926C106.521 21.9988 106.124 22.396 105.607 22.396C105.096 22.396 104.687 21.9987 104.687 21.4926C104.687 20.9975 105.096 20.6001 105.607 20.6001C106.124 20.6001 106.521 20.9975 106.521 21.4926Z" fill="black"/>
</g>
<defs>
<clipPath id="clip0_446_49336">
<rect width="107" height="45" fill="white"/>
</clipPath>
</defs>
</svg>
