<svg width="65" height="65" viewBox="0 0 65 65" fill="none" xmlns="http://www.w3.org/2000/svg">
<g clip-path="url(#clip0_446_49344)">
<mask id="mask0_446_49344" style="mask-type:luminance" maskUnits="userSpaceOnUse" x="0" y="0" width="65" height="65">
<path d="M64.0454 0.5H0.0454102V64.5H64.0454V0.5Z" fill="white"/>
</mask>
<g mask="url(#mask0_446_49344)">
<path d="M32.1908 64.2669C49.6871 64.2669 63.8708 50.0831 63.8708 32.5866C63.8708 15.09 49.6871 0.90625 32.1908 0.90625C14.6944 0.90625 0.510742 15.09 0.510742 32.5866C0.510742 50.0831 14.6944 64.2669 32.1908 64.2669Z" fill="white"/>
<path d="M32.1021 11.4391C26.6243 11.4392 21.371 13.6399 17.4976 17.5571C13.6243 21.4742 11.4483 26.7869 11.4483 32.3264C11.4482 37.8661 13.6241 43.179 17.4974 47.0963C21.3707 51.0135 26.6242 53.2143 32.1021 53.2144C37.4874 53.2098 42.6581 51.0783 46.5118 47.2741C50.3656 43.4699 52.5978 38.294 52.7325 32.8496H62.1821V31.9191H52.7421C52.6366 26.4528 50.4161 21.2463 46.5571 17.4172C42.6982 13.5882 37.5084 11.4419 32.1021 11.4391ZM11.4483 32.3264V31.9191H1.90625L1.90638 32.8496H11.4485L11.4483 32.3264Z" fill="black"/>
<path d="M32.0758 2.23126C15.5779 2.23126 2.13473 15.5135 1.84961 31.9439V31.9452L11.4675 31.9536C11.6045 26.8384 13.6075 21.7632 17.512 17.8576C19.199 16.17 21.1117 14.8565 23.1443 13.8739C23.1133 13.8772 23.0893 13.8785 23.0764 13.8785L23.8081 13.5459C23.8197 13.5485 23.8359 13.5453 23.8482 13.5459C24.1802 13.4012 24.5143 13.2631 24.8529 13.1364C24.8439 13.1339 24.8296 13.13 24.8244 13.13C25.0363 13.0505 25.2465 12.9747 25.4591 12.9035C25.4701 12.9055 25.4818 12.9107 25.4914 12.912C25.821 12.8008 26.1485 12.6835 26.4832 12.5879C26.4793 12.5879 26.4728 12.5866 26.469 12.5866C26.7158 12.5162 26.9596 12.45 27.207 12.3886C27.2219 12.3905 27.2323 12.3983 27.2466 12.4015C27.6394 12.3053 28.0331 12.2074 28.4298 12.135C28.4266 12.1337 28.4233 12.1317 28.4201 12.1317C28.6029 12.0982 28.7838 12.0619 28.968 12.0334C28.9797 12.0399 28.9881 12.047 29.0004 12.0522C29.251 12.0153 29.5027 11.9732 29.7554 11.9435C29.7482 11.9409 29.7353 11.9363 29.7308 11.9344C29.8587 11.9202 29.9904 11.9034 30.1183 11.8917C36.0838 11.3019 42.2563 13.2886 46.8249 17.8584C48.9983 20.0306 50.5609 22.5749 51.5618 25.2789C51.5818 25.3035 51.6058 25.33 51.6246 25.3533C51.748 25.6951 51.8667 26.0389 51.9733 26.3891C51.9603 26.3587 51.9454 26.334 51.9312 26.305C51.999 26.5239 52.0458 26.7477 52.1059 26.968L52.1531 27.0218C52.2139 27.2401 52.2697 27.4613 52.3214 27.6816C52.3071 27.659 52.2942 27.6467 52.2793 27.6254C52.6179 29.0332 52.824 30.4667 52.8667 31.9067H62.2978C62.3016 32.094 62.3094 32.2815 62.312 32.4701C62.312 32.4714 62.314 32.4714 62.314 32.472C62.314 15.7981 48.7494 2.23126 32.0758 2.23126ZM21.0429 20.8047V28.4659H23.423L23.4502 28.1534L23.4036 28.3073C23.4036 25.0395 25.086 23.5835 28.8606 23.5835H29.4603V29.7793C29.4603 30.8415 28.691 31.4456 28.1386 31.7622C28.6961 32.0484 29.4603 32.6091 29.4603 33.67V40.3055C29.4603 41.1661 28.869 41.6815 27.8727 41.6815H26.6513V44.6639H36.5159V41.6815H35.3598C34.2608 41.6815 33.7056 41.2392 33.7056 40.367V33.67C33.7056 32.6188 34.5986 32.0419 35.2194 31.7519C34.6063 31.4087 33.7056 30.7575 33.7056 29.7793V23.5966L33.998 23.5985H34.249C37.9073 23.5985 40.0049 25.2519 40.0049 28.138C40.0049 28.138 40.0029 28.3019 40.0022 28.466H41.7787V20.8049L21.0429 20.8047Z" fill="#DDDDDD"/>
<path d="M31.1147 4.36252L29.3136 4.36771L29.8881 5.02435C29.8881 5.02499 30.8891 6.54822 31.061 6.80861C31.0119 6.89001 30.8151 7.20777 30.8151 7.20777C30.8151 7.20777 31.1025 7.48477 31.1898 7.56941C31.0915 7.70121 29.7963 9.41314 29.7963 9.41314C29.7936 9.41314 29.2994 9.88026 29.2994 9.88026L29.1118 10.0588L30.8359 10.0394C30.8359 10.0394 30.733 9.59162 30.7168 9.5173C30.7686 9.45138 31.7036 8.24131 31.8471 8.05523C31.9821 8.25422 32.8518 9.55026 32.855 9.55546C32.8544 9.5561 32.8543 9.55802 32.8543 9.5645C32.8543 9.62914 32.8931 9.97474 32.8931 9.97474L32.9042 10.064L34.8314 10.0621L34.1288 9.37178C34.1288 9.36922 33.054 7.77608 32.8751 7.50862C32.9255 7.42851 33.1203 7.12047 33.1203 7.12047C33.1203 7.12047 32.8711 6.84153 32.7948 6.75753C32.8853 6.63347 34.0952 5.0134 34.0952 5.0134L34.6548 4.36777L32.9184 4.36258L32.9786 4.50296C32.9786 4.50296 33.1171 4.8246 33.1526 4.90796C33.0912 4.99001 32.2403 6.11861 32.0975 6.30857C31.9637 6.1044 31.1659 4.88012 31.162 4.87497C31.1633 4.87497 31.1633 4.87241 31.1633 4.86527C31.1633 4.79937 31.1258 4.45317 31.1258 4.45317L31.1147 4.36252ZM21.3215 6.35766L21.2316 6.40683L17.7868 8.21825L18.4072 8.60314C18.4072 8.63098 19.0704 9.91218 19.1724 10.1119C19.1447 10.1842 18.915 10.7827 18.915 10.7827C18.915 10.7827 19.553 10.9665 19.626 10.9878C19.6648 11.0647 20.4023 12.5605 20.4055 12.5663C20.3958 12.567 20.3919 13.0606 20.3919 13.0606L20.3912 13.2295L23.8815 11.3954L23.3536 10.3363C23.3536 10.3363 22.7733 11.1147 22.7733 11.1172C22.7675 11.1088 21.6551 11.6977 21.4212 11.8211C21.3404 11.6635 20.6519 10.3175 20.5744 10.165C20.7223 10.0881 21.5267 9.66618 21.5292 9.66554C21.5292 9.67138 22.0268 9.60538 22.0268 9.60538L22.1664 9.58722L21.6522 8.55026C21.6522 8.55026 21.1876 9.04386 21.1863 9.0445C21.1838 9.04066 20.4544 9.42114 20.2419 9.53034C20.1644 9.38306 19.6304 8.35208 19.5528 8.20414C19.7105 8.1208 20.9639 7.47051 20.9658 7.46923C20.9671 7.47893 21.7292 7.46405 21.7292 7.46405L21.8909 7.46081L21.3215 6.35766ZM43.9506 6.86614L43.9001 6.91337C43.9001 6.91337 42.1404 8.53914 42.1346 8.54362C42.1319 8.5301 41.467 8.63226 41.467 8.63226L41.3809 8.64586C41.3809 8.64586 41.3842 9.24442 41.3855 9.32258C41.3208 9.3801 39.9972 10.5705 39.9972 10.5705C40.0108 10.5595 39.5216 10.8642 39.5216 10.8642L39.3657 10.9626L40.754 11.6147C40.754 11.6147 40.7702 11.0543 40.7735 10.9851C40.8213 10.9367 41.3332 10.4261 41.4165 10.3421C41.5316 10.3957 42.9836 11.0816 43.1018 11.1371C43.0883 11.2541 43.0093 11.955 43.0022 12.0247C42.9499 12.0687 42.5222 12.4323 42.5222 12.4323L44.353 13.2895C44.353 13.2895 44.2094 12.5261 44.2094 12.5248C44.214 12.5248 44.4565 10.771 44.4604 10.7439C44.4759 10.758 44.9721 10.3123 44.9721 10.3123L45.0427 10.2502C45.0427 10.2502 44.5387 9.60842 44.5361 9.60714C44.5593 9.60522 44.6655 7.27881 44.6655 7.27881L44.67 7.21153L43.9506 6.86614ZM43.3703 8.49317C43.3251 8.88338 43.1852 10.0998 43.1613 10.3137C42.972 10.2251 42.2056 9.86194 42.0079 9.76962C42.1739 9.61386 43.0847 8.76194 43.3703 8.49317ZM12.21 12.6813L12.1492 12.7563L9.21787 16.2537L10.1469 17.0196C10.1469 17.0196 10.372 16.1262 10.3733 16.1236C10.3785 16.1282 10.8037 15.6227 10.9491 15.4502C11.0803 15.5594 12.0056 16.3203 12.0605 16.3643C12.0689 16.4367 12.1381 17.0429 12.1381 17.0429C12.1381 17.0429 12.7483 17.0158 12.8175 17.0125C12.8743 17.0603 14.165 18.1447 14.165 18.1447C14.165 18.1653 14.3869 18.6441 14.3869 18.6441L14.4542 18.7903L15.7054 17.2932C15.7054 17.2932 14.986 17.1826 14.9828 17.1819C14.9828 17.1626 13.6578 16.0472 13.6378 16.0285C13.6391 16.0285 13.6397 16.0246 13.6397 16.0168C13.6397 15.929 13.5511 15.4352 13.5511 15.4352L13.5349 15.3427C13.5349 15.3427 12.939 15.4062 12.8672 15.4119C12.8078 15.3629 11.887 14.5889 11.7584 14.4804C11.8585 14.3557 12.3057 13.8173 12.307 13.814C12.3116 13.8212 13.0219 13.5042 13.0219 13.5042L13.1746 13.4356L12.21 12.6813ZM52.4788 13.6705C52.3096 13.6737 52.1375 13.7083 51.9663 13.7818C51.8249 13.8412 51.6298 13.9489 51.5103 14.122C51.3655 14.3346 51.2696 14.6199 51.2405 14.9255L51.2275 15.1391C51.2275 15.1287 51.2172 15.2361 51.2152 15.2483C51.1985 15.2387 50.906 15.5188 50.906 15.5188L50.8484 15.5731C50.8484 15.5731 51.2101 16.2291 51.2101 16.233V16.2537C51.2101 16.3784 51.2418 16.999 51.2418 16.999C51.234 17.2794 51.1063 17.5639 50.9435 17.6673C50.7342 17.8023 50.4652 17.8406 50.2035 17.774C49.9553 17.7127 49.6001 17.5282 49.3165 17.008C48.998 16.3199 49.1952 15.8108 49.4148 15.5065L49.4899 15.4043L48.9568 15.1714L48.9076 15.2309C48.6027 15.605 48.5084 16.4611 48.94 17.314C49.3199 18.0629 49.8212 18.5525 50.3898 18.7289C50.8298 18.8671 51.2909 18.8179 51.7244 18.5833C51.9318 18.4747 52.1133 18.2707 52.1928 18.1291C52.3511 17.8611 52.3933 17.5378 52.394 17.4363L52.4024 16.944C52.4024 16.9349 52.3855 16.7401 52.3804 16.6729C52.4321 16.6199 52.7265 16.3197 52.7265 16.3197C52.7265 16.3197 52.3939 15.7523 52.3856 15.7362C52.3875 15.7349 52.3889 15.7199 52.3889 15.6999C52.3889 15.6721 52.3876 15.6042 52.3876 15.5861C52.3876 15.148 52.505 14.8549 52.7227 14.7612C52.9856 14.645 53.5854 14.6598 53.8439 15.2173C54.0629 15.6922 54.1064 16.0039 54.0049 16.3702L53.9816 16.4575L54.4876 16.6555L54.5225 16.5532C54.6937 16.0144 54.4162 15.3132 54.2366 14.9423C53.8953 14.2468 53.2122 13.6571 52.4788 13.6705ZM7.58276 22.386L6.84202 24.6691H4.44189L6.38401 26.0794L5.64264 28.3631L7.58279 26.9508L9.52747 28.3631L8.78419 26.0794L10.725 24.6691H8.32483L7.58276 22.386ZM56.3668 22.386L55.6254 24.6684H53.2233L55.1654 26.0807L54.424 28.3631L56.3668 26.9515L58.3089 28.3631L57.5656 26.0807L59.5103 24.6684H57.1076L56.3668 22.386ZM10.1108 37.2305L9.99883 37.3379C9.99883 37.3379 9.59707 37.7247 9.59451 37.7273C9.58739 37.7228 9.10603 37.8968 9.10603 37.8968C9.10603 37.8968 8.13891 38.2442 8.13043 38.2475C8.13043 38.2242 7.54758 37.979 7.54758 37.979L7.45701 37.9421C7.45701 37.9421 7.16843 38.5787 7.13611 38.6511C7.06375 38.6783 5.51877 39.2431 5.51553 39.2438C5.51297 39.2379 4.98763 39.2082 4.98763 39.2082L4.83496 39.1985L5.489 41.0248C5.489 41.0248 6.00075 40.4878 6.00267 40.4859C6.00977 40.4923 7.31124 40.0076 7.67111 39.8739C7.68468 39.9139 7.76625 40.1405 7.79145 40.2167C7.71585 40.3001 5.93474 42.2656 5.93474 42.2656L6.45423 43.7458C6.45423 43.7458 6.91487 43.0419 6.9278 43.0244C6.95817 42.9915 8.43467 41.4451 8.54323 41.3307C9.00131 41.8586 9.64179 42.0991 10.1839 41.9052C10.5444 41.7708 10.7928 41.5179 10.9368 41.1476C11.1332 40.6372 11.0956 39.9136 10.8379 39.2101L10.1108 37.2305ZM54.6004 38.133L54.4677 38.2015C54.0866 38.4011 53.7513 38.8875 53.5232 39.5698C53.2176 40.4886 53.3995 41.6631 54.3403 42.034C54.4876 42.0902 54.7087 42.1595 54.922 42.1168C55.1816 42.0651 55.4534 41.9244 55.6905 41.7293C55.6932 41.7267 55.8471 41.5863 55.8471 41.5863C55.8425 41.5908 55.9085 41.5378 55.9156 41.5319C55.9208 41.5494 56.3446 41.5565 56.3446 41.5565L56.4222 41.5571C56.4222 41.5571 56.6305 40.8183 56.6305 40.8158C56.6389 40.8183 57.1371 40.2568 57.1371 40.2568C57.3276 40.0766 57.596 39.971 57.7678 40.0117C58.0566 40.0943 58.2571 40.2682 58.376 40.4995C58.5252 40.7908 58.5427 41.1566 58.4264 41.5585C58.1828 42.2356 57.7085 42.4494 57.3525 42.5069L57.2276 42.5276L57.216 42.6551L57.4165 43.1648L57.5213 43.1551C57.942 43.1131 58.6765 42.6131 58.988 41.6264C59.2289 40.8763 59.2335 40.2019 59.0022 39.6817C58.7948 39.2159 58.3999 38.8755 57.8875 38.7243C57.6614 38.6545 57.3885 38.6693 57.2172 38.7126H57.216C56.9297 38.7915 56.6756 38.976 56.5704 39.0736C56.5664 39.0755 56.2216 39.4159 56.2216 39.4159C56.2126 39.4243 56.1006 39.5595 56.0605 39.6087C55.9888 39.6099 55.554 39.6157 55.554 39.6157C55.554 39.6157 55.3909 40.2659 55.3832 40.2943C55.3748 40.295 55.3211 40.3532 55.3211 40.3532C54.9302 40.7661 54.6701 40.7679 54.5512 40.7317C54.2986 40.6335 53.8684 40.2451 54.0757 39.6727C54.245 39.1978 54.4248 38.955 54.7369 38.7799L54.8159 38.7359L54.8204 38.6285L54.6004 38.133ZM10.002 39.0426C10.0485 39.1653 10.1482 39.4495 10.1482 39.4495C10.196 39.5787 10.2187 39.6999 10.2187 39.8111C10.2187 39.9028 10.2032 39.9879 10.1728 40.0667C10.0972 40.2663 9.92923 40.4187 9.68883 40.5085C9.42651 40.6022 9.14835 40.5866 8.93259 40.4677C8.76659 40.3799 8.64395 40.2372 8.57547 40.0531C8.57547 40.0531 8.45827 39.7378 8.40211 39.5821C8.56619 39.5259 9.84363 39.0968 10.002 39.0426ZM50.9875 46.4378C50.8957 46.4332 50.8003 46.4384 50.7023 46.4533C50.1615 46.5321 49.5494 46.9198 49.0668 47.491L47.7018 49.0973C47.7018 49.0973 48.4031 49.3056 48.4063 49.3056C48.4063 49.3205 49.5495 50.3187 49.5617 50.3297C49.5584 50.3297 49.5565 50.342 49.5565 50.364C49.5565 50.4958 49.6109 50.9695 49.6109 50.9695L49.6225 51.0666C49.6225 51.0666 50.322 51.0064 50.3963 50.9987C50.4603 51.0523 51.7102 52.1263 51.7102 52.1263C51.7102 52.1443 51.9353 52.605 51.9353 52.605L52.002 52.7408L53.268 51.2743L52.5544 51.0905C52.5544 51.0821 51.4911 50.1787 51.1965 49.9312C51.2469 49.8731 51.39 49.7106 51.4371 49.6563C51.549 49.6827 54.1265 50.2767 54.1265 50.2767L55.1571 49.0947C55.1571 49.0947 54.3154 49.0359 54.3037 49.0352C54.2883 49.0319 52.2029 48.4982 52.0356 48.4555C52.1144 48.2346 52.1734 48.0115 52.1734 47.8015C52.1734 47.3757 52.021 46.9919 51.7296 46.7393C51.51 46.5512 51.2631 46.4512 50.9875 46.4378ZM15.0387 46.9819L14.9456 47.0135C14.9456 47.0135 12.8048 47.7607 12.7972 47.7627C12.7964 47.7491 12.1573 47.5926 12.1573 47.5926L12.0758 47.5725C12.0758 47.5725 11.8216 48.1128 11.7892 48.1787C11.7078 48.2058 9.99723 48.781 9.99723 48.781C9.99723 48.781 10.0088 48.7855 10.0101 48.7868C9.92939 48.7907 9.78131 48.8121 9.45891 48.8612C9.45763 48.8612 9.20339 48.9033 9.20339 48.9033L10.298 50.1596C10.298 50.1596 10.5536 49.6193 10.582 49.5567C10.6434 49.5321 11.2699 49.2823 11.3713 49.2423C11.4514 49.3334 12.4576 50.4748 12.5358 50.5652C12.4802 50.6609 12.1547 51.2316 12.1256 51.2852C12.0572 51.3059 11.4812 51.4807 11.4812 51.4807L12.9078 53.1115C12.9078 53.1115 13.0908 52.2783 13.0921 52.2751C13.0947 52.2899 13.4615 51.676 13.4615 51.676C13.4615 51.676 14.0412 50.7133 14.0457 50.7063C14.0522 50.7237 14.6157 50.5024 14.6157 50.5024L14.692 50.474C14.692 50.474 14.5768 49.6971 14.5756 49.6944C14.593 49.697 15.5699 47.6851 15.5699 47.6851L15.599 47.6249L15.0387 46.9819ZM50.2964 47.6475C50.4554 47.6618 50.6118 47.7329 50.7576 47.8584C50.9702 48.0413 51.0921 48.2922 51.0973 48.539V48.5539C51.0973 48.7361 51.0324 48.9086 50.909 49.0527C50.909 49.0533 50.6948 49.311 50.5881 49.4395C50.4557 49.3187 49.4578 48.4134 49.335 48.3016C49.4171 48.204 49.6158 47.9743 49.6158 47.9743C49.776 47.7868 49.9531 47.6766 50.1366 47.652C50.1899 47.6442 50.2433 47.6427 50.2964 47.6475ZM13.7555 48.3715C13.5682 48.6964 13.058 49.5834 12.9559 49.7617C12.8228 49.6112 12.3554 49.079 12.2165 48.9194C12.4232 48.8471 13.4015 48.4981 13.7555 48.3715ZM24.5139 51.4891C24.3182 51.5298 24.1404 51.5427 23.9544 51.5318C24.3452 51.701 24.7416 51.8496 25.1396 51.9937C24.9308 51.8728 24.7388 51.7346 24.5139 51.4891ZM20.4957 51.7278L20.5068 51.9005C20.5068 51.9005 20.5508 52.5513 20.5508 52.5552C20.5416 52.5423 20.1684 53.3051 20.1684 53.3051C20.1684 53.3051 19.9335 53.7839 19.9019 53.8504C19.832 53.8762 19.231 54.1059 19.231 54.1059C19.231 54.1059 19.4244 54.8389 19.427 54.8454C19.4037 54.8415 18.9165 55.8268 18.9165 55.8268C18.9165 55.8268 18.6332 56.3994 18.63 56.4045C18.6228 56.3961 18.1855 56.7176 18.1855 56.7176L18.0523 56.816L19.6463 57.6066C19.6463 57.6066 19.5511 56.8018 19.5492 56.7999C19.5628 56.7999 20.5602 54.7927 20.922 54.0671C21.0144 54.6021 21.7132 58.6396 21.7132 58.6396L22.368 58.9703C22.368 58.9703 23.4308 56.7978 23.4348 56.7868C23.4451 56.8062 23.984 56.5559 23.984 56.5559L24.0596 56.5203C24.0596 56.5203 23.8947 55.8513 23.8934 55.8435C23.9167 55.8435 24.3197 55.0155 24.3197 55.0155C24.3197 55.0155 24.5856 54.4701 24.5876 54.4668C24.5985 54.4687 25.0152 54.1401 25.0152 54.1401L25.1394 54.0418L23.5977 53.2609C23.5977 53.2609 23.6676 54.0508 23.6676 54.0521C23.656 54.0437 22.9359 55.5103 22.9359 55.5103C22.9359 55.5103 22.728 55.9377 22.5866 56.2259C22.4929 55.7083 21.8937 52.4127 21.8937 52.4127L20.4957 51.7278ZM43.7124 52.114L43.5765 52.1735L39.9794 53.7359L40.6115 54.1991C40.6115 54.2255 41.1957 55.5882 41.2468 55.7091C41.2151 55.7801 40.9362 56.376 40.9362 56.376C40.9362 56.376 41.5716 56.6103 41.6446 56.6367C41.6743 56.7111 42.287 58.2114 42.2883 58.2166C42.2799 58.2179 42.2366 58.7639 42.2366 58.7639L42.223 58.9314L45.9039 57.3277L45.4297 56.2155C45.4297 56.2155 44.7588 56.9899 44.7556 56.9931C44.7517 56.9841 43.9004 57.3567 43.9004 57.3567C43.9004 57.3567 43.5683 57.5024 43.4391 57.5599C43.399 57.463 42.8037 56.0432 42.7365 55.8798C42.8864 55.8145 43.6539 55.4845 43.6558 55.4839C43.6571 55.4872 44.2135 55.4554 44.2135 55.4554L44.3558 55.449L43.866 54.269L43.3311 54.7651C43.3297 54.7613 42.4416 55.1455 42.4416 55.1455C42.4416 55.1455 42.4292 55.1507 42.4254 55.152C42.3588 54.9983 41.9045 53.9446 41.8392 53.7902C41.9788 53.7307 43.1539 53.2261 43.1978 53.2054C43.2521 53.2099 44.1954 53.2617 44.1954 53.2617L43.7122 52.1129L43.7124 52.114ZM32.9693 54.9857C31.5667 54.9722 30.2891 55.8329 29.8621 57.0779C29.8608 57.0837 29.7935 57.3361 29.7903 57.3419C29.7864 57.3315 29.3853 57.7482 29.3853 57.7482L29.3271 57.8109L29.7716 58.3951C30.0112 59.7997 31.3637 60.8645 32.9047 60.878C33.9875 60.8891 34.3032 60.7323 34.6727 60.5481L34.8875 60.4407C34.8875 60.4407 34.8965 58.4695 34.8965 58.4604C34.9107 58.4604 35.1792 57.983 35.1792 57.983L35.2634 57.8348L33.2171 57.8199C33.2171 57.8199 33.5645 58.4883 33.5677 58.4947C33.5567 58.4947 33.5542 58.9967 33.5542 58.9967L33.5516 59.9775C33.4391 60.0105 33.3084 60.1159 32.9117 60.112C31.9374 60.105 31.364 59.2311 31.2277 58.3705C31.2361 58.364 31.6657 57.9364 31.6657 57.9364L31.7304 57.8711C31.7304 57.8711 31.3338 57.4013 31.2795 57.336C31.284 57.316 31.3092 57.1653 31.3092 57.1653C31.5083 56.4766 32.0512 55.7362 32.9732 55.7582C33.6368 55.7724 34.1316 55.9345 34.366 56.2143C34.3648 56.2131 34.4475 56.3159 34.4475 56.3159L34.6196 56.5274L34.652 55.4723L34.5848 55.4276C34.1092 55.1046 33.6994 54.9928 32.9693 54.9857Z" fill="black"/>
<path d="M30.1871 11.8821C30.1632 11.8846 30.1412 11.8878 30.1173 11.8905C29.9893 11.9021 29.8577 11.919 29.7297 11.9332C29.7349 11.9351 29.7472 11.9396 29.7543 11.9422C29.9139 12.0036 30.3845 12.1908 30.4517 12.3045L30.6917 12.2682C30.6917 12.2682 30.3971 12.03 30.1871 11.8821ZM28.967 12.0328C28.7822 12.0612 28.6019 12.0969 28.4197 12.1305C28.4229 12.1305 28.4261 12.1324 28.4294 12.1338C28.7653 12.2242 29.0781 12.4212 29.4166 12.5866L29.7433 12.5575C29.7433 12.5575 29.4387 12.2971 28.9993 12.051C28.9871 12.0458 28.978 12.0386 28.967 12.0328ZM27.2061 12.3873C26.9579 12.4487 26.7147 12.5155 26.4679 12.5853C26.4717 12.5853 26.4789 12.5866 26.4821 12.5866C26.6449 12.6137 26.961 12.6799 27.0799 12.8156C27.4481 12.7497 27.7032 12.9348 27.937 13.055L28.4882 12.8783C28.4882 12.8783 27.773 12.5258 27.5107 12.5199C27.3989 12.4663 27.3281 12.4235 27.2455 12.4002C27.2319 12.3969 27.2202 12.3892 27.2061 12.3873ZM25.458 12.9022C25.2454 12.974 25.0353 13.0492 24.8233 13.1287C24.8285 13.1287 24.8428 13.1332 24.8518 13.1351C24.9539 13.159 25.2971 13.2447 25.4729 13.3958C25.858 13.3306 26.2373 13.521 26.5132 13.6967L27.0695 13.5006C27.0081 13.3986 26.2901 13.0866 25.8882 13.0789C25.7545 12.9736 25.615 12.9378 25.4903 12.9107C25.4806 12.9094 25.4689 12.9042 25.458 12.9022ZM24.1622 13.5356C24.0557 13.5301 23.9417 13.5486 23.8471 13.5446C23.8349 13.544 23.8186 13.5472 23.807 13.5446L23.0753 13.8772C23.0889 13.8772 23.1129 13.8753 23.1433 13.872C23.3468 13.8506 23.8809 13.7803 23.9487 13.9347C24.3629 13.894 24.8089 14.1466 25.0782 14.3178L25.6695 14.165C25.3504 13.8775 24.7679 13.6514 24.4333 13.6695C24.368 13.5706 24.2687 13.5411 24.1622 13.5356ZM22.4769 14.3876L21.7653 14.7732C21.8564 14.779 22.4576 14.7909 22.5365 14.9673C22.9473 14.9324 23.4011 15.0755 23.6634 15.2397L24.1803 14.8463C23.7745 14.6279 23.1402 14.5061 22.8101 14.5222C22.6434 14.4646 22.6675 14.4115 22.4769 14.3876ZM20.6888 15.4958L20.1952 15.9138C20.4304 15.9874 20.5097 16.1851 20.6539 16.3879C21.1358 16.2975 21.8445 16.1067 22.5358 16.2618L23.0553 15.8012C22.2749 15.6636 21.4471 15.7024 21.0265 15.8129C20.9257 15.6565 20.6888 15.4958 20.6888 15.4958ZM19.215 17.0284L18.8049 17.4056C19.042 17.4779 19.117 17.7468 19.2649 17.9445C19.6635 17.7468 20.5437 17.6057 21.4315 17.7265L21.8901 17.1352C20.5437 17.0396 19.9889 17.2098 19.5702 17.414C19.4261 17.1704 19.215 17.0284 19.215 17.0284ZM17.9529 18.594L17.6288 19.1058C17.9253 19.2686 17.8974 19.4612 18.0402 19.6628C18.4427 19.4612 19.2621 19.0775 20.1537 19.2009L20.6098 18.6115C19.215 18.6419 18.447 18.7633 18.3456 19.087C18.2053 18.8428 17.9529 18.594 17.9529 18.594ZM16.846 20.1202L16.6027 20.6991C16.8185 20.8614 16.9509 21.259 17.1002 21.4612C17.4995 21.2545 18.0155 20.8617 18.9033 20.9909L19.3237 20.3045C18.1924 20.3045 17.4637 20.5352 17.3616 20.8615C17.2208 20.5236 16.846 20.1202 16.846 20.1202ZM42.334 20.2819V29.0221H39.4797L41.1313 30.585H43.8297V21.6801L42.334 20.2819ZM15.9506 21.7433L15.7099 22.3877C16.0097 22.5505 16.0582 22.9475 16.2036 23.1439C16.6029 22.945 17.2042 22.5748 18.101 22.6943L18.4698 22.0144C17.3817 22.0144 16.6285 22.249 16.5316 22.5746C16.3526 22.1275 15.9506 21.7433 15.9506 21.7433ZM15.0669 23.7339L14.8683 24.4016C15.1649 24.569 15.3038 24.9654 15.4479 25.1695C15.8491 24.9654 16.3406 24.634 17.2322 24.7568L17.5181 24.1124C16.1626 24.1958 15.8101 24.3102 15.7099 24.6319C15.5071 24.232 15.0669 23.7339 15.0669 23.7339ZM28.8595 24.1409C25.3789 24.1409 23.9584 25.3474 23.9552 28.3402L23.9513 29.0221H20.5123L22.0805 30.4919H25.3509L25.3541 29.9426C25.3541 26.8782 25.6533 24.9465 28.9038 24.623V24.141L28.8595 24.1409ZM34.2608 24.157V29.7788C34.2608 30.8338 35.9571 31.5106 35.9758 31.5178L36.6739 31.7908C36.2385 31.4522 35.8309 30.9891 35.8309 30.4063V24.7164L36.1001 24.7326C37.1441 24.8224 37.896 25.0986 38.431 25.5024C37.5646 24.6366 36.1669 24.1629 34.2608 24.157ZM51.2784 24.978L51.1956 25.26C51.4611 25.5489 51.7173 25.8565 51.9299 26.3042C51.9441 26.3333 51.9589 26.3579 51.9719 26.3883C51.8653 26.0382 51.7466 25.6937 51.6238 25.3519C51.6051 25.3293 51.5805 25.3021 51.5598 25.2782C51.4874 25.1935 51.4018 25.1001 51.2784 24.978ZM14.2512 25.623L14.1179 26.2913C14.419 26.4566 14.5529 26.853 14.7008 27.0566C15.0981 26.853 15.7656 26.4874 16.6552 26.6063L16.8784 25.9419C15.5707 26.0207 14.9983 26.1486 14.8949 26.4756C14.7501 26.2326 14.2512 25.623 14.2512 25.623ZM50.936 25.7906L50.8345 26.092C51.2117 26.4163 51.4655 26.6854 51.7039 27.2591L51.8462 26.9641C51.6033 26.4692 51.4761 26.3371 50.936 25.7906ZM50.5304 26.671L50.3441 26.9712C50.8525 27.4247 51.0767 27.6753 51.3132 28.3382L51.4322 28.0852L51.418 28.124C51.7036 28.3605 52.027 28.738 52.2214 29.7802L52.3689 29.1889C52.3115 28.4382 51.6133 27.6049 51.5131 27.8633L51.4704 27.981C51.2307 27.499 51.0731 27.1672 50.5304 26.671ZM51.9504 26.7933L51.8101 27.1116C51.9645 27.2221 52.1188 27.3855 52.2777 27.6246C52.2926 27.6459 52.3056 27.657 52.3198 27.6796C52.2688 27.4599 52.2124 27.2387 52.1516 27.0203L52.1044 26.9666L51.9504 26.7933ZM49.9701 27.5935L49.7172 27.9299C50.0997 28.1664 50.497 28.7381 50.74 29.3157L50.8642 29.1113C51.0748 29.2934 51.4519 29.5692 51.6988 30.9964L51.8896 30.4996C51.6796 29.1422 51.0466 28.631 50.9956 28.9346L50.9069 29.044L50.9749 28.9346C50.7313 28.4462 50.436 27.9159 49.9701 27.5935ZM13.6534 27.6026L13.5136 28.3155C13.8095 28.5901 14.0307 29.0998 14.1754 29.306C14.576 29.1018 15.2033 28.5434 16.0877 28.67L16.2269 28.0735C14.9327 28.1718 14.7262 28.3154 14.411 28.701C14.2694 28.4555 13.6534 27.6026 13.6534 27.6026ZM49.2053 28.606L48.887 28.943C49.2695 29.1776 49.8481 29.8062 50.0897 30.385L50.3181 30.0422C50.077 29.5511 49.6725 28.9297 49.2053 28.606ZM48.2097 29.6644L47.8448 29.96C48.111 30.1358 49.0342 30.9131 49.2739 31.4926L49.5527 31.1077C49.3111 30.616 48.6949 29.9926 48.2097 29.6644ZM13.0769 29.8132L12.9733 30.5034C13.4993 30.9557 13.7169 31.3894 13.87 31.578C14.0425 31.2336 14.6966 30.9111 15.5915 30.9854L15.7028 30.3353C14.6413 30.3973 14.1636 30.5718 14.0233 30.8767C13.8683 30.6338 13.0769 29.8132 13.0769 29.8132ZM50.4817 29.8474C50.4648 29.85 50.4486 29.8577 50.4345 29.8708L50.2721 30.1522C50.7276 30.7356 50.9022 31.3922 50.9546 32.2722L51.2774 31.7773C51.2677 30.9166 50.7356 29.8104 50.4817 29.8474ZM49.8749 30.7299L49.5514 31.151C49.7627 31.8566 49.8935 33.0572 49.7778 33.7524L50.1964 33.2018C50.2668 32.4136 50.0202 31.4322 49.8749 30.7299ZM47.0471 30.7719L46.6615 31.1142C47.0466 31.3435 47.8412 32.0802 48.0789 32.6578L48.396 32.322C48.1537 31.8329 47.5155 31.0937 47.0471 30.7719ZM36.7194 31.8284L35.9496 32.0451C35.9328 32.0496 34.2624 32.5338 34.2624 33.6682V40.3658C34.2624 40.8201 34.4479 41.1228 35.3596 41.1228H35.8312C35.8318 41.0802 35.835 41.0354 35.8318 40.9895V38.9621C36.3048 39.3774 36.8014 39.7178 37.1781 39.7604L37.3425 39.6634C37.3489 40.4794 37.2799 40.9625 37.4744 41.5323L37.0726 41.1584V45.2198H26.1277L27.8473 46.8462H28.5919C28.703 47.0258 28.8308 47.1653 28.9878 47.2092L29.3437 46.8462H38.3981V42.3928L37.7433 41.7847L38.2654 41.566C37.8758 41.1577 37.8922 39.9556 37.9322 39.305L37.7511 39.4117C37.0255 39.2915 36.24 38.5668 35.8769 38.0745L35.8317 38.0933V34.2971C35.8317 32.9286 37.7278 32.4035 37.7278 32.4035C37.7278 32.4035 37.2124 32.1993 36.7194 31.8284ZM45.9543 31.851L45.5674 32.1933C45.9537 32.4239 46.7471 33.1612 46.9861 33.7374L47.2423 33.4638C47.3192 34.3838 47.314 35.4175 47.2087 35.9002L47.6841 35.5204C47.7617 34.6909 47.7105 33.7314 47.5619 33.0298L47.2268 33.275C46.9496 32.793 46.3839 32.1482 45.9543 31.851ZM48.7795 31.9875L48.4191 32.3453C48.5386 32.6541 48.6312 33.0302 48.5375 34.8936L48.9923 34.4698C49.0052 33.0723 48.93 32.6905 48.7795 31.9875ZM12.7219 32.1564L12.6759 32.8201C12.9382 32.9383 13.4227 33.75 13.5681 33.949C13.6023 33.9122 13.6452 33.7904 13.7343 33.6812C13.8933 33.4899 14.3515 33.2174 15.3362 33.2587L15.3925 32.6499C14.2566 32.6635 13.8933 32.9406 13.7971 33.0523C13.7066 33.1318 13.6715 33.2828 13.647 33.3674C13.4719 32.9042 12.7219 32.1564 12.7219 32.1564ZM44.6749 32.8933L44.2744 33.1928C44.443 33.2399 44.895 33.6915 45.5365 34.6458L45.9202 34.3294C45.9732 35.389 46.0572 36.3931 45.9422 36.8778L46.4041 36.518C46.4972 35.744 46.4732 34.844 46.3621 34.0215L45.9325 34.2997C45.3725 33.4773 44.9987 33.1093 44.6744 32.8885L44.6749 32.8933ZM42.9785 34.191L42.4325 34.5235C42.6793 34.709 43.7937 35.9963 44.3145 35.8018C44.3145 35.8018 44.0791 37.3938 44.1211 38.2175L44.7189 37.8346C44.6994 37.4017 44.7281 35.5749 44.8359 35.1491C44.8579 35.1258 44.5 35.4951 44.3527 35.3917C44.1181 35.2282 43.717 35.0012 42.9785 34.191ZM12.5661 34.2414L12.5803 34.9738C12.8743 35.1502 13.3329 35.6132 13.4679 35.8206C13.6521 35.5105 13.861 35.35 15.1888 35.6304L15.1959 34.9965C13.6297 34.9202 13.6522 35.0621 13.6025 35.2623C13.4681 35.0136 12.5661 34.2414 12.5661 34.2414ZM40.9459 35.2662L40.2026 35.6718C40.6329 36.1163 42.0429 37.2361 42.3317 37.2452L42.3711 37.2148C42.3763 38.1581 42.2577 38.648 42.6189 39.371L43.293 39.0896C42.9047 38.6858 42.9224 37.4798 42.9605 36.8298L42.9372 36.7891C42.6969 36.873 42.3915 36.8005 42.1189 36.5678C41.8475 36.3359 40.9459 35.2662 40.9459 35.2662ZM12.5654 36.4113L12.6049 37.0673C12.9525 37.1494 13.3782 37.3638 13.5261 37.5648C13.9248 37.3606 14.4917 37.379 15.1978 37.7563L15.1791 37.1054C14.3237 36.7217 13.8829 36.79 13.5689 36.9761C13.4248 36.726 12.5654 36.4113 12.5654 36.4113ZM38.3638 36.8531L37.6865 37.1333C38.3003 37.7735 39.1137 38.4758 39.6649 38.5384L39.8305 38.4433C39.8389 39.4054 39.7145 39.8927 40.0769 40.6248L40.7543 40.3427C40.3641 39.9377 40.3811 38.731 40.4198 38.083L40.2413 38.1884C39.5125 38.0715 38.7289 37.3474 38.3638 36.8531ZM12.7161 38.1606L12.885 38.8897C13.274 38.9898 13.5276 39.174 13.6737 39.3775C13.7506 39.1734 13.9988 39.2858 14.3238 39.4299C14.6101 39.5623 14.8237 39.7142 15.1545 39.895L15.1377 39.239C14.4154 38.7751 13.7097 38.4218 13.6077 38.7442C13.4668 38.5006 12.7161 38.1606 12.7161 38.1606ZM13.0513 39.8394L13.1418 40.4999C13.4565 40.6291 13.6984 40.8081 13.8464 41.0284C14.1869 40.9858 14.4885 41.1178 15.2198 41.6418L15.1654 41.0214C14.4186 40.3959 14.0543 40.4319 13.7881 40.4319C13.6427 40.1658 13.0513 39.8394 13.0513 39.8394ZM26.0929 44.8131L25.8801 45.0422C25.9453 45.0732 26.0192 45.1069 26.0929 45.1392V44.8131ZM25.1147 46.087L24.8184 46.5321C25.5427 46.9126 26.2502 46.9409 26.8866 46.9409L26.9241 46.8872C27.1891 47.4726 27.4451 48.0798 28.0873 48.3222L28.4516 47.8997C27.98 47.7097 27.3607 46.9021 27.2457 46.4169L27.2056 46.4758C26.4839 46.6127 25.6297 46.2388 25.1147 46.087ZM24.2517 47.3782L23.9858 47.8486C24.7094 48.0722 25.3389 48.1086 26.1446 48.0181L26.186 47.9443C26.4774 48.4806 26.5525 48.7995 27.3072 49.2427L27.6727 48.821C27.1978 48.6297 26.6213 47.8642 26.5069 47.3783L26.428 47.5038C25.6791 47.6963 24.7692 47.5294 24.2517 47.3782ZM23.597 48.7246L23.3803 49.2182C24.1646 49.4869 24.8929 49.5427 25.4233 49.4322C25.6934 49.8781 25.987 50.2994 26.6344 50.5411L26.8712 50.1194C26.3362 49.899 25.8365 49.6158 25.6614 48.9607C24.9081 49.1513 24.1165 48.8757 23.597 48.7246ZM23.1771 49.8618L23.0341 50.3005C23.7597 50.6758 24.4581 50.6186 24.9873 50.5049C25.2786 50.919 25.5237 51.1515 26.1679 51.3918L26.3989 51.058C25.7121 50.9746 25.4429 50.6234 25.1329 50.1594C24.3846 50.35 23.6921 50.0143 23.1771 49.8618Z" fill="white"/>
</g>
</g>
<defs>
<clipPath id="clip0_446_49344">
<rect width="64.8" height="64" fill="white" transform="translate(0 0.5)"/>
</clipPath>
</defs>
</svg>
