<svg width="83" height="49" viewBox="0 0 83 49" fill="none" xmlns="http://www.w3.org/2000/svg">
<g clip-path="url(#clip0_446_49354)">
<mask id="mask0_446_49354" style="mask-type:luminance" maskUnits="userSpaceOnUse" x="1" y="0" width="81" height="49">
<path d="M81.6861 0.869202H1.271V48.1307H81.6861V0.869202Z" fill="white"/>
</mask>
<g mask="url(#mask0_446_49354)">
<path d="M33.1118 10.6998H22.012L21.9333 48.1307H12.3094V10.7786L1.26855 10.6998V1.00711H33.1118V10.6998Z" fill="black"/>
<path d="M60.7838 9.14342L66.4125 1.08591H76.7646L66.4125 17.9693L77.1385 34.7541H66.6093L60.7445 26.2632L46.1415 48.052H35.7107L55.2733 18.0086L44.4883 1.08591H55.1748L60.7838 9.14342Z" fill="black"/>
<path d="M43.5417 29.9668C42.7937 36.7044 38.346 42.8904 32.2843 45.8652C29.5093 47.1852 26.4588 48.052 23.0737 48.0125V38.6351C28.1514 38.4775 32.2646 35.2072 33.7998 30.7943C34.0555 30.3806 34.0949 29.7108 34.2131 29.2183L34.2917 0.869202H43.5811L43.5417 29.9668Z" fill="black"/>
<path d="M81.6841 3.96215C81.6841 2.52401 80.5032 1.34198 79.0666 1.34198C77.6102 1.34198 76.4293 2.52401 76.449 3.96215C76.449 5.41998 77.6298 6.58232 79.0666 6.58232C80.5032 6.58232 81.6841 5.41998 81.6841 3.96215ZM81.3888 3.96215C81.3888 5.24268 80.3457 6.28681 79.0666 6.28681C77.7873 6.28681 76.7442 5.24268 76.7442 3.96215C76.7442 2.68162 77.7873 1.63749 79.0469 1.63749C80.3457 1.63749 81.3888 2.68162 81.3888 3.96215ZM78.0824 5.34119H78.4565V4.10006H79.4011C80.0112 4.10006 79.8341 4.63197 79.8932 4.96687L79.9521 5.34119H80.3851C80.2277 5.08508 80.2868 5.02598 80.2474 4.65166C80.208 4.15916 80.1883 4.10006 79.8932 3.92275C80.1686 3.70604 80.2868 3.56814 80.2671 3.19383C80.2277 2.54371 79.7947 2.44521 79.342 2.44521H78.0824V5.34119ZM79.3814 2.78012C79.6176 2.78012 79.9718 2.83922 79.9128 3.33174C79.8735 3.70604 79.6373 3.76514 79.3814 3.76514H78.4565V2.76041L79.3814 2.78012Z" fill="black"/>
</g>
</g>
<defs>
<clipPath id="clip0_446_49354">
<rect width="81.2308" height="48" fill="white" transform="translate(0.818848 0.5)"/>
</clipPath>
</defs>
</svg>
