<svg width="87" height="45" viewBox="0 0 87 45" fill="none" xmlns="http://www.w3.org/2000/svg">
<mask id="mask0_446_49409" style="mask-type:luminance" maskUnits="userSpaceOnUse" x="1" y="0" width="86" height="45">
<path d="M86.0767 0.0999756H1.46973V44.9H86.0767V0.0999756Z" fill="white"/>
</mask>
<g mask="url(#mask0_446_49409)">
<path d="M56.3287 21.7137L43.4854 0.384399L30.6421 21.7137H56.3287Z" fill="black"/>
<path d="M19.3463 40.4732L16.8525 44.6141L70.118 44.6149L67.6234 40.4732H19.3463Z" fill="black"/>
<path d="M16.6556 24.8573C15.5674 24.8573 14.395 28.3739 12.7213 32.0994C11.6111 34.5484 10.7113 36.8926 10.3559 37.6041C9.93745 37.5623 9.51903 37.5198 9.07936 37.5198C8.57665 37.5198 8.05344 37.5623 7.53023 37.6041C7.21661 36.7255 6.27423 34.1087 5.20655 31.4714C3.93005 28.3322 2.8001 24.899 1.75293 24.8573V24.6689C2.82136 24.7115 3.86702 24.7532 4.91344 24.7532C5.66749 24.7532 6.42079 24.7115 7.15359 24.6689V24.8573C6.88097 24.9416 6.58861 24.9621 6.58861 25.6113C6.58861 27.2645 9.79089 34.5484 10.1258 35.5318C10.586 34.3813 13.2438 28.3739 13.2438 25.8202C13.2438 25.1086 12.9514 24.9416 12.5117 24.8573V24.6689C13.2233 24.7115 13.956 24.7532 14.6881 24.7532C15.3366 24.7532 16.0064 24.7115 16.6556 24.6689V24.8573Z" fill="black"/>
<path d="M28.5247 34.4228C28.0219 35.574 27.6453 36.4526 27.4365 37.7922C27.2474 37.6464 26.5989 37.5833 25.8463 37.5621C25.0915 37.5203 24.2342 37.5203 23.5432 37.5203H21.0737C19.3993 37.5203 18.0597 37.5833 17.8501 37.6038V37.4155C18.8761 37.4155 18.8761 35.6371 18.8761 31.1363C18.8761 26.3021 18.8548 24.9618 17.8501 24.857V24.6694C18.2898 24.6694 18.813 24.6899 19.441 24.7112C20.0895 24.7317 20.8436 24.753 21.7434 24.753H23.5432C25.5107 24.753 26.9755 24.6899 27.8549 24.4811C27.7083 25.0666 27.4987 25.9247 27.4987 27.3067V27.7252H27.0598C27.0598 25.7994 25.4697 25.507 23.3131 25.507C22.8734 25.507 22.4755 25.548 22.1406 25.6316C21.9735 26.9711 21.9735 29.755 21.9735 30.2789C22.2462 30.2994 22.559 30.3412 23.1665 30.3412C25.4477 30.3412 25.7203 29.8392 25.8038 28.8133H26.2435C26.16 29.6084 26.0969 30.4042 26.0969 31.2205C26.0969 32.6018 26.0969 31.7438 26.1174 32.8319H25.6573C25.6573 31.7225 25.2176 31.1158 23.1665 31.1158C22.6646 31.1158 22.2462 31.1158 21.9735 31.1363C21.9735 31.8068 21.9735 35.1131 22.0366 36.4944C22.4967 36.5157 22.9569 36.5779 23.4384 36.5779C26.7667 36.5779 27.457 35.5315 28.148 34.2337L28.5247 34.4228Z" fill="black"/>
<path d="M30.314 37.4156C31.3399 37.3951 31.3399 35.5741 31.3399 31.1363C31.3399 26.6993 31.3399 24.8988 30.314 24.8571V24.6695C30.7119 24.69 31.1721 24.7113 31.6118 24.7318C32.0507 24.7318 32.4904 24.753 32.8252 24.753C33.4532 24.753 34.186 24.69 35.0229 24.6065C35.8392 24.5434 36.7603 24.4804 37.7027 24.4804C38.2889 24.4804 41.7 24.4804 41.7 27.5787C41.7 30.0481 39.2093 30.8857 38.0368 31.0945C38.4765 31.5973 39.712 33.4805 41.072 35.1967C42.265 36.704 42.8095 37.3738 43.3957 37.4156V37.6039C43.1861 37.5834 42.9135 37.5621 42.6629 37.5409C42.3903 37.5204 42.1184 37.5204 41.8466 37.5204C40.9885 37.5204 40.0886 37.5621 39.2305 37.6874C38.9792 37.2903 38.1841 35.9507 37.2212 34.5064C36.3206 33.1669 35.6091 31.8273 34.7928 31.8273C34.4997 31.8273 34.6675 31.8273 34.4374 31.8691C34.4374 35.3432 34.4374 37.4156 35.5043 37.4156V37.6039C34.6675 37.5409 33.7251 37.5204 32.9095 37.5204C32.0302 37.5204 31.1303 37.5409 30.314 37.6039V37.4156ZM35.0441 31.0945C36.9069 31.0945 38.3512 30.6556 38.3512 28.3737C38.3512 26.4692 37.2212 25.4228 35.881 25.4228C35.4208 25.4228 34.9606 25.5063 34.5209 25.5899C34.4374 27.0972 34.4374 30.4248 34.4374 31.074C34.6044 31.074 34.71 31.0945 35.0441 31.0945Z" fill="black"/>
<path d="M54.8427 27.5787C54.8427 26.1131 54.0059 25.7159 51.7452 25.7159C51.5364 25.7159 51.3473 25.7372 51.1385 25.7577C51.0329 26.2809 51.0329 28.395 51.0329 31.1363C51.0329 35.5733 51.0329 37.3951 52.1006 37.4156V37.6039C51.2843 37.5409 50.3844 37.5204 49.5051 37.5204C48.6257 37.5204 47.7266 37.5409 46.9103 37.6039V37.4156C47.978 37.3951 47.978 35.5733 47.978 31.1363C47.978 28.395 47.978 26.2809 47.8732 25.7577C47.6636 25.7372 47.4753 25.7159 47.2657 25.7159C44.8175 25.7159 44.0004 26.8246 43.6868 28.2067L43.1636 28.0806C43.4354 27.1595 43.6868 25.8404 43.6868 24.4804C43.8128 24.5647 44.5031 24.6065 45.4037 24.627C46.3036 24.6695 47.4123 24.6695 48.3334 24.6695H50.6153C53.1265 24.6695 54.864 24.6482 55.7426 24.4804C55.6173 25.0879 55.4085 25.9665 55.4085 27.7457V28.1436H54.8427V27.5787Z" fill="black"/>
<path d="M67.904 34.4228C67.402 35.574 67.0246 36.4526 66.815 37.7922C66.6275 37.6464 65.9782 37.5833 65.2242 37.5621C64.4716 37.5203 63.6135 37.5203 62.9225 37.5203H60.4523C58.7778 37.5203 57.4383 37.5833 57.2295 37.6038V37.4155C58.2546 37.4155 58.2546 35.6371 58.2546 31.1363C58.2546 26.3021 58.2341 24.9618 57.2295 24.857V24.6694C57.6684 24.6694 58.1924 24.6899 58.8196 24.7112C59.4681 24.7317 60.2222 24.753 61.1228 24.753H62.9225C64.89 24.753 66.3549 24.6899 67.2342 24.4811C67.0877 25.0666 66.8781 25.9247 66.8781 27.3067V27.7252H66.4392C66.4392 25.7994 64.8483 25.507 62.6924 25.507C62.2527 25.507 61.8548 25.548 61.5199 25.6316C61.3529 26.9711 61.3529 29.755 61.3529 30.2789C61.6247 30.2994 61.9391 30.3412 62.5458 30.3412C64.827 30.3412 65.0989 29.8392 65.1832 28.8133H65.6228C65.5385 29.6084 65.4763 30.4042 65.4763 31.2205C65.4763 32.6018 65.4763 31.7438 65.4968 32.8319H65.0358C65.0358 31.7225 64.5969 31.1158 62.5458 31.1158C62.0431 31.1158 61.6247 31.1158 61.3529 31.1363C61.3529 31.8068 61.3529 35.1131 61.4151 36.4944C61.8761 36.5157 62.3363 36.5779 62.8177 36.5779C66.1453 36.5779 66.8363 35.5315 67.5266 34.2337L67.904 34.4228Z" fill="black"/>
<path d="M68.6372 37.4154C69.0557 37.4154 69.2022 37.2483 69.5371 36.956C70.2069 36.3485 74.5816 31.6806 74.6651 31.5971C74.2672 31.1156 72.6346 28.981 70.6465 26.4273C69.4953 24.9617 69.4118 25.0042 68.8461 24.8569V24.6693C69.9145 24.7111 70.9814 24.7529 72.0483 24.7529C72.9482 24.7529 73.9111 24.7111 74.7912 24.6693V24.8569C74.5391 24.8994 74.246 24.9617 74.246 25.2761C74.246 26.1547 76.5279 28.9385 76.9676 29.546C77.5751 28.8345 79.5418 26.1129 79.5418 25.4644C79.5418 24.8994 79.1652 24.8994 78.8516 24.8569V24.6693C79.6041 24.6906 80.3582 24.7529 81.1327 24.7529C81.823 24.7529 82.5558 24.7111 83.2256 24.6693V24.8569C83.016 24.8782 82.7646 24.9617 82.4723 25.0877C81.9696 25.2966 79.2275 28.5831 77.512 30.1945C77.9305 30.6965 80.0445 33.3558 82.1996 35.9293C83.3304 37.2909 83.4556 37.3531 83.9789 37.4154V37.6045C82.8481 37.5202 81.6977 37.5202 80.567 37.5202C79.7097 37.5202 78.8311 37.562 77.9722 37.6045V37.4154C78.2646 37.4154 78.5167 37.3736 78.5167 37.019C78.5167 36.3485 75.6698 33.0414 75.1671 32.2456C74.6234 32.9161 72.3627 35.804 72.3627 36.9347C72.3627 37.4154 72.7811 37.4154 73.053 37.4154V37.6045C72.3415 37.562 71.6504 37.5202 70.9397 37.5202C70.1651 37.5202 69.3905 37.562 68.6372 37.6045V37.4154Z" fill="black"/>
<path d="M85.0082 26.0899C84.5488 26.0899 84.2222 25.7459 84.2222 25.291C84.2222 24.8096 84.5852 24.4914 85.0082 24.4914C85.4274 24.4914 85.7903 24.8096 85.7903 25.291C85.7903 25.7717 85.4274 26.0899 85.0082 26.0899ZM85.0082 24.6304C84.6619 24.6304 84.3931 24.9015 84.3931 25.291C84.3931 25.654 84.6277 25.9509 85.0082 25.9509C85.3499 25.9509 85.6195 25.6821 85.6195 25.291C85.6195 24.9015 85.3499 24.6304 85.0082 24.6304ZM84.8502 25.7482H84.7044V24.8635H85.0401C85.2542 24.8635 85.3628 24.9379 85.3628 25.1179C85.3628 25.2781 85.2649 25.3442 85.1327 25.3594L85.3803 25.7482H85.2155L84.9869 25.37H84.8502V25.7482ZM85.0127 25.2462C85.1213 25.2462 85.2178 25.2356 85.2178 25.1065C85.2178 25.0002 85.113 24.9873 85.0257 24.9873H84.8502V25.2462H85.0127Z" fill="black"/>
</g>
</svg>
