<svg width="460" height="460" viewBox="0 0 460 460" fill="none" xmlns="http://www.w3.org/2000/svg">
<g clip-path="url(#clip0_807_9371)">
<path d="M90.679 243.157L89.9034 242.749C89.5768 242.586 39.2041 216.338 39 155.148V112.164H145.338V153.352V154.985C145.215 216.297 94.8019 242.586 94.4345 242.79L92.1894 243.974L90.679 243.157Z" fill="#FEFEFE"/>
<path d="M142.152 153.391L142.111 115.387H42.2227V153.391V154.983C42.2635 214.295 91.2891 239.849 91.4524 239.93L92.1872 240.338L92.9219 239.93C93.0852 239.849 142.07 214.295 142.152 155.023V153.391Z" fill="#FEFEFE"/>
<path d="M110.189 153.389C110.801 154.328 111.25 155.471 111.455 156.613C111.985 159.838 110.434 163.267 104.515 163.594C104.433 168.451 103.209 170.411 97.0857 170.533C97.6163 175.677 94.9222 177.35 92.0239 177.35C89.0848 177.35 86.4315 175.677 86.9621 170.533C80.7982 170.411 79.6144 168.451 79.5328 163.594C73.6138 163.267 72.0218 159.879 72.5932 156.613C72.7565 155.471 73.2056 154.368 73.8587 153.389H42.2227V154.981C42.2635 214.293 91.2891 239.847 91.4524 239.928L92.1872 240.336L92.9628 239.928C93.0852 239.847 142.111 214.293 142.193 155.021V153.389H110.189ZM69.246 207.802C70.4298 207.19 71.3278 205.394 71.5319 204.129C71.8177 202.537 72.1442 201.884 73.0015 201.843C73.8587 201.802 74.1853 202.537 74.471 204.129C74.6751 205.353 75.5732 207.149 76.757 207.802C77.4917 208.211 79.8593 208.252 79.3695 209.639C79.0429 210.293 78.6347 211.558 77.9816 210.986C77.3284 210.415 76.2263 208.905 75.7773 208.823C75.3691 208.741 75.4099 209.394 75.5732 209.599C75.8181 209.884 76.5937 210.946 77.0019 211.476C77.5326 212.089 77.6958 213.232 76.757 213.64C75.8181 214.089 74.8384 213.517 74.8792 213.028C74.92 212.252 74.471 210.088 74.0628 210.088C73.7362 210.088 73.7362 210.66 73.7771 211.272C73.6546 212.538 74.5118 213.599 74.3894 214.252C74.2669 214.905 74.1444 215.599 73.0015 215.558C71.8585 215.518 71.736 214.905 71.6136 214.252C71.5319 213.599 72.3891 212.578 72.2259 211.272C72.2667 210.66 72.2667 210.088 71.9401 210.088C71.5319 210.088 71.0421 212.252 71.1237 213.028C71.1645 213.517 70.1848 214.089 69.246 213.64C68.3071 213.191 68.4704 212.048 69.001 211.476C69.4501 210.986 70.1848 209.884 70.4298 209.599C70.593 209.354 70.6747 208.741 70.2256 208.823C69.7766 208.905 68.6745 210.415 68.0622 210.986C67.409 211.558 67.0008 210.252 66.6743 209.639C66.1436 208.252 68.5112 208.17 69.246 207.802ZM70.0624 203.72C70.7971 203.639 70.4298 204.414 70.3481 205.108C70.2665 205.802 70.1032 205.884 69.3684 204.904C68.6336 203.925 69.246 203.802 70.0624 203.72ZM75.9405 203.802C76.757 203.884 77.3693 204.006 76.6345 204.986C75.8997 205.966 75.7364 205.884 75.6548 205.19C75.5323 204.496 75.165 203.72 75.9405 203.802ZM110.801 210.088C110.393 210.088 109.944 212.252 109.985 213.028C110.026 213.517 109.046 214.089 108.107 213.64C107.168 213.191 107.332 212.048 107.862 211.476C108.311 210.986 109.046 209.884 109.291 209.599C109.454 209.354 109.536 208.741 109.087 208.823C108.679 208.905 107.536 210.415 106.883 210.986C106.229 211.558 105.821 210.252 105.495 209.639C105.005 208.252 107.372 208.211 108.107 207.802C109.291 207.19 110.189 205.394 110.393 204.129C110.679 202.537 111.006 201.884 111.863 201.843C112.679 201.802 113.047 202.537 113.332 204.129C113.536 205.353 114.434 207.149 115.618 207.802C116.353 208.211 118.721 208.252 118.231 209.639C117.904 210.293 117.455 211.558 116.802 210.986C116.149 210.415 115.047 208.905 114.639 208.823C114.19 208.741 114.271 209.394 114.434 209.599C114.679 209.884 115.414 210.946 115.863 211.476C116.394 212.089 116.557 213.232 115.618 213.64C114.679 214.089 113.7 213.517 113.74 213.028C113.781 212.252 113.291 210.088 112.883 210.088C112.557 210.088 112.557 210.66 112.598 211.272C112.475 212.538 113.332 213.599 113.21 214.252C113.087 214.905 112.965 215.599 111.822 215.558C110.679 215.518 110.556 214.905 110.434 214.252C110.312 213.599 111.169 212.578 111.046 211.272C111.128 210.66 111.128 210.088 110.801 210.088ZM108.924 203.72C109.699 203.639 109.291 204.414 109.209 205.108C109.128 205.802 108.924 205.884 108.23 204.904C107.495 203.925 108.107 203.802 108.924 203.72ZM114.761 203.802C115.577 203.884 116.19 204.006 115.455 204.986C114.72 205.966 114.516 205.884 114.434 205.19C114.394 204.496 113.985 203.72 114.761 203.802ZM115.455 165.88C114.72 166.859 114.516 166.778 114.434 166.084C114.353 165.39 113.945 164.614 114.72 164.696C115.577 164.778 116.19 164.9 115.455 165.88ZM108.924 164.614C109.699 164.533 109.291 165.308 109.209 166.002C109.128 166.696 108.924 166.778 108.23 165.798C107.495 164.818 108.107 164.696 108.924 164.614ZM108.107 168.696C109.291 168.084 110.189 166.288 110.393 165.063C110.679 163.471 111.006 162.818 111.863 162.777C112.679 162.777 113.047 163.471 113.332 165.063C113.536 166.329 114.434 168.084 115.618 168.696C116.353 169.105 118.721 169.145 118.231 170.533C117.904 171.186 117.455 172.452 116.802 171.88C116.149 171.309 115.047 169.799 114.639 169.717C114.19 169.635 114.271 170.288 114.434 170.492C114.679 170.778 115.414 171.88 115.863 172.37C116.394 172.983 116.557 174.126 115.618 174.575C114.679 175.024 113.7 174.452 113.74 173.921C113.781 173.146 113.291 170.982 112.883 170.982C112.557 170.982 112.557 171.554 112.598 172.166C112.475 173.432 113.332 174.452 113.21 175.146C113.087 175.799 112.965 176.493 111.822 176.452C110.679 176.411 110.556 175.799 110.434 175.146C110.312 174.493 111.169 173.472 111.046 172.166C111.087 171.554 111.087 170.982 110.761 170.982C110.352 170.982 109.903 173.187 109.944 173.921C109.985 174.411 109.005 174.983 108.066 174.575C107.128 174.126 107.291 172.983 107.822 172.411C108.271 171.921 109.005 170.819 109.25 170.533C109.414 170.329 109.495 169.676 109.046 169.758C108.638 169.839 107.495 171.35 106.842 171.921C106.189 172.493 105.78 171.227 105.454 170.574C105.005 169.105 107.372 169.064 108.107 168.696ZM111.863 184.29C111.332 178.82 114.761 177.228 118.884 177.554C118.353 172.084 121.129 170.288 126.028 170.492C125.374 164.084 129.701 163.349 133.049 163.553C132.559 158.777 135.947 156.818 138.233 156.573H138.968C138.641 178.493 131.334 195.475 122.517 208.129C118.884 207.231 118.272 204.251 118.557 201.598C113.169 202.251 111.006 198.332 111.74 194.658C109.699 195.393 105.291 194.332 104.719 190.454C104.188 186.617 107.332 184.29 111.863 184.29ZM95.3304 184.249C96.1468 184.331 96.7591 184.453 96.0243 185.392C95.2896 186.372 95.0855 186.29 95.0038 185.596C94.963 184.943 94.5956 184.167 95.3304 184.249ZM89.493 184.167C90.2278 184.086 89.8604 184.861 89.7788 185.555C89.6971 186.249 89.493 186.331 88.7991 185.351C88.0643 184.371 88.6766 184.249 89.493 184.167ZM88.6766 188.249C89.8604 187.637 90.7585 185.841 90.9626 184.576C91.2483 182.984 91.5749 182.33 92.4321 182.29C93.2485 182.249 93.6159 182.984 93.9016 184.576C94.1058 185.8 95.0038 187.596 96.1876 188.249C96.9224 188.617 99.29 188.698 98.8001 190.086C98.4736 190.739 98.0245 192.005 97.4122 191.433C96.7591 190.862 95.6569 189.352 95.2079 189.27C94.7589 189.188 94.8405 189.841 95.0038 190.046C95.2487 190.331 95.9835 191.393 96.4325 191.923C96.9632 192.536 97.1265 193.638 96.1876 194.087C95.2487 194.536 94.269 193.964 94.3099 193.434C94.3507 192.658 93.8608 190.495 93.4526 190.495C93.1261 190.495 93.1261 191.066 93.1669 191.678C93.0444 192.985 93.9016 194.005 93.7792 194.658C93.6567 195.311 93.5343 196.005 92.3913 195.965C91.2483 195.924 91.1258 195.311 91.0034 194.658C90.8809 194.005 91.7382 192.985 91.6157 191.678C91.6565 191.066 91.6565 190.495 91.3299 190.495C90.9217 190.495 90.4727 192.658 90.5135 193.434C90.5544 193.923 89.5747 194.495 88.6358 194.087C87.6969 193.638 87.8602 192.495 88.3909 191.923C88.7991 191.433 89.5747 190.331 89.8196 190.046C89.9829 189.841 90.0645 189.188 89.6155 189.27C89.1664 189.352 88.0643 190.862 87.452 191.433C86.7988 192.005 86.3906 190.739 86.0233 190.086C85.5742 188.658 87.9418 188.617 88.6766 188.249ZM86.9213 208.905C86.4723 204.782 88.9623 202.088 92.3096 202.088C95.6569 202.088 98.147 204.823 97.698 208.905C101.372 207.843 106.229 209.639 105.046 215.926C109.25 214.497 112.475 216.701 112.679 220.13C103.413 229.805 94.6772 235.152 92.1464 236.622C89.5747 235.152 81.0431 229.886 71.9401 220.457C71.9401 216.824 75.2874 214.456 79.6144 215.926C78.3898 209.639 83.2474 207.843 86.9213 208.905ZM80.0226 190.495C79.4919 194.373 75.0425 195.434 73.0015 194.699C73.7362 198.373 71.6136 202.292 66.1844 201.639C66.4701 204.374 65.8987 207.476 61.8982 208.252C53.1218 195.597 45.7741 178.575 45.4475 156.613C45.4883 156.613 45.5291 156.613 45.57 156.613H46.5905C48.9172 156.858 52.3054 158.818 51.7747 163.594C55.122 163.39 59.449 164.124 58.7959 170.533C63.6535 170.329 66.4701 172.125 65.8987 177.595C70.0215 177.269 73.4505 178.861 72.9198 184.331C77.4509 184.29 80.5533 186.617 80.0226 190.495ZM69.4909 166.002C69.4092 166.696 69.2051 166.778 68.4704 165.798C67.7764 164.818 68.3887 164.696 69.2051 164.614C69.9807 164.533 69.5725 165.308 69.4909 166.002ZM75.0425 164.696C75.8589 164.778 76.4712 164.9 75.7364 165.88C75.0017 166.859 74.8384 166.778 74.7567 166.084C74.6751 165.39 74.3077 164.614 75.0425 164.696ZM73.6138 165.023C73.8179 166.288 74.7159 168.043 75.8997 168.656C76.6345 169.064 79.0021 169.105 78.5123 170.492C78.1857 171.146 77.7367 172.411 77.0835 171.84C76.4304 171.268 75.3282 169.758 74.8792 169.676C74.471 169.594 74.5118 170.248 74.7159 170.452C74.9608 170.737 75.6956 171.84 76.1447 172.329C76.6753 172.942 76.8386 174.085 75.8997 174.493C74.9608 174.942 73.9812 174.37 74.022 173.84C74.0628 173.064 73.5729 170.901 73.1647 170.901C72.8382 170.901 72.8382 171.472 72.879 172.084C72.7565 173.35 73.5729 174.37 73.4913 175.064C73.3688 175.718 73.2464 176.411 72.1034 176.371C70.9604 176.33 70.838 175.718 70.7155 175.064C70.593 174.411 71.4911 173.391 71.3278 172.084C71.3686 171.472 71.3686 170.901 71.0421 170.901C70.6339 170.901 70.1848 173.105 70.1848 173.84C70.2256 174.33 69.246 174.901 68.3071 174.493C67.4498 174.085 67.5723 172.983 68.1438 172.37C68.5928 171.88 69.3276 170.778 69.5725 170.492C69.7766 170.288 69.8174 169.635 69.3684 169.717C68.9602 169.799 67.8172 171.309 67.2049 171.88C66.5518 172.452 66.1028 171.186 65.817 170.533C65.3272 169.145 67.6948 169.105 68.4295 168.696C69.6133 168.084 70.5114 166.288 70.7155 165.063C71.0012 163.471 71.3278 162.818 72.185 162.777C73.0015 162.737 73.328 163.431 73.6138 165.023Z" fill="#373435"/>
<path d="M142.152 115.387H42.2227V150.166H142.152V115.387Z" fill="#373435"/>
<path d="M45.4453 118.574V146.904ZM45.4453 146.945H138.966V118.574H45.4453V146.945ZM77.4079 138.291C77.4079 138.862 76.9181 139.352 76.2649 139.597V142.005C76.2649 142.25 76.0608 142.495 75.8159 142.495H53.038C52.793 142.495 52.5889 142.25 52.5889 142.005V139.597C51.9358 139.352 51.446 138.862 51.446 138.291C51.446 137.678 51.9358 137.229 52.5889 136.984V130.167C51.9358 129.922 51.446 129.432 51.446 128.861C51.446 128.29 51.9358 127.8 52.5889 127.555V124.452C52.5889 124.207 52.793 124.003 53.038 124.003L54.4259 124.289C54.4259 124.289 56.0587 124.412 57.0792 124.371C57.0792 124.371 58.4671 124.289 59.2835 124.289C60.4265 124.289 61.8552 124.412 62.9166 124.82C63.8146 125.228 64.5086 125.636 64.7127 126.616C64.9168 125.636 65.6107 125.228 66.5088 124.82C67.5701 124.371 68.4682 124.289 69.6112 124.248C70.3868 124.207 71.7747 124.33 71.7747 124.33C72.7952 124.371 74.428 124.248 74.428 124.248L75.7751 123.963C76.02 123.963 76.2241 124.167 76.2241 124.412V127.514C76.9589 127.8 77.4079 128.249 77.4079 128.861C77.4079 129.432 76.9181 129.922 76.2649 130.167V136.984C76.9589 137.188 77.4079 137.678 77.4079 138.291ZM105.125 138.291C105.125 138.862 104.676 139.352 103.982 139.597V142.005C103.982 142.25 103.778 142.495 103.533 142.495H80.796C80.5511 142.495 80.347 142.25 80.347 142.005V139.597C79.6122 139.352 79.1632 138.862 79.1632 138.291C79.1632 137.678 79.653 137.229 80.3062 136.984V130.167C79.6122 129.922 79.1632 129.432 79.1632 128.861C79.1632 128.29 79.653 127.8 80.3062 127.555V124.452C80.3062 124.207 80.5103 124.003 80.7552 124.003L82.1431 124.289C82.1431 124.289 83.7759 124.412 84.7965 124.371C84.7965 124.371 86.1844 124.289 86.96 124.289C88.1438 124.289 89.5317 124.412 90.593 124.82C91.4911 125.228 92.185 125.636 92.3891 126.616C92.5932 125.636 93.2872 125.228 94.1852 124.82C95.2466 124.371 96.1446 124.33 97.2876 124.289C98.0632 124.248 99.4919 124.371 99.4919 124.371C100.512 124.412 102.145 124.289 102.145 124.289L103.492 124.003C103.737 124.003 103.941 124.207 103.941 124.452V127.555C104.635 127.8 105.084 128.249 105.084 128.861C105.084 129.432 104.635 129.922 103.941 130.167V136.984C104.676 137.188 105.125 137.678 105.125 138.291ZM132.842 138.291C132.842 138.862 132.393 139.352 131.699 139.597V142.005C131.699 142.25 131.495 142.495 131.25 142.495H108.513C108.268 142.495 108.064 142.25 108.064 142.005V139.597C107.37 139.352 106.88 138.862 106.88 138.291C106.88 137.678 107.37 137.229 108.064 136.984V130.167C107.37 129.922 106.88 129.432 106.88 128.861C106.88 128.29 107.37 127.8 108.064 127.555V124.452C108.064 124.207 108.268 124.003 108.513 124.003L109.901 124.289C109.901 124.289 111.534 124.412 112.555 124.371C112.555 124.371 114.228 124.371 115.004 124.371C116.432 124.412 119.453 124.82 120.147 126.82C120.8 125.024 123.127 124.575 124.76 124.371C125.536 124.248 127.209 124.371 127.209 124.371C128.23 124.412 129.862 124.289 129.862 124.289L131.21 124.003C131.455 124.003 131.659 124.207 131.659 124.452V127.555C132.353 127.8 132.802 128.249 132.802 128.861C132.802 129.432 132.353 129.922 131.659 130.167V136.984C132.353 137.188 132.842 137.678 132.842 138.291Z" fill="#A92037"/>
<path d="M84.0278 139.189V124.984C84.0278 124.902 84.0687 124.861 84.0687 124.78C83.7013 124.78 83.3747 124.78 83.1298 124.78C82.9257 124.78 82.8032 124.943 82.8032 125.065V140.414L84.0687 139.353C84.0687 139.312 84.0278 139.23 84.0278 139.189ZM72.9246 139.434L74.19 140.496V125.065C74.19 124.943 74.0268 124.78 73.8635 124.78C73.6186 124.78 73.292 124.78 72.9246 124.78C72.9654 124.821 72.9654 124.902 72.9654 124.984V139.189C72.9654 139.271 72.9654 139.353 72.9246 139.434ZM84.7218 139.353H92.1512V127.719C92.1512 126.372 91.4572 125.719 90.4367 125.27C89.4162 124.861 88.1099 124.739 87.0077 124.739C86.273 124.739 85.6198 124.78 85.2116 124.78C85.13 124.78 84.9667 124.821 84.8442 124.861C84.7218 124.902 84.5993 124.984 84.5585 125.025V139.189C84.5177 139.271 84.5993 139.353 84.7218 139.353ZM56.3106 139.189V124.984C56.3106 124.902 56.3514 124.861 56.3922 124.78C56.0248 124.78 55.6983 124.78 55.4534 124.78C55.2493 124.78 55.1268 124.943 55.1268 125.065V140.373L56.3514 139.312C56.3106 139.271 56.3106 139.23 56.3106 139.189ZM72.5164 139.189V125.025C72.4348 124.943 72.3531 124.902 72.2715 124.861C72.1082 124.78 71.9041 124.739 71.8633 124.739C71.4551 124.739 70.8019 124.698 70.108 124.698C69.0058 124.698 67.6587 124.78 66.6382 125.229C65.6177 125.678 64.9238 126.372 64.9238 127.678V139.353H72.3531C72.3939 139.353 72.5164 139.271 72.5164 139.189ZM56.9637 139.353H64.3931V127.719C64.3931 126.372 63.6991 125.719 62.6786 125.27C61.6989 124.821 60.3518 124.739 59.2497 124.739C58.5149 124.739 57.8618 124.78 57.4536 124.78C57.4127 124.78 57.2086 124.821 57.0862 124.861C56.9229 124.902 56.8004 124.984 56.7596 125.025V139.189C56.7596 139.271 56.8821 139.353 56.9637 139.353ZM55.4125 141.353C55.0043 141.353 54.6369 141.067 54.6369 140.618V125.065C54.6369 124.943 54.6778 124.821 54.7594 124.698L53.4531 124.453C53.2082 124.453 53.0041 124.657 53.0041 124.902V127.882C52.351 127.964 51.8203 128.372 51.8203 128.821C51.8203 129.311 52.3102 129.719 53.0041 129.801V137.312C52.351 137.393 51.8203 137.801 51.8203 138.291C51.8203 138.781 52.3102 139.189 53.0041 139.271V141.557C53.0041 141.802 53.2082 142.006 53.4531 142.006H63.2909C63.1276 141.802 63.046 141.598 63.0052 141.353H55.4125ZM112.439 139.353H127.788C127.869 139.353 127.992 139.271 127.992 139.149V124.984C127.992 124.984 127.992 124.943 127.951 124.943C127.91 124.902 127.869 124.861 127.788 124.821C127.624 124.78 127.42 124.698 127.379 124.698C127.298 124.698 127.257 124.698 127.175 124.698H127.012C125.583 124.698 123.869 124.821 122.563 125.31C121.256 125.8 120.358 126.617 120.358 128.127H119.868C119.868 126.617 118.97 125.8 117.664 125.31C116.358 124.821 114.643 124.698 113.215 124.698H113.133C113.051 124.698 112.97 124.698 112.888 124.698C112.766 124.657 112.317 124.861 112.235 124.943V139.108C112.235 139.23 112.357 139.353 112.439 139.353ZM128.359 139.475L129.665 140.577V125.065C129.665 124.943 129.502 124.78 129.339 124.78C129.094 124.78 128.767 124.78 128.4 124.739C128.441 124.78 128.441 124.861 128.441 124.943V139.108C128.441 139.271 128.4 139.353 128.359 139.475ZM100.234 139.189V125.025C100.193 124.984 100.111 124.943 100.03 124.902C99.8663 124.821 99.6622 124.78 99.5805 124.78C99.1723 124.78 98.5192 124.739 97.8252 124.739C96.7231 124.739 95.376 124.821 94.3555 125.27C93.335 125.719 92.641 126.413 92.641 127.719V139.393H100.07C100.152 139.353 100.234 139.271 100.234 139.189ZM100.723 139.189C100.723 139.271 100.723 139.353 100.683 139.434L101.948 140.496V125.065C101.948 124.943 101.785 124.78 101.622 124.78C101.377 124.78 101.05 124.78 100.683 124.78C100.723 124.821 100.723 124.902 100.723 124.984V139.189ZM111.786 139.149V124.943C111.786 124.861 111.827 124.78 111.868 124.739C111.5 124.78 111.174 124.78 110.929 124.78C110.725 124.78 110.602 124.943 110.602 125.065V140.414L111.868 139.353C111.786 139.271 111.786 139.23 111.786 139.149ZM104.642 128.821C104.642 128.331 104.152 127.964 103.499 127.841V124.902C103.499 124.657 103.295 124.453 103.05 124.453L102.193 124.616C102.275 124.739 102.356 124.902 102.356 125.065V140.618C102.356 141.026 101.989 141.353 101.54 141.353H93.5799C93.5391 141.598 93.4166 141.843 93.2941 142.006H103.009C103.254 142.006 103.458 141.802 103.458 141.557V139.23C104.112 139.149 104.601 138.74 104.601 138.25C104.601 137.761 104.112 137.352 103.458 137.271V129.801C104.152 129.719 104.642 129.311 104.642 128.821ZM110.888 141.312C110.48 141.312 110.112 141.026 110.112 140.577V125.065C110.112 124.943 110.153 124.821 110.194 124.739L108.888 124.494C108.643 124.494 108.439 124.698 108.439 124.943V127.923C107.785 128.005 107.296 128.413 107.296 128.903C107.296 129.392 107.785 129.801 108.439 129.882V137.393C107.785 137.475 107.296 137.883 107.296 138.373C107.296 138.863 107.785 139.271 108.439 139.353V141.557C108.439 141.802 108.643 142.006 108.888 142.006H118.725C118.562 141.802 118.48 141.557 118.44 141.312H110.888ZM112.439 139.802C112.317 139.802 112.194 139.761 112.112 139.72L110.806 140.822H110.888H118.44C118.521 140.414 118.766 140.006 119.134 139.802H112.439ZM92.192 140.087C91.6205 140.087 91.1715 140.536 91.1715 141.108C91.1715 141.516 91.4164 141.884 91.7429 142.047H92.641C92.9676 141.884 93.2533 141.516 93.2533 141.108C93.2125 140.536 92.7226 140.087 92.192 140.087ZM101.622 140.863L100.315 139.761C100.234 139.802 100.152 139.842 100.03 139.842H92.9676C93.335 140.087 93.5799 140.455 93.6207 140.904H101.622V140.863ZM119.909 140.087C119.338 140.087 118.889 140.536 118.889 141.108C118.889 141.516 119.134 141.884 119.46 142.047H120.317C120.685 141.884 120.889 141.516 120.889 141.108C120.93 140.536 120.481 140.087 119.909 140.087ZM131.217 137.312V129.801C131.87 129.719 132.4 129.311 132.4 128.821C132.4 128.331 131.911 127.964 131.217 127.841V124.902C131.217 124.657 131.053 124.453 130.808 124.453L129.992 124.616C130.074 124.739 130.155 124.861 130.155 125.025V140.577C130.155 140.985 129.788 141.312 129.38 141.312H121.42C121.379 141.557 121.256 141.802 121.134 142.006H130.849C131.094 142.006 131.257 141.802 131.257 141.557V139.23C131.911 139.149 132.441 138.74 132.441 138.25C132.4 137.801 131.911 137.393 131.217 137.312ZM129.257 140.822L127.992 139.761C127.91 139.802 127.869 139.802 127.788 139.802H120.685C121.052 140.006 121.297 140.414 121.379 140.822H129.257ZM84.7218 139.842C84.5993 139.842 84.4769 139.802 84.3952 139.761L83.0481 140.904C83.089 140.904 83.1298 140.904 83.1706 140.904H90.7224C90.8041 140.455 91.049 140.087 91.3756 139.842H84.7218ZM73.9043 140.863L72.5572 139.802C72.5164 139.802 72.3939 139.842 72.3123 139.842H65.2503C65.6177 140.087 65.8626 140.455 65.9035 140.904H73.9043V140.863ZM76.925 128.821C76.925 128.331 76.4352 127.964 75.7821 127.841V124.902C75.7821 124.657 75.6188 124.453 75.333 124.453L74.4758 124.616C74.5574 124.739 74.6391 124.902 74.6391 125.065V140.618C74.6391 141.026 74.2717 141.353 73.8635 141.353H65.9035C65.8626 141.598 65.7402 141.843 65.6177 142.006H75.333C75.578 142.006 75.7821 141.802 75.7821 141.557V139.23C76.4352 139.149 76.925 138.781 76.925 138.291C76.925 137.801 76.4352 137.393 75.7821 137.312V129.801C76.4352 129.719 76.925 129.311 76.925 128.821ZM64.4339 140.087C63.8624 140.087 63.4134 140.536 63.4134 141.108C63.4134 141.516 63.6583 141.884 64.0257 142.047H64.8829C65.2503 141.884 65.4544 141.516 65.4544 141.108C65.4544 140.536 65.0054 140.087 64.4339 140.087ZM56.9637 139.842C56.8413 139.842 56.7188 139.802 56.5963 139.72L55.2901 140.863C55.3309 140.863 55.3717 140.863 55.4125 140.863H62.9644C63.046 140.414 63.2501 140.047 63.6175 139.802H56.9637V139.842ZM83.1298 141.353C82.7216 141.353 82.3542 141.067 82.3542 140.618V125.065C82.3542 124.943 82.395 124.821 82.4358 124.698L81.1296 124.453C80.8846 124.453 80.6805 124.657 80.6805 124.902V127.882C80.0274 127.964 79.5376 128.372 79.5376 128.862C79.5376 129.352 80.0274 129.76 80.6805 129.841V137.352C80.0682 137.393 79.5784 137.801 79.5784 138.291C79.5784 138.781 80.0682 139.189 80.7214 139.271V141.557C80.7214 141.802 80.9255 142.006 81.1704 142.006H91.0082C90.8449 141.802 90.7632 141.598 90.6816 141.353H83.1298Z" fill="#FEFEFE"/>
<path d="M68.5465 135.841C68.0567 135.841 67.9342 135.719 67.9342 135.27V132.78C68.669 132.78 69.0772 133.066 69.1588 134.372H69.3629V130.902H69.118C68.9955 132.168 68.6281 132.453 67.8934 132.413V130.045C67.8934 129.596 68.0158 129.555 68.424 129.555C69.4446 129.555 69.9752 129.8 70.1385 131.27H70.3018V129.229H66.0156V129.473C66.3422 129.514 66.6688 129.514 66.6688 130.208V135.188C66.6688 135.801 66.4238 135.841 66.0156 135.923V136.168H70.4243L70.71 134.005H70.5059C70.0161 135.597 69.2813 135.841 68.5465 135.841Z" fill="#373435"/>
<path d="M124.107 135.639C124.352 135.639 124.678 136.006 125.372 136.006C126.76 136.006 127.209 134.74 127.209 133.842C127.209 132.74 126.638 132.128 126.393 131.965L125.29 131.23C124.637 130.822 124.515 130.577 124.515 130.005C124.515 129.352 124.923 129.026 125.29 129.026C126.189 129.026 126.638 130.209 126.76 130.903H126.964V128.658H126.76C126.719 128.862 126.678 129.026 126.515 129.026C126.311 129.026 125.944 128.699 125.331 128.699C123.903 128.699 123.658 130.087 123.658 130.74C123.658 131.23 123.658 132.087 124.923 132.944L125.413 133.271C125.903 133.597 126.229 133.842 126.229 134.536C126.229 134.7 126.189 135.72 125.29 135.72C124.352 135.72 123.903 134.536 123.739 133.516H123.535V136.047H123.739C123.903 135.802 123.943 135.639 124.107 135.639Z" fill="#373435"/>
<path d="M58.1436 130.042L60.0621 136.206H60.2662L61.9807 130.165C62.144 129.593 62.2665 129.389 62.6747 129.307V129.062H61.0418V129.307C61.4909 129.348 61.695 129.348 61.695 129.756C61.695 129.961 61.6133 130.246 61.5317 130.491L60.5928 133.879L59.6131 130.655C59.5315 130.41 59.409 129.961 59.409 129.756C59.409 129.389 59.5723 129.389 60.0621 129.348V129.062H57.5312V129.307C57.8578 129.389 57.9395 129.43 58.1436 130.042Z" fill="#373435"/>
<path d="M87.333 129.801C87.3738 129.474 87.3738 129.352 87.7821 129.352C88.3944 129.352 88.6801 129.801 88.6801 130.821C88.6801 132.169 88.3127 132.373 87.2922 132.373V129.801H87.333ZM87.9862 135.72C87.4963 135.638 87.333 135.598 87.333 134.781V132.74H87.5371L89.0883 135.965H90.6395V135.72C90.5579 135.72 90.4354 135.72 90.3129 135.516L88.8434 132.577C89.2516 132.373 90.0272 132.087 90.0272 130.821C90.0272 129.107 88.4352 129.025 87.9045 129.025H85.4961V129.311C85.9043 129.352 86.1492 129.352 86.1492 130.25V134.781C86.1492 135.598 85.9859 135.638 85.4961 135.72V135.965H87.9862V135.72Z" fill="#373435"/>
<path d="M114.715 129.352V134.781C114.715 135.638 114.552 135.679 113.98 135.72V136.006H116.674V135.72C116.103 135.679 115.939 135.638 115.939 134.781V129.352C116.47 129.393 117.205 129.434 117.368 131.107H117.572V129.025H113.082V131.107H113.286C113.449 129.434 114.184 129.393 114.715 129.352Z" fill="#373435"/>
<path d="M119.826 131.019L120.561 133.509H119.091L119.826 131.019ZM119.254 135.714C119.009 135.673 118.642 135.673 118.642 135.264C118.642 135.101 118.764 134.652 118.969 133.917H120.642C120.724 134.244 120.969 135.02 120.969 135.305C120.969 135.632 120.846 135.673 120.397 135.714V135.958H122.806V135.714C122.438 135.754 122.316 135.387 121.989 134.285L120.316 128.896H120.112L118.438 134.53C118.193 135.305 118.111 135.673 117.703 135.754V135.999H119.213V135.714H119.254Z" fill="#373435"/>
<path d="M94.7656 129.27C95.133 129.311 95.4596 129.311 95.4596 129.964V134.944C95.4596 135.598 95.1738 135.638 94.7656 135.679V135.924H97.3782V135.72C96.9699 135.679 96.6842 135.638 96.6842 134.985V130.005C96.6842 129.311 97.0516 129.311 97.3782 129.311V129.025H94.7656V129.27Z" fill="#373435"/>
<path d="M156.359 237.16V202.422H171.585C180.566 202.422 184.689 206.667 184.689 215.117C184.689 223.159 179.831 227.812 172.075 227.812H166.075V237.201H156.359V237.16ZM166.034 220.016H170.851C173.627 220.016 174.933 218.383 174.933 215.362C174.933 212.015 173.586 210.586 170.851 210.586H166.034V220.016Z" fill="black"/>
<path d="M205.006 232.101C204.231 235.693 201.455 237.898 196.801 237.898C191.862 237.898 188.352 234.836 188.352 228.386V209.936H197.904V226.386C197.904 229.08 198.679 230.754 200.843 230.754C203.333 230.754 204.843 228.509 204.843 224.1V209.936H214.395V237.204H205.823L205.006 232.101Z" fill="black"/>
<path d="M227.547 237.161H219.301V200.586H228.853V213.853C230.812 210.301 233.629 209.24 237.466 209.24C243.997 209.24 248.039 214.302 248.039 222.874C248.039 232.263 243.712 237.855 236.364 237.855C232.118 237.855 229.465 236.1 228.526 233.406L227.547 237.161ZM228.771 225.486C228.771 229.446 231.016 231.038 233.139 231.038C236.282 231.038 238.282 228.507 238.282 223.568C238.282 218.792 236.527 216.547 233.547 216.547C231.016 216.547 228.771 218.547 228.771 222.221V225.486Z" fill="black"/>
<path d="M264.459 236.823C262.99 237.476 261.683 237.721 259.52 237.721C255.438 237.721 251.438 235.844 251.438 230.129V200.656H260.99V227.394C260.99 229.027 261.643 229.761 262.867 229.761C263.316 229.761 263.969 229.639 264.459 229.394V236.823Z" fill="black"/>
<path d="M273.34 198.133C276.238 198.133 278.606 200.092 278.606 203.154C278.606 206.215 276.238 208.175 273.34 208.175C270.523 208.175 268.074 206.215 268.074 203.154C268.074 200.051 270.523 198.133 273.34 198.133ZM278.198 237.157H268.646V209.889H278.198V237.157Z" fill="black"/>
<path d="M289.564 227.763C290.094 230.008 291.809 231.192 293.891 231.192C295.605 231.192 296.789 230.58 296.789 229.437C296.789 228.253 295.768 227.722 293.85 227.314L290.176 226.539C285.237 225.477 282.624 222.946 282.624 218.456C282.624 211.843 288.298 209.271 294.34 209.271C300.871 209.271 304.83 212.006 305.769 217.068L297.115 218.374C296.83 216.823 295.891 215.966 294.054 215.966C292.707 215.966 291.768 216.619 291.768 217.681C291.768 218.742 292.543 219.273 293.931 219.517L297.605 220.171C303.606 221.15 306.178 224.416 306.178 229.029C306.178 235.478 300.585 237.928 293.85 237.928C287.645 237.928 283.522 235.682 282.012 230.866L289.564 227.763Z" fill="black"/>
<path d="M319.81 215.112C321.157 211.112 324.3 209.275 328.301 209.275C332.628 209.275 336.383 211.765 336.383 218.011V237.196H326.831V221.521C326.831 218.868 326.178 217.194 323.81 217.194C321.688 217.194 319.81 218.501 319.81 222.623V237.196H310.258V200.621H319.81V215.112Z" fill="black"/>
<path d="M345.696 198.133C348.594 198.133 350.961 200.092 350.961 203.154C350.961 206.215 348.594 208.175 345.696 208.175C342.879 208.175 340.43 206.215 340.43 203.154C340.43 200.051 342.838 198.133 345.696 198.133ZM350.512 237.157H340.96V209.889H350.512V237.157Z" fill="black"/>
<path d="M364.759 215.155C366.188 211.073 369.372 209.236 373.413 209.236C377.618 209.236 381.373 211.726 381.373 217.972V237.158H371.862V221.646C371.862 218.87 371.046 217.156 368.637 217.156C366.556 217.156 364.8 218.38 364.8 222.585V237.158H355.289V209.889H363.861L364.759 215.155Z" fill="black"/>
<path d="M412.837 209.931V235.239C412.837 245.322 406.183 249.649 397.325 249.649C391.61 249.649 387.814 247.159 385.691 244.465L390.589 239.321C392.712 241.567 395.08 242.097 397.325 242.097C400.142 242.097 403.407 240.669 403.407 235.974V232.586C402.06 235.729 399.57 236.913 395.815 236.913C389.732 236.913 384.793 232.79 384.793 223.646C384.793 214.666 389.161 209.318 396.876 209.318C400.427 209.318 402.55 210.543 404.183 213.278L404.877 209.971H412.837V209.931ZM403.407 221.116C403.407 217.932 401.693 216.299 399.203 216.299C396.264 216.299 394.427 218.299 394.427 223.32C394.427 227.688 395.978 229.769 398.958 229.769C401.325 229.769 403.366 228.218 403.366 224.381V221.116H403.407Z" fill="black"/>
<path d="M184.643 184.42C184.643 190.012 180.806 193.768 172.356 193.768H156.477V159.111H171.907C179.255 159.111 183.214 162.459 183.214 168.173C183.214 172.215 180.847 175.072 177.173 176.011C181.989 177.032 184.643 180.338 184.643 184.42ZM165.988 173.562H169.702C172.152 173.562 173.703 172.623 173.703 170.255C173.703 167.888 172.152 166.949 169.702 166.949H165.988V173.562ZM165.988 185.849H171.009C173.417 185.849 174.764 184.787 174.764 182.787C174.764 180.787 173.417 179.726 171.009 179.726H165.988V185.849Z" fill="black"/>
<path d="M205.554 188.738C204.779 192.33 202.003 194.494 197.39 194.494C192.451 194.494 188.981 191.432 187.879 185.023V166.613H198.533V183.023C198.533 185.717 199.309 187.391 201.472 187.391C203.921 187.391 205.473 185.146 205.473 180.737V166.613H214.984V193.8H206.452L205.554 188.738Z" fill="black"/>
<path d="M225.622 184.412C226.153 186.657 227.867 187.841 229.908 187.841C231.623 187.841 232.807 187.269 232.807 186.085C232.807 184.902 231.786 184.371 229.867 183.963L226.234 183.187C221.295 182.126 218.723 179.595 218.723 175.146C218.723 168.573 224.357 165.961 230.439 165.961C236.97 165.961 240.889 168.655 241.869 173.717L233.215 175.023C232.929 173.472 231.99 172.615 230.153 172.615C228.806 172.615 227.867 173.268 227.867 174.329C227.867 175.39 228.643 175.921 230.031 176.166L233.664 176.819C239.664 177.84 242.195 181.065 242.195 185.636C242.195 192.045 236.603 194.535 229.908 194.535C223.744 194.535 219.621 192.29 218.07 187.473L225.622 184.412Z" fill="black"/>
<path d="M250.788 154.822C253.604 154.822 256.013 156.741 256.013 159.802C256.013 162.864 253.604 164.823 250.788 164.823C247.971 164.823 245.562 162.864 245.562 159.802C245.562 156.782 247.971 154.822 250.788 154.822ZM255.523 193.806H246.052V166.619H255.523V193.806Z" fill="black"/>
<path d="M269.264 171.839C270.692 167.798 273.836 165.961 277.918 165.961C282.081 165.961 285.878 168.451 285.878 174.656V193.801H276.407V178.33C276.407 175.554 275.591 173.839 273.183 173.839C271.101 173.839 269.345 175.064 269.345 179.268V193.801H259.875V166.614H268.407L269.264 171.839Z" fill="black"/>
<path d="M307.194 183.968L315.072 186.418C313.521 192.255 308.704 194.459 303.316 194.459C295.234 194.459 289.355 189.357 289.355 180.458C289.355 171.273 294.54 165.926 303.071 165.926C311.113 165.926 315.236 171.11 315.236 178.621C315.236 179.641 315.236 180.784 315.113 182.05H298.54C298.703 185.397 300.377 187.234 303.194 187.234C305.194 187.275 306.541 186.377 307.194 183.968ZM306.255 177.274C306.255 174.906 305.439 172.865 302.785 172.865C300.5 172.865 299.03 174.743 298.785 177.274H306.255Z" fill="black"/>
<path d="M325.728 184.412C326.258 186.657 327.973 187.841 330.014 187.841C331.728 187.841 332.912 187.269 332.912 186.085C332.912 184.902 331.932 184.371 329.973 183.963L326.34 183.187C321.401 182.126 318.829 179.595 318.829 175.146C318.829 168.573 324.462 165.961 330.544 165.961C337.076 165.961 341.035 168.655 341.974 173.717L333.32 175.023C333.035 173.472 332.096 172.615 330.259 172.615C328.912 172.615 327.973 173.268 327.973 174.329C327.973 175.39 328.748 175.921 330.136 176.166L333.769 176.819C339.77 177.84 342.301 181.065 342.301 185.636C342.301 192.045 336.708 194.535 330.014 194.535C323.85 194.535 319.727 192.29 318.176 187.473L325.728 184.412Z" fill="black"/>
<path d="M352.942 184.412C353.473 186.657 355.187 187.841 357.228 187.841C358.943 187.841 360.126 187.269 360.126 186.085C360.126 184.902 359.106 184.371 357.187 183.963L353.554 183.187C348.615 182.126 346.003 179.595 346.003 175.146C346.003 168.573 351.636 165.961 357.718 165.961C364.249 165.961 368.168 168.655 369.107 173.717L360.453 175.023C360.167 173.472 359.228 172.615 357.392 172.615C356.044 172.615 355.106 173.268 355.106 174.329C355.106 175.39 355.881 175.921 357.269 176.166L360.902 176.819C366.903 177.84 369.434 181.065 369.434 185.636C369.434 192.045 363.841 194.535 357.147 194.535C350.983 194.535 346.86 192.29 345.309 187.473L352.942 184.412Z" fill="black"/>
<path d="M215.152 141.314C215.152 142.62 215.519 143.314 216.499 143.314C217.07 143.314 217.682 143.069 218.213 142.784V149.478C216.907 150.417 215.682 150.784 213.519 150.784C209.886 150.784 207.886 149.152 206.824 146.498C205.273 149.315 202.865 150.907 198.987 150.907C194.006 150.907 190.863 147.968 190.863 143.314C190.863 137.477 195.027 134.538 203.232 134.538H206.008V132.701C206.008 130.946 205.436 129.721 203.722 129.721C202.089 129.721 201.313 130.701 201.191 132.946L192.088 131.517C192.619 125.925 196.986 122.414 203.967 122.414C211.723 122.414 215.152 125.843 215.152 131.762V141.314ZM205.967 139.355H204.742C201.354 139.355 200.17 140.416 200.17 142.171C200.17 143.477 201.068 144.457 202.701 144.457C204.293 144.457 206.008 143.641 206.008 141.11V139.355H205.967Z" fill="black"/>
<path d="M239.911 133.761C238.809 133.353 238.156 133.067 236.605 133.067C234.36 133.067 231.666 133.965 231.666 138.782V150.253H222.195V123.066H230.319L231.257 129.761C232.033 125.23 235.829 123.066 240.483 123.066L239.911 133.761Z" fill="black"/>
<path d="M243.355 123.066H253.357L256.459 134.006C257.561 137.966 258.214 140.66 258.214 140.66H258.337C258.337 140.66 258.908 137.966 260.174 134.006L263.725 123.066H272.95L263.072 150.253H252.826L243.355 123.066Z" fill="black"/>
<path d="M297.198 141.314C297.198 142.62 297.566 143.314 298.546 143.314C299.117 143.314 299.729 143.069 300.26 142.784V149.478C298.954 150.417 297.729 150.784 295.566 150.784C291.933 150.784 289.932 149.152 288.871 146.498C287.361 149.315 284.911 150.907 281.033 150.907C276.053 150.907 272.91 147.968 272.91 143.314C272.91 137.477 277.074 134.538 285.279 134.538H288.055V132.701C288.055 130.946 287.483 129.721 285.769 129.721C284.136 129.721 283.36 130.701 283.238 132.946L274.135 131.517C274.665 125.925 279.033 122.414 286.014 122.414C293.77 122.414 297.198 125.843 297.198 131.762V141.314ZM288.055 139.355H286.83C283.401 139.355 282.258 140.416 282.258 142.171C282.258 143.477 283.156 144.457 284.789 144.457C286.381 144.457 288.095 143.641 288.095 141.11V139.355H288.055Z" fill="black"/>
<path d="M321.435 133.761C320.333 133.353 319.68 133.067 318.128 133.067C315.883 133.067 313.189 133.965 313.189 138.782V150.253H303.719V123.066H311.842L312.781 129.761C313.557 125.23 317.394 123.066 322.006 123.066L321.435 133.761Z" fill="black"/>
<path d="M343.69 113.883H353.242V150.254H344.669L343.771 145.56C342.792 149.193 339.526 150.989 335.403 150.989C329.035 150.989 324.504 146.049 324.504 137.232C324.504 128.129 328.831 122.455 336.505 122.455C339.975 122.455 342.751 124.047 343.69 126.619V113.883ZM343.73 134.701C343.73 131.232 342.016 129.354 339.24 129.354C336.464 129.354 334.138 131.436 334.138 136.824C334.138 141.314 336.015 143.641 339.159 143.641C341.567 143.641 343.73 141.804 343.73 138.089V134.701Z" fill="black"/>
<path d="M156.453 150.245V115.588H166.128V128.446H178.006V115.588H187.64V150.245H178.006V136.815H166.128V150.245H156.453Z" fill="black"/>
</g>
<g filter="url(#filter0_b_807_9371)">
<rect x="39" y="276.258" width="79.9536" height="79.9536" rx="19.9884" fill="black" fill-opacity="0.1"/>
<path d="M91.765 331.227C97.6201 327.267 101.462 320.678 101.462 313.2C101.462 301.078 91.3941 291.25 78.9752 291.25C66.5564 291.25 56.4883 301.078 56.4883 313.2C56.4883 320.678 60.3303 327.267 66.1855 331.227M69.8797 321.233C67.7786 319.109 66.4825 316.257 66.4825 313.114C66.4825 306.559 72.0763 301.244 78.9752 301.244C85.8742 301.244 91.468 306.559 91.468 313.114C91.468 316.259 90.1719 319.109 88.0708 321.233M78.9752 341.221C76.2154 341.221 73.9781 338.984 73.9781 336.224V331.227C73.9781 328.467 76.2154 326.23 78.9752 326.23C81.7351 326.23 83.9723 328.467 83.9723 331.227V336.224C83.9723 338.984 81.7351 341.221 78.9752 341.221ZM81.4738 313.737C81.4738 315.117 80.3551 316.236 78.9752 316.236C77.5953 316.236 76.4767 315.117 76.4767 313.737C76.4767 312.357 77.5953 311.238 78.9752 311.238C80.3551 311.238 81.4738 312.357 81.4738 313.737Z" stroke="white" stroke-width="3.42824" stroke-linecap="round" stroke-linejoin="round"/>
</g>
<g filter="url(#filter1_b_807_9371)">
<rect x="139.684" y="276.258" width="79.9536" height="79.9536" rx="19.9884" fill="black" fill-opacity="0.1"/>
<path d="M179.661 341.221C193.46 341.221 204.647 330.035 204.647 316.236C204.647 302.436 193.46 291.25 179.661 291.25C165.862 291.25 154.676 302.436 154.676 316.236C154.676 330.035 165.862 341.221 179.661 341.221Z" stroke="white" stroke-width="3.42824" stroke-linecap="round" stroke-linejoin="round"/>
<path d="M173.415 308.653C173.415 307.461 173.415 306.864 173.664 306.532C173.881 306.241 174.214 306.06 174.575 306.034C174.99 306.005 175.492 306.327 176.495 306.972L188.289 314.554C189.16 315.114 189.595 315.393 189.745 315.749C189.877 316.06 189.877 316.411 189.745 316.722C189.595 317.078 189.16 317.357 188.289 317.917L176.495 325.499C175.492 326.144 174.99 326.466 174.575 326.437C174.214 326.411 173.881 326.23 173.664 325.939C173.415 325.607 173.415 325.01 173.415 323.818V308.653Z" stroke="white" stroke-width="3.42824" stroke-linecap="round" stroke-linejoin="round"/>
</g>
<g filter="url(#filter2_b_807_9371)">
<rect x="240.363" y="276.258" width="79.9536" height="79.9536" rx="19.9884" fill="black" fill-opacity="0.1"/>
<path d="M285.337 313.737H270.346M275.343 323.731H270.346M290.334 303.743H270.346M300.328 303.243V329.228C300.328 333.426 300.328 335.525 299.511 337.128C298.793 338.539 297.646 339.685 296.236 340.404C294.632 341.221 292.533 341.221 288.335 341.221H272.345C268.147 341.221 266.048 341.221 264.444 340.404C263.034 339.685 261.887 338.539 261.169 337.128C260.352 335.525 260.352 333.426 260.352 329.228V303.243C260.352 299.045 260.352 296.946 261.169 295.343C261.887 293.932 263.034 292.786 264.444 292.067C266.048 291.25 268.147 291.25 272.345 291.25H288.335C292.533 291.25 294.632 291.25 296.236 292.067C297.646 292.786 298.793 293.932 299.511 295.343C300.328 296.946 300.328 299.045 300.328 303.243Z" stroke="white" stroke-width="3.74783" stroke-linecap="round" stroke-linejoin="round"/>
</g>
<g filter="url(#filter3_b_807_9371)">
<rect x="341.047" y="276.258" width="79.9536" height="79.9536" rx="19.9884" fill="#131316" fill-opacity="0.1"/>
<path d="M403.509 316.234L373.526 316.234M403.509 301.243L373.526 301.243M403.509 331.225L373.526 331.225M363.532 316.234C363.532 317.614 362.414 318.733 361.034 318.733C359.654 318.733 358.535 317.614 358.535 316.234C358.535 314.854 359.654 313.735 361.034 313.735C362.414 313.735 363.532 314.854 363.532 316.234ZM363.532 301.243C363.532 302.623 362.414 303.741 361.034 303.741C359.654 303.741 358.535 302.623 358.535 301.243C358.535 299.863 359.654 298.744 361.034 298.744C362.414 298.744 363.532 299.863 363.532 301.243ZM363.532 331.225C363.532 332.605 362.414 333.724 361.034 333.724C359.654 333.724 358.535 332.605 358.535 331.225C358.535 329.845 359.654 328.727 361.034 328.727C362.414 328.727 363.532 329.845 363.532 331.225Z" stroke="white" stroke-width="3.74783" stroke-linecap="round" stroke-linejoin="round"/>
<circle cx="361.034" cy="301.243" r="2.49855" fill="white"/>
<circle cx="361.034" cy="316.235" r="2.49855" fill="white"/>
<path d="M363.532 331.225C363.532 332.605 362.414 333.724 361.034 333.724C359.654 333.724 358.535 332.605 358.535 331.225C358.535 329.845 359.654 328.727 361.034 328.727C362.414 328.727 363.532 329.845 363.532 331.225Z" fill="white"/>
</g>
<defs>
<filter id="filter0_b_807_9371" x="-10.971" y="226.287" width="179.895" height="179.895" filterUnits="userSpaceOnUse" color-interpolation-filters="sRGB">
<feFlood flood-opacity="0" result="BackgroundImageFix"/>
<feGaussianBlur in="BackgroundImageFix" stdDeviation="24.9855"/>
<feComposite in2="SourceAlpha" operator="in" result="effect1_backgroundBlur_807_9371"/>
<feBlend mode="normal" in="SourceGraphic" in2="effect1_backgroundBlur_807_9371" result="shape"/>
</filter>
<filter id="filter1_b_807_9371" x="89.7126" y="226.287" width="179.895" height="179.895" filterUnits="userSpaceOnUse" color-interpolation-filters="sRGB">
<feFlood flood-opacity="0" result="BackgroundImageFix"/>
<feGaussianBlur in="BackgroundImageFix" stdDeviation="24.9855"/>
<feComposite in2="SourceAlpha" operator="in" result="effect1_backgroundBlur_807_9371"/>
<feBlend mode="normal" in="SourceGraphic" in2="effect1_backgroundBlur_807_9371" result="shape"/>
</filter>
<filter id="filter2_b_807_9371" x="190.392" y="226.287" width="179.895" height="179.895" filterUnits="userSpaceOnUse" color-interpolation-filters="sRGB">
<feFlood flood-opacity="0" result="BackgroundImageFix"/>
<feGaussianBlur in="BackgroundImageFix" stdDeviation="24.9855"/>
<feComposite in2="SourceAlpha" operator="in" result="effect1_backgroundBlur_807_9371"/>
<feBlend mode="normal" in="SourceGraphic" in2="effect1_backgroundBlur_807_9371" result="shape"/>
</filter>
<filter id="filter3_b_807_9371" x="291.076" y="226.287" width="179.895" height="179.895" filterUnits="userSpaceOnUse" color-interpolation-filters="sRGB">
<feFlood flood-opacity="0" result="BackgroundImageFix"/>
<feGaussianBlur in="BackgroundImageFix" stdDeviation="24.9855"/>
<feComposite in2="SourceAlpha" operator="in" result="effect1_backgroundBlur_807_9371"/>
<feBlend mode="normal" in="SourceGraphic" in2="effect1_backgroundBlur_807_9371" result="shape"/>
</filter>
<clipPath id="clip0_807_9371">
<rect width="382" height="145.607" fill="white" transform="translate(39 104)"/>
</clipPath>
</defs>
</svg>
