<svg width="375" height="1666" viewBox="0 0 375 1666" fill="none" xmlns="http://www.w3.org/2000/svg">
<g filter="url(#filter0_f_572_3364)">
<path d="M158.307 1409.44C285.829 1386 -107.747 1624.88 190.929 1951.2C200.114 2001.17 104.182 2060.68 -23.3398 2084.12C-150.862 2107.55 -400.412 2255.42 -409.596 2205.45C-418.781 2155.48 30.7853 1432.88 158.307 1409.44Z" fill="url(#paint0_linear_572_3364)" fill-opacity="0.5"/>
</g>
<g filter="url(#filter1_f_572_3364)">
<path d="M848.307 318.439C975.829 295.001 582.253 533.879 880.929 860.198C890.114 910.169 794.182 969.678 666.66 993.116C539.138 1016.55 289.588 1164.42 280.404 1114.45C271.219 1064.48 720.785 341.878 848.307 318.439Z" fill="url(#paint1_linear_572_3364)" fill-opacity="0.5"/>
</g>
<defs>
<filter id="filter0_f_572_3364" x="-725.734" y="1091.85" width="1233.27" height="1439.84" filterUnits="userSpaceOnUse" color-interpolation-filters="sRGB">
<feFlood flood-opacity="0" result="BackgroundImageFix"/>
<feBlend mode="normal" in="SourceGraphic" in2="BackgroundImageFix" result="shape"/>
<feGaussianBlur stdDeviation="158" result="effect1_foregroundBlur_572_3364"/>
</filter>
<filter id="filter1_f_572_3364" x="-35.7344" y="0.852539" width="1233.27" height="1439.84" filterUnits="userSpaceOnUse" color-interpolation-filters="sRGB">
<feFlood flood-opacity="0" result="BackgroundImageFix"/>
<feBlend mode="normal" in="SourceGraphic" in2="BackgroundImageFix" result="shape"/>
<feGaussianBlur stdDeviation="158" result="effect1_foregroundBlur_572_3364"/>
</filter>
<linearGradient id="paint0_linear_572_3364" x1="9.73997" y1="1858.35" x2="-306.336" y2="2050.48" gradientUnits="userSpaceOnUse">
<stop stop-color="#00A3FF"/>
<stop offset="1" stop-color="#2ED3B7"/>
</linearGradient>
<linearGradient id="paint1_linear_572_3364" x1="699.74" y1="767.352" x2="383.664" y2="959.477" gradientUnits="userSpaceOnUse">
<stop stop-color="#00A3FF"/>
<stop offset="1" stop-color="#2ED3B7"/>
</linearGradient>
</defs>
</svg>
