<svg width="375" height="812" viewBox="0 0 375 812" fill="none" xmlns="http://www.w3.org/2000/svg">
<g opacity="0.3" filter="url(#filter0_f_649_12244)">
<path d="M284.213 141.795C330.061 46.157 212.92 -90.1908 94.7536 -98.7964C-68.8894 -110.714 -151.481 -16.3211 -160.048 165.964C-170.756 393.82 -106.412 426.159 38.3629 201.503C183.138 -23.153 238.365 237.433 284.213 141.795Z" fill="#00A3FF"/>
</g>
<g opacity="0.5" filter="url(#filter1_f_649_12244)">
<path d="M532.618 501.835C564.199 435.957 483.51 342.038 402.115 336.11C289.394 327.901 232.503 392.921 226.602 518.483C219.226 675.434 263.548 697.71 363.272 542.963C462.996 388.215 501.037 567.712 532.618 501.835Z" fill="#2ED3B7"/>
</g>
<defs>
<filter id="filter0_f_649_12244" x="-467.505" y="-406.114" width="1068.21" height="1066.8" filterUnits="userSpaceOnUse" color-interpolation-filters="sRGB">
<feFlood flood-opacity="0" result="BackgroundImageFix"/>
<feBlend mode="normal" in="SourceGraphic" in2="BackgroundImageFix" result="shape"/>
<feGaussianBlur stdDeviation="153.157" result="effect1_foregroundBlur_649_12244"/>
</filter>
<filter id="filter1_f_649_12244" x="-80.5008" y="29.1046" width="926.443" height="925.474" filterUnits="userSpaceOnUse" color-interpolation-filters="sRGB">
<feFlood flood-opacity="0" result="BackgroundImageFix"/>
<feBlend mode="normal" in="SourceGraphic" in2="BackgroundImageFix" result="shape"/>
<feGaussianBlur stdDeviation="153.157" result="effect1_foregroundBlur_649_12244"/>
</filter>
</defs>
</svg>
