<svg width="40" height="40" viewBox="0 0 40 40" fill="none" xmlns="http://www.w3.org/2000/svg">
<path d="M18.837 36.0248C19.206 36.2401 19.3905 36.3477 19.6509 36.4035C19.8529 36.4469 20.1477 36.4469 20.3498 36.4035C20.6102 36.3477 20.7947 36.2401 21.1636 36.0248C24.4104 34.1307 33.3337 28.1807 33.3337 20V12.0293C33.3337 10.6968 33.3337 10.0306 33.1157 9.45784C32.9232 8.9519 32.6104 8.50046 32.2042 8.14255C31.7445 7.7374 31.1207 7.50346 29.873 7.03558L20.9367 3.68446C20.5902 3.55452 20.4169 3.48955 20.2387 3.4638C20.0806 3.44096 19.9201 3.44096 19.762 3.4638C19.5837 3.48955 19.4105 3.55452 19.064 3.68446L10.1277 7.03558C8.87999 7.50346 8.25615 7.7374 7.79642 8.14255C7.3903 8.50046 7.07745 8.9519 6.88493 9.45784C6.66699 10.0306 6.66699 10.6968 6.66699 12.0293V20C6.66699 28.1807 15.5903 34.1307 18.837 36.0248Z" stroke="#131316" stroke-width="1.5" stroke-linecap="round" stroke-linejoin="round"/>
</svg>
