<svg width="41" height="40" viewBox="0 0 41 40" fill="none" xmlns="http://www.w3.org/2000/svg">
<path d="M11.166 21.6667L12.4734 24.2815C12.9159 25.1665 13.1372 25.609 13.4327 25.9924C13.695 26.3327 14 26.6377 14.3403 26.9C14.7237 27.1955 15.1662 27.4168 16.0512 27.8592L18.666 29.1667L16.0512 30.4741C15.1662 30.9166 14.7237 31.1378 14.3403 31.4334C14 31.6957 13.695 32.0007 13.4327 32.3409C13.1372 32.7244 12.9159 33.1669 12.4734 34.0518L11.166 36.6667L9.85859 34.0518C9.4161 33.1669 9.19486 32.7244 8.8993 32.3409C8.63703 32.0007 8.332 31.6957 7.99176 31.4334C7.60832 31.1378 7.16584 30.9166 6.28088 30.4741L3.66602 29.1667L6.28088 27.8592C7.16584 27.4168 7.60832 27.1955 7.99176 26.9C8.332 26.6377 8.63703 26.3327 8.8993 25.9924C9.19486 25.609 9.4161 25.1665 9.85859 24.2815L11.166 21.6667Z" stroke="#131316" stroke-width="1.5" stroke-linecap="round" stroke-linejoin="round"/>
<path d="M25.3327 3.33334L27.2971 8.44071C27.7671 9.66276 28.0021 10.2738 28.3675 10.7877C28.6914 11.2433 29.0894 11.6413 29.5449 11.9652C30.0589 12.3306 30.6699 12.5656 31.892 13.0356L36.9994 15L31.892 16.9644C30.6699 17.4344 30.0589 17.6694 29.5449 18.0349C29.0894 18.3588 28.6914 18.7568 28.3675 19.2123C28.0021 19.7262 27.7671 20.3373 27.2971 21.5593L25.3327 26.6667L23.3683 21.5593C22.8983 20.3373 22.6633 19.7262 22.2978 19.2123C21.9739 18.7568 21.5759 18.3588 21.1204 18.0349C20.6065 17.6694 19.9954 17.4344 18.7734 16.9644L13.666 15L18.7734 13.0356C19.9954 12.5656 20.6065 12.3306 21.1204 11.9652C21.5759 11.6413 21.9739 11.2433 22.2978 10.7877C22.6633 10.2738 22.8983 9.66276 23.3683 8.44071L25.3327 3.33334Z" stroke="#131316" stroke-width="1.5" stroke-linecap="round" stroke-linejoin="round"/>
</svg>
