<svg width="41" height="40" viewBox="0 0 41 40" fill="none" xmlns="http://www.w3.org/2000/svg">
<path d="M24.583 6.66668C24.583 7.08089 24.9188 7.41668 25.333 7.41668C25.7472 7.41668 26.083 7.08089 26.083 6.66668H24.583ZM26.083 3.33334C26.083 2.91913 25.7472 2.58334 25.333 2.58334C24.9188 2.58334 24.583 2.91913 24.583 3.33334H26.083ZM24.583 26.6667C24.583 27.0809 24.9188 27.4167 25.333 27.4167C25.7472 27.4167 26.083 27.0809 26.083 26.6667H24.583ZM26.083 23.3333C26.083 22.9191 25.7472 22.5833 25.333 22.5833C24.9188 22.5833 24.583 22.9191 24.583 23.3333H26.083ZM13.6663 14.25C13.2521 14.25 12.9163 14.5858 12.9163 15C12.9163 15.4142 13.2521 15.75 13.6663 15.75V14.25ZM16.9997 15.75C17.4139 15.75 17.7497 15.4142 17.7497 15C17.7497 14.5858 17.4139 14.25 16.9997 14.25V15.75ZM33.6663 14.25C33.2521 14.25 32.9163 14.5858 32.9163 15C32.9163 15.4142 33.2521 15.75 33.6663 15.75V14.25ZM36.9997 15.75C37.4139 15.75 37.7497 15.4142 37.7497 15C37.7497 14.5858 37.4139 14.25 36.9997 14.25V15.75ZM30.53 19.1363C30.2371 18.8435 29.7622 18.8435 29.4693 19.1363C29.1765 19.4292 29.1765 19.9041 29.4693 20.197L30.53 19.1363ZM31.4693 22.197C31.7622 22.4899 32.2371 22.4899 32.53 22.197C32.8229 21.9041 32.8229 21.4292 32.53 21.1363L31.4693 22.197ZM29.4693 9.80301C29.1765 10.0959 29.1765 10.5708 29.4693 10.8637C29.7622 11.1566 30.2371 11.1566 30.53 10.8637L29.4693 9.80301ZM32.53 8.86367C32.8229 8.57078 32.8229 8.09591 32.53 7.80301C32.2371 7.51012 31.7622 7.51012 31.4693 7.80301L32.53 8.86367ZM4.80268 34.4697C4.50978 34.7626 4.50978 35.2374 4.80268 35.5303C5.09557 35.8232 5.57044 35.8232 5.86334 35.5303L4.80268 34.4697ZM20.8633 20.5303C21.1562 20.2374 21.1562 19.7626 20.8633 19.4697C20.5704 19.1768 20.0956 19.1768 19.8027 19.4697L20.8633 20.5303ZM20.136 10.8637C20.4289 11.1566 20.9038 11.1566 21.1967 10.8637C21.4896 10.5708 21.4896 10.0959 21.1967 9.80301L20.136 10.8637ZM19.1967 7.80301C18.9038 7.51012 18.4289 7.51012 18.136 7.80301C17.8431 8.09591 17.8431 8.57078 18.136 8.86367L19.1967 7.80301ZM26.083 6.66668V3.33334H24.583V6.66668H26.083ZM26.083 26.6667V23.3333H24.583V26.6667H26.083ZM13.6663 15.75H16.9997V14.25H13.6663V15.75ZM33.6663 15.75H36.9997V14.25H33.6663V15.75ZM29.4693 20.197L31.4693 22.197L32.53 21.1363L30.53 19.1363L29.4693 20.197ZM30.53 10.8637L32.53 8.86367L31.4693 7.80301L29.4693 9.80301L30.53 10.8637ZM5.86334 35.5303L20.8633 20.5303L19.8027 19.4697L4.80268 34.4697L5.86334 35.5303ZM21.1967 9.80301L19.1967 7.80301L18.136 8.86367L20.136 10.8637L21.1967 9.80301Z" fill="#131316"/>
</svg>
