<svg width="375" height="1943" viewBox="0 0 375 1943" fill="none" xmlns="http://www.w3.org/2000/svg">
<g filter="url(#filter0_f_814_3212)">
<path d="M123.104 453.553C106.947 509.768 260.468 351.93 459.901 519.442C490.89 528.348 529.109 489.997 545.266 433.782C561.422 377.567 656.522 277.15 625.533 268.244C594.543 259.338 139.26 397.338 123.104 453.553Z" fill="url(#paint0_linear_814_3212)"/>
</g>
<g opacity="0.3" filter="url(#filter1_f_814_3212)">
<path d="M595.87 829.734C818.144 971.81 -81.1687 753.285 -48.8215 1589.57C-98.9758 1668.04 -319.823 1616.47 -542.097 1474.39C-764.371 1332.32 -1329.98 1189 -1279.82 1110.54C-1229.67 1032.07 373.596 687.657 595.87 829.734Z" fill="url(#paint1_linear_814_3212)" fill-opacity="0.5"/>
</g>
<defs>
<filter id="filter0_f_814_3212" x="-145.409" y="0.485901" width="1044.45" height="787.587" filterUnits="userSpaceOnUse" color-interpolation-filters="sRGB">
<feFlood flood-opacity="0" result="BackgroundImageFix"/>
<feBlend mode="normal" in="SourceGraphic" in2="BackgroundImageFix" result="shape"/>
<feGaussianBlur stdDeviation="133.673" result="effect1_foregroundBlur_814_3212"/>
</filter>
<filter id="filter1_f_814_3212" x="-1598.95" y="479.75" width="2546.19" height="1462.5" filterUnits="userSpaceOnUse" color-interpolation-filters="sRGB">
<feFlood flood-opacity="0" result="BackgroundImageFix"/>
<feBlend mode="normal" in="SourceGraphic" in2="BackgroundImageFix" result="shape"/>
<feGaussianBlur stdDeviation="158" result="effect1_foregroundBlur_814_3212"/>
</filter>
<linearGradient id="paint0_linear_814_3212" x1="404.34" y1="427.707" x2="493.642" y2="280.28" gradientUnits="userSpaceOnUse">
<stop stop-color="#FFC700"/>
<stop offset="1" stop-color="#2ED3B7"/>
</linearGradient>
<linearGradient id="paint1_linear_814_3212" x1="-203.071" y1="1221.08" x2="-934.313" y2="1096.9" gradientUnits="userSpaceOnUse">
<stop stop-color="#00A3FF"/>
<stop offset="1" stop-color="#2ED3B7"/>
</linearGradient>
</defs>
</svg>
