<svg width="24" height="24" viewBox="0 0 24 24" fill="none" xmlns="http://www.w3.org/2000/svg">
<path d="M21.6281 7.60938C21.7922 8.24219 21.9094 9.20312 21.9797 10.4922L22.0148 12.25L21.9797 14.0078C21.9094 15.3203 21.7922 16.293 21.6281 16.9258C21.5109 17.3242 21.3 17.6758 20.9953 17.9805C20.6906 18.2852 20.3273 18.4961 19.9055 18.6133C19.2961 18.7773 17.8664 18.8945 15.6164 18.9648L12.4172 19L9.21797 18.9648C6.96797 18.8945 5.53828 18.7773 4.92891 18.6133C4.50703 18.4961 4.14375 18.2852 3.83906 17.9805C3.53438 17.6758 3.32344 17.3242 3.20625 16.9258C3.04219 16.293 2.925 15.3203 2.85469 14.0078L2.81953 12.25C2.81953 11.7344 2.83125 11.1484 2.85469 10.4922C2.925 9.20312 3.04219 8.24219 3.20625 7.60938C3.32344 7.1875 3.53438 6.82422 3.83906 6.51953C4.14375 6.21484 4.50703 6.00391 4.92891 5.88672C5.53828 5.72266 6.96797 5.60547 9.21797 5.53516L12.4172 5.5L15.6164 5.53516C17.8664 5.60547 19.2961 5.72266 19.9055 5.88672C20.3273 6.00391 20.6906 6.21484 20.9953 6.51953C21.3 6.82422 21.5109 7.1875 21.6281 7.60938ZM10.4484 15.1328L15.4758 12.25L10.4484 9.40234V15.1328Z" fill="#131316" fill-opacity="0.8"/>
</svg>
