<svg width="48" height="49" viewBox="0 0 48 49" fill="none" xmlns="http://www.w3.org/2000/svg">
<rect y="0.313965" width="48" height="48" rx="8" fill="url(#paint0_linear_440_44476)"/>
<path d="M18.5 25.314L19.2845 26.8829C19.5499 27.4139 19.6827 27.6793 19.86 27.9094C20.0174 28.1136 20.2004 28.2966 20.4046 28.4539C20.6346 28.6313 20.9001 28.764 21.4311 29.0295L23 29.814L21.4311 30.5984C20.9001 30.8639 20.6346 30.9967 20.4046 31.174C20.2004 31.3314 20.0174 31.5144 19.86 31.7185C19.6827 31.9486 19.5499 32.2141 19.2845 32.745L18.5 34.314L17.7155 32.745C17.4501 32.2141 17.3173 31.9486 17.14 31.7185C16.9826 31.5144 16.7996 31.3314 16.5954 31.174C16.3654 30.9967 16.0999 30.8639 15.5689 30.5984L14 29.814L15.5689 29.0295C16.0999 28.764 16.3654 28.6313 16.5954 28.4539C16.7996 28.2966 16.9826 28.1136 17.14 27.9094C17.3173 27.6793 17.4501 27.4139 17.7155 26.8829L18.5 25.314Z" stroke="white" stroke-width="1.5" stroke-linecap="round" stroke-linejoin="round"/>
<path d="M27 14.314L28.1786 17.3784C28.4606 18.1116 28.6016 18.4782 28.8209 18.7866C29.0153 19.0599 29.254 19.2987 29.5274 19.4931C29.8357 19.7123 30.2024 19.8533 30.9356 20.1353L34 21.314L30.9356 22.4926C30.2024 22.7746 29.8357 22.9156 29.5274 23.1349C29.254 23.3292 29.0153 23.568 28.8209 23.8413C28.6016 24.1497 28.4606 24.5163 28.1786 25.2495L27 28.314L25.8214 25.2495C25.5394 24.5163 25.3984 24.1497 25.1791 23.8413C24.9847 23.568 24.746 23.3292 24.4726 23.1349C24.1643 22.9156 23.7976 22.7746 23.0644 22.4926L20 21.314L23.0644 20.1353C23.7976 19.8533 24.1643 19.7123 24.4726 19.4931C24.746 19.2987 24.9847 19.0599 25.1791 18.7866C25.3984 18.4782 25.5394 18.1116 25.8214 17.3784L27 14.314Z" stroke="white" stroke-width="1.5" stroke-linecap="round" stroke-linejoin="round"/>
<defs>
<linearGradient id="paint0_linear_440_44476" x1="24" y1="48.314" x2="24" y2="0.313965" gradientUnits="userSpaceOnUse">
<stop stop-color="#2970FF"/>
<stop offset="1" stop-color="#7A5AF8"/>
</linearGradient>
</defs>
</svg>
