<svg width="209" height="84" viewBox="0 0 209 84" fill="none" xmlns="http://www.w3.org/2000/svg">
<path d="M193.904 55.4158C193.904 52.4853 196.283 50.1077 199.212 50.1077C202.143 50.1077 204.519 52.4853 204.519 55.4158C204.519 58.3464 202.143 60.7224 199.212 60.7224C196.283 60.7224 193.904 58.3464 193.904 55.4158Z" fill="#86BC24"/>
<path d="M24.6177 41.3582C24.6177 37.9961 23.9681 35.5017 22.6687 33.8767C21.3677 32.2533 19.397 31.4423 16.7476 31.4423H13.9292V52.0022H16.0855C19.0284 52.0022 21.1849 51.1298 22.558 49.3788C23.9295 47.6309 24.6177 44.9569 24.6177 41.3582ZM34.6687 41.008C34.6687 47.1333 33.0222 51.8531 29.7291 55.1661C26.4361 58.4807 21.807 60.1379 15.8398 60.1379H4.24512V23.434H16.6492C22.4028 23.434 26.8446 24.9407 29.9748 27.9527C33.1036 30.9662 34.6687 35.3159 34.6687 41.008Z" fill="#131316"/>
<path d="M66.7859 60.1375H76.0122V23.28H66.7859V60.1375Z" fill="#131316"/>
<path d="M88.9734 46.3896C88.9734 48.7395 89.2805 50.5319 89.8934 51.7637C90.5078 52.9971 91.5367 53.613 92.9836 53.613C94.4151 53.613 95.4272 52.9971 96.017 51.7637C96.6068 50.5319 96.9002 48.7395 96.9002 46.3896C96.9002 44.0519 96.6021 42.2886 96.0047 41.0983C95.4057 39.9049 94.3845 39.3074 92.9362 39.3074C91.5201 39.3074 90.5078 39.9018 89.8934 41.0845C89.2805 42.2687 88.9734 44.0365 88.9734 46.3896ZM106.291 46.3896C106.291 50.8668 105.117 54.3595 102.764 56.863C100.413 59.3681 97.1214 60.6214 92.89 60.6214C88.8321 60.6214 85.6019 59.3404 83.2044 56.7785C80.8038 54.2166 79.6042 50.7547 79.6042 46.3896C79.6042 41.9262 80.7793 38.458 83.1324 35.9852C85.4853 33.5123 88.7844 32.2759 93.0328 32.2759C95.6577 32.2759 97.9801 32.8489 99.9921 33.9931C102.006 35.1374 103.56 36.7762 104.652 38.9112C105.746 41.043 106.291 43.5373 106.291 46.3896Z" fill="#131316"/>
<path d="M109.955 60.1376H119.183V46.0317V32.7598H109.955V60.1376Z" fill="#131316"/>
<path d="M109.955 29.4482H119.182V23.2784H109.955V29.4482Z" fill="#131316"/>
<path d="M137.878 53.1546C139.123 53.1546 140.607 52.8382 142.338 52.21V59.0986C141.094 59.6454 139.911 60.0371 138.787 60.269C137.663 60.504 136.343 60.6207 134.833 60.6207C131.735 60.6207 129.502 59.842 128.13 58.2877C126.765 56.7333 126.08 54.3465 126.08 51.1257V39.8397H122.849V32.7622H126.08V25.7706L135.379 24.1533V32.7622H141.266V39.8397H135.379V50.4959C135.379 52.2684 136.213 53.1546 137.878 53.1546Z" fill="#131316"/>
<path d="M159.235 53.1546C160.48 53.1546 161.964 52.8382 163.695 52.21V59.0986C162.453 59.6454 161.268 60.0371 160.144 60.269C159.018 60.504 157.703 60.6207 156.19 60.6207C153.092 60.6207 150.859 59.842 149.491 58.2877C148.122 56.7333 147.437 54.3465 147.437 51.1257V39.8397H144.204V32.7622H147.437V25.6647L156.734 24.1533V32.7622H162.624V39.8397H156.734V50.4959C156.734 52.2684 157.568 53.1546 159.235 53.1546Z" fill="#131316"/>
<path d="M175.338 43.0542C175.464 41.5551 175.893 40.4569 176.624 39.755C177.358 39.0546 178.264 38.7045 179.349 38.7045C180.531 38.7045 181.471 39.0976 182.168 39.8902C182.87 40.6781 183.236 41.7333 183.265 43.0542H175.338ZM188.351 35.5036C186.157 33.3533 183.045 32.2766 179.02 32.2766C174.788 32.2766 171.532 33.513 169.25 35.9859C166.969 38.4587 165.828 42.0067 165.828 46.6298C165.828 51.1071 167.061 54.5598 169.522 56.9835C171.984 59.4071 175.441 60.6205 179.894 60.6205C182.032 60.6205 183.872 60.4747 185.414 60.1844C186.947 59.8971 188.43 59.3779 189.87 58.6284L188.452 52.4586C187.406 52.8856 186.411 53.2143 185.471 53.4309C184.113 53.7457 182.623 53.904 181.001 53.904C179.223 53.904 177.819 53.4693 176.79 52.5999C175.761 51.7291 175.212 50.528 175.149 48.9982H191.642V44.7944C191.642 40.7503 190.545 37.6524 188.351 35.5036Z" fill="#131316"/>
<path d="M46.9142 43.0542C47.0402 41.5551 47.4687 40.4569 48.1997 39.755C48.9324 39.0546 49.8403 38.7045 50.9262 38.7045C52.1058 38.7045 53.0457 39.0976 53.7446 39.8902C54.4464 40.6781 54.8105 41.7333 54.8428 43.0542H46.9142ZM59.9282 35.5036C57.7334 33.3533 54.623 32.2766 50.5959 32.2766C46.3628 32.2766 43.1081 33.513 40.8272 35.9859C38.5465 38.4587 37.4038 42.0067 37.4038 46.6298C37.4038 51.1071 38.6357 54.5598 41.0993 56.9835C43.5599 59.4071 47.0171 60.6205 51.4698 60.6205C53.6078 60.6205 55.4478 60.4747 56.9898 60.1844C58.5227 59.8971 60.0066 59.3779 61.4473 58.6284L60.0281 52.4586C58.9821 52.8856 57.9867 53.2143 57.0483 53.4309C55.6875 53.7457 54.1991 53.904 52.577 53.904C50.8 53.904 49.3949 53.4693 48.3659 52.5999C47.3352 51.7291 46.7885 50.528 46.7255 48.9982H63.2181V44.7944C63.2181 40.7503 62.1215 37.6524 59.9282 35.5036Z" fill="#131316"/>
</svg>
