<svg width="40" height="40" viewBox="0 0 40 40" fill="none" xmlns="http://www.w3.org/2000/svg">
<path d="M20.0002 3.3335V5.00016M5.00016 20.0002H3.3335M9.16683 9.16683L8.16667 8.16667M30.8335 9.16683L31.8339 8.16667M36.6668 20.0002H35.0002M16.6668 22.5002H23.3335M20.0002 22.5002V30.8335M25.8335 28.1234C28.3569 26.3081 30.0002 23.346 30.0002 20.0002C30.0002 14.4773 25.523 10.0002 20.0002 10.0002C14.4773 10.0002 10.0002 14.4773 10.0002 20.0002C10.0002 23.346 11.6434 26.3081 14.1668 28.1234V31.3335C14.1668 33.2003 14.1668 34.1338 14.5301 34.8468C14.8497 35.474 15.3597 35.9839 15.9869 36.3035C16.6999 36.6668 17.6333 36.6668 19.5002 36.6668H20.5002C22.367 36.6668 23.3004 36.6668 24.0135 36.3035C24.6407 35.9839 25.1506 35.474 25.4702 34.8468C25.8335 34.1338 25.8335 33.2003 25.8335 31.3335V28.1234Z" stroke="#131316" stroke-width="1.5" stroke-linecap="round" stroke-linejoin="round"/>
</svg>
