<svg width="184" height="23" viewBox="0 0 184 23" fill="none" xmlns="http://www.w3.org/2000/svg">
<g clip-path="url(#clip0_446_49267)">
<mask id="mask0_446_49267" style="mask-type:luminance" maskUnits="userSpaceOnUse" x="1" y="0" width="183" height="23">
<path d="M183.039 0.5H1.39111V22.5H183.039V0.5Z" fill="white"/>
</mask>
<g mask="url(#mask0_446_49267)">
<path d="M98.0378 0.546082C93.7095 0.546082 90.1262 2.78476 88.3345 6.16938H107.745C105.953 2.78476 102.37 0.546082 98.0378 0.546082Z" fill="black"/>
<path d="M98.0369 22.4432C102.266 22.4432 105.8 20.2046 107.641 16.8199H88.3833C90.2742 20.2046 93.8079 22.4432 98.0369 22.4432Z" fill="black"/>
<path d="M108.688 8.55707H87.3872C87.1388 9.45112 87.0396 10.3984 87.0396 11.3457C87.0396 12.4419 87.1886 13.4353 87.437 14.4323H108.639C108.887 13.4353 109.036 12.4419 109.036 11.3457C109.036 10.3984 108.937 9.45467 108.688 8.55707Z" fill="black"/>
<path d="M1.39111 0.893799H14.1809V4.42743H5.4711V9.65337H13.4856V13.187H5.4711V18.562H14.6776V22.0956H1.39111V0.893799Z" fill="black"/>
<path d="M15.8228 0.893799H20.2505L24.7278 14.4287C25.1252 15.674 25.5225 17.6147 25.5225 17.6147H25.5722C25.5722 17.6147 25.9696 15.674 26.3669 14.4287L30.8939 0.893799H35.2719L27.6086 22.0956H23.4364L15.8228 0.893799Z" fill="black"/>
<path d="M37.3735 0.893799H50.1634V4.42743H41.4535V9.65337H49.7163V13.187H41.4535V18.562H50.6601V22.0956H37.3735V0.893799Z" fill="black"/>
<path d="M53.7943 0.893799H60.7125C62.9015 0.893799 63.8984 1.04281 64.7428 1.3905C67.0311 2.23488 68.4751 4.42743 68.4751 7.36148C68.4751 9.84851 67.1802 12.2397 64.9912 13.1338V13.1835C64.9912 13.1835 65.2395 13.5311 65.6865 14.3294L70.0149 22.1417H65.4346L61.3085 14.333H57.8246V22.1453H53.7446V0.893799H53.7943ZM57.8742 4.42743V10.7993H61.1098C63.1002 10.7993 64.3454 9.6037 64.3454 7.56371C64.3454 6.26875 63.8984 5.32503 62.9015 4.82479C62.3551 4.57644 61.7059 4.42743 60.4145 4.42743H57.8742Z" fill="black"/>
<path d="M73.3543 16.4226C73.3543 16.4226 75.6924 18.6613 78.5803 18.6613C80.1236 18.6613 81.5179 17.9163 81.5179 16.2736C81.5179 12.74 71.6159 13.2367 71.6159 6.71933C71.6159 3.08636 74.7025 0.5 78.7825 0.5C83.0612 0.5 85.204 2.78835 85.204 2.78835L83.4124 6.1233C83.4124 6.1233 81.3724 4.28198 78.7328 4.28198C77.0902 4.28198 75.6959 5.22925 75.6959 6.66966C75.6959 10.2033 85.5979 9.35537 85.5979 16.1743C85.5979 19.5589 83.0115 22.4433 78.4809 22.4433C73.7517 22.4433 71.1157 19.5554 71.1157 19.5554L73.3543 16.4226Z" fill="black"/>
<path d="M111.176 0.893799H115.256V14.4287C115.256 17.1677 117.047 18.7074 119.783 18.7074C122.522 18.7074 124.31 17.1641 124.31 14.4287V0.893799H128.39V14.4287C128.39 19.158 124.955 22.4397 119.779 22.4397C114.603 22.4397 111.169 19.1544 111.169 14.4287L111.176 0.893799Z" fill="black"/>
<path d="M131.581 0.893799H138.549C140.738 0.893799 141.735 1.04281 142.579 1.3905C144.867 2.23488 146.311 4.42743 146.311 7.36148C146.311 9.84851 145.016 12.2397 142.827 13.1338V13.1835C142.827 13.1835 143.076 13.5311 143.523 14.3294L147.851 22.1417H143.271L139.145 14.333H135.661V22.1453H131.581V0.893799ZM135.661 4.42743V10.7993H138.896C140.887 10.7993 142.132 9.6037 142.132 7.56371C142.132 6.26875 141.685 5.32503 140.688 4.82479C140.142 4.57644 139.492 4.42743 138.201 4.42743H135.661Z" fill="black"/>
<path d="M159.251 0.546143C164.428 0.546143 167.064 3.43407 167.064 3.43407L165.123 6.52067C165.123 6.52067 162.686 4.282 159.4 4.282C155.022 4.282 152.482 7.56728 152.482 11.3493C152.482 15.1809 155.068 18.7145 159.4 18.7145C162.984 18.7145 165.471 16.0288 165.471 16.0288L167.61 19.0161C167.61 19.0161 164.672 22.5001 159.198 22.5001C152.677 22.5001 148.2 17.7212 148.2 11.4521C148.303 5.22572 152.979 0.546143 159.251 0.546143Z" fill="black"/>
<path d="M169.751 0.893799H182.59V4.42743H173.88V9.65337H181.842V13.187H173.88V18.562H183.037V22.0956H169.751V0.893799Z" fill="black"/>
</g>
</g>
<defs>
<clipPath id="clip0_446_49267">
<rect width="183" height="23" fill="white" transform="translate(0.818848)"/>
</clipPath>
</defs>
</svg>
