<svg width="68" height="49" viewBox="0 0 68 49" fill="none" xmlns="http://www.w3.org/2000/svg">
<g clip-path="url(#clip0_446_49288)">
<path d="M9.54883 47.6853C10.097 45.3216 14.0043 44.5498 15.6005 44.3305C20.4418 43.6158 25.2831 44.7164 30.0104 43.2299C30.8917 42.9535 31.7688 42.5676 32.5977 42.1862C37.2197 39.7655 42.938 34.9241 47.7224 33.5516C52.6163 32.122 57.2383 32.8894 62.1322 32.1746C63.7285 31.9554 66.478 31.2406 67.0832 28.8725V23.812C66.535 26.1756 63.1759 26.8904 61.584 27.1141C56.7427 27.8288 52.0681 27.057 47.1742 28.4911C42.3899 29.868 36.6671 34.7619 32.0495 37.1255C31.225 37.5641 30.3436 37.8973 29.4622 38.1693C24.6209 39.7655 19.9462 38.5552 15.0523 39.27C13.4561 39.4892 10.1584 40.0418 9.55321 42.3484C9.54883 42.3484 9.54883 47.6853 9.54883 47.6853ZM61.5271 16.6639C56.6858 17.3788 52.0111 16.607 47.1172 18.041C42.3329 19.4135 36.6102 24.3074 31.9925 26.6755C31.8828 26.7325 31.8258 26.7852 31.7162 26.7852V32.065C31.9925 31.9554 32.2644 31.7887 32.5406 31.6791C37.1627 29.2584 42.8811 24.4171 47.6653 23.0445C52.5592 21.6149 57.1813 22.3824 62.0752 21.6675C63.6715 21.4483 66.421 20.7335 67.0262 18.3655V13.3093C66.478 15.6729 63.1233 16.4447 61.5271 16.6639ZM61.5271 6.15693C56.6858 6.87173 52.0111 6.09992 47.1172 7.5339C42.3329 8.91087 36.6102 13.8048 31.9925 16.1685C31.8828 16.2254 31.8258 16.278 31.7162 16.278V21.558C31.9925 21.4483 32.2644 21.2816 32.5406 21.1721C37.1627 18.7514 42.8811 13.91 47.6653 12.5375C52.5592 11.1079 57.1813 11.8753 62.0752 11.1605C63.6715 10.9413 66.421 10.2264 67.0262 7.85841V2.85922C66.478 5.22287 63.1233 5.93767 61.5271 6.15693Z" fill="black"/>
<path d="M28.9676 1.31512H4.65586C2.78774 1.31512 1.24414 2.6921 1.24414 4.39357V30.6831C1.24414 32.389 2.78336 33.7616 4.65586 33.7616H28.9676C30.8357 33.7616 32.3794 32.3846 32.3794 30.6831V4.39796C32.3749 2.6921 30.8357 1.31512 28.9676 1.31512ZM27.5907 29.0387H21.1575V20.2945H12.466V29.0387H6.02843V5.82755H12.466V14.0236H21.1575V5.82755H27.595V29.0387H27.5907Z" fill="black"/>
</g>
<defs>
<clipPath id="clip0_446_49288">
<rect width="67.0189" height="48" fill="white" transform="translate(0.800049 0.5)"/>
</clipPath>
</defs>
</svg>
