<svg width="119" height="29" viewBox="0 0 119 29" fill="none" xmlns="http://www.w3.org/2000/svg">
<path fill-rule="evenodd" clip-rule="evenodd" d="M11.5005 12.0283C11.5005 12.0283 11.5005 12.0283 8.32776 27.3276C8.32776 27.3276 8.32776 27.3276 1.06738 27.3276C1.06738 27.3276 1.06738 27.3276 2.46885 20.6317C3.57834 15.24 7.12094 12.223 11.5005 12.0283ZM7.2572 7.97964C9.16475 7.97964 10.7025 6.4614 10.7025 4.57332C10.7025 2.7047 9.16475 1.16699 7.2572 1.16699C5.34964 1.16699 3.81192 2.68524 3.81192 4.57332C3.81192 6.44193 5.34964 7.97964 7.2572 7.97964Z" fill="black"/>
<path fill-rule="evenodd" clip-rule="evenodd" d="M22.6928 17.1475C22.6928 17.1475 22.6928 17.1475 28.2987 27.3276C28.2987 27.3276 28.2987 27.3276 19.7147 27.3276C19.7147 27.3276 19.7147 27.3276 11.5005 12.0478C11.5005 12.0478 11.5005 12.0478 17.6709 12.0478C18.8777 12.0478 20.104 11.1135 20.2792 9.8872C20.5517 8.66092 19.812 7.62929 18.6052 7.62929C18.6052 7.62929 18.6052 7.62929 12.5322 7.62929C12.5322 7.62929 12.5322 7.62929 13.8363 1.30325C13.8363 1.30325 13.8363 1.30325 21.8558 1.30325C26.9946 1.30325 29.3303 5.64389 28.4739 9.78987C27.559 14.0332 24.1916 16.2911 22.6928 17.1475ZM112.64 1.30325C105.73 1.30325 105.73 1.30325 105.73 1.30325C102.168 18.3349 102.168 18.3349 102.168 18.3349C101.136 23.2205 104.601 27.8337 112.913 27.8337H113.107C114.509 21.2546 114.509 21.2546 114.509 21.2546C111.9 21.6244 108.533 20.5928 109.097 17.7704C110.032 13.5466 110.032 13.5466 110.032 13.5466C116.105 13.5466 116.105 13.5466 116.105 13.5466C117.312 7.60982 117.312 7.60982 117.312 7.60982C111.239 7.60982 111.239 7.60982 111.239 7.60982L112.64 1.30325ZM65.3403 13.5271C62.5374 13.5271 60.6687 15.0259 60.1237 17.5757C59.5592 20.2035 60.6882 21.9942 63.569 21.9942C66.4498 21.9942 68.4157 20.3008 68.9802 17.7704C69.5447 15.3178 68.2406 13.5271 65.3403 13.5271ZM75.7735 18.2376C74.372 24.7388 69.6226 27.8337 62.3427 27.8337C55.9193 27.8337 52.0069 23.6098 53.2137 17.7704C53.2137 17.7704 53.2137 17.7704 56.659 1.30325C56.659 1.30325 56.659 1.30325 63.5495 1.30325C63.5495 1.30325 63.5495 1.30325 61.9729 8.44681C62.8099 8.05751 65.1457 7.68768 66.5471 7.68768C72.5228 7.70715 77.0776 11.931 75.7735 18.2376ZM89.8855 13.566C86.9852 13.566 85.136 15.1621 84.5716 17.7899C84.0071 20.3203 85.2334 22.0137 88.1142 22.0137C91.0144 22.0137 92.9609 20.3203 93.5254 17.7899C93.9926 15.3568 92.7857 13.566 89.8855 13.566ZM100.435 17.7899C99.1313 23.9796 94.557 27.8337 86.81 27.8337C80.4645 27.8337 76.3574 23.9796 77.6615 17.7899C78.9657 11.6001 84.6689 7.74608 91.1117 7.74608C97.6325 7.76554 101.662 11.6001 100.435 17.7899ZM40.8341 13.566C37.9338 13.566 35.9873 15.1621 35.5202 17.7899C34.9557 20.3203 36.182 22.0137 39.0628 22.0137C41.963 22.0137 43.9095 20.3203 44.3767 17.7899C44.9411 15.3568 43.6175 13.566 40.8341 13.566ZM51.2867 17.7899C49.9825 23.9796 45.5056 27.8337 37.6613 27.8337C31.3157 27.8337 27.306 23.9796 28.6101 17.7899C29.9143 11.6001 35.5202 7.74608 42.0603 7.74608C48.5811 7.76554 52.5908 11.6001 51.2867 17.7899Z" fill="black"/>
<path d="M117.857 3.32757C117.857 2.58791 117.234 1.9845 116.475 1.9845C115.716 1.9845 115.093 2.58791 115.093 3.32757C115.093 4.06723 115.716 4.67063 116.475 4.67063C117.234 4.67063 117.857 4.08669 117.857 3.32757Z" fill="black"/>
<path d="M115.891 4.18402V2.56845H116.611C116.747 2.56845 116.864 2.58792 116.942 2.60738C117.02 2.62685 117.078 2.68524 117.117 2.7631C117.156 2.84096 117.175 2.91882 117.175 2.99668C117.175 3.11346 117.136 3.21079 117.059 3.28865C116.981 3.36651 116.864 3.4249 116.708 3.44436C116.767 3.46383 116.806 3.50276 116.844 3.52222C116.903 3.58062 116.961 3.65848 117.02 3.73634L117.292 4.16456H117.039L116.825 3.83366C116.767 3.73634 116.708 3.65848 116.669 3.61955C116.63 3.58062 116.591 3.54169 116.552 3.50276C116.514 3.48329 116.494 3.46383 116.455 3.46383C116.436 3.46383 116.397 3.46383 116.338 3.46383H116.085V4.18402H115.891ZM116.105 3.26918H116.552C116.65 3.26918 116.728 3.24972 116.786 3.23025C116.844 3.21079 116.883 3.17186 116.903 3.13293C116.922 3.094 116.942 3.03561 116.942 2.99668C116.942 2.91882 116.922 2.86042 116.864 2.80203C116.806 2.74363 116.728 2.72417 116.611 2.72417H116.105V3.26918Z" fill="black"/>
</svg>
