<svg width="54" height="65" viewBox="0 0 54 65" fill="none" xmlns="http://www.w3.org/2000/svg">
<mask id="mask0_446_49296" style="mask-type:luminance" maskUnits="userSpaceOnUse" x="1" y="0" width="53" height="65">
<path d="M53.2444 0.5H1.15479V64.5H53.2444V0.5Z" fill="white"/>
</mask>
<g mask="url(#mask0_446_49296)">
<path d="M19.3607 32.8028H15.481L33.7796 5.15204L35.8379 8.13479L19.3607 32.8028Z" fill="black"/>
<path d="M26.2288 32.8034H22.3481L37.1884 10.0895L39.2477 13.0723L26.2288 32.8034Z" fill="black"/>
<path d="M31.2899 1.54249C31.1562 1.35071 30.9286 0.883301 30.4215 0.883301C29.902 0.883301 29.6867 1.36289 29.552 1.54249L8.61768 32.8026H12.4974L32.4725 3.25581L31.2899 1.54249Z" fill="black"/>
<path d="M21.3398 6.14359C21.2062 5.95181 20.9786 5.48541 20.4714 5.48541C19.952 5.48541 19.7367 5.96399 19.604 6.14359L1.75244 32.8025H5.63217L22.5011 7.89058L21.3398 6.14359Z" fill="black"/>
<path d="M21.3346 6.1456C21.2009 5.95469 20.9734 5.48743 20.4672 5.48743C19.9478 5.48743 19.7325 5.96701 19.5988 6.1456L18.4263 7.90279L35.2596 32.8025H39.1393L21.3346 6.1456Z" fill="black"/>
<path d="M31.2857 1.54457C31.152 1.35279 30.9244 0.885376 30.4183 0.885376C29.8989 0.885376 29.6825 1.36497 29.5499 1.54457L28.3774 3.30074L48.9822 32.8036H52.863L31.2857 1.54457Z" fill="black"/>
<path d="M42.1184 32.803H45.9991L27.173 5.11243L25.1392 8.1319L42.1184 32.803Z" fill="black"/>
<path d="M35.838 8.13894L33.7787 5.15619L31.7817 8.17465L33.843 11.1258L35.838 8.13894Z" fill="black"/>
<path d="M39.2449 13.0744L37.1856 10.0917L35.2212 13.0989L37.2815 16.049L39.2449 13.0744Z" fill="black"/>
<path d="M31.2857 1.54457C31.152 1.35279 30.9244 0.885376 30.4183 0.885376C30.353 0.885376 30.2928 0.891172 30.2377 0.905635C29.8489 1.00167 29.6693 1.38626 29.5529 1.54342L28.4937 3.12609L28.3774 3.30052L30.4438 6.25776L32.4704 3.26071L31.2857 1.54457Z" fill="black"/>
<path d="M27.173 5.11243L25.1392 8.1319L27.175 11.0891L29.1996 8.09416L27.173 5.11243Z" fill="black"/>
<path d="M30.5703 16.0227L32.5622 13.0399L30.5346 10.0562L28.5396 13.0716L30.5703 16.0227Z" fill="black"/>
<path d="M34.0068 21.0126L35.967 18.0421L33.9394 15.0604L31.9771 18.0636L34.0068 21.0126Z" fill="black"/>
<path d="M21.3356 6.1456C21.2019 5.95469 20.9733 5.48743 20.4672 5.48743C20.4029 5.48743 20.3427 5.49322 20.2866 5.50769C19.8978 5.60372 19.7192 5.9873 19.6029 6.14445L18.4263 7.90262L20.458 10.9068L22.4999 7.89039L22.4846 7.86726L21.3356 6.1456Z" fill="black"/>
<path d="M25.9 12.9794L23.8999 9.98541L21.8774 13.0059L23.8795 15.9672L25.9 12.9794Z" fill="black"/>
<path d="M29.249 17.9993L27.2541 15.0125L25.2642 18.0207L27.2612 20.9759L29.249 17.9993Z" fill="black"/>
<path d="M32.645 23.0784L30.651 20.0937L28.6938 23.0896L30.6898 26.0418L32.645 23.0784Z" fill="black"/>
<path d="M1.5376 49.6934C2.36416 49.6934 2.99071 49.5251 2.99071 47.9342V41.0963L1.7825 41.0349V40.5145L5.48468 40.5758L7.85517 47.0771H7.8705L10.2726 40.5758L13.9288 40.5145V41.0349L12.69 41.0963V49.6322L13.9288 49.6935V50.214C13.3166 50.214 12.1696 50.1526 11.5573 50.1526C10.9461 50.1526 9.85934 50.214 9.2481 50.214V49.6935L10.4716 49.6322V41.7687H10.441L7.42763 50.1833H6.67761L3.63363 41.7687H3.60302V47.9342C3.60302 49.5251 4.19896 49.6934 5.17858 49.6934V50.2139C4.41325 50.2139 3.97038 50.1526 3.35811 50.1526C2.74585 50.1526 2.30297 50.2139 1.53764 50.2139L1.5376 49.6934Z" fill="black"/>
<path d="M14.1899 46.7572C14.1899 44.1571 15.9491 42.9479 17.9074 42.9479C19.8962 42.9479 21.6402 44.0041 21.6402 46.6041C21.6402 49.2205 19.9268 50.4134 17.9074 50.4134C15.9185 50.4134 14.1899 49.3736 14.1899 46.7572ZM19.4064 46.6805C19.4064 44.5999 18.9931 43.4682 17.9074 43.4682C16.8512 43.4682 16.4236 44.5999 16.4236 46.6805C16.4236 48.7765 16.8512 49.8929 17.9074 49.8929C18.9931 49.8929 19.4064 48.7765 19.4064 46.6805Z" fill="black"/>
<path d="M22.9387 44.5705C22.9387 43.7287 22.6785 43.7286 21.8989 43.7286V43.2092L24.9582 43.0562V47.2624C24.9582 48.7319 24.9888 49.4809 25.9368 49.4809C26.6868 49.4809 27.6348 48.5941 27.6348 47.0951V44.5706C27.6348 43.7287 27.2838 43.7287 26.6103 43.7287V43.2093L29.6543 43.0563V49.6034L30.6951 49.634V50.1545L27.7573 50.3075L27.7113 48.9452H27.696C27.2072 49.7717 26.3501 50.384 25.1419 50.384C23.5357 50.384 22.9387 49.5575 22.9387 47.8135V44.5705Z" fill="black"/>
<path d="M35.0837 49.6948V50.2153C34.349 50.2153 33.9521 50.1539 33.0643 50.1539C32.1775 50.1539 31.7642 50.2153 31.0142 50.2153V49.6948L32.0551 49.6182V44.5394C32.0551 43.7282 31.7949 43.7282 31.0142 43.7282V43.2088L33.9521 43.0558L33.9827 44.3864H33.998C34.5174 43.5456 35.344 42.9333 36.5522 42.9333C37.8369 42.9333 38.7553 43.7129 38.7553 45.6415V49.6182L39.8104 49.6948V50.2153C39.0614 50.2153 38.6481 50.154 37.7604 50.154C36.8736 50.154 36.4909 50.2153 35.7419 50.2153V49.6948L36.7511 49.6182V46.0844C36.7511 44.4324 36.5675 43.8364 35.7572 43.8364C35.0072 43.8364 34.0735 44.7232 34.0735 46.2222V49.6182L35.0837 49.6948Z" fill="black"/>
<path d="M42.6125 48.1798C42.5819 49.1278 42.6125 49.6482 43.2401 49.6482C43.8054 49.6482 44.1268 48.838 44.1268 48.838L44.6167 49.0208C44.6167 49.0208 44.2952 50.429 42.689 50.429C40.8073 50.429 40.6084 49.4034 40.6084 48.2105V43.8043H39.4614V43.2083H40.6084V40.6532C41.7564 40.6532 42.6125 40.3624 42.6125 40.3624V43.2083H44.3258V43.8043H42.6125V48.1798Z" fill="black"/>
<path d="M2.77614 60.2467C2.89858 60.9355 3.89251 63.5356 5.89666 63.5356C7.15181 63.5356 7.6559 62.8325 7.6559 62.0366C7.6559 59.2069 2.37817 60.7825 2.37817 56.912C2.37817 54.6323 4.25986 53.8833 5.65175 53.8833C6.9222 53.8833 7.57937 54.2966 7.82428 54.2966C8.0845 54.2966 8.16103 53.9599 8.16103 53.9599H8.66615C8.66615 54.464 8.63554 54.8313 8.63554 55.3211C8.63554 56.0405 8.66615 56.4528 8.66615 56.9426H8.16103C8.03858 56.2691 7.16711 54.4027 5.5293 54.4027C4.61192 54.4027 3.98435 54.9691 3.98435 55.765C3.98435 58.3651 9.41515 56.8661 9.41515 60.9662C9.41515 63.2142 7.71713 64.1173 5.85074 64.1173C4.22926 64.1173 3.38841 63.5663 3.11289 63.5663C2.79145 63.5663 2.73022 63.9336 2.73022 63.9336H2.2251C2.2251 63.1989 2.27104 62.756 2.27104 62.0213C2.27104 61.3172 2.2251 60.8743 2.2251 60.2467H2.77614Z" fill="black"/>
<path d="M14.0811 63.291V63.8115C13.3463 63.8115 12.9188 63.7502 12.031 63.7502C11.1442 63.7502 10.731 63.8115 9.98096 63.8115V63.291L11.0218 63.2144V58.1663C11.0218 57.3245 10.7463 57.3244 9.98096 57.3244V56.805L13.0412 56.652V63.2144L14.0811 63.291ZM12.0463 52.9958C12.6739 52.9958 13.2698 53.4091 13.2698 54.1581C13.2698 54.9081 12.6739 55.3214 12.0463 55.3214C11.4044 55.3214 10.8075 54.9081 10.8075 54.1581C10.8075 53.4091 11.4044 52.9958 12.0463 52.9958Z" fill="black"/>
<path d="M18.4705 63.2928V63.8132C17.7357 63.8132 17.3388 63.7519 16.451 63.7519C15.5642 63.7519 15.151 63.8132 14.4009 63.8132V63.2928L15.4418 63.2161V58.1374C15.4418 57.3262 15.1816 57.3262 14.4009 57.3262V56.8068L17.3388 56.6537L17.3694 57.9844H17.3847C17.9041 57.1435 18.7307 56.5312 19.9389 56.5312C21.2236 56.5312 22.142 57.3109 22.142 59.2395V63.2161L23.1972 63.2928V63.8132C22.4482 63.8132 22.0349 63.7519 21.1471 63.7519C20.2603 63.7519 19.8777 63.8132 19.1287 63.8132V63.2928L20.1379 63.2161V59.6824C20.1379 58.0303 19.9542 57.4343 19.144 57.4343C18.3939 57.4343 17.4613 58.3211 17.4613 59.8201V63.2161L18.4705 63.2928Z" fill="black"/>
<path d="M31.3506 62.6345C31.3506 62.6345 31.1363 64.0274 29.5607 64.0274C28.8117 64.0274 28.1842 63.7213 27.924 62.9559H27.8933C27.5566 63.5988 26.9147 64.0876 25.7973 64.0876C24.7269 64.0876 23.4575 63.5988 23.4575 61.9916C23.4575 60.0038 25.7973 59.8201 27.878 59.8354V59.0854C27.924 57.8619 27.8168 57.0507 26.8229 57.0507C26.0576 57.0507 25.7208 57.4333 25.6443 57.5864C25.6443 57.5864 25.981 57.7701 25.981 58.2905C25.981 58.8252 25.5831 59.2079 24.9565 59.2079C24.3595 59.2079 23.931 58.8405 23.931 58.2293C23.931 57.1425 25.3228 56.5312 26.976 56.5312C29.6526 56.5312 29.8822 58.0456 29.8516 59.4834L29.775 62.3743C29.7597 62.8488 29.9128 63.1702 30.2495 63.1702C30.6924 63.1702 30.8455 62.512 30.8455 62.512L31.3506 62.6345ZM27.8474 60.3548C25.9504 60.3253 25.5218 60.8293 25.5218 61.7936C25.5218 62.6957 25.8739 63.1549 26.5168 63.1549C27.1127 63.1549 27.7862 62.6345 27.8168 61.5334L27.8474 60.3548Z" fill="black"/>
<path d="M35.4679 63.291V63.8115C34.7332 63.8115 34.3056 63.7502 33.4178 63.7502C32.531 63.7502 32.1178 63.8115 31.3677 63.8115V63.291L32.4086 63.2144V58.1663C32.4086 57.3245 32.1331 57.3244 31.3677 57.3244V56.805L34.428 56.652V63.2144L35.4679 63.291ZM33.4331 52.9958C34.0607 52.9958 34.6566 53.4091 34.6566 54.1581C34.6566 54.9081 34.0607 55.3214 33.4331 55.3214C32.7912 55.3214 32.1943 54.9081 32.1943 54.1581C32.1943 53.4091 32.7912 52.9958 33.4331 52.9958Z" fill="black"/>
<path d="M36.1444 1.38953C36.4536 1.38953 36.7496 1.46707 37.0343 1.62125C37.318 1.77629 37.5414 1.9978 37.7037 2.28556C37.8659 2.57424 37.9465 2.87637 37.9465 3.19169C37.9465 3.50597 37.867 3.80495 37.7078 4.08967C37.5486 4.3743 37.3271 4.59682 37.0424 4.75499C36.7577 4.91408 36.4577 4.99364 36.1444 4.99364C35.8312 4.99364 35.5312 4.91408 35.2465 4.75499C34.9617 4.59677 34.7403 4.37435 34.5811 4.08967C34.4219 3.80504 34.3423 3.50597 34.3423 3.19169C34.3423 2.87637 34.423 2.57432 34.5852 2.28556C34.7475 1.99774 34.9709 1.77635 35.2546 1.62125C35.5393 1.46707 35.8352 1.38953 36.1444 1.38953ZM36.1465 1.74262C35.8985 1.74262 35.6618 1.8048 35.4342 1.92831C35.2067 2.05182 35.0271 2.23034 34.8964 2.46197C34.7648 2.69454 34.6995 2.93749 34.6995 3.19161C34.6995 3.44471 34.7638 3.68547 34.8913 3.91404C35.0189 4.14371 35.1975 4.32222 35.4271 4.4508C35.6556 4.57952 35.8955 4.64376 36.1465 4.64376C36.3996 4.64376 36.6394 4.57952 36.8679 4.4508C37.0965 4.32237 37.2741 4.14366 37.4037 3.91404C37.5322 3.68553 37.5965 3.44465 37.5965 3.19161C37.5965 2.93735 37.5302 2.69462 37.3996 2.46197C37.269 2.23028 37.0894 2.05176 36.8608 1.92831C36.6322 1.8048 36.3945 1.74262 36.1465 1.74262ZM35.3301 4.15693V2.24363H35.7189C36.0822 2.24363 36.2863 2.24568 36.3302 2.24941C36.4587 2.26098 36.5587 2.28529 36.6302 2.32607C36.7016 2.36599 36.7608 2.42701 36.8088 2.50858C36.8567 2.59131 36.8812 2.68299 36.8812 2.78307C36.8812 2.92076 36.8353 3.03907 36.7455 3.13718C36.6557 3.23524 36.5291 3.29631 36.3659 3.31974C36.424 3.33998 36.4679 3.3657 36.4996 3.39115C36.5312 3.41718 36.5741 3.46668 36.6292 3.53813C36.6434 3.55837 36.6904 3.63502 36.77 3.77069L36.9965 4.15742H36.5159L36.3557 3.8462C36.2475 3.63794 36.1587 3.50637 36.0883 3.45228C36.0169 3.39819 35.9281 3.3716 35.8199 3.3716H35.7189V4.15733L35.3301 4.15693ZM35.7189 3.06917H35.8761C36.1006 3.06917 36.2393 3.06048 36.2934 3.04313C36.3475 3.02577 36.3904 2.99626 36.422 2.95229C36.4536 2.90948 36.4689 2.86061 36.4689 2.80536C36.4689 2.75243 36.4536 2.70442 36.423 2.66364C36.3924 2.62169 36.3496 2.59217 36.2924 2.57395C36.2363 2.55659 36.0975 2.54504 35.8761 2.54504H35.7189V3.06917Z" fill="black"/>
</g>
</svg>
