<svg width="122" height="41" viewBox="0 0 122 41" fill="none" xmlns="http://www.w3.org/2000/svg">
<g clip-path="url(#clip0_446_49363)">
<path d="M51.2898 15.2262C51.0239 15.2262 50.9469 15.3787 50.9469 15.7216V24.8396C50.9469 25.8701 51.3278 26.213 51.9394 26.3275C52.4728 26.48 53.0073 26.556 53.0073 27.0145C53.0073 27.3575 52.8548 27.5479 52.2443 27.5479C51.5948 27.5479 51.1753 27.3955 49.2294 27.3955C47.1701 27.3955 46.6356 27.5479 45.8726 27.5479C45.4526 27.5479 45.2231 27.3955 45.2231 26.8995C45.2231 26.67 45.4146 26.4415 45.8341 26.365C47.245 26.0991 47.398 25.7551 47.398 24.6866V5.80321C47.398 4.77274 47.055 4.65824 46.635 4.46777C45.6046 4.16227 45.3376 4.31529 45.3376 3.85783C45.3376 3.55233 45.4901 3.3624 46.1396 3.3624C46.7881 3.3624 48.123 3.51488 49.2294 3.51488C50.3364 3.51488 51.4043 3.3624 52.1293 3.3624C52.8152 3.3624 52.9677 3.51488 52.9677 3.89582C52.9677 4.43032 52.5868 4.43031 51.8618 4.5828C51.3664 4.65877 50.9464 4.92575 50.9464 5.65072V13.5478C50.9464 13.8907 51.0234 14.0058 51.3273 14.0058H58.119C58.4245 14.0058 58.462 13.8913 58.462 13.4713V5.91717C58.462 4.92469 58.119 4.65771 57.5085 4.46724C56.7836 4.35274 56.3636 4.31475 56.3636 3.93274C56.3636 3.51381 56.7065 3.36133 57.241 3.36133C58.004 3.36133 58.8049 3.51381 60.2923 3.51381C62.2757 3.51381 62.8107 3.36133 63.5352 3.36133C63.9932 3.36133 64.1836 3.51381 64.1836 3.81932C64.1836 4.2773 63.6502 4.46777 62.8102 4.58227C62.3148 4.65824 61.9707 4.96321 61.9707 5.42066V24.8011C61.9707 25.6785 62.2377 26.1365 62.6577 26.327C63.3447 26.67 64.0686 26.594 64.0686 27.09C64.0686 27.3569 63.9541 27.5479 63.3447 27.5479C62.6952 27.5479 61.7423 27.3955 60.2164 27.3955C58.6139 27.3955 58.0794 27.5479 57.469 27.5479C56.6306 27.5479 56.4395 27.3955 56.4395 26.938C56.4395 26.6325 56.668 26.518 57.5075 26.3281C58.2704 26.1756 58.4609 25.7947 58.4609 24.8022V15.6842C58.4609 15.3787 58.3839 15.2262 58.1179 15.2262H51.2898Z" fill="black"/>
<path d="M67.3913 18.0867C66.7043 18.0867 66.4368 18.3537 66.4368 18.9642C66.4368 22.8935 68.1152 25.9458 70.7475 25.9458C72.5025 25.9458 73.5329 25.0684 74.0674 23.7709C74.3729 23.0839 74.4484 22.5885 74.7533 22.5885C74.9829 22.5885 75.1353 22.703 75.1353 23.123C75.1353 23.6955 74.9438 24.3814 74.6009 25.0298C73.8379 26.6702 72.0825 27.8922 69.9086 27.8922C65.5978 27.8922 63.0024 24.2294 63.0024 19.1552C63.0024 12.8606 66.2078 9.65625 69.8696 9.65625C72.9219 9.65625 75.1348 11.9451 75.1348 15.7984C75.1348 17.9342 75.0963 18.0873 74.0278 18.0873L67.3913 18.0867ZM66.5144 15.9883C66.5144 16.7133 66.6288 16.9038 67.9643 16.9038C68.6893 16.9038 69.2987 16.8278 69.8332 16.7513C70.9781 16.5988 71.7411 16.2933 71.9316 15.9883C72.2371 15.6828 72.3516 15.2634 72.3516 14.3859C72.3516 12.135 71.3211 10.7622 69.8332 10.7622C67.8873 10.7622 66.5144 13.2806 66.5144 15.9509V15.9883Z" fill="black"/>
<path d="M84.2932 13.0881C84.2932 11.2952 83.7977 10.7238 82.8052 10.7238C81.0503 10.7238 80.2114 12.1347 79.6769 14.0046C79.411 14.843 78.9519 15.4915 78.4185 15.9115C77.9605 16.2555 77.4651 16.446 76.8926 16.446C76.1296 16.446 75.8247 16.179 75.8247 15.4155C75.8247 13.1646 79.067 9.6543 83.7207 9.6543C85.1706 9.6543 86.0861 9.84584 86.6586 10.3413C87.2685 10.7993 87.498 11.5622 87.498 12.5922V24.0375C87.498 24.991 87.841 25.411 88.4894 25.411C89.1764 25.411 89.4819 25.0669 89.6344 24.686C89.8249 24.304 89.9014 23.923 90.1678 23.923C90.3974 23.923 90.4739 24.1135 90.4739 24.5715C90.4739 25.411 89.4049 27.7769 87.0786 27.7769C85.4382 27.7769 85.0181 26.4794 84.7512 25.7165C84.6367 25.411 84.5216 25.182 84.3312 25.182C84.0267 25.182 83.4537 25.9069 82.5383 26.5939C81.6999 27.2798 80.5549 27.8903 79.029 27.8903C77.2741 27.8903 75.9777 26.6699 75.9777 24.419C75.9777 22.5111 77.0071 21.1762 80.2119 19.0778C81.5083 18.2394 82.3869 17.7044 82.9973 17.2469C83.9887 16.637 84.2937 16.2555 84.2937 15.416L84.2932 13.0881ZM79.3339 23.8091C79.3339 25.22 80.0589 25.9449 81.1269 25.9449C81.9278 25.9449 82.6148 25.4869 83.3387 24.801C84.0267 24.1141 84.2932 23.6186 84.2932 22.6641V18.4299C84.2932 18.0099 84.2172 17.9344 84.0273 17.9344C83.8357 17.9344 83.6453 17.9724 83.1498 18.3534C82.3478 18.8879 81.5854 19.5358 81.0129 20.1853C79.9824 21.2532 79.3345 22.4362 79.3345 23.7716L79.3339 23.8091Z" fill="black"/>
<path d="M91.6935 4.27723C91.6935 3.55226 91.503 3.3238 90.663 3.17132C89.976 3.01883 89.7855 2.97978 89.7855 2.63682C89.7855 2.33132 89.938 2.21683 90.4725 2.06434C91.9984 1.56891 93.0284 1.18689 93.7148 0.881922C94.2493 0.616011 94.4398 0.500977 94.6303 0.500977C94.8598 0.500977 94.8973 0.72944 94.8973 1.26394V25.1461C94.8973 26.0996 95.2793 26.1755 96.4617 26.4815C96.8817 26.595 97.2247 26.672 97.2247 27.053C97.2247 27.359 96.9577 27.5495 96.6522 27.5495C96.2701 27.5495 95.8512 27.397 93.3333 27.397C91.007 27.397 90.587 27.5495 90.167 27.5495C89.9 27.5495 89.5571 27.435 89.5571 27.053C89.5571 26.7475 89.9 26.5575 90.2055 26.4815C91.503 26.29 91.6935 25.9091 91.6935 24.9171V4.27723Z" fill="black"/>
<path d="M101.193 24.1154C101.193 25.5262 101.651 25.8328 102.375 25.8328C103.061 25.8328 103.481 25.2983 103.786 24.8023C104.092 24.3058 104.283 23.8098 104.625 23.8098C104.854 23.8098 105.007 23.9243 105.007 24.1908C105.007 24.6873 104.244 27.8536 101.192 27.8536C100.162 27.8536 99.3614 27.5866 98.8269 27.0142C98.2545 26.4427 97.9875 25.5262 97.9875 24.3058V12.0595C97.9875 11.7165 97.797 11.5641 97.5675 11.487C97.339 11.449 96.9581 11.449 96.6906 11.449C96.3465 11.411 96.0806 11.3731 96.0806 10.9536C96.0806 10.7251 96.3091 10.4581 96.8045 9.9611C97.8735 9.00767 98.7515 7.97774 100.085 5.68887C100.467 5.00189 100.543 4.77344 100.81 4.77344C101.04 4.77344 101.192 4.84941 101.192 5.61183V9.31265C101.192 9.92258 101.383 10.1521 101.955 10.1521H103.673C104.321 10.1521 104.511 10.2655 104.511 10.8006C104.511 11.373 104.359 11.6015 103.596 11.6015H101.803C101.345 11.6015 101.193 11.754 101.193 12.3645V24.1154Z" fill="black"/>
<path d="M106.688 4.27678C106.688 3.55181 106.496 3.32335 105.657 3.17087C104.97 3.01839 104.742 2.97933 104.742 2.63638C104.742 2.25543 105.009 2.21637 105.81 1.98792C107.412 1.45342 108.251 1.07248 108.786 0.84295C109.281 0.614492 109.434 0.5 109.663 0.5C109.816 0.5 109.892 0.652483 109.892 1.18591V12.0588C109.892 12.2883 109.968 12.4018 110.121 12.4018C110.274 12.4018 110.427 12.2883 110.579 12.1733C111.419 11.4104 112.868 9.88337 115.043 9.88337C117.446 9.88337 119.354 11.4478 119.468 14.4616V24.9145C119.468 26.0204 119.888 26.4404 120.65 26.5549C121.3 26.6694 121.528 26.7834 121.528 27.0894C121.528 27.4324 121.261 27.5474 120.955 27.5474C120.765 27.5474 119.735 27.3949 117.941 27.3949C115.92 27.3949 115.5 27.5474 115.08 27.5474C114.622 27.5474 114.394 27.4329 114.394 27.0509C114.394 26.7454 114.622 26.67 115.004 26.5929C115.881 26.4025 116.262 26.1349 116.262 25.2965V14.8822C116.262 13.9667 116.033 13.2418 115.613 12.7463C115.117 12.1353 114.393 11.8309 113.438 11.8309C112.561 11.8309 111.645 12.2118 110.959 12.7843C110.31 13.3568 109.891 14.1198 109.891 14.9587V25.1066C109.891 25.9461 110.311 26.3661 111.379 26.5945C111.951 26.709 112.065 26.8241 112.065 27.091C112.065 27.434 111.799 27.549 111.493 27.549C111.187 27.549 110.806 27.3966 108.174 27.3966C106.191 27.3966 105.847 27.549 105.275 27.549C104.969 27.549 104.702 27.3966 104.702 27.0525C104.702 26.747 104.969 26.5571 105.312 26.4811C106.457 26.3666 106.686 25.9846 106.686 24.6112L106.688 4.27678Z" fill="black"/>
<path d="M2.42432 34.998H3.69609V38.648C3.69609 39.1905 3.89674 39.5239 4.4093 39.5239C4.92079 39.5239 5.1225 39.1911 5.1225 38.648V34.998H6.3932V38.4463C6.3932 39.7876 5.6265 40.5008 4.40983 40.5008C3.19209 40.5008 2.42539 39.7876 2.42539 38.4463V34.998H2.42432Z" fill="black"/>
<path d="M6.79541 34.998H8.28335L9.85687 38.7486H9.87186V34.998H10.9884V40.4067H9.48503L7.927 36.494H7.91095V40.4067H6.79541V34.998Z" fill="black"/>
<path d="M12.7165 34.998H11.4458V40.4072H12.7165V34.998Z" fill="black"/>
<path d="M12.9028 34.998H14.2671L15.2206 38.9428H15.2355L16.213 34.998H17.5142L15.8792 40.4067H14.5159L12.9028 34.998Z" fill="black"/>
<path d="M17.6997 34.998H20.8227V35.9429H18.9238V37.1515H20.7301V38.0969H18.9238V39.4613H20.9152V40.4067H17.6997V34.998Z" fill="black"/>
<path d="M21.1782 34.9971H23.1626C24.0529 34.9971 24.8132 35.3919 24.8132 36.3924C24.8132 36.6166 24.7822 37.508 23.7362 37.7177V37.7327C24.131 37.7792 24.2867 37.997 24.4884 38.6401L25.0459 40.4062H23.7126L23.2948 38.9574C23.0856 38.2212 22.9149 38.2212 22.45 38.2212V40.4062H21.1782V34.9971ZM22.4029 37.3068H22.7988C23.2862 37.3068 23.543 36.981 23.543 36.5936C23.543 36.3684 23.4719 35.9114 22.7908 35.9114H22.4029V37.3068Z" fill="black"/>
<path d="M28.1765 36.0965C27.8742 35.9408 27.4488 35.8183 27.1075 35.8183C26.6966 35.8183 26.3868 36.004 26.3868 36.4068C26.3868 37.3913 28.5178 36.9333 28.5178 38.8552C28.5178 39.8792 27.704 40.4988 26.627 40.4988C25.9679 40.4988 25.4023 40.3441 25.1701 40.2746L25.2402 39.2206C25.6201 39.3682 25.9534 39.5534 26.4259 39.5534C26.8287 39.5534 27.2156 39.3522 27.2156 38.9097C27.2156 37.8637 25.0845 38.3752 25.0845 36.4454C25.0845 36.2827 25.1477 34.9023 26.9604 34.9023C27.4558 34.9023 27.7661 34.9879 28.2311 35.0891L28.1765 36.0965Z" fill="black"/>
<path d="M30.1209 34.998H28.8501V40.4072H30.1209V34.998Z" fill="black"/>
<path d="M31.5472 35.9735H30.3696V34.9971H33.9961V35.9735H32.8179V40.4062H31.5472V35.9735Z" fill="black"/>
<path d="M35.3903 38.3377L33.7466 34.998H35.2046L36.0724 37.09L36.8782 34.998H38.304L36.661 38.3607V40.4072H35.3903V38.3377Z" fill="black"/>
<path d="M41.9015 34.9033C43.4596 34.9033 44.2033 36.112 44.2033 37.7015C44.2033 39.29 43.459 40.4987 41.9015 40.4987C40.3435 40.4987 39.6079 39.29 39.6079 37.7015C39.6079 36.112 40.3441 34.9033 41.9015 34.9033ZM41.9015 39.5843C42.6372 39.5843 42.9005 38.7395 42.9005 37.7015C42.9005 36.6625 42.6372 35.8177 41.9015 35.8177C41.1653 35.8177 40.9091 36.6625 40.9091 37.7015C40.9096 38.74 41.1659 39.5843 41.9015 39.5843Z" fill="black"/>
<path d="M44.5278 34.998H47.5277V35.9429H45.7525V37.1986H47.4576V38.144H45.7525V40.4067H44.5278V34.998Z" fill="black"/>
<path d="M53.9152 36.1291H53.9002L52.6835 40.4072H51.8457L50.6761 36.1291H50.6611V40.4072H49.4985V34.998H51.4118L52.2876 38.4773H52.3037L53.2491 34.998H55.0778V40.4072H53.9152V36.1291Z" fill="black"/>
<path d="M56.9831 34.998H55.7114V40.4072H56.9831V34.998Z" fill="black"/>
<path d="M60.4465 39.1976H58.7493L58.3775 40.4062H57.1528L58.951 34.9971H60.3464L62.0826 40.4062H60.7803L60.4465 39.1976ZM59.6407 36.0356H59.6246L58.981 38.2832H60.1977L59.6407 36.0356Z" fill="black"/>
<path d="M66.6702 36.1291H66.6552L65.4385 40.4072H64.6007L63.4311 36.1291H63.415V40.4072H62.2524V34.998H64.1667L65.0426 38.4773H65.0586L66.004 34.998H67.8328V40.4072H66.6702V36.1291Z" fill="black"/>
<path d="M69.7391 34.998H68.4673V40.4072H69.7391V34.998Z" fill="black"/>
<path d="M74.9 38.1595H73.5828V40.4072H72.311V34.998H73.5828V37.1521H74.9V34.998H76.1707V40.4072H74.9V38.1595Z" fill="black"/>
<path d="M76.6509 34.998H79.7745V35.9429H77.8762V37.1515H79.6819V38.0969H77.8762V39.4613H79.8676V40.4067H76.6509V34.998Z" fill="black"/>
<path d="M83.1165 39.1976H81.4183L81.0464 40.4062H79.8228L81.6205 34.9971H83.0148L84.751 40.4062H83.4487L83.1165 39.1976ZM82.3097 36.0356H82.2936L81.65 38.2832H82.8677L82.3097 36.0356Z" fill="black"/>
<path d="M84.9204 34.998H86.1911V39.4308H87.9818V40.4067H84.9204V34.998Z" fill="black"/>
<path d="M88.5854 35.9735H87.4067V34.9971H91.0348V35.9735H89.8561V40.4062H88.5854V35.9735Z" fill="black"/>
<path d="M93.8707 38.1595H92.5535V40.4072H91.2817V34.998H92.5535V37.1521H93.8707V34.998H95.1409V40.4072H93.8707V38.1595Z" fill="black"/>
<path d="M100.35 36.0965C100.048 35.9408 99.6215 35.8183 99.2801 35.8183C98.8692 35.8183 98.5605 36.004 98.5605 36.4068C98.5605 37.3913 100.692 36.9333 100.692 38.8552C100.692 39.8792 99.8778 40.4988 98.7997 40.4988C98.1416 40.4988 97.576 40.3441 97.3438 40.2746L97.4139 39.2206C97.7927 39.3682 98.1261 39.5534 98.5985 39.5534C99.0025 39.5534 99.3893 39.3522 99.3893 38.9097C99.3893 37.8637 97.2583 38.3752 97.2583 36.4454C97.2583 36.2827 97.3203 34.9023 99.1341 34.9023C99.6295 34.9023 99.9398 34.9879 100.405 35.0891L100.35 36.0965Z" fill="black"/>
<path d="M102.171 38.3377L100.528 34.998H101.985L102.852 37.09L103.658 34.998H105.084L103.442 38.3607V40.4072H102.171V38.3377Z" fill="black"/>
<path d="M108.038 36.0965C107.736 35.9408 107.31 35.8183 106.968 35.8183C106.558 35.8183 106.248 36.004 106.248 36.4068C106.248 37.3913 108.379 36.9333 108.379 38.8552C108.379 39.8792 107.565 40.4988 106.487 40.4988C105.829 40.4988 105.264 40.3441 105.032 40.2746L105.102 39.2206C105.48 39.3682 105.815 39.5534 106.287 39.5534C106.69 39.5534 107.077 39.3522 107.077 38.9097C107.077 37.8637 104.946 38.3752 104.946 36.4454C104.946 36.2827 105.008 34.9023 106.822 34.9023C107.317 34.9023 107.628 34.9879 108.092 35.0891L108.038 36.0965Z" fill="black"/>
<path d="M109.502 35.9735H108.325V34.9971H111.952V35.9735H110.774V40.4062H109.502V35.9735Z" fill="black"/>
<path d="M112.2 34.998H115.323V35.9429H113.425V37.1515H115.231V38.0969H113.425V39.4613H115.416V40.4067H112.2V34.998Z" fill="black"/>
<path d="M120.251 36.1291H120.235L119.018 40.4072H118.181L117.011 36.1291H116.996V40.4072H115.833V34.998H117.748L118.623 38.4773H118.638L119.584 34.998H121.413V40.4072H120.251V36.1291Z" fill="black"/>
<path d="M121.508 30.9512H2.51807V31.6301H121.508V30.9512Z" fill="black"/>
<path d="M32.258 2.69336L32.2906 20.1851C32.2906 21.3049 32.2906 24.7147 23.7044 24.7286L22.8975 24.7308L22.0907 24.7286C13.5045 24.7147 13.5045 21.3049 13.5045 20.1851L13.5371 2.69336H1.70166L1.71183 22.81C1.71183 28.3743 17.3128 28.8088 22.095 28.8088H22.8199H22.9762H23.7011C28.4827 28.8088 44.0833 28.3749 44.0833 22.81L44.0934 2.69336H32.258Z" fill="black"/>
<path d="M33.1718 20.1843L33.175 3.5459H43.2144C43.2144 3.5459 43.2021 22.1425 43.2021 22.8086C43.2021 26.4607 33.1798 27.9257 23.7017 27.9257C23.7017 27.465 23.7049 26.3339 23.7049 25.6084C28.4491 25.6015 33.1718 24.5994 33.1718 20.1843Z" fill="black"/>
<path d="M12.6251 20.1843L12.6208 3.5459H2.58252C2.58252 3.5459 2.59376 22.1425 2.59376 22.8086C2.59376 26.4607 12.6181 27.9257 22.0952 27.9257C22.0952 27.465 22.091 26.3339 22.091 25.6084C17.3484 25.6015 12.6251 24.5994 12.6251 20.1843Z" fill="black"/>
</g>
<defs>
<clipPath id="clip0_446_49363">
<rect width="121" height="40" fill="white" transform="translate(0.818848 0.5)"/>
</clipPath>
</defs>
</svg>
