<svg width="42" height="57" viewBox="0 0 42 57" fill="none" xmlns="http://www.w3.org/2000/svg">
<mask id="mask0_446_49403" style="mask-type:luminance" maskUnits="userSpaceOnUse" x="0" y="1" width="42" height="55">
<path d="M41.7554 1.04929H0.583984V55.9513H41.7554V1.04929Z" fill="white"/>
</mask>
<g mask="url(#mask0_446_49403)">
<path d="M0.99504 1.48795V34.3225H7.32478C6.17087 33.7656 5.3842 32.5121 5.38126 31.2783C5.40296 25.2482 20.2027 13.5395 20.1721 9.80505C20.1691 8.59414 18.8057 8.22028 17.3239 8.22028C14.249 8.22837 5.63197 12.1992 5.62168 18.0129C5.62756 20.1352 6.87189 21.299 9.30136 21.8849L9.47454 21.922L9.32087 22.0154C8.69705 22.3742 7.99786 22.5448 7.29537 22.5448C5.2901 22.5408 3.27822 21.138 3.27822 18.7595C3.28336 16.4668 7.98904 7.17518 18.5208 7.15974C19.1193 7.16121 19.6571 7.20826 20.1449 7.2862L15.0981 1.48758L0.99504 1.48795ZM26.9959 1.48795L21.6161 7.66813C23.3254 8.33865 23.9974 9.55395 24.0003 10.5502C23.9771 14.8497 8.89667 28.3673 8.92163 32.0272C8.93818 32.8212 9.23745 32.933 10.0961 32.9484C16.953 32.9723 29.4474 16.1698 33.0683 11.3306C34.5119 11.081 34.4983 11.2722 36.0187 11.1078L36.1988 11.0887L36.0797 11.2288C32.4949 15.9499 26.8408 26.5826 26.843 30.6435C26.843 31.6798 27.0507 32.511 27.5249 33.0344C27.8296 33.4656 28.3751 33.6965 29.0931 33.6965C31.2707 33.6854 34.2321 30.0869 34.2381 25.8889V25.7455L34.3512 25.8322C35.1824 26.4686 35.5757 27.4045 35.5757 28.336C35.5728 30.9339 33.5973 33.2675 31.0932 34.3225H41.0986V1.48795H26.9959ZM30.9146 37.6905C29.3839 37.6905 27.8638 38.5147 27.8638 40.2093C27.8638 41.235 28.4884 42.1062 29.4541 42.4481C29.8077 42.5767 30.1845 42.6576 30.5613 42.7312C30.9962 42.8231 31.9277 42.9517 31.9277 43.5656C31.9277 44.1538 31.173 44.2971 30.7134 44.2971C30.2191 44.2971 29.7011 44.1648 29.3133 43.8487C29.1119 43.6832 29.0071 43.5068 28.8769 43.2825L27.5348 44.3302C28.2178 45.4514 29.6195 45.8154 30.855 45.8154C32.4802 45.8154 33.9988 44.9919 33.9988 43.1906C33.9988 42.0584 33.3511 41.2681 32.2916 40.9298C31.9273 40.8122 31.5497 40.7277 31.173 40.6468C30.7598 40.5512 29.8661 40.4226 29.8661 39.8565C29.8661 39.3381 30.5253 39.1874 30.9374 39.1874C31.5968 39.1874 32.0085 39.4337 32.4214 39.941L33.6801 38.9154C32.9624 38.0184 32.0321 37.6905 30.9146 37.6905ZM38.3379 37.6905C36.8058 37.6905 35.2861 38.5147 35.2861 40.2093C35.2861 41.235 35.911 42.1062 36.8767 42.4481C37.23 42.5767 37.6064 42.6576 37.9813 42.7312C38.4188 42.8231 39.3488 42.9517 39.3488 43.5656C39.3488 44.1538 38.5952 44.2971 38.1358 44.2971C37.6431 44.2971 37.1226 44.1648 36.7352 43.8487C36.5337 43.6832 36.4293 43.5068 36.2992 43.2825L34.9567 44.3302C35.6393 45.4514 37.0414 45.8154 38.2754 45.8154C39.9002 45.8154 41.4221 44.9919 41.4221 43.1906C41.4221 42.0584 40.7715 41.2681 39.7127 40.9298C39.3488 40.8122 38.9702 40.7277 38.5952 40.6468C38.1835 40.5512 37.288 40.4226 37.288 39.8565C37.288 39.3381 37.9482 39.1874 38.36 39.1874C39.018 39.1874 39.4297 39.4337 39.8451 39.941L41.1023 38.9154C40.3855 38.0184 39.4555 37.6905 38.3379 37.6905ZM1.04834 37.82V42.7642C1.04834 43.4737 1.07187 44.0361 1.4827 44.6353C2.08403 45.5213 3.13136 45.8154 4.14422 45.8154C5.12218 45.8154 6.19337 45.5544 6.82859 44.753C7.34654 44.106 7.39359 43.5656 7.39359 42.7642V37.82H5.69785V42.4223C5.69785 43.0105 5.71108 43.6722 5.13284 44.003C4.9211 44.1207 4.68583 44.1905 4.43918 44.1905C4.03867 44.1905 3.61487 44.014 3.40327 43.6612C3.19095 43.2935 3.20223 42.8231 3.20223 42.4223V37.82H1.04834ZM9.47454 37.82V45.672H11.1703V40.0219L12.9013 45.672H14.1729L15.9392 40.0219V45.672H18.1043V37.82H15.0209L13.76 41.7166L12.5947 37.82H9.47454ZM21.9414 37.82L19.4685 45.672H21.247L21.6822 44.117H24.1547L24.6021 45.672H26.8286L24.3903 37.82H21.9414ZM22.9299 39.8344L23.6959 42.4701H22.1652L22.9299 39.8344ZM11.0115 48.6055C9.88804 48.6055 8.79554 49.19 8.31617 50.234C8.05006 50.8148 7.94787 51.4985 7.94787 52.1308C7.94787 53.4174 8.31617 54.6526 9.52124 55.2849C9.97994 55.5312 10.4909 55.6525 11.0115 55.6525C12.9921 55.6525 14.0651 54.1122 14.0651 52.2448C14.0651 50.9141 13.7487 49.6495 12.4922 48.9768C12.0327 48.7305 11.5228 48.6055 11.0115 48.6055ZM18.0234 48.6055C16.6957 48.6055 15.3782 49.3223 15.3782 50.7928C15.3782 51.6823 15.9201 52.436 16.7559 52.7337C17.0637 52.844 17.3893 52.9175 17.7169 52.98C18.0948 53.0608 18.9021 53.1711 18.9021 53.7042C18.9021 54.2152 18.2481 54.3364 17.8488 54.3364C17.4214 54.3364 16.9714 54.2225 16.6346 53.9468C16.4615 53.8071 16.3681 53.6527 16.2564 53.4579L15.0926 54.3695C15.6844 55.3363 16.9005 55.6525 17.9724 55.6525C19.3807 55.6525 20.6985 54.9393 20.6985 53.377C20.6985 52.3955 20.1379 51.7117 19.2182 51.4177C18.9016 51.3147 18.5753 51.2412 18.2481 51.1713C17.8911 51.0905 17.1137 50.9766 17.1137 50.4876C17.1137 50.0354 17.6864 49.9031 18.0433 49.9031C18.6157 49.9031 18.9722 50.12 19.33 50.5575L20.4228 49.6678C19.7997 48.8922 18.9932 48.6055 18.0234 48.6055ZM31.1083 48.6055C29.9849 48.6055 28.8924 49.19 28.413 50.234C28.1468 50.8148 28.044 51.4985 28.044 52.1308C28.044 53.4174 28.413 54.6526 29.618 55.2849C30.0768 55.5312 30.5878 55.6525 31.1083 55.6525C33.0889 55.6525 34.162 54.1122 34.162 52.2448C34.162 50.9141 33.8454 49.6495 32.589 48.9768C32.1291 48.7305 31.6196 48.6055 31.1083 48.6055ZM0.984375 48.7194V55.5312H4.16072C4.59978 55.5312 5.06002 55.5239 5.48901 55.4099C6.32604 55.204 6.81569 54.5827 6.81569 53.7152C6.81569 52.6932 6.21356 52.3036 5.33535 52.0169C5.62172 51.9176 5.85661 51.8257 6.09188 51.6309C6.44918 51.3331 6.67342 50.9141 6.67342 50.4472C6.67342 49.179 5.4688 48.7194 4.38694 48.7194H0.984375ZM21.5896 48.7194V50.1494H23.4368V55.5312H25.3071V50.1494H27.1543V48.7194H21.5896ZM35.5298 48.7194V55.5312H37.0006V51.6713L39.6576 55.5312H41.117V48.7194H39.6576V52.1823L37.2461 48.7194H35.5298ZM11.0115 49.9656C12.0018 49.9656 12.1051 51.2926 12.1051 52.0095C12.1051 52.7631 12.0834 54.285 11.0115 54.285C9.96965 54.285 9.90937 52.877 9.90937 52.1308C9.90937 51.3846 9.96965 49.9656 11.0115 49.9656ZM31.1083 49.9656C32.0986 49.9656 32.2012 51.2926 32.2012 52.0095C32.2012 52.7631 32.1802 54.285 31.1083 54.285C30.0665 54.285 30.0062 52.877 30.0062 52.1308C30.0062 51.3846 30.0665 49.9656 31.1083 49.9656ZM2.86392 50.0171H3.84469C4.31441 50.0171 4.77428 50.1311 4.77428 50.6898C4.77428 51.3037 4.36514 51.4066 3.85403 51.4066H2.86392V50.0171ZM2.86392 52.7337H3.64004C4.20211 52.7337 4.85626 52.8145 4.85626 53.5204C4.85626 54.2666 4.14156 54.2336 3.59986 54.2336H2.86392V52.7337Z" fill="black"/>
</g>
</svg>
