<svg width="533" height="614" viewBox="0 0 533 614" fill="none" xmlns="http://www.w3.org/2000/svg">
<path opacity="0.1" d="M355.028 256.364V357.638L266.958 408.279L178.888 357.638V256.364L266.958 205.724L355.028 256.364Z" fill="#61DD00" stroke="#3DE103" stroke-width="1.8311"/>
<path opacity="0.1" d="M388.841 236.786V377.215L266.956 447.431L145.072 377.215V236.786L266.956 166.57L388.841 236.786Z" fill="#61DD00" stroke="#3DE103" stroke-width="1.8311"/>
<path opacity="0.1" d="M424.435 216.32V397.681L266.957 488.364L109.478 397.681V216.32L266.957 125.637L424.435 216.32Z" fill="#3DE103" stroke="#3DE103" stroke-width="1.8311"/>
<path opacity="0.1" d="M456.472 198.076V417.702L266.069 527.516L75.6656 417.702V198.076L266.069 88.262L456.472 198.076Z" fill="#3DE103" stroke="#3DE103" stroke-width="1.8311"/>
<path opacity="0.05" d="M491.789 176.289V436.848L265.792 567.129L39.7945 436.848V176.289L265.792 46.008L491.789 176.289Z" fill="#3DE103" stroke="#3DE103" stroke-width="1.8311"/>
<path opacity="0.05" d="M531.218 154.029V459.971L266.067 612.943L0.915552 459.971V154.029L266.067 1.05699L531.218 154.029Z" stroke="#3DE103" stroke-width="1.8311"/>
<path d="M259.191 240.49C263.306 238.142 268.355 238.142 272.47 240.49L296.202 254.034L319.734 267.966C323.802 270.374 326.3 274.748 326.306 279.476L326.341 307L326.306 334.524C326.3 339.251 323.802 343.625 319.734 346.034L296.202 359.966L272.47 373.509C268.355 375.858 263.306 375.858 259.191 373.509L235.459 359.966L211.926 346.034C207.859 343.625 205.361 339.251 205.355 334.524L205.32 307L205.355 279.476C205.361 274.748 207.859 270.374 211.926 267.966L235.459 254.034L259.191 240.49Z" fill="#3DE103"/>
<path d="M259.191 240.49C263.306 238.142 268.355 238.142 272.47 240.49L296.202 254.034L319.734 267.966C323.802 270.374 326.3 274.748 326.306 279.476L326.341 307L326.306 334.524C326.3 339.251 323.802 343.625 319.734 346.034L296.202 359.966L272.47 373.509C268.355 375.858 263.306 375.858 259.191 373.509L235.459 359.966L211.926 346.034C207.859 343.625 205.361 339.251 205.355 334.524L205.32 307L205.355 279.476C205.361 274.748 207.859 270.374 211.926 267.966L235.459 254.034L259.191 240.49Z" fill="black" fill-opacity="0.1"/>
<path d="M259.08 308.641L263.738 313.298L274.216 302.82M284.695 309.805C284.695 321.235 272.228 329.548 267.692 332.194C267.176 332.495 266.918 332.646 266.554 332.724C266.272 332.784 265.86 332.784 265.578 332.724C265.214 332.646 264.956 332.495 264.441 332.194C259.905 329.548 247.438 321.235 247.438 309.805V298.669C247.438 296.807 247.438 295.876 247.742 295.076C248.011 294.369 248.448 293.739 249.015 293.239C249.658 292.673 250.529 292.346 252.273 291.692L264.758 287.01C265.242 286.828 265.484 286.738 265.733 286.702C265.954 286.67 266.178 286.67 266.399 286.702C266.648 286.738 266.89 286.828 267.374 287.01L279.86 291.692C281.603 292.346 282.475 292.673 283.117 293.239C283.684 293.739 284.121 294.369 284.39 295.076C284.695 295.876 284.695 296.807 284.695 298.669V309.805Z" stroke="white" stroke-width="2.5" stroke-linecap="round" stroke-linejoin="round"/>
<g filter="url(#filter0_b_800_25583)">
<rect x="34" y="409" width="291.33" height="50.8866" rx="25.4433" fill="white"/>
<rect x="34" y="409" width="291.33" height="50.8866" rx="25.4433" fill="url(#paint0_linear_800_25583)" fill-opacity="0.4"/>
<rect x="34.4201" y="409.42" width="290.49" height="50.0464" rx="25.0232" stroke="#61DD00" stroke-width="0.840206"/>
<path d="M66.4473 428.883V439.443H65.2313V432.803L65.3753 430.019H65.3593L61.8873 439.443H60.7993L57.3273 430.019H57.3113L57.4553 432.803V439.443H56.2393V428.883H58.2073L60.5273 435.299L61.3273 437.939H61.3593L62.1753 435.315L64.4793 428.883H66.4473ZM73.9938 434.275C73.9938 433.678 73.8338 433.219 73.5138 432.899C73.1938 432.569 72.7404 432.403 72.1538 432.403C71.5991 432.403 71.1298 432.526 70.7458 432.771C70.3618 433.006 70.0791 433.39 69.8978 433.923L68.8578 433.283C69.0711 432.686 69.4658 432.206 70.0418 431.843C70.6178 431.47 71.3324 431.283 72.1858 431.283C72.7618 431.283 73.2844 431.385 73.7538 431.587C74.2231 431.779 74.5911 432.078 74.8578 432.483C75.1351 432.878 75.2738 433.39 75.2738 434.019V437.891C75.2738 438.275 75.4764 438.467 75.8818 438.467C76.0844 438.467 76.2818 438.441 76.4738 438.387L76.4098 439.395C76.1964 439.502 75.9191 439.555 75.5778 439.555C75.2684 439.555 74.9911 439.497 74.7458 439.379C74.5004 439.262 74.3084 439.086 74.1698 438.851C74.0311 438.606 73.9618 438.302 73.9618 437.939V437.779L74.2818 437.827C74.1538 438.243 73.9351 438.585 73.6258 438.851C73.3164 439.107 72.9698 439.299 72.5858 439.427C72.2018 439.545 71.8231 439.603 71.4498 439.603C70.9804 439.603 70.5431 439.523 70.1378 439.363C69.7324 439.203 69.4071 438.963 69.1618 438.643C68.9271 438.313 68.8098 437.907 68.8098 437.427C68.8098 436.83 69.0071 436.339 69.4018 435.955C69.8071 435.561 70.3671 435.294 71.0818 435.155L74.2498 434.531V435.587L71.6738 436.115C71.1511 436.222 70.7618 436.371 70.5058 436.563C70.2498 436.755 70.1218 437.022 70.1218 437.363C70.1218 437.694 70.2498 437.966 70.5058 438.179C70.7724 438.382 71.1458 438.483 71.6258 438.483C71.9351 438.483 72.2284 438.446 72.5058 438.371C72.7938 438.286 73.0498 438.163 73.2738 438.003C73.4978 437.833 73.6738 437.625 73.8018 437.379C73.9298 437.123 73.9938 436.825 73.9938 436.483V434.275ZM85.1683 431.443L81.7123 434.899L81.4083 435.203L78.7843 437.827V436.227L83.5523 431.443H85.1683ZM79.4243 427.763V439.443H78.1443V427.763H79.4243ZM81.8243 434.243L85.3603 439.443H83.8083L80.7523 434.963L81.8243 434.243ZM90.0451 439.603C89.2878 439.603 88.6105 439.438 88.0131 439.107C87.4265 438.777 86.9678 438.302 86.6371 437.683C86.3065 437.054 86.1411 436.307 86.1411 435.443C86.1411 434.579 86.3065 433.838 86.6371 433.219C86.9678 432.59 87.4211 432.11 87.9971 431.779C88.5731 431.449 89.2291 431.283 89.9651 431.283C90.7118 431.283 91.3465 431.443 91.8691 431.763C92.4025 432.083 92.8078 432.521 93.0851 433.075C93.3625 433.619 93.5011 434.233 93.5011 434.915C93.5011 435.097 93.4958 435.262 93.4851 435.411C93.4745 435.561 93.4585 435.694 93.4371 435.811H86.9731V434.675H92.8771L92.2211 434.803C92.2211 434.035 92.0078 433.443 91.5811 433.027C91.1651 432.611 90.6158 432.403 89.9331 432.403C89.4105 432.403 88.9571 432.526 88.5731 432.771C88.1998 433.006 87.9065 433.353 87.6931 433.811C87.4905 434.259 87.3891 434.803 87.3891 435.443C87.3891 436.073 87.4958 436.617 87.7091 437.075C87.9225 437.534 88.2211 437.886 88.6051 438.131C88.9998 438.366 89.4691 438.483 90.0131 438.483C90.5998 438.483 91.0745 438.371 91.4371 438.147C91.8105 437.923 92.1091 437.619 92.3331 437.235L93.3411 437.827C93.1385 438.19 92.8771 438.505 92.5571 438.771C92.2478 439.038 91.8798 439.246 91.4531 439.395C91.0371 439.534 90.5678 439.603 90.0451 439.603ZM104.877 428.883C105.591 428.883 106.21 429.017 106.733 429.283C107.266 429.539 107.682 429.907 107.981 430.387C108.279 430.867 108.429 431.438 108.429 432.099C108.429 432.761 108.279 433.331 107.981 433.811C107.682 434.291 107.266 434.665 106.733 434.931C106.21 435.187 105.591 435.315 104.877 435.315H102.429V439.443H101.149V428.883H104.877ZM104.685 434.115C105.517 434.115 106.125 433.945 106.509 433.603C106.893 433.251 107.085 432.75 107.085 432.099C107.085 431.438 106.893 430.937 106.509 430.595C106.125 430.254 105.517 430.083 104.685 430.083H102.429V434.115H104.685ZM113.638 439.603C112.88 439.603 112.203 439.438 111.606 439.107C111.019 438.777 110.56 438.302 110.23 437.683C109.899 437.054 109.734 436.307 109.734 435.443C109.734 434.579 109.899 433.838 110.23 433.219C110.56 432.59 111.014 432.11 111.59 431.779C112.166 431.449 112.822 431.283 113.558 431.283C114.304 431.283 114.939 431.443 115.462 431.763C115.995 432.083 116.4 432.521 116.678 433.075C116.955 433.619 117.094 434.233 117.094 434.915C117.094 435.097 117.088 435.262 117.078 435.411C117.067 435.561 117.051 435.694 117.03 435.811H110.566V434.675H116.47L115.814 434.803C115.814 434.035 115.6 433.443 115.174 433.027C114.758 432.611 114.208 432.403 113.526 432.403C113.003 432.403 112.55 432.526 112.166 432.771C111.792 433.006 111.499 433.353 111.286 433.811C111.083 434.259 110.982 434.803 110.982 435.443C110.982 436.073 111.088 436.617 111.302 437.075C111.515 437.534 111.814 437.886 112.198 438.131C112.592 438.366 113.062 438.483 113.606 438.483C114.192 438.483 114.667 438.371 115.03 438.147C115.403 437.923 115.702 437.619 115.926 437.235L116.934 437.827C116.731 438.19 116.47 438.505 116.15 438.771C115.84 439.038 115.472 439.246 115.046 439.395C114.63 439.534 114.16 439.603 113.638 439.603ZM122.6 431.283C123.357 431.283 124.024 431.449 124.6 431.779C125.187 432.11 125.645 432.59 125.976 433.219C126.307 433.838 126.472 434.579 126.472 435.443C126.472 436.307 126.307 437.054 125.976 437.683C125.645 438.302 125.187 438.777 124.6 439.107C124.024 439.438 123.357 439.603 122.6 439.603C121.853 439.603 121.187 439.438 120.6 439.107C120.013 438.777 119.555 438.302 119.224 437.683C118.893 437.054 118.728 436.307 118.728 435.443C118.728 434.579 118.893 433.838 119.224 433.219C119.555 432.59 120.013 432.11 120.6 431.779C121.187 431.449 121.853 431.283 122.6 431.283ZM122.6 432.387C122.056 432.387 121.592 432.51 121.208 432.755C120.824 433.001 120.525 433.353 120.312 433.811C120.109 434.259 120.008 434.803 120.008 435.443C120.008 436.073 120.109 436.617 120.312 437.075C120.525 437.534 120.824 437.886 121.208 438.131C121.592 438.377 122.056 438.499 122.6 438.499C123.144 438.499 123.608 438.377 123.992 438.131C124.376 437.886 124.669 437.534 124.872 437.075C125.085 436.617 125.192 436.073 125.192 435.443C125.192 434.803 125.085 434.259 124.872 433.811C124.669 433.353 124.376 433.001 123.992 432.755C123.608 432.51 123.144 432.387 122.6 432.387ZM128.642 442.803V431.443H129.762L129.874 433.395L129.698 433.171C129.836 432.798 130.044 432.473 130.322 432.195C130.599 431.907 130.935 431.683 131.33 431.523C131.724 431.363 132.151 431.283 132.61 431.283C133.26 431.283 133.858 431.449 134.402 431.779C134.956 432.11 135.399 432.585 135.73 433.203C136.06 433.822 136.226 434.569 136.226 435.443C136.226 436.307 136.055 437.054 135.714 437.683C135.383 438.302 134.94 438.777 134.386 439.107C133.831 439.438 133.223 439.603 132.562 439.603C131.9 439.603 131.319 439.443 130.818 439.123C130.327 438.793 129.975 438.377 129.762 437.875L129.922 437.635V442.803H128.642ZM132.434 438.483C133.223 438.483 133.836 438.206 134.274 437.651C134.722 437.097 134.946 436.361 134.946 435.443C134.946 434.526 134.727 433.79 134.29 433.235C133.863 432.681 133.26 432.403 132.482 432.403C131.97 432.403 131.522 432.531 131.138 432.787C130.754 433.033 130.455 433.385 130.242 433.843C130.028 434.291 129.922 434.825 129.922 435.443C129.922 436.051 130.023 436.585 130.226 437.043C130.439 437.502 130.732 437.859 131.106 438.115C131.49 438.361 131.932 438.483 132.434 438.483ZM139.649 427.763V437.411C139.649 437.817 139.724 438.099 139.873 438.259C140.022 438.409 140.262 438.483 140.593 438.483C140.806 438.483 140.982 438.467 141.121 438.435C141.26 438.403 141.446 438.345 141.681 438.259L141.473 439.379C141.302 439.454 141.116 439.507 140.913 439.539C140.71 439.582 140.502 439.603 140.289 439.603C139.638 439.603 139.153 439.427 138.833 439.075C138.524 438.723 138.369 438.185 138.369 437.459V427.763H139.649ZM146.428 439.603C145.67 439.603 144.993 439.438 144.396 439.107C143.809 438.777 143.35 438.302 143.02 437.683C142.689 437.054 142.524 436.307 142.524 435.443C142.524 434.579 142.689 433.838 143.02 433.219C143.35 432.59 143.804 432.11 144.38 431.779C144.956 431.449 145.612 431.283 146.348 431.283C147.094 431.283 147.729 431.443 148.252 431.763C148.785 432.083 149.19 432.521 149.468 433.075C149.745 433.619 149.884 434.233 149.884 434.915C149.884 435.097 149.878 435.262 149.868 435.411C149.857 435.561 149.841 435.694 149.82 435.811H143.356V434.675H149.26L148.604 434.803C148.604 434.035 148.39 433.443 147.964 433.027C147.548 432.611 146.998 432.403 146.316 432.403C145.793 432.403 145.34 432.526 144.956 432.771C144.582 433.006 144.289 433.353 144.076 433.811C143.873 434.259 143.772 434.803 143.772 435.443C143.772 436.073 143.878 436.617 144.092 437.075C144.305 437.534 144.604 437.886 144.988 438.131C145.382 438.366 145.852 438.483 146.396 438.483C146.982 438.483 147.457 438.371 147.82 438.147C148.193 437.923 148.492 437.619 148.716 437.235L149.724 437.827C149.521 438.19 149.26 438.505 148.94 438.771C148.63 439.038 148.262 439.246 147.836 439.395C147.42 439.534 146.95 439.603 146.428 439.603ZM160.923 428.723C161.851 428.723 162.651 428.915 163.323 429.299C163.995 429.673 164.555 430.227 165.003 430.963L163.931 431.795C163.536 431.113 163.088 430.633 162.587 430.355C162.096 430.067 161.499 429.923 160.795 429.923C160.23 429.923 159.76 430.003 159.387 430.163C159.024 430.323 158.758 430.537 158.587 430.803C158.416 431.059 158.331 431.353 158.331 431.683C158.331 432.057 158.448 432.387 158.683 432.675C158.918 432.953 159.387 433.171 160.091 433.331L162.379 433.843C163.392 434.067 164.096 434.409 164.491 434.867C164.896 435.315 165.099 435.875 165.099 436.547C165.099 437.145 164.928 437.678 164.587 438.147C164.256 438.606 163.787 438.963 163.179 439.219C162.571 439.475 161.856 439.603 161.035 439.603C160.267 439.603 159.59 439.502 159.003 439.299C158.427 439.086 157.931 438.803 157.515 438.451C157.099 438.099 156.758 437.705 156.491 437.267L157.611 436.355C157.814 436.761 158.075 437.118 158.395 437.427C158.715 437.737 159.099 437.977 159.547 438.147C160.006 438.318 160.528 438.403 161.115 438.403C161.659 438.403 162.128 438.339 162.523 438.211C162.928 438.073 163.238 437.875 163.451 437.619C163.664 437.353 163.771 437.033 163.771 436.659C163.771 436.318 163.659 436.014 163.435 435.747C163.211 435.47 162.79 435.262 162.171 435.123L159.691 434.563C159.04 434.414 158.512 434.211 158.107 433.955C157.712 433.689 157.424 433.379 157.243 433.027C157.072 432.665 156.987 432.275 156.987 431.859C156.987 431.294 157.142 430.777 157.451 430.307C157.771 429.827 158.224 429.443 158.811 429.155C159.408 428.867 160.112 428.723 160.923 428.723ZM170.119 439.603C169.607 439.603 169.122 439.507 168.663 439.315C168.215 439.123 167.847 438.814 167.559 438.387C167.282 437.95 167.143 437.385 167.143 436.691V431.443H168.423V436.355C168.423 437.166 168.599 437.726 168.951 438.035C169.303 438.334 169.799 438.483 170.439 438.483C170.738 438.483 171.031 438.435 171.319 438.339C171.607 438.233 171.863 438.073 172.087 437.859C172.322 437.635 172.503 437.353 172.631 437.011C172.77 436.67 172.839 436.265 172.839 435.795V431.443H174.119V439.443H172.999L172.919 438.227C172.642 438.707 172.263 439.059 171.783 439.283C171.314 439.497 170.759 439.603 170.119 439.603ZM176.858 439.443V431.443H177.898L178.074 432.755C178.298 432.265 178.623 431.897 179.05 431.651C179.487 431.406 180.015 431.283 180.634 431.283C180.773 431.283 180.922 431.294 181.082 431.315C181.253 431.337 181.397 431.379 181.514 431.443L181.29 432.611C181.173 432.569 181.045 432.537 180.906 432.515C180.767 432.494 180.57 432.483 180.314 432.483C179.983 432.483 179.647 432.579 179.306 432.771C178.975 432.963 178.698 433.257 178.474 433.651C178.25 434.035 178.138 434.526 178.138 435.123V439.443H176.858ZM186.243 439.603C185.486 439.603 184.809 439.438 184.211 439.107C183.625 438.777 183.166 438.302 182.835 437.683C182.505 437.054 182.339 436.307 182.339 435.443C182.339 434.579 182.505 433.838 182.835 433.219C183.166 432.59 183.619 432.11 184.195 431.779C184.771 431.449 185.427 431.283 186.163 431.283C186.91 431.283 187.545 431.443 188.067 431.763C188.601 432.083 189.006 432.521 189.283 433.075C189.561 433.619 189.699 434.233 189.699 434.915C189.699 435.097 189.694 435.262 189.683 435.411C189.673 435.561 189.657 435.694 189.635 435.811H183.171V434.675H189.075L188.419 434.803C188.419 434.035 188.206 433.443 187.779 433.027C187.363 432.611 186.814 432.403 186.131 432.403C185.609 432.403 185.155 432.526 184.771 432.771C184.398 433.006 184.105 433.353 183.891 433.811C183.689 434.259 183.587 434.803 183.587 435.443C183.587 436.073 183.694 436.617 183.907 437.075C184.121 437.534 184.419 437.886 184.803 438.131C185.198 438.366 185.667 438.483 186.211 438.483C186.798 438.483 187.273 438.371 187.635 438.147C188.009 437.923 188.307 437.619 188.531 437.235L189.539 437.827C189.337 438.19 189.075 438.505 188.755 438.771C188.446 439.038 188.078 439.246 187.651 439.395C187.235 439.534 186.766 439.603 186.243 439.603ZM200.419 431.283C201.176 431.283 201.843 431.449 202.419 431.779C203.005 432.11 203.464 432.59 203.795 433.219C204.125 433.838 204.291 434.579 204.291 435.443C204.291 436.307 204.125 437.054 203.795 437.683C203.464 438.302 203.005 438.777 202.419 439.107C201.843 439.438 201.176 439.603 200.419 439.603C199.672 439.603 199.005 439.438 198.419 439.107C197.832 438.777 197.373 438.302 197.043 437.683C196.712 437.054 196.547 436.307 196.547 435.443C196.547 434.579 196.712 433.838 197.043 433.219C197.373 432.59 197.832 432.11 198.419 431.779C199.005 431.449 199.672 431.283 200.419 431.283ZM200.419 432.387C199.875 432.387 199.411 432.51 199.027 432.755C198.643 433.001 198.344 433.353 198.131 433.811C197.928 434.259 197.827 434.803 197.827 435.443C197.827 436.073 197.928 436.617 198.131 437.075C198.344 437.534 198.643 437.886 199.027 438.131C199.411 438.377 199.875 438.499 200.419 438.499C200.963 438.499 201.427 438.377 201.811 438.131C202.195 437.886 202.488 437.534 202.691 437.075C202.904 436.617 203.011 436.073 203.011 435.443C203.011 434.803 202.904 434.259 202.691 433.811C202.488 433.353 202.195 433.001 201.811 432.755C201.427 432.51 200.963 432.387 200.419 432.387ZM209.568 427.683C209.845 427.683 210.107 427.715 210.352 427.779C210.597 427.843 210.789 427.934 210.928 428.051L210.592 429.091C210.464 429.006 210.325 428.947 210.176 428.915C210.027 428.873 209.861 428.851 209.68 428.851C209.221 428.851 208.864 428.963 208.608 429.187C208.352 429.401 208.224 429.747 208.224 430.227V431.443V431.859V439.443H206.944V430.099C206.944 429.747 206.997 429.422 207.104 429.123C207.211 428.825 207.371 428.569 207.584 428.355C207.808 428.142 208.085 427.977 208.416 427.859C208.747 427.742 209.131 427.683 209.568 427.683ZM210.896 431.443V432.547H205.344V431.443H210.896ZM224.16 428.883V430.083H220.48V439.443H219.2V430.083H215.52V428.883H224.16ZM225.6 439.443V427.763H226.88V432.643C227.157 432.163 227.525 431.817 227.984 431.603C228.443 431.39 228.944 431.283 229.488 431.283C230.064 431.283 230.587 431.395 231.056 431.619C231.525 431.833 231.899 432.163 232.176 432.611C232.464 433.059 232.608 433.63 232.608 434.323V439.443H231.328V434.771C231.328 433.886 231.136 433.273 230.752 432.931C230.379 432.579 229.915 432.403 229.36 432.403C228.976 432.403 228.592 432.494 228.208 432.675C227.824 432.857 227.504 433.155 227.248 433.571C227.003 433.977 226.88 434.521 226.88 435.203V439.443H225.6ZM238.61 439.603C237.853 439.603 237.175 439.438 236.578 439.107C235.991 438.777 235.533 438.302 235.202 437.683C234.871 437.054 234.706 436.307 234.706 435.443C234.706 434.579 234.871 433.838 235.202 433.219C235.533 432.59 235.986 432.11 236.562 431.779C237.138 431.449 237.794 431.283 238.53 431.283C239.277 431.283 239.911 431.443 240.434 431.763C240.967 432.083 241.373 432.521 241.65 433.075C241.927 433.619 242.066 434.233 242.066 434.915C242.066 435.097 242.061 435.262 242.05 435.411C242.039 435.561 242.023 435.694 242.002 435.811H235.538V434.675H241.442L240.786 434.803C240.786 434.035 240.573 433.443 240.146 433.027C239.73 432.611 239.181 432.403 238.498 432.403C237.975 432.403 237.522 432.526 237.138 432.771C236.765 433.006 236.471 433.353 236.258 433.811C236.055 434.259 235.954 434.803 235.954 435.443C235.954 436.073 236.061 436.617 236.274 437.075C236.487 437.534 236.786 437.886 237.17 438.131C237.565 438.366 238.034 438.483 238.578 438.483C239.165 438.483 239.639 438.371 240.002 438.147C240.375 437.923 240.674 437.619 240.898 437.235L241.906 437.827C241.703 438.19 241.442 438.505 241.122 438.771C240.813 439.038 240.445 439.246 240.018 439.395C239.602 439.534 239.133 439.603 238.61 439.603ZM244.26 439.443V431.443H245.38L245.46 432.691C245.748 432.201 246.122 431.843 246.58 431.619C247.05 431.395 247.53 431.283 248.02 431.283C248.586 431.283 249.119 431.411 249.62 431.667C250.122 431.923 250.506 432.318 250.772 432.851C250.943 432.489 251.183 432.195 251.492 431.971C251.802 431.737 252.138 431.566 252.5 431.459C252.874 431.342 253.226 431.283 253.556 431.283C254.068 431.283 254.554 431.39 255.012 431.603C255.482 431.817 255.866 432.147 256.164 432.595C256.463 433.043 256.612 433.619 256.612 434.323V439.443H255.332V434.451C255.332 433.726 255.151 433.203 254.788 432.883C254.426 432.563 253.978 432.403 253.444 432.403C253.028 432.403 252.639 432.505 252.276 432.707C251.914 432.91 251.62 433.209 251.396 433.603C251.183 433.998 251.076 434.483 251.076 435.059V439.443H249.796V434.451C249.796 433.726 249.615 433.203 249.252 432.883C248.89 432.563 248.442 432.403 247.908 432.403C247.556 432.403 247.194 432.499 246.82 432.691C246.458 432.873 246.154 433.166 245.908 433.571C245.663 433.977 245.54 434.51 245.54 435.171V439.443H244.26ZM262.151 439.603C261.372 439.603 260.652 439.438 259.991 439.107C259.34 438.777 258.839 438.307 258.487 437.699L259.575 436.915C259.809 437.406 260.151 437.79 260.599 438.067C261.057 438.345 261.607 438.483 262.247 438.483C262.812 438.483 263.255 438.377 263.575 438.163C263.895 437.939 264.055 437.651 264.055 437.299C264.055 437.075 263.98 436.873 263.831 436.691C263.692 436.499 263.42 436.361 263.015 436.275L261.095 435.875C260.316 435.715 259.756 435.449 259.415 435.075C259.084 434.702 258.919 434.238 258.919 433.683C258.919 433.246 259.041 432.846 259.287 432.483C259.543 432.121 259.9 431.833 260.359 431.619C260.828 431.395 261.377 431.283 262.007 431.283C262.796 431.283 263.463 431.438 264.007 431.747C264.551 432.057 264.956 432.494 265.223 433.059L264.151 433.763C263.969 433.294 263.676 432.953 263.271 432.739C262.865 432.515 262.444 432.403 262.007 432.403C261.623 432.403 261.292 432.457 261.015 432.563C260.748 432.67 260.54 432.819 260.391 433.011C260.252 433.193 260.183 433.401 260.183 433.635C260.183 433.87 260.263 434.089 260.423 434.291C260.583 434.483 260.881 434.622 261.319 434.707L263.319 435.123C264.065 435.273 264.588 435.518 264.887 435.859C265.185 436.201 265.335 436.617 265.335 437.107C265.335 437.609 265.201 438.051 264.935 438.435C264.668 438.809 264.295 439.097 263.815 439.299C263.335 439.502 262.78 439.603 262.151 439.603ZM270.812 439.603C270.055 439.603 269.377 439.438 268.78 439.107C268.193 438.777 267.735 438.302 267.404 437.683C267.073 437.054 266.908 436.307 266.908 435.443C266.908 434.579 267.073 433.838 267.404 433.219C267.735 432.59 268.188 432.11 268.764 431.779C269.34 431.449 269.996 431.283 270.732 431.283C271.479 431.283 272.113 431.443 272.636 431.763C273.169 432.083 273.575 432.521 273.852 433.075C274.129 433.619 274.268 434.233 274.268 434.915C274.268 435.097 274.263 435.262 274.252 435.411C274.241 435.561 274.225 435.694 274.204 435.811H267.74V434.675H273.644L272.988 434.803C272.988 434.035 272.775 433.443 272.348 433.027C271.932 432.611 271.383 432.403 270.7 432.403C270.177 432.403 269.724 432.526 269.34 432.771C268.967 433.006 268.673 433.353 268.46 433.811C268.257 434.259 268.156 434.803 268.156 435.443C268.156 436.073 268.263 436.617 268.476 437.075C268.689 437.534 268.988 437.886 269.372 438.131C269.767 438.366 270.236 438.483 270.78 438.483C271.367 438.483 271.841 438.371 272.204 438.147C272.577 437.923 272.876 437.619 273.1 437.235L274.108 437.827C273.905 438.19 273.644 438.505 273.324 438.771C273.015 439.038 272.647 439.246 272.22 439.395C271.804 439.534 271.335 439.603 270.812 439.603ZM277.678 427.763V437.411C277.678 437.817 277.753 438.099 277.902 438.259C278.052 438.409 278.292 438.483 278.622 438.483C278.836 438.483 279.012 438.467 279.15 438.435C279.289 438.403 279.476 438.345 279.71 438.259L279.502 439.379C279.332 439.454 279.145 439.507 278.942 439.539C278.74 439.582 278.532 439.603 278.318 439.603C277.668 439.603 277.182 439.427 276.862 439.075C276.553 438.723 276.398 438.185 276.398 437.459V427.763H277.678ZM286.097 431.443H287.441L284.113 439.443H282.833L279.505 431.443H280.961L283.489 438.147L286.097 431.443ZM292.217 439.603C291.46 439.603 290.782 439.438 290.185 439.107C289.598 438.777 289.14 438.302 288.809 437.683C288.478 437.054 288.313 436.307 288.313 435.443C288.313 434.579 288.478 433.838 288.809 433.219C289.14 432.59 289.593 432.11 290.169 431.779C290.745 431.449 291.401 431.283 292.137 431.283C292.884 431.283 293.518 431.443 294.041 431.763C294.574 432.083 294.98 432.521 295.257 433.075C295.534 433.619 295.673 434.233 295.673 434.915C295.673 435.097 295.668 435.262 295.657 435.411C295.646 435.561 295.63 435.694 295.609 435.811H289.145V434.675H295.049L294.393 434.803C294.393 434.035 294.18 433.443 293.753 433.027C293.337 432.611 292.788 432.403 292.105 432.403C291.582 432.403 291.129 432.526 290.745 432.771C290.372 433.006 290.078 433.353 289.865 433.811C289.662 434.259 289.561 434.803 289.561 435.443C289.561 436.073 289.668 436.617 289.881 437.075C290.094 437.534 290.393 437.886 290.777 438.131C291.172 438.366 291.641 438.483 292.185 438.483C292.772 438.483 293.246 438.371 293.609 438.147C293.982 437.923 294.281 437.619 294.505 437.235L295.513 437.827C295.31 438.19 295.049 438.505 294.729 438.771C294.42 439.038 294.052 439.246 293.625 439.395C293.209 439.534 292.74 439.603 292.217 439.603ZM300.747 439.603C299.969 439.603 299.249 439.438 298.587 439.107C297.937 438.777 297.435 438.307 297.083 437.699L298.171 436.915C298.406 437.406 298.747 437.79 299.195 438.067C299.654 438.345 300.203 438.483 300.843 438.483C301.409 438.483 301.851 438.377 302.171 438.163C302.491 437.939 302.651 437.651 302.651 437.299C302.651 437.075 302.577 436.873 302.427 436.691C302.289 436.499 302.017 436.361 301.611 436.275L299.691 435.875C298.913 435.715 298.353 435.449 298.011 435.075C297.681 434.702 297.515 434.238 297.515 433.683C297.515 433.246 297.638 432.846 297.883 432.483C298.139 432.121 298.497 431.833 298.955 431.619C299.425 431.395 299.974 431.283 300.603 431.283C301.393 431.283 302.059 431.438 302.603 431.747C303.147 432.057 303.553 432.494 303.819 433.059L302.747 433.763C302.566 433.294 302.273 432.953 301.867 432.739C301.462 432.515 301.041 432.403 300.603 432.403C300.219 432.403 299.889 432.457 299.611 432.563C299.345 432.67 299.137 432.819 298.987 433.011C298.849 433.193 298.779 433.401 298.779 433.635C298.779 433.87 298.859 434.089 299.019 434.291C299.179 434.483 299.478 434.622 299.915 434.707L301.915 435.123C302.662 435.273 303.185 435.518 303.483 435.859C303.782 436.201 303.931 436.617 303.931 437.107C303.931 437.609 303.798 438.051 303.531 438.435C303.265 438.809 302.891 439.097 302.411 439.299C301.931 439.502 301.377 439.603 300.747 439.603Z" fill="#131316"/>
</g>
<g filter="url(#filter1_b_800_25583)">
<rect x="124" y="141" width="108" height="50.8866" rx="25.4433" fill="white"/>
<rect x="124" y="141" width="108" height="50.8866" rx="25.4433" fill="url(#paint1_linear_800_25583)" fill-opacity="0.4"/>
<rect x="124.42" y="141.42" width="107.16" height="50.0464" rx="25.0232" stroke="#61DD00" stroke-width="0.840206"/>
<path d="M167.585 160.883V162.083H163.905V171.443H162.625V162.083H158.945V160.883H167.585ZM168.228 171.443V163.443H169.268L169.444 164.755C169.668 164.265 169.993 163.897 170.42 163.651C170.857 163.406 171.385 163.283 172.004 163.283C172.143 163.283 172.292 163.294 172.452 163.315C172.623 163.337 172.767 163.379 172.884 163.443L172.66 164.611C172.543 164.569 172.415 164.537 172.276 164.515C172.137 164.494 171.94 164.483 171.684 164.483C171.353 164.483 171.017 164.579 170.676 164.771C170.345 164.963 170.068 165.257 169.844 165.651C169.62 166.035 169.508 166.526 169.508 167.123V171.443H168.228ZM177.415 171.603C176.903 171.603 176.418 171.507 175.959 171.315C175.511 171.123 175.143 170.814 174.855 170.387C174.578 169.95 174.439 169.385 174.439 168.691V163.443H175.719V168.355C175.719 169.166 175.895 169.726 176.247 170.035C176.599 170.334 177.095 170.483 177.735 170.483C178.034 170.483 178.327 170.435 178.615 170.339C178.903 170.233 179.159 170.073 179.383 169.859C179.618 169.635 179.799 169.353 179.927 169.011C180.066 168.67 180.135 168.265 180.135 167.795V163.443H181.415V171.443H180.295L180.215 170.227C179.938 170.707 179.559 171.059 179.079 171.283C178.61 171.497 178.055 171.603 177.415 171.603ZM187.034 171.603C186.256 171.603 185.536 171.438 184.874 171.107C184.224 170.777 183.722 170.307 183.37 169.699L184.458 168.915C184.693 169.406 185.034 169.79 185.482 170.067C185.941 170.345 186.49 170.483 187.13 170.483C187.696 170.483 188.138 170.377 188.458 170.163C188.778 169.939 188.938 169.651 188.938 169.299C188.938 169.075 188.864 168.873 188.714 168.691C188.576 168.499 188.304 168.361 187.898 168.275L185.978 167.875C185.2 167.715 184.64 167.449 184.298 167.075C183.968 166.702 183.802 166.238 183.802 165.683C183.802 165.246 183.925 164.846 184.17 164.483C184.426 164.121 184.784 163.833 185.242 163.619C185.712 163.395 186.261 163.283 186.89 163.283C187.68 163.283 188.346 163.438 188.89 163.747C189.434 164.057 189.84 164.494 190.106 165.059L189.034 165.763C188.853 165.294 188.56 164.953 188.154 164.739C187.749 164.515 187.328 164.403 186.89 164.403C186.506 164.403 186.176 164.457 185.898 164.563C185.632 164.67 185.424 164.819 185.274 165.011C185.136 165.193 185.066 165.401 185.066 165.635C185.066 165.87 185.146 166.089 185.306 166.291C185.466 166.483 185.765 166.622 186.202 166.707L188.202 167.123C188.949 167.273 189.472 167.518 189.77 167.859C190.069 168.201 190.218 168.617 190.218 169.107C190.218 169.609 190.085 170.051 189.818 170.435C189.552 170.809 189.178 171.097 188.698 171.299C188.218 171.502 187.664 171.603 187.034 171.603ZM194.24 161.171V169.235C194.24 169.63 194.352 169.923 194.576 170.115C194.8 170.307 195.088 170.403 195.44 170.403C195.749 170.403 196.016 170.35 196.24 170.243C196.464 170.137 196.666 169.993 196.848 169.811L197.296 170.883C197.05 171.107 196.757 171.283 196.416 171.411C196.085 171.539 195.701 171.603 195.264 171.603C194.858 171.603 194.48 171.534 194.128 171.395C193.776 171.246 193.493 171.017 193.28 170.707C193.077 170.387 192.97 169.971 192.96 169.459V161.523L194.24 161.171ZM197.152 163.443V164.547H191.36V163.443H197.152Z" fill="#131316"/>
</g>
<g filter="url(#filter2_b_800_25583)">
<rect x="371" y="282" width="132.33" height="50.8866" rx="25.4433" fill="white"/>
<rect x="371" y="282" width="132.33" height="50.8866" rx="25.4433" fill="url(#paint2_linear_800_25583)" fill-opacity="0.4"/>
<rect x="371.42" y="282.42" width="131.49" height="50.0464" rx="25.0232" stroke="#61DD00" stroke-width="0.840206"/>
<path d="M396.672 301.723C397.6 301.723 398.4 301.915 399.072 302.299C399.744 302.673 400.304 303.227 400.752 303.963L399.68 304.795C399.285 304.113 398.837 303.633 398.336 303.355C397.845 303.067 397.248 302.923 396.544 302.923C395.978 302.923 395.509 303.003 395.136 303.163C394.773 303.323 394.506 303.537 394.336 303.803C394.165 304.059 394.08 304.353 394.08 304.683C394.08 305.057 394.197 305.387 394.432 305.675C394.666 305.953 395.136 306.171 395.84 306.331L398.128 306.843C399.141 307.067 399.845 307.409 400.24 307.867C400.645 308.315 400.848 308.875 400.848 309.547C400.848 310.145 400.677 310.678 400.336 311.147C400.005 311.606 399.536 311.963 398.928 312.219C398.32 312.475 397.605 312.603 396.784 312.603C396.016 312.603 395.338 312.502 394.752 312.299C394.176 312.086 393.68 311.803 393.264 311.451C392.848 311.099 392.506 310.705 392.24 310.267L393.36 309.355C393.562 309.761 393.824 310.118 394.144 310.427C394.464 310.737 394.848 310.977 395.296 311.147C395.754 311.318 396.277 311.403 396.864 311.403C397.408 311.403 397.877 311.339 398.272 311.211C398.677 311.073 398.986 310.875 399.2 310.619C399.413 310.353 399.52 310.033 399.52 309.659C399.52 309.318 399.408 309.014 399.184 308.747C398.96 308.47 398.538 308.262 397.92 308.123L395.44 307.563C394.789 307.414 394.261 307.211 393.856 306.955C393.461 306.689 393.173 306.379 392.992 306.027C392.821 305.665 392.736 305.275 392.736 304.859C392.736 304.294 392.89 303.777 393.2 303.307C393.52 302.827 393.973 302.443 394.56 302.155C395.157 301.867 395.861 301.723 396.672 301.723ZM405.867 312.603C405.355 312.603 404.87 312.507 404.411 312.315C403.963 312.123 403.595 311.814 403.307 311.387C403.03 310.95 402.891 310.385 402.891 309.691V304.443H404.171V309.355C404.171 310.166 404.347 310.726 404.699 311.035C405.051 311.334 405.547 311.483 406.187 311.483C406.486 311.483 406.779 311.435 407.067 311.339C407.355 311.233 407.611 311.073 407.835 310.859C408.07 310.635 408.251 310.353 408.379 310.011C408.518 309.67 408.587 309.265 408.587 308.795V304.443H409.867V312.443H408.747L408.667 311.227C408.39 311.707 408.011 312.059 407.531 312.283C407.062 312.497 406.507 312.603 405.867 312.603ZM412.606 312.443V304.443H413.646L413.822 305.755C414.046 305.265 414.372 304.897 414.798 304.651C415.236 304.406 415.764 304.283 416.382 304.283C416.521 304.283 416.67 304.294 416.83 304.315C417.001 304.337 417.145 304.379 417.262 304.443L417.038 305.611C416.921 305.569 416.793 305.537 416.654 305.515C416.516 305.494 416.318 305.483 416.062 305.483C415.732 305.483 415.396 305.579 415.054 305.771C414.724 305.963 414.446 306.257 414.222 306.651C413.998 307.035 413.886 307.526 413.886 308.123V312.443H412.606ZM421.992 312.603C421.234 312.603 420.557 312.438 419.96 312.107C419.373 311.777 418.914 311.302 418.584 310.683C418.253 310.054 418.088 309.307 418.088 308.443C418.088 307.579 418.253 306.838 418.584 306.219C418.914 305.59 419.368 305.11 419.944 304.779C420.52 304.449 421.176 304.283 421.912 304.283C422.658 304.283 423.293 304.443 423.816 304.763C424.349 305.083 424.754 305.521 425.032 306.075C425.309 306.619 425.448 307.233 425.448 307.915C425.448 308.097 425.442 308.262 425.432 308.411C425.421 308.561 425.405 308.694 425.384 308.811H418.92V307.675H424.824L424.168 307.803C424.168 307.035 423.954 306.443 423.528 306.027C423.112 305.611 422.562 305.403 421.88 305.403C421.357 305.403 420.904 305.526 420.52 305.771C420.146 306.006 419.853 306.353 419.64 306.811C419.437 307.259 419.336 307.803 419.336 308.443C419.336 309.073 419.442 309.617 419.656 310.075C419.869 310.534 420.168 310.886 420.552 311.131C420.946 311.366 421.416 311.483 421.96 311.483C422.546 311.483 423.021 311.371 423.384 311.147C423.757 310.923 424.056 310.619 424.28 310.235L425.288 310.827C425.085 311.19 424.824 311.505 424.504 311.771C424.194 312.038 423.826 312.246 423.4 312.395C422.984 312.534 422.514 312.603 421.992 312.603ZM436.823 301.883C437.538 301.883 438.157 302.017 438.679 302.283C439.213 302.539 439.629 302.907 439.927 303.387C440.226 303.867 440.375 304.438 440.375 305.099C440.375 305.761 440.226 306.331 439.927 306.811C439.629 307.291 439.213 307.665 438.679 307.931C438.157 308.187 437.538 308.315 436.823 308.315H434.375V312.443H433.095V301.883H436.823ZM436.631 307.115C437.463 307.115 438.071 306.945 438.455 306.603C438.839 306.251 439.031 305.75 439.031 305.099C439.031 304.438 438.839 303.937 438.455 303.595C438.071 303.254 437.463 303.083 436.631 303.083H434.375V307.115H436.631ZM445.584 312.603C444.827 312.603 444.15 312.438 443.552 312.107C442.966 311.777 442.507 311.302 442.176 310.683C441.846 310.054 441.68 309.307 441.68 308.443C441.68 307.579 441.846 306.838 442.176 306.219C442.507 305.59 442.96 305.11 443.536 304.779C444.112 304.449 444.768 304.283 445.504 304.283C446.251 304.283 446.886 304.443 447.408 304.763C447.942 305.083 448.347 305.521 448.624 306.075C448.902 306.619 449.04 307.233 449.04 307.915C449.04 308.097 449.035 308.262 449.024 308.411C449.014 308.561 448.998 308.694 448.976 308.811H442.512V307.675H448.416L447.76 307.803C447.76 307.035 447.547 306.443 447.12 306.027C446.704 305.611 446.155 305.403 445.472 305.403C444.95 305.403 444.496 305.526 444.112 305.771C443.739 306.006 443.446 306.353 443.232 306.811C443.03 307.259 442.928 307.803 442.928 308.443C442.928 309.073 443.035 309.617 443.248 310.075C443.462 310.534 443.76 310.886 444.144 311.131C444.539 311.366 445.008 311.483 445.552 311.483C446.139 311.483 446.614 311.371 446.976 311.147C447.35 310.923 447.648 310.619 447.872 310.235L448.88 310.827C448.678 311.19 448.416 311.505 448.096 311.771C447.787 312.038 447.419 312.246 446.992 312.395C446.576 312.534 446.107 312.603 445.584 312.603ZM454.547 304.283C455.304 304.283 455.971 304.449 456.547 304.779C457.133 305.11 457.592 305.59 457.923 306.219C458.253 306.838 458.419 307.579 458.419 308.443C458.419 309.307 458.253 310.054 457.923 310.683C457.592 311.302 457.133 311.777 456.547 312.107C455.971 312.438 455.304 312.603 454.547 312.603C453.8 312.603 453.133 312.438 452.547 312.107C451.96 311.777 451.501 311.302 451.171 310.683C450.84 310.054 450.675 309.307 450.675 308.443C450.675 307.579 450.84 306.838 451.171 306.219C451.501 305.59 451.96 305.11 452.547 304.779C453.133 304.449 453.8 304.283 454.547 304.283ZM454.547 305.387C454.003 305.387 453.539 305.51 453.155 305.755C452.771 306.001 452.472 306.353 452.259 306.811C452.056 307.259 451.955 307.803 451.955 308.443C451.955 309.073 452.056 309.617 452.259 310.075C452.472 310.534 452.771 310.886 453.155 311.131C453.539 311.377 454.003 311.499 454.547 311.499C455.091 311.499 455.555 311.377 455.939 311.131C456.323 310.886 456.616 310.534 456.819 310.075C457.032 309.617 457.139 309.073 457.139 308.443C457.139 307.803 457.032 307.259 456.819 306.811C456.616 306.353 456.323 306.001 455.939 305.755C455.555 305.51 455.091 305.387 454.547 305.387ZM460.588 315.803V304.443H461.708L461.82 306.395L461.644 306.171C461.783 305.798 461.991 305.473 462.268 305.195C462.546 304.907 462.882 304.683 463.276 304.523C463.671 304.363 464.098 304.283 464.556 304.283C465.207 304.283 465.804 304.449 466.348 304.779C466.903 305.11 467.346 305.585 467.676 306.203C468.007 306.822 468.172 307.569 468.172 308.443C468.172 309.307 468.002 310.054 467.66 310.683C467.33 311.302 466.887 311.777 466.332 312.107C465.778 312.438 465.17 312.603 464.508 312.603C463.847 312.603 463.266 312.443 462.764 312.123C462.274 311.793 461.922 311.377 461.708 310.875L461.868 310.635V315.803H460.588ZM464.38 311.483C465.17 311.483 465.783 311.206 466.22 310.651C466.668 310.097 466.892 309.361 466.892 308.443C466.892 307.526 466.674 306.79 466.236 306.235C465.81 305.681 465.207 305.403 464.428 305.403C463.916 305.403 463.468 305.531 463.084 305.787C462.7 306.033 462.402 306.385 462.188 306.843C461.975 307.291 461.868 307.825 461.868 308.443C461.868 309.051 461.97 309.585 462.172 310.043C462.386 310.502 462.679 310.859 463.052 311.115C463.436 311.361 463.879 311.483 464.38 311.483ZM471.596 300.763V310.411C471.596 310.817 471.67 311.099 471.82 311.259C471.969 311.409 472.209 311.483 472.54 311.483C472.753 311.483 472.929 311.467 473.068 311.435C473.206 311.403 473.393 311.345 473.628 311.259L473.42 312.379C473.249 312.454 473.062 312.507 472.86 312.539C472.657 312.582 472.449 312.603 472.236 312.603C471.585 312.603 471.1 312.427 470.78 312.075C470.47 311.723 470.316 311.185 470.316 310.459V300.763H471.596ZM478.374 312.603C477.617 312.603 476.94 312.438 476.342 312.107C475.756 311.777 475.297 311.302 474.966 310.683C474.636 310.054 474.47 309.307 474.47 308.443C474.47 307.579 474.636 306.838 474.966 306.219C475.297 305.59 475.75 305.11 476.326 304.779C476.902 304.449 477.558 304.283 478.294 304.283C479.041 304.283 479.676 304.443 480.198 304.763C480.732 305.083 481.137 305.521 481.414 306.075C481.692 306.619 481.83 307.233 481.83 307.915C481.83 308.097 481.825 308.262 481.814 308.411C481.804 308.561 481.788 308.694 481.766 308.811H475.302V307.675H481.206L480.55 307.803C480.55 307.035 480.337 306.443 479.91 306.027C479.494 305.611 478.945 305.403 478.262 305.403C477.74 305.403 477.286 305.526 476.902 305.771C476.529 306.006 476.236 306.353 476.022 306.811C475.82 307.259 475.718 307.803 475.718 308.443C475.718 309.073 475.825 309.617 476.038 310.075C476.252 310.534 476.55 310.886 476.934 311.131C477.329 311.366 477.798 311.483 478.342 311.483C478.929 311.483 479.404 311.371 479.766 311.147C480.14 310.923 480.438 310.619 480.662 310.235L481.67 310.827C481.468 311.19 481.206 311.505 480.886 311.771C480.577 312.038 480.209 312.246 479.782 312.395C479.366 312.534 478.897 312.603 478.374 312.603Z" fill="#131316"/>
</g>
<defs>
<filter id="filter0_b_800_25583" x="-66" y="309" width="491.328" height="250.887" filterUnits="userSpaceOnUse" color-interpolation-filters="sRGB">
<feFlood flood-opacity="0" result="BackgroundImageFix"/>
<feGaussianBlur in="BackgroundImageFix" stdDeviation="50"/>
<feComposite in2="SourceAlpha" operator="in" result="effect1_backgroundBlur_800_25583"/>
<feBlend mode="normal" in="SourceGraphic" in2="effect1_backgroundBlur_800_25583" result="shape"/>
</filter>
<filter id="filter1_b_800_25583" x="24" y="41" width="308" height="250.887" filterUnits="userSpaceOnUse" color-interpolation-filters="sRGB">
<feFlood flood-opacity="0" result="BackgroundImageFix"/>
<feGaussianBlur in="BackgroundImageFix" stdDeviation="50"/>
<feComposite in2="SourceAlpha" operator="in" result="effect1_backgroundBlur_800_25583"/>
<feBlend mode="normal" in="SourceGraphic" in2="effect1_backgroundBlur_800_25583" result="shape"/>
</filter>
<filter id="filter2_b_800_25583" x="271" y="182" width="332.328" height="250.887" filterUnits="userSpaceOnUse" color-interpolation-filters="sRGB">
<feFlood flood-opacity="0" result="BackgroundImageFix"/>
<feGaussianBlur in="BackgroundImageFix" stdDeviation="50"/>
<feComposite in2="SourceAlpha" operator="in" result="effect1_backgroundBlur_800_25583"/>
<feBlend mode="normal" in="SourceGraphic" in2="effect1_backgroundBlur_800_25583" result="shape"/>
</filter>
<linearGradient id="paint0_linear_800_25583" x1="327.029" y1="455.771" x2="41.9538" y2="404.556" gradientUnits="userSpaceOnUse">
<stop stop-color="#61DD00"/>
<stop offset="1" stop-color="#37CA03" stop-opacity="0"/>
</linearGradient>
<linearGradient id="paint1_linear_800_25583" x1="232.63" y1="187.771" x2="124.019" y2="180.537" gradientUnits="userSpaceOnUse">
<stop stop-color="#61DD00"/>
<stop offset="1" stop-color="#37CA03" stop-opacity="0"/>
</linearGradient>
<linearGradient id="paint2_linear_800_25583" x1="504.101" y1="328.771" x2="371.318" y2="317.935" gradientUnits="userSpaceOnUse">
<stop stop-color="#61DD00"/>
<stop offset="1" stop-color="#37CA03" stop-opacity="0"/>
</linearGradient>
</defs>
</svg>
