<svg width="1440" height="1212" viewBox="0 0 1440 1212" fill="none" xmlns="http://www.w3.org/2000/svg">
<g opacity="0.3" filter="url(#filter0_f_574_5666)">
<path d="M1881.96 790.883C1786.38 952.885 1874.44 280.105 1176.93 264.022C1105.86 222.093 1125.72 56.7748 1221.3 -105.227C1316.88 -267.229 1377.19 -690.076 1448.25 -648.147C1519.32 -606.219 1977.53 628.881 1881.96 790.883Z" fill="#FF6B00"/>
</g>
<g opacity="0.5" filter="url(#filter1_f_574_5666)">
<path d="M-1389.1 710.151C-1456.22 965.271 -872.672 213.576 -168.297 892.803C-56.3782 922.249 88.762 739.303 155.883 484.183C223.004 229.063 584.873 -248.328 472.954 -277.773C361.035 -307.218 -1321.98 455.031 -1389.1 710.151Z" fill="url(#paint0_linear_574_5666)" fill-opacity="0.5"/>
</g>
<g opacity="0.4" filter="url(#filter2_f_574_5666)">
<path d="M1141.84 661.832C1162.62 748.115 1326.25 770.141 1417.92 710.239C1544.86 627.282 1551.77 521.461 1454.29 400.62C1332.44 249.568 1266.78 264.573 1288.37 487.769C1309.96 710.964 1121.06 575.549 1141.84 661.832Z" fill="#FFC700"/>
</g>
<defs>
<filter id="filter0_f_574_5666" x="818.312" y="-967.055" width="1392.7" height="2099.1" filterUnits="userSpaceOnUse" color-interpolation-filters="sRGB">
<feFlood flood-opacity="0" result="BackgroundImageFix"/>
<feBlend mode="normal" in="SourceGraphic" in2="BackgroundImageFix" result="shape"/>
<feGaussianBlur stdDeviation="158" result="effect1_foregroundBlur_574_5666"/>
</filter>
<filter id="filter1_f_574_5666" x="-1710.37" y="-594.604" width="2520.65" height="1806.52" filterUnits="userSpaceOnUse" color-interpolation-filters="sRGB">
<feFlood flood-opacity="0" result="BackgroundImageFix"/>
<feBlend mode="normal" in="SourceGraphic" in2="BackgroundImageFix" result="shape"/>
<feGaussianBlur stdDeviation="158" result="effect1_foregroundBlur_574_5666"/>
</filter>
<filter id="filter2_f_574_5666" x="698.442" y="-140.575" width="1264.4" height="1326.38" filterUnits="userSpaceOnUse" color-interpolation-filters="sRGB">
<feFlood flood-opacity="0" result="BackgroundImageFix"/>
<feBlend mode="normal" in="SourceGraphic" in2="BackgroundImageFix" result="shape"/>
<feGaussianBlur stdDeviation="220.9" result="effect1_foregroundBlur_574_5666"/>
</filter>
<linearGradient id="paint0_linear_574_5666" x1="-358.035" y1="503.282" x2="63.3793" y2="-132.086" gradientUnits="userSpaceOnUse">
<stop stop-color="#00A3FF"/>
<stop offset="1" stop-color="#2ED3B7"/>
</linearGradient>
</defs>
</svg>
