<svg width="460" height="460" viewBox="0 0 460 460" fill="none" xmlns="http://www.w3.org/2000/svg">
<rect x="34.75" y="34.75" width="390.5" height="390.5" rx="20" fill="#FAFAFA" fill-opacity="0.2"/>
<path opacity="0.3" d="M370.042 88.3984H88.4023V370.037H370.042V88.3984Z" fill="black" fill-opacity="0.1"/>
<path opacity="0.9" d="M88.4023 88.5078H370.042L281.655 283.203L175.79 283.093L88.4023 88.5078Z" fill="url(#paint0_linear_807_8993)"/>
<path d="M309.777 148.666H147.516V310.928H309.777V148.666Z" fill="black" fill-opacity="0.1"/>
<path d="M370.823 89.1777L89.1836 370.816" stroke="white" stroke-opacity="0.4" stroke-width="0.998721" stroke-miterlimit="10"/>
<path d="M370.823 370.816L89.1836 89.1777" stroke="white" stroke-opacity="0.4" stroke-width="0.998721" stroke-miterlimit="10"/>
<path d="M97.1818 223.066H95.2883V226.35H94.3295V218.44H97.3257C98.1326 218.44 98.7798 218.647 99.2672 219.063C99.7546 219.478 99.9982 220.042 99.9982 220.753C99.9982 221.312 99.8424 221.783 99.5308 222.167C99.2192 222.55 98.7918 222.814 98.2485 222.958L100.478 226.35H99.3391L97.1818 223.066ZM95.2883 222.167H97.3137C98.4322 222.167 98.9915 221.696 98.9915 220.753C98.9915 219.81 98.4322 219.339 97.3137 219.339H95.2883V222.167ZM107.062 223.042C107.062 223.266 107.046 223.489 107.015 223.713H102.496C102.552 224.32 102.752 224.792 103.096 225.127C103.447 225.463 103.898 225.631 104.45 225.631C104.889 225.631 105.253 225.555 105.54 225.403C105.836 225.251 106.036 225.031 106.14 224.744L106.943 225.163C106.703 225.587 106.383 225.91 105.984 226.134C105.584 226.358 105.073 226.469 104.45 226.469C103.547 226.469 102.836 226.194 102.317 225.643C101.805 225.091 101.55 224.328 101.55 223.353C101.55 222.379 101.793 221.616 102.281 221.064C102.776 220.513 103.475 220.237 104.378 220.237C104.937 220.237 105.421 220.361 105.828 220.609C106.236 220.857 106.543 221.192 106.751 221.616C106.959 222.039 107.062 222.515 107.062 223.042ZM104.378 221.076C103.851 221.076 103.423 221.232 103.096 221.544C102.776 221.855 102.58 222.295 102.508 222.862H106.14C106.076 222.303 105.892 221.867 105.588 221.556C105.285 221.236 104.881 221.076 104.378 221.076ZM110.922 226.469C110.347 226.469 109.828 226.358 109.364 226.134C108.901 225.902 108.561 225.563 108.345 225.115L109.124 224.576C109.26 224.927 109.496 225.191 109.832 225.367C110.167 225.543 110.563 225.631 111.018 225.631C111.489 225.631 111.849 225.547 112.097 225.379C112.344 225.211 112.468 224.999 112.468 224.744C112.468 224.512 112.352 224.328 112.121 224.192C111.889 224.049 111.481 223.925 110.898 223.821C110.323 223.717 109.868 223.593 109.532 223.449C109.196 223.298 108.953 223.11 108.801 222.886C108.649 222.654 108.573 222.371 108.573 222.035C108.573 221.708 108.669 221.408 108.861 221.136C109.053 220.865 109.328 220.649 109.688 220.489C110.047 220.321 110.463 220.237 110.934 220.237C111.573 220.237 112.085 220.357 112.468 220.597C112.86 220.829 113.139 221.188 113.307 221.676L112.492 222.155C112.364 221.771 112.169 221.496 111.905 221.328C111.649 221.16 111.326 221.076 110.934 221.076C110.543 221.076 110.211 221.164 109.939 221.34C109.668 221.516 109.532 221.72 109.532 221.951C109.532 222.215 109.648 222.419 109.879 222.562C110.119 222.706 110.543 222.83 111.15 222.934C111.981 223.07 112.568 223.274 112.912 223.545C113.255 223.817 113.427 224.2 113.427 224.696C113.427 225.039 113.323 225.347 113.115 225.619C112.916 225.882 112.624 226.09 112.24 226.242C111.865 226.394 111.426 226.469 110.922 226.469ZM120.394 220.357V226.35H119.555L119.495 225.439C119.096 226.126 118.381 226.469 117.35 226.469C116.703 226.469 116.172 226.29 115.756 225.93C115.349 225.571 115.145 225.019 115.145 224.276V220.357H116.104V224.025C116.104 224.608 116.223 225.023 116.463 225.271C116.703 225.511 117.054 225.631 117.518 225.631C118.069 225.631 118.525 225.463 118.884 225.127C119.252 224.792 119.435 224.288 119.435 223.617V220.357H120.394ZM123.536 224.744C123.536 225.047 123.58 225.259 123.668 225.379C123.764 225.491 123.935 225.547 124.183 225.547C124.351 225.547 124.495 225.535 124.614 225.511C124.742 225.487 124.89 225.443 125.058 225.379L124.902 226.302C124.638 226.414 124.343 226.469 124.015 226.469C123.528 226.469 123.164 226.338 122.925 226.074C122.693 225.81 122.577 225.407 122.577 224.864V217.601H123.536V224.744ZM129.721 225.93C129.322 226.29 128.807 226.469 128.175 226.469C127.688 226.469 127.289 226.338 126.977 226.074C126.673 225.81 126.518 225.407 126.51 224.864V221.184H125.311V220.357H126.51V218.919L127.468 218.655V220.357H129.686V221.184H127.468V224.696C127.468 224.983 127.548 225.203 127.708 225.355C127.876 225.499 128.096 225.571 128.367 225.571C128.751 225.571 129.09 225.423 129.386 225.127L129.721 225.93ZM133.112 226.469C132.537 226.469 132.018 226.358 131.554 226.134C131.091 225.902 130.752 225.563 130.536 225.115L131.315 224.576C131.451 224.927 131.686 225.191 132.022 225.367C132.357 225.543 132.753 225.631 133.208 225.631C133.68 225.631 134.039 225.547 134.287 225.379C134.535 225.211 134.659 224.999 134.659 224.744C134.659 224.512 134.543 224.328 134.311 224.192C134.079 224.049 133.672 223.925 133.089 223.821C132.513 223.717 132.058 223.593 131.722 223.449C131.387 223.298 131.143 223.11 130.991 222.886C130.839 222.654 130.764 222.371 130.764 222.035C130.764 221.708 130.859 221.408 131.051 221.136C131.243 220.865 131.519 220.649 131.878 220.489C132.238 220.321 132.653 220.237 133.124 220.237C133.764 220.237 134.275 220.357 134.659 220.597C135.05 220.829 135.33 221.188 135.497 221.676L134.682 222.155C134.555 221.771 134.359 221.496 134.095 221.328C133.84 221.16 133.516 221.076 133.124 221.076C132.733 221.076 132.401 221.164 132.13 221.34C131.858 221.516 131.722 221.72 131.722 221.951C131.722 222.215 131.838 222.419 132.07 222.562C132.31 222.706 132.733 222.83 133.34 222.934C134.171 223.07 134.758 223.274 135.102 223.545C135.446 223.817 135.617 224.2 135.617 224.696C135.617 225.039 135.513 225.347 135.306 225.619C135.106 225.882 134.814 226.09 134.431 226.242C134.055 226.394 133.616 226.469 133.112 226.469ZM96.8822 234.44C98.1286 234.44 99.1034 234.783 99.8065 235.47C100.51 236.158 100.861 237.132 100.861 238.395C100.861 239.657 100.51 240.632 99.8065 241.319C99.1034 242.006 98.1286 242.35 96.8822 242.35H94.3295V234.44H96.8822ZM96.9781 241.451C97.881 241.451 98.5841 241.183 99.0874 240.648C99.5988 240.104 99.8544 239.353 99.8544 238.395C99.8544 237.436 99.5988 236.689 99.0874 236.154C98.5841 235.61 97.881 235.339 96.9781 235.339H95.2883V241.451H96.9781ZM105.557 236.237C105.845 236.237 106.064 236.277 106.216 236.357L106.024 237.292C105.833 237.188 105.581 237.136 105.269 237.136C105.014 237.136 104.762 237.212 104.514 237.364C104.275 237.508 104.075 237.732 103.915 238.035C103.763 238.331 103.687 238.69 103.687 239.114V242.35H102.729V236.357H103.508L103.639 237.34C103.975 236.605 104.614 236.237 105.557 236.237ZM108.1 235.207C107.884 235.207 107.709 235.143 107.573 235.015C107.445 234.879 107.381 234.703 107.381 234.488C107.381 234.272 107.445 234.1 107.573 233.972C107.709 233.837 107.884 233.769 108.1 233.769C108.316 233.769 108.488 233.837 108.615 233.972C108.751 234.1 108.819 234.272 108.819 234.488C108.819 234.703 108.751 234.879 108.615 235.015C108.488 235.143 108.316 235.207 108.1 235.207ZM108.58 242.35H107.621V236.357H108.58V242.35ZM115.778 236.357L113.285 242.35H112.326L109.833 236.357H110.924L112.818 241.379L114.771 236.357H115.778ZM122.172 239.042C122.172 239.266 122.156 239.489 122.124 239.713H117.606C117.662 240.32 117.862 240.792 118.205 241.127C118.557 241.463 119.008 241.631 119.559 241.631C119.999 241.631 120.362 241.555 120.65 241.403C120.946 241.251 121.145 241.031 121.249 240.744L122.052 241.163C121.812 241.587 121.493 241.91 121.093 242.134C120.694 242.358 120.183 242.469 119.559 242.469C118.657 242.469 117.945 242.194 117.426 241.643C116.915 241.091 116.659 240.328 116.659 239.353C116.659 238.379 116.903 237.616 117.39 237.064C117.885 236.513 118.585 236.237 119.487 236.237C120.047 236.237 120.53 236.361 120.938 236.609C121.345 236.857 121.653 237.192 121.86 237.616C122.068 238.039 122.172 238.515 122.172 239.042ZM119.487 237.076C118.96 237.076 118.533 237.232 118.205 237.544C117.885 237.855 117.69 238.295 117.618 238.862H121.249C121.185 238.303 121.002 237.867 120.698 237.556C120.394 237.236 119.991 237.076 119.487 237.076ZM126.907 236.237C127.586 236.237 128.145 236.433 128.584 236.825C129.024 237.216 129.244 237.779 129.244 238.515V242.35H128.285V238.85C128.285 238.227 128.149 237.775 127.877 237.496C127.614 237.216 127.258 237.076 126.811 237.076C126.491 237.076 126.192 237.148 125.912 237.292C125.632 237.428 125.401 237.656 125.217 237.975C125.041 238.287 124.953 238.682 124.953 239.162V242.35H123.994V236.357H124.833L124.893 237.292C125.093 236.933 125.369 236.669 125.72 236.501C126.072 236.325 126.467 236.237 126.907 236.237Z" fill="#131316" fill-opacity="0.8"/>
<path d="M329.851 218.44C330.65 218.44 331.293 218.659 331.78 219.099C332.268 219.53 332.511 220.114 332.511 220.849C332.511 221.584 332.268 222.171 331.78 222.61C331.293 223.042 330.65 223.258 329.851 223.258H328.017V226.35H327.058V218.44H329.851ZM329.707 222.359C330.322 222.359 330.774 222.235 331.061 221.987C331.357 221.732 331.505 221.352 331.505 220.849C331.505 220.345 331.357 219.97 331.061 219.722C330.774 219.466 330.322 219.339 329.707 219.339H328.017V222.359H329.707ZM339.229 223.042C339.229 223.266 339.213 223.489 339.182 223.713H334.663C334.719 224.32 334.919 224.792 335.263 225.127C335.614 225.463 336.066 225.631 336.617 225.631C337.056 225.631 337.42 225.555 337.707 225.403C338.003 225.251 338.203 225.031 338.307 224.744L339.11 225.163C338.87 225.587 338.55 225.91 338.151 226.134C337.751 226.358 337.24 226.469 336.617 226.469C335.714 226.469 335.003 226.194 334.484 225.643C333.972 225.091 333.717 224.328 333.717 223.353C333.717 222.379 333.96 221.616 334.448 221.064C334.943 220.513 335.642 220.237 336.545 220.237C337.104 220.237 337.588 220.361 337.995 220.609C338.403 220.857 338.71 221.192 338.918 221.616C339.126 222.039 339.229 222.515 339.229 223.042ZM336.545 221.076C336.018 221.076 335.59 221.232 335.263 221.544C334.943 221.855 334.747 222.295 334.675 222.862H338.307C338.243 222.303 338.059 221.867 337.755 221.556C337.452 221.236 337.048 221.076 336.545 221.076ZM343.581 220.237C344.483 220.237 345.19 220.513 345.702 221.064C346.221 221.616 346.481 222.379 346.481 223.353C346.481 224.328 346.221 225.091 345.702 225.643C345.19 226.194 344.483 226.469 343.581 226.469C342.678 226.469 341.967 226.194 341.447 225.643C340.936 225.091 340.68 224.328 340.68 223.353C340.68 222.379 340.936 221.616 341.447 221.064C341.967 220.513 342.678 220.237 343.581 220.237ZM343.581 221.064C342.973 221.064 342.498 221.268 342.154 221.676C341.811 222.083 341.639 222.642 341.639 223.353C341.639 224.065 341.811 224.624 342.154 225.031C342.498 225.439 342.973 225.643 343.581 225.643C344.188 225.643 344.663 225.439 345.007 225.031C345.35 224.624 345.522 224.065 345.522 223.353C345.522 222.642 345.35 222.083 345.007 221.676C344.663 221.268 344.188 221.064 343.581 221.064ZM351.291 220.237C352.13 220.237 352.794 220.517 353.281 221.076C353.776 221.628 354.024 222.387 354.024 223.353C354.024 224.32 353.776 225.083 353.281 225.643C352.794 226.194 352.13 226.469 351.291 226.469C350.852 226.469 350.457 226.374 350.105 226.182C349.761 225.99 349.494 225.734 349.302 225.415V228.866H348.343V220.357H349.182L349.242 221.4C349.418 221.048 349.686 220.769 350.045 220.561C350.413 220.345 350.828 220.237 351.291 220.237ZM351.184 225.631C351.767 225.631 352.226 225.427 352.562 225.019C352.897 224.604 353.065 224.049 353.065 223.353C353.065 222.658 352.897 222.107 352.562 221.7C352.226 221.284 351.767 221.076 351.184 221.076C350.608 221.076 350.149 221.276 349.805 221.676C349.47 222.075 349.302 222.61 349.302 223.282V223.425C349.302 224.096 349.47 224.632 349.805 225.031C350.149 225.431 350.608 225.631 351.184 225.631ZM356.803 224.744C356.803 225.047 356.847 225.259 356.935 225.379C357.031 225.491 357.202 225.547 357.45 225.547C357.618 225.547 357.762 225.535 357.882 225.511C358.009 225.487 358.157 225.443 358.325 225.379L358.169 226.302C357.906 226.414 357.61 226.469 357.282 226.469C356.795 226.469 356.431 226.338 356.192 226.074C355.96 225.81 355.844 225.407 355.844 224.864V217.601H356.803V224.744ZM364.697 223.042C364.697 223.266 364.681 223.489 364.649 223.713H360.131C360.187 224.32 360.386 224.792 360.73 225.127C361.081 225.463 361.533 225.631 362.084 225.631C362.524 225.631 362.887 225.555 363.175 225.403C363.47 225.251 363.67 225.031 363.774 224.744L364.577 225.163C364.337 225.587 364.018 225.91 363.618 226.134C363.219 226.358 362.707 226.469 362.084 226.469C361.181 226.469 360.47 226.194 359.951 225.643C359.44 225.091 359.184 224.328 359.184 223.353C359.184 222.379 359.428 221.616 359.915 221.064C360.41 220.513 361.109 220.237 362.012 220.237C362.572 220.237 363.055 220.361 363.462 220.609C363.87 220.857 364.178 221.192 364.385 221.616C364.593 222.039 364.697 222.515 364.697 223.042ZM362.012 221.076C361.485 221.076 361.058 221.232 360.73 221.544C360.41 221.855 360.215 222.295 360.143 222.862H363.774C363.71 222.303 363.526 221.867 363.223 221.556C362.919 221.236 362.516 221.076 362.012 221.076ZM331.987 234.44C333.233 234.44 334.208 234.783 334.911 235.47C335.614 236.158 335.966 237.132 335.966 238.395C335.966 239.657 335.614 240.632 334.911 241.319C334.208 242.006 333.233 242.35 331.987 242.35H329.434V234.44H331.987ZM332.083 241.451C332.986 241.451 333.689 241.183 334.192 240.648C334.703 240.104 334.959 239.353 334.959 238.395C334.959 237.436 334.703 236.689 334.192 236.154C333.689 235.61 332.986 235.339 332.083 235.339H330.393V241.451H332.083ZM340.662 236.237C340.949 236.237 341.169 236.277 341.321 236.357L341.129 237.292C340.937 237.188 340.686 237.136 340.374 237.136C340.118 237.136 339.867 237.212 339.619 237.364C339.379 237.508 339.18 237.732 339.02 238.035C338.868 238.331 338.792 238.69 338.792 239.114V242.35H337.833V236.357H338.612L338.744 237.34C339.08 236.605 339.719 236.237 340.662 236.237ZM343.205 235.207C342.989 235.207 342.813 235.143 342.677 235.015C342.55 234.879 342.486 234.703 342.486 234.488C342.486 234.272 342.55 234.1 342.677 233.972C342.813 233.837 342.989 233.769 343.205 233.769C343.421 233.769 343.592 233.837 343.72 233.972C343.856 234.1 343.924 234.272 343.924 234.488C343.924 234.703 343.856 234.879 343.72 235.015C343.592 235.143 343.421 235.207 343.205 235.207ZM343.684 242.35H342.725V236.357H343.684V242.35ZM350.882 236.357L348.39 242.35H347.431L344.938 236.357H346.029L347.922 241.379L349.876 236.357H350.882ZM357.277 239.042C357.277 239.266 357.261 239.489 357.229 239.713H352.711C352.766 240.32 352.966 240.792 353.31 241.127C353.661 241.463 354.113 241.631 354.664 241.631C355.103 241.631 355.467 241.555 355.755 241.403C356.05 241.251 356.25 241.031 356.354 240.744L357.157 241.163C356.917 241.587 356.598 241.91 356.198 242.134C355.799 242.358 355.287 242.469 354.664 242.469C353.761 242.469 353.05 242.194 352.531 241.643C352.019 241.091 351.764 240.328 351.764 239.353C351.764 238.379 352.007 237.616 352.495 237.064C352.99 236.513 353.689 236.237 354.592 236.237C355.151 236.237 355.635 236.361 356.042 236.609C356.45 236.857 356.757 237.192 356.965 237.616C357.173 238.039 357.277 238.515 357.277 239.042ZM354.592 237.076C354.065 237.076 353.637 237.232 353.31 237.544C352.99 237.855 352.794 238.295 352.723 238.862H356.354C356.29 238.303 356.106 237.867 355.803 237.556C355.499 237.236 355.095 237.076 354.592 237.076ZM362.011 236.237C362.69 236.237 363.25 236.433 363.689 236.825C364.129 237.216 364.348 237.779 364.348 238.515V242.35H363.39V238.85C363.39 238.227 363.254 237.775 362.982 237.496C362.718 237.216 362.363 237.076 361.915 237.076C361.596 237.076 361.296 237.148 361.017 237.292C360.737 237.428 360.505 237.656 360.321 237.975C360.146 238.287 360.058 238.682 360.058 239.162V242.35H359.099V236.357H359.938L359.998 237.292C360.198 236.933 360.473 236.669 360.825 236.501C361.176 236.325 361.572 236.237 362.011 236.237Z" fill="#131316" fill-opacity="0.8"/>
<path d="M198.782 97.1233H201.598C202.509 97.1233 203.184 97.3151 203.624 97.6986C204.071 98.0741 204.295 98.6094 204.295 99.3045C204.295 99.72 204.175 100.088 203.935 100.407C203.704 100.727 203.38 100.926 202.965 101.006V101.018C203.428 101.106 203.8 101.318 204.079 101.654C204.359 101.989 204.499 102.377 204.499 102.816C204.499 103.495 204.243 104.034 203.732 104.434C203.22 104.833 202.505 105.033 201.586 105.033H198.782V97.1233ZM201.61 100.599C202.178 100.599 202.597 100.495 202.869 100.287C203.148 100.072 203.288 99.744 203.288 99.3045C203.288 98.4496 202.729 98.0222 201.61 98.0222H199.741V100.599H201.61ZM201.814 104.134C202.373 104.134 202.793 104.022 203.073 103.799C203.352 103.567 203.492 103.239 203.492 102.816C203.492 102.393 203.352 102.069 203.073 101.845C202.793 101.614 202.373 101.498 201.814 101.498H199.741V104.134H201.814ZM206.911 97.8903C206.696 97.8903 206.52 97.8264 206.384 97.6986C206.256 97.5628 206.192 97.387 206.192 97.1713C206.192 96.9555 206.256 96.7838 206.384 96.6559C206.52 96.5201 206.696 96.4522 206.911 96.4522C207.127 96.4522 207.299 96.5201 207.427 96.6559C207.563 96.7838 207.631 96.9555 207.631 97.1713C207.631 97.387 207.563 97.5628 207.427 97.6986C207.299 97.8264 207.127 97.8903 206.911 97.8903ZM207.391 105.033H206.432V99.0409H207.391V105.033ZM212.959 104.266C213.526 104.266 213.97 104.394 214.289 104.65C214.609 104.905 214.769 105.253 214.769 105.692C214.769 106.076 214.637 106.411 214.373 106.699C214.11 106.995 213.75 107.218 213.295 107.37C212.847 107.53 212.352 107.61 211.809 107.61C210.898 107.61 210.211 107.462 209.747 107.166C209.284 106.879 209.052 106.499 209.052 106.028C209.052 105.756 209.144 105.517 209.328 105.309C209.52 105.101 209.779 104.953 210.107 104.865C209.859 104.746 209.659 104.594 209.508 104.41C209.364 104.226 209.292 104.011 209.292 103.763C209.292 103.467 209.372 103.224 209.532 103.032C209.691 102.832 209.911 102.684 210.191 102.588C209.903 102.413 209.683 102.185 209.532 101.905C209.388 101.618 209.316 101.298 209.316 100.946C209.316 100.555 209.42 100.207 209.627 99.9038C209.835 99.5922 210.127 99.3525 210.502 99.1847C210.878 99.0089 211.301 98.921 211.773 98.921C212.22 98.921 212.628 99.0009 212.995 99.1607C213.219 98.3458 213.782 97.9383 214.685 97.9383L214.901 98.7772C214.118 98.7772 213.642 98.9969 213.475 99.4364C213.714 99.6201 213.898 99.8399 214.026 100.096C214.162 100.351 214.23 100.635 214.23 100.946C214.23 101.338 214.126 101.689 213.918 102.001C213.71 102.305 213.419 102.544 213.043 102.72C212.668 102.888 212.244 102.972 211.773 102.972C211.421 102.972 211.114 102.936 210.85 102.864C210.61 102.92 210.438 103.008 210.335 103.128C210.231 103.247 210.179 103.411 210.179 103.619C210.179 103.827 210.251 103.987 210.394 104.098C210.538 104.21 210.73 104.266 210.97 104.266H212.959ZM211.773 99.7C211.357 99.7 211.01 99.8159 210.73 100.048C210.45 100.279 210.311 100.579 210.311 100.946C210.311 101.314 210.45 101.614 210.73 101.845C211.01 102.077 211.357 102.193 211.773 102.193C212.188 102.193 212.536 102.077 212.815 101.845C213.095 101.614 213.235 101.314 213.235 100.946C213.235 100.579 213.095 100.279 212.815 100.048C212.536 99.8159 212.188 99.7 211.773 99.7ZM211.917 106.807C212.524 106.807 213.003 106.707 213.355 106.507C213.706 106.316 213.882 106.08 213.882 105.8C213.882 105.569 213.79 105.393 213.606 105.273C213.431 105.153 213.127 105.093 212.696 105.093H211.09C210.722 105.093 210.438 105.157 210.239 105.285C210.039 105.421 209.939 105.604 209.939 105.836C209.939 106.14 210.107 106.375 210.442 106.543C210.778 106.719 211.269 106.807 211.917 106.807ZM223.25 97.1233C224.049 97.1233 224.692 97.343 225.179 97.7825C225.667 98.2139 225.91 98.7972 225.91 99.5322C225.91 100.267 225.667 100.855 225.179 101.294C224.692 101.725 224.049 101.941 223.25 101.941H221.416V105.033H220.457V97.1233H223.25ZM223.106 101.042C223.721 101.042 224.173 100.918 224.46 100.671C224.756 100.415 224.904 100.036 224.904 99.5322C224.904 99.0289 224.756 98.6534 224.46 98.4057C224.173 98.15 223.721 98.0222 223.106 98.0222H221.416V101.042H223.106ZM228.072 97.8903C227.856 97.8903 227.68 97.8264 227.545 97.6986C227.417 97.5628 227.353 97.387 227.353 97.1713C227.353 96.9555 227.417 96.7838 227.545 96.6559C227.68 96.5201 227.856 96.4522 228.072 96.4522C228.288 96.4522 228.459 96.5201 228.587 96.6559C228.723 96.7838 228.791 96.9555 228.791 97.1713C228.791 97.387 228.723 97.5628 228.587 97.6986C228.459 97.8264 228.288 97.8903 228.072 97.8903ZM228.551 105.033H227.592V99.0409H228.551V105.033ZM233.305 98.921C233.904 98.921 234.407 99.0608 234.815 99.3405C235.23 99.6121 235.554 100.004 235.785 100.515L234.875 100.946C234.619 100.155 234.088 99.76 233.281 99.76C232.681 99.76 232.21 99.9637 231.866 100.371C231.531 100.771 231.363 101.326 231.363 102.037C231.363 102.748 231.531 103.307 231.866 103.715C232.21 104.114 232.681 104.314 233.281 104.314C233.744 104.314 234.116 104.21 234.395 104.003C234.683 103.787 234.871 103.479 234.959 103.08L235.845 103.391C235.638 103.951 235.318 104.386 234.887 104.698C234.455 105.001 233.928 105.153 233.305 105.153C232.402 105.153 231.691 104.877 231.171 104.326C230.66 103.775 230.404 103.012 230.404 102.037C230.404 101.062 230.66 100.299 231.171 99.748C231.691 99.1967 232.402 98.921 233.305 98.921ZM241.208 104.614C240.808 104.973 240.293 105.153 239.662 105.153C239.175 105.153 238.775 105.021 238.463 104.758C238.16 104.494 238.004 104.09 237.996 103.547V99.8678H236.798V99.0409H237.996V97.6027L238.955 97.3391V99.0409H241.172V99.8678H238.955V103.379C238.955 103.667 239.035 103.887 239.195 104.038C239.362 104.182 239.582 104.254 239.854 104.254C240.237 104.254 240.577 104.106 240.872 103.811L241.208 104.614ZM247.751 99.0409V105.033H246.912L246.852 104.122C246.453 104.809 245.738 105.153 244.707 105.153C244.06 105.153 243.528 104.973 243.113 104.614C242.705 104.254 242.502 103.703 242.502 102.96V99.0409H243.46V102.708C243.46 103.291 243.58 103.707 243.82 103.955C244.06 104.194 244.411 104.314 244.875 104.314C245.426 104.314 245.881 104.146 246.241 103.811C246.608 103.475 246.792 102.972 246.792 102.301V99.0409H247.751ZM252.81 98.921C253.098 98.921 253.317 98.961 253.469 99.0409L253.278 99.9757C253.086 99.8718 252.834 99.8199 252.523 99.8199C252.267 99.8199 252.015 99.8958 251.767 100.048C251.528 100.191 251.328 100.415 251.168 100.719C251.016 101.014 250.941 101.374 250.941 101.797V105.033H249.982V99.0409H250.761L250.893 100.024C251.228 99.2886 251.867 98.921 252.81 98.921ZM259.828 101.725C259.828 101.949 259.812 102.173 259.78 102.397H255.262C255.318 103.004 255.518 103.475 255.861 103.811C256.213 104.146 256.664 104.314 257.215 104.314C257.655 104.314 258.018 104.238 258.306 104.086C258.602 103.935 258.801 103.715 258.905 103.427L259.708 103.847C259.469 104.27 259.149 104.594 258.749 104.817C258.35 105.041 257.839 105.153 257.215 105.153C256.313 105.153 255.601 104.877 255.082 104.326C254.571 103.775 254.315 103.012 254.315 102.037C254.315 101.062 254.559 100.299 255.046 99.748C255.542 99.1967 256.241 98.921 257.144 98.921C257.703 98.921 258.186 99.0449 258.594 99.2926C259.001 99.5402 259.309 99.8758 259.516 100.299C259.724 100.723 259.828 101.198 259.828 101.725ZM257.144 99.76C256.616 99.76 256.189 99.9158 255.861 100.227C255.542 100.539 255.346 100.978 255.274 101.546H258.905C258.841 100.986 258.658 100.551 258.354 100.239C258.05 99.9197 257.647 99.76 257.144 99.76ZM208.085 113.003C208.828 113.003 209.475 113.171 210.027 113.507C210.578 113.834 211.001 114.306 211.297 114.921C211.601 115.528 211.752 116.247 211.752 117.078C211.752 117.909 211.601 118.632 211.297 119.247C211.001 119.855 210.578 120.326 210.027 120.662C209.475 120.989 208.828 121.153 208.085 121.153C207.342 121.153 206.695 120.989 206.144 120.662C205.592 120.326 205.165 119.855 204.861 119.247C204.566 118.632 204.418 117.909 204.418 117.078C204.418 116.247 204.566 115.528 204.861 114.921C205.165 114.306 205.592 113.834 206.144 113.507C206.695 113.171 207.342 113.003 208.085 113.003ZM208.085 113.902C207.262 113.902 206.611 114.186 206.132 114.753C205.66 115.313 205.425 116.088 205.425 117.078C205.425 118.069 205.66 118.848 206.132 119.415C206.611 119.975 207.262 120.254 208.085 120.254C208.908 120.254 209.555 119.975 210.027 119.415C210.506 118.848 210.746 118.069 210.746 117.078C210.746 116.088 210.506 115.313 210.027 114.753C209.555 114.186 208.908 113.902 208.085 113.902ZM216.452 114.921C216.74 114.921 216.96 114.961 217.112 115.041L216.92 115.976C216.728 115.872 216.476 115.82 216.165 115.82C215.909 115.82 215.657 115.896 215.41 116.048C215.17 116.191 214.97 116.415 214.81 116.719C214.659 117.014 214.583 117.374 214.583 117.797V121.033H213.624V115.041H214.403L214.535 116.024C214.87 115.289 215.51 114.921 216.452 114.921ZM218.996 113.89C218.78 113.89 218.604 113.826 218.468 113.699C218.34 113.563 218.276 113.387 218.276 113.171C218.276 112.956 218.34 112.784 218.468 112.656C218.604 112.52 218.78 112.452 218.996 112.452C219.211 112.452 219.383 112.52 219.511 112.656C219.647 112.784 219.715 112.956 219.715 113.171C219.715 113.387 219.647 113.563 219.511 113.699C219.383 113.826 219.211 113.89 218.996 113.89ZM219.475 121.033H218.516V115.041H219.475V121.033ZM226.841 117.725C226.841 117.949 226.825 118.173 226.793 118.397H222.275C222.331 119.004 222.531 119.475 222.874 119.811C223.226 120.146 223.677 120.314 224.228 120.314C224.668 120.314 225.031 120.238 225.319 120.086C225.615 119.935 225.814 119.715 225.918 119.427L226.721 119.847C226.481 120.27 226.162 120.594 225.762 120.817C225.363 121.041 224.852 121.153 224.228 121.153C223.326 121.153 222.614 120.877 222.095 120.326C221.584 119.775 221.328 119.012 221.328 118.037C221.328 117.062 221.572 116.299 222.059 115.748C222.555 115.197 223.254 114.921 224.156 114.921C224.716 114.921 225.199 115.045 225.607 115.293C226.014 115.54 226.322 115.876 226.529 116.299C226.737 116.723 226.841 117.198 226.841 117.725ZM224.156 115.76C223.629 115.76 223.202 115.916 222.874 116.227C222.555 116.539 222.359 116.978 222.287 117.546H225.918C225.854 116.986 225.671 116.551 225.367 116.239C225.063 115.92 224.66 115.76 224.156 115.76ZM231.576 114.921C232.255 114.921 232.814 115.117 233.253 115.508C233.693 115.9 233.913 116.463 233.913 117.198V121.033H232.954V117.534C232.954 116.91 232.818 116.459 232.546 116.179C232.283 115.9 231.927 115.76 231.48 115.76C231.16 115.76 230.861 115.832 230.581 115.976C230.301 116.112 230.07 116.339 229.886 116.659C229.71 116.97 229.622 117.366 229.622 117.845V121.033H228.663V115.041H229.502L229.562 115.976C229.762 115.616 230.038 115.352 230.389 115.185C230.741 115.009 231.136 114.921 231.576 114.921ZM239.669 120.614C239.269 120.973 238.754 121.153 238.123 121.153C237.636 121.153 237.236 121.021 236.924 120.758C236.621 120.494 236.465 120.09 236.457 119.547V115.868H235.259V115.041H236.457V113.603L237.416 113.339V115.041H239.633V115.868H237.416V119.379C237.416 119.667 237.496 119.887 237.655 120.038C237.823 120.182 238.043 120.254 238.315 120.254C238.698 120.254 239.038 120.106 239.333 119.811L239.669 120.614ZM246.164 117.725C246.164 117.949 246.148 118.173 246.116 118.397H241.598C241.654 119.004 241.853 119.475 242.197 119.811C242.549 120.146 243 120.314 243.551 120.314C243.991 120.314 244.354 120.238 244.642 120.086C244.938 119.935 245.137 119.715 245.241 119.427L246.044 119.847C245.804 120.27 245.485 120.594 245.085 120.817C244.686 121.041 244.174 121.153 243.551 121.153C242.648 121.153 241.937 120.877 241.418 120.326C240.907 119.775 240.651 119.012 240.651 118.037C240.651 117.062 240.895 116.299 241.382 115.748C241.877 115.197 242.577 114.921 243.479 114.921C244.039 114.921 244.522 115.045 244.93 115.293C245.337 115.54 245.645 115.876 245.852 116.299C246.06 116.723 246.164 117.198 246.164 117.725ZM243.479 115.76C242.952 115.76 242.525 115.916 242.197 116.227C241.877 116.539 241.682 116.978 241.61 117.546H245.241C245.177 116.986 244.993 116.551 244.69 116.239C244.386 115.92 243.983 115.76 243.479 115.76ZM253.307 112.284V121.033H252.469L252.409 119.991C252.233 120.342 251.961 120.626 251.594 120.841C251.234 121.049 250.823 121.153 250.359 121.153C249.52 121.153 248.853 120.877 248.358 120.326C247.87 119.767 247.627 119.004 247.627 118.037C247.627 117.07 247.87 116.311 248.358 115.76C248.853 115.201 249.52 114.921 250.359 114.921C250.799 114.921 251.19 115.017 251.534 115.209C251.885 115.4 252.157 115.656 252.349 115.976V112.284H253.307ZM250.467 120.314C251.042 120.314 251.498 120.114 251.833 119.715C252.177 119.315 252.349 118.78 252.349 118.109V117.965C252.349 117.294 252.177 116.759 251.833 116.359C251.498 115.96 251.042 115.76 250.467 115.76C249.884 115.76 249.424 115.968 249.089 116.383C248.753 116.791 248.585 117.342 248.585 118.037C248.585 118.732 248.753 119.287 249.089 119.703C249.424 120.11 249.884 120.314 250.467 120.314Z" fill="#131316" fill-opacity="0.8"/>
<path d="M213.987 337.491C215.233 337.491 216.208 337.834 216.911 338.521C217.614 339.208 217.965 340.183 217.965 341.445C217.965 342.708 217.614 343.683 216.911 344.37C216.208 345.057 215.233 345.4 213.987 345.4H211.434V337.491H213.987ZM214.082 344.502C214.985 344.502 215.688 344.234 216.192 343.699C216.703 343.155 216.959 342.404 216.959 341.445C216.959 340.487 216.703 339.74 216.192 339.204C215.688 338.661 214.985 338.389 214.082 338.389H212.393V344.502H214.082ZM225.033 342.093C225.033 342.316 225.017 342.54 224.985 342.764H220.467C220.523 343.371 220.722 343.842 221.066 344.178C221.417 344.514 221.869 344.681 222.42 344.681C222.86 344.681 223.223 344.605 223.511 344.454C223.806 344.302 224.006 344.082 224.11 343.794L224.913 344.214C224.673 344.637 224.354 344.961 223.954 345.185C223.555 345.408 223.043 345.52 222.42 345.52C221.517 345.52 220.806 345.245 220.287 344.693C219.776 344.142 219.52 343.379 219.52 342.404C219.52 341.429 219.764 340.666 220.251 340.115C220.746 339.564 221.445 339.288 222.348 339.288C222.908 339.288 223.391 339.412 223.798 339.66C224.206 339.907 224.513 340.243 224.721 340.666C224.929 341.09 225.033 341.565 225.033 342.093ZM222.348 340.127C221.821 340.127 221.393 340.283 221.066 340.595C220.746 340.906 220.551 341.346 220.479 341.913H224.11C224.046 341.354 223.862 340.918 223.559 340.607C223.255 340.287 222.852 340.127 222.348 340.127ZM230.347 344.981C229.947 345.34 229.432 345.52 228.801 345.52C228.313 345.52 227.914 345.388 227.602 345.125C227.299 344.861 227.143 344.458 227.135 343.914V340.235H225.937V339.408H227.135V337.97L228.094 337.706V339.408H230.311V340.235H228.094V343.747C228.094 344.034 228.174 344.254 228.333 344.406C228.501 344.549 228.721 344.621 228.993 344.621C229.376 344.621 229.716 344.474 230.011 344.178L230.347 344.981ZM236.614 344.705C236.774 344.705 236.934 344.685 237.094 344.645L237.034 345.4C236.81 345.48 236.57 345.52 236.315 345.52C236.003 345.52 235.755 345.452 235.572 345.316C235.396 345.181 235.284 344.953 235.236 344.633C235.052 344.913 234.781 345.133 234.421 345.293C234.069 345.444 233.698 345.52 233.306 345.52C232.715 345.52 232.228 345.384 231.844 345.113C231.461 344.833 231.269 344.434 231.269 343.914C231.269 343.459 231.469 343.067 231.868 342.74C232.268 342.404 232.847 342.173 233.606 342.045L235.2 341.781V341.445C235.2 341.046 235.076 340.726 234.828 340.487C234.581 340.247 234.237 340.127 233.798 340.127C233.398 340.127 233.051 340.223 232.755 340.415C232.467 340.607 232.244 340.89 232.084 341.266L231.377 340.75C231.537 340.303 231.832 339.947 232.264 339.684C232.703 339.42 233.215 339.288 233.798 339.288C234.509 339.288 235.08 339.46 235.512 339.804C235.943 340.147 236.159 340.654 236.159 341.326V344.274C236.159 344.418 236.195 344.526 236.267 344.597C236.339 344.669 236.454 344.705 236.614 344.705ZM233.354 344.681C233.858 344.681 234.289 344.561 234.649 344.322C235.016 344.082 235.2 343.77 235.2 343.387V342.56L233.858 342.812C233.322 342.908 232.923 343.047 232.659 343.231C232.396 343.407 232.264 343.635 232.264 343.914C232.264 344.162 232.36 344.354 232.551 344.49C232.743 344.617 233.011 344.681 233.354 344.681ZM238.968 338.258C238.752 338.258 238.577 338.194 238.441 338.066C238.313 337.93 238.249 337.754 238.249 337.538C238.249 337.323 238.313 337.151 238.441 337.023C238.577 336.887 238.752 336.819 238.968 336.819C239.184 336.819 239.356 336.887 239.483 337.023C239.619 337.151 239.687 337.323 239.687 337.538C239.687 337.754 239.619 337.93 239.483 338.066C239.356 338.194 239.184 338.258 238.968 338.258ZM239.447 345.4H238.489V339.408H239.447V345.4ZM242.583 343.794C242.583 344.098 242.627 344.31 242.715 344.43C242.811 344.541 242.982 344.597 243.23 344.597C243.398 344.597 243.542 344.585 243.662 344.561C243.789 344.537 243.937 344.494 244.105 344.43L243.949 345.352C243.686 345.464 243.39 345.52 243.062 345.52C242.575 345.52 242.211 345.388 241.972 345.125C241.74 344.861 241.624 344.458 241.624 343.914V336.652H242.583V343.794ZM208.085 353.371C208.828 353.371 209.475 353.538 210.027 353.874C210.578 354.202 211.001 354.673 211.297 355.288C211.601 355.895 211.752 356.615 211.752 357.445C211.752 358.276 211.601 358.999 211.297 359.615C211.001 360.222 210.578 360.693 210.027 361.029C209.475 361.356 208.828 361.52 208.085 361.52C207.342 361.52 206.695 361.356 206.144 361.029C205.592 360.693 205.165 360.222 204.861 359.615C204.566 358.999 204.418 358.276 204.418 357.445C204.418 356.615 204.566 355.895 204.861 355.288C205.165 354.673 205.592 354.202 206.144 353.874C206.695 353.538 207.342 353.371 208.085 353.371ZM208.085 354.27C207.262 354.27 206.611 354.553 206.132 355.12C205.66 355.68 205.425 356.455 205.425 357.445C205.425 358.436 205.66 359.215 206.132 359.782C206.611 360.342 207.262 360.621 208.085 360.621C208.908 360.621 209.555 360.342 210.027 359.782C210.506 359.215 210.746 358.436 210.746 357.445C210.746 356.455 210.506 355.68 210.027 355.12C209.555 354.553 208.908 354.27 208.085 354.27ZM216.452 355.288C216.74 355.288 216.96 355.328 217.112 355.408L216.92 356.343C216.728 356.239 216.476 356.187 216.165 356.187C215.909 356.187 215.657 356.263 215.41 356.415C215.17 356.559 214.97 356.782 214.81 357.086C214.659 357.382 214.583 357.741 214.583 358.165V361.4H213.624V355.408H214.403L214.535 356.391C214.87 355.656 215.51 355.288 216.452 355.288ZM218.996 354.258C218.78 354.258 218.604 354.194 218.468 354.066C218.34 353.93 218.276 353.754 218.276 353.538C218.276 353.323 218.34 353.151 218.468 353.023C218.604 352.887 218.78 352.819 218.996 352.819C219.211 352.819 219.383 352.887 219.511 353.023C219.647 353.151 219.715 353.323 219.715 353.538C219.715 353.754 219.647 353.93 219.511 354.066C219.383 354.194 219.211 354.258 218.996 354.258ZM219.475 361.4H218.516V355.408H219.475V361.4ZM226.841 358.093C226.841 358.316 226.825 358.54 226.793 358.764H222.275C222.331 359.371 222.531 359.842 222.874 360.178C223.226 360.514 223.677 360.681 224.228 360.681C224.668 360.681 225.031 360.605 225.319 360.454C225.615 360.302 225.814 360.082 225.918 359.794L226.721 360.214C226.481 360.637 226.162 360.961 225.762 361.185C225.363 361.408 224.852 361.52 224.228 361.52C223.326 361.52 222.614 361.245 222.095 360.693C221.584 360.142 221.328 359.379 221.328 358.404C221.328 357.429 221.572 356.666 222.059 356.115C222.555 355.564 223.254 355.288 224.156 355.288C224.716 355.288 225.199 355.412 225.607 355.66C226.014 355.907 226.322 356.243 226.529 356.666C226.737 357.09 226.841 357.565 226.841 358.093ZM224.156 356.127C223.629 356.127 223.202 356.283 222.874 356.595C222.555 356.906 222.359 357.346 222.287 357.913H225.918C225.854 357.354 225.671 356.918 225.367 356.607C225.063 356.287 224.66 356.127 224.156 356.127ZM231.576 355.288C232.255 355.288 232.814 355.484 233.253 355.875C233.693 356.267 233.913 356.83 233.913 357.565V361.4H232.954V357.901C232.954 357.278 232.818 356.826 232.546 356.547C232.283 356.267 231.927 356.127 231.48 356.127C231.16 356.127 230.861 356.199 230.581 356.343C230.301 356.479 230.07 356.706 229.886 357.026C229.71 357.338 229.622 357.733 229.622 358.212V361.4H228.663V355.408H229.502L229.562 356.343C229.762 355.983 230.038 355.72 230.389 355.552C230.741 355.376 231.136 355.288 231.576 355.288ZM239.669 360.981C239.269 361.34 238.754 361.52 238.123 361.52C237.636 361.52 237.236 361.388 236.924 361.125C236.621 360.861 236.465 360.458 236.457 359.914V356.235H235.259V355.408H236.457V353.97L237.416 353.706V355.408H239.633V356.235H237.416V359.747C237.416 360.034 237.496 360.254 237.655 360.406C237.823 360.549 238.043 360.621 238.315 360.621C238.698 360.621 239.038 360.474 239.333 360.178L239.669 360.981ZM246.164 358.093C246.164 358.316 246.148 358.54 246.116 358.764H241.598C241.654 359.371 241.853 359.842 242.197 360.178C242.549 360.514 243 360.681 243.551 360.681C243.991 360.681 244.354 360.605 244.642 360.454C244.938 360.302 245.137 360.082 245.241 359.794L246.044 360.214C245.804 360.637 245.485 360.961 245.085 361.185C244.686 361.408 244.174 361.52 243.551 361.52C242.648 361.52 241.937 361.245 241.418 360.693C240.907 360.142 240.651 359.379 240.651 358.404C240.651 357.429 240.895 356.666 241.382 356.115C241.877 355.564 242.577 355.288 243.479 355.288C244.039 355.288 244.522 355.412 244.93 355.66C245.337 355.907 245.645 356.243 245.852 356.666C246.06 357.09 246.164 357.565 246.164 358.093ZM243.479 356.127C242.952 356.127 242.525 356.283 242.197 356.595C241.877 356.906 241.682 357.346 241.61 357.913H245.241C245.177 357.354 244.993 356.918 244.69 356.607C244.386 356.287 243.983 356.127 243.479 356.127ZM253.307 352.652V361.4H252.469L252.409 360.358C252.233 360.709 251.961 360.993 251.594 361.209C251.234 361.416 250.823 361.52 250.359 361.52C249.52 361.52 248.853 361.245 248.358 360.693C247.87 360.134 247.627 359.371 247.627 358.404C247.627 357.437 247.87 356.678 248.358 356.127C248.853 355.568 249.52 355.288 250.359 355.288C250.799 355.288 251.19 355.384 251.534 355.576C251.885 355.768 252.157 356.023 252.349 356.343V352.652H253.307ZM250.467 360.681C251.042 360.681 251.498 360.482 251.833 360.082C252.177 359.683 252.349 359.147 252.349 358.476V358.332C252.349 357.661 252.177 357.126 251.833 356.726C251.498 356.327 251.042 356.127 250.467 356.127C249.884 356.127 249.424 356.335 249.089 356.75C248.753 357.158 248.585 357.709 248.585 358.404C248.585 359.099 248.753 359.655 249.089 360.07C249.424 360.478 249.884 360.681 250.467 360.681Z" fill="#131316" fill-opacity="0.8"/>
<path d="M63.6404 64.4906C64.6378 64.4906 65.4255 64.7469 66.0034 65.2596C66.5907 65.7723 66.8843 66.476 66.8843 67.3709C66.8843 68.2657 66.5907 68.9695 66.0034 69.4822C65.4255 69.9855 64.6378 70.2372 63.6404 70.2372H61.5851V73.7188H60.089V64.4906H63.6404ZM63.4028 68.9648C64.0553 68.9648 64.54 68.8343 64.8569 68.5733C65.1738 68.303 65.3323 67.9022 65.3323 67.3709C65.3323 66.2989 64.6891 65.7629 63.4028 65.7629H61.5851V68.9648H63.4028ZM72.6862 64.3507C73.5717 64.3507 74.3408 64.5418 74.9933 64.924C75.6551 65.3062 76.1631 65.8562 76.5173 66.5739C76.8715 67.2916 77.0486 68.1352 77.0486 69.1047C77.0486 70.0741 76.8715 70.9177 76.5173 71.6354C76.1631 72.3532 75.6551 72.9031 74.9933 73.2853C74.3408 73.6675 73.5717 73.8586 72.6862 73.8586C71.8007 73.8586 71.0317 73.6675 70.3792 73.2853C69.7267 72.9031 69.2233 72.3532 68.8691 71.6354C68.5149 70.9177 68.3378 70.0741 68.3378 69.1047C68.3378 68.1352 68.5149 67.2916 68.8691 66.5739C69.2233 65.8562 69.7267 65.3062 70.3792 64.924C71.0317 64.5418 71.8007 64.3507 72.6862 64.3507ZM72.6862 65.6511C71.8193 65.6511 71.1389 65.954 70.6448 66.5599C70.1508 67.1658 69.9038 68.0141 69.9038 69.1047C69.9038 70.1953 70.1508 71.0435 70.6448 71.6494C71.1389 72.2553 71.8193 72.5582 72.6862 72.5582C73.5624 72.5582 74.2475 72.2553 74.7416 71.6494C75.2356 71.0435 75.4826 70.1953 75.4826 69.1047C75.4826 68.0141 75.2356 67.1658 74.7416 66.5599C74.2475 65.954 73.5624 65.6511 72.6862 65.6511ZM82.6464 73.7188H80.8707L78.1581 64.4906H79.7801L81.7935 72.5303L83.8209 64.4906H85.3589L87.4003 72.5443L89.4277 64.4906H90.9657L88.2672 73.7188H86.5054L85.0373 68.1818L84.5759 66.0566H84.5619L84.1005 68.1818L82.6464 73.7188ZM99.6022 72.4324V73.7188H92.723V64.4906H99.4064V65.7769H94.2191V68.4335H98.2739V69.6919H94.2191V72.4324H99.6022ZM105.08 70.0275H103.094V73.7188H101.612V64.4906H105.373C106.371 64.4906 107.158 64.7376 107.736 65.2316C108.314 65.7163 108.603 66.3921 108.603 67.259C108.603 67.9208 108.431 68.4755 108.086 68.9229C107.75 69.361 107.27 69.6733 106.646 69.8597L109.148 73.7188H107.429L105.08 70.0275ZM103.094 68.7831H105.247C105.853 68.7831 106.305 68.6619 106.604 68.4195C106.902 68.1679 107.051 67.7857 107.051 67.273C107.051 66.7603 106.902 66.3828 106.604 66.1405C106.305 65.8888 105.853 65.7629 105.247 65.7629H103.094V68.7831ZM112.502 65.7769V68.4475H116.557V69.7478H112.502V73.7188H111.006V64.4906H117.676V65.7769H112.502ZM126.978 70.1813C126.978 71.3931 126.657 72.3112 126.014 72.9358C125.37 73.551 124.434 73.8586 123.203 73.8586C121.973 73.8586 121.036 73.551 120.393 72.9358C119.75 72.3112 119.428 71.3931 119.428 70.1813V64.4906H120.938V69.9995C120.938 70.8757 121.12 71.5236 121.483 71.943C121.856 72.3532 122.43 72.5582 123.203 72.5582C123.977 72.5582 124.545 72.3532 124.909 71.943C125.282 71.5236 125.468 70.8757 125.468 69.9995V64.4906H126.978V70.1813ZM136.175 72.4324V73.7188H129.59V64.4906H131.086V72.4324H136.175Z" fill="#131316"/>
<path d="M63.6404 387.051C64.6378 387.051 65.4255 387.307 66.0034 387.82C66.5907 388.333 66.8843 389.037 66.8843 389.931C66.8843 390.826 66.5907 391.53 66.0034 392.043C65.4255 392.546 64.6378 392.798 63.6404 392.798H61.5851V396.279H60.089V387.051H63.6404ZM63.4028 391.525C64.0553 391.525 64.54 391.395 64.8569 391.134C65.1738 390.864 65.3323 390.463 65.3323 389.931C65.3323 388.859 64.6891 388.323 63.4028 388.323H61.5851V391.525H63.4028ZM72.3227 392.588H70.3372V396.279H68.8551V387.051H72.6163C73.6137 387.051 74.4013 387.298 74.9793 387.792C75.5572 388.277 75.8462 388.953 75.8462 389.82C75.8462 390.481 75.6737 391.036 75.3288 391.483C74.9933 391.922 74.5132 392.234 73.8887 392.42L76.3915 396.279H74.6717L72.3227 392.588ZM70.3372 391.344H72.4905C73.0964 391.344 73.5484 391.222 73.8467 390.98C74.145 390.728 74.2942 390.346 74.2942 389.834C74.2942 389.321 74.145 388.943 73.8467 388.701C73.5484 388.449 73.0964 388.323 72.4905 388.323H70.3372V391.344ZM85.1285 394.993V396.279H78.2493V387.051H84.9328V388.337H79.7454V390.994H83.8002V392.252H79.7454V394.993H85.1285ZM94.6227 393.832C94.3431 394.662 93.863 395.301 93.1825 395.748C92.5114 396.195 91.7191 396.419 90.8056 396.419C89.9201 396.419 89.151 396.228 88.4985 395.846C87.846 395.464 87.3427 394.914 86.9885 394.196C86.6343 393.478 86.4572 392.635 86.4572 391.665C86.4572 390.696 86.6343 389.852 86.9885 389.134C87.3427 388.417 87.846 387.867 88.4985 387.485C89.151 387.102 89.9154 386.911 90.7916 386.911C91.7144 386.911 92.4881 387.102 93.1126 387.485C93.7465 387.867 94.2032 388.431 94.4829 389.176L93.0707 389.806C92.8843 389.256 92.6139 388.855 92.2597 388.603C91.9055 388.342 91.4441 388.212 90.8755 388.212C90.0086 388.212 89.3142 388.519 88.7922 389.134C88.2795 389.74 88.0232 390.584 88.0232 391.665C88.0232 392.756 88.2702 393.604 88.7642 394.21C89.2582 394.816 89.9434 395.119 90.8196 395.119C91.4161 395.119 91.9148 394.97 92.3157 394.671C92.7258 394.373 93.0194 393.935 93.1965 393.357L94.6227 393.832ZM98.0287 396.279H96.5326V387.051H98.0287V396.279ZM103.911 386.911C104.76 386.911 105.482 387.065 106.079 387.373C106.685 387.68 107.193 388.151 107.603 388.785L106.47 389.806C106.209 389.246 105.883 388.841 105.491 388.589C105.1 388.337 104.578 388.212 103.925 388.212C103.282 388.212 102.784 388.342 102.429 388.603C102.075 388.855 101.898 389.181 101.898 389.582C101.898 389.955 102.07 390.253 102.415 390.477C102.76 390.691 103.375 390.878 104.261 391.036C105.091 391.185 105.748 391.376 106.232 391.609C106.726 391.833 107.085 392.117 107.309 392.462C107.533 392.798 107.645 393.217 107.645 393.721C107.645 394.261 107.491 394.737 107.183 395.147C106.876 395.557 106.442 395.874 105.883 396.098C105.333 396.312 104.694 396.419 103.967 396.419C102.094 396.419 100.77 395.795 99.9964 394.546L101.045 393.497C101.343 394.056 101.726 394.466 102.192 394.727C102.667 394.988 103.254 395.119 103.953 395.119C104.615 395.119 105.133 395.007 105.505 394.783C105.888 394.55 106.079 394.224 106.079 393.804C106.079 393.469 105.906 393.199 105.561 392.994C105.226 392.788 104.634 392.607 103.786 392.448C102.937 392.29 102.262 392.094 101.758 391.861C101.255 391.628 100.887 391.339 100.654 390.994C100.43 390.649 100.318 390.23 100.318 389.736C100.318 389.214 100.462 388.738 100.751 388.31C101.04 387.881 101.455 387.54 101.996 387.289C102.546 387.037 103.184 386.911 103.911 386.911ZM116.616 394.993V396.279H109.736V387.051H116.42V388.337H111.232V390.994H115.287V392.252H111.232V394.993H116.616Z" fill="#131316"/>
<path d="M332.196 73.7188H330.448L327.022 64.4906H328.616L330.769 70.6287L331.329 72.4604L331.888 70.6427L334.041 64.4906H335.621L332.196 73.7188ZM344.181 72.4324V73.7188H337.302V64.4906H343.985V65.7769H338.798V68.4335H342.852V69.6919H338.798V72.4324H344.181ZM349.658 70.0275H347.673V73.7188H346.191V64.4906H349.952C350.949 64.4906 351.737 64.7376 352.315 65.2316C352.893 65.7163 353.182 66.3921 353.182 67.259C353.182 67.9208 353.009 68.4755 352.664 68.9229C352.329 69.361 351.849 69.6733 351.224 69.8597L353.727 73.7188H352.007L349.658 70.0275ZM347.673 68.7831H349.826C350.432 68.7831 350.884 68.6619 351.182 68.4195C351.48 68.1679 351.63 67.7857 351.63 67.273C351.63 66.7603 351.48 66.3828 351.182 66.1405C350.884 65.8888 350.432 65.7629 349.826 65.7629H347.673V68.7831ZM358.731 64.3507C359.579 64.3507 360.301 64.5045 360.898 64.8122C361.504 65.1198 362.012 65.5905 362.422 66.2243L361.29 67.245C361.029 66.6858 360.702 66.2803 360.311 66.0286C359.919 65.7769 359.397 65.6511 358.745 65.6511C358.102 65.6511 357.603 65.7816 357.249 66.0426C356.894 66.2943 356.717 66.6205 356.717 67.0213C356.717 67.3942 356.89 67.6925 357.235 67.9162C357.58 68.1306 358.195 68.317 359.08 68.4755C359.91 68.6246 360.567 68.8157 361.052 69.0487C361.546 69.2724 361.905 69.5567 362.128 69.9016C362.352 70.2372 362.464 70.6567 362.464 71.16C362.464 71.7007 362.31 72.1761 362.003 72.5862C361.695 72.9963 361.262 73.3133 360.702 73.537C360.152 73.7514 359.514 73.8586 358.787 73.8586C356.913 73.8586 355.589 73.234 354.816 71.985L355.864 70.9363C356.163 71.4956 356.545 71.9057 357.011 72.1667C357.486 72.4277 358.074 72.5582 358.773 72.5582C359.435 72.5582 359.952 72.4464 360.325 72.2227C360.707 71.9896 360.898 71.6634 360.898 71.2439C360.898 70.9083 360.726 70.638 360.381 70.433C360.045 70.2279 359.453 70.0461 358.605 69.8877C357.757 69.7292 357.081 69.5334 356.578 69.3004C356.074 69.0674 355.706 68.7784 355.473 68.4335C355.249 68.0886 355.137 67.6692 355.137 67.1751C355.137 66.6531 355.282 66.1777 355.571 65.749C355.86 65.3202 356.275 64.9799 356.815 64.7283C357.365 64.4766 358.004 64.3507 358.731 64.3507ZM369.675 71.2998H365.788L364.908 73.7188H363.37L366.851 64.4906H368.641L372.122 73.7188H370.542L369.675 71.2998ZM369.228 70.0834L368.165 67.1192L367.746 65.7909H367.704L367.313 67.0912L366.222 70.0834H369.228ZM379.368 65.7769H376.208V73.7188H374.712V65.7769H371.552V64.4906H379.368V65.7769ZM382.656 73.7188H381.159V64.4906H382.656V73.7188ZM391.978 72.4324V73.7188H385.392V64.4906H386.888V72.4324H391.978ZM400.642 72.4324V73.7188H393.762V64.4906H400.446V65.7769H395.259V68.4335H399.313V69.6919H395.259V72.4324H400.642Z" fill="#131316"/>
<path d="M346.341 393.86H342.454L341.573 396.279H340.035L343.516 387.051H345.306L348.787 396.279H347.207L346.341 393.86ZM345.893 392.644L344.831 389.68L344.411 388.351H344.369L343.978 389.652L342.887 392.644H345.893ZM359.862 396.279H358.492V390.938L358.589 388.393H358.575L355.765 396.279H354.521L351.71 388.393H351.696L351.808 390.938V396.279H350.424V387.051H352.647L354.507 392.392L355.15 394.587H355.178L355.835 392.392L357.681 387.051H359.862V396.279ZM364.1 396.279H362.604V387.051H364.1V396.279ZM372.052 393.86H368.165L367.284 396.279H365.746L369.227 387.051H371.017L374.499 396.279H372.919L372.052 393.86ZM371.604 392.644L370.542 389.68L370.122 388.351H370.08L369.689 389.652L368.598 392.644H371.604ZM376.135 387.051H379.77C380.852 387.051 381.653 387.27 382.175 387.708C382.707 388.146 382.972 388.771 382.972 389.582C382.972 390.085 382.828 390.523 382.539 390.896C382.25 391.269 381.844 391.502 381.322 391.595V391.609C381.9 391.702 382.357 391.945 382.693 392.336C383.038 392.728 383.21 393.189 383.21 393.721C383.21 394.522 382.916 395.151 382.329 395.608C381.742 396.056 380.908 396.279 379.826 396.279H376.135V387.051ZM379.659 391.022C380.833 391.022 381.42 390.57 381.42 389.666C381.42 388.762 380.833 388.31 379.659 388.31H377.603V391.022H379.659ZM379.896 395.035C380.474 395.035 380.912 394.918 381.211 394.685C381.509 394.443 381.658 394.098 381.658 393.651C381.658 393.203 381.509 392.863 381.211 392.63C380.912 392.388 380.474 392.266 379.896 392.266H377.603V395.035H379.896ZM391.978 394.993V396.279H385.393V387.051H386.889V394.993H391.978ZM400.642 394.993V396.279H393.763V387.051H400.446V388.337H395.259V390.994H399.314V392.252H395.259V394.993H400.642Z" fill="#131316"/>
<defs>
<linearGradient id="paint0_linear_807_8993" x1="229.222" y1="283.203" x2="229.222" y2="88.5078" gradientUnits="userSpaceOnUse">
<stop stop-color="#FF692E"/>
<stop offset="1" stop-color="#F9D423"/>
<stop offset="1" stop-color="#FFC700"/>
</linearGradient>
</defs>
</svg>
