<svg width="508" height="125" viewBox="0 0 508 125" fill="none" xmlns="http://www.w3.org/2000/svg">
<g clip-path="url(#clip0_570_8843)">
<path d="M456.015 73.8666V74.7499C449.836 75.9845 444.518 77.2286 440.06 78.4821C431.794 80.8027 423.881 82.995 416.321 85.059C408.817 87.1067 401.508 88.6493 394.395 89.6867C387.885 90.6349 381.754 90.9334 376.004 90.5822C357.08 89.4206 341.29 81.7023 328.633 67.4275C325.805 64.2343 323.129 60.7804 320.605 57.0658C320.385 56.7389 317.758 53.0202 312.727 45.9098C306.291 36.8124 298.607 28.9875 288.094 25.2675C287.701 25.127 287.655 25.2013 287.957 25.4903C289.419 26.8843 290.85 28.3107 292.151 29.8587C304.509 44.609 307.317 64.4328 299.904 82.0927C290.434 104.636 266.257 119.674 241.697 111.905C226.171 106.998 214.329 94.8493 211.643 78.5429C211.61 78.3538 211.498 78.2565 211.307 78.2511C201.914 78.0607 202.148 67.8084 202.904 61.2032C203.151 59.0527 203.441 56.8969 203.772 54.7357C204.475 50.1566 205.945 45.6194 208.18 41.1241C208.237 41.0079 208.229 40.8971 208.156 40.7918C207.93 40.4784 207.672 40.1826 207.384 39.9043C197.312 30.2883 182.376 37.9835 175.443 47.1741C171.39 52.5434 168.057 58.3382 164.151 63.7399C158.521 71.5149 150.93 76.818 141.376 79.6492C119.289 86.1936 97.1891 78.8792 76.2449 72.3429C68.2832 69.8575 60.2015 67.9043 52 66.4833V65.6201C59.1484 66.798 66.1877 68.4365 73.1179 70.5356C80.0642 72.6374 86.7305 74.623 93.1166 76.4924C98.3688 78.0269 103.704 79.252 109.124 80.1679C126.816 83.1584 147.885 80.9986 160.442 66.8764C162.595 64.4531 164.623 61.7543 166.348 59.0514C168.632 55.4638 170.954 51.9545 173.314 48.5235C177.641 42.2344 183.81 37.2298 191.046 35.3617C198.068 33.5517 203.903 35.0389 208.552 39.8233C208.668 39.9422 208.766 39.9286 208.847 39.7828C214.355 29.7088 222.268 22.2877 232.587 17.5195C249.83 9.54864 270.362 10.813 285.242 23.1684C285.662 23.5142 286.148 23.7681 286.7 23.9302C298.841 27.4922 307.463 36.7071 314.525 46.8783C317.649 51.3764 320.859 55.9068 324.153 60.4697C328.734 66.8196 334.37 72.7157 340.758 77.3272C350.788 84.5646 362.215 88.6642 375.038 89.6259C381.182 90.0852 387.722 89.8001 394.657 88.7709C401.593 87.7443 408.511 86.2882 415.412 84.4025C423.987 82.0576 432.605 79.6721 441.264 77.2462C445.049 76.1845 449.966 75.0579 456.015 73.8666ZM259.93 46.5866C258.569 59.6795 252.917 72.5374 243.515 81.8009C242.356 82.9437 240.146 83.6569 238.857 82.2548C237.726 81.0269 238.489 78.7658 239.099 77.3839C241.456 72.0322 243.729 66.925 245.919 62.0622C247.099 59.4418 248.031 56.7997 248.715 54.136C249.155 52.4137 249.434 48.7383 246.497 49.4677C245.977 49.5974 245.508 49.8054 245.091 50.0918C244.143 50.7456 243.166 51.3899 242.162 52.0247C241.241 52.6083 239.536 52.6001 239.758 51.1089C239.887 50.2579 240.655 49.5893 241.317 49.1273C245.919 45.9422 253.595 41.1322 258.92 44.0741C258.935 44.0825 258.952 44.0866 258.97 44.0858C258.987 44.0851 259.003 44.0795 259.018 44.0699C259.032 44.0602 259.043 44.0468 259.05 44.0311C259.057 44.0154 259.06 43.998 259.058 43.9809C258.904 42.3978 258.502 40.9215 257.85 39.5518C256.609 36.9421 254.145 34.8673 254.294 31.7309C254.452 28.3999 257.425 26.3494 260.621 26.4994C260.764 26.5048 260.899 26.4764 261.025 26.4143C268.225 22.8023 275.706 21.6974 283.468 23.0995C283.762 23.1535 283.79 23.0887 283.553 22.905C275.715 16.8914 266.737 13.7468 256.617 13.4713C236.914 12.9364 218.947 22.986 209.481 40.5081C209.44 40.5839 209.423 40.6702 209.431 40.7566C209.439 40.843 209.472 40.9256 209.525 40.9944C213.376 45.849 214.252 51.506 213.606 57.4467C213.242 60.7669 212.83 64.3666 212.37 68.246C211.982 71.4743 211.983 74.4906 212.374 77.2948C212.381 77.3481 212.408 77.3969 212.449 77.4314C212.49 77.4659 212.542 77.4837 212.596 77.4812C215.898 77.3866 219.215 77.4137 222.547 77.5622C227.698 77.7932 232.805 79.2115 236.429 83.0045C237.673 84.3093 238.166 85.9181 238.522 87.6241C239.01 89.9784 240.158 91.2103 242.727 91.5305C249.127 92.3247 255.741 86.8703 259.951 82.2305C260.384 81.7496 260.281 81.5105 259.639 81.5132C259.596 81.5159 259.407 81.6132 259.07 81.805C257.831 82.5128 256.576 83.1017 255.304 83.5718C252.61 84.5646 250.739 82.0198 251.749 79.5519C255.106 71.3663 258.678 62.8241 260.314 54.5452C260.803 52.0815 261.094 48.9652 260.189 46.5541C260.057 46.2029 259.971 46.2137 259.93 46.5866ZM265.223 33.0438C264.944 34.9443 263.599 36.6503 261.68 37.0677C260.115 37.4054 258.858 37.0096 257.91 35.8804C256.098 33.7192 255.944 31.5499 257.45 29.3724C257.914 28.6998 258.617 28.1649 259.227 27.6218C259.448 27.4273 259.415 27.3612 259.126 27.4233C255.494 28.2216 254.064 31.9375 256.108 35.0254C258.177 38.1497 259.676 40.4271 259.959 44.5361C259.969 44.6901 260.026 44.8252 260.128 44.9413C262.278 47.3727 261.696 52.1706 261.086 55.1207C259.365 63.4441 255.955 71.8809 252.585 79.7788C252.165 80.7676 252.284 81.6415 252.941 82.4007C254.468 84.1553 258.242 80.6379 260.104 80.6339C260.35 80.6338 260.586 80.7302 260.763 80.9027C260.939 81.0752 261.042 81.3102 261.049 81.5578C261.066 82.0306 260.911 82.4493 260.585 82.814C256.015 87.9645 248.557 93.8889 241.463 92.1586C236.829 91.0239 238.457 86.6191 235.992 83.8635C232.946 80.4556 228.437 78.9157 223.921 78.5429C220.457 78.2565 216.689 78.2052 212.616 78.3889C212.546 78.3916 212.517 78.4281 212.527 78.4983C215.444 96.1784 229.278 108.716 246.586 112.27C272.487 117.591 296.797 97.3739 301.98 72.5577C305.742 54.5452 299.786 36.9259 285.945 24.8744C285.603 24.5772 285.203 24.376 284.745 24.2706C277.104 22.5227 269.608 23.3575 262.257 26.7749C262.238 26.7836 262.222 26.7974 262.21 26.8149C262.199 26.8323 262.192 26.8527 262.191 26.8737C262.19 26.8947 262.195 26.9156 262.206 26.9339C262.216 26.9522 262.231 26.9673 262.249 26.9775C264.62 28.3715 265.611 30.3936 265.223 33.0438ZM261.999 36.0547C263.443 35.3793 264.237 34.2338 264.383 32.6183C264.601 30.195 263.568 28.5079 261.284 27.557C261.141 27.4976 261.004 27.5084 260.872 27.5894C259.285 28.5458 258.205 29.6196 257.632 30.811C256.432 33.2991 258.969 37.4689 261.999 36.0547ZM208.814 41.8292C206.614 46.4001 205.172 51.0265 204.487 55.7083C203.93 59.5309 203.581 62.8889 203.441 65.7822C203.355 67.5544 203.52 69.3442 203.938 71.1515C204.84 75.0714 207.28 77.1678 211.259 77.4407C211.428 77.4515 211.505 77.3731 211.489 77.2056C211.101 73.2344 211.222 69.1254 211.853 64.8786C212.37 61.3828 212.71 58.1518 212.875 55.1855C213.141 50.3754 212.071 45.6869 209.029 41.8089C208.945 41.7008 208.874 41.7076 208.814 41.8292ZM246.489 62.974C244.049 68.3392 241.693 73.4775 239.503 78.8063C238.061 82.3156 241.059 83.0693 243.123 80.9662C251.519 72.428 256.65 61.6246 258.646 49.6947C258.877 48.3142 259.042 46.9445 259.139 45.5856C259.155 45.3884 259.081 45.2344 258.916 45.1237C256.286 43.3569 252.977 43.9647 250.226 45.1358C247.128 46.4515 244.162 48.1602 241.325 50.262C241.013 50.4916 240.781 50.809 240.631 51.2143C240.585 51.3412 240.664 51.4506 240.869 51.5425C240.917 51.5626 240.969 51.5716 241.02 51.5688C241.072 51.566 241.123 51.5515 241.168 51.5263C242.251 50.9266 243.356 50.2282 244.485 49.4313C246.089 48.2926 248.654 47.7739 249.535 50.1283C249.993 51.352 249.974 52.8635 249.479 54.6628C248.668 57.602 247.671 60.3724 246.489 62.974Z" fill="#131316" stroke="#131316"/>
</g>
<defs>
<clipPath id="clip0_570_8843">
<rect width="508" height="124" fill="white" transform="translate(0 0.5)"/>
</clipPath>
</defs>
</svg>
