<svg width="1440" height="1846" viewBox="0 0 1440 1846" fill="none" xmlns="http://www.w3.org/2000/svg">
<g opacity="0.2" filter="url(#filter0_f_800_25380)">
<path d="M822.327 857.034C700.403 853.926 612.964 1063.42 659.877 1206.48C724.843 1404.61 862.854 1451.44 1057.93 1364.98C1301.78 1256.9 1305.21 1164.36 1001.26 1113.6C697.312 1062.84 944.251 860.142 822.327 857.034Z" fill="#FF6B00"/>
</g>
<g opacity="0.4" filter="url(#filter1_f_800_25380)">
<path d="M748.035 571.474C744.834 449.448 960.637 361.936 1108.01 408.887C1312.1 473.908 1360.35 612.034 1271.28 807.276C1159.95 1051.33 1064.62 1054.76 1012.33 750.559C960.037 446.354 751.237 693.499 748.035 571.474Z" fill="#FFC700"/>
</g>
<g opacity="0.3" filter="url(#filter2_f_800_25380)">
<path d="M224.999 1045.19C136.589 1129.2 222.893 1339.17 357.227 1407.16C543.26 1501.31 673.966 1436.84 750.768 1237.76C846.77 988.91 783.761 921.045 532.943 1100.08C282.124 1279.11 313.41 961.172 224.999 1045.19Z" fill="#FFC700"/>
</g>
<g opacity="0.5" filter="url(#filter3_f_800_25380)">
<ellipse cx="419.5" cy="770.5" rx="244.5" ry="200.5" fill="#53B1FD"/>
</g>
<g filter="url(#filter4_f_800_25380)">
<ellipse cx="762.5" cy="978.5" rx="257.5" ry="152.5" fill="#3CCB7F"/>
</g>
<g filter="url(#filter5_f_800_25380)">
<ellipse cx="757.5" cy="843" rx="319.5" ry="213" fill="#00A3FF"/>
</g>
<defs>
<filter id="filter0_f_800_25380" x="251.189" y="461.189" width="1380.13" height="1341.07" filterUnits="userSpaceOnUse" color-interpolation-filters="sRGB">
<feFlood flood-opacity="0" result="BackgroundImageFix"/>
<feBlend mode="normal" in="SourceGraphic" in2="BackgroundImageFix" result="shape"/>
<feGaussianBlur stdDeviation="197.905" result="effect1_foregroundBlur_800_25380"/>
</filter>
<filter id="filter1_f_800_25380" x="352.189" y="0.189392" width="1357.62" height="1380.62" filterUnits="userSpaceOnUse" color-interpolation-filters="sRGB">
<feFlood flood-opacity="0" result="BackgroundImageFix"/>
<feBlend mode="normal" in="SourceGraphic" in2="BackgroundImageFix" result="shape"/>
<feGaussianBlur stdDeviation="197.905" result="effect1_foregroundBlur_800_25380"/>
</filter>
<filter id="filter2_f_800_25380" x="-206.764" y="603.506" width="1396.05" height="1242.03" filterUnits="userSpaceOnUse" color-interpolation-filters="sRGB">
<feFlood flood-opacity="0" result="BackgroundImageFix"/>
<feBlend mode="normal" in="SourceGraphic" in2="BackgroundImageFix" result="shape"/>
<feGaussianBlur stdDeviation="197.905" result="effect1_foregroundBlur_800_25380"/>
</filter>
<filter id="filter3_f_800_25380" x="-137.986" y="257.014" width="1114.97" height="1026.97" filterUnits="userSpaceOnUse" color-interpolation-filters="sRGB">
<feFlood flood-opacity="0" result="BackgroundImageFix"/>
<feBlend mode="normal" in="SourceGraphic" in2="BackgroundImageFix" result="shape"/>
<feGaussianBlur stdDeviation="156.493" result="effect1_foregroundBlur_800_25380"/>
</filter>
<filter id="filter4_f_800_25380" x="192.014" y="513.014" width="1140.97" height="930.973" filterUnits="userSpaceOnUse" color-interpolation-filters="sRGB">
<feFlood flood-opacity="0" result="BackgroundImageFix"/>
<feBlend mode="normal" in="SourceGraphic" in2="BackgroundImageFix" result="shape"/>
<feGaussianBlur stdDeviation="156.493" result="effect1_foregroundBlur_800_25380"/>
</filter>
<filter id="filter5_f_800_25380" x="138" y="330" width="1239" height="1026" filterUnits="userSpaceOnUse" color-interpolation-filters="sRGB">
<feFlood flood-opacity="0" result="BackgroundImageFix"/>
<feBlend mode="normal" in="SourceGraphic" in2="BackgroundImageFix" result="shape"/>
<feGaussianBlur stdDeviation="150" result="effect1_foregroundBlur_800_25380"/>
</filter>
</defs>
</svg>
