<svg width="500" height="500" viewBox="0 0 500 500" fill="none" xmlns="http://www.w3.org/2000/svg">
<path d="M155.664 136.924L96.9219 318.939L397.691 379.232L155.664 136.924Z" fill="url(#paint0_linear_800_25385)" fill-opacity="0.4"/>
<path d="M156.224 136.767L309.151 103.076L397.688 378.461L97.6875 318.403L156.224 136.767Z" fill="url(#paint1_linear_800_25385)" fill-opacity="0.25"/>
<path d="M156.224 136.767L309.151 103.076M156.224 136.767L97.6875 318.403M156.224 136.767L397.688 378.461M309.151 103.076L397.688 378.461M309.151 103.076L97.6875 318.403M397.688 378.461L97.6875 318.403" stroke="white" stroke-opacity="0.7" stroke-width="0.802437" stroke-miterlimit="10"/>
<g filter="url(#filter0_f_800_25385)">
<path d="M230.77 149.23L253.832 219.747H328.463L268.086 263.329L291.148 333.846L230.77 290.264L170.393 333.846L193.455 263.329L133.078 219.747H207.708L230.77 149.23Z" fill="white"/>
</g>
<g filter="url(#filter1_f_800_25385)">
<path d="M211.153 184.615L221.594 216.642H255.383L228.047 236.435L238.489 268.461L211.153 248.668L183.817 268.461L194.258 236.435L166.922 216.642H200.711L211.153 184.615Z" fill="white"/>
</g>
<g filter="url(#filter2_f_800_25385)">
<path d="M291.923 233.846L297.098 249.712H313.846L300.297 259.518L305.472 275.384L291.923 265.578L278.374 275.384L283.549 259.518L270 249.712H286.748L291.923 233.846Z" fill="white"/>
</g>
<g filter="url(#filter3_f_800_25385)">
<path d="M387.692 359.23L392.05 372.452H406.154L394.744 380.624L399.102 393.846L387.692 385.674L376.282 393.846L380.64 380.624L369.23 372.452H383.334L387.692 359.23Z" fill="white"/>
</g>
<g filter="url(#filter4_f_800_25385)">
<path d="M301.924 86.1543L306.373 99.67H320.77L309.123 108.023L313.572 121.539L301.924 113.186L290.277 121.539L294.726 108.023L283.078 99.67H297.475L301.924 86.1543Z" fill="white"/>
</g>
<g filter="url(#filter5_f_800_25385)">
<path d="M157.696 121.539L162.054 135.055H176.157L164.748 143.408L169.106 156.924L157.696 148.57L146.286 156.924L150.644 143.408L139.234 135.055H153.338L157.696 121.539Z" fill="white"/>
</g>
<g filter="url(#filter6_f_800_25385)">
<path d="M100.001 294.615L104.359 307.837H118.462L107.052 316.009L111.41 329.231L100.001 321.059L88.5907 329.231L92.9489 316.009L81.5391 307.837H95.6424L100.001 294.615Z" fill="white"/>
</g>
<defs>
<filter id="filter0_f_800_25385" x="20.2935" y="36.4458" width="420.952" height="410.185" filterUnits="userSpaceOnUse" color-interpolation-filters="sRGB">
<feFlood flood-opacity="0" result="BackgroundImageFix"/>
<feBlend mode="normal" in="SourceGraphic" in2="BackgroundImageFix" result="shape"/>
<feGaussianBlur stdDeviation="56.3923" result="effect1_foregroundBlur_800_25385"/>
</filter>
<filter id="filter1_f_800_25385" x="99.232" y="116.925" width="223.841" height="219.225" filterUnits="userSpaceOnUse" color-interpolation-filters="sRGB">
<feFlood flood-opacity="0" result="BackgroundImageFix"/>
<feBlend mode="normal" in="SourceGraphic" in2="BackgroundImageFix" result="shape"/>
<feGaussianBlur stdDeviation="33.8449" result="effect1_foregroundBlur_800_25385"/>
</filter>
<filter id="filter2_f_800_25385" x="220.201" y="184.046" width="143.446" height="141.137" filterUnits="userSpaceOnUse" color-interpolation-filters="sRGB">
<feFlood flood-opacity="0" result="BackgroundImageFix"/>
<feBlend mode="normal" in="SourceGraphic" in2="BackgroundImageFix" result="shape"/>
<feGaussianBlur stdDeviation="24.8996" result="effect1_foregroundBlur_800_25385"/>
</filter>
<filter id="filter3_f_800_25385" x="335.479" y="325.479" width="104.425" height="102.119" filterUnits="userSpaceOnUse" color-interpolation-filters="sRGB">
<feFlood flood-opacity="0" result="BackgroundImageFix"/>
<feBlend mode="normal" in="SourceGraphic" in2="BackgroundImageFix" result="shape"/>
<feGaussianBlur stdDeviation="16.8758" result="effect1_foregroundBlur_800_25385"/>
</filter>
<filter id="filter4_f_800_25385" x="249.326" y="52.4026" width="105.195" height="102.888" filterUnits="userSpaceOnUse" color-interpolation-filters="sRGB">
<feFlood flood-opacity="0" result="BackgroundImageFix"/>
<feBlend mode="normal" in="SourceGraphic" in2="BackgroundImageFix" result="shape"/>
<feGaussianBlur stdDeviation="16.8758" result="effect1_foregroundBlur_800_25385"/>
</filter>
<filter id="filter5_f_800_25385" x="105.483" y="87.7874" width="104.425" height="102.888" filterUnits="userSpaceOnUse" color-interpolation-filters="sRGB">
<feFlood flood-opacity="0" result="BackgroundImageFix"/>
<feBlend mode="normal" in="SourceGraphic" in2="BackgroundImageFix" result="shape"/>
<feGaussianBlur stdDeviation="16.8758" result="effect1_foregroundBlur_800_25385"/>
</filter>
<filter id="filter6_f_800_25385" x="47.7874" y="260.864" width="104.425" height="102.119" filterUnits="userSpaceOnUse" color-interpolation-filters="sRGB">
<feFlood flood-opacity="0" result="BackgroundImageFix"/>
<feBlend mode="normal" in="SourceGraphic" in2="BackgroundImageFix" result="shape"/>
<feGaussianBlur stdDeviation="16.8758" result="effect1_foregroundBlur_800_25385"/>
</filter>
<linearGradient id="paint0_linear_800_25385" x1="158.637" y1="136.843" x2="271.773" y2="332.782" gradientUnits="userSpaceOnUse">
<stop stop-color="white"/>
<stop offset="1" stop-color="white" stop-opacity="0.15"/>
</linearGradient>
<linearGradient id="paint1_linear_800_25385" x1="134.273" y1="213.995" x2="337.817" y2="528.242" gradientUnits="userSpaceOnUse">
<stop stop-color="white"/>
<stop offset="1" stop-color="white" stop-opacity="0.15"/>
</linearGradient>
</defs>
</svg>
