<svg width="40" height="40" viewBox="0 0 40 40" fill="none" xmlns="http://www.w3.org/2000/svg">
<path d="M20.0007 3.33333V5M5.00065 20H3.33398M9.16732 9.16667L8.16716 8.1665M30.834 9.16667L31.8344 8.1665M36.6673 20H35.0007M16.6673 22.5H23.334M20.0007 22.5V30.8333M25.834 28.1233C28.3574 26.308 30.0007 23.3459 30.0007 20C30.0007 14.4772 25.5235 10 20.0007 10C14.4778 10 10.0007 14.4772 10.0007 20C10.0007 23.3459 11.6439 26.308 14.1673 28.1233V31.3333C14.1673 33.2002 14.1673 34.1336 14.5306 34.8466C14.8502 35.4738 15.3601 35.9838 15.9874 36.3034C16.7004 36.6667 17.6338 36.6667 19.5007 36.6667H20.5007C22.3675 36.6667 23.3009 36.6667 24.014 36.3034C24.6412 35.9838 25.1511 35.4738 25.4707 34.8466C25.834 34.1336 25.834 33.2002 25.834 31.3333V28.1233Z" stroke="#131316" stroke-width="1.5" stroke-linecap="round" stroke-linejoin="round"/>
</svg>
