<svg width="41" height="40" viewBox="0 0 41 40" fill="none" xmlns="http://www.w3.org/2000/svg">
<path d="M10.6686 33.4786H15.0191C15.5863 33.4786 16.1501 33.5461 16.7 33.6811L21.2968 34.7981C22.2942 35.0411 23.3332 35.0647 24.3411 34.869L29.4236 33.8802C30.7662 33.6186 32.0013 32.9757 32.9692 32.0342L36.5651 28.5362C37.592 27.5389 37.592 25.9207 36.5651 24.9218C35.6405 24.0224 34.1765 23.9211 33.1305 24.6838L28.9396 27.7414C28.3394 28.1801 27.6091 28.4164 26.858 28.4164H22.8111L25.3871 28.4163C26.839 28.4163 28.015 27.2722 28.015 25.8598V25.3486C28.015 24.1758 27.1946 23.1533 26.0254 22.8698L22.0496 21.9029C21.4026 21.746 20.74 21.6667 20.0739 21.6667C18.4658 21.6667 15.5551 22.998 15.5551 22.998L10.6686 25.0415M4.00195 24.3333L4.00195 34C4.00195 34.9334 4.00195 35.4001 4.18361 35.7566C4.3434 36.0702 4.59837 36.3252 4.91197 36.485C5.26849 36.6667 5.7352 36.6667 6.66862 36.6667H8.00195C8.93537 36.6667 9.40208 36.6667 9.7586 36.485C10.0722 36.3252 10.3272 36.0702 10.487 35.7566C10.6686 35.4001 10.6686 34.9334 10.6686 34V24.3333C10.6686 23.3999 10.6686 22.9332 10.487 22.5767C10.3272 22.2631 10.0722 22.0081 9.7586 21.8483C9.40209 21.6667 8.93537 21.6667 8.00195 21.6667H6.66862C5.7352 21.6667 5.26849 21.6667 4.91197 21.8483C4.59837 22.0081 4.3434 22.2631 4.18361 22.5767C4.00195 22.9332 4.00195 23.3999 4.00195 24.3333ZM29.3209 5.98708C28.3262 3.90565 26.0329 2.80296 23.8027 3.86728C21.5724 4.93159 20.6223 7.45562 21.556 9.67137C22.1331 11.0408 23.7865 13.7 24.9654 15.5317C25.401 16.2085 25.6188 16.5469 25.9369 16.7449C26.2098 16.9147 26.5514 17.0062 26.8726 16.9956C27.2471 16.9832 27.6049 16.799 28.3205 16.4307C30.2574 15.4338 33.0189 13.9576 34.2033 13.0602C36.1199 11.6082 36.5946 8.93928 35.1597 6.91039C33.7249 4.8815 31.223 4.68186 29.3209 5.98708Z" stroke="#131316" stroke-width="1.5" stroke-linecap="round" stroke-linejoin="round"/>
</svg>
