<svg width="41" height="40" viewBox="0 0 41 40" fill="none" xmlns="http://www.w3.org/2000/svg">
<path d="M18.485 33.7198L5.28386 21.7622C-3.08155 13.3968 9.21561 -2.66482 20.6762 10.3295C20.6771 10.3303 20.6771 10.3318 20.6762 10.3326L16.0895 14.9199C15.0947 15.9147 15.0916 17.5266 16.0824 18.5252C16.9156 19.365 18.2164 19.523 19.2263 18.9069L23.4643 16.3214C24.7249 15.5523 26.345 15.7255 27.4145 16.7436L31.7898 20.9083C33.1644 22.2168 33.1371 24.4175 31.7305 25.6916L22.8675 33.7198C21.6238 34.8463 19.7287 34.8463 18.485 33.7198Z" stroke="#131316" stroke-width="1.5" stroke-linecap="round" stroke-linejoin="round"/>
<path d="M24.3301 22.3675L29.7217 27.4996" stroke="#131316" stroke-width="1.5" stroke-linecap="round" stroke-linejoin="round"/>
<path d="M19.7656 26.5239L25.1571 31.6558" stroke="#131316" stroke-width="1.5" stroke-linecap="round" stroke-linejoin="round"/>
<path d="M30.9563 26.3951L36.0744 21.762C44.3841 13.4524 32.1426 -2.66493 20.6821 10.3294L20.6803 10.331L16.0901 14.9203C15.0952 15.9149 15.092 17.5268 16.0828 18.5255C16.9158 19.3652 18.2164 19.523 19.2262 18.9069L23.4727 16.3164C24.7347 15.5465 26.3565 15.7209 27.4259 16.7415L31.7922 20.9083C33.1668 22.2168 33.1395 24.4175 31.7331 25.6916L30.9563 26.3951Z" stroke="#131316" stroke-width="1.5" stroke-linecap="round" stroke-linejoin="round"/>
</svg>
