<svg width="1440" height="1302" viewBox="0 0 1440 1302" fill="none" xmlns="http://www.w3.org/2000/svg">
<g opacity="0.8" filter="url(#filter0_f_574_3932)">
<path d="M1141.84 661.832C1162.62 748.115 1326.25 770.141 1417.92 710.239C1544.86 627.282 1551.77 521.461 1454.29 400.62C1332.44 249.568 1266.78 264.573 1288.37 487.769C1309.96 710.964 1121.06 575.549 1141.84 661.832Z" fill="#FFC700"/>
</g>
<g opacity="0.5" filter="url(#filter1_f_574_3932)">
<path d="M1881.96 790.883C1786.38 952.885 1874.44 280.105 1176.93 264.022C1105.86 222.093 1125.73 56.7749 1221.3 -105.227C1316.88 -267.229 1377.19 -690.076 1448.26 -648.147C1519.32 -606.219 1977.53 628.881 1881.96 790.883Z" fill="#FF6B00"/>
</g>
<g filter="url(#filter2_f_574_3932)">
<path d="M-1411.1 845.151C-1478.22 1100.27 -405.876 89.2726 298.5 768.5C410.418 797.946 -4.62093 706.621 62.4998 451.501C129.621 196.381 562.872 -113.328 450.954 -142.773C339.035 -172.218 -1343.98 590.031 -1411.1 845.151Z" fill="url(#paint0_linear_574_3932)" fill-opacity="0.5"/>
</g>
<defs>
<filter id="filter0_f_574_3932" x="698.442" y="-140.575" width="1264.4" height="1326.38" filterUnits="userSpaceOnUse" color-interpolation-filters="sRGB">
<feFlood flood-opacity="0" result="BackgroundImageFix"/>
<feBlend mode="normal" in="SourceGraphic" in2="BackgroundImageFix" result="shape"/>
<feGaussianBlur stdDeviation="220.9" result="effect1_foregroundBlur_574_3932"/>
</filter>
<filter id="filter1_f_574_3932" x="818.314" y="-967.055" width="1392.7" height="2099.1" filterUnits="userSpaceOnUse" color-interpolation-filters="sRGB">
<feFlood flood-opacity="0" result="BackgroundImageFix"/>
<feBlend mode="normal" in="SourceGraphic" in2="BackgroundImageFix" result="shape"/>
<feGaussianBlur stdDeviation="158" result="effect1_foregroundBlur_574_3932"/>
</filter>
<filter id="filter2_f_574_3932" x="-1730.11" y="-459.604" width="2515.44" height="1663.04" filterUnits="userSpaceOnUse" color-interpolation-filters="sRGB">
<feFlood flood-opacity="0" result="BackgroundImageFix"/>
<feBlend mode="normal" in="SourceGraphic" in2="BackgroundImageFix" result="shape"/>
<feGaussianBlur stdDeviation="158" result="effect1_foregroundBlur_574_3932"/>
</filter>
<linearGradient id="paint0_linear_574_3932" x1="-380.035" y1="638.282" x2="41.3788" y2="2.91413" gradientUnits="userSpaceOnUse">
<stop stop-color="#00A3FF"/>
<stop offset="1" stop-color="#2ED3B7"/>
</linearGradient>
</defs>
</svg>
