<svg width="1056" height="1383" viewBox="0 0 1056 1383" fill="none" xmlns="http://www.w3.org/2000/svg">
<g opacity="0.5">
<g opacity="0.3">
<path opacity="0.05" d="M390.879 170.804L691.5 0.412592L992.121 170.804L992.125 170.807L1290 345.956L1292.75 691.497V691.503L1290 1037.04L992.125 1212.19L992.121 1212.2L691.5 1382.59L390.879 1212.2L390.875 1212.19L93.0007 1037.04L90.2539 691.503V691.497L93.0007 345.956L390.875 170.807L390.879 170.804Z" stroke="#131316" stroke-width="0.717879"/>
<path opacity="0.1" d="M424.582 229.18L691.5 77.8916L958.417 229.18L958.422 229.183L1222.9 384.696L1225.34 691.497V691.503L1222.9 998.304L958.422 1153.82L958.417 1153.82L691.5 1305.11L424.582 1153.82L424.577 1153.82L160.099 998.304L157.66 691.503V691.497L160.099 384.696L424.577 229.183L424.582 229.18Z" stroke="#131316" stroke-width="0.717879"/>
<path opacity="0.2" d="M458.286 287.556L691.5 155.371L924.714 287.556L924.719 287.559L1155.8 423.435L1157.93 691.497V691.503L1155.8 959.565L924.719 1095.44L924.714 1095.44L691.5 1227.63L458.286 1095.44L458.281 1095.44L227.198 959.565L225.067 691.503V691.497L227.198 423.435L458.281 287.559L458.286 287.556Z" stroke="#131316" stroke-width="0.717879"/>
<path opacity="0.3" d="M491.989 345.932L691.5 232.849L891.01 345.932L891.015 345.935L1088.7 462.175L1090.53 691.497V691.503L1088.7 920.825L891.015 1037.07L891.01 1037.07L691.5 1150.15L491.989 1037.07L491.984 1037.07L294.297 920.825L292.474 691.503V691.497L294.297 462.175L491.984 345.935L491.989 345.932Z" stroke="#131316" stroke-width="0.717879"/>
<path opacity="0.4" d="M525.693 404.308L691.5 310.329L857.307 404.308L857.312 404.311L1021.6 500.914L1023.12 691.497V691.503L1021.6 882.086L857.312 978.689L857.307 978.692L691.5 1072.67L525.693 978.692L525.688 978.689L361.396 882.086L359.881 691.503V691.497L361.396 500.914L525.688 404.311L525.693 404.308Z" stroke="#131316" stroke-width="0.717879"/>
<path opacity="0.6" d="M559.396 462.684L691.5 387.807L823.603 462.684L823.608 462.687L954.505 539.654L955.712 691.497V691.503L954.505 843.346L823.608 920.313L823.603 920.316L691.5 995.192L559.396 920.316L559.391 920.313L428.494 843.346L427.287 691.503V691.497L428.494 539.654L559.391 462.687L559.396 462.684Z" stroke="#131316" stroke-width="0.717879"/>
<path opacity="0.8" d="M593.1 521.06L691.5 465.287L789.9 521.06L789.905 521.063L887.407 578.393L888.306 691.497V691.503L887.407 804.607L789.905 861.937L789.9 861.94L691.5 917.714L593.1 861.94L593.095 861.937L495.593 804.607L494.694 691.503V691.497L495.593 578.393L593.095 521.063L593.1 521.06Z" stroke="#131316" stroke-width="0.717879"/>
<path opacity="0.8" d="M626.804 579.436L691.501 542.765L756.198 579.436L756.203 579.438L820.308 617.133L820.9 691.497V691.503L820.308 765.867L756.203 803.561L756.198 803.564L691.501 840.234L626.804 803.564L626.799 803.561L562.693 765.867L562.102 691.503V691.497L562.693 617.133L626.799 579.438L626.804 579.436Z" stroke="#131316" stroke-width="0.717879"/>
<path d="M660.506 637.812L691.5 620.244L722.494 637.812L722.499 637.814L753.209 655.872L753.492 691.497V691.503L753.209 727.128L722.499 745.185L722.494 745.188L691.5 762.755L660.506 745.188L660.501 745.185L629.791 727.128L629.508 691.503V691.497L629.791 655.872L660.501 637.814L660.506 637.812Z" stroke="#131316" stroke-width="0.717879"/>
</g>
</g>
</svg>
