<svg width="548" height="548" viewBox="0 0 548 548" fill="none" xmlns="http://www.w3.org/2000/svg">
<g clip-path="url(#clip0_556_13428)">
<path d="M270.62 324.311C267.999 327.115 263.978 329.404 260.098 329.922C246.278 342.908 231.057 354.484 214.952 364.745C213.831 365.46 212.661 366.185 211.334 366.399C210.007 366.612 208.62 366.038 207.968 364.905C214.631 362.665 220.248 358.234 225.325 353.512C230.402 348.788 235.12 343.665 240.753 339.569C246.948 335.065 254.237 331.806 259.359 326.187C256.429 325.582 253.444 323.418 252.415 320.707C243.01 324.749 233.977 329.59 225.455 335.156C224.063 336.066 222.683 336.994 221.304 337.922C218.789 339.616 216.279 341.898 213.43 342.998C196.113 349.691 179.473 358.008 163.826 367.797C157.805 371.563 151.8 375.67 147.728 381.361C143.653 387.052 141.815 394.676 144.742 400.986C146.06 395.796 149.108 391.126 152.836 387.168C156.563 383.21 160.97 379.906 165.421 376.716C173.921 370.626 184.198 364.603 194.548 362.423C196.525 364.672 198.128 367.225 199.273 369.957C199.874 371.39 201.387 373.894 200.488 375.175C208.205 376.412 214.874 380.895 221.25 385.258C226.307 388.72 231.476 392.287 234.959 397.231C235.945 398.63 236.799 400.171 237.023 401.847C237.429 404.873 235.746 407.545 234.132 410.171C236.003 407.049 235.006 402.927 232.731 400.065C230.454 397.203 227.134 395.319 223.909 393.485C220.457 391.521 216.994 389.516 214.011 386.935C213.051 386.104 212.146 385.219 211.173 384.404C208.956 382.548 206.392 381.076 203.644 380.072C200.607 378.963 198.117 379.01 195.055 380.178C192.592 381.119 190.35 382.511 188.051 383.778C184.702 385.623 181.208 387.211 177.736 388.834C169.268 392.792 160.894 396.966 152.93 401.798C149.317 403.99 145.502 406.708 144.621 410.732C144.888 410.685 145.742 411.265 145.968 411.121C148.653 409.397 151.339 407.672 154.026 405.948C156.093 404.621 158.175 403.287 160.477 402.389C163.55 401.191 166.892 400.822 170.187 400.464C171.357 400.337 172.592 400.218 173.668 400.682C175.414 401.435 176.326 403.999 175.272 405.536C173.006 405.348 170.673 406.304 169.241 408.002C167.817 406.895 165.773 406.859 163.998 407.288C159.394 408.404 156.01 412.066 152.928 415.543C151.267 417.416 149.608 419.289 147.947 421.162C147.118 422.099 146.271 423.062 145.84 424.218C145.41 425.377 145.477 426.789 146.343 427.695C144.673 427.727 143.666 429.439 143.005 430.913C142.427 432.199 141.846 433.492 141.512 434.856C140.645 438.399 141.573 442.284 143.864 445.182C146.643 448.7 151.05 450.597 155.295 452.28C153.968 453.748 154.824 456.24 156.534 457.278C158.244 458.316 160.428 458.256 162.425 457.954C168.373 457.054 173.997 454.268 178.213 450.131C181.515 451.272 185.298 451.054 188.436 449.544C191.574 448.033 194.024 445.247 195.055 442.018C199.258 436.679 201.412 429.879 201.015 423.191C200.618 416.503 197.677 409.981 192.872 405.136C190.261 402.506 186.757 400.363 183.38 398.733C190.422 396.884 198.937 397.385 205.408 400.637C206.56 400.024 207.755 399.396 209.066 399.275C210.377 399.152 211.848 399.67 212.408 400.818C213.186 402.406 211.964 404.167 211.379 405.829C210.348 408.749 211.33 411.919 211.96 414.943C212.59 417.966 211.834 420.919 210.991 423.892C210.35 426.154 208.716 428.137 206.574 429.251C205.791 429.657 204.933 429.963 204.285 430.548C203.337 431.405 203.008 432.704 202.723 433.925C202.189 436.22 201.654 438.514 201.12 440.808C200.632 442.91 200.125 445.048 198.989 446.904C197.693 449.019 195.669 450.614 193.688 452.164C192.35 453.208 190.96 454.281 189.295 454.704C188.279 454.96 187.199 454.967 186.219 455.327C184.78 455.858 183.722 457.095 182.295 457.652C180.712 458.267 178.919 457.965 177.229 458.191C175.539 458.418 173.679 459.628 173.905 461.258C174.004 461.968 173.789 462.056 174.199 462.654C178.045 463.586 181.891 464.521 185.738 465.453C187.136 465.792 188.553 466.133 189.994 466.127C191.189 466.12 192.381 465.874 193.571 465.967C194.838 466.068 196.032 466.547 197.218 466.99C201.954 468.753 207.268 469.977 212.058 468.356C213.582 467.84 215.001 467.05 216.555 466.612C218.832 465.969 221.264 466.122 223.611 465.777C226.782 465.311 230.485 464.113 233.403 462.831C241.34 459.352 247.408 452.74 251.814 445.493C256.221 438.246 259.177 430.287 262.535 422.537C265.03 416.782 267.791 410.989 268.407 404.78C267.06 406.412 265.384 408.197 263.221 408.13C261.356 408.071 259.899 406.649 258.276 405.762C255.053 404.001 250.844 404.413 247.701 406.304C246.713 406.897 245.807 407.627 244.747 408.091C243.209 408.766 241.394 409.39 239.706 409.45C241.376 403.714 244.693 398.755 248.661 394.184C249.362 390.155 252.043 386.749 254.56 383.46C264.456 370.529 274.053 357.602 282.651 343.836C281.495 348.275 279.191 352.345 276.911 356.361C273.953 361.571 270.989 366.789 267.565 371.727C265.115 375.258 262.432 378.644 260.188 382.299C257.944 385.955 256.131 389.937 255.62 394.156C257.391 394.793 258.951 392.732 260.807 392.391C262.131 392.147 263.436 392.814 264.595 393.478C265.964 394.264 267.334 395.093 268.416 396.219C269.499 397.346 270.891 398.755 270.846 400.289C271.673 396.323 272.644 391.672 275.322 388.554C279.668 383.493 283.01 377.636 285.113 371.388C286.513 367.225 287.968 363.586 291.041 360.362C292.697 366.37 292.962 372.64 293.872 378.792C295.257 388.148 302.073 397.307 300.946 406.695C300.253 412.459 302.82 418.081 305.467 423.295C310.115 432.454 315.623 441.509 321.125 450.217C321.833 445.338 325.772 441.477 327.381 436.798C328.331 434.036 328.437 431.083 328.865 428.202C329.293 425.321 330.124 422.352 332.202 420.239C333.814 418.601 336.212 417.369 336.627 415.15C337.088 412.67 335.614 410.312 336.064 407.83C336.891 403.263 339.684 399.167 343.275 396.081C346.868 392.995 351.227 390.843 355.712 389.158C358.171 388.234 360.682 387.44 363.192 386.646C366.323 385.655 369.454 384.667 372.586 383.676C370.237 382.183 366.785 381.24 364.064 381.935C361.587 378.307 360.554 373.792 361.219 369.498C361.506 367.644 362.141 365.764 363.494 364.417C364.848 363.071 367.047 362.391 368.816 363.17C370.29 363.822 371.171 365.287 371.846 366.707C372.814 368.742 373.567 370.87 374.09 373.05C374.731 375.724 375.1 378.633 376.977 380.7C377.571 380.884 378.037 380.577 378.631 380.761C383.131 380.171 387.639 381.497 391.972 382.804C393.859 383.374 395.746 383.944 397.633 384.514C398.864 384.885 399.998 384.54 401.246 384.846C398.741 383.02 396.038 381.281 393.532 379.457C393.135 375.02 395.372 370.773 397.887 367.035C400.402 363.297 403.342 360.06 404.568 355.766C396.842 357.796 390.562 364.24 388.943 371.792C385.29 368.071 381.657 364.236 378.725 359.965C371.503 358.006 364.465 355.414 357.727 352.231C354.206 350.567 350.768 348.743 347.334 346.922C339.574 342.804 331.028 338.82 323.268 334.705C322.049 332.611 319.467 331.692 317.073 331.027C314.679 330.36 312.081 329.676 310.541 327.792C309.524 326.549 308.434 324.234 307.724 322.807C304.911 326.81 299.009 327.997 296.297 332.063C294.827 334.264 294.524 337.005 294.591 339.621C294.659 342.239 295.053 344.856 294.818 347.463C294.582 350.07 293.643 353.392 291.507 355.008C290.756 348.778 289.949 342.372 286.852 336.854C285.231 333.969 283.035 331.422 281.271 328.614C279.507 325.807 278.16 322.58 278.518 319.32C281.905 323.429 287.648 325.658 293.022 324.812C297.362 324.13 301.136 321.661 304.754 319.257C305.007 323.834 303.662 329.575 301.394 333.606C302.936 339.932 304.554 346.24 306.249 352.531C307.038 355.457 307.843 358.377 308.647 361.299C309.544 364.553 310.447 367.821 311.821 370.918C313.397 374.463 315.567 377.731 317.366 381.177C319.496 385.258 321.455 390.468 321.13 395.024C323.633 396.672 324.889 399.53 326.209 402.158C329.111 407.94 332.895 413.264 336.66 418.564C339.61 422.714 342.591 426.901 346.415 430.328C350.411 433.91 355.484 436.895 357.317 441.846C357.653 442.756 357.978 442.7 358.066 443.665C358.265 445.845 358.389 448.279 356.927 449.954C355.694 451.367 353.686 451.827 351.949 452.608C350.658 453.189 349.45 454.002 348.627 455.122C347.805 456.242 347.41 457.697 347.782 459.022C348.036 459.924 348.63 460.764 348.589 461.696C348.549 462.617 347.879 463.418 347.094 463.949C346.31 464.48 345.4 464.808 344.559 465.252C342.091 466.56 340.265 468.945 339.698 471.602C339.13 474.258 338.875 478.272 340.608 480.411C340.238 483.793 336.625 486.512 333.126 486.041C329.586 485.567 327.087 482.513 323.878 481C321.161 479.72 318.034 479.591 315.1 478.881C309.714 477.577 305.088 474.347 300.61 471.187C297.434 468.945 294.21 466.664 291.799 463.666C288.513 459.585 286.964 454.49 285.489 449.526C285.386 449.183 285.29 448.795 285.471 448.484C285.646 448.186 286.018 448.061 286.363 447.977C290.176 447.042 294.219 448.121 297.797 449.701C301.372 451.281 304.714 453.368 308.425 454.622C313.305 456.266 319.099 456.607 324.046 455.166C330.138 463.312 337.501 470.533 345.48 476.997C349.228 480.031 353.173 482.938 357.678 484.785C364.048 487.397 371.191 487.742 378.091 487.192C384.992 486.644 391.759 484.872 398.64 484.134C396.75 480.679 394.861 477.226 392.971 473.77C390.862 469.914 388.722 466.016 385.714 462.758C382.481 459.257 378.357 456.622 374.988 453.243C371.62 449.863 368.943 445.305 369.723 440.68C370.275 437.413 372.355 434.985 372.597 431.683C369.916 427.279 370.559 421.732 371.835 416.777C373.11 411.822 374.946 406.831 374.388 401.753C374.273 400.719 374.061 399.674 374.231 398.647C374.401 397.62 375.062 396.582 376.109 396.321C377.907 395.872 379.935 397.792 381.477 396.798C385.563 394.162 390.795 393.234 395.587 394.298C400.379 395.362 403.775 399.502 406.249 403.593C405.469 403.177 404.499 403.334 403.658 403.619C402.818 403.904 402 404.306 401.11 404.357C400.204 404.409 399.321 404.09 398.418 404.036C396.858 403.941 395.374 404.627 393.975 405.296C392.429 406.036 390.849 406.796 389.641 407.985C388.432 409.174 387.744 411.287 388.141 412.906C384.342 412.392 380.717 415.204 379.234 418.612C377.75 422.019 377.943 425.867 378.337 429.542C378.837 434.189 379.633 438.852 381.432 443.19C383.232 447.528 386.108 451.553 390.129 454.171C393.077 456.089 396.69 457.324 398.714 460.14C401.437 463.93 400.688 471.904 405.212 473.412C410.069 475.033 415.932 473.203 418.882 469.15C419.619 468.136 420.189 467.005 421.04 466.077C422.02 465.009 423.32 464.271 424.568 463.507C432.324 458.759 438.958 452.321 443.829 444.817C442.307 444.774 442.015 442.752 441.977 441.285C441.883 437.642 440.364 434.139 438.266 431.107C436.168 428.075 433.5 425.453 430.851 422.85C424.745 416.855 419.393 411.445 413.29 405.447C417.219 406.267 420.975 407.834 424.286 410.031C428.011 412.504 431.12 415.728 434.197 418.925C438.111 422.993 442.119 427.201 444.143 432.393C444.58 433.518 444.927 434.692 445.599 435.702C446.272 436.714 447.366 437.596 448.612 437.637C455.211 426.45 455.54 412.463 451.342 400.25C447.142 388.038 438.774 377.463 428.991 368.701C419.207 359.937 407.85 354.365 396.99 346.87C385.991 339.278 373.184 334.56 360.536 329.924C360.852 330.155 360.625 329.851 360.942 330.082C355.318 327.68 349.47 325.768 343.49 324.374C336.461 322.736 328.914 321.668 323.295 317.284C320.805 315.34 318.778 312.724 318.063 309.716C317.508 307.377 317.756 304.936 317.505 302.549C317.03 298.064 314.349 294.616 310.783 291.694C310.147 292.678 309.497 293.69 309.243 294.823C308.99 295.958 309.203 297.259 310.086 298.049C310.969 298.839 312.59 298.848 313.265 297.887C311.765 298.246 310.496 299.569 310.492 301.056C310.485 302.542 311.958 303.95 313.486 303.723C312.397 304.215 311.256 304.75 310.577 305.708C309.898 306.667 309.914 308.179 310.927 308.805C311.572 309.205 312.444 309.131 313.117 308.779C313.791 308.428 314.298 307.841 314.724 307.228C312.807 308.246 311.2 309.794 310.138 311.639C309.815 312.2 309.544 312.899 309.869 313.458C310.203 314.03 311.046 314.162 311.68 313.922C312.314 313.683 313.502 314.447 314.045 314.047C316.649 312.129 320.388 311.134 323.541 310.268C351.371 317.043 381.325 317.537 408.805 309.55C413.962 311.479 419.772 311.063 425.14 309.763C430.506 308.464 435.616 306.328 440.926 304.83C449.638 302.374 458.763 301.673 467.7 300.141C476.636 298.608 485.687 296.105 492.774 290.645C498.882 285.942 503.118 279.356 506.532 272.582C508.955 267.775 511.042 262.751 511.909 257.473C512.777 252.196 512.364 246.617 509.973 241.796C505.485 246.382 499.474 249.378 493.229 251.26C486.985 253.144 480.462 253.985 473.978 254.82C466.043 255.843 457.105 256.614 450.876 251.773C449.213 250.48 447.733 248.786 445.66 248.296C444.322 247.981 442.916 248.219 441.54 248.169C438.059 248.042 434.74 245.886 433.317 242.826C431.931 239.85 432.014 235.911 429.195 234.107C427.711 233.157 425.792 233.108 424.183 232.372C421.365 231.083 420.009 227.885 418.909 225.075C414.101 229.97 408.325 233.977 401.982 236.818C401.394 239.817 401.217 244.703 402.174 247.612C400.964 252.06 400.906 256.795 402.002 261.271C400.02 259.974 398.575 257.943 398.032 255.699C397.49 253.452 397.855 251.016 399.039 249.011C395.453 249.779 391.864 250.578 388.502 252C385.94 253.083 383.001 252.639 380.222 252.334C377.443 252.03 374.368 251.965 372.153 253.612C369.36 255.686 369.067 259.806 370.443 262.933C372.059 266.601 373.877 270.542 377.947 271.269C385.35 272.595 394.365 266.317 401.876 266.835C389.58 277.118 388.917 284.84 408.872 282.722C414.986 276.783 424.275 275.396 432.888 274.319C437.156 273.786 441.424 273.251 445.694 272.718C446.689 272.592 447.729 272.472 448.675 272.795C449.621 273.117 450.432 274.032 450.255 274.984C450.078 275.935 448.186 277.912 447.606 277.124C448.244 276.975 448.919 277.351 449.289 277.875C449.659 278.4 449.789 279.043 449.892 279.669C450.938 285.945 450.266 292.479 447.957 298.436C447.695 291.228 444.994 284.904 440.632 279.041C436.652 280.595 432.077 279.213 427.865 280.027C424.606 280.657 421.789 282.552 419.077 284.404C416.08 286.447 413.061 290.161 410.064 292.205C405.965 290.112 401.031 290.159 396.461 290.938C391.891 291.717 387.453 293.168 382.847 293.724C371.445 295.104 359.624 290.947 348.524 293.817C345.978 294.475 343.519 295.498 340.908 295.85C338.846 296.129 336.748 295.98 334.67 295.831C332.774 295.695 330.846 295.552 329.062 294.92C327.278 294.288 325.144 292.654 324.434 290.956C342.026 275.45 353.166 250.873 375.441 242.668C388.919 237.702 402.43 230.287 414.605 222.831C416.688 213.691 413.148 203.57 405.745 197.503C410.891 199.765 415.616 202.907 419.635 206.738C421.226 208.255 422.728 209.91 423.667 211.866C424.606 213.823 425.595 216.035 424.806 218.053C431.463 216.234 436.869 211.689 442.659 208.041C448.451 204.394 455.923 202.838 462.515 204.865C458.203 206.52 455.54 210.808 454.399 215.142C453.258 219.473 453.33 224.007 452.729 228.438C452.216 232.223 451.373 236.584 454.005 239.442C455.917 241.518 459.03 242.012 461.888 242.379C465.452 242.839 469.015 243.296 472.599 243.583C478.012 244.017 483.459 244.056 488.879 243.702C490.822 243.575 492.826 243.378 494.532 242.472C496.656 241.341 498.024 239.269 499.301 237.284C501.608 233.699 503.95 230.03 504.912 225.917C505.974 221.368 505.216 216.445 502.827 212.39C500.438 208.333 496.439 205.182 491.837 203.725C489.991 203.14 487.924 202.745 486.655 201.328C485.174 199.674 485.301 197.249 485.304 195.065C485.306 192.881 483.499 190.548 481.505 189.51C479.236 190.254 476.968 190.997 474.7 191.741C474.097 191.938 473.48 192.145 472.996 192.542C472.418 193.015 472.093 193.703 471.734 194.346C470.522 196.521 468.966 199.998 466.819 201.345C469.782 203.164 473.079 205.525 473.178 208.907C473.225 210.502 472.512 212.038 472.492 213.633C472.458 216.141 474.099 218.349 475.713 220.317C478.736 224.005 482.657 227.894 487.532 227.656C488.977 227.585 490.401 227.141 491.844 227.244C493.288 227.348 494.213 229.601 494.668 230.924C495.473 233.27 493.646 236.025 494.823 238.222C495.361 239.228 496.417 239.86 497.423 240.445C498.143 240.862 498.927 241.293 499.763 241.211C500.332 241.155 500.843 240.864 501.379 240.676C501.917 240.488 503.616 240.646 504.062 240.989C511.051 238.678 517.544 234.75 522.26 229.271C526.976 223.793 529.818 216.717 529.531 209.606C529.446 207.482 529.085 205.357 528.321 203.36C526.895 199.631 524.15 196.532 521.46 193.517C520.211 192.121 518.965 190.723 517.717 189.326C514.482 185.705 510.546 181.769 505.588 181.924C503.208 182 500.938 183.051 498.555 183.04C495.98 183.027 493.588 181.782 491.042 181.408C488.496 181.037 485.194 181.883 484.833 184.337C475.278 176.168 462.426 171.546 449.663 172.133C438.658 172.64 428.376 178.333 420.312 185.56C418.073 184.805 415.686 186.033 413.657 187.218C405.761 191.828 397.864 196.435 389.966 201.045C380.854 206.362 370.595 213.426 364.595 221.901C352.229 225.382 342.82 235.16 336.008 245.689C334.087 248.657 332.303 251.719 330.156 254.544C328.022 257.354 325.041 259.044 322.773 261.562C320.85 263.697 319.805 267.059 318.131 269.444C316.42 271.878 314.332 274.306 311.469 275.51C311.637 278.044 310.559 280.538 308.992 282.582C307.426 284.626 305.393 286.285 303.378 287.926C301.513 289.443 299.57 291.003 297.216 291.627C294.67 292.304 291.951 291.806 289.333 292.145C286.715 292.484 283.044 294.866 283.109 297.408C280.029 301.768 278.742 307.269 279.585 312.478C279.729 313.372 280.076 314.41 280.977 314.66C282.073 314.965 283.017 313.885 283.559 312.919C284.931 310.476 285.946 307.847 286.56 305.134C283.727 310.051 283.609 316.324 286.258 321.335C290.344 317.161 292.944 311.66 293.529 305.952C291.503 310.961 291.498 316.7 293.516 321.711C297.304 316.861 299.487 310.868 299.677 304.804C299.173 309.423 299.785 314.151 301.455 318.51C304.254 316.013 304.487 311.906 304.64 308.236C305.119 296.731 303.434 285.338 308.784 275.04C317.956 257.382 328.154 237.808 328.883 218.077C326.749 219.758 318.873 220.563 316.136 220.239C314.988 220.103 313.807 219.784 312.7 220.105C310.667 220.696 309.936 223.021 309.167 224.926C306.213 232.251 299.729 239.114 292.823 243.296C294.381 248.886 294.24 254.902 292.424 260.419C291.669 262.71 290.156 265.259 287.661 265.399C285.2 265.538 283.4 263.246 282.277 261.133C279.747 256.376 278.142 251.165 277.572 245.847C277.104 250.209 276.638 254.57 276.169 258.934C276.075 259.812 275.972 260.718 275.515 261.485C275.058 262.249 274.145 262.836 273.249 262.652C272.377 262.473 271.819 261.672 271.373 260.928C266.964 253.586 263.517 245.677 262.658 237.236C266.143 237.282 269.629 237.327 273.114 237.37C275.279 237.398 277.447 237.426 279.612 237.368C285.328 237.212 291.025 236.451 296.571 235.1C297.711 234.821 298.868 234.511 299.845 233.88C302.562 232.137 304.265 228.179 304.595 225.052C303.692 235.35 302.777 245.711 300.022 255.699C297.055 266.459 290.53 277.254 284.357 286.67C282.492 283.761 280.285 281.056 277.792 278.622C276.671 277.528 275.466 276.451 274.809 275.05C273.966 273.255 274.04 271.183 272.72 269.603C271.525 268.175 270.633 267.329 269.81 265.512C268.114 261.769 266.511 257.965 263.815 254.76C257.584 247.36 259.652 236.237 255.358 227.656C253.589 224.124 250.788 221.13 249.14 217.544C246.966 212.815 246.968 207.461 247.006 202.29C247.058 195.147 246.735 188.375 246.789 181.231C242.974 180.681 239.3 179.08 237.267 175.922C242.015 178.078 247.932 176.796 251.832 173.415C252.982 183.154 253.163 192.999 252.375 202.771C252.02 207.165 252.242 212.526 253.388 216.793C256.62 218.489 260.93 218.031 263.7 215.698C264.716 217.315 267.092 217.513 269.01 217.114C270.929 216.715 272.836 215.906 274.777 216.188C277.819 216.631 280.175 219.661 283.239 219.406C285.621 219.207 287.674 217.008 290.012 217.487C291.87 217.867 293.025 219.825 294.872 220.254C296.232 220.571 297.635 219.98 298.837 219.292C300.04 218.603 301.222 217.783 302.604 217.574C303.987 217.364 305.646 218.042 305.911 219.365C307.199 208.173 312.496 197.292 318.74 187.768C316.721 195.628 310.875 213.864 312.527 215.483C315.235 212.953 316.651 212.621 320.341 211.859C322.392 211.434 328.829 212.822 329.786 214.619C332.157 201.002 332.96 187.475 339.662 175.268C342.085 170.857 344.801 166.511 346.047 161.666C347.294 156.823 346.823 151.251 343.405 147.5C342.354 146.343 340.89 145.349 339.299 145.478C336.129 145.735 334.834 149.98 331.763 150.776C329.457 151.374 327.146 149.749 325.734 147.895C324.324 146.041 323.351 143.829 321.529 142.345C319.706 140.86 316.647 139.852 315.3 141.751C315.208 143.782 313.509 145.403 311.729 146.495C309.95 147.587 307.939 148.413 306.525 149.924C305.642 150.867 305.05 152.024 304.339 153.094C302.495 155.874 299.792 158.118 296.662 159.465C294.589 160.358 292.207 160.857 290.044 160.192C287.878 159.527 285.61 158.228 285.958 156.068C282.555 152.513 279.921 148.335 277.687 144.006C273.654 136.196 270.85 127.801 269.4 119.192C267.435 122.969 263.819 125.919 259.625 127.164C258.852 127.395 258.269 127.861 257.738 128.448C256.133 130.225 256.382 132.883 256.723 135.214C256.978 136.967 256.918 140.227 257.173 141.978C259.079 142.198 260.688 143.374 262.27 144.418C263.853 145.463 265.671 146.449 267.574 146.214C269.476 145.979 271.171 143.903 270.256 142.28C272.841 141.686 273.029 137.871 275.365 136.654C276.741 135.937 278.456 136.341 279.964 135.939C281.472 135.538 282.616 134.388 283.736 133.337C287.291 130.009 292.059 127.188 296.537 125.14C295.461 129.174 298.263 133.216 301.428 136.051C304.593 138.887 308.387 141.317 310.284 145.059C312.814 150.049 311.317 155.971 309.799 161.327C309.196 163.459 308.73 166.084 310.414 167.583C307.379 173.22 307.211 181.076 308.849 187.227C310.79 186.333 312.415 184.814 313.397 182.971C316.806 177.306 321.28 172.234 326.536 168.08C326.729 168.967 328.145 168.505 328.813 167.866C332.48 164.368 336.23 160.755 338.297 156.202C340.363 151.648 340.386 145.873 336.979 142.142C339.386 137.633 339.709 132.135 337.842 127.393C338.693 125.729 338.308 123.701 337.458 122.037C336.609 120.373 335.342 118.942 334.338 117.36C331.866 113.456 331.088 108.762 328.876 104.718C325.72 98.9494 319.556 94.8015 312.845 93.9297C313.424 92.7384 312.641 91.2666 311.48 90.576C310.319 89.8854 308.896 89.7775 307.536 89.6868C304.472 89.484 301.405 89.2833 298.341 89.0804C292.818 88.7157 287.089 88.3812 281.921 90.2954C278.095 91.7133 274.858 94.2685 271.695 96.7805C269.573 98.466 267.412 100.195 265.957 102.446C262.553 107.713 264.841 116.903 260.574 121.551C258.22 124.115 255.389 126.174 251.973 127.119C251.066 128.218 249.454 128.479 247.995 128.483C246.538 128.487 245.02 128.321 243.673 128.856C242.416 129.355 241.49 130.395 240.627 131.405C235.788 137.079 232.099 142.936 231.39 150.245C230.557 158.85 231.541 167.51 232.527 176.099C233.905 188.118 240.204 201.036 236.517 212.597C234.154 219.999 235.705 228.12 238.91 235.223C242.113 242.325 246.874 248.65 251.247 255.148C255.62 261.646 260.54 269.312 262.113 276.906C264.57 276.943 266.677 278.611 268.224 280.448C269.77 282.287 271.005 284.397 272.877 285.932C274.293 287.093 276.035 287.887 277.283 289.214C278.532 290.541 279.123 292.749 277.877 294.078C276.548 295.496 274.078 295.015 272.433 293.947C270.788 292.879 269.429 291.331 267.549 290.723C271.57 293.204 274.759 296.912 276.546 301.179C274.564 302.219 272.059 301.914 270.044 300.933C268.031 299.953 266.403 298.382 264.817 296.839C268.172 299.75 271.335 302.871 274.273 306.175C275.064 307.064 275.811 308.512 274.874 309.261C274.195 309.802 273.177 309.457 272.393 309.066C267.67 306.708 263.467 303.386 260.143 299.387C263.006 303.751 264.543 308.909 264.523 314.069C264.518 315.031 264.377 316.145 263.534 316.663C262.544 317.272 261.154 316.609 260.585 315.621C260.015 314.632 260.018 313.445 259.95 312.314C259.682 307.754 258.014 303.278 255.21 299.592C255.983 304.116 255.777 308.792 254.607 313.238C254.466 313.775 254.17 314.423 253.594 314.434C253.013 314.444 252.691 313.801 252.525 313.266C250.96 308.274 249.806 302.901 246.202 299.01C248.053 302.963 248.111 307.223 247.168 311.464C241.679 309.34 235.495 311.25 229.922 313.158C222.239 315.791 214.555 318.424 206.872 321.059C200.452 323.258 193.585 325.302 186.771 325.267C184.798 323.491 184.312 320.627 184.592 318.042C184.872 315.457 185.796 312.97 186.181 310.396C186.567 307.821 186.327 304.972 184.585 302.985C199.034 297.018 216.27 302.564 231.101 297.544C234.986 296.23 238.585 294.221 242.465 292.889C243.886 292.402 245.415 291.961 246.43 290.884C247.54 289.708 247.795 288.031 248.223 286.497C249.541 281.769 253.004 277.636 257.525 275.394C255.396 271.541 253.457 268.227 251.386 264.344C243.44 249.455 233.258 235.676 221.255 223.569C214.533 216.788 206.731 210.273 197.173 208.486C205.628 216.534 214.08 224.581 222.535 232.626C228.519 238.324 234.56 244.084 239.07 250.927C243.611 257.818 246.522 265.691 251.767 272.1C248.524 272.569 245.554 274.554 243.965 277.316C242.373 280.079 240.452 284.982 241.755 287.878C233.506 273.736 225.655 257.887 211.364 249.302C204.081 244.928 199.105 237.862 193.717 231.431C188.329 224.998 181.784 218.722 173.372 217.082C171.276 216.674 169.035 216.583 167.06 217.371C164.238 218.497 162.44 221.221 161.414 223.992C159.722 228.561 159.668 233.675 161.266 238.276C162.534 241.93 164.778 245.189 166.479 248.676C168.181 252.164 169.348 256.143 168.281 259.855C167.708 261.856 166.495 263.802 166.816 265.855C167.06 267.417 168.158 268.712 168.833 270.154C169.929 272.495 169.857 275.314 168.642 277.599C167.614 279.537 165.8 281.154 165.437 283.301C164.901 286.465 167.705 289.208 170.503 290.943C173.302 292.676 176.732 294.022 178.054 296.964C183.985 298.03 190.265 297.205 195.685 294.652C198.682 293.241 201.676 290.887 201.898 287.684C202.057 285.383 200.674 283.171 198.785 281.756C196.895 280.34 194.557 279.604 192.231 279.06C187.459 277.942 188.093 280.8 183.191 281.087C182.736 287.321 177.16 283.277 172.433 287.561C171.088 283.461 170.303 282.744 171.536 278.497C172.769 274.25 176.344 273.378 180.273 271.112C180.571 257.037 169.31 244.917 167.835 230.911C167.472 231.588 166.551 231.832 165.771 231.696C164.991 231.56 164.303 231.135 163.608 230.768C160.329 229.042 155.895 229.236 152.249 230.02C153.95 232.447 151.809 235.825 152.69 238.628C153.118 239.992 154.212 241.047 155.109 242.183C156.005 243.316 156.758 244.755 156.348 246.125C155.907 247.595 154.279 248.43 152.726 248.76C151.173 249.088 149.532 249.084 148.062 249.663C144.31 251.139 142.068 258.032 138.016 258.047C131.677 258.07 125.229 257.835 119.228 255.869C113.228 253.903 107.658 249.971 105.159 244.362C101.77 236.753 104.856 227.466 111.025 221.698C117.193 215.929 125.724 214.738 134.268 213.799C135.317 214.127 135.503 215.545 135.053 216.514C134.602 217.483 133.748 218.236 133.298 219.205C131.755 222.514 135.469 226.075 135.169 229.691C134.994 231.8 133.28 233.708 131.137 234.174C128.994 234.64 126.594 233.632 125.491 231.8C124.903 230.822 124.173 229.413 123.061 229.771C121.913 230.14 122.281 231.752 122.122 232.907C121.79 235.313 118.294 236.826 118.787 239.207C119.145 240.942 121.6 242.198 120.988 243.866C120.629 244.846 119.408 245.191 118.542 245.815C116.765 247.099 116.57 249.719 117.498 251.663C118.428 253.608 120.203 255.032 121.922 256.389C118.486 255.813 114.389 257.822 110.91 258.077C108.57 258.247 106.233 258.418 103.893 258.588C103.283 258.634 102.631 258.668 102.097 258.381C101.29 257.945 101.05 256.94 101.026 256.048C101.006 255.243 101.106 254.4 101.573 253.731C102.037 253.062 102.198 252.988 102.989 253.254C97.0114 252.106 93.0755 246.747 89.7807 241.809C87.3353 238.143 84.8272 234.28 84.4573 229.937C84.1458 226.273 85.4122 222.626 87.2636 219.41C90.5808 213.648 95.8504 208.95 102.068 206.205C108.288 203.462 115.425 202.687 122.122 204.032C132.401 206.093 146.163 209.835 150.305 219.125C151.081 220.865 152.332 222.406 153.898 223.55C154.636 224.089 155.566 224.56 156.456 224.313C157.22 224.102 157.736 223.418 158.083 222.727C159.087 220.738 159.161 218.333 158.283 216.29C161.196 218.508 164.639 222.626 166.508 225.716C172.713 223.677 180.598 225.861 186.078 229.327C183.77 221.601 186.625 213.219 191.121 206.444C192.186 204.841 193.183 204.355 195.075 203.807C189.292 200.283 183.337 196.949 176.924 194.642C169.25 191.882 161.232 189.924 154.201 185.876C145.056 180.608 133.468 179.563 122.815 179.833C111.652 180.116 101.073 185.83 93.7883 193.975C86.5037 202.122 82.2899 212.5 80.3062 223.079C78.475 232.855 79.1048 244.162 75.281 253.387C71.5692 262.344 70.4396 272.275 72.0511 281.792C72.412 283.927 72.9118 286.052 73.7927 288.04C75.0255 290.822 76.9665 293.256 79.0197 295.546C85.457 302.719 93.9967 310.029 102.613 314.619C107.835 314.108 112.972 312.994 118.094 311.885C120.12 311.445 122.16 311.002 124.065 310.204C126.932 309.004 129.382 307.051 131.675 305.005C134.19 302.763 136.637 300.272 137.783 297.162C138.229 295.952 138.471 294.659 139.112 293.532C140.407 291.249 144.348 289.98 146.82 288.933C149.326 291.355 153.096 291.94 156.389 293.219C160.242 294.717 163.552 297.24 167.076 299.361C170.599 301.483 175.786 304.515 179.93 304.228C178.448 306.962 177.305 310.016 177.686 313.078C177.962 315.303 179.024 317.379 179.361 319.596C179.551 320.85 179.45 322.261 178.545 323.18C177.792 323.942 176.061 324.594 174.968 324.562C171.854 324.469 168.662 324.361 165.785 323.211C162.824 322.028 160.389 319.812 157.384 318.737C153.109 317.207 148.369 318.184 143.886 318.985C137.718 320.088 131.48 320.822 125.217 321.184C121.449 321.402 117.693 321.98 114.456 320.109C115.911 324.279 117.906 328.33 120.853 331.692C123.801 335.052 127.768 337.694 132.24 338.596C133.168 338.783 134.138 338.902 134.958 339.364C135.465 339.649 135.886 340.048 136.312 340.437C140.475 344.254 140.076 347.647 145.312 349.932C145.76 346.695 150.144 345.066 147.553 341.947C146.858 341.112 145.773 338.898 145.984 337.847C149.711 337.955 147.907 337.452 150.751 335.13C153.596 332.808 155.765 330.356 156.265 326.8C158.697 332.346 163.935 336.675 169.998 338.147C172.078 338.652 174.331 338.876 176.046 340.117C177.924 341.477 178.769 343.808 179.042 346.054C179.305 348.212 179.074 350.569 177.653 352.259C176.413 353.733 174.472 354.471 172.583 355.01C169.9 355.776 167.392 355.356 164.592 355.356H-24.5859" stroke="#131316" stroke-width="1.32252" stroke-miterlimit="10" stroke-linecap="round" stroke-linejoin="round"/>
</g>
<defs>
<clipPath id="clip0_556_13428">
<rect width="548" height="548" fill="white"/>
</clipPath>
</defs>
</svg>
