<svg width="548" height="548" viewBox="0 0 548 548" fill="none" xmlns="http://www.w3.org/2000/svg">
<g clip-path="url(#clip0_556_13362)">
<g clip-path="url(#clip1_556_13362)">
<g clip-path="url(#clip2_556_13362)">
<path d="M529.016 479.85V481.174L385.981 481.168C385.886 481.168 385.792 481.145 385.707 481.103C385.622 481.06 385.548 480.999 385.491 480.923C385.434 480.848 385.396 480.76 385.379 480.667C385.362 480.574 385.367 480.478 385.394 480.388C386.259 477.442 387.555 472.832 386.481 469.93C386.402 469.718 386.275 469.528 386.11 469.374C385.945 469.22 385.746 469.107 385.53 469.044C385.314 468.981 385.087 468.969 384.866 469.01C384.645 469.051 384.437 469.144 384.258 469.28C377.9 474.132 368.411 473.135 361.046 471.316C359.753 470.994 358.511 470.866 357.317 470.932C342.92 471.706 330.048 471.916 314.337 471.112C306.908 470.736 300.887 469.767 296.273 468.203C290.643 466.297 286.317 462.818 283.296 457.764C283.285 457.746 283.269 457.731 283.251 457.721C283.233 457.711 283.212 457.705 283.191 457.705C283.17 457.705 283.149 457.711 283.131 457.721C283.113 457.731 283.097 457.746 283.086 457.764C275.036 471.446 269.27 486.719 270.177 502.882C270.179 502.923 270.172 502.964 270.158 503.002C270.143 503.04 270.121 503.075 270.093 503.105C270.065 503.134 270.031 503.158 269.993 503.174C269.956 503.19 269.915 503.198 269.875 503.198L-72.4738 503.21C-72.7454 503.21 -72.9224 503.338 -73.0047 503.594C-73.0623 503.776 -73.0912 503.961 -73.0912 504.151C-73.0912 504.407 -72.978 504.594 -72.7516 504.714C-72.1301 505.036 -71.4655 505.228 -70.7576 505.29C-70.6422 505.299 -70.5353 505.354 -70.4601 505.444C-70.3849 505.533 -70.3476 505.649 -70.3563 505.766L-70.3871 506.212C-70.4077 506.538 -70.5744 506.651 -70.8872 506.552L-78.5115 504.089C-78.7214 504.019 -78.8717 503.885 -78.9622 503.687L-79.061 503.47C-79.098 503.387 -79.1585 503.317 -79.2352 503.268C-79.3118 503.218 -79.4014 503.192 -79.4931 503.192H-88.3398V501.954C-82.0984 501.806 -77.1657 502.294 -70.8008 499.559C-70.4345 499.402 -70.2719 499.522 -70.3131 499.918L-70.3501 500.259C-70.368 500.433 -70.4413 500.596 -70.5591 500.726C-70.6769 500.855 -70.8331 500.943 -71.0045 500.976C-71.6671 501.108 -72.1528 501.247 -72.4615 501.391C-73.6385 501.952 -73.5809 502.154 -72.2886 501.997C-71.7247 501.931 -70.953 501.898 -69.9735 501.898C42.8215 501.903 155.614 501.894 268.405 501.874C268.607 501.874 268.704 501.773 268.696 501.57C268.109 485.357 274.202 469.757 282.339 456.149C282.446 455.975 282.467 455.792 282.401 455.598C279.401 446.835 283.673 437.089 293.365 435.752C293.457 435.741 293.544 435.706 293.618 435.649C293.692 435.592 293.749 435.517 293.785 435.43C302.928 413.567 300.866 391.098 292.544 369.389C287.803 357.029 282.302 345.014 276.042 333.343C271.856 325.546 267.798 317.682 263.868 309.753C263.522 309.064 263.244 308.377 263.034 307.693C263.023 307.655 263.002 307.622 262.974 307.596C262.945 307.57 262.91 307.552 262.871 307.545C262.833 307.537 262.793 307.54 262.755 307.553C262.718 307.566 262.684 307.588 262.658 307.618C254.577 317.402 245.86 327.247 238.451 337.037C228.808 349.779 217.369 360.485 204.583 370.367C185.655 384.996 166.276 397.719 147.453 411.878C146.741 412.41 146.155 413.103 145.694 413.957C143.508 418.004 140.714 421.587 137.31 424.706C130.819 430.659 123.8 435.903 116.252 440.437C114.61 441.421 112.758 442.813 111.27 444.082C104.845 449.569 98.2683 454.866 91.5391 459.973C89.5574 461.483 84.847 464.868 82.5195 464.323C78.8092 463.445 80.2785 459.843 82.0442 457.665C87.5263 450.913 94.7988 446.229 100.608 439.88C101.283 439.141 101.149 438.937 100.207 439.267C98.7251 439.779 97.1138 440.527 95.3729 441.513C90.0389 444.537 84.8038 447.722 79.6674 451.068C75.2965 453.921 64.5915 461.05 59.3502 458.488C52.9297 455.357 64.0544 448.76 66.9992 447.077C72.9505 443.677 78.9389 440.336 84.9643 437.052C85.952 436.515 86.625 436.109 86.983 435.833C88.2507 434.867 88.1581 434.717 86.7052 435.381C77.4881 439.595 66.493 446.866 60.054 450.462C56.5885 452.397 53.936 453.548 52.0962 453.915C49.9108 454.342 47.0401 453.333 47.4599 450.684C47.8303 448.382 51.2196 445.325 53.0285 443.84C53.0816 443.793 53.1163 443.729 53.1262 443.659C53.1362 443.589 53.1208 443.517 53.0827 443.457C53.0447 443.398 52.9866 443.353 52.9189 443.333C52.8512 443.312 52.7784 443.317 52.7136 443.345C50.9418 444.212 47.997 443.853 47.8365 441.445C47.3858 434.539 64.894 424.799 70.123 422.008C79.0747 417.225 88.545 411.624 95.91 404.563C96.5562 403.94 97.05 403.272 97.3916 402.558C97.4201 402.5 97.4339 402.436 97.4317 402.371C97.4296 402.306 97.4115 402.243 97.3792 402.187C97.3469 402.13 97.3013 402.083 97.2464 402.048C97.1915 402.014 97.129 401.994 97.0645 401.989C96.2537 401.94 95.4737 401.983 94.7247 402.119C87.6251 403.412 74.6729 406.055 68.45 401.989C65.4126 400.009 67.0116 396.989 69.5736 395.652C70.9318 394.943 72.3661 394.47 73.8766 394.235C82.8159 392.841 91.7634 391.492 100.719 390.188C107.946 389.136 115.202 388.868 122.487 389.384C124.508 389.528 127.07 388.854 130.173 387.36C136.378 384.384 141.78 379.779 146.607 374.928C158.084 363.381 167.184 351.245 177.666 336.796C183.169 329.217 189.312 322.722 196.094 317.309C208.065 307.761 217.924 300.805 225.709 290.848C229.413 286.108 231.928 281.772 233.253 277.84C236.747 267.457 240.013 257.401 248.477 249.851C252.181 246.54 258.114 243.291 262.818 240.03C263.555 239.519 263.497 239.401 262.645 239.677C258.818 240.921 254.361 241.837 250.619 239.677C250.434 239.57 250.261 239.587 250.101 239.727C244.736 244.442 240.038 248.391 233.463 251.404C233.373 251.445 233.292 251.504 233.226 251.578C233.159 251.651 233.107 251.737 233.074 251.831C230.407 259.412 229.37 266.132 222.727 271.485C221.567 272.426 220.56 273.368 219.708 274.313C216.679 277.688 213.113 280.388 209.01 282.414C208.812 282.513 208.721 282.673 208.738 282.896C209.294 290.112 208.497 294.784 203.602 300.558C193.211 312.81 177.636 314.506 162.659 314.141C162.313 314.132 162.144 313.953 162.152 313.602L162.158 313.448C162.163 313.266 162.234 313.092 162.358 312.958C162.481 312.823 162.65 312.738 162.831 312.717C176.345 311.177 187.013 306.999 192.026 293.336C192.611 291.743 192.948 290.112 193.039 288.441C193.04 288.402 193.033 288.363 193.018 288.327C193.002 288.291 192.978 288.259 192.949 288.234C192.919 288.209 192.883 288.191 192.845 288.182C192.808 288.173 192.768 288.172 192.73 288.181C188.816 289.035 183.896 289.487 180.093 288.026C175.111 286.114 177.611 280.421 180.704 277.915C182.21 276.685 183.941 276.201 185.896 276.46C190.662 277.092 193.792 281.417 194.329 286.071C194.354 286.298 194.477 286.384 194.699 286.331C198.881 285.308 202.912 283.862 206.793 281.993C206.87 281.954 206.932 281.89 206.969 281.811C207.006 281.733 207.016 281.644 206.997 281.56C206.227 278.263 205.032 275.111 203.41 272.104C203.229 271.766 203.163 271.485 203.213 271.262C203.27 271.015 203.414 270.833 203.645 270.718C203.83 270.631 204.011 270.639 204.188 270.742C208.553 273.304 213.998 274.251 218.739 272.16C223.221 270.186 225.197 257.531 226.289 253.521C226.347 253.302 226.265 253.184 226.042 253.168C223.087 252.99 220.723 252.151 218.949 250.649C215.658 247.865 215.276 243.05 216.424 239.003C218.325 232.301 223.104 226.626 228.685 222.647C228.764 222.592 228.855 222.554 228.951 222.538C229.047 222.522 229.146 222.528 229.24 222.555C229.524 222.645 229.693 222.825 229.747 223.093C229.784 223.27 229.734 223.485 229.598 223.737C229.051 224.76 228.516 225.783 227.993 226.806C225.913 230.878 223.246 240.538 231.29 239.22C232.463 239.028 232.907 238.755 233.519 237.685C237.066 231.472 241.474 224.558 246.742 216.942C247.187 216.298 247.691 215.906 248.255 215.766C248.319 215.751 248.385 215.749 248.449 215.761C248.514 215.773 248.575 215.799 248.628 215.836C248.681 215.874 248.726 215.923 248.758 215.979C248.791 216.035 248.811 216.097 248.817 216.162C248.866 216.678 248.796 217.344 248.607 218.161C246.631 226.725 242.007 235.408 234.099 239.814C233.889 239.933 233.731 240.102 233.624 240.321L228.666 250.804C228.448 251.266 228.584 251.425 229.074 251.28L231.481 250.575C231.667 250.521 231.838 250.426 231.981 250.296C232.123 250.166 232.233 250.005 232.302 249.826C235.426 241.769 241.229 236.292 247.205 230.469C247.307 230.37 247.435 230.302 247.575 230.273C247.715 230.245 247.861 230.257 247.996 230.308C248.477 230.49 248.747 230.929 248.804 231.627C248.92 233.017 249.284 234.681 249.897 236.62C250.107 237.297 250.469 237.39 250.984 236.899C257.83 230.352 267.436 229.584 276.456 231.88C276.645 231.93 276.826 231.905 276.999 231.806C292.427 222.802 285.593 205.506 281.771 192.498C281.376 191.141 281.238 189.458 281.358 187.449C281.363 187.363 281.389 187.28 281.434 187.208C281.478 187.135 281.538 187.076 281.611 187.034C282.277 186.654 282.993 186.421 283.759 186.335C283.952 186.31 284.051 186.199 284.055 186.001C284.111 172.523 282.685 161.149 281.364 148.704C280.073 136.507 280.876 124.848 288.136 114.57C288.26 114.392 288.216 114.326 288.006 114.372L275.9 116.791C275.835 116.804 275.774 116.835 275.724 116.879C275.674 116.924 275.637 116.981 275.616 117.045C274.908 119.207 274.507 121.403 274.412 123.635C274.054 132.423 275.585 141.179 277.203 149.781C279.178 160.332 280.135 173.407 279.11 185.054C277.481 203.563 268.047 218.093 253.601 229.213C253.49 229.301 253.349 229.345 253.206 229.337C252.786 229.304 252.537 229.114 252.459 228.768C252.41 228.561 252.459 228.31 252.607 228.013C256.941 219.386 260.287 209.572 259.287 200.203C258.515 193.043 255.212 184.893 253.564 177.238C251.766 168.863 250.774 160.458 250.588 152.021C250.576 151.357 250.475 151.342 250.286 151.978C248.043 159.54 246.93 167.314 246.946 175.301C246.958 180.054 247.668 186.056 248.02 191.409C248.706 201.911 245.057 209.448 240.205 218.309C238.069 222.216 236.43 226.34 235.29 230.68C235.267 230.77 235.224 230.855 235.163 230.927C235.102 230.998 235.025 231.056 234.939 231.094C234.634 231.226 234.373 231.191 234.154 230.989C234.002 230.853 233.916 230.632 233.895 230.327C232.951 216.261 228.87 202.746 225.66 189.095C222.375 175.128 221.82 160.548 227.944 147.974C235.963 131.507 252.502 119.365 270.492 116.141C271.747 115.919 273.011 115.708 274.283 115.51C274.501 115.477 274.657 115.364 274.752 115.17C278.228 108.227 283.858 109.248 290.321 111.055C290.531 111.112 290.708 111.057 290.852 110.888C295.256 105.797 300.148 101.232 305.527 97.193C305.629 97.1142 305.753 97.0679 305.883 97.0602C306.012 97.0525 306.142 97.0837 306.255 97.1497C306.535 97.3106 306.603 97.5581 306.459 97.8923C303.899 103.998 299.821 108.627 294.223 111.779C293.799 112.018 293.824 112.202 294.297 112.329C299.458 113.728 304.539 115.551 309.54 117.8C313.12 119.409 315.806 121.665 317.596 124.57C317.712 124.751 317.862 124.894 318.047 124.997C320.574 126.387 322.136 128.514 322.733 131.377C322.767 131.543 322.765 131.715 322.726 131.88C322.686 132.045 322.61 132.198 322.504 132.33C322.224 132.681 321.891 132.854 321.504 132.85C321.228 132.85 321.212 132.914 321.455 133.042C322.34 133.52 323.048 133.823 323.578 133.951C327.097 134.78 330.647 135.449 334.228 135.956C339.92 136.761 341.167 140.009 337.333 144.36C337.193 144.517 337.14 144.7 337.173 144.911C337.399 146.445 337.994 147.763 338.957 148.865C340.58 150.715 345.266 150.845 344.47 154.063C344.396 154.368 344.511 154.546 344.816 154.595C346.643 154.9 347.606 155.878 347.705 157.528C347.89 160.678 347.384 162.312 350.007 165.084C351.584 166.751 352.773 168.139 353.576 169.249C358.027 175.394 344.42 181.762 340.5 183.835C339.722 184.247 339.089 184.814 338.599 185.536C336.677 188.354 335.214 190.557 334.209 192.146C311.614 227.938 346.729 265.47 372.609 285.829C378.301 290.31 384.018 294.283 388.666 300.366C397.822 312.334 390.944 324.327 386.197 336.282C383.526 343.015 381.902 350.004 381.326 357.248C380.322 369.922 380.439 382.57 381.678 395.194C383.413 412.874 386.012 430.585 389.197 448.061C390.358 454.397 390.16 461.854 386.172 467.442C386.045 467.624 386.075 467.77 386.265 467.882C389.728 469.905 388.03 476.118 387.117 479.491C387.051 479.73 387.139 479.85 387.382 479.85H529.016ZM303.021 100.788L293.211 110.182C293.208 110.184 293.206 110.187 293.205 110.191C293.203 110.194 293.202 110.197 293.202 110.201C293.202 110.204 293.203 110.208 293.205 110.211C293.206 110.214 293.208 110.217 293.211 110.219L293.229 110.244C293.442 110.465 294.156 110.187 295.216 109.472C296.275 108.757 297.592 107.664 298.878 106.432L299.02 106.296C300.305 105.065 301.454 103.796 302.215 102.768C302.975 101.74 303.285 101.037 303.076 100.813L303.051 100.788C303.047 100.785 303.042 100.783 303.036 100.783C303.03 100.783 303.025 100.785 303.021 100.788ZM288.241 112.806C288.356 112.781 288.459 112.716 288.531 112.624C288.604 112.531 288.642 112.415 288.639 112.298C288.636 112.18 288.592 112.066 288.515 111.977C288.438 111.888 288.332 111.829 288.216 111.81L282.734 110.925C282.649 110.911 282.562 110.92 282.481 110.949L279.16 112.125C279.091 112.149 279.028 112.187 278.975 112.237L276.913 114.223C276.835 114.299 276.784 114.399 276.767 114.507C276.75 114.614 276.769 114.724 276.819 114.821C276.87 114.917 276.95 114.995 277.048 115.042C277.146 115.089 277.256 115.104 277.363 115.083L288.241 112.806ZM268.597 302.822C269.128 302.678 269.761 302.736 270.498 302.996C282.487 307.179 300.292 312.328 310.034 300.168C315.491 293.361 316.201 283.738 314.368 275.415C310.021 255.748 294.729 240.581 274.499 238.143C272.585 237.912 270.601 237.666 268.547 237.406C268.402 237.389 268.265 237.332 268.151 237.241C268.037 237.151 267.95 237.029 267.9 236.892C267.851 236.754 267.841 236.606 267.871 236.462C267.902 236.319 267.971 236.188 268.072 236.082C268.949 235.154 272.943 233.99 274.153 233.44C274.807 233.147 274.783 232.93 274.079 232.79C265.998 231.231 257.873 232.351 251.681 238.161C251.644 238.197 251.615 238.241 251.599 238.291C251.583 238.34 251.579 238.393 251.587 238.444C251.596 238.496 251.616 238.545 251.648 238.587C251.679 238.63 251.72 238.664 251.768 238.687C255.12 240.302 259.046 239.207 262.454 238.347C263.261 238.145 263.932 238.186 264.467 238.471C264.583 238.533 264.684 238.622 264.76 238.73C264.837 238.838 264.887 238.962 264.908 239.093C264.928 239.224 264.918 239.357 264.878 239.484C264.837 239.61 264.769 239.725 264.677 239.82C260.744 243.848 255.842 246.212 251.329 249.374C244.1 254.43 239.044 264.598 236.198 273.434C234.992 277.18 234.039 279.784 233.34 281.244C222.104 304.598 197.039 313.763 181.957 333.628C173.493 344.779 165.325 356.128 156.182 366.741C148.706 375.423 140.767 383.641 131.13 388.486C127.025 390.553 123.956 390.856 118.894 390.658C113.235 390.44 107.592 390.727 101.966 391.519C92.4343 392.859 82.9188 394.299 73.4197 395.838C71.6047 396.131 70.0428 396.892 68.734 398.121C68.4625 398.375 68.2955 398.722 68.2658 399.093C68.2361 399.464 68.3458 399.832 68.5735 400.126C72.0245 404.551 86.9954 402.107 91.8107 401.055C93.4776 400.69 99.9352 399.334 98.8486 403.01C98.6099 403.811 97.795 404.852 96.4039 406.135C88.6993 413.215 79.4451 418.642 70.2589 423.574C63.9742 426.946 51.4974 433.784 49.2688 441C49.2305 441.123 49.2177 441.252 49.2313 441.38C49.2448 441.507 49.2843 441.631 49.3473 441.743C49.4104 441.855 49.4957 441.953 49.5979 442.03C49.7001 442.108 49.8171 442.164 49.9417 442.194C52.5963 442.844 58.3007 439.601 60.9615 437.807C67.4602 433.417 74.1256 429.294 80.9576 425.436C82.1491 424.762 85.3532 423.376 86.236 424.737C87.2608 426.315 84.4334 427.974 83.3838 428.512C76.4942 432.056 69.5798 435.55 62.6407 438.995C60.6199 440.001 58.8707 441.066 57.3932 442.188C55.2695 443.803 48.8366 448.58 48.8984 451.39C48.9025 451.609 48.9951 451.784 49.1762 451.916C50.2174 452.696 51.4089 452.815 52.7506 452.275C56.0761 450.942 59.2802 449.356 62.3629 447.516C68.1454 444.071 73.9506 440.664 79.7785 437.293C82.5072 435.721 85.8533 433.821 89.0018 433.382C89.1712 433.358 89.344 433.375 89.5053 433.433C89.6666 433.49 89.8115 433.585 89.9275 433.711C90.0436 433.836 90.1272 433.988 90.1714 434.153C90.2155 434.317 90.2188 434.491 90.1809 434.657C89.8352 436.21 84.6247 439.013 83.1863 439.775C78.5191 442.246 73.8807 444.764 69.2711 447.33C65.888 449.212 61.1714 451.879 59.0847 455.227C59.0318 455.313 58.9964 455.408 58.9805 455.507C58.9646 455.606 58.9686 455.706 58.9921 455.802C60.8318 463.049 84.2605 446.526 87.2176 444.583C89.3228 443.209 100.299 436.062 102.318 438.11C102.497 438.29 102.612 438.523 102.646 438.775C102.679 439.026 102.629 439.282 102.503 439.502C101.919 440.53 101.168 441.47 100.25 442.324C96.657 445.691 93.0084 448.993 89.3043 452.232C86.6373 454.558 82.7912 457.956 81.6429 461.378C81.61 461.477 81.5984 461.583 81.6091 461.687C81.6197 461.792 81.6523 461.893 81.7046 461.984C82.9949 464.218 86.5509 461.799 87.9523 460.802C98.009 453.692 106.794 444.849 117.135 438.215C126.79 432.027 137.699 424.422 143.872 414.409C144.156 413.947 144.459 413.314 144.78 412.509C144.858 412.315 144.844 412.132 144.737 411.958C142.292 407.93 138.304 404.149 134.859 400.943C134.711 400.803 134.536 400.754 134.334 400.795C129.945 401.643 124.092 405.659 121.283 408.023C117.227 411.439 113.245 414.075 108.584 414.588C107.732 414.683 107.695 414.91 108.473 415.269C114.32 417.98 119.19 420.863 122.598 426.693C122.663 426.803 122.693 426.93 122.684 427.058C122.675 427.186 122.628 427.308 122.548 427.408C122.468 427.508 122.36 427.581 122.238 427.618C122.116 427.655 121.985 427.654 121.864 427.615C121.267 427.429 120.66 427.064 120.042 426.519C113.085 420.381 105.207 417.701 96.5026 415.077C96.3888 415.043 96.2851 414.982 96.2004 414.898C96.1157 414.815 96.0526 414.712 96.0167 414.598C95.9808 414.485 95.9731 414.364 95.9943 414.247C96.0155 414.13 96.065 414.02 96.1384 413.926C96.4142 413.567 96.8648 413.411 97.4904 413.456C100.277 413.658 103.061 413.679 105.843 413.518C106.049 413.505 106.234 413.437 106.399 413.314C108.811 411.523 111.377 409.993 114.097 408.722C117.567 407.101 125.623 403.32 124.457 400.009C119.339 385.473 132.55 396.915 134.995 399.056C135.151 399.196 135.334 399.254 135.544 399.229C141.742 398.555 148.756 402.608 147.039 409.817C146.924 410.312 147.066 410.405 147.465 410.096C174.839 388.802 205.151 371.852 229.012 346.146C231.127 343.869 234.568 339.632 239.334 333.436C243.859 327.557 252.144 318.206 262.195 305.824C262.326 305.659 262.396 305.471 262.405 305.261C262.701 293.905 272.937 288.633 278.407 279.994C278.522 279.808 278.501 279.639 278.345 279.487C277.892 279.049 277.427 278.628 276.95 278.224C274.369 276.046 271.196 271.169 275.289 268.478C276.482 267.69 277.764 267.636 279.135 268.317C282.771 270.117 281.969 275.73 280.58 278.868C280.477 279.099 280.526 279.288 280.728 279.437L281.907 280.297C282.084 280.429 282.261 280.429 282.438 280.297C286.624 277.228 290.698 275.489 295.909 276.708C300.421 277.772 305.916 281.64 307.126 286.485C308.577 292.29 302.78 292.247 299.205 291.133C293.279 289.295 287.667 285.928 282.605 282.426C282.53 282.376 282.441 282.352 282.352 282.36C282.263 282.368 282.18 282.407 282.117 282.469C277.542 287.055 274.017 292.327 270.325 297.606C268.387 300.378 266.35 302.928 264.325 305.545C264.243 305.648 264.186 305.77 264.161 305.9C264.135 306.031 264.14 306.165 264.177 306.294C264.736 308.262 265.504 310.186 266.479 312.068C271.83 322.344 277.145 332.637 282.426 342.947C297.187 371.766 308.645 403.084 295.415 435.226C295.328 435.437 295.396 435.556 295.618 435.585C300.479 436.237 304.689 438.254 308.25 441.637C310.698 443.968 312.686 445.686 314.213 446.792C327.091 456.112 342.766 464.472 358.663 469.206C359.058 469.321 359.457 469.369 359.86 469.348C364.338 469.097 368.812 468.779 373.282 468.395C376.004 468.16 380.307 467.473 383.882 467.362C384.092 467.354 384.273 467.279 384.425 467.139C388.672 463.216 388.79 454.02 387.938 449.292C384.974 432.922 382.583 416.472 380.764 399.941C378.955 383.461 378.492 367.069 380.826 350.608C382.104 341.586 384.839 335.602 388.777 325.874C392.945 315.576 393.136 307.129 385.258 298.522C383.234 296.306 380.851 294.169 378.109 292.111C369.672 285.778 361.717 278.89 354.243 271.448C333.32 250.624 315.275 221.366 332.524 192.034C333.58 190.233 335.209 188.012 336.555 186.007C336.745 185.722 336.685 185.65 336.376 185.79C333.285 187.209 330.085 188.276 326.776 188.99C325.484 189.266 324.136 189.695 322.733 190.277C314.787 193.55 306.515 191.91 299.106 188.358C298.77 188.197 298.51 187.91 298.383 187.559C298.256 187.208 298.272 186.821 298.427 186.483C298.608 186.091 299.076 185.887 299.829 185.871C301.582 185.825 303.327 185.947 305.064 186.236C310.923 187.226 320.961 189.782 326.418 186.972C329.468 185.4 332.51 183.81 335.543 182.201C336.518 181.681 339.704 180.072 340.21 181.941C340.272 182.164 340.403 182.224 340.605 182.121C343.605 180.586 356.255 174.274 352.218 169.831C350.888 168.37 349.581 166.893 348.297 165.4C346.044 162.776 346.427 160.722 346.309 157.757C346.229 155.684 344.248 156.155 342.939 156.142C342.846 156.141 342.755 156.117 342.674 156.073C342.592 156.028 342.523 155.964 342.471 155.886C342.419 155.808 342.387 155.719 342.377 155.626C342.367 155.532 342.38 155.438 342.414 155.35L342.982 153.933C343.095 153.651 343.094 153.336 342.98 153.055C342.865 152.775 342.647 152.55 342.371 152.429C338.858 150.895 337.889 150.554 336.105 146.947C336.018 146.769 335.897 146.74 335.74 146.86C334.555 147.78 333.248 148.434 331.82 148.822C331.644 148.869 331.458 148.863 331.286 148.805C331.113 148.747 330.962 148.638 330.851 148.494C330.411 147.928 330.456 147.213 330.987 146.346C332.16 144.44 334.345 142.312 336.66 142.466C336.878 142.479 337.049 142.394 337.173 142.213C337.704 141.429 338.012 140.562 338.099 139.613C338.119 139.411 338.066 139.232 337.938 139.075C336.339 137.101 330.32 136.674 327.486 136.259C321.337 135.362 315.658 132.961 316.275 125.572C316.292 125.358 316.24 125.162 316.121 124.984C314.438 122.431 312.089 120.492 309.077 119.167C303.368 116.651 297.547 114.607 291.612 113.035C291.344 112.965 291.124 113.039 290.951 113.258C279.16 128.27 282.302 144.818 284.234 162.949C285.045 170.573 285.475 178.193 285.525 185.809C285.525 185.849 285.535 185.888 285.553 185.923C285.571 185.959 285.596 185.99 285.628 186.014C285.659 186.038 285.695 186.055 285.734 186.064C285.773 186.072 285.813 186.072 285.852 186.062L288.636 185.326C288.785 185.286 288.921 185.21 289.033 185.105C289.145 184.999 289.228 184.867 289.276 184.722C289.324 184.576 289.335 184.42 289.307 184.27C289.279 184.119 289.214 183.978 289.118 183.859L286.741 180.908C286.664 180.812 286.614 180.698 286.594 180.577C286.574 180.456 286.585 180.332 286.626 180.216C286.668 180.101 286.738 179.998 286.831 179.917C286.923 179.837 287.035 179.782 287.154 179.757C290.235 179.132 296.199 179.466 295.668 184.138C295.339 187.026 293.929 189.276 291.439 190.889C288.08 193.061 285.407 191.805 284.5 187.981C284.438 187.713 284.276 187.612 284.012 187.678L283.129 187.9C282.858 187.971 282.728 188.146 282.74 188.426C282.814 190.279 283.115 192.096 283.642 193.878C287.525 207.121 293.18 222.449 279.166 232.258C279.14 232.276 279.121 232.301 279.108 232.33C279.096 232.359 279.092 232.391 279.096 232.422C279.101 232.454 279.114 232.483 279.134 232.507C279.153 232.532 279.18 232.55 279.209 232.561C292.606 237.01 304.65 244.616 316.139 252.71C320.374 255.701 329.884 262.708 344.667 273.731C348.415 276.529 352.44 279.152 356.527 281.529C359.854 283.459 363.268 285.173 366.244 287.661C366.487 287.865 366.647 288.151 366.695 288.466C366.822 289.328 366.458 289.751 365.602 289.734C365.231 289.73 364.408 289.505 363.132 289.06C354.749 286.157 348.297 282.426 338.741 283.36C333.625 283.86 329.371 286.058 325.98 289.957C324.116 292.104 322.615 295.285 321.103 297.983C313.318 311.863 298.952 320.997 282.919 314.432C277.429 312.187 272.523 308.786 268.202 304.227C268.1 304.121 268.028 303.989 267.993 303.846C267.957 303.703 267.96 303.554 268 303.412C268.039 303.27 268.115 303.141 268.22 303.038C268.325 302.934 268.455 302.86 268.597 302.822ZM251.391 146.866C251.584 147.262 251.698 147.722 251.731 148.246C251.903 151.068 252.072 153.892 252.237 156.718C252.772 166.062 254.293 175.241 256.799 184.255C258.855 191.644 261.151 198.092 260.923 205.011C260.695 212.004 258.231 219.225 255.354 225.463C255.091 226.041 255.198 226.121 255.676 225.704C266.356 216.391 273.789 205.778 276.567 192.003C280.154 174.218 276.82 155.975 273.77 138.029C272.671 131.575 272.48 124.236 273.98 117.373C274.029 117.142 273.937 117.045 273.702 117.082C263.553 118.716 254.182 122.107 246.014 128.499C231.531 139.824 223.147 155.691 224.82 174.404C226.005 187.665 229.932 200.425 232.907 213.173C233.864 217.282 234.395 221.608 235 225.859C235.054 226.214 235.142 226.222 235.266 225.884C237.087 220.878 239.198 217.22 241.563 212.981C244.888 207.012 246.611 200.669 246.73 193.952C246.81 189.472 245.823 183.049 245.551 178.253C244.995 168.531 246.891 158.129 249.514 148.63C249.72 147.883 250.041 147.256 250.477 146.748C250.538 146.679 250.614 146.626 250.7 146.594C250.786 146.561 250.878 146.55 250.968 146.562C251.059 146.573 251.145 146.607 251.219 146.66C251.292 146.713 251.352 146.784 251.391 146.866ZM320.816 130.266C320.84 130.251 320.843 130.201 320.823 130.119C320.803 130.037 320.762 129.925 320.701 129.788C320.64 129.651 320.562 129.493 320.469 129.322C320.377 129.152 320.273 128.972 320.163 128.794C319.941 128.434 319.709 128.1 319.517 127.867C319.326 127.633 319.191 127.519 319.142 127.549C319.118 127.564 319.116 127.614 319.136 127.696C319.155 127.778 319.197 127.891 319.257 128.028C319.318 128.164 319.397 128.323 319.489 128.493C319.581 128.664 319.686 128.843 319.795 129.022C320.017 129.382 320.25 129.715 320.441 129.949C320.632 130.182 320.767 130.296 320.816 130.266ZM320.202 132.002L318.498 129.694C318.436 129.611 318.378 129.584 318.325 129.613L318.319 129.619C318.249 129.661 318.23 129.716 318.263 129.787C318.716 130.715 319.327 131.527 320.097 132.225C320.101 132.229 320.105 132.227 320.109 132.218L320.232 132.101C320.249 132.084 320.239 132.051 320.202 132.002ZM332.419 147.429C333.555 146.922 335.08 145.628 336.142 144.781C336.192 144.74 336.232 144.687 336.258 144.628C336.284 144.568 336.294 144.503 336.289 144.438C336.283 144.373 336.262 144.31 336.226 144.256C336.191 144.201 336.143 144.156 336.086 144.125L335.907 144.019C335.747 143.933 335.588 143.937 335.432 144.032C334.135 144.828 333.051 145.853 332.178 147.107C331.894 147.516 331.975 147.623 332.419 147.429ZM288.976 181.322C291.476 184.101 291.155 186.564 286.914 187.226C285.901 187.383 285.669 187.896 286.216 188.767L286.796 189.683C287.058 190.1 287.467 190.405 287.942 190.536C288.417 190.668 288.924 190.617 289.365 190.394C293.458 188.315 297.977 180.314 289.118 180.97C288.83 180.99 288.782 181.108 288.976 181.322ZM338.823 182.538C338.784 182.458 338.715 182.397 338.631 182.369C338.548 182.34 338.456 182.346 338.377 182.385L331.923 185.554C331.884 185.573 331.849 185.6 331.82 185.633C331.791 185.666 331.769 185.704 331.755 185.745C331.74 185.787 331.734 185.831 331.737 185.875C331.74 185.918 331.751 185.961 331.771 186.001L331.781 186.023C331.82 186.102 331.889 186.163 331.973 186.192C332.056 186.221 332.148 186.215 332.227 186.176L338.681 183.007C338.72 182.988 338.755 182.961 338.784 182.928C338.813 182.895 338.835 182.857 338.85 182.815C338.864 182.774 338.87 182.73 338.867 182.686C338.864 182.642 338.853 182.599 338.834 182.56L338.823 182.538ZM304.533 187.603C303.232 187.364 302.119 187.242 301.193 187.238C300.333 187.238 300.298 187.407 301.088 187.746C306.397 190.023 312.88 191.428 318.627 190.048C319.372 189.866 319.362 189.736 318.596 189.658C314.003 189.163 309.315 188.478 304.533 187.603ZM236.525 236.491C241.692 232.177 244.742 226.181 246.804 219.665C246.948 219.198 246.884 219.168 246.613 219.572C242.958 224.989 239.445 230.498 236.074 236.101C235.461 237.124 235.611 237.254 236.525 236.491ZM225.771 226.862C223.005 229.502 220.772 232.534 219.072 235.958C215.733 242.673 216.764 252.277 226.573 251.559C226.734 251.551 226.849 251.472 226.919 251.324L231.722 240.767C231.729 240.749 231.731 240.73 231.728 240.711C231.725 240.693 231.718 240.675 231.706 240.661C231.694 240.646 231.678 240.635 231.66 240.629C231.642 240.622 231.623 240.621 231.605 240.624C222.221 242.666 223.98 231.528 226.431 226.961C226.695 226.47 226.575 226.348 226.073 226.596C226.044 226.608 225.944 226.697 225.771 226.862ZM249.138 238.087C248.292 236.305 247.718 235.191 247.576 232.58C247.563 232.32 247.463 232.28 247.273 232.462C242.131 237.326 237.031 242.543 234.179 249.102C234.01 249.49 234.113 249.585 234.488 249.387C239.871 246.536 244.722 242.957 249.039 238.65C249.204 238.485 249.237 238.297 249.138 238.087ZM271.955 236.354C295.032 237.976 313.8 256.157 316.473 279.282C317.911 291.69 313.139 304.493 300.477 308.095C291.254 310.719 279.073 308.274 270.27 304.209C270.232 304.185 270.187 304.177 270.143 304.187C270.1 304.197 270.062 304.223 270.038 304.261C270.015 304.299 270.007 304.345 270.017 304.388C270.026 304.432 270.053 304.469 270.091 304.493C272.634 306.581 275.363 308.557 278.277 310.422C296.118 321.845 312.67 311.294 321.226 294.951C322.687 292.158 323.772 290.332 324.48 289.474C331.919 280.446 344.569 280.136 354.724 284.35C357.774 285.617 360.498 286.692 362.898 287.575C364.458 288.152 364.54 287.987 363.145 287.079C361.132 285.776 358.819 284.447 356.206 283.094C353.798 281.848 349.744 279.154 344.044 275.012C332.382 266.541 320.967 257.722 309.027 249.647C299.316 243.087 288.895 236.992 277.598 233.638C277.388 233.576 277.182 233.59 276.98 233.681L271.9 236.026C271.866 236.043 271.839 236.07 271.821 236.103C271.804 236.136 271.798 236.174 271.805 236.211C271.811 236.248 271.829 236.282 271.856 236.308C271.883 236.334 271.918 236.35 271.955 236.354ZM223.956 268.453C227.888 264.22 229.413 259.01 231.203 252.704C231.302 252.353 231.173 252.219 230.815 252.302L228.598 252.809C228.117 252.92 227.816 253.217 227.697 253.7C226.283 259.319 225.598 263.997 223.573 268.193C223.124 269.125 223.252 269.212 223.956 268.453ZM280.283 273.243C280.123 267.228 272.684 268.985 275.431 274.053C276.316 275.687 277.503 277.036 278.993 278.1C279.219 278.261 279.382 278.212 279.481 277.952C280.057 276.413 280.324 274.843 280.283 273.243ZM208.429 280.693C208.52 280.949 208.684 281.013 208.923 280.885C212.002 279.198 214.821 277.156 217.381 274.759C218.072 274.111 217.967 273.932 217.066 274.22C213.306 275.415 209.775 274.585 206.052 273.298C205.859 273.232 205.797 273.296 205.867 273.49L208.429 280.693ZM305.292 285.687C301.193 277.605 290.791 275.192 283.796 281.157C283.765 281.183 283.741 281.216 283.725 281.254C283.709 281.291 283.703 281.332 283.706 281.373C283.709 281.414 283.721 281.454 283.742 281.489C283.763 281.525 283.792 281.555 283.827 281.578C288.902 284.87 294.26 288.237 300.144 289.858C303.453 290.768 307.651 290.341 305.292 285.687ZM192.934 286.368C192.477 282.017 189.063 277.308 184.161 277.983C181.605 278.329 178.833 281.219 178.679 283.769C178.345 289.084 189.81 287.358 192.65 286.758C192.864 286.712 192.958 286.582 192.934 286.368ZM274.573 287.222C270.844 291.015 264.102 297.686 264.096 302.754C264.096 303.324 264.269 303.379 264.615 302.921C268.302 298.037 271.875 293.059 275.332 287.989C276.34 286.508 278.153 284.462 280.771 281.85C281.001 281.619 280.985 281.409 280.722 281.219L280.209 280.836C279.913 280.617 279.664 280.66 279.462 280.966C277.762 283.552 276.133 285.638 274.573 287.222ZM194.514 288.15C193.835 298.361 186.297 307.606 176.882 311.022C175.615 311.48 174.353 311.923 173.098 312.352C173.083 312.356 173.07 312.365 173.062 312.377C173.054 312.39 173.051 312.406 173.055 312.42C173.058 312.435 173.067 312.448 173.08 312.456C173.093 312.464 173.108 312.467 173.123 312.464C185.291 311.826 196.397 307.959 203.99 297.562C206.921 293.548 208.059 288.946 207.404 283.756C207.367 283.463 207.215 283.381 206.948 283.509C203.066 285.353 199.033 286.768 194.847 287.754C194.638 287.804 194.526 287.936 194.514 288.15ZM124.901 396.03C125.574 398.666 126.531 400.355 125.204 403.202C125.189 403.235 125.186 403.272 125.195 403.307C125.203 403.343 125.223 403.374 125.251 403.397C125.278 403.42 125.313 403.433 125.349 403.435C125.385 403.437 125.421 403.427 125.45 403.406C127.739 401.814 130.198 400.551 132.828 399.619C133.079 399.528 133.108 399.392 132.914 399.211C130.832 397.239 128.525 395.593 125.994 394.272C125.475 394.004 125.099 394.136 124.864 394.668C124.732 394.965 124.745 395.419 124.901 396.03ZM145.644 409.892C146.681 404.273 142.52 400.498 137.125 400.591C136.746 400.595 136.693 400.729 136.964 400.993C139.779 403.716 142.378 406.352 145.305 409.972C145.477 410.191 145.591 410.164 145.644 409.892ZM118.536 407.961L109.745 412.639C109.734 412.646 109.723 412.654 109.715 412.665C109.707 412.675 109.701 412.687 109.698 412.699C109.695 412.712 109.694 412.725 109.695 412.738C109.697 412.751 109.701 412.764 109.708 412.775L109.72 412.8C109.762 412.884 109.917 412.906 110.177 412.866C110.436 412.826 110.795 412.724 111.233 412.565C111.671 412.407 112.178 412.196 112.727 411.945C113.276 411.693 113.855 411.405 114.431 411.098L114.641 410.987C115.798 410.37 116.874 409.712 117.631 409.158C118.389 408.603 118.768 408.197 118.684 408.029L118.666 407.998C118.653 407.976 118.632 407.961 118.608 407.954C118.584 407.947 118.558 407.949 118.536 407.961ZM102.633 415.566C107.455 416.921 112.554 419.211 116.758 422.144C116.824 422.19 116.882 422.179 116.931 422.113C116.98 422.047 116.974 421.987 116.912 421.934C113.968 419.489 110.597 417.887 107.195 416.204C106.833 416.022 106.485 415.702 106.152 415.244C106.096 415.168 106.024 415.105 105.939 415.061C105.854 415.017 105.76 414.993 105.664 414.991C104.458 414.953 103.468 414.96 102.695 415.009C101.6 415.088 101.579 415.273 102.633 415.566ZM84.7178 425.618C84.678 425.545 84.6106 425.49 84.5306 425.466C84.4505 425.442 84.3643 425.451 84.2909 425.491L71.9535 432.206C71.9172 432.226 71.885 432.253 71.859 432.285C71.833 432.317 71.8136 432.354 71.8018 432.394C71.7901 432.434 71.7862 432.475 71.7906 432.516C71.7949 432.558 71.8073 432.598 71.827 432.634L71.8388 432.656C71.8786 432.729 71.946 432.784 72.026 432.808C72.1061 432.832 72.1923 432.822 72.2657 432.783L84.6031 426.068C84.6395 426.048 84.6716 426.021 84.6976 425.989C84.7236 425.957 84.7431 425.92 84.7548 425.88C84.7666 425.84 84.7704 425.799 84.7661 425.758C84.7617 425.716 84.7494 425.676 84.7296 425.64L84.7178 425.618ZM354.224 469.348C342.42 465.314 331.11 459.602 320.597 452.918C315.345 449.581 312.034 447.229 310.663 445.864C306.212 441.421 301.841 437.776 295.279 437.008C295.121 436.991 294.962 437.024 294.824 437.103C294.687 437.182 294.578 437.303 294.513 437.448C291.686 443.772 287.982 449.676 284.346 455.505C284.119 455.868 284.111 456.235 284.321 456.607C289.642 466.044 299.094 468.259 309.243 469.218C324.159 470.635 339.333 470.4 354.175 469.682C354.771 469.654 354.788 469.542 354.224 469.348ZM283.703 453.673C287.185 448.358 290.303 443.129 292.884 437.51C292.898 437.477 292.904 437.441 292.899 437.405C292.895 437.369 292.881 437.336 292.859 437.308C292.837 437.28 292.808 437.26 292.776 437.248C292.743 437.237 292.707 437.235 292.674 437.244C285.234 438.896 281.506 446.551 283.296 453.605C283.378 453.935 283.514 453.958 283.703 453.673ZM365.404 470.573C369.732 471.681 377.961 471.953 381.912 469.156C381.948 469.131 381.974 469.095 381.987 469.053C381.999 469.011 381.997 468.966 381.98 468.926C381.964 468.886 381.934 468.852 381.896 468.831C381.858 468.81 381.813 468.802 381.77 468.81C376.354 469.647 370.905 470.167 365.423 470.369C364.954 470.39 364.947 470.458 365.404 470.573ZM-74.0913 503.39C-74.2024 503.047 -74.437 502.889 -74.7951 502.913L-77.3447 503.062C-77.3864 503.062 -77.4264 503.078 -77.4574 503.106C-77.4885 503.134 -77.5085 503.172 -77.5137 503.213C-77.519 503.255 -77.5091 503.297 -77.486 503.331C-77.4629 503.366 -77.4281 503.391 -77.388 503.402L-74.0789 504.386C-73.8567 504.452 -73.7805 504.374 -73.8505 504.151L-74.0913 503.39Z" fill="#131316"/>
</g>
</g>
</g>
<defs>
<clipPath id="clip0_556_13362">
<rect width="548" height="548" fill="white"/>
</clipPath>
<clipPath id="clip1_556_13362">
<rect width="482.786" height="453.334" fill="white" transform="translate(23.0723 70.5981)"/>
</clipPath>
<clipPath id="clip2_556_13362">
<rect width="495.372" height="431.94" fill="white" transform="translate(33.6445 84.1904)"/>
</clipPath>
</defs>
</svg>
