<svg width="548" height="548" viewBox="0 0 548 548" fill="none" xmlns="http://www.w3.org/2000/svg">
<g clip-path="url(#clip0_556_13327)">
<path d="M396.837 419.091C390.999 419.012 385.52 419.084 380.402 419.308C356.385 420.35 331.717 422.587 307.392 424.411C303.027 424.741 298.658 425.002 294.285 425.196C291.807 425.305 289.709 425.152 288.462 422.8C288.144 422.2 287.962 421.285 287.917 420.056C287.816 417.222 287.685 415.19 287.522 413.96C286.688 407.704 284.86 401.528 282.038 395.431C280.713 392.568 279.615 390.226 278.744 388.406C277.291 385.369 276.395 383.298 276.057 382.192C274.796 378.07 274.508 373.975 275.447 369.745C275.463 369.676 275.495 369.612 275.539 369.558C275.584 369.504 275.64 369.461 275.704 369.433C277.295 368.736 278.892 367.988 280.496 367.189C282.114 366.384 283.197 364.854 283.142 363.05C283.091 361.429 281.816 359.585 279.951 360.465C277.185 361.771 275.211 365.474 274.433 368.222C274.385 368.391 274.278 368.512 274.114 368.584C261.514 374.131 247.845 378.344 234.217 379.2C228.209 379.576 221.076 378.848 215.887 375.796C211.119 372.993 210.286 367.626 210.273 362.526C210.27 361.497 210.213 358.988 210.101 354.999C210.033 352.545 209.272 349.956 206.965 348.721C206.666 348.561 205.882 348.318 204.614 347.994C201.423 347.178 198.352 345.496 197.529 342.088C197.169 340.606 197.258 338.426 198.259 337.171C199.747 335.302 201.592 333.516 203.795 331.81C203.886 331.74 203.988 331.704 204.1 331.702C206.125 331.658 210.396 331.302 211.705 329.542C212.176 328.908 212.253 328.283 211.935 327.667C210.509 324.899 204.97 329.004 203.527 330.192C203.44 330.265 203.332 330.307 203.219 330.314C200.628 330.456 197.848 330.368 195.373 329.529C193.766 328.987 193.868 327.393 194.431 326.09C196.401 321.552 200.782 314.245 195.74 309.896C195.612 309.784 195.627 309.696 195.784 309.632C196.943 309.17 197.827 308.616 198.437 307.971C199.959 306.36 198.276 304.732 196.809 304.042C193.608 302.532 190.211 301.864 186.619 302.038C185.883 302.074 185.38 302.181 185.108 302.36C181.519 304.708 190.105 308.13 191.401 308.709C191.789 308.885 191.771 308.994 191.346 309.037C186.794 309.507 177.577 308.333 176.121 302.654C175.219 299.138 178.369 293.445 180.138 290.322C182.903 285.428 185.688 280.547 188.494 275.678C192.682 268.405 196.484 260.486 197.611 252.109C197.993 249.273 198.027 247.074 197.714 245.51C197.118 242.549 196.456 239.483 196.168 236.575C194.705 221.786 196.96 207.721 201.388 193.226C205.817 178.738 213.477 166.805 223.688 155.633C229.172 149.636 235.294 144.045 242.252 139.737C266.704 124.596 295.886 117.759 324.334 124.335C343.569 128.782 360.241 139.409 373.835 153.345C387.058 166.906 396.665 183.916 401.039 202.11C404.854 217.979 402.993 234.406 396.905 249.551C394.712 255.01 392.11 260.245 389.471 265.505C388.116 268.203 387.139 270.241 386.541 271.62C375.058 298.041 375.59 328.26 383.312 355.632C389.807 378.659 400.922 400.809 418.16 417.9C418.498 418.236 418.86 418.264 419.246 417.984L419.407 417.866C419.464 417.825 419.512 417.772 419.546 417.711C419.58 417.65 419.6 417.582 419.605 417.512C419.61 417.442 419.6 417.372 419.574 417.306C419.549 417.24 419.509 417.181 419.459 417.132C414.932 412.712 411.013 408.221 407.702 403.659C391.332 381.102 381.629 353.229 379.507 325.806C378.15 308.225 380.422 290.443 387.055 274.124C388.882 269.623 391.432 264.834 393.718 260.255C396.327 255.026 398.549 249.641 400.384 244.102C402.989 236.234 404.206 228.69 404.446 220.977C404.861 207.518 401.173 194.014 395.404 181.828C391.7 174.01 387.49 167.159 382.774 161.275C370.698 146.211 355.124 133.652 336.872 126.704C304.927 114.541 270.104 120.846 241.655 138.366C238.968 140.022 236.6 141.691 234.55 143.372C225.126 151.099 217.035 160.147 210.276 170.514C205.371 178.034 202.324 185.682 199.75 193.642C195.935 205.433 193.92 218.31 194.304 230.792C194.436 235.031 194.776 238.415 195.322 240.945C195.898 243.596 196.235 245.344 196.333 246.19C197.121 252.942 194.516 260.553 191.425 266.96C188.018 274.019 183.925 280.71 179.997 287.492C177.876 291.154 173.667 298.369 174.64 302.85C175.288 305.829 178.15 308.052 180.96 309.077C185.069 310.578 189.285 310.946 193.608 310.181C193.722 310.16 193.826 310.182 193.92 310.245C199.25 313.873 195.301 320.787 193.31 324.974C192.165 327.387 192.244 330.216 195.315 331.045C197.271 331.575 199.204 331.819 201.114 331.776C201.146 331.775 201.178 331.784 201.205 331.802C201.231 331.819 201.252 331.844 201.264 331.874C201.276 331.903 201.279 331.936 201.271 331.966C201.264 331.997 201.248 332.025 201.224 332.047C199.889 333.2 198.626 334.473 197.433 335.868C195.425 338.21 195.466 341.685 196.809 344.301C197.78 346.197 199.398 347.61 201.663 348.542C202.204 348.765 203.491 349.135 205.522 349.652C208.463 350.4 208.857 354.539 208.864 357.026C208.884 362.712 208.12 369.707 212.103 374.459C216.387 379.566 225.775 380.794 231.989 380.716C236.464 380.66 240.893 380.192 245.278 379.312C255.097 377.345 264.58 374.336 273.727 370.286C273.741 370.28 273.757 370.278 273.772 370.28C273.788 370.282 273.802 370.289 273.814 370.298C273.826 370.307 273.835 370.32 273.84 370.334C273.846 370.348 273.846 370.363 273.843 370.377C272.777 376.246 273.895 382.094 276.678 387.516C282.114 398.105 286.055 407.652 286.439 419.169C286.501 421.015 286.661 422.266 286.919 422.922C288.126 425.995 290.916 426.801 294.028 426.641C308.393 425.914 321.746 424.797 335.583 423.663C349.394 422.533 363.22 421.61 377.06 420.895C384.141 420.529 391.228 420.412 398.321 420.543C398.438 420.545 398.539 420.585 398.626 420.661C399.261 421.225 399.895 421.79 400.528 422.354C402.849 424.418 408.61 428.483 411.239 424.492C414.458 419.599 401.543 419.193 399.51 419.142C399.229 419.135 398.989 419.028 398.791 418.82C392.515 412.228 387.336 404.346 383.058 396.369C364.563 361.893 357.345 319.508 371.932 282.169C372.387 281.007 373.289 278.935 374.637 275.952C382.071 259.508 387.38 242.068 389.392 224.192C391.558 204.919 385.324 184.941 372.714 170.284C365.345 161.719 356.423 154.569 345.948 148.834C336.084 143.433 325.558 139.964 314.37 138.427C312.136 138.119 309.867 137.754 307.69 137.598C297.855 136.901 288.342 137.41 279.149 139.124C249.696 144.614 224.288 168.74 224.014 199.653C223.938 208.436 225.308 216.981 228.123 225.289C235.249 246.322 254.042 261.866 276.887 262.682C284.921 262.97 295.834 260.81 300.962 253.944C300.994 253.901 301.035 253.865 301.083 253.841C301.13 253.816 301.183 253.803 301.236 253.802C302.909 253.761 304.924 253.399 306.165 252.255C307.083 251.402 306.514 250.279 305.339 250.17C303.275 249.981 301.623 250.656 300.383 252.197C300.351 252.238 300.312 252.271 300.267 252.294C300.222 252.317 300.172 252.331 300.122 252.333C297.209 252.461 294.775 251.988 292.784 250.106C292.769 250.091 292.758 250.073 292.754 250.052C292.749 250.032 292.75 250.011 292.757 249.991C292.763 249.972 292.776 249.954 292.792 249.941C292.808 249.928 292.828 249.919 292.849 249.916C296.955 249.368 301.137 249.24 305.27 248.962C306.449 248.881 308.732 248.681 309.654 247.954C310.49 247.297 310.247 246.292 309.267 245.953C308.259 245.601 307.121 245.376 305.853 245.277C300.801 244.891 295.718 244.708 290.703 243.997C290.662 243.993 290.643 243.97 290.645 243.93L290.652 243.838C290.659 243.739 290.712 243.687 290.813 243.683C296.945 243.53 302.532 243.994 308.42 243.76C309.09 243.733 309.742 243.625 310.377 243.435C311.419 243.127 311.68 242.163 310.85 241.445C309.688 240.44 306.264 240.092 304.478 239.889C300.075 239.388 295.892 238.875 291.93 238.349C290.678 238.182 290.683 238.051 291.944 237.956C292.316 237.929 293.04 237.924 294.114 237.939C298.599 238.009 303.083 238.104 307.567 238.224C308.376 238.244 310.672 238.454 311.31 238.051C311.68 237.816 311.753 237.424 311.529 236.873C311.236 236.154 311.216 235.499 311.467 234.91C312.156 233.293 310.381 233.239 309.267 233.269C302.775 233.461 296.282 233.576 289.788 233.614C287.971 233.624 287.238 232.944 286.977 231.123C286.683 229.093 286.365 227.067 286.025 225.045C285.421 221.461 284.311 219.177 282.265 215.579C278.295 208.601 273.781 199.832 275.694 191.612C278.583 179.167 291.601 169.353 304.907 172.26C312.663 173.956 319.515 179.12 322.706 186.315C325.373 192.332 325.122 199.818 323.093 205.968C321.678 210.252 319.176 214.053 316.495 218.121C314.617 220.973 313.456 224.295 313.013 228.088C312.846 229.52 312.02 230.383 310.535 230.677C308.195 231.137 305.899 231.291 303.646 231.14C301.02 230.961 296.732 231.922 296.184 228.253C295.927 226.514 295.944 222.067 298.823 222.585C300.396 222.869 302.97 223.81 304.122 222.307C305.318 220.747 304.646 219.008 303.903 217.37C303.855 217.263 303.855 217.159 303.903 217.055C306.621 211.322 308.67 205.321 310.682 199.321C311.118 198.018 311.748 195.693 309.455 196.143C307.416 196.549 305.222 198.712 304.005 200.265C303.991 200.283 303.971 200.297 303.949 200.303C303.926 200.31 303.902 200.31 303.88 200.302C303.858 200.295 303.838 200.281 303.825 200.262C303.811 200.243 303.803 200.221 303.803 200.198C303.769 198.292 303.121 192.607 299.711 193.767C297.346 194.569 296.444 198.279 296.204 200.36C296.2 200.398 296.184 200.434 296.158 200.462C296.132 200.491 296.098 200.511 296.06 200.519C296.022 200.527 295.983 200.523 295.947 200.508C295.911 200.493 295.882 200.467 295.862 200.434C294.974 198.935 293.168 196.871 291.45 196.207C290.059 195.669 289.044 196.502 289.325 197.971C289.387 198.296 289.598 198.944 289.959 199.917C290.542 201.487 291.032 203.48 291.204 204.817C291.61 207.946 292.027 211.075 292.455 214.202C292.753 216.361 293.195 218.926 294.306 220.832C294.346 220.901 294.4 220.961 294.464 221.009C294.529 221.057 294.603 221.091 294.681 221.11C294.759 221.129 294.841 221.131 294.92 221.118C294.999 221.104 295.075 221.075 295.142 221.031L295.238 220.967C295.549 220.768 295.634 220.5 295.495 220.162C294.734 218.311 294.208 216.337 293.918 214.239C293.161 208.784 292.863 203.064 290.796 197.9C290.652 197.543 290.752 197.453 291.097 197.629C292.965 198.587 294.563 200.813 295.515 202.617C295.735 203.032 295.839 203.506 295.827 204.039C295.783 206.283 295.762 208.79 296.578 210.919C297.154 212.425 298.847 211.755 299.142 210.442C299.563 208.557 298.542 205.683 297.692 203.744C297.475 203.246 297.383 202.756 297.418 202.276C297.548 200.445 298.158 195.964 300.167 195.141C300.344 195.068 300.542 195.057 300.727 195.11C300.912 195.163 301.074 195.277 301.185 195.432C302.302 197.003 302.466 199.964 302.446 201.822C302.441 202.255 302.317 202.705 302.072 203.172C300.818 205.568 300.221 208.574 301.106 211.203C301.366 211.982 302.309 212.141 302.727 211.396C303.065 210.796 303.285 210.156 303.385 209.477C303.671 207.51 303.829 205.533 303.861 203.548C303.892 201.504 307.68 198.536 309.366 197.558C309.396 197.54 309.431 197.531 309.466 197.531C309.501 197.532 309.535 197.542 309.565 197.56C309.594 197.579 309.618 197.606 309.633 197.637C309.648 197.668 309.654 197.703 309.651 197.737C309.646 197.791 309.622 197.889 309.579 198.032C307.691 204.096 305.47 210.032 302.915 215.84C302.908 215.857 302.896 215.873 302.881 215.885C302.867 215.897 302.849 215.905 302.83 215.909C302.811 215.913 302.792 215.913 302.773 215.908C302.755 215.903 302.738 215.893 302.724 215.88C301.085 214.398 299.07 213.569 296.921 214.682C295.733 215.296 295.085 216.266 294.977 217.593C294.809 219.661 296.461 220.662 298.357 220.923C300.347 221.194 301.848 220.53 302.861 218.933C302.874 218.912 302.893 218.895 302.916 218.884C302.938 218.873 302.964 218.869 302.989 218.872C303.014 218.875 303.038 218.886 303.057 218.902C303.076 218.918 303.09 218.94 303.097 218.964C303.447 220.057 303.594 222.152 301.654 221.661C301.087 221.516 300.116 221.36 298.741 221.19C294.864 220.717 294.477 225.4 294.672 227.949C294.953 231.651 297.76 232.619 301.023 232.538C303.916 232.467 313.448 233.523 314.247 229.36C314.478 228.153 314.713 226.948 314.953 225.746C315.704 221.952 317.503 219.106 319.765 215.765C327.134 204.888 329.236 189.889 319.916 179.347C315.142 173.945 307.776 170.433 300.434 170.311C289.497 170.131 279.245 177.763 275.375 187.747C271.159 198.62 276.667 208.943 282.059 218.148C282.775 219.373 283.392 220.629 283.759 221.82C284.547 224.374 285.083 227.166 285.366 230.196C285.624 232.927 286.463 235.066 289.572 235.042C297.529 234.986 304.259 234.857 309.764 234.657C309.816 234.654 309.844 234.679 309.846 234.731L309.894 236.799C309.894 236.853 309.867 236.879 309.812 236.877C305.121 236.719 300.402 236.582 295.656 236.467C294.295 236.437 289.14 236.322 288.204 237.168C288.024 237.331 287.915 237.558 287.899 237.799C287.884 238.041 287.964 238.279 288.122 238.464C289.096 239.601 293.38 240.048 294.881 240.217C299.515 240.731 304.191 241.141 308.77 242.031C308.875 242.051 308.95 242.086 308.996 242.136C309.015 242.155 309.027 242.178 309.033 242.204C309.038 242.23 309.035 242.256 309.026 242.281C309.016 242.305 308.999 242.326 308.977 242.341C308.956 242.356 308.93 242.365 308.903 242.366C303.371 242.606 297.846 242.19 292.314 242.21C291.327 242.214 288.362 242.268 288.232 243.557C288.037 245.557 293.298 245.811 294.545 245.899C298.892 246.207 303.406 246.309 307.707 246.955C307.984 246.996 307.999 247.08 307.752 247.209C307.722 247.225 307.631 247.242 307.478 247.26C302.686 247.771 297.867 247.838 293.092 248.434C292.132 248.553 289.901 249.29 291.046 250.495C293.201 252.767 295.832 253.84 298.94 253.714C298.975 253.712 299.011 253.721 299.041 253.739C299.072 253.757 299.096 253.784 299.11 253.817C299.125 253.849 299.13 253.884 299.124 253.919C299.118 253.954 299.101 253.986 299.077 254.011C294.539 258.712 287.409 260.841 281 261.179C262.498 262.154 244.836 252.329 235.276 236.9C231.131 230.208 228.295 222.699 226.766 214.371C225.701 208.584 225.274 203.058 225.484 197.795C226.687 167.471 252.668 144.837 281.72 140.146C292.541 138.398 303.184 138.235 313.647 139.659C334.764 142.529 354.181 152.753 368.848 168.168C383.106 183.154 390.181 203.433 387.946 223.922C385.968 242.028 380.522 259.267 373.077 275.864C371.793 278.727 370.903 280.803 370.407 282.091C356.587 317.951 362.534 358.404 379.267 392.155C384.165 402.031 389.752 410.911 396.909 418.935C397.005 419.041 396.981 419.093 396.837 419.091Z" stroke="#131316" stroke-width="0.685507"/>
<path d="M291.344 149.744C292.561 153.446 292.365 157.514 293.174 161.389C293.189 161.463 293.219 161.532 293.262 161.595C293.304 161.657 293.359 161.71 293.423 161.751C293.486 161.792 293.558 161.821 293.633 161.835C293.708 161.849 293.785 161.848 293.86 161.832L293.983 161.805C294.424 161.715 294.607 161.45 294.532 161.01C293.767 156.482 293.908 152.516 292.228 147.838C292.071 147.396 291.769 147.256 291.323 147.419L291.186 147.466C291.062 147.511 290.959 147.6 290.896 147.715C290.833 147.83 290.814 147.964 290.844 148.092C290.914 148.388 291.081 148.938 291.344 149.744Z" stroke="#131316" stroke-width="0.685507"/>
<path d="M320.892 155.461C320.946 155.289 321.051 155.14 321.194 155.035C322.65 153.965 323.432 151.474 323.991 149.796C324.02 149.707 324.031 149.613 324.022 149.519C324.012 149.426 323.984 149.336 323.937 149.254C323.891 149.172 323.828 149.101 323.752 149.044C323.676 148.988 323.589 148.948 323.497 148.926L323.38 148.899C323.236 148.865 323.083 148.885 322.952 148.953C322.821 149.022 322.72 149.135 322.668 149.271C321.996 151.024 321.602 152.537 320.241 153.958C319.839 154.376 319.494 155.026 319.206 155.908C318.68 157.514 318.19 159.253 317.735 161.123C317.718 161.193 317.716 161.265 317.729 161.335C317.742 161.406 317.769 161.473 317.809 161.532C317.849 161.592 317.902 161.642 317.963 161.681C318.024 161.719 318.092 161.745 318.164 161.756L318.277 161.776C318.72 161.846 319.006 161.669 319.134 161.245L320.892 155.461Z" stroke="#131316" stroke-width="0.685507"/>
<path d="M268.466 160.592C269.745 163.047 271.249 165.222 272.976 167.117C273.026 167.172 273.087 167.217 273.155 167.248C273.222 167.28 273.296 167.299 273.371 167.302C273.445 167.306 273.52 167.295 273.591 167.27C273.661 167.246 273.726 167.207 273.782 167.157L273.881 167.066C274.226 166.755 274.248 166.423 273.946 166.071C272.043 163.837 270.919 162.333 270.574 161.556C269.513 159.178 267.98 157.018 265.974 155.076C265.871 154.976 265.733 154.92 265.589 154.919C265.445 154.917 265.305 154.971 265.199 155.069L265.083 155.174C265.011 155.24 264.954 155.319 264.915 155.407C264.875 155.496 264.854 155.591 264.852 155.687C264.85 155.784 264.867 155.88 264.904 155.969C264.94 156.059 264.994 156.14 265.062 156.209C266.605 157.741 267.739 159.202 268.466 160.592Z" stroke="#131316" stroke-width="0.685507"/>
<path d="M339.291 176.273C341.612 174.767 344.498 173.904 347.161 172.686C347.228 172.656 347.288 172.612 347.338 172.558C347.388 172.505 347.427 172.441 347.452 172.373C347.476 172.304 347.487 172.231 347.483 172.158C347.479 172.085 347.46 172.014 347.428 171.948L347.356 171.803C347.272 171.633 347.123 171.502 346.943 171.439C346.762 171.376 346.564 171.385 346.39 171.464C344.438 172.36 342.542 173.15 340.7 173.833C338.914 174.497 337.053 176.023 335.332 177.333C335.221 177.418 335.143 177.54 335.112 177.676C335.081 177.813 335.1 177.956 335.164 178.081L335.233 178.213C335.278 178.3 335.343 178.377 335.422 178.437C335.501 178.497 335.592 178.539 335.69 178.561C335.787 178.582 335.889 178.581 335.986 178.559C336.084 178.537 336.175 178.494 336.254 178.433C337.248 177.663 338.261 176.944 339.291 176.273Z" stroke="#131316" stroke-width="0.685507"/>
<path d="M261.216 180.674C258.254 180.133 256.074 179.331 253.264 177.875C251.888 177.162 249.821 176.447 247.063 175.73C246.991 175.711 246.915 175.707 246.841 175.719C246.767 175.73 246.696 175.756 246.633 175.796C246.569 175.835 246.515 175.887 246.473 175.948C246.431 176.008 246.402 176.077 246.388 176.149L246.361 176.295C246.274 176.753 246.458 177.043 246.913 177.165C249.296 177.805 251.984 178.866 254.978 180.346C256.465 181.081 258.528 181.666 261.168 182.099C261.243 182.111 261.319 182.108 261.393 182.09C261.467 182.071 261.536 182.039 261.596 181.993C261.657 181.948 261.707 181.891 261.744 181.826C261.781 181.761 261.804 181.689 261.812 181.615L261.826 181.48C261.845 181.294 261.793 181.108 261.68 180.959C261.567 180.81 261.401 180.708 261.216 180.674Z" stroke="#131316" stroke-width="0.685507"/>
<path d="M356.156 197.094C356.136 196.943 356.058 196.805 355.938 196.71C355.818 196.615 355.665 196.569 355.512 196.583C352.338 196.864 349.061 197.537 345.935 197.561C344.617 197.57 343.295 197.56 341.97 197.53C341.829 197.527 341.692 197.576 341.585 197.666C341.477 197.756 341.407 197.883 341.387 198.021L341.366 198.163C341.353 198.254 341.359 198.347 341.384 198.436C341.409 198.524 341.453 198.607 341.512 198.678C341.571 198.75 341.645 198.808 341.729 198.85C341.812 198.892 341.903 198.916 341.997 198.921C345.255 199.09 347.504 199.072 348.742 198.867C350.888 198.511 353.151 198.227 355.532 198.018C356.021 197.975 356.235 197.713 356.173 197.232L356.156 197.094Z" stroke="#131316" stroke-width="0.685507"/>
<path d="M257.956 200.484C258.028 200.467 258.096 200.437 258.155 200.393C258.215 200.35 258.266 200.296 258.304 200.233C258.342 200.17 258.367 200.1 258.377 200.028C258.387 199.955 258.383 199.881 258.364 199.81L258.329 199.688C258.211 199.253 257.926 199.075 257.476 199.154C255.207 199.56 253.452 199.854 251.001 199.891C248.689 199.925 246.38 200.217 244.074 200.768C243.933 200.802 243.809 200.887 243.728 201.007C243.646 201.127 243.614 201.272 243.636 201.414L243.656 201.553C243.732 202.018 244.004 202.204 244.472 202.112C246.751 201.658 248.561 201.408 251.139 201.357C253.396 201.309 255.669 201.018 257.956 200.484Z" stroke="#131316" stroke-width="0.685507"/>
<path d="M254.334 224.165C254.001 224.3 253.222 224.665 251.997 225.258C251.588 225.454 251.455 225.766 251.599 226.192L251.64 226.317C251.665 226.388 251.704 226.454 251.755 226.509C251.807 226.564 251.869 226.608 251.939 226.638C252.009 226.668 252.084 226.683 252.16 226.683C252.236 226.682 252.311 226.666 252.381 226.635C257.597 224.327 260.562 222.828 263.647 218.675C263.73 218.565 263.769 218.428 263.756 218.29C263.744 218.153 263.68 218.025 263.578 217.931L263.469 217.826C263.076 217.456 262.719 217.489 262.399 217.924C260.341 220.738 257.652 222.818 254.334 224.165Z" stroke="#131316" stroke-width="0.685507"/>
<path d="M343.428 224.401C343.91 224.719 344.883 225.433 346.345 226.543C346.459 226.628 346.6 226.671 346.742 226.662C346.885 226.653 347.02 226.594 347.123 226.496L347.24 226.384C347.599 226.034 347.579 225.705 347.182 225.396C345.221 223.875 343.922 222.974 343.284 222.692C341.404 221.864 339.633 220.751 337.972 219.355C337.586 219.03 337.231 219.062 336.909 219.45L336.803 219.575C336.755 219.632 336.72 219.699 336.699 219.77C336.678 219.841 336.671 219.916 336.679 219.989C336.688 220.063 336.711 220.134 336.747 220.199C336.784 220.264 336.833 220.321 336.892 220.367C338.067 221.285 339.208 222.098 340.316 222.807C341.235 223.392 342.475 223.778 343.428 224.401Z" stroke="#131316" stroke-width="0.685507"/>
<path d="M297.743 209.631C297.761 209.628 297.775 209.599 297.783 209.543C297.791 209.488 297.794 209.408 297.792 209.308C297.79 209.208 297.782 209.091 297.769 208.962C297.756 208.833 297.739 208.695 297.717 208.557C297.675 208.277 297.619 208.011 297.564 207.817C297.508 207.623 297.456 207.518 297.42 207.523C297.403 207.526 297.389 207.555 297.381 207.611C297.373 207.666 297.369 207.746 297.372 207.846C297.374 207.946 297.382 208.063 297.395 208.192C297.408 208.321 297.425 208.459 297.446 208.597C297.489 208.877 297.545 209.143 297.6 209.337C297.656 209.53 297.707 209.636 297.743 209.631Z" stroke="#131316" stroke-width="0.685507"/>
<path d="M301.945 217.183C301.016 216.157 299.604 215.284 298.147 215.748C297.112 216.077 296.543 216.751 296.44 217.768C296.252 219.657 299.244 219.748 300.464 219.291C301.108 219.05 301.618 218.43 301.993 217.433C302.027 217.341 302.011 217.257 301.945 217.183Z" stroke="#131316" stroke-width="0.685507"/>
<path d="M304.361 251.635C304.354 251.612 304.323 251.597 304.272 251.59C304.221 251.583 304.149 251.584 304.061 251.594C303.973 251.604 303.87 251.621 303.759 251.646C303.648 251.671 303.531 251.702 303.413 251.738C303.176 251.811 302.955 251.899 302.797 251.983C302.64 252.066 302.56 252.139 302.574 252.184C302.581 252.207 302.611 252.222 302.663 252.229C302.714 252.236 302.786 252.234 302.874 252.225C302.962 252.215 303.064 252.198 303.175 252.173C303.286 252.148 303.404 252.117 303.521 252.081C303.758 252.008 303.98 251.92 304.137 251.836C304.295 251.753 304.375 251.68 304.361 251.635Z" stroke="#131316" stroke-width="0.685507"/>
<path d="M187.791 305.408C189.841 306.464 191.935 307.337 193.94 308.498C194.043 308.557 194.151 308.575 194.266 308.552C195.394 308.327 196.397 307.857 197.275 307.144C197.336 307.095 197.386 307.033 197.422 306.962C197.639 306.54 197.485 306.155 196.96 305.808C194.046 303.885 189.649 303.212 186.207 303.456C185.837 303.483 185.761 303.645 185.978 303.943C186.394 304.511 186.998 305 187.791 305.408Z" stroke="#131316" stroke-width="0.685507"/>
<path d="M210.43 328.178C209.323 328.026 207.283 329.271 206.378 329.921C206.23 330.029 206.248 330.078 206.433 330.066C207.732 329.975 209.648 329.576 210.584 328.625C210.619 328.59 210.643 328.546 210.654 328.498C210.665 328.45 210.663 328.401 210.647 328.354C210.631 328.308 210.602 328.267 210.564 328.236C210.525 328.204 210.479 328.184 210.43 328.178Z" stroke="#131316" stroke-width="0.685507"/>
<path d="M280.67 361.71C278.343 362.789 277.315 365.253 276.242 367.355C276.143 367.547 276.195 367.601 276.396 367.517C279.039 366.397 282.853 365.138 281.297 361.933C281.244 361.822 281.148 361.736 281.03 361.694C280.913 361.652 280.783 361.658 280.67 361.71Z" stroke="#131316" stroke-width="0.685507"/>
<path d="M410.092 422.635C408.183 421.058 403.429 420.834 401.005 420.685C400.868 420.676 400.85 420.719 400.951 420.814C402.702 422.486 408.399 426.963 410.239 423.328C410.374 423.058 410.325 422.826 410.092 422.635Z" stroke="#131316" stroke-width="0.685507"/>
<path d="M396.909 418.933C389.752 410.909 384.165 402.029 379.267 392.153C362.534 358.402 356.587 317.949 370.407 282.089C370.903 280.801 371.793 278.725 373.077 275.862C380.522 259.265 385.968 242.025 387.946 223.919C390.181 203.431 383.106 183.152 368.848 168.166C354.181 152.751 334.764 142.527 313.647 139.657C303.184 138.233 292.541 138.396 281.72 140.144C252.668 144.835 226.687 167.469 225.484 197.792C225.274 203.056 225.701 208.582 226.766 214.369C228.295 222.696 231.131 230.206 235.276 236.898C244.836 252.327 262.498 262.152 281 261.177C287.409 260.839 294.539 258.71 299.077 254.009C299.101 253.984 299.118 253.952 299.124 253.917C299.13 253.882 299.125 253.846 299.11 253.814C299.096 253.782 299.072 253.755 299.041 253.737C299.011 253.719 298.975 253.71 298.94 253.711C295.832 253.838 293.201 252.765 291.046 250.493C289.901 249.288 292.132 248.55 293.092 248.432C297.867 247.836 302.686 247.769 307.478 247.258C307.631 247.239 307.722 247.223 307.752 247.207C307.999 247.078 307.984 246.994 307.707 246.953C303.406 246.307 298.892 246.205 294.545 245.897C293.298 245.809 288.037 245.555 288.232 243.555C288.362 242.266 291.327 242.212 292.314 242.208C297.846 242.188 303.371 242.604 308.903 242.364C308.93 242.363 308.956 242.354 308.977 242.339C308.999 242.324 309.016 242.303 309.026 242.279C309.035 242.254 309.038 242.227 309.033 242.202C309.027 242.176 309.015 242.152 308.996 242.134C308.95 242.084 308.875 242.049 308.77 242.029C304.191 241.139 299.515 240.729 294.881 240.215C293.38 240.046 289.096 239.599 288.122 238.462C287.964 238.277 287.884 238.039 287.899 237.797C287.915 237.556 288.024 237.329 288.204 237.166C289.14 236.319 294.295 236.435 295.656 236.465C300.402 236.58 305.121 236.717 309.812 236.874C309.867 236.877 309.894 236.851 309.894 236.797L309.846 234.729C309.844 234.677 309.816 234.652 309.764 234.654C304.259 234.855 297.529 234.984 289.572 235.04C286.463 235.064 285.624 232.925 285.366 230.194C285.083 227.164 284.547 224.372 283.759 221.818C283.392 220.626 282.775 219.371 282.059 218.146C276.667 208.94 271.159 198.618 275.375 187.744C279.245 177.761 289.497 170.129 300.434 170.309C307.776 170.43 315.142 173.943 319.916 179.345C329.236 189.887 327.134 204.886 319.765 215.763C317.503 219.103 315.704 221.95 314.953 225.743C314.713 226.946 314.478 228.151 314.247 229.358C313.448 233.521 303.916 232.465 301.023 232.536C297.76 232.617 294.953 231.649 294.672 227.947C294.477 225.398 294.864 220.714 298.741 221.188C300.116 221.357 301.087 221.514 301.654 221.659C303.594 222.149 303.447 220.054 303.097 218.961C303.09 218.937 303.076 218.916 303.057 218.9C303.038 218.883 303.014 218.873 302.989 218.87C302.964 218.867 302.938 218.871 302.916 218.882C302.893 218.892 302.874 218.91 302.861 218.931C301.848 220.528 300.347 221.192 298.357 220.921C296.461 220.66 294.809 219.658 294.977 217.591C295.085 216.264 295.733 215.294 296.921 214.68C299.07 213.567 301.085 214.396 302.724 215.878C302.738 215.891 302.755 215.901 302.773 215.906C302.792 215.911 302.811 215.911 302.83 215.907C302.849 215.903 302.867 215.895 302.881 215.883C302.896 215.871 302.908 215.855 302.915 215.838C305.47 210.03 307.691 204.094 309.579 198.029C309.622 197.887 309.646 197.789 309.651 197.735C309.654 197.701 309.648 197.666 309.633 197.635C309.618 197.603 309.594 197.577 309.565 197.558C309.535 197.54 309.501 197.53 309.466 197.529C309.431 197.529 309.396 197.538 309.366 197.556C307.68 198.534 303.892 201.502 303.861 203.546C303.829 205.531 303.671 207.508 303.385 209.475C303.285 210.154 303.065 210.794 302.727 211.394C302.309 212.139 301.366 211.98 301.106 211.201C300.221 208.572 300.818 205.566 302.072 203.17C302.317 202.703 302.441 202.253 302.446 201.82C302.466 199.962 302.302 197.001 301.185 195.43C301.074 195.275 300.912 195.161 300.727 195.108C300.542 195.055 300.344 195.066 300.167 195.139C298.158 195.962 297.548 200.442 297.418 202.273C297.383 202.754 297.475 203.243 297.692 203.742C298.542 205.681 299.563 208.555 299.142 210.44C298.847 211.753 297.154 212.423 296.578 210.917C295.762 208.788 295.783 206.28 295.827 204.037C295.839 203.504 295.735 203.03 295.515 202.615C294.563 200.811 292.965 198.584 291.097 197.627C290.752 197.451 290.652 197.541 290.796 197.897C292.863 203.062 293.161 208.781 293.918 214.237C294.208 216.335 294.734 218.309 295.495 220.159C295.634 220.498 295.549 220.766 295.238 220.965L295.142 221.029C295.075 221.073 294.999 221.102 294.92 221.116C294.841 221.129 294.759 221.126 294.681 221.108C294.603 221.089 294.529 221.055 294.464 221.007C294.4 220.959 294.346 220.899 294.306 220.829C293.195 218.924 292.753 216.359 292.455 214.2C292.027 211.073 291.61 207.944 291.204 204.815C291.032 203.478 290.542 201.485 289.959 199.914C289.598 198.942 289.387 198.293 289.325 197.968C289.044 196.5 290.059 195.667 291.45 196.205C293.168 196.869 294.974 198.933 295.862 200.432C295.882 200.465 295.911 200.491 295.947 200.506C295.983 200.521 296.022 200.525 296.06 200.517C296.098 200.509 296.132 200.489 296.158 200.46C296.184 200.432 296.2 200.396 296.204 200.358C296.444 198.276 297.346 194.567 299.711 193.765C303.121 192.604 303.769 198.29 303.803 200.195C303.803 200.219 303.811 200.241 303.825 200.26C303.838 200.279 303.858 200.293 303.88 200.3C303.902 200.307 303.926 200.308 303.949 200.301C303.971 200.295 303.991 200.281 304.005 200.263C305.222 198.71 307.416 196.547 309.455 196.141C311.748 195.691 311.118 198.016 310.682 199.319C308.67 205.319 306.621 211.32 303.903 217.053C303.855 217.156 303.855 217.261 303.903 217.367C304.646 219.005 305.318 220.745 304.122 222.305C302.97 223.808 300.396 222.867 298.823 222.583C295.944 222.065 295.927 226.512 296.184 228.251C296.732 231.92 301.02 230.959 303.646 231.138C305.899 231.289 308.195 231.135 310.535 230.674C312.02 230.381 312.846 229.518 313.013 228.085C313.456 224.293 314.617 220.97 316.495 218.119C319.176 214.051 321.678 210.25 323.093 205.966C325.122 199.816 325.373 192.33 322.706 186.313C319.515 179.118 312.663 173.953 304.907 172.258C291.601 169.351 278.583 179.165 275.694 191.609C273.781 199.83 278.295 208.599 282.265 215.577C284.311 219.175 285.421 221.459 286.025 225.043C286.365 227.064 286.683 229.091 286.977 231.121C287.238 232.942 287.971 233.622 289.788 233.612C296.282 233.574 302.775 233.459 309.267 233.267C310.381 233.236 312.156 233.29 311.467 234.908C311.216 235.497 311.236 236.151 311.529 236.871C311.753 237.422 311.68 237.814 311.31 238.049C310.672 238.452 308.376 238.242 307.567 238.221C303.083 238.102 298.599 238.007 294.114 237.937C293.04 237.921 292.316 237.927 291.944 237.954C290.683 238.049 290.678 238.18 291.93 238.347C295.892 238.872 300.075 239.386 304.478 239.886C306.264 240.09 309.688 240.438 310.85 241.443C311.68 242.161 311.419 243.125 310.377 243.433C309.742 243.623 309.09 243.731 308.42 243.758C302.532 243.992 296.945 243.528 290.813 243.68C290.712 243.685 290.659 243.737 290.652 243.836L290.645 243.927C290.643 243.968 290.662 243.991 290.703 243.995C295.718 244.706 300.801 244.888 305.853 245.274C307.121 245.374 308.259 245.599 309.267 245.951C310.247 246.29 310.49 247.295 309.654 247.951C308.732 248.679 306.449 248.879 305.27 248.96C301.137 249.237 296.955 249.366 292.849 249.914C292.828 249.917 292.808 249.925 292.792 249.939C292.776 249.952 292.763 249.969 292.757 249.989C292.75 250.009 292.749 250.03 292.754 250.05C292.758 250.07 292.769 250.089 292.784 250.104C294.775 251.985 297.209 252.459 300.122 252.331C300.172 252.329 300.222 252.315 300.267 252.292C300.312 252.268 300.351 252.235 300.383 252.195C301.623 250.654 303.275 249.978 305.339 250.168C306.514 250.276 307.083 251.4 306.165 252.253C304.924 253.397 302.909 253.759 301.236 253.799C301.183 253.8 301.13 253.814 301.083 253.839C301.035 253.863 300.994 253.898 300.962 253.942C295.834 260.808 284.921 262.967 276.887 262.68C254.042 261.864 235.249 246.32 228.123 225.287C225.308 216.979 223.938 208.434 224.014 199.65C224.288 168.738 249.696 144.612 279.149 139.122C288.342 137.407 297.855 136.899 307.69 137.596C309.867 137.752 312.136 138.117 314.37 138.425C325.558 139.961 336.084 143.43 345.948 148.832C356.423 154.567 365.345 161.717 372.714 170.281C385.324 184.939 391.558 204.916 389.392 224.19C387.38 242.066 382.071 259.505 374.637 275.95C373.289 278.932 372.387 281.005 371.932 282.167C357.345 319.506 364.563 361.891 383.058 396.367C387.336 404.343 392.515 412.226 398.791 418.818C398.989 419.026 399.229 419.133 399.51 419.14C401.543 419.19 414.458 419.597 411.239 424.49C408.61 428.48 402.849 424.416 400.528 422.351C399.895 421.787 399.261 421.223 398.626 420.659C398.539 420.583 398.438 420.543 398.321 420.541C391.228 420.41 384.141 420.527 377.06 420.893C363.22 421.608 349.394 422.531 335.583 423.661C321.746 424.795 308.393 425.912 294.028 426.639C290.916 426.798 288.126 425.993 286.919 422.92C286.661 422.263 286.501 421.012 286.439 419.167C286.055 407.65 282.114 398.103 276.678 387.513C273.895 382.092 272.777 376.244 273.843 370.375C273.846 370.361 273.846 370.346 273.84 370.332C273.835 370.318 273.826 370.305 273.814 370.296C273.802 370.286 273.788 370.28 273.772 370.278C273.757 370.276 273.741 370.278 273.727 370.284C264.58 374.334 255.097 377.342 245.278 379.31C240.893 380.19 236.464 380.658 231.989 380.714C225.775 380.792 216.387 379.564 212.103 374.457C208.12 369.705 208.884 362.71 208.864 357.024C208.857 354.537 208.463 350.398 205.522 349.65C203.491 349.133 202.204 348.763 201.663 348.54C199.398 347.608 197.78 346.194 196.809 344.299C195.466 341.683 195.425 338.207 197.433 335.865C198.626 334.471 199.889 333.197 201.224 332.045C201.248 332.023 201.264 331.995 201.271 331.964C201.279 331.933 201.276 331.901 201.264 331.872C201.252 331.842 201.231 331.817 201.205 331.8C201.178 331.782 201.146 331.773 201.114 331.774C199.204 331.817 197.271 331.573 195.315 331.043C192.244 330.214 192.165 327.384 193.31 324.971C195.301 320.785 199.25 313.871 193.92 310.243C193.826 310.18 193.722 310.158 193.608 310.179C189.285 310.943 185.069 310.576 180.96 309.075C178.15 308.05 175.288 305.826 174.64 302.848C173.667 298.367 177.876 291.152 179.997 287.49C183.925 280.708 188.018 274.017 191.425 266.958C194.516 260.551 197.121 252.94 196.333 246.188C196.235 245.342 195.898 243.593 195.322 240.942C194.776 238.413 194.436 235.029 194.304 230.789C193.92 218.308 195.935 205.431 199.75 193.64C202.324 185.68 205.371 178.032 210.276 170.512C217.035 160.144 225.126 151.097 234.55 143.369C236.6 141.689 238.968 140.02 241.655 138.364C270.104 120.844 304.927 114.539 336.872 126.702C355.124 133.65 370.698 146.209 382.774 161.272C387.49 167.157 391.7 174.008 395.404 181.825C401.173 194.012 404.861 207.516 404.446 220.975C404.206 228.688 402.989 236.231 400.384 244.1C398.549 249.639 396.327 255.023 393.718 260.253C391.432 264.832 388.882 269.621 387.055 274.122C380.422 290.441 378.15 308.222 379.507 325.804C381.629 353.227 391.332 381.1 407.702 403.656C411.013 408.219 414.932 412.709 419.459 417.129C419.509 417.179 419.549 417.238 419.574 417.304C419.6 417.369 419.61 417.44 419.605 417.51C419.6 417.579 419.58 417.647 419.546 417.709C419.512 417.77 419.464 417.823 419.407 417.864L419.246 417.982C418.86 418.262 418.498 418.234 418.16 417.898C400.922 400.807 389.807 378.657 383.312 355.63C375.59 328.257 375.058 298.039 386.541 271.618C387.139 270.239 388.116 268.201 389.471 265.502C392.11 260.243 394.712 255.008 396.905 249.549C402.993 234.404 404.854 217.976 401.039 202.107C396.665 183.913 387.058 166.904 373.835 153.343C360.241 139.406 343.569 128.78 324.334 124.333C295.886 117.757 266.704 124.593 242.252 139.735C235.294 144.043 229.172 149.634 223.688 155.631C213.477 166.802 205.817 178.735 201.388 193.224C196.96 207.719 194.705 221.784 196.168 236.573C196.456 239.48 197.118 242.547 197.714 245.508C198.027 247.071 197.993 249.271 197.611 252.107C196.484 260.483 192.682 268.403 188.494 275.676C185.688 280.544 182.903 285.426 180.138 290.319C178.369 293.443 175.219 299.136 176.121 302.652C177.577 308.331 186.794 309.505 191.346 309.035C191.771 308.992 191.789 308.882 191.401 308.706C190.105 308.128 181.519 304.706 185.108 302.357C185.38 302.179 185.883 302.072 186.619 302.036C190.211 301.862 193.608 302.53 196.809 304.039C198.276 304.73 199.959 306.358 198.437 307.969C197.827 308.614 196.943 309.168 195.784 309.63C195.627 309.693 195.612 309.781 195.74 309.894C200.782 314.243 196.401 321.55 194.431 326.088C193.868 327.391 193.766 328.985 195.373 329.527C197.848 330.366 200.628 330.454 203.219 330.312C203.332 330.305 203.44 330.262 203.527 330.19C204.97 329.002 210.509 324.897 211.935 327.665C212.253 328.281 212.176 328.906 211.705 329.54C210.396 331.3 206.125 331.655 204.1 331.699C203.988 331.702 203.886 331.738 203.795 331.808C201.592 333.513 199.747 335.3 198.259 337.168C197.258 338.424 197.169 340.603 197.529 342.086C198.352 345.494 201.423 347.176 204.614 347.991C205.882 348.316 206.666 348.559 206.965 348.719C209.272 349.954 210.033 352.543 210.101 354.997C210.213 358.986 210.27 361.495 210.273 362.524C210.286 367.624 211.119 372.991 215.887 375.793C221.076 378.846 228.209 379.574 234.217 379.198C247.845 378.342 261.514 374.128 274.114 368.582C274.278 368.509 274.385 368.389 274.433 368.219C275.211 365.471 277.185 361.769 279.951 360.463C281.816 359.583 283.091 361.427 283.142 363.048C283.197 364.852 282.114 366.382 280.496 367.187C278.892 367.986 277.295 368.734 275.704 369.431C275.64 369.459 275.584 369.502 275.539 369.556C275.495 369.61 275.463 369.674 275.447 369.742C274.508 373.973 274.796 378.068 276.057 382.19C276.395 383.295 277.291 385.367 278.744 388.403C279.615 390.224 280.713 392.566 282.038 395.429C284.86 401.525 286.688 407.702 287.522 413.958C287.685 415.188 287.816 417.22 287.917 420.053C287.962 421.283 288.144 422.198 288.462 422.798C289.709 425.15 291.807 425.302 294.285 425.194C298.658 425 303.027 424.738 307.392 424.409C331.717 422.585 356.385 420.348 380.402 419.305C385.52 419.082 390.999 419.01 396.837 419.089C396.981 419.091 397.005 419.039 396.909 418.933ZM297.744 209.629C297.761 209.626 297.775 209.596 297.783 209.541C297.792 209.486 297.795 209.406 297.792 209.306C297.79 209.206 297.782 209.088 297.769 208.96C297.756 208.831 297.739 208.693 297.718 208.555C297.675 208.275 297.62 208.009 297.564 207.815C297.508 207.621 297.457 207.515 297.421 207.521C297.403 207.523 297.39 207.553 297.381 207.609C297.373 207.664 297.37 207.744 297.372 207.844C297.375 207.944 297.382 208.061 297.395 208.19C297.408 208.319 297.425 208.457 297.447 208.595C297.489 208.875 297.545 209.141 297.601 209.335C297.656 209.528 297.708 209.634 297.744 209.629ZM301.945 217.181C301.017 216.156 299.604 215.283 298.148 215.746C297.113 216.076 296.544 216.749 296.441 217.767C296.252 219.655 299.245 219.746 300.465 219.29C301.109 219.048 301.619 218.429 301.993 217.432C302.028 217.339 302.012 217.256 301.945 217.181ZM304.361 251.633C304.354 251.61 304.323 251.595 304.272 251.588C304.221 251.581 304.149 251.583 304.061 251.592C303.973 251.602 303.87 251.619 303.759 251.644C303.648 251.669 303.531 251.7 303.413 251.736C303.176 251.809 302.955 251.897 302.797 251.981C302.64 252.064 302.56 252.137 302.574 252.182C302.581 252.205 302.611 252.22 302.663 252.227C302.714 252.234 302.786 252.233 302.874 252.223C302.962 252.213 303.064 252.196 303.175 252.171C303.286 252.146 303.404 252.115 303.521 252.079C303.758 252.006 303.98 251.918 304.137 251.834C304.295 251.751 304.375 251.678 304.361 251.633ZM187.791 305.407C189.841 306.463 191.935 307.336 193.94 308.497C194.043 308.555 194.152 308.573 194.266 308.551C195.395 308.325 196.398 307.856 197.275 307.143C197.336 307.094 197.387 307.031 197.423 306.96C197.64 306.538 197.486 306.153 196.96 305.806C194.047 303.884 189.649 303.21 186.208 303.454C185.838 303.481 185.761 303.643 185.978 303.941C186.394 304.51 186.998 304.998 187.791 305.407ZM210.43 328.176C209.323 328.024 207.284 329.269 206.379 329.919C206.23 330.027 206.249 330.076 206.434 330.065C207.733 329.973 209.649 329.574 210.585 328.623C210.619 328.588 210.644 328.544 210.655 328.497C210.666 328.449 210.663 328.399 210.647 328.353C210.631 328.306 210.602 328.265 210.564 328.234C210.526 328.203 210.479 328.183 210.43 328.176ZM280.671 361.708C278.343 362.788 277.315 365.251 276.242 367.353C276.144 367.545 276.196 367.599 276.397 367.515C279.039 366.395 282.854 365.136 281.298 361.931C281.245 361.82 281.149 361.734 281.031 361.692C280.914 361.65 280.784 361.656 280.671 361.708ZM410.091 422.632C408.182 421.055 403.428 420.832 401.005 420.683C400.868 420.674 400.849 420.717 400.95 420.811C402.701 422.483 408.398 426.961 410.238 423.326C410.373 423.055 410.324 422.824 410.091 422.632Z" fill="#131316"/>
<path d="M291.346 149.743C291.083 148.938 290.916 148.387 290.846 148.091C290.816 147.963 290.835 147.829 290.898 147.714C290.961 147.599 291.064 147.51 291.188 147.465L291.325 147.418C291.771 147.256 292.073 147.395 292.23 147.838C293.91 152.515 293.769 156.481 294.534 161.009C294.609 161.449 294.426 161.714 293.985 161.805L293.862 161.832C293.787 161.847 293.71 161.848 293.635 161.834C293.56 161.82 293.488 161.792 293.425 161.75C293.361 161.709 293.306 161.656 293.264 161.594C293.221 161.532 293.191 161.462 293.176 161.388C292.367 157.513 292.563 153.445 291.346 149.743Z" fill="#131316"/>
<path d="M320.894 155.458L319.136 161.242C319.008 161.666 318.722 161.843 318.279 161.774L318.166 161.753C318.094 161.742 318.026 161.717 317.965 161.678C317.904 161.64 317.851 161.589 317.811 161.529C317.771 161.47 317.743 161.403 317.731 161.333C317.718 161.262 317.72 161.19 317.737 161.12C318.192 159.25 318.682 157.512 319.208 155.905C319.496 155.023 319.841 154.373 320.243 153.956C321.604 152.534 321.998 151.022 322.669 149.269C322.722 149.132 322.823 149.019 322.954 148.95C323.085 148.882 323.238 148.863 323.382 148.896L323.499 148.923C323.591 148.945 323.678 148.985 323.754 149.042C323.83 149.098 323.893 149.169 323.939 149.251C323.986 149.333 324.014 149.423 324.023 149.517C324.033 149.61 324.022 149.704 323.993 149.793C323.434 151.472 322.652 153.963 321.196 155.032C321.053 155.138 320.948 155.287 320.894 155.458Z" fill="#131316"/>
<path d="M268.466 160.589C267.739 159.199 266.605 157.739 265.062 156.207C264.994 156.138 264.94 156.056 264.904 155.967C264.867 155.877 264.85 155.781 264.852 155.684C264.854 155.588 264.875 155.493 264.915 155.405C264.954 155.317 265.011 155.237 265.083 155.171L265.199 155.066C265.305 154.969 265.445 154.915 265.589 154.916C265.733 154.917 265.871 154.973 265.974 155.073C267.98 157.015 269.513 159.176 270.574 161.554C270.919 162.33 272.043 163.835 273.946 166.068C274.248 166.42 274.226 166.752 273.881 167.063L273.782 167.155C273.726 167.205 273.661 167.243 273.591 167.268C273.52 167.293 273.445 167.304 273.371 167.3C273.296 167.296 273.222 167.278 273.155 167.246C273.087 167.214 273.026 167.169 272.976 167.114C271.249 165.219 269.745 163.044 268.466 160.589Z" fill="#131316"/>
<path d="M339.293 176.273C338.263 176.943 337.25 177.663 336.256 178.432C336.177 178.493 336.086 178.536 335.988 178.558C335.891 178.58 335.789 178.581 335.692 178.56C335.594 178.539 335.502 178.497 335.424 178.437C335.345 178.376 335.28 178.3 335.235 178.212L335.166 178.08C335.102 177.955 335.083 177.812 335.114 177.675C335.145 177.539 335.223 177.417 335.334 177.332C337.055 176.022 338.916 174.496 340.702 173.833C342.544 173.149 344.44 172.359 346.392 171.464C346.565 171.384 346.764 171.375 346.945 171.438C347.125 171.502 347.274 171.632 347.358 171.802L347.43 171.948C347.462 172.013 347.481 172.085 347.485 172.157C347.489 172.23 347.478 172.303 347.453 172.372C347.429 172.441 347.39 172.504 347.34 172.558C347.29 172.611 347.23 172.655 347.163 172.685C344.5 173.904 341.614 174.767 339.293 176.273Z" fill="#131316"/>
<path d="M253.264 177.875C256.074 179.33 258.254 180.132 261.216 180.674C261.401 180.708 261.567 180.809 261.68 180.959C261.793 181.108 261.845 181.294 261.826 181.479L261.812 181.615C261.804 181.689 261.781 181.761 261.744 181.826C261.707 181.891 261.657 181.948 261.596 181.993C261.536 182.038 261.467 182.071 261.393 182.089C261.319 182.107 261.243 182.11 261.168 182.098C258.528 181.665 256.465 181.081 254.978 180.345C251.984 178.865 249.296 177.805 246.913 177.164C246.458 177.042 246.274 176.752 246.361 176.294L246.388 176.149C246.402 176.077 246.431 176.008 246.473 175.947C246.515 175.886 246.569 175.834 246.633 175.795C246.696 175.756 246.767 175.73 246.841 175.718C246.915 175.707 246.991 175.711 247.063 175.729C249.821 176.447 251.888 177.162 253.264 177.875Z" fill="#131316"/>
<path d="M356.156 197.093L356.173 197.231C356.235 197.712 356.021 197.974 355.532 198.017C353.151 198.226 350.888 198.51 348.742 198.866C347.504 199.071 345.255 199.089 341.997 198.92C341.903 198.915 341.812 198.891 341.729 198.849C341.645 198.807 341.571 198.749 341.512 198.677C341.453 198.606 341.409 198.523 341.384 198.435C341.359 198.346 341.353 198.253 341.366 198.162L341.387 198.02C341.407 197.882 341.477 197.755 341.585 197.665C341.692 197.575 341.829 197.526 341.97 197.529C343.295 197.559 344.617 197.569 345.935 197.56C349.061 197.536 352.338 196.863 355.512 196.582C355.665 196.568 355.818 196.614 355.938 196.709C356.058 196.804 356.136 196.942 356.156 197.093Z" fill="#131316"/>
<path d="M257.956 200.483C255.669 201.018 253.396 201.309 251.139 201.356C248.561 201.407 246.751 201.657 244.472 202.111C244.004 202.203 243.732 202.017 243.656 201.552L243.636 201.414C243.614 201.271 243.646 201.126 243.728 201.006C243.809 200.886 243.933 200.801 244.074 200.767C246.38 200.217 248.689 199.925 251.001 199.891C253.452 199.854 255.207 199.559 257.476 199.153C257.926 199.074 258.211 199.252 258.329 199.688L258.364 199.81C258.383 199.88 258.387 199.954 258.377 200.027C258.367 200.1 258.342 200.17 258.304 200.232C258.266 200.295 258.215 200.35 258.155 200.393C258.096 200.436 258.028 200.467 257.956 200.483Z" fill="#131316"/>
<path d="M297.447 208.595C297.536 209.177 297.669 209.64 297.744 209.629C297.819 209.617 297.807 209.136 297.718 208.554C297.629 207.972 297.496 207.509 297.421 207.52C297.346 207.532 297.358 208.013 297.447 208.595Z" fill="#131316"/>
<path d="M298.149 215.747C299.606 215.283 301.018 216.156 301.947 217.182C302.013 217.256 302.029 217.34 301.995 217.432C301.62 218.429 301.11 219.049 300.466 219.29C299.246 219.747 296.254 219.656 296.442 217.767C296.545 216.75 297.114 216.076 298.149 215.747Z" fill="#131316"/>
<path d="M254.334 224.164C257.652 222.817 260.341 220.737 262.399 217.923C262.719 217.488 263.076 217.455 263.469 217.825L263.578 217.93C263.68 218.024 263.744 218.152 263.756 218.29C263.769 218.427 263.73 218.564 263.647 218.675C260.562 222.827 257.597 224.327 252.381 226.635C252.311 226.666 252.236 226.682 252.16 226.682C252.084 226.683 252.009 226.668 251.939 226.638C251.869 226.608 251.807 226.564 251.755 226.508C251.704 226.453 251.665 226.388 251.64 226.317L251.599 226.191C251.455 225.765 251.588 225.454 251.997 225.257C253.222 224.664 254.001 224.299 254.334 224.164Z" fill="#131316"/>
<path d="M343.43 224.4C342.477 223.778 341.237 223.392 340.318 222.806C339.21 222.098 338.068 221.285 336.894 220.366C336.835 220.32 336.786 220.264 336.749 220.199C336.713 220.134 336.689 220.063 336.681 219.989C336.673 219.915 336.68 219.84 336.701 219.769C336.722 219.698 336.757 219.632 336.805 219.574L336.911 219.449C337.233 219.061 337.588 219.03 337.974 219.354C339.635 220.751 341.406 221.863 343.286 222.691C343.924 222.973 345.223 223.875 347.183 225.395C347.581 225.704 347.6 226.034 347.242 226.384L347.125 226.495C347.022 226.594 346.887 226.653 346.744 226.661C346.601 226.67 346.461 226.628 346.347 226.543C344.885 225.433 343.912 224.719 343.43 224.4Z" fill="#131316"/>
<path d="M303.521 252.08C304.014 251.928 304.39 251.729 304.36 251.634C304.33 251.539 303.906 251.586 303.413 251.737C302.92 251.889 302.544 252.089 302.574 252.183C302.603 252.278 303.028 252.232 303.521 252.08Z" fill="#131316"/>
</g>
<defs>
<clipPath id="clip0_556_13327">
<rect width="548" height="548" fill="white"/>
</clipPath>
</defs>
</svg>
