<svg width="344" height="147" viewBox="0 0 344 147" fill="none" xmlns="http://www.w3.org/2000/svg">
<g filter="url(#filter0_bd_758_11385)">
<rect x="44" y="40.207" width="256" height="58.4036" rx="12" fill="white" fill-opacity="0.8" shape-rendering="crispEdges"/>
<path d="M66.016 53.647V64.207H64.432L60.016 57.135L58.896 55.151H58.88L58.944 56.751V64.207H57.728V53.647H59.312L63.712 60.687L64.848 62.719H64.864L64.8 61.103V53.647H66.016ZM69.638 54.671C69.35 54.671 69.1153 54.5857 68.934 54.415C68.7633 54.2337 68.678 53.999 68.678 53.711C68.678 53.423 68.7633 53.1937 68.934 53.023C69.1153 52.8417 69.35 52.751 69.638 52.751C69.926 52.751 70.1553 52.8417 70.326 53.023C70.5073 53.1937 70.598 53.423 70.598 53.711C70.598 53.999 70.5073 54.2337 70.326 54.415C70.1553 54.5857 69.926 54.671 69.638 54.671ZM70.278 56.207V64.207H68.998V56.207H70.278ZM80.032 56.207L76.576 59.663L76.272 59.967L73.648 62.591V60.991L78.416 56.207H80.032ZM74.288 52.527V64.207H73.008V52.527H74.288ZM76.688 59.007L80.224 64.207H78.672L75.616 59.727L76.688 59.007ZM84.8769 56.047C85.6342 56.047 86.3009 56.2124 86.8769 56.543C87.4635 56.8737 87.9222 57.3537 88.2529 57.983C88.5835 58.6017 88.7489 59.343 88.7489 60.207C88.7489 61.071 88.5835 61.8177 88.2529 62.447C87.9222 63.0657 87.4635 63.5404 86.8769 63.871C86.3009 64.2017 85.6342 64.367 84.8769 64.367C84.1302 64.367 83.4635 64.2017 82.8769 63.871C82.2902 63.5404 81.8315 63.0657 81.5009 62.447C81.1702 61.8177 81.0049 61.071 81.0049 60.207C81.0049 59.343 81.1702 58.6017 81.5009 57.983C81.8315 57.3537 82.2902 56.8737 82.8769 56.543C83.4635 56.2124 84.1302 56.047 84.8769 56.047ZM84.8769 57.151C84.3329 57.151 83.8689 57.2737 83.4849 57.519C83.1009 57.7644 82.8022 58.1164 82.5889 58.575C82.3862 59.023 82.2849 59.567 82.2849 60.207C82.2849 60.8364 82.3862 61.3804 82.5889 61.839C82.8022 62.2977 83.1009 62.6497 83.4849 62.895C83.8689 63.1404 84.3329 63.263 84.8769 63.263C85.4209 63.263 85.8849 63.1404 86.2689 62.895C86.6529 62.6497 86.9462 62.2977 87.1489 61.839C87.3622 61.3804 87.4689 60.8364 87.4689 60.207C87.4689 59.567 87.3622 59.023 87.1489 58.575C86.9462 58.1164 86.6529 57.7644 86.2689 57.519C85.8849 57.2737 85.4209 57.151 84.8769 57.151ZM99.7797 53.647C101.433 53.647 102.729 54.1057 103.668 55.023C104.617 55.9297 105.092 57.231 105.092 58.927C105.092 60.623 104.617 61.9297 103.668 62.847C102.729 63.7537 101.433 64.207 99.7797 64.207H96.3717V53.647H99.7797ZM99.9077 63.007C101.113 63.007 102.052 62.6497 102.724 61.935C103.406 61.2097 103.748 60.207 103.748 58.927C103.748 57.647 103.406 56.6497 102.724 55.935C102.052 55.2097 101.113 54.847 99.9077 54.847H97.6517V63.007H99.9077ZM107.345 64.207V56.207H108.385L108.561 57.519C108.785 57.0284 109.11 56.6604 109.537 56.415C109.974 56.1697 110.502 56.047 111.121 56.047C111.26 56.047 111.409 56.0577 111.569 56.079C111.74 56.1004 111.884 56.143 112.001 56.207L111.777 57.375C111.66 57.3324 111.532 57.3004 111.393 57.279C111.254 57.2577 111.057 57.247 110.801 57.247C110.47 57.247 110.134 57.343 109.793 57.535C109.462 57.727 109.185 58.0204 108.961 58.415C108.737 58.799 108.625 59.2897 108.625 59.887V64.207H107.345ZM118.089 59.039C118.089 58.4417 117.929 57.983 117.609 57.663C117.289 57.3324 116.836 57.167 116.249 57.167C115.695 57.167 115.225 57.2897 114.841 57.535C114.457 57.7697 114.175 58.1537 113.993 58.687L112.953 58.047C113.167 57.4497 113.561 56.9697 114.137 56.607C114.713 56.2337 115.428 56.047 116.281 56.047C116.857 56.047 117.38 56.1484 117.849 56.351C118.319 56.543 118.687 56.8417 118.953 57.247C119.231 57.6417 119.369 58.1537 119.369 58.783V62.655C119.369 63.039 119.572 63.231 119.977 63.231C120.18 63.231 120.377 63.2044 120.569 63.151L120.505 64.159C120.292 64.2657 120.015 64.319 119.673 64.319C119.364 64.319 119.087 64.2604 118.841 64.143C118.596 64.0257 118.404 63.8497 118.265 63.615C118.127 63.3697 118.057 63.0657 118.057 62.703V62.543L118.377 62.591C118.249 63.007 118.031 63.3484 117.721 63.615C117.412 63.871 117.065 64.063 116.681 64.191C116.297 64.3084 115.919 64.367 115.545 64.367C115.076 64.367 114.639 64.287 114.233 64.127C113.828 63.967 113.503 63.727 113.257 63.407C113.023 63.0764 112.905 62.671 112.905 62.191C112.905 61.5937 113.103 61.103 113.497 60.719C113.903 60.3244 114.463 60.0577 115.177 59.919L118.345 59.295V60.351L115.769 60.879C115.247 60.9857 114.857 61.135 114.601 61.327C114.345 61.519 114.217 61.7857 114.217 62.127C114.217 62.4577 114.345 62.7297 114.601 62.943C114.868 63.1457 115.241 63.247 115.721 63.247C116.031 63.247 116.324 63.2097 116.601 63.135C116.889 63.0497 117.145 62.927 117.369 62.767C117.593 62.5964 117.769 62.3884 117.897 62.143C118.025 61.887 118.089 61.5884 118.089 61.247V59.039ZM129.264 56.207L125.808 59.663L125.504 59.967L122.88 62.591V60.991L127.648 56.207H129.264ZM123.52 52.527V64.207H122.24V52.527H123.52ZM125.92 59.007L129.456 64.207H127.904L124.848 59.727L125.92 59.007ZM134.109 56.047C134.866 56.047 135.533 56.2124 136.109 56.543C136.695 56.8737 137.154 57.3537 137.485 57.983C137.815 58.6017 137.981 59.343 137.981 60.207C137.981 61.071 137.815 61.8177 137.485 62.447C137.154 63.0657 136.695 63.5404 136.109 63.871C135.533 64.2017 134.866 64.367 134.109 64.367C133.362 64.367 132.695 64.2017 132.109 63.871C131.522 63.5404 131.063 63.0657 130.733 62.447C130.402 61.8177 130.237 61.071 130.237 60.207C130.237 59.343 130.402 58.6017 130.733 57.983C131.063 57.3537 131.522 56.8737 132.109 56.543C132.695 56.2124 133.362 56.047 134.109 56.047ZM134.109 57.151C133.565 57.151 133.101 57.2737 132.717 57.519C132.333 57.7644 132.034 58.1164 131.821 58.575C131.618 59.023 131.517 59.567 131.517 60.207C131.517 60.8364 131.618 61.3804 131.821 61.839C132.034 62.2977 132.333 62.6497 132.717 62.895C133.101 63.1404 133.565 63.263 134.109 63.263C134.653 63.263 135.117 63.1404 135.501 62.895C135.885 62.6497 136.178 62.2977 136.381 61.839C136.594 61.3804 136.701 60.8364 136.701 60.207C136.701 59.567 136.594 59.023 136.381 58.575C136.178 58.1164 135.885 57.7644 135.501 57.519C135.117 57.2737 134.653 57.151 134.109 57.151ZM143.046 64.367C142.534 64.367 142.049 64.271 141.59 64.079C141.142 63.887 140.774 63.5777 140.486 63.151C140.209 62.7137 140.07 62.1484 140.07 61.455V56.207H141.35V61.119C141.35 61.9297 141.526 62.4897 141.878 62.799C142.23 63.0977 142.726 63.247 143.366 63.247C143.665 63.247 143.958 63.199 144.246 63.103C144.534 62.9964 144.79 62.8364 145.014 62.623C145.249 62.399 145.43 62.1164 145.558 61.775C145.697 61.4337 145.766 61.0284 145.766 60.559V56.207H147.046V64.207H145.926L145.846 62.991C145.569 63.471 145.19 63.823 144.71 64.047C144.241 64.2604 143.686 64.367 143.046 64.367ZM151.002 52.527V62.175C151.002 62.5804 151.076 62.863 151.226 63.023C151.375 63.1724 151.615 63.247 151.946 63.247C152.159 63.247 152.335 63.231 152.474 63.199C152.612 63.167 152.799 63.1084 153.034 63.023L152.826 64.143C152.655 64.2177 152.468 64.271 152.266 64.303C152.063 64.3457 151.855 64.367 151.642 64.367C150.991 64.367 150.506 64.191 150.186 63.839C149.876 63.487 149.722 62.9484 149.722 62.223V52.527H151.002ZM155.076 54.671C154.788 54.671 154.553 54.5857 154.372 54.415C154.201 54.2337 154.116 53.999 154.116 53.711C154.116 53.423 154.201 53.1937 154.372 53.023C154.553 52.8417 154.788 52.751 155.076 52.751C155.364 52.751 155.593 52.8417 155.764 53.023C155.945 53.1937 156.036 53.423 156.036 53.711C156.036 53.999 155.945 54.2337 155.764 54.415C155.593 54.5857 155.364 54.671 155.076 54.671ZM155.716 56.207V64.207H154.436V56.207H155.716ZM161.326 64.367C160.547 64.367 159.827 64.2017 159.166 63.871C158.515 63.5404 158.014 63.071 157.662 62.463L158.75 61.679C158.985 62.1697 159.326 62.5537 159.774 62.831C160.233 63.1084 160.782 63.247 161.422 63.247C161.987 63.247 162.43 63.1404 162.75 62.927C163.07 62.703 163.23 62.415 163.23 62.063C163.23 61.839 163.155 61.6364 163.006 61.455C162.867 61.263 162.595 61.1244 162.19 61.039L160.27 60.639C159.491 60.479 158.931 60.2124 158.59 59.839C158.259 59.4657 158.094 59.0017 158.094 58.447C158.094 58.0097 158.217 57.6097 158.462 57.247C158.718 56.8844 159.075 56.5964 159.534 56.383C160.003 56.159 160.553 56.047 161.182 56.047C161.971 56.047 162.638 56.2017 163.182 56.511C163.726 56.8204 164.131 57.2577 164.398 57.823L163.326 58.527C163.145 58.0577 162.851 57.7164 162.446 57.503C162.041 57.279 161.619 57.167 161.182 57.167C160.798 57.167 160.467 57.2204 160.19 57.327C159.923 57.4337 159.715 57.583 159.566 57.775C159.427 57.9564 159.358 58.1644 159.358 58.399C159.358 58.6337 159.438 58.8524 159.598 59.055C159.758 59.247 160.057 59.3857 160.494 59.471L162.494 59.887C163.241 60.0364 163.763 60.2817 164.062 60.623C164.361 60.9644 164.51 61.3804 164.51 61.871C164.51 62.3724 164.377 62.815 164.11 63.199C163.843 63.5724 163.47 63.8604 162.99 64.063C162.51 64.2657 161.955 64.367 161.326 64.367Z" fill="#131316"/>
<path opacity="0.8" d="M62.3876 78.0556H58.1068V80.4426H61.4463V81.283H58.1068V84.6113H57.2103V77.2151H62.3876V78.0556ZM65.4208 78.8961C65.9512 78.8961 66.4181 79.0119 66.8216 79.2435C67.2325 79.4751 67.5537 79.8113 67.7853 80.2521C68.0169 80.6854 68.1327 81.2046 68.1327 81.8097C68.1327 82.4149 68.0169 82.9378 67.7853 83.3786C67.5537 83.8119 67.2325 84.1444 66.8216 84.376C66.4181 84.6076 65.9512 84.7234 65.4208 84.7234C64.8978 84.7234 64.4309 84.6076 64.02 84.376C63.6091 84.1444 63.2878 83.8119 63.0562 83.3786C62.8246 82.9378 62.7088 82.4149 62.7088 81.8097C62.7088 81.2046 62.8246 80.6854 63.0562 80.2521C63.2878 79.8113 63.6091 79.4751 64.02 79.2435C64.4309 79.0119 64.8978 78.8961 65.4208 78.8961ZM65.4208 79.6693C65.0398 79.6693 64.7148 79.7552 64.4458 79.9271C64.1769 80.0989 63.9677 80.3454 63.8183 80.6667C63.6763 80.9805 63.6053 81.3615 63.6053 81.8097C63.6053 82.2505 63.6763 82.6315 63.8183 82.9528C63.9677 83.274 64.1769 83.5206 64.4458 83.6924C64.7148 83.8642 65.0398 83.9502 65.4208 83.9502C65.8018 83.9502 66.1268 83.8642 66.3957 83.6924C66.6647 83.5206 66.8701 83.274 67.0121 82.9528C67.1615 82.6315 67.2362 82.2505 67.2362 81.8097C67.2362 81.3615 67.1615 80.9805 67.0121 80.6667C66.8701 80.3454 66.6647 80.0989 66.3957 79.9271C66.1268 79.7552 65.8018 79.6693 65.4208 79.6693ZM71.6807 84.7234C71.3221 84.7234 70.9822 84.6562 70.661 84.5217C70.3472 84.3872 70.0894 84.1705 69.8877 83.8717C69.6935 83.5654 69.5964 83.1694 69.5964 82.6838V79.0082H70.4929V82.4485C70.4929 83.0163 70.6161 83.4085 70.8627 83.6252C71.1092 83.8344 71.4566 83.9389 71.9049 83.9389C72.114 83.9389 72.3195 83.9053 72.5212 83.8381C72.7229 83.7634 72.9022 83.6513 73.0591 83.5019C73.2235 83.345 73.3505 83.147 73.4401 82.908C73.5373 82.6689 73.5858 82.385 73.5858 82.0563V79.0082H74.4823V84.6113H73.6979L73.6418 83.7596C73.4476 84.0958 73.1824 84.3424 72.8462 84.4993C72.5175 84.6487 72.129 84.7234 71.6807 84.7234ZM76.4007 84.6113V79.0082H77.1852L77.2636 80.2633L77.1179 80.14C77.2374 79.8412 77.3981 79.6021 77.5998 79.4228C77.8015 79.236 78.0331 79.1015 78.2946 79.0194C78.5635 78.9372 78.84 78.8961 79.1238 78.8961C79.5273 78.8961 79.8933 78.9745 80.2221 79.1314C80.5508 79.2808 80.8123 79.5124 81.0065 79.8262C81.2082 80.14 81.3091 80.5397 81.3091 81.0253V84.6113H80.4126V81.3391C80.4126 80.719 80.2781 80.2894 80.0091 80.0503C79.7477 79.8038 79.4227 79.6805 79.0342 79.6805C78.7652 79.6805 78.4963 79.744 78.2273 79.871C77.9584 79.9981 77.7343 80.2035 77.555 80.4874C77.3831 80.7713 77.2972 81.1523 77.2972 81.6304V84.6113H76.4007ZM85.3561 84.7234C84.893 84.7234 84.4671 84.6076 84.0786 84.376C83.6901 84.1444 83.3801 83.8119 83.1485 83.3786C82.9169 82.9378 82.8011 82.4149 82.8011 81.8097C82.8011 81.1897 82.9244 80.663 83.1709 80.2296C83.4175 79.7963 83.7424 79.4676 84.1459 79.2435C84.5493 79.0119 84.9826 78.8961 85.4458 78.8961C85.909 78.8961 86.3087 79.0156 86.6449 79.2547C86.9885 79.4938 87.2164 79.8113 87.3285 80.2072L87.2164 80.2857V76.4307H88.1129V84.6113H87.3285L87.25 83.2554L87.3733 83.1881C87.321 83.5168 87.194 83.797 86.9923 84.0286C86.798 84.2527 86.5552 84.4246 86.2639 84.5441C85.98 84.6636 85.6774 84.7234 85.3561 84.7234ZM85.4458 83.9389C85.8044 83.9389 86.1144 83.8493 86.3759 83.67C86.6449 83.4907 86.8503 83.2367 86.9923 82.908C87.1417 82.5718 87.2164 82.1796 87.2164 81.7313C87.2164 81.3055 87.1417 80.9394 86.9923 80.6331C86.8503 80.3268 86.6486 80.0914 86.3871 79.9271C86.1331 79.7627 85.8343 79.6805 85.4906 79.6805C84.9228 79.6805 84.4821 79.8748 84.1683 80.2633C83.8545 80.6518 83.6976 81.1672 83.6976 81.8097C83.6976 82.4522 83.8508 82.9677 84.1571 83.3562C84.4634 83.7447 84.893 83.9389 85.4458 83.9389ZM92.3708 84.7234C91.8404 84.7234 91.366 84.6076 90.9476 84.376C90.5367 84.1444 90.2154 83.8119 89.9838 83.3786C89.7522 82.9378 89.6364 82.4149 89.6364 81.8097C89.6364 81.2046 89.7522 80.6854 89.9838 80.2521C90.2154 79.8113 90.533 79.4751 90.9364 79.2435C91.3398 79.0119 91.7993 78.8961 92.3148 78.8961C92.8377 78.8961 93.2822 79.0082 93.6483 79.2323C94.0219 79.4564 94.3058 79.7627 94.5 80.1512C94.6942 80.5322 94.7914 80.9618 94.7914 81.4399C94.7914 81.5669 94.7876 81.6827 94.7802 81.7873C94.7727 81.8919 94.7615 81.9853 94.7465 82.0675H90.2192V81.2718H94.3543L93.8949 81.3615C93.8949 80.8236 93.7454 80.409 93.4466 80.1176C93.1552 79.8262 92.7705 79.6805 92.2923 79.6805C91.9263 79.6805 91.6088 79.7665 91.3398 79.9383C91.0783 80.1026 90.8729 80.3454 90.7235 80.6667C90.5815 80.9805 90.5105 81.3615 90.5105 81.8097C90.5105 82.2505 90.5852 82.6315 90.7347 82.9528C90.8841 83.274 91.0933 83.5206 91.3622 83.6924C91.6386 83.8568 91.9674 83.9389 92.3484 83.9389C92.7593 83.9389 93.0917 83.8605 93.3457 83.7036C93.6072 83.5467 93.8164 83.3338 93.9733 83.0649L94.6793 83.4795C94.5374 83.7335 94.3543 83.9539 94.1302 84.1407C93.9135 84.3274 93.6558 84.4731 93.3569 84.5777C93.0656 84.6748 92.7369 84.7234 92.3708 84.7234ZM96.3283 84.6113V79.0082H97.0567L97.18 79.9271C97.3369 79.5834 97.5647 79.3257 97.8636 79.1538C98.1699 78.982 98.5397 78.8961 98.973 78.8961C99.0701 78.8961 99.1747 78.9036 99.2868 78.9185C99.4063 78.9334 99.5072 78.9633 99.5893 79.0082L99.4324 79.8262C99.3503 79.7963 99.2606 79.7739 99.1635 79.759C99.0664 79.744 98.9282 79.7366 98.7489 79.7366C98.5173 79.7366 98.2819 79.8038 98.0429 79.9383C97.8113 80.0728 97.617 80.2782 97.4601 80.5546C97.3032 80.8236 97.2248 81.1672 97.2248 81.5856V84.6113H96.3283ZM100.286 83.2666C100.465 83.2666 100.614 83.3151 100.734 83.4122C100.861 83.5019 100.958 83.6289 101.025 83.7933C101.092 83.9502 101.126 84.1369 101.126 84.3536C101.126 84.6001 101.081 84.8429 100.992 85.082C100.909 85.3211 100.779 85.5415 100.599 85.7432C100.42 85.9449 100.188 86.113 99.9045 86.2475L99.4339 85.8104C99.6356 85.7432 99.8111 85.6498 99.9605 85.5302C100.117 85.4107 100.244 85.2762 100.342 85.1268C100.439 84.9774 100.502 84.8242 100.532 84.6674L100.487 84.6449C100.457 84.6674 100.42 84.686 100.375 84.701C100.33 84.7159 100.263 84.7234 100.173 84.7234C100.084 84.7234 99.9904 84.6972 99.8933 84.6449C99.8037 84.5927 99.7252 84.5179 99.658 84.4208C99.5907 84.3162 99.5571 84.1818 99.5571 84.0174C99.5571 83.8829 99.5907 83.7596 99.658 83.6476C99.7252 83.528 99.8111 83.4347 99.9157 83.3674C100.028 83.3002 100.151 83.2666 100.286 83.2666ZM112.427 82.7175C112.27 83.1358 112.046 83.4982 111.755 83.8045C111.463 84.1033 111.12 84.3312 110.724 84.4881C110.335 84.6449 109.909 84.7234 109.446 84.7234C108.744 84.7234 108.135 84.5702 107.619 84.2639C107.111 83.9502 106.715 83.5094 106.432 82.9416C106.155 82.3738 106.017 81.6977 106.017 80.9132C106.017 80.1288 106.155 79.4527 106.432 78.8849C106.715 78.3171 107.111 77.8801 107.619 77.5737C108.135 77.26 108.736 77.1031 109.424 77.1031C109.902 77.1031 110.328 77.1703 110.701 77.3048C111.075 77.4318 111.392 77.626 111.654 77.8875C111.923 78.1415 112.136 78.4553 112.293 78.8289L111.407 79.2435C111.243 78.8176 111.004 78.4964 110.69 78.2797C110.384 78.0556 109.984 77.9436 109.491 77.9436C108.99 77.9436 108.55 78.0631 108.169 78.3022C107.788 78.5338 107.489 78.8699 107.272 79.3107C107.063 79.7515 106.958 80.2857 106.958 80.9132C106.958 81.5333 107.059 82.0675 107.261 82.5157C107.463 82.9565 107.75 83.2965 108.124 83.5355C108.497 83.7671 108.938 83.8829 109.446 83.8829C109.939 83.8829 110.369 83.7596 110.735 83.5131C111.101 83.2591 111.366 82.8818 111.53 82.3813L112.427 82.7175ZM113.98 84.6113V77.2151H119.168V78.0556H114.876V80.4426H118.216V81.283H114.876V83.7709H119.336V84.6113H113.98ZM123.774 77.1031C124.477 77.1031 125.082 77.26 125.59 77.5737C126.105 77.8801 126.501 78.3171 126.778 78.8849C127.062 79.4527 127.204 80.1288 127.204 80.9132C127.204 81.6977 127.062 82.3738 126.778 82.9416C126.501 83.5094 126.105 83.9502 125.59 84.2639C125.082 84.5702 124.477 84.7234 123.774 84.7234C123.072 84.7234 122.463 84.5702 121.948 84.2639C121.44 83.9502 121.044 83.5094 120.76 82.9416C120.484 82.3738 120.345 81.6977 120.345 80.9132C120.345 80.1288 120.484 79.4527 120.76 78.8849C121.044 78.3171 121.44 77.8801 121.948 77.5737C122.463 77.26 123.072 77.1031 123.774 77.1031ZM123.774 77.9436C123.266 77.9436 122.826 78.0631 122.452 78.3022C122.079 78.5338 121.791 78.8737 121.589 79.3219C121.388 79.7627 121.287 80.2932 121.287 80.9132C121.287 81.5333 121.388 82.0675 121.589 82.5157C121.791 82.9565 122.079 83.2965 122.452 83.5355C122.826 83.7671 123.266 83.8829 123.774 83.8829C124.29 83.8829 124.731 83.7671 125.097 83.5355C125.47 83.2965 125.758 82.9565 125.96 82.5157C126.161 82.0675 126.262 81.5333 126.262 80.9132C126.262 80.2932 126.161 79.7627 125.96 79.3219C125.758 78.8737 125.47 78.5338 125.097 78.3022C124.731 78.0631 124.29 77.9436 123.774 77.9436ZM134.341 84.7234C133.847 84.7234 133.425 84.6375 133.074 84.4656C132.723 84.2938 132.454 84.0585 132.267 83.7596C132.081 83.4608 131.987 83.1171 131.987 82.7287C131.987 82.4896 132.017 82.2655 132.077 82.0563C132.144 81.8396 132.249 81.6342 132.391 81.4399C132.533 81.2457 132.723 81.0627 132.962 80.8908C133.209 80.719 133.511 80.5584 133.87 80.4089L134.341 80.1736C134.624 80.0167 134.86 79.871 135.047 79.7366C135.233 79.5946 135.372 79.4415 135.461 79.2771C135.558 79.1128 135.607 78.9185 135.607 78.6944C135.607 78.4329 135.525 78.2312 135.36 78.0892C135.203 77.9398 134.987 77.8651 134.71 77.8651C134.389 77.8651 134.15 77.9548 133.993 78.1341C133.844 78.3059 133.769 78.5076 133.769 78.7392C133.769 78.8812 133.788 79.0194 133.825 79.1538C133.862 79.2808 133.941 79.4415 134.06 79.6357C134.187 79.83 134.374 80.0877 134.621 80.4089C134.867 80.7302 135.2 81.1523 135.618 81.6753C136.044 82.1982 136.395 82.6203 136.671 82.9416C136.948 83.2554 137.183 83.4944 137.377 83.6588C137.572 83.8157 137.751 83.9203 137.915 83.9726C138.087 84.0249 138.274 84.051 138.476 84.051L138.252 84.7234C138.035 84.7234 137.829 84.6972 137.635 84.6449C137.448 84.5927 137.239 84.4806 137.008 84.3088C136.784 84.1369 136.511 83.8792 136.19 83.5355C135.876 83.1919 135.484 82.7324 135.013 82.1571C134.61 81.6566 134.273 81.2345 134.004 80.8908C133.735 80.5472 133.522 80.2558 133.366 80.0167C133.209 79.7777 133.097 79.561 133.029 79.3668C132.962 79.165 132.929 78.9596 132.929 78.7504C132.929 78.4815 132.992 78.22 133.119 77.966C133.254 77.712 133.455 77.5065 133.724 77.3496C133.993 77.1853 134.341 77.1031 134.766 77.1031C135.088 77.1031 135.368 77.1628 135.607 77.2824C135.846 77.4019 136.033 77.5737 136.167 77.7979C136.309 78.022 136.38 78.2872 136.38 78.5935C136.38 78.855 136.335 79.1053 136.246 79.3443C136.163 79.5759 136.003 79.8075 135.764 80.0391C135.532 80.2633 135.185 80.4986 134.722 80.7451L134.341 80.8908C133.952 81.0701 133.649 81.2457 133.433 81.4175C133.216 81.5819 133.063 81.7612 132.973 81.9554C132.884 82.1497 132.839 82.3813 132.839 82.6502C132.839 82.9266 132.91 83.1657 133.052 83.3674C133.194 83.5691 133.384 83.726 133.623 83.8381C133.862 83.9427 134.131 83.995 134.43 83.995C134.841 83.995 135.189 83.9203 135.472 83.7709C135.756 83.6214 136.018 83.4085 136.257 83.1321L136.403 82.9976C136.597 82.6913 136.746 82.3439 136.851 81.9554C136.963 81.5669 137 81.1336 136.963 80.6555L137.725 80.7227C137.755 81.2009 137.702 81.6715 137.568 82.1347C137.441 82.5979 137.236 83.0163 136.952 83.3898L136.784 83.6252C136.5 83.9614 136.156 84.2303 135.753 84.432C135.349 84.6263 134.878 84.7234 134.341 84.7234ZM145.501 77.1031C146.151 77.1031 146.711 77.2376 147.182 77.5065C147.652 77.768 148.044 78.1565 148.358 78.672L147.607 79.2547C147.331 78.7766 147.017 78.4404 146.666 78.2461C146.322 78.0444 145.904 77.9436 145.411 77.9436C145.015 77.9436 144.686 77.9996 144.425 78.1116C144.171 78.2237 143.984 78.3731 143.864 78.5599C143.745 78.7392 143.685 78.9447 143.685 79.1763C143.685 79.4377 143.767 79.6693 143.932 79.871C144.096 80.0653 144.425 80.2184 144.918 80.3305L146.52 80.6891C147.23 80.846 147.723 81.0851 148 81.4063C148.283 81.7201 148.425 82.1123 148.425 82.583C148.425 83.0014 148.306 83.3749 148.067 83.7036C147.835 84.0249 147.507 84.2751 147.081 84.4544C146.655 84.6337 146.154 84.7234 145.579 84.7234C145.041 84.7234 144.567 84.6524 144.156 84.5105C143.752 84.3611 143.405 84.1631 143.114 83.9165C142.822 83.67 142.583 83.3936 142.396 83.0873L143.181 82.4485C143.323 82.7324 143.506 82.9827 143.73 83.1993C143.954 83.416 144.223 83.5841 144.537 83.7036C144.858 83.8231 145.224 83.8829 145.635 83.8829C146.016 83.8829 146.345 83.8381 146.621 83.7484C146.905 83.6513 147.122 83.5131 147.271 83.3338C147.421 83.147 147.495 82.9229 147.495 82.6614C147.495 82.4224 147.417 82.2094 147.26 82.0227C147.103 81.8284 146.808 81.6827 146.375 81.5856L144.638 81.1934C144.182 81.0888 143.812 80.9469 143.528 80.7676C143.252 80.5808 143.05 80.3641 142.923 80.1176C142.804 79.8636 142.744 79.5909 142.744 79.2995C142.744 78.9036 142.852 78.5412 143.069 78.2125C143.293 77.8763 143.61 77.6074 144.021 77.4057C144.44 77.2039 144.933 77.1031 145.501 77.1031ZM152.31 84.7234C151.779 84.7234 151.305 84.6076 150.887 84.376C150.476 84.1444 150.154 83.8119 149.923 83.3786C149.691 82.9378 149.575 82.4149 149.575 81.8097C149.575 81.2046 149.691 80.6854 149.923 80.2521C150.154 79.8113 150.472 79.4751 150.875 79.2435C151.279 79.0119 151.738 78.8961 152.254 78.8961C152.777 78.8961 153.221 79.0082 153.587 79.2323C153.961 79.4564 154.245 79.7627 154.439 80.1512C154.633 80.5322 154.73 80.9618 154.73 81.4399C154.73 81.5669 154.727 81.6827 154.719 81.7873C154.712 81.8919 154.701 81.9853 154.686 82.0675H150.158V81.2718H154.293L153.834 81.3615C153.834 80.8236 153.684 80.409 153.386 80.1176C153.094 79.8262 152.71 79.6805 152.231 79.6805C151.865 79.6805 151.548 79.7665 151.279 79.9383C151.017 80.1026 150.812 80.3454 150.662 80.6667C150.521 80.9805 150.45 81.3615 150.45 81.8097C150.45 82.2505 150.524 82.6315 150.674 82.9528C150.823 83.274 151.032 83.5206 151.301 83.6924C151.578 83.8568 151.906 83.9389 152.287 83.9389C152.698 83.9389 153.031 83.8605 153.285 83.7036C153.546 83.5467 153.755 83.3338 153.912 83.0649L154.618 83.4795C154.476 83.7335 154.293 83.9539 154.069 84.1407C153.853 84.3274 153.595 84.4731 153.296 84.5777C153.005 84.6748 152.676 84.7234 152.31 84.7234ZM156.267 84.6113V79.0082H156.996L157.119 79.9271C157.276 79.5834 157.504 79.3257 157.803 79.1538C158.109 78.982 158.479 78.8961 158.912 78.8961C159.009 78.8961 159.114 78.9036 159.226 78.9185C159.345 78.9334 159.446 78.9633 159.528 79.0082L159.371 79.8262C159.289 79.7963 159.2 79.7739 159.103 79.759C159.005 79.744 158.867 79.7366 158.688 79.7366C158.456 79.7366 158.221 79.8038 157.982 79.9383C157.75 80.0728 157.556 80.2782 157.399 80.5546C157.242 80.8236 157.164 81.1672 157.164 81.5856V84.6113H156.267ZM164.383 79.0082H165.324L162.993 84.6113H162.097L159.766 79.0082H160.786L162.556 83.7036L164.383 79.0082ZM169.458 80.9917C169.458 80.5733 169.346 80.2521 169.121 80.0279C168.897 79.7963 168.58 79.6805 168.169 79.6805C167.78 79.6805 167.452 79.7665 167.183 79.9383C166.914 80.1026 166.716 80.3716 166.589 80.7451L165.86 80.2969C166.01 79.8785 166.286 79.5423 166.69 79.2883C167.093 79.0268 167.594 78.8961 168.191 78.8961C168.595 78.8961 168.961 78.9671 169.29 79.109C169.618 79.2435 169.876 79.4527 170.063 79.7366C170.257 80.013 170.354 80.3716 170.354 80.8124V83.5243C170.354 83.7933 170.496 83.9277 170.78 83.9277C170.922 83.9277 171.06 83.9091 171.195 83.8717L171.15 84.5777C171 84.6524 170.806 84.6898 170.567 84.6898C170.35 84.6898 170.156 84.6487 169.984 84.5665C169.812 84.4843 169.678 84.3611 169.581 84.1967C169.484 84.0249 169.435 83.8119 169.435 83.5579V83.4459L169.659 83.4795C169.57 83.7709 169.417 84.0099 169.2 84.1967C168.983 84.376 168.74 84.5105 168.471 84.6001C168.203 84.6823 167.937 84.7234 167.676 84.7234C167.347 84.7234 167.041 84.6674 166.757 84.5553C166.473 84.4432 166.245 84.2751 166.073 84.051C165.909 83.8194 165.827 83.5355 165.827 83.1993C165.827 82.781 165.965 82.4373 166.241 82.1683C166.525 81.8919 166.918 81.7052 167.418 81.608L169.637 81.171V81.9106L167.833 82.2804C167.467 82.3551 167.194 82.4597 167.015 82.5942C166.835 82.7287 166.746 82.9154 166.746 83.1545C166.746 83.3861 166.835 83.5766 167.015 83.726C167.201 83.868 167.463 83.9389 167.799 83.9389C168.016 83.9389 168.221 83.9128 168.415 83.8605C168.617 83.8007 168.796 83.7148 168.953 83.6028C169.11 83.4832 169.234 83.3375 169.323 83.1657C169.413 82.9864 169.458 82.7772 169.458 82.5382V80.9917ZM172.365 84.6113V79.0082H173.149L173.228 80.2633L173.082 80.14C173.201 79.8412 173.362 79.6021 173.564 79.4228C173.765 79.236 173.997 79.1015 174.259 79.0194C174.527 78.9372 174.804 78.8961 175.088 78.8961C175.491 78.8961 175.857 78.9745 176.186 79.1314C176.515 79.2808 176.776 79.5124 176.97 79.8262C177.172 80.14 177.273 80.5397 177.273 81.0253V84.6113H176.377V81.3391C176.377 80.719 176.242 80.2894 175.973 80.0503C175.712 79.8038 175.387 79.6805 174.998 79.6805C174.729 79.6805 174.46 79.744 174.191 79.871C173.922 79.9981 173.698 80.2035 173.519 80.4874C173.347 80.7713 173.261 81.1523 173.261 81.6304V84.6113H172.365ZM180.381 77.4169V83.0649C180.381 83.3413 180.459 83.5467 180.616 83.6812C180.773 83.8157 180.975 83.8829 181.221 83.8829C181.438 83.8829 181.624 83.8456 181.781 83.7709C181.938 83.6961 182.08 83.5953 182.207 83.4683L182.521 84.2191C182.349 84.376 182.144 84.4993 181.905 84.5889C181.673 84.6786 181.404 84.7234 181.098 84.7234C180.814 84.7234 180.549 84.6748 180.302 84.5777C180.056 84.4731 179.858 84.3125 179.708 84.0958C179.566 83.8717 179.492 83.5803 179.484 83.2217V77.6634L180.381 77.4169ZM182.42 79.0082V79.7814H178.363V79.0082H182.42ZM188.34 77.4169V83.0649C188.34 83.3413 188.418 83.5467 188.575 83.6812C188.732 83.8157 188.934 83.8829 189.18 83.8829C189.397 83.8829 189.584 83.8456 189.74 83.7709C189.897 83.6961 190.039 83.5953 190.166 83.4683L190.48 84.2191C190.308 84.376 190.103 84.4993 189.864 84.5889C189.632 84.6786 189.363 84.7234 189.057 84.7234C188.773 84.7234 188.508 84.6748 188.261 84.5777C188.015 84.4731 187.817 84.3125 187.667 84.0958C187.525 83.8717 187.451 83.5803 187.443 83.2217V77.6634L188.34 77.4169ZM190.379 79.0082V79.7814H186.323V79.0082H190.379ZM193.864 78.8961C194.394 78.8961 194.861 79.0119 195.265 79.2435C195.676 79.4751 195.997 79.8113 196.228 80.2521C196.46 80.6854 196.576 81.2046 196.576 81.8097C196.576 82.4149 196.46 82.9378 196.228 83.3786C195.997 83.8119 195.676 84.1444 195.265 84.376C194.861 84.6076 194.394 84.7234 193.864 84.7234C193.341 84.7234 192.874 84.6076 192.463 84.376C192.052 84.1444 191.731 83.8119 191.499 83.3786C191.268 82.9378 191.152 82.4149 191.152 81.8097C191.152 81.2046 191.268 80.6854 191.499 80.2521C191.731 79.8113 192.052 79.4751 192.463 79.2435C192.874 79.0119 193.341 78.8961 193.864 78.8961ZM193.864 79.6693C193.483 79.6693 193.158 79.7552 192.889 79.9271C192.62 80.0989 192.411 80.3454 192.261 80.6667C192.119 80.9805 192.048 81.3615 192.048 81.8097C192.048 82.2505 192.119 82.6315 192.261 82.9528C192.411 83.274 192.62 83.5206 192.889 83.6924C193.158 83.8642 193.483 83.9502 193.864 83.9502C194.245 83.9502 194.57 83.8642 194.839 83.6924C195.108 83.5206 195.313 83.274 195.455 82.9528C195.605 82.6315 195.679 82.2505 195.679 81.8097C195.679 81.3615 195.605 80.9805 195.455 80.6667C195.313 80.3454 195.108 80.0989 194.839 79.9271C194.57 79.7552 194.245 79.6693 193.864 79.6693ZM207.361 84.6113H206.408L205.624 82.5606H202.273L201.489 84.6113H200.547L203.427 77.2151H204.492L207.361 84.6113ZM202.598 81.7201H205.299L203.943 78.078L202.598 81.7201ZM209.38 76.4307V83.1881C209.38 83.472 209.432 83.67 209.536 83.7821C209.641 83.8867 209.809 83.9389 210.041 83.9389C210.19 83.9389 210.313 83.9277 210.411 83.9053C210.508 83.8829 210.638 83.8418 210.803 83.7821L210.657 84.5665C210.538 84.6188 210.407 84.6562 210.265 84.6786C210.123 84.7084 209.977 84.7234 209.828 84.7234C209.372 84.7234 209.032 84.6001 208.808 84.3536C208.591 84.107 208.483 83.7298 208.483 83.2217V76.4307H209.38ZM212.637 76.4307V83.1881C212.637 83.472 212.689 83.67 212.794 83.7821C212.898 83.8867 213.066 83.9389 213.298 83.9389C213.447 83.9389 213.571 83.9277 213.668 83.9053C213.765 83.8829 213.896 83.8418 214.06 83.7821L213.914 84.5665C213.795 84.6188 213.664 84.6562 213.522 84.6786C213.38 84.7084 213.234 84.7234 213.085 84.7234C212.629 84.7234 212.289 84.6001 212.065 84.3536C211.849 84.107 211.74 83.7298 211.74 83.2217V76.4307H212.637ZM220.844 77.1031C221.493 77.1031 222.054 77.2376 222.524 77.5065C222.995 77.768 223.387 78.1565 223.701 78.672L222.95 79.2547C222.674 78.7766 222.36 78.4404 222.009 78.2461C221.665 78.0444 221.247 77.9436 220.754 77.9436C220.358 77.9436 220.029 77.9996 219.768 78.1116C219.514 78.2237 219.327 78.3731 219.207 78.5599C219.088 78.7392 219.028 78.9447 219.028 79.1763C219.028 79.4377 219.11 79.6693 219.275 79.871C219.439 80.0653 219.768 80.2184 220.261 80.3305L221.863 80.6891C222.573 80.846 223.066 81.0851 223.343 81.4063C223.626 81.7201 223.768 82.1123 223.768 82.583C223.768 83.0014 223.649 83.3749 223.41 83.7036C223.178 84.0249 222.849 84.2751 222.424 84.4544C221.998 84.6337 221.497 84.7234 220.922 84.7234C220.384 84.7234 219.91 84.6524 219.499 84.5105C219.095 84.3611 218.748 84.1631 218.457 83.9165C218.165 83.67 217.926 83.3936 217.739 83.0873L218.524 82.4485C218.666 82.7324 218.849 82.9827 219.073 83.1993C219.297 83.416 219.566 83.5841 219.88 83.7036C220.201 83.8231 220.567 83.8829 220.978 83.8829C221.359 83.8829 221.688 83.8381 221.964 83.7484C222.248 83.6513 222.465 83.5131 222.614 83.3338C222.764 83.147 222.838 82.9229 222.838 82.6614C222.838 82.4224 222.76 82.2094 222.603 82.0227C222.446 81.8284 222.151 81.6827 221.718 81.5856L219.981 81.1934C219.525 81.0888 219.155 80.9469 218.871 80.7676C218.595 80.5808 218.393 80.3641 218.266 80.1176C218.147 79.8636 218.087 79.5909 218.087 79.2995C218.087 78.9036 218.195 78.5412 218.412 78.2125C218.636 77.8763 218.953 77.6074 219.364 77.4057C219.783 77.2039 220.276 77.1031 220.844 77.1031ZM226.633 77.4169V83.0649C226.633 83.3413 226.711 83.5467 226.868 83.6812C227.025 83.8157 227.227 83.8829 227.473 83.8829C227.69 83.8829 227.877 83.8456 228.034 83.7709C228.191 83.6961 228.333 83.5953 228.46 83.4683L228.773 84.2191C228.602 84.376 228.396 84.4993 228.157 84.5889C227.925 84.6786 227.657 84.7234 227.35 84.7234C227.066 84.7234 226.801 84.6748 226.555 84.5777C226.308 84.4731 226.11 84.3125 225.961 84.0958C225.819 83.8717 225.744 83.5803 225.736 83.2217V77.6634L226.633 77.4169ZM228.673 79.0082V79.7814H224.616V79.0082H228.673ZM233.11 80.9917C233.11 80.5733 232.998 80.2521 232.773 80.0279C232.549 79.7963 232.232 79.6805 231.821 79.6805C231.432 79.6805 231.104 79.7665 230.835 79.9383C230.566 80.1026 230.368 80.3716 230.241 80.7451L229.512 80.2969C229.662 79.8785 229.938 79.5423 230.342 79.2883C230.745 79.0268 231.246 78.8961 231.843 78.8961C232.247 78.8961 232.613 78.9671 232.942 79.109C233.27 79.2435 233.528 79.4527 233.715 79.7366C233.909 80.013 234.006 80.3716 234.006 80.8124V83.5243C234.006 83.7933 234.148 83.9277 234.432 83.9277C234.574 83.9277 234.712 83.9091 234.847 83.8717L234.802 84.5777C234.652 84.6524 234.458 84.6898 234.219 84.6898C234.002 84.6898 233.808 84.6487 233.636 84.5665C233.465 84.4843 233.33 84.3611 233.233 84.1967C233.136 84.0249 233.087 83.8119 233.087 83.5579V83.4459L233.311 83.4795C233.222 83.7709 233.069 84.0099 232.852 84.1967C232.635 84.376 232.392 84.5105 232.123 84.6001C231.855 84.6823 231.589 84.7234 231.328 84.7234C230.999 84.7234 230.693 84.6674 230.409 84.5553C230.125 84.4432 229.897 84.2751 229.725 84.051C229.561 83.8194 229.479 83.5355 229.479 83.1993C229.479 82.781 229.617 82.4373 229.893 82.1683C230.177 81.8919 230.57 81.7052 231.07 81.608L233.289 81.171V81.9106L231.485 82.2804C231.119 82.3551 230.846 82.4597 230.667 82.5942C230.487 82.7287 230.398 82.9154 230.398 83.1545C230.398 83.3861 230.487 83.5766 230.667 83.726C230.853 83.868 231.115 83.9389 231.451 83.9389C231.668 83.9389 231.873 83.9128 232.067 83.8605C232.269 83.8007 232.448 83.7148 232.605 83.6028C232.762 83.4832 232.886 83.3375 232.975 83.1657C233.065 82.9864 233.11 82.7772 233.11 82.5382V80.9917ZM240.936 79.0082L238.516 81.4287L238.303 81.6416L236.465 83.4795V82.3589L239.804 79.0082H240.936ZM236.913 76.4307V84.6113H236.017V76.4307H236.913ZM238.594 80.9693L241.071 84.6113H239.984L237.843 81.4736L238.594 80.9693ZM244.352 84.7234C243.822 84.7234 243.347 84.6076 242.929 84.376C242.518 84.1444 242.197 83.8119 241.965 83.3786C241.733 82.9378 241.618 82.4149 241.618 81.8097C241.618 81.2046 241.733 80.6854 241.965 80.2521C242.197 79.8113 242.514 79.4751 242.918 79.2435C243.321 79.0119 243.78 78.8961 244.296 78.8961C244.819 78.8961 245.263 79.0082 245.629 79.2323C246.003 79.4564 246.287 79.7627 246.481 80.1512C246.675 80.5322 246.773 80.9618 246.773 81.4399C246.773 81.5669 246.769 81.6827 246.761 81.7873C246.754 81.8919 246.743 81.9853 246.728 82.0675H242.2V81.2718H246.335L245.876 81.3615C245.876 80.8236 245.727 80.409 245.428 80.1176C245.136 79.8262 244.752 79.6805 244.274 79.6805C243.907 79.6805 243.59 79.7665 243.321 79.9383C243.06 80.1026 242.854 80.3454 242.705 80.6667C242.563 80.9805 242.492 81.3615 242.492 81.8097C242.492 82.2505 242.566 82.6315 242.716 82.9528C242.865 83.274 243.074 83.5206 243.343 83.6924C243.62 83.8568 243.949 83.9389 244.33 83.9389C244.74 83.9389 245.073 83.8605 245.327 83.7036C245.588 83.5467 245.798 83.3338 245.954 83.0649L246.66 83.4795C246.519 83.7335 246.335 83.9539 246.111 84.1407C245.895 84.3274 245.637 84.4731 245.338 84.5777C245.047 84.6748 244.718 84.7234 244.352 84.7234ZM248.309 84.6113V76.4307H249.206V79.8486C249.4 79.5124 249.658 79.2696 249.979 79.1202C250.3 78.9708 250.652 78.8961 251.033 78.8961C251.436 78.8961 251.802 78.9745 252.131 79.1314C252.46 79.2808 252.721 79.5124 252.915 79.8262C253.117 80.14 253.218 80.5397 253.218 81.0253V84.6113H252.321V81.3391C252.321 80.719 252.187 80.2894 251.918 80.0503C251.656 79.8038 251.331 79.6805 250.943 79.6805C250.674 79.6805 250.405 79.744 250.136 79.871C249.867 79.9981 249.643 80.2072 249.464 80.4986C249.292 80.7825 249.206 81.1635 249.206 81.6416V84.6113H248.309ZM257.399 78.8961C257.93 78.8961 258.397 79.0119 258.8 79.2435C259.211 79.4751 259.532 79.8113 259.764 80.2521C259.996 80.6854 260.111 81.2046 260.111 81.8097C260.111 82.4149 259.996 82.9378 259.764 83.3786C259.532 83.8119 259.211 84.1444 258.8 84.376C258.397 84.6076 257.93 84.7234 257.399 84.7234C256.876 84.7234 256.409 84.6076 255.999 84.376C255.588 84.1444 255.266 83.8119 255.035 83.3786C254.803 82.9378 254.687 82.4149 254.687 81.8097C254.687 81.2046 254.803 80.6854 255.035 80.2521C255.266 79.8113 255.588 79.4751 255.999 79.2435C256.409 79.0119 256.876 78.8961 257.399 78.8961ZM257.399 79.6693C257.018 79.6693 256.693 79.7552 256.424 79.9271C256.155 80.0989 255.946 80.3454 255.797 80.6667C255.655 80.9805 255.584 81.3615 255.584 81.8097C255.584 82.2505 255.655 82.6315 255.797 82.9528C255.946 83.274 256.155 83.5206 256.424 83.6924C256.693 83.8642 257.018 83.9502 257.399 83.9502C257.78 83.9502 258.105 83.8642 258.374 83.6924C258.643 83.5206 258.849 83.274 258.991 82.9528C259.14 82.6315 259.215 82.2505 259.215 81.8097C259.215 81.3615 259.14 80.9805 258.991 80.6667C258.849 80.3454 258.643 80.0989 258.374 79.9271C258.105 79.7552 257.78 79.6693 257.399 79.6693ZM262.483 76.4307V83.1881C262.483 83.472 262.535 83.67 262.64 83.7821C262.744 83.8867 262.912 83.9389 263.144 83.9389C263.293 83.9389 263.417 83.9277 263.514 83.9053C263.611 83.8829 263.742 83.8418 263.906 83.7821L263.76 84.5665C263.641 84.6188 263.51 84.6562 263.368 84.6786C263.226 84.7084 263.08 84.7234 262.931 84.7234C262.475 84.7234 262.135 84.6001 261.911 84.3536C261.695 84.107 261.586 83.7298 261.586 83.2217V76.4307H262.483ZM267.074 84.7234C266.61 84.7234 266.184 84.6076 265.796 84.376C265.408 84.1444 265.097 83.8119 264.866 83.3786C264.634 82.9378 264.518 82.4149 264.518 81.8097C264.518 81.1897 264.642 80.663 264.888 80.2296C265.135 79.7963 265.46 79.4676 265.863 79.2435C266.267 79.0119 266.7 78.8961 267.163 78.8961C267.626 78.8961 268.026 79.0156 268.362 79.2547C268.706 79.4938 268.934 79.8113 269.046 80.2072L268.934 80.2857V76.4307H269.83V84.6113H269.046L268.967 83.2554L269.091 83.1881C269.038 83.5168 268.911 83.797 268.71 84.0286C268.515 84.2527 268.273 84.4246 267.981 84.5441C267.697 84.6636 267.395 84.7234 267.074 84.7234ZM267.163 83.9389C267.522 83.9389 267.832 83.8493 268.093 83.67C268.362 83.4907 268.568 83.2367 268.71 82.908C268.859 82.5718 268.934 82.1796 268.934 81.7313C268.934 81.3055 268.859 80.9394 268.71 80.6331C268.568 80.3268 268.366 80.0914 268.105 79.9271C267.85 79.7627 267.552 79.6805 267.208 79.6805C266.64 79.6805 266.199 79.8748 265.886 80.2633C265.572 80.6518 265.415 81.1672 265.415 81.8097C265.415 82.4522 265.568 82.9677 265.874 83.3562C266.181 83.7447 266.61 83.9389 267.163 83.9389ZM274.088 84.7234C273.558 84.7234 273.083 84.6076 272.665 84.376C272.254 84.1444 271.933 83.8119 271.701 83.3786C271.47 82.9378 271.354 82.4149 271.354 81.8097C271.354 81.2046 271.47 80.6854 271.701 80.2521C271.933 79.8113 272.25 79.4751 272.654 79.2435C273.057 79.0119 273.517 78.8961 274.032 78.8961C274.555 78.8961 275 79.0082 275.366 79.2323C275.739 79.4564 276.023 79.7627 276.217 80.1512C276.412 80.5322 276.509 80.9618 276.509 81.4399C276.509 81.5669 276.505 81.6827 276.498 81.7873C276.49 81.8919 276.479 81.9853 276.464 82.0675H271.937V81.2718H276.072L275.612 81.3615C275.612 80.8236 275.463 80.409 275.164 80.1176C274.873 79.8262 274.488 79.6805 274.01 79.6805C273.644 79.6805 273.326 79.7665 273.057 79.9383C272.796 80.1026 272.59 80.3454 272.441 80.6667C272.299 80.9805 272.228 81.3615 272.228 81.8097C272.228 82.2505 272.303 82.6315 272.452 82.9528C272.601 83.274 272.811 83.5206 273.08 83.6924C273.356 83.8568 273.685 83.9389 274.066 83.9389C274.477 83.9389 274.809 83.8605 275.063 83.7036C275.325 83.5467 275.534 83.3338 275.691 83.0649L276.397 83.4795C276.255 83.7335 276.072 83.9539 275.848 84.1407C275.631 84.3274 275.373 84.4731 275.074 84.5777C274.783 84.6748 274.454 84.7234 274.088 84.7234ZM278.046 84.6113V79.0082H278.774L278.897 79.9271C279.054 79.5834 279.282 79.3257 279.581 79.1538C279.887 78.982 280.257 78.8961 280.69 78.8961C280.787 78.8961 280.892 78.9036 281.004 78.9185C281.124 78.9334 281.225 78.9633 281.307 79.0082L281.15 79.8262C281.068 79.7963 280.978 79.7739 280.881 79.759C280.784 79.744 280.646 79.7366 280.466 79.7366C280.235 79.7366 279.999 79.8038 279.76 79.9383C279.529 80.0728 279.334 80.2782 279.178 80.5546C279.021 80.8236 278.942 81.1672 278.942 81.5856V84.6113H278.046ZM284.228 84.7234C283.683 84.7234 283.179 84.6076 282.716 84.376C282.26 84.1444 281.909 83.8157 281.662 83.3898L282.424 82.8407C282.589 83.1844 282.828 83.4533 283.141 83.6476C283.463 83.8418 283.847 83.9389 284.296 83.9389C284.692 83.9389 285.002 83.8642 285.226 83.7148C285.45 83.5579 285.562 83.3562 285.562 83.1097C285.562 82.9528 285.51 82.8108 285.405 82.6838C285.308 82.5494 285.117 82.4522 284.834 82.3925L283.489 82.1123C282.943 82.0003 282.551 81.8135 282.312 81.552C282.081 81.2905 281.965 80.9655 281.965 80.577C281.965 80.2707 282.051 79.9906 282.222 79.7366C282.402 79.4826 282.652 79.2808 282.973 79.1314C283.302 78.9745 283.687 78.8961 284.128 78.8961C284.68 78.8961 285.147 79.0044 285.528 79.2211C285.909 79.4377 286.193 79.744 286.38 80.14L285.629 80.6331C285.502 80.3044 285.297 80.0653 285.013 79.9159C284.729 79.759 284.434 79.6805 284.128 79.6805C283.859 79.6805 283.627 79.7179 283.433 79.7926C283.246 79.8673 283.1 79.9719 282.996 80.1064C282.899 80.2334 282.85 80.3791 282.85 80.5434C282.85 80.7078 282.906 80.8609 283.018 81.0029C283.13 81.1374 283.339 81.2345 283.646 81.2943L285.046 81.5856C285.569 81.6902 285.936 81.862 286.145 82.1011C286.354 82.3402 286.458 82.6315 286.458 82.9752C286.458 83.3263 286.365 83.6364 286.178 83.9053C285.992 84.1668 285.73 84.3685 285.394 84.5105C285.058 84.6524 284.669 84.7234 284.228 84.7234Z" fill="#131316" fill-opacity="0.8"/>
</g>
<g filter="url(#filter1_d_758_11385)">
<path d="M71.9865 20.9401L55.6562 11L59.2063 30.1703L63.4664 23.0702L71.9865 20.9401Z" fill="white" fill-opacity="0.18"/>
<path d="M55.9254 10.5578L54.9363 9.95571L55.1472 11.0943L58.6972 30.2645L58.9464 31.6098L59.6502 30.4366L63.8 23.5204L72.1121 21.4424L73.3138 21.142L72.2557 20.4979L55.9254 10.5578Z" stroke="white" stroke-width="1.03543"/>
</g>
<defs>
<filter id="filter0_bd_758_11385" x="-74.0392" y="-77.8322" width="492.078" height="294.483" filterUnits="userSpaceOnUse" color-interpolation-filters="sRGB">
<feFlood flood-opacity="0" result="BackgroundImageFix"/>
<feGaussianBlur in="BackgroundImageFix" stdDeviation="59.0196"/>
<feComposite in2="SourceAlpha" operator="in" result="effect1_backgroundBlur_758_11385"/>
<feColorMatrix in="SourceAlpha" type="matrix" values="0 0 0 0 0 0 0 0 0 0 0 0 0 0 0 0 0 0 127 0" result="hardAlpha"/>
<feOffset dy="4"/>
<feGaussianBlur stdDeviation="22"/>
<feComposite in2="hardAlpha" operator="out"/>
<feColorMatrix type="matrix" values="0 0 0 0 0 0 0 0 0 0 0 0 0 0 0 0 0 0 0.25 0"/>
<feBlend mode="normal" in2="effect1_backgroundBlur_758_11385" result="effect2_dropShadow_758_11385"/>
<feBlend mode="normal" in="SourceGraphic" in2="effect2_dropShadow_758_11385" result="shape"/>
</filter>
<filter id="filter1_d_758_11385" x="49.9548" y="6.07207" width="28.9459" height="32.6568" filterUnits="userSpaceOnUse" color-interpolation-filters="sRGB">
<feFlood flood-opacity="0" result="BackgroundImageFix"/>
<feColorMatrix in="SourceAlpha" type="matrix" values="0 0 0 0 0 0 0 0 0 0 0 0 0 0 0 0 0 0 127 0" result="hardAlpha"/>
<feOffset dy="1.42002"/>
<feGaussianBlur stdDeviation="2.13003"/>
<feColorMatrix type="matrix" values="0 0 0 0 0 0 0 0 0 0 0 0 0 0 0 0 0 0 0.4 0"/>
<feBlend mode="normal" in2="BackgroundImageFix" result="effect1_dropShadow_758_11385"/>
<feBlend mode="normal" in="SourceGraphic" in2="effect1_dropShadow_758_11385" result="shape"/>
</filter>
</defs>
</svg>
