<svg width="236" height="38" viewBox="0 0 236 38" fill="none" xmlns="http://www.w3.org/2000/svg">
<path fill-rule="evenodd" clip-rule="evenodd" d="M15.8262 37.25L31.652 28.1252L31.6523 9.87492L15.8264 0.75L0 9.87492V28.125L15.8262 37.25ZM1.825 27.0706L12.4183 33.1785L5.27539 20.8231L1.825 26.7914V27.0706ZM1.825 23.145L12.4183 4.82143L1.825 10.9293V23.145ZM15.5804 2.99825L12.1323 8.96242H19.52L16.072 2.99825L15.8262 2.85653L15.5804 2.99825ZM19.234 4.82143L29.8273 23.145V10.9293L19.234 4.82143ZM29.8273 26.7914L26.377 20.8231L19.234 33.1785L29.8273 27.0706V26.7914ZM16.072 35.0016L19.52 29.0375H12.1323L15.5804 35.0016L15.8262 35.1434L16.072 35.0016ZM11.0773 27.2125H20.5751L25.3229 18.9999L20.5751 10.7874H11.0773L6.32941 18.9999L11.0773 27.2125Z" fill="#131316"/>
<path d="M48.4783 22.2524C48.4783 22.2524 50.4348 24.0402 52.6129 24.0402C53.4851 24.0402 54.4248 23.7028 54.4248 22.662C54.4248 20.6043 46.6375 20.6766 46.6375 15.3565C46.6375 12.1664 49.3216 10.0605 52.7575 10.0605C56.4825 10.0605 58.3185 12.0218 58.3185 12.0218L56.5307 15.4818C56.5307 15.4818 54.791 13.959 52.7093 13.959C51.8371 13.959 50.8733 14.3445 50.8733 15.3131C50.8733 17.4913 58.6606 17.101 58.6606 22.5704C58.6606 25.4473 56.4584 27.9387 52.5647 27.9387C48.5024 27.9387 46.252 25.4714 46.252 25.4714L48.4783 22.2524Z" fill="#131316"/>
<path d="M62.5057 10.3496H66.7367V21.2789C66.7367 23.0908 67.9222 24.0594 69.7341 24.0594C71.546 24.0594 72.7314 23.0908 72.7314 21.2789V10.3496H76.9624V21.2789C76.9624 25.1725 74.1096 27.9289 69.7534 27.9289C65.3537 27.9289 62.4961 25.1725 62.4961 21.2789V10.3496H62.5057Z" fill="#131316"/>
<path d="M81.9746 10.3496H87.9982C89.7619 10.3496 90.6101 10.4701 91.3618 10.7592C93.3183 11.511 94.5519 13.2747 94.5519 15.7901C94.5519 17.631 93.6797 19.6356 91.9642 20.5078V20.556C91.9642 20.556 92.2051 20.8693 92.6147 21.5969L95.9783 27.6446H91.2606L88.191 21.8186H86.2104V27.6446H81.9794V10.3496H81.9746ZM88.0464 18.1851C89.4005 18.1851 90.2487 17.4334 90.2487 16.0552C90.2487 14.7493 89.7668 13.9782 87.6368 13.9782H86.2104V18.1851H88.0464Z" fill="#131316"/>
<path d="M99.6543 10.3496H110.487V13.9782H103.885V17.1202H109.157V20.7488H103.885V24.016H110.829V27.6446H99.6543V10.3496Z" fill="#131316"/>
<path d="M115.303 26.2433H117.529V12.0468H115.303V10.6445H123.042C124.083 10.6445 125.148 10.7409 125.943 11.1264C127.61 11.8782 128.675 13.5455 128.675 15.7429C128.675 18.0897 127.49 19.9016 125.581 20.5811C124.782 20.8461 124.01 20.9184 123.066 20.9184H119.221V26.2385H121.447V27.6408H115.303V26.2433ZM122.897 19.4679C123.721 19.4679 124.396 19.3475 124.955 19.1306C126.213 18.6246 126.964 17.4151 126.964 15.7429C126.964 14.1961 126.338 13.0829 125.201 12.4998C124.574 12.2348 123.798 12.0902 122.902 12.0902H119.225V19.4679H122.897Z" fill="#131316"/>
<path d="M132.014 26.2433H134.24V12.0468H132.014V10.6445H144.037V14.172H142.485V12.095H135.931V18.3548H142.365V19.8101H135.931V26.1903H142.948V23.9929H144.471V27.6456H132.014V26.2433Z" fill="#131316"/>
<path d="M156.999 10.3496C161.838 10.3496 165.683 14.1228 165.683 19.0333C165.683 24.016 161.838 27.9338 156.999 27.9338C152.185 27.9338 148.34 24.016 148.34 19.0333C148.34 14.1228 152.185 10.3496 156.999 10.3496ZM156.999 26.3869C160.797 26.3869 163.915 23.1968 163.915 19.0333C163.915 14.9709 160.797 11.8965 156.999 11.8965C153.202 11.8965 150.108 14.9709 150.108 19.0333C150.108 23.192 153.202 26.3869 156.999 26.3869Z" fill="#131316"/>
<path d="M169.48 26.2433H171.707V12.0468H169.48V10.6445H177.22C178.26 10.6445 179.325 10.7409 180.121 11.1264C181.788 11.8782 182.853 13.5455 182.853 15.7429C182.853 18.0897 181.667 19.9016 179.759 20.5811C178.959 20.8461 178.188 20.9184 177.244 20.9184H173.398V26.2385H175.625V27.6408H169.48V26.2433ZM177.075 19.4679C177.899 19.4679 178.574 19.3475 179.133 19.1306C180.39 18.6246 181.142 17.4151 181.142 15.7429C181.142 14.1961 180.516 13.0829 179.378 12.4998C178.752 12.2348 177.976 12.0902 177.08 12.0902H173.403V19.4679H177.075Z" fill="#131316"/>
<path d="M186.193 26.2433H188.42V12.095H186.193V10.6445H192.337V12.095H190.111V26.1903H196.906V23.3616H198.453V27.6456H186.193V26.2433Z" fill="#131316"/>
<path d="M201.695 26.2433H203.922V12.0468H201.695V10.6445H213.714V14.172H212.167V12.095H205.613V18.3548H212.046V19.8101H205.613V26.1903H212.625V23.9929H214.152V27.6456H201.695V26.2433Z" fill="#131316"/>
</svg>
