<svg width="41" height="40" viewBox="0 0 41 40" fill="none" xmlns="http://www.w3.org/2000/svg">
<path d="M12.4987 18C13.0291 18 13.5378 17.7893 13.9129 17.4142C14.288 17.0391 14.4987 16.5304 14.4987 16C14.4987 15.4696 14.288 14.9609 13.9129 14.5858C13.5378 14.2107 13.0291 14 12.4987 14C11.9682 14 11.4595 14.2107 11.0845 14.5858C10.7094 14.9609 10.4987 15.4696 10.4987 16C10.4987 16.5304 10.7094 17.0391 11.0845 17.4142C11.4595 17.7893 11.9682 18 12.4987 18ZM20.4987 22C21.0291 22 21.5378 21.7893 21.9129 21.4142C22.288 21.0391 22.4987 20.5304 22.4987 20C22.4987 19.4696 22.288 18.9609 21.9129 18.5858C21.5378 18.2107 21.0291 18 20.4987 18C19.9682 18 19.4595 18.2107 19.0845 18.5858C18.7094 18.9609 18.4987 19.4696 18.4987 20C18.4987 20.5304 18.7094 21.0391 19.0845 21.4142C19.4595 21.7893 19.9682 22 20.4987 22ZM26.4987 28C26.4987 28.5304 26.288 29.0391 25.9129 29.4142C25.5378 29.7893 25.0291 30 24.4987 30C23.9682 30 23.4595 29.7893 23.0845 29.4142C22.7094 29.0391 22.4987 28.5304 22.4987 28C22.4987 27.4696 22.7094 26.9609 23.0845 26.5858C23.4595 26.2107 23.9682 26 24.4987 26C25.0291 26 25.5378 26.2107 25.9129 26.5858C26.288 26.9609 26.4987 27.4696 26.4987 28ZM14.4987 28C15.0291 28 15.5378 27.7893 15.9129 27.4142C16.288 27.0391 16.4987 26.5304 16.4987 26C16.4987 25.4696 16.288 24.9609 15.9129 24.5858C15.5378 24.2107 15.0291 24 14.4987 24C13.9682 24 13.4595 24.2107 13.0845 24.5858C12.7094 24.9609 12.4987 25.4696 12.4987 26C12.4987 26.5304 12.7094 27.0391 13.0845 27.4142C13.4595 27.7893 13.9682 28 14.4987 28ZM20.4987 4C17.2108 4.00028 14.0029 5.01344 11.3113 6.90165C8.61965 8.78986 6.57511 11.4614 5.45577 14.5529C4.33643 17.6443 4.19666 21.0056 5.05547 24.1793C5.91428 27.353 7.72997 30.1851 10.2555 32.2903C12.7811 34.3954 15.8938 35.6714 19.1703 35.9447C22.4468 36.2179 25.7279 35.4751 28.5673 33.8174C31.4066 32.1596 33.6663 29.6674 35.0389 26.6798C36.4116 23.6921 36.8305 20.3542 36.2387 17.12C36.2047 16.9354 36.1195 16.7641 35.9927 16.6256C35.866 16.4872 35.7028 16.3872 35.5219 16.3371C35.341 16.287 35.1497 16.2889 34.9698 16.3425C34.7899 16.396 34.6287 16.4991 34.5047 16.64C33.9681 17.2512 33.2579 17.6844 32.4688 17.8816C31.6798 18.0789 30.8493 18.0309 30.0882 17.7441C29.3271 17.4573 28.6715 16.9453 28.2088 16.2764C27.7462 15.6074 27.4984 14.8134 27.4987 14C27.4984 13.7445 27.4111 13.4967 27.2511 13.2975C27.0911 13.0983 26.8681 12.9595 26.6187 12.904C25.9154 12.7457 25.2681 12.4003 24.745 11.9043C24.2219 11.4083 23.8426 10.7802 23.6471 10.0864C23.4516 9.39263 23.4473 8.65889 23.6345 7.96281C23.8217 7.26672 24.1935 6.63416 24.7107 6.132C24.8391 6.00725 24.9318 5.85029 24.9788 5.67752C25.0259 5.50474 25.0258 5.3225 24.9784 5.14981C24.9309 4.97712 24.838 4.82034 24.7093 4.69583C24.5806 4.57132 24.4208 4.48366 24.2467 4.442C23.0191 4.1477 21.761 3.99934 20.4987 4ZM6.49867 20C6.49855 18.0144 6.92083 16.0514 7.73746 14.2415C8.55409 12.4315 9.7464 10.816 11.2352 9.50213C12.724 8.18828 14.4753 7.20616 16.3728 6.62098C18.2702 6.03579 20.2705 5.86093 22.2407 6.108C21.8192 6.87357 21.57 7.72197 21.5106 8.59387C21.4511 9.46578 21.5829 10.3401 21.8966 11.1558C22.2104 11.9715 22.6985 12.7088 23.3269 13.3161C23.9553 13.9235 24.7088 14.3862 25.5347 14.672C25.6457 15.6601 26.0006 16.6052 26.5674 17.4222C27.1342 18.2392 27.8951 18.9025 28.7818 19.3525C29.6686 19.8025 30.6532 20.0251 31.6472 20.0002C32.6413 19.9753 33.6136 19.7038 34.4767 19.21C34.5815 21.0784 34.3108 22.9488 33.6804 24.7107C33.05 26.4727 32.0728 28.0903 30.8065 29.4681C29.5402 30.8459 28.0106 31.9559 26.308 32.7324C24.6054 33.5088 22.7644 33.9361 20.8938 33.989C19.0233 34.0418 17.1611 33.719 15.4174 33.0399C13.6737 32.3607 12.0839 31.3388 10.7418 30.0347C9.39983 28.7305 8.33289 27.1706 7.60408 25.447C6.87528 23.7235 6.4994 21.8713 6.49867 20Z" fill="#131316"/>
</svg>
