<svg width="148" height="44" viewBox="0 0 148 44" fill="none" xmlns="http://www.w3.org/2000/svg">
<rect x="0.25" y="0.25" width="147.5" height="43.3519" rx="4.75" stroke="#A6A6A6" stroke-width="0.5"/>
<path d="M74.6972 23.8457C72.1187 23.8457 70.0171 25.807 70.0171 28.5082C70.0171 31.1931 72.1187 33.1708 74.6972 33.1708C77.2768 33.1708 79.3784 31.1931 79.3784 28.5082C79.3773 25.807 77.2757 23.8457 74.6972 23.8457ZM74.6972 31.3356C73.2841 31.3356 72.0661 30.1702 72.0661 28.5093C72.0661 26.8309 73.2852 25.6831 74.6972 25.6831C76.1103 25.6831 77.3283 26.8309 77.3283 28.5093C77.3283 30.1691 76.1103 31.3356 74.6972 31.3356ZM64.4863 23.8457C61.9078 23.8457 59.8062 25.807 59.8062 28.5082C59.8062 31.1931 61.9078 33.1708 64.4863 33.1708C67.0659 33.1708 69.1675 31.1931 69.1675 28.5082C69.1675 25.807 67.0659 23.8457 64.4863 23.8457ZM64.4863 31.3356C63.0732 31.3356 61.8552 30.1702 61.8552 28.5093C61.8552 26.8309 63.0743 25.6831 64.4863 25.6831C65.8994 25.6831 67.1174 26.8309 67.1174 28.5093C67.1185 30.1691 65.8994 31.3356 64.4863 31.3356ZM52.3415 25.2775V27.2552H57.0753C56.9339 28.3679 56.5634 29.1803 55.9977 29.7449C55.3092 30.4333 54.2315 31.1931 52.3415 31.1931C49.4276 31.1931 47.1495 28.8437 47.1495 25.9298C47.1495 23.0158 49.4276 20.6664 52.3415 20.6664C53.9136 20.6664 55.0614 21.2848 55.9089 22.0796L57.3045 20.684C56.1205 19.5537 54.5495 18.6887 52.3415 18.6887C48.3499 18.6887 44.9941 21.9381 44.9941 25.9298C44.9941 29.9214 48.3499 33.1708 52.3415 33.1708C54.4957 33.1708 56.1216 32.4637 57.3922 31.1394C58.6989 29.8326 59.1057 27.9952 59.1057 26.5119C59.1057 26.0536 59.0706 25.6294 58.9993 25.2764H52.3415V25.2775ZM102.013 26.8134C101.624 25.7719 100.44 23.8457 98.0209 23.8457C95.6189 23.8457 93.6226 25.7357 93.6226 28.5082C93.6226 31.1218 95.6014 33.1708 98.25 33.1708C100.387 33.1708 101.623 31.864 102.136 31.1043L100.547 30.0442C100.017 30.8214 99.2926 31.3334 98.25 31.3334C97.2085 31.3334 96.4663 30.8565 95.9895 29.9203L102.224 27.3418L102.013 26.8134ZM95.654 28.3679C95.6014 26.5656 97.0496 25.648 98.0922 25.648C98.9045 25.648 99.593 26.0547 99.8232 26.6369L95.654 28.3679ZM90.5858 32.889H92.6337V19.1842H90.5858V32.889ZM87.229 24.8883H87.1588C86.6994 24.3401 85.8158 23.8457 84.7042 23.8457C82.3724 23.8457 80.2357 25.8947 80.2357 28.5269C80.2357 31.1405 82.3724 33.1719 84.7042 33.1719C85.8169 33.1719 86.6994 32.6775 87.1588 32.1129H87.229V32.7838C87.229 34.5675 86.2752 35.5213 84.7393 35.5213C83.4851 35.5213 82.7078 34.6212 82.3899 33.8615L80.6062 34.6037C81.1182 35.8392 82.4776 37.3586 84.7393 37.3586C87.1412 37.3586 89.1727 35.9455 89.1727 32.501V24.1296H87.2301V24.8883H87.229ZM84.8807 31.3356C83.4676 31.3356 82.2847 30.1516 82.2847 28.5269C82.2847 26.8835 83.4676 25.6831 84.8807 25.6831C86.2752 25.6831 87.3704 26.8835 87.3704 28.5269C87.3704 30.1516 86.2752 31.3356 84.8807 31.3356ZM111.609 19.1842H106.708V32.889H108.753V27.697H111.608C113.876 27.697 116.105 26.0558 116.105 23.4412C116.105 20.8265 113.877 19.1842 111.609 19.1842ZM111.662 25.7894H108.753V21.0918H111.662C113.191 21.0918 114.06 22.358 114.06 23.4412C114.06 24.5024 113.191 25.7894 111.662 25.7894ZM124.305 23.8216C122.824 23.8216 121.29 24.4739 120.655 25.9199L122.47 26.6774C122.859 25.9199 123.582 25.6721 124.34 25.6721C125.398 25.6721 126.473 26.3069 126.491 27.435V27.5764C126.12 27.3648 125.326 27.048 124.357 27.048C122.4 27.048 120.407 28.1234 120.407 30.133C120.407 31.9671 122.012 33.1478 123.81 33.1478C125.185 33.1478 125.944 32.5306 126.419 31.807H126.49V32.8649H128.465V27.6104C128.466 25.1788 126.648 23.8216 124.305 23.8216ZM124.057 31.3323C123.388 31.3323 122.453 30.9968 122.453 30.168C122.453 29.1101 123.617 28.7045 124.623 28.7045C125.52 28.7045 125.945 28.8985 126.491 29.1627C126.332 30.4333 125.239 31.3323 124.057 31.3323ZM135.659 24.1209L133.314 30.0628H133.244L130.81 24.1209H128.606L132.256 32.4253L130.175 37.0451H132.309L137.934 24.1209H135.659ZM117.235 32.889H119.279V19.1842H117.235V32.889Z" fill="#131316"/>
<path d="M51.9842 11.2294C51.9842 12.1481 51.7124 12.8793 51.1675 13.4252C50.5492 14.0742 49.7423 14.3988 48.7513 14.3988C47.8019 14.3988 46.9939 14.0699 46.3306 13.4121C45.6663 12.7532 45.3341 11.9376 45.3341 10.9641C45.3341 9.98945 45.6663 9.1738 46.3306 8.51603C46.9939 7.85715 47.8019 7.52827 48.7513 7.52827C49.2227 7.52827 49.6732 7.62035 50.1008 7.80343C50.5295 7.98761 50.8726 8.23209 51.1291 8.53795L50.5514 9.1168C50.1161 8.59606 49.5165 8.33624 48.7502 8.33624C48.0573 8.33624 47.4587 8.57961 46.9533 9.06637C46.4479 9.55312 46.1958 10.1857 46.1958 10.963C46.1958 11.7402 46.4479 12.3728 46.9533 12.8596C47.4587 13.3463 48.0573 13.5897 48.7502 13.5897C49.4847 13.5897 50.0975 13.3452 50.5876 12.8552C50.9055 12.5361 51.0897 12.0921 51.139 11.5232H48.7502V10.7327H51.9371C51.97 10.9049 51.9842 11.0704 51.9842 11.2294Z" fill="#131316"/>
<path d="M57.0383 8.4821H54.0432V10.5673H56.7445V11.3577H54.0432V13.4428H57.0383V14.2519H53.1979V7.67413H57.0383V8.4821Z" fill="#131316"/>
<path d="M60.6022 14.2519H59.757V8.4821H57.9196V7.67413H62.4396V8.4821H60.6022V14.2519Z" fill="#131316"/>
<path d="M65.7098 14.2519V7.67413H66.555V14.2519H65.7098Z" fill="#131316"/>
<path d="M70.3035 14.2519H69.4582V8.4821H67.6208V7.67413H72.1409V8.4821H70.3035V14.2519Z" fill="#131316"/>
<path d="M80.6972 13.4023C80.0504 14.0666 79.2468 14.3988 78.2853 14.3988C77.3239 14.3988 76.5203 14.0666 75.8746 13.4023C75.2278 12.7379 74.9055 11.9245 74.9055 10.963C74.9055 10.0016 75.2278 9.18811 75.8746 8.52375C76.5203 7.8594 77.3239 7.52612 78.2853 7.52612C79.2413 7.52612 80.0438 7.86049 80.6928 8.52814C81.3418 9.19578 81.6663 10.007 81.6663 10.963C81.6663 11.9245 81.3429 12.7379 80.6972 13.4023ZM76.4984 12.8508C76.9851 13.3442 77.5804 13.5897 78.2853 13.5897C78.9903 13.5897 79.5867 13.3431 80.0723 12.8508C80.5591 12.3575 80.8035 11.7282 80.8035 10.963C80.8035 10.1978 80.5591 9.56852 80.0723 9.07519C79.5867 8.58186 78.9903 8.33629 78.2853 8.33629C77.5804 8.33629 76.9851 8.58295 76.4984 9.07519C76.0127 9.56852 75.7683 10.1978 75.7683 10.963C75.7683 11.7282 76.0127 12.3575 76.4984 12.8508Z" fill="#131316"/>
<path d="M82.8525 14.2519V7.67413H83.8809L87.0777 12.7905H87.1138L87.0777 11.5232V7.67413H87.9229V14.2519H87.0404L83.6956 8.88664H83.6594L83.6956 10.154V14.2519H82.8525Z" fill="#131316"/>
<path d="M51.9842 11.2294C51.9842 12.1481 51.7124 12.8793 51.1675 13.4252C50.5492 14.0742 49.7423 14.3988 48.7513 14.3988C47.8019 14.3988 46.9939 14.0699 46.3306 13.4121C45.6663 12.7532 45.3341 11.9376 45.3341 10.9641C45.3341 9.98945 45.6663 9.1738 46.3306 8.51603C46.9939 7.85715 47.8019 7.52827 48.7513 7.52827C49.2227 7.52827 49.6732 7.62035 50.1008 7.80343C50.5295 7.98761 50.8726 8.23209 51.1291 8.53795L50.5514 9.1168C50.1161 8.59606 49.5165 8.33624 48.7502 8.33624C48.0573 8.33624 47.4587 8.57961 46.9533 9.06637C46.4479 9.55312 46.1958 10.1857 46.1958 10.963C46.1958 11.7402 46.4479 12.3728 46.9533 12.8596C47.4587 13.3463 48.0573 13.5897 48.7502 13.5897C49.4847 13.5897 50.0975 13.3452 50.5876 12.8552C50.9055 12.5361 51.0897 12.0921 51.139 11.5232H48.7502V10.7327H51.9371C51.97 10.9049 51.9842 11.0704 51.9842 11.2294Z" stroke="#131316" stroke-width="0.2" stroke-miterlimit="10"/>
<path d="M57.0383 8.4821H54.0432V10.5673H56.7445V11.3577H54.0432V13.4428H57.0383V14.2519H53.1979V7.67413H57.0383V8.4821Z" stroke="#131316" stroke-width="0.2" stroke-miterlimit="10"/>
<path d="M60.6022 14.2519H59.757V8.4821H57.9196V7.67413H62.4396V8.4821H60.6022V14.2519Z" stroke="#131316" stroke-width="0.2" stroke-miterlimit="10"/>
<path d="M65.7098 14.2519V7.67413H66.555V14.2519H65.7098Z" stroke="#131316" stroke-width="0.2" stroke-miterlimit="10"/>
<path d="M70.3035 14.2519H69.4582V8.4821H67.6208V7.67413H72.1409V8.4821H70.3035V14.2519Z" stroke="#131316" stroke-width="0.2" stroke-miterlimit="10"/>
<path d="M80.6972 13.4023C80.0504 14.0666 79.2468 14.3988 78.2853 14.3988C77.3239 14.3988 76.5203 14.0666 75.8746 13.4023C75.2278 12.7379 74.9055 11.9245 74.9055 10.963C74.9055 10.0016 75.2278 9.18811 75.8746 8.52375C76.5203 7.8594 77.3239 7.52612 78.2853 7.52612C79.2413 7.52612 80.0438 7.86049 80.6928 8.52814C81.3418 9.19578 81.6663 10.007 81.6663 10.963C81.6663 11.9245 81.3429 12.7379 80.6972 13.4023ZM76.4984 12.8508C76.9851 13.3442 77.5804 13.5897 78.2853 13.5897C78.9903 13.5897 79.5867 13.3431 80.0723 12.8508C80.5591 12.3575 80.8035 11.7282 80.8035 10.963C80.8035 10.1978 80.5591 9.56852 80.0723 9.07519C79.5867 8.58186 78.9903 8.33629 78.2853 8.33629C77.5804 8.33629 76.9851 8.58295 76.4984 9.07519C76.0127 9.56852 75.7683 10.1978 75.7683 10.963C75.7683 11.7282 76.0127 12.3575 76.4984 12.8508Z" stroke="#131316" stroke-width="0.2" stroke-miterlimit="10"/>
<path d="M82.8525 14.2519V7.67413H83.8809L87.0777 12.7905H87.1138L87.0777 11.5232V7.67413H87.9229V14.2519H87.0404L83.6956 8.88664H83.6594L83.6956 10.154V14.2519H82.8525Z" stroke="#131316" stroke-width="0.2" stroke-miterlimit="10"/>
<g filter="url(#filter0_ii_448_2846)">
<path d="M11.4409 8.26387C11.1219 8.60153 10.9333 9.12556 10.9333 9.80416V34.0499C10.9333 34.7296 11.1219 35.2525 11.4409 35.5901L11.5221 35.6691L25.1041 22.0871V21.927V21.7669L11.5221 8.18384L11.4409 8.26387Z" fill="url(#paint0_linear_448_2846)"/>
<path d="M29.6306 26.6159L25.104 22.0871V21.927V21.767L29.6317 17.2393L29.7337 17.2974L35.0978 20.3451C36.6294 21.2155 36.6294 22.6396 35.0978 23.5112L29.7337 26.5589L29.6306 26.6159Z" fill="url(#paint1_linear_448_2846)"/>
<g filter="url(#filter1_i_448_2846)">
<path d="M29.7337 26.5578L25.103 21.927L11.4409 35.5901C11.9452 36.1251 12.7795 36.1909 13.719 35.6581L29.7337 26.5578Z" fill="url(#paint2_linear_448_2846)"/>
</g>
<path d="M29.7337 17.2963L13.719 8.19705C12.7795 7.66315 11.9452 7.73003 11.4409 8.26502L25.1041 21.9282L29.7337 17.2963Z" fill="url(#paint3_linear_448_2846)"/>
</g>
<defs>
<filter id="filter0_ii_448_2846" x="10.9333" y="7.82861" width="25.3131" height="28.1975" filterUnits="userSpaceOnUse" color-interpolation-filters="sRGB">
<feFlood flood-opacity="0" result="BackgroundImageFix"/>
<feBlend mode="normal" in="SourceGraphic" in2="BackgroundImageFix" result="shape"/>
<feColorMatrix in="SourceAlpha" type="matrix" values="0 0 0 0 0 0 0 0 0 0 0 0 0 0 0 0 0 0 127 0" result="hardAlpha"/>
<feOffset dy="-0.15"/>
<feComposite in2="hardAlpha" operator="arithmetic" k2="-1" k3="1"/>
<feColorMatrix type="matrix" values="0 0 0 0 0 0 0 0 0 0 0 0 0 0 0 0 0 0 0.12 0"/>
<feBlend mode="normal" in2="shape" result="effect1_innerShadow_448_2846"/>
<feColorMatrix in="SourceAlpha" type="matrix" values="0 0 0 0 0 0 0 0 0 0 0 0 0 0 0 0 0 0 127 0" result="hardAlpha"/>
<feOffset dy="0.15"/>
<feComposite in2="hardAlpha" operator="arithmetic" k2="-1" k3="1"/>
<feColorMatrix type="matrix" values="0 0 0 0 1 0 0 0 0 1 0 0 0 0 1 0 0 0 0.25 0"/>
<feBlend mode="normal" in2="effect1_innerShadow_448_2846" result="effect2_innerShadow_448_2846"/>
</filter>
<filter id="filter1_i_448_2846" x="11.4409" y="21.927" width="18.2928" height="14.0991" filterUnits="userSpaceOnUse" color-interpolation-filters="sRGB">
<feFlood flood-opacity="0" result="BackgroundImageFix"/>
<feBlend mode="normal" in="SourceGraphic" in2="BackgroundImageFix" result="shape"/>
<feColorMatrix in="SourceAlpha" type="matrix" values="0 0 0 0 0 0 0 0 0 0 0 0 0 0 0 0 0 0 127 0" result="hardAlpha"/>
<feOffset dy="-0.15"/>
<feComposite in2="hardAlpha" operator="arithmetic" k2="-1" k3="1"/>
<feColorMatrix type="matrix" values="0 0 0 0 0 0 0 0 0 0 0 0 0 0 0 0 0 0 0.08 0"/>
<feBlend mode="normal" in2="shape" result="effect1_innerShadow_448_2846"/>
</filter>
<linearGradient id="paint0_linear_448_2846" x1="23.9001" y1="9.54763" x2="5.50208" y2="27.9457" gradientUnits="userSpaceOnUse">
<stop stop-color="#00A0FF"/>
<stop offset="0.0066" stop-color="#00A1FF"/>
<stop offset="0.2601" stop-color="#00BEFF"/>
<stop offset="0.5122" stop-color="#00D2FF"/>
<stop offset="0.7604" stop-color="#00DFFF"/>
<stop offset="1" stop-color="#00E3FF"/>
</linearGradient>
<linearGradient id="paint1_linear_448_2846" x1="37.0915" y1="21.927" x2="10.5656" y2="21.927" gradientUnits="userSpaceOnUse">
<stop stop-color="#FFE000"/>
<stop offset="0.4087" stop-color="#FFBD00"/>
<stop offset="0.7754" stop-color="#FFA500"/>
<stop offset="1" stop-color="#FF9C00"/>
</linearGradient>
<linearGradient id="paint2_linear_448_2846" x1="27.2189" y1="24.4418" x2="2.26887" y2="49.3919" gradientUnits="userSpaceOnUse">
<stop stop-color="#FF3A44"/>
<stop offset="1" stop-color="#C31162"/>
</linearGradient>
<linearGradient id="paint3_linear_448_2846" x1="8.00008" y1="0.193869" x2="19.141" y2="11.3348" gradientUnits="userSpaceOnUse">
<stop stop-color="#32A071"/>
<stop offset="0.0685" stop-color="#2DA771"/>
<stop offset="0.4762" stop-color="#15CF74"/>
<stop offset="0.8009" stop-color="#06E775"/>
<stop offset="1" stop-color="#00F076"/>
</linearGradient>
</defs>
</svg>
