<svg width="24" height="24" viewBox="0 0 24 24" fill="none" xmlns="http://www.w3.org/2000/svg">
<path d="M7.54219 20.125H4.27266V9.61328H7.54219V20.125ZM5.925 8.17188C5.40938 8.17188 4.96406 7.98438 4.58906 7.60938C4.21406 7.23437 4.02656 6.78906 4.02656 6.27344C4.02656 5.75781 4.21406 5.3125 4.58906 4.9375C4.96406 4.5625 5.40938 4.375 5.925 4.375C6.44063 4.375 6.88594 4.5625 7.26094 4.9375C7.63594 5.3125 7.82344 5.75781 7.82344 6.27344C7.82344 6.78906 7.63594 7.23437 7.26094 7.60938C6.88594 7.98438 6.44063 8.17188 5.925 8.17188ZM19.7766 20.125H16.507V14.9922C16.507 14.1484 16.4367 13.5391 16.2961 13.1641C16.0383 12.5312 15.5344 12.2148 14.7844 12.2148C14.0344 12.2148 13.507 12.4961 13.2023 13.0586C12.968 13.4805 12.8508 14.1016 12.8508 14.9219V20.125H9.61641V9.61328H12.7453V11.0547H12.7805C13.0148 10.5859 13.3898 10.1992 13.9055 9.89453C14.468 9.51953 15.1242 9.33203 15.8742 9.33203C17.3977 9.33203 18.4641 9.8125 19.0734 10.7734C19.5422 11.5469 19.7766 12.7422 19.7766 14.3594V20.125Z" fill="#131316" fill-opacity="0.8"/>
</svg>
