<svg width="56" height="56" viewBox="0 0 56 56" fill="none" xmlns="http://www.w3.org/2000/svg">
<rect x="1" y="1" width="54" height="54" rx="27" fill="#131316" fill-opacity="0.8"/>
<rect x="1" y="1" width="54" height="54" rx="27" fill="url(#paint0_linear_800_25432)"/>
<rect x="1" y="1" width="54" height="54" rx="27" stroke="white" stroke-width="2"/>
<path d="M28.9065 39.1637C28.5757 39.3475 28.4102 39.4394 28.235 39.4755C28.08 39.5074 27.92 39.5074 27.765 39.4755C27.5898 39.4394 27.4243 39.3475 27.0935 39.1637L18.4601 34.3674C18.1107 34.1733 17.936 34.0762 17.8087 33.9381C17.6962 33.816 17.611 33.6712 17.5589 33.5135C17.5 33.3353 17.5 33.1354 17.5 32.7356L17.5 23.2657C17.5 22.8659 17.5 22.6661 17.5589 22.4878C17.611 22.3301 17.6962 22.1853 17.8087 22.0632C17.936 21.9251 18.1107 21.8281 18.4601 21.6339L27.0935 16.8376C27.4243 16.6538 27.5898 16.5619 27.765 16.5259C27.92 16.494 28.08 16.494 28.235 16.5259C28.4102 16.5619 28.5757 16.6538 28.9065 16.8376L37.5399 21.6339C37.8893 21.8281 38.064 21.9251 38.1913 22.0632C38.3038 22.1853 38.389 22.3301 38.4411 22.4878C38.5 22.6661 38.5 22.8659 38.5 23.2657L38.5 32.7356C38.5 33.1354 38.5 33.3353 38.4411 33.5135C38.389 33.6712 38.3038 33.816 38.1913 33.9381C38.064 34.0762 37.8893 34.1733 37.5399 34.3674L28.9065 39.1637Z" stroke="white" stroke-width="1.75" stroke-linecap="round" stroke-linejoin="round"/>
<path d="M21 35.3882C22.8167 33.4614 25.2832 32.2771 28 32.2771C30.7168 32.2771 33.1833 33.4614 35 35.3882M31.5 25.666C31.5 27.599 29.933 29.166 28 29.166C26.067 29.166 24.5 27.599 24.5 25.666C24.5 23.733 26.067 22.166 28 22.166C29.933 22.166 31.5 23.733 31.5 25.666Z" stroke="white" stroke-width="1.75" stroke-linecap="round" stroke-linejoin="round"/>
<defs>
<linearGradient id="paint0_linear_800_25432" x1="72.9167" y1="74.0833" x2="1.732e-06" y2="-1.70473e-06" gradientUnits="userSpaceOnUse">
<stop stop-color="#005BE9"/>
<stop offset="1" stop-color="#43BEAF"/>
</linearGradient>
</defs>
</svg>
