<svg width="56" height="56" viewBox="0 0 56 56" fill="none" xmlns="http://www.w3.org/2000/svg">
<rect x="1" y="1" width="54" height="54" rx="27" fill="url(#paint0_linear_800_25408)"/>
<rect x="1" y="1" width="54" height="54" rx="27" stroke="white" stroke-width="2"/>
<path d="M21.7013 22.0509L24.618 24.9676C24.7346 25.0842 24.8513 25.0842 25.0846 25.0842C25.2013 25.0842 25.4346 24.9676 25.5513 24.9676C25.7846 24.7342 25.7846 24.3842 25.5513 24.1509L23.568 22.1676H32.4346L30.568 24.0342C30.4513 24.1509 30.3346 24.3842 30.3346 24.5009C30.3346 24.8509 30.568 25.0842 30.918 25.0842C31.0346 25.0842 31.268 24.9676 31.3846 24.9676L34.3013 22.0509C34.5346 21.8176 34.5346 21.4676 34.3013 21.2342L31.3846 18.3176C31.1513 18.0842 30.8013 18.0842 30.568 18.3176C30.3346 18.5509 30.3346 18.9009 30.568 19.1342L32.4346 21.0009H23.568L25.4346 19.1342C25.668 18.9009 25.668 18.5509 25.4346 18.3176C25.2013 18.0842 24.8513 18.0842 24.618 18.3176L21.7013 21.1176C21.7013 21.1176 21.5846 21.2342 21.5846 21.3509V21.8176C21.5846 21.9342 21.7013 21.9342 21.7013 22.0509ZM23.218 32.5509C24.1513 31.8509 24.8513 30.8009 24.8513 29.5176C24.7346 27.4176 23.1013 25.6676 21.0013 25.6676C18.9013 25.6676 17.268 27.4176 17.268 29.4009C17.268 30.6842 17.8513 31.7342 18.9013 32.4342C16.6846 33.3676 15.168 35.4676 15.168 37.9176C15.168 38.2676 15.4013 38.5009 15.7513 38.5009C16.1013 38.5009 16.3346 38.2676 16.3346 37.9176C16.3346 35.3509 18.4346 33.2509 21.0013 33.2509C23.568 33.2509 25.668 35.3509 25.668 37.9176C25.668 38.2676 25.9013 38.5009 26.2513 38.5009C26.6013 38.5009 26.8346 38.2676 26.8346 37.9176C26.8346 35.4676 25.318 33.3676 23.218 32.5509ZM21.0013 32.0842C19.6013 32.0842 18.4346 30.9176 18.4346 29.5176C18.4346 28.1176 19.6013 26.8342 21.0013 26.8342C22.4013 26.8342 23.568 28.0009 23.568 29.4009C23.568 30.9176 22.4013 32.0842 21.0013 32.0842ZM37.218 32.5509C38.1513 31.8509 38.8513 30.8009 38.8513 29.5176C38.8513 27.4176 37.1013 25.7842 35.118 25.7842C33.1346 25.7842 31.3846 27.5342 31.3846 29.5176C31.3846 30.8009 31.968 31.8509 33.018 32.5509C30.918 33.3676 29.4013 35.4676 29.4013 37.9176C29.4013 38.2676 29.6346 38.5009 29.9846 38.5009C30.3346 38.5009 30.568 38.2676 30.568 37.9176C30.568 35.3509 32.668 33.2509 35.2346 33.2509C37.8013 33.2509 39.9013 35.3509 39.9013 37.9176C39.9013 38.2676 40.1346 38.5009 40.4846 38.5009C40.8346 38.5009 41.068 38.2676 41.068 37.9176C40.8346 35.4676 39.318 33.3676 37.218 32.5509ZM35.0013 32.0842C33.6013 32.0842 32.4346 30.9176 32.4346 29.5176C32.4346 28.1176 33.6013 26.9509 35.0013 26.9509C36.4013 26.9509 37.568 28.1176 37.568 29.5176C37.568 30.9176 36.4013 32.0842 35.0013 32.0842Z" fill="white" stroke="white" stroke-width="0.35"/>
<defs>
<linearGradient id="paint0_linear_800_25408" x1="69.4167" y1="74.0833" x2="7" y2="7.84484e-07" gradientUnits="userSpaceOnUse">
<stop stop-color="#EC008C"/>
<stop offset="1" stop-color="#FC6767"/>
</linearGradient>
</defs>
</svg>
