<svg width="56" height="56" viewBox="0 0 56 56" fill="none" xmlns="http://www.w3.org/2000/svg">
<rect x="1" y="1" width="54" height="54" rx="27" fill="url(#paint0_linear_800_25414)"/>
<rect x="1" y="1" width="54" height="54" rx="27" stroke="white" stroke-width="2"/>
<path d="M38.5 25.6673H17.5M32.6667 16.334V21.0007M23.3333 16.334V21.0007M23.1 39.6673H32.9C34.8602 39.6673 35.8403 39.6673 36.589 39.2858C37.2475 38.9503 37.783 38.4149 38.1185 37.7563C38.5 37.0076 38.5 36.0275 38.5 34.0673V24.2673C38.5 22.3071 38.5 21.327 38.1185 20.5784C37.783 19.9198 37.2475 19.3844 36.589 19.0488C35.8403 18.6673 34.8602 18.6673 32.9 18.6673H23.1C21.1398 18.6673 20.1597 18.6673 19.411 19.0488C18.7525 19.3844 18.217 19.9198 17.8815 20.5784C17.5 21.327 17.5 22.3071 17.5 24.2673V34.0673C17.5 36.0275 17.5 37.0076 17.8815 37.7563C18.217 38.4149 18.7525 38.9503 19.411 39.2858C20.1597 39.6673 21.1398 39.6673 23.1 39.6673Z" stroke="white" stroke-width="1.75" stroke-linecap="round" stroke-linejoin="round"/>
<defs>
<linearGradient id="paint0_linear_800_25414" x1="56" y1="56" x2="0" y2="0" gradientUnits="userSpaceOnUse">
<stop stop-color="#E86C49"/>
<stop offset="1" stop-color="#EEA849"/>
</linearGradient>
</defs>
</svg>
