<svg width="1440" height="1440" viewBox="0 0 1440 1440" fill="none" xmlns="http://www.w3.org/2000/svg">
<g opacity="0.3">
<path opacity="0.1" d="M406.964 177.801L720 0.372025L1033.04 177.801L1033.04 177.803L1343.22 360.186L1346.08 719.997V720.003L1343.22 1079.81L1033.04 1262.2L1033.04 1262.2L720 1439.63L406.964 1262.2L406.96 1262.2L96.7839 1079.81L93.9236 720.003V719.997L96.7839 360.186L406.96 177.803L406.964 177.801Z" stroke="#131316" stroke-width="0.647285"/>
<path opacity="0.2" d="M442.056 238.583L720 81.0444L997.943 238.583L997.948 238.585L1273.35 400.522L1275.89 719.998V720.003L1273.35 1039.48L997.948 1201.41L997.943 1201.42L720 1358.96L442.056 1201.42L442.052 1201.41L166.648 1039.48L164.108 720.003V719.998L166.648 400.522L442.052 238.585L442.056 238.583Z" stroke="#131316" stroke-width="0.647285"/>
<path opacity="0.3" d="M477.149 299.365L720 161.717L962.851 299.365L962.855 299.367L1203.49 440.858L1205.71 719.998V720.003L1203.49 999.142L962.855 1140.63L962.851 1140.64L720 1278.28L477.149 1140.64L477.144 1140.63L236.512 999.142L234.293 720.003V719.998L236.512 440.858L477.144 299.367L477.149 299.365Z" stroke="#131316" stroke-width="0.647285"/>
<path opacity="0.4" d="M512.241 360.146L720 242.389L927.758 360.146L927.763 360.149L1133.62 481.194L1135.52 719.997V720.002L1133.62 958.805L927.763 1079.85L927.758 1079.85L720 1197.61L512.241 1079.85L512.237 1079.85L306.376 958.805L304.478 720.002V719.997L306.376 481.194L512.237 360.149L512.241 360.146Z" stroke="#131316" stroke-width="0.647285"/>
<path opacity="0.4" d="M547.334 420.928L720 323.061L892.666 420.928L892.671 420.931L1063.76 521.53L1065.34 719.997V720.002L1063.76 918.469L892.671 1019.07L892.666 1019.07L720 1116.94L547.334 1019.07L547.329 1019.07L376.241 918.469L374.663 720.002V719.997L376.241 521.53L547.329 420.931L547.334 420.928Z" stroke="#131316" stroke-width="0.647285"/>
<path opacity="0.6" d="M582.426 481.71L720 403.733L857.574 481.71L857.578 481.713L993.895 561.867L995.152 719.997V720.003L993.895 878.133L857.578 958.287L857.574 958.29L720 1036.27L582.426 958.29L582.422 958.287L446.105 878.133L444.848 720.003V719.997L446.105 561.867L582.422 481.713L582.426 481.71Z" stroke="#131316" stroke-width="0.647285"/>
<path opacity="0.8" d="M617.519 542.492L720 484.406L822.482 542.492L822.486 542.495L924.031 602.203L924.967 719.997V720.003L924.031 837.797L822.486 897.505L822.482 897.508L720 955.594L617.519 897.508L617.515 897.505L515.97 837.797L515.033 720.003V719.997L515.97 602.203L617.515 542.495L617.519 542.492Z" stroke="#131316" stroke-width="0.647285"/>
<path opacity="0.8" d="M652.611 603.274L720 565.078L787.389 603.274L787.394 603.276L854.167 642.539L854.782 719.997V720.003L854.167 797.461L787.394 836.724L787.389 836.726L720 874.922L652.611 836.726L652.607 836.724L585.834 797.461L585.218 720.003V719.997L585.834 642.539L652.607 603.276L652.611 603.274Z" stroke="#131316" stroke-width="0.647285"/>
<path d="M687.704 664.056L720 645.75L752.296 664.056L752.301 664.058L784.302 682.875L784.597 719.997V720.002L784.302 757.125L752.301 775.941L752.296 775.944L720 794.25L687.704 775.944L687.699 775.941L655.698 757.125L655.403 720.002V719.997L655.698 682.875L687.699 664.058L687.704 664.056Z" stroke="#131316" stroke-width="0.647285"/>
</g>
</svg>
