<svg width="32" height="32" viewBox="0 0 32 32" fill="none" xmlns="http://www.w3.org/2000/svg">
<path d="M16.0013 4.0013H21.6013C23.8415 4.0013 24.9616 4.0013 25.8173 4.43728C26.5699 4.82077 27.1818 5.43269 27.5653 6.18534C28.0013 7.04099 28.0013 8.16109 28.0013 10.4013V21.6013C28.0013 23.8415 28.0013 24.9616 27.5653 25.8173C27.1818 26.5699 26.5699 27.1818 25.8173 27.5653C24.9616 28.0013 23.8415 28.0013 21.6013 28.0013H10.4013C8.16109 28.0013 7.04099 28.0013 6.18534 27.5653C5.43269 27.1818 4.82077 26.5699 4.43728 25.8173C4.0013 24.9616 4.0013 23.8415 4.0013 21.6013V16.0013M10.668 17.3346V22.668M21.3346 14.668V22.668M16.0013 9.33464V22.668M2.66797 6.66797L6.66797 2.66797M6.66797 2.66797L10.668 6.66797M6.66797 2.66797L6.66797 10.668" stroke="#131316" stroke-width="2" stroke-linecap="round" stroke-linejoin="round"/>
</svg>
