<svg width="32" height="32" viewBox="0 0 32 32" fill="none" xmlns="http://www.w3.org/2000/svg">
<path d="M21.3346 24L25.3346 20M25.3346 20L29.3346 24M25.3346 20V28M16.0013 20.6667H10.0013C8.14055 20.6667 7.21018 20.6667 6.45311 20.8963C4.74858 21.4134 3.41469 22.7473 2.89762 24.4518C2.66797 25.2089 2.66797 26.1393 2.66797 28M19.3346 10C19.3346 13.3137 16.6483 16 13.3346 16C10.0209 16 7.33464 13.3137 7.33464 10C7.33464 6.68629 10.0209 4 13.3346 4C16.6483 4 19.3346 6.68629 19.3346 10Z" stroke="#131316" stroke-width="2" stroke-linecap="round" stroke-linejoin="round"/>
</svg>
