<svg width="1440" height="1212" viewBox="0 0 1440 1212" fill="none" xmlns="http://www.w3.org/2000/svg">
<g opacity="0.3" filter="url(#filter0_f_714_8402)">
<path d="M1881.96 790.883C1786.38 952.885 1874.44 280.105 1176.93 264.022C1105.86 222.093 1125.72 56.7748 1221.3 -105.227C1316.88 -267.229 1377.19 -690.076 1448.25 -648.147C1519.32 -606.219 1977.53 628.881 1881.96 790.883Z" fill="#FF6B00"/>
</g>
<g opacity="0.5" filter="url(#filter1_f_714_8402)">
<path d="M-1389.1 710.151C-1456.22 965.271 -872.67 213.576 -168.295 892.803C-56.3763 922.249 88.764 739.303 155.885 484.183C223.005 229.063 584.875 -248.328 472.956 -277.773C361.037 -307.218 -1321.98 455.031 -1389.1 710.151Z" fill="url(#paint0_linear_714_8402)" fill-opacity="0.5"/>
</g>
<defs>
<filter id="filter0_f_714_8402" x="818.312" y="-967.055" width="1392.7" height="2099.1" filterUnits="userSpaceOnUse" color-interpolation-filters="sRGB">
<feFlood flood-opacity="0" result="BackgroundImageFix"/>
<feBlend mode="normal" in="SourceGraphic" in2="BackgroundImageFix" result="shape"/>
<feGaussianBlur stdDeviation="158" result="effect1_foregroundBlur_714_8402"/>
</filter>
<filter id="filter1_f_714_8402" x="-1710.37" y="-594.604" width="2520.65" height="1806.52" filterUnits="userSpaceOnUse" color-interpolation-filters="sRGB">
<feFlood flood-opacity="0" result="BackgroundImageFix"/>
<feBlend mode="normal" in="SourceGraphic" in2="BackgroundImageFix" result="shape"/>
<feGaussianBlur stdDeviation="158" result="effect1_foregroundBlur_714_8402"/>
</filter>
<linearGradient id="paint0_linear_714_8402" x1="-358.033" y1="503.282" x2="63.3812" y2="-132.086" gradientUnits="userSpaceOnUse">
<stop stop-color="#00A3FF"/>
<stop offset="1" stop-color="#2ED3B7"/>
</linearGradient>
</defs>
</svg>
