<svg width="1247" height="1247" viewBox="0 0 1247 1247" fill="none" xmlns="http://www.w3.org/2000/svg">
<g opacity="0.5">
<path opacity="0.05" d="M352.442 154.008L623.5 0.372025L894.558 154.008L894.563 154.01L1163.14 311.936L1165.62 623.497V623.503L1163.14 935.064L894.563 1092.99L894.558 1092.99L623.5 1246.63L352.442 1092.99L352.437 1092.99L83.8553 935.064L81.3786 623.503V623.497L83.8553 311.936L352.437 154.01L352.442 154.008Z" stroke="white" stroke-width="0.647285"/>
<path opacity="0.1" d="M382.831 206.643L623.5 70.2319L864.169 206.643L864.174 206.646L1102.64 346.866L1104.84 623.497V623.503L1102.64 900.134L864.174 1040.35L864.169 1040.36L623.5 1176.77L382.831 1040.36L382.826 1040.35L144.356 900.134L142.157 623.503V623.497L144.356 346.866L382.826 206.646L382.831 206.643Z" stroke="white" stroke-width="0.647285"/>
<path opacity="0.2" d="M413.22 259.279L623.5 140.092L833.78 259.279L833.785 259.282L1042.14 381.796L1044.06 623.498V623.503L1042.14 865.204L833.785 987.719L833.78 987.722L623.5 1106.91L413.22 987.722L413.215 987.719L204.856 865.204L202.935 623.503V623.498L204.856 381.796L413.215 259.282L413.22 259.279Z" stroke="white" stroke-width="0.647285"/>
<path opacity="0.3" d="M443.609 311.914L623.5 209.952L803.391 311.914L803.395 311.916L981.643 416.726L983.287 623.497V623.502L981.643 830.274L803.395 935.083L803.391 935.086L623.5 1037.05L443.609 935.086L443.604 935.083L265.357 830.274L263.713 623.502V623.497L265.357 416.726L443.604 311.916L443.609 311.914Z" stroke="white" stroke-width="0.647285"/>
<path opacity="0.4" d="M473.998 364.55L623.5 279.812L773.002 364.55L773.006 364.552L921.142 451.656L922.508 623.498V623.503L921.142 795.344L773.006 882.448L773.002 882.451L623.5 967.188L473.998 882.451L473.993 882.448L325.857 795.344L324.491 623.503V623.498L325.857 451.656L473.993 364.552L473.998 364.55Z" stroke="white" stroke-width="0.647285"/>
<path opacity="0.6" d="M504.387 417.185L623.5 349.672L742.613 417.185L742.618 417.188L860.642 486.586L861.731 623.498V623.503L860.642 760.414L742.618 829.813L742.613 829.815L623.5 897.328L504.387 829.815L504.383 829.813L386.358 760.414L385.269 623.503V623.498L386.358 486.586L504.383 417.188L504.387 417.185Z" stroke="white" stroke-width="0.647285"/>
<path opacity="0.8" d="M534.776 469.82L623.5 419.532L712.224 469.82L712.229 469.823L800.142 521.516L800.953 623.497V623.503L800.142 725.484L712.229 777.177L712.224 777.18L623.5 827.468L534.776 777.18L534.772 777.177L446.859 725.484L446.048 623.503V623.497L446.859 521.516L534.772 469.823L534.776 469.82Z" stroke="white" stroke-width="0.647285"/>
<path opacity="0.8" d="M565.165 522.456L623.5 489.392L681.835 522.456L681.839 522.458L739.641 556.446L740.174 623.497V623.503L739.641 690.554L681.839 724.542L681.835 724.544L623.5 757.608L565.165 724.544L565.161 724.542L507.359 690.554L506.826 623.503V623.497L507.359 556.446L565.161 522.458L565.165 522.456Z" stroke="white" stroke-width="0.647285"/>
<path d="M595.554 575.091L623.5 559.251L651.446 575.091L651.451 575.094L679.141 591.376L679.396 623.497V623.502L679.141 655.624L651.451 671.906L651.446 671.909L623.5 687.748L595.554 671.909L595.55 671.906L567.86 655.624L567.604 623.502V623.497L567.86 591.376L595.55 575.094L595.554 575.091Z" stroke="white" stroke-width="0.647285"/>
</g>
<path d="M615.383 679.466L570.717 654.107L585.606 628.748L601.997 656.667L615.383 679.466ZM606.195 652.26L588.998 622.97L606.195 593.68H640.673L657.87 622.97L640.673 652.26H606.195ZM637.238 587.829H609.63L623.434 564.317L637.238 587.829ZM644.871 589.273L631.485 566.474L677.251 592.458V644.425L663.785 621.489L644.871 589.273ZM676.151 654.107L631.485 679.466L644.871 656.667L661.262 628.748L676.151 654.107ZM569.617 592.458L615.383 566.474L601.997 589.273L583.083 621.489L569.617 644.425V592.458ZM637.238 658.111L623.434 681.623L609.63 658.111H637.238Z" stroke="white" stroke-width="5.85084"/>
</svg>
