<svg width="616" height="316" viewBox="0 0 616 316" fill="none" xmlns="http://www.w3.org/2000/svg">
<g clip-path="url(#clip0_564_3631)">
<g clip-path="url(#clip1_564_3631)">
<g clip-path="url(#clip2_564_3631)">
<path d="M371.823 30.6113L371.874 35.8761C371.874 35.9101 371.883 35.9435 371.901 35.973C371.918 36.0025 371.944 36.0269 371.974 36.0438C372.023 36.0699 372.051 36.1072 372.058 36.1556C372.084 36.4537 372.108 36.4537 372.131 36.1556C372.172 35.5967 372.27 35.0769 372.427 34.5963" stroke="#0D0D0C" stroke-width="1.1178"/>
<path d="M457.352 163.735C457.259 163.992 457.315 164.162 457.519 164.244" stroke="#0D0D0C" stroke-width="1.1178"/>
<path d="M423.331 205.233C423.13 205.245 423.032 205.382 423.035 205.647" stroke="#0D0D0C" stroke-width="1.1178"/>
<path d="M519.283 127.921C519.499 128.007 519.641 128.167 519.708 128.402" stroke="#0D0D0C" stroke-width="1.1178"/>
<path d="M525.872 152.529C526.089 152.675 525.941 152.788 525.431 152.87" stroke="#0D0D0C" stroke-width="1.1178"/>
<path d="M532.261 193.491C532.391 193.804 532.387 193.998 532.25 194.072" stroke="#0D0D0C" stroke-width="1.1178"/>
<path d="M371.823 30.6115L371.874 35.8763C371.874 35.9102 371.883 35.9437 371.901 35.9731C371.918 36.0026 371.944 36.0271 371.974 36.0439C372.023 36.07 372.051 36.1073 372.058 36.1557C372.084 36.4538 372.108 36.4538 372.131 36.1557C372.172 35.5968 372.27 35.0771 372.427 34.5964L372.511 63.1673C372.511 63.3509 372.559 63.5311 372.65 63.6899C372.741 63.8488 372.873 63.9808 373.031 64.0727L404.446 82.4436C404.632 82.5517 404.726 82.7119 404.726 82.9243C404.741 93.942 404.729 105.396 404.692 117.285C404.692 117.956 404.999 118.371 405.614 118.532C406.257 118.699 406.905 118.23 407.442 117.917C414.823 113.617 422.161 109.386 429.457 105.224C430.854 104.427 432.236 103.62 433.604 102.804C435.176 101.865 436.764 100.943 438.366 100.038C447.953 94.6052 457.841 88.9287 468.032 83.0081C468.088 82.9746 468.133 82.9876 468.166 83.0472L468.256 83.1981C468.323 83.3137 468.298 83.4068 468.183 83.4776L437.589 101.167C437.391 101.282 437.391 101.398 437.589 101.513L450.008 108.751C449.683 108.762 449.572 108.879 449.672 109.103L437.544 102.162C437.501 102.137 437.452 102.125 437.403 102.125C437.353 102.125 437.304 102.138 437.262 102.163C437.219 102.188 437.183 102.224 437.158 102.267C437.133 102.309 437.12 102.358 437.119 102.407L436.901 136.757L436.644 135.209C436.644 135.203 436.64 135.198 436.636 135.194C436.631 135.191 436.625 135.189 436.619 135.19C436.613 135.19 436.608 135.193 436.604 135.198C436.6 135.203 436.599 135.209 436.6 135.215L436.555 138.836C436.536 138.818 436.518 138.797 436.499 138.775C436.469 138.741 436.454 138.702 436.454 138.658C436.376 127.912 436.348 116.812 436.37 105.358C436.37 104.535 436.41 103.62 436.488 102.614C436.529 102.081 436.318 101.949 435.856 102.217L406.637 119.057C406.443 119.169 406.35 119.336 406.358 119.56C406.399 120.622 405.996 121.365 405.15 121.79C404.968 121.883 404.852 122.029 404.804 122.226C404.7 122.662 404.651 123.103 404.659 123.551C404.793 134.24 404.796 145.118 404.67 156.185C404.666 156.463 404.737 156.737 404.874 156.978C405.012 157.22 405.211 157.42 405.452 157.559L434.861 174.494C435.04 174.595 435.214 174.589 435.381 174.477C436.249 173.911 437.114 173.911 437.974 174.477C438.146 174.589 438.319 174.595 438.494 174.494L457.351 163.735C457.258 163.992 457.314 164.162 457.519 164.244L439.131 174.891C438.952 174.994 438.804 175.142 438.7 175.321C438.597 175.5 438.542 175.703 438.541 175.909C438.541 176.116 438.594 176.319 438.697 176.498C438.8 176.678 438.947 176.827 439.126 176.931L452.355 184.66C452.247 184.631 452.159 184.649 452.092 184.716C451.992 184.821 451.977 184.945 452.048 185.091C447.647 182.624 443.252 180.15 438.863 177.669C437.924 177.136 437.311 177.387 437.024 178.423C436.995 178.538 436.978 178.656 436.974 178.775L436.952 203.596C436.855 202.962 436.806 202.327 436.806 201.69C436.806 201.612 436.765 201.575 436.683 201.578C436.601 201.582 436.564 201.623 436.572 201.701C436.661 202.7 436.626 203.698 436.465 204.697L436.365 178.596C436.365 178.44 436.325 178.287 436.25 178.15C436.175 178.013 436.066 177.898 435.934 177.814C435.141 177.303 434.75 176.581 434.761 175.645C434.762 175.518 434.729 175.393 434.666 175.282C434.602 175.171 434.509 175.078 434.398 175.014L404.944 157.928C404.802 157.846 404.731 157.886 404.731 158.046L404.77 193.983C404.77 194.266 404.891 194.48 405.134 194.626C410.883 197.986 416.91 201.466 423.214 205.066C423.259 205.092 423.29 205.129 423.309 205.178C423.316 205.196 423.324 205.215 423.331 205.233C423.13 205.245 423.031 205.383 423.035 205.647L405.083 195.442C405.039 195.416 404.989 195.402 404.938 195.403C404.887 195.403 404.837 195.417 404.793 195.444C404.749 195.471 404.713 195.509 404.688 195.555C404.664 195.601 404.651 195.652 404.653 195.704C404.724 198.108 404.759 200.371 404.759 202.495C404.744 212.138 404.729 221.749 404.714 231.328C404.714 231.533 404.804 231.688 404.983 231.792L434.761 249.096C434.928 249.193 435.1 249.2 435.275 249.118L436.108 248.732C436.592 248.505 437.067 248.52 437.533 248.777C440.199 250.258 437.65 253.768 435.269 251.885C434.908 251.598 434.778 251.205 434.878 250.705C434.926 250.463 434.896 250.211 434.794 249.986C434.692 249.76 434.522 249.572 434.308 249.448L404.938 232.592C404.768 232.493 404.575 232.441 404.379 232.441C404.183 232.441 403.99 232.493 403.82 232.592L373.439 250.258C373.163 250.42 372.933 250.651 372.774 250.929C372.614 251.206 372.529 251.52 372.528 251.84L372.388 279.198L372.108 275.397C372.108 275.396 372.107 275.395 372.105 275.394C372.104 275.392 372.103 275.391 372.101 275.39C372.1 275.389 372.099 275.388 372.097 275.388C372.096 275.387 372.095 275.387 372.094 275.387C372.093 275.387 372.092 275.387 372.091 275.388C372.09 275.388 372.09 275.389 372.09 275.39C372.089 275.391 372.089 275.392 372.09 275.394C372.09 275.395 372.091 275.396 372.092 275.397C372.095 275.882 371.995 276.39 371.79 276.923L371.656 251.695C371.655 251.652 371.643 251.609 371.622 251.572C371.6 251.535 371.57 251.504 371.533 251.482C371.496 251.461 371.454 251.449 371.412 251.449C371.37 251.449 371.329 251.461 371.292 251.482L340.167 269.356C340.043 269.427 339.903 269.465 339.759 269.465C339.616 269.465 339.475 269.427 339.351 269.356L308.316 251.438C308.28 251.417 308.24 251.406 308.199 251.406C308.158 251.406 308.118 251.417 308.082 251.437C308.046 251.457 308.017 251.487 307.996 251.522C307.975 251.557 307.964 251.598 307.964 251.639L307.857 286.922C307.857 287.35 308.042 287.671 308.411 287.883L337.77 304.969C337.896 305.043 338.031 305.068 338.172 305.041C338.809 304.924 339.323 304.488 340.005 304.561C342.749 304.857 341.95 308.92 339.441 308.356C337.239 307.858 338.535 306.031 337.3 305.326C327.441 299.685 317.584 294.042 307.729 288.397C307.658 288.357 307.582 288.333 307.508 288.328C307.434 288.323 307.366 288.337 307.31 288.369L275.648 306.595C275.504 306.679 275.339 306.722 275.172 306.722C275.004 306.722 274.839 306.679 274.692 306.595L260.647 298.541C260.711 298.169 260.904 297.793 261.229 297.412C261.214 297.785 261.307 298.031 261.508 298.15C265.793 300.688 270.123 303.199 274.497 305.684C274.528 305.701 274.563 305.71 274.598 305.71C274.633 305.71 274.668 305.701 274.699 305.684C274.73 305.666 274.756 305.641 274.774 305.611C274.793 305.581 274.803 305.546 274.804 305.511C274.875 294.385 274.916 283.218 274.927 272.011C274.927 271.705 274.855 271.448 274.709 271.239C274.605 271.087 274.469 270.962 274.301 270.865C273.608 270.466 273.275 269.835 273.301 268.97C273.304 268.796 273.261 268.623 273.175 268.471C273.09 268.319 272.965 268.192 272.815 268.104L264.275 263.141C264.535 263.178 264.658 263.055 264.644 262.772L273.267 267.752C273.506 267.89 273.735 267.875 273.955 267.707C274.774 267.085 275.641 267.087 276.554 267.713C276.643 267.773 276.747 267.807 276.855 267.811C276.963 267.815 277.069 267.789 277.163 267.735L306.27 250.733C306.307 250.712 306.338 250.682 306.36 250.645C306.382 250.608 306.393 250.566 306.393 250.524C306.393 250.481 306.382 250.439 306.36 250.402C306.338 250.365 306.307 250.335 306.27 250.314L275.52 232.39C275.348 232.293 275.177 232.293 275.005 232.39L266.421 237.275C266.51 237.044 266.4 236.906 266.091 236.861L274.653 231.871C274.802 231.785 274.877 231.656 274.877 231.485L274.905 197.141C274.905 196.932 274.85 196.727 274.746 196.546C274.642 196.365 274.492 196.214 274.312 196.109C274.131 196.005 273.926 195.949 273.717 195.949C273.508 195.948 273.303 196.003 273.122 196.107L266.415 199.952C266.512 199.736 266.406 199.604 266.097 199.555L272.792 195.637C272.976 195.53 273.128 195.377 273.234 195.193C273.34 195.009 273.396 194.8 273.397 194.588C273.397 194.376 273.342 194.167 273.237 193.982C273.132 193.798 272.981 193.644 272.798 193.536C269.18 191.393 265.532 189.303 261.855 187.265C261.709 187.187 261.557 187.222 261.396 187.371L261.508 186.253L273.1 193.033C273.286 193.141 273.497 193.198 273.713 193.198C273.928 193.199 274.14 193.142 274.327 193.034C274.513 192.927 274.668 192.771 274.775 192.585C274.883 192.398 274.939 192.186 274.938 191.971L274.782 158.42C274.781 158.373 274.769 158.328 274.745 158.287C274.721 158.247 274.687 158.213 274.646 158.19C274.606 158.167 274.56 158.155 274.513 158.155C274.466 158.155 274.42 158.168 274.38 158.191C264.595 163.828 254.827 169.458 245.076 175.081C244.804 175.237 244.587 175.424 244.423 175.64C244.262 175.856 244.169 175.828 244.143 175.556C244.125 175.314 244.167 175.103 244.272 174.924C244.354 174.787 244.477 174.671 244.641 174.578C254.146 169.09 263.947 163.407 274.044 157.532C274.087 157.507 274.123 157.472 274.148 157.429C274.173 157.386 274.186 157.338 274.186 157.288C274.186 157.239 274.173 157.19 274.148 157.148C274.123 157.105 274.087 157.07 274.044 157.045L244.076 139.692C243.987 139.639 243.959 139.563 243.992 139.462L244.126 139.077C244.145 139.021 244.18 139.008 244.233 139.038L274.413 156.431C274.692 156.591 274.832 156.511 274.832 156.19C274.896 143.034 274.892 130.123 274.821 117.459C274.799 113.343 274.795 109.215 274.81 105.107C274.836 97.4351 274.81 90.4172 274.732 84.0533C274.731 83.987 274.713 83.9221 274.679 83.865C274.645 83.8079 274.597 83.7606 274.539 83.7278C274.482 83.6951 274.417 83.6779 274.35 83.6782C274.284 83.6784 274.219 83.6959 274.162 83.7291L244.238 101.027C244.179 101.064 244.143 101.047 244.132 100.977L244.054 100.462C244.046 100.41 244.053 100.356 244.076 100.308C244.099 100.261 244.136 100.221 244.182 100.194L273.893 83.0808C274.299 82.846 274.301 82.6113 273.899 82.3766C264.122 76.7056 254.352 71.0887 244.59 65.5258C244.233 65.319 244.126 65.006 244.026 64.6148V64.4024L244.261 63.0722C244.294 62.8822 244.395 62.7406 244.562 62.6475L274.597 45.3831C274.694 45.3286 274.774 45.2492 274.83 45.153C274.886 45.0568 274.916 44.9472 274.916 44.8354L274.855 8.09906C274.855 7.9463 274.925 7.89786 275.067 7.95375C276.013 8.30772 276.934 8.74552 277.828 9.26716C287.545 14.9679 297.32 20.6091 307.153 26.1906C307.254 26.2469 307.368 26.2764 307.483 26.2764C307.598 26.2764 307.712 26.2469 307.813 26.1906L339.614 7.96493C339.662 7.93774 339.717 7.92357 339.772 7.92383C339.827 7.92409 339.882 7.93876 339.93 7.9664C339.978 7.99404 340.018 8.0337 340.045 8.08146C340.073 8.12922 340.088 8.18345 340.089 8.23879L340.173 45.0087C340.177 45.2173 340.266 45.372 340.441 45.4726L371.242 63.0722C371.288 63.0986 371.339 63.1125 371.392 63.1127C371.445 63.1129 371.496 63.0993 371.542 63.0733C371.588 63.0473 371.626 63.0098 371.653 62.9646C371.68 62.9193 371.694 62.8678 371.695 62.8152L371.823 30.6115ZM306.952 26.811L276.039 8.92623C275.981 8.89277 275.914 8.87515 275.846 8.87514C275.779 8.87512 275.712 8.89272 275.654 8.92615C275.596 8.95958 275.547 9.00767 275.514 9.06557C275.48 9.12347 275.463 9.18914 275.464 9.25598L275.514 44.8242C275.514 44.9451 275.546 45.0635 275.606 45.1676C275.666 45.2716 275.752 45.3575 275.855 45.4167L305.622 62.6363C305.827 62.7518 306.024 62.7406 306.214 62.6028C307.053 61.9805 307.895 61.9694 308.741 62.5692C308.945 62.7145 309.158 62.7239 309.378 62.5972L339.061 45.4837C339.175 45.4181 339.272 45.3261 339.344 45.2154C339.416 45.1046 339.46 44.9783 339.474 44.8466C339.53 44.3622 339.558 43.8014 339.558 43.1643C339.569 31.7069 339.573 20.2644 339.569 8.83681C339.57 8.80799 339.562 8.77966 339.548 8.75471C339.533 8.72976 339.512 8.70911 339.487 8.69487C339.462 8.68064 339.434 8.67334 339.405 8.67373C339.376 8.67412 339.348 8.68218 339.323 8.69708L308.198 26.811C308.01 26.9212 307.795 26.9792 307.576 26.9792C307.357 26.9792 307.142 26.9212 306.952 26.811ZM244.97 63.3237C244.838 63.4003 244.728 63.5104 244.652 63.6428C244.576 63.7752 244.535 63.9254 244.535 64.0783C244.535 64.2311 244.576 64.3813 244.652 64.5137C244.728 64.6461 244.838 64.7562 244.97 64.8328L274.76 82.0524C274.892 82.1289 275.042 82.1692 275.195 82.1692C275.349 82.1692 275.499 82.1289 275.631 82.0524L305.516 64.8048C305.648 64.7282 305.758 64.6182 305.834 64.4858C305.91 64.3533 305.951 64.2032 305.951 64.0503C305.951 63.8975 305.91 63.7473 305.834 63.6149C305.758 63.4824 305.648 63.3724 305.516 63.2958L275.682 46.065C275.549 45.9885 275.399 45.9482 275.246 45.9482C275.093 45.9482 274.942 45.9885 274.81 46.065L244.97 63.3237ZM371.091 63.9777L340.285 46.037C340.149 45.9573 339.993 45.9153 339.834 45.9153C339.675 45.9153 339.518 45.9573 339.379 46.037L309.909 63.0946C309.736 63.194 309.592 63.3373 309.492 63.51C309.392 63.6827 309.339 63.8787 309.339 64.0783C309.339 64.2778 309.392 64.4738 309.492 64.6465C309.592 64.8192 309.736 64.9625 309.909 65.0619L371.147 100.418C371.21 100.454 371.281 100.473 371.354 100.473C371.426 100.473 371.498 100.454 371.56 100.418C371.623 100.382 371.676 100.33 371.712 100.267C371.748 100.204 371.767 100.133 371.767 100.06L371.628 64.9054C371.626 64.7177 371.575 64.5336 371.481 64.371C371.387 64.2085 371.253 64.073 371.091 63.9777ZM403.222 82.3263L372.885 65.0452C372.853 65.0257 372.815 65.0155 372.777 65.0154C372.739 65.0152 372.702 65.0253 372.668 65.0445C372.635 65.0637 372.607 65.0914 372.587 65.1248C372.568 65.1583 372.557 65.1963 372.555 65.2352L372.494 100.161C372.494 100.457 372.572 100.748 372.72 101.005C372.868 101.262 373.081 101.476 373.338 101.625L402.25 118.431C402.44 118.541 402.655 118.6 402.875 118.6C403.094 118.6 403.31 118.542 403.5 118.432C403.69 118.322 403.848 118.163 403.957 117.973C404.066 117.782 404.123 117.566 404.122 117.347L404.094 83.8185C404.092 83.5143 404.011 83.2162 403.857 82.9542C403.704 82.6922 403.485 82.4756 403.222 82.3263ZM303.839 98.9479C305.214 99.749 306.101 100.241 306.499 100.423C307.218 100.762 307.925 100.731 308.618 100.328C319.035 94.2997 328.991 88.571 338.485 83.1423C338.966 82.8665 338.966 82.5889 338.485 82.3095L309.445 65.6096C309.214 65.4755 308.977 65.4699 308.735 65.5929L307.768 66.0903C307.661 66.1465 307.541 66.173 307.421 66.1671C307.3 66.1612 307.182 66.1231 307.081 66.0568L306.209 65.4923C306.037 65.3842 305.864 65.3805 305.689 65.4811C296.039 71.1409 286.312 76.769 276.509 82.3654C276.375 82.4399 276.289 82.5536 276.252 82.7063C276.226 82.8144 276.261 82.8982 276.358 82.9578C285.572 88.3232 294.733 93.6533 303.839 98.9479ZM308.087 101.558C307.946 101.641 307.785 101.685 307.621 101.686C307.458 101.687 307.296 101.645 307.153 101.564L275.967 83.5726C275.721 83.431 275.598 83.5018 275.598 83.785C275.531 95.1269 275.507 106.448 275.525 117.749C275.529 118.39 275.574 119.014 275.659 119.622C275.685 119.819 275.784 119.966 275.956 120.063L305.555 137.16C305.66 137.221 305.779 137.252 305.9 137.25C306.021 137.248 306.14 137.213 306.242 137.149C307.122 136.612 307.984 136.616 308.83 137.16C309.024 137.283 309.219 137.286 309.417 137.171L339.189 120.091C339.39 119.975 339.493 119.802 339.497 119.571C339.605 108.732 339.607 97.3308 339.502 85.3667C339.499 84.8637 339.454 84.3662 339.368 83.8744C339.36 83.8234 339.339 83.7752 339.308 83.734C339.277 83.6927 339.236 83.6597 339.189 83.6377C339.143 83.6157 339.091 83.6054 339.04 83.6077C338.988 83.61 338.938 83.6248 338.893 83.6509C328.598 89.5044 318.329 95.4734 308.087 101.558ZM370.996 101.53C371.035 101.509 371.067 101.478 371.089 101.44C371.111 101.402 371.123 101.359 371.123 101.315C371.123 101.271 371.111 101.228 371.089 101.19C371.067 101.152 371.035 101.121 370.996 101.1L340.547 83.5223C340.51 83.5008 340.468 83.4894 340.425 83.4894C340.381 83.4893 340.339 83.5006 340.302 83.5222C340.264 83.5437 340.233 83.5746 340.212 83.6119C340.19 83.6492 340.179 83.6916 340.179 83.7347L339.994 119.214C339.994 119.257 340.006 119.299 340.027 119.336C340.049 119.374 340.08 119.405 340.117 119.426C340.155 119.448 340.197 119.459 340.24 119.459C340.283 119.459 340.326 119.447 340.363 119.426L370.996 101.53ZM340.531 156.57L402.043 121.013C402.223 120.909 402.371 120.759 402.475 120.578C402.578 120.398 402.632 120.194 402.632 119.986C402.631 119.778 402.576 119.574 402.472 119.394C402.367 119.215 402.217 119.066 402.037 118.962L372.388 101.977C372.202 101.869 372.013 101.869 371.823 101.977L340.29 120.007C340.214 120.051 340.15 120.115 340.106 120.191C340.062 120.268 340.039 120.355 340.039 120.443C340.128 132.191 340.143 143.459 340.084 154.245C340.08 154.901 340.043 155.555 339.972 156.207C339.916 156.695 340.102 156.816 340.531 156.57ZM335.199 123.003C326.752 127.862 318.363 132.724 310.032 137.59C309.432 137.944 309.232 138.466 309.434 139.155C309.482 139.33 309.584 139.462 309.741 139.552L339.022 156.531C339.253 156.665 339.39 156.6 339.435 156.335C339.51 155.888 339.547 155.458 339.547 155.044C339.603 143.975 339.605 132.571 339.553 120.834C339.549 120.54 339.422 120.471 339.173 120.628C337.976 121.373 336.652 122.164 335.199 123.003ZM276.067 120.879C276.01 120.846 275.944 120.828 275.877 120.828C275.81 120.828 275.745 120.846 275.687 120.879C275.629 120.913 275.581 120.961 275.548 121.019C275.515 121.076 275.497 121.142 275.497 121.209L275.559 156.028C275.56 156.094 275.578 156.159 275.612 156.216C275.645 156.273 275.693 156.321 275.751 156.354C275.809 156.386 275.874 156.403 275.94 156.403C276.006 156.403 276.071 156.385 276.129 156.352L305.465 139.429C305.527 139.394 305.577 139.342 305.61 139.28C305.644 139.218 305.66 139.147 305.655 139.077L305.588 138.087C305.584 138.025 305.564 137.966 305.531 137.913C305.498 137.86 305.452 137.817 305.398 137.786L276.067 120.879ZM403.859 156.66C403.887 156.675 403.918 156.684 403.949 156.684C403.981 156.684 404.012 156.675 404.039 156.659C404.066 156.643 404.089 156.621 404.104 156.593C404.12 156.566 404.128 156.535 404.128 156.503L404.088 122.008C404.089 121.972 404.078 121.937 404.058 121.907C404.039 121.877 404.01 121.854 403.977 121.84L402.786 121.36C402.761 121.35 402.734 121.345 402.707 121.347C402.68 121.349 402.653 121.357 402.63 121.371L373.075 138.473C373.047 138.489 373.024 138.511 373.008 138.539C372.992 138.566 372.983 138.598 372.983 138.63C372.983 138.662 372.992 138.693 373.008 138.72C373.024 138.748 373.047 138.771 373.075 138.786L403.859 156.66ZM340.123 157.336C340.126 157.317 340.119 157.302 340.1 157.291C339.933 157.194 339.892 157.233 339.977 157.409C340 157.45 340.024 157.489 340.05 157.526C340.084 157.567 340.1 157.615 340.1 157.671C340.149 169.14 340.167 180.672 340.156 192.267C340.156 192.487 340.249 192.653 340.436 192.764L341.335 193.323C341.563 193.465 341.678 193.67 341.682 193.938L341.693 194.944C341.697 195.205 341.812 195.401 342.04 195.531C351.001 200.695 360.172 205.988 369.554 211.409C370.244 211.808 370.927 212.16 371.605 212.466C371.78 212.548 371.963 212.568 372.153 212.527C372.678 212.419 373.187 212.222 373.679 211.935C383.169 206.402 393.173 200.647 403.692 194.67C403.852 194.577 403.951 194.437 403.988 194.251C404.111 193.625 404.167 192.994 404.156 192.356C403.966 181.633 403.971 170.174 404.172 157.979C404.174 157.833 404.137 157.69 404.065 157.564C403.993 157.438 403.89 157.334 403.764 157.263L372.528 139.306C372.404 139.233 372.263 139.194 372.118 139.193C371.974 139.192 371.832 139.229 371.706 139.3C361.094 145.303 350.606 151.339 340.24 157.409C340.154 157.457 340.115 157.433 340.123 157.336ZM307.153 190.501C307.183 185.769 307.181 181.108 307.148 176.517C307.146 176.29 307.204 176.066 307.317 175.869C307.43 175.671 307.593 175.508 307.79 175.394L338.893 157.498C338.93 157.477 338.961 157.447 338.983 157.41C339.004 157.373 339.016 157.331 339.016 157.288C339.016 157.246 339.004 157.204 338.983 157.167C338.961 157.13 338.93 157.1 338.893 157.079L309.411 140.122C309.191 139.995 308.975 140.003 308.763 140.144C307.932 140.707 307.094 140.712 306.248 140.161C306.157 140.101 306.051 140.067 305.942 140.064C305.832 140.061 305.723 140.089 305.627 140.144L275.872 157.342C275.671 157.457 275.57 157.63 275.57 157.861C275.529 168.961 275.497 180.04 275.475 191.099C275.475 191.509 275.507 191.93 275.57 192.362C275.6 192.552 275.702 192.686 275.877 192.764C276.779 193.178 277.196 193.912 277.129 194.967C277.114 195.22 277.217 195.41 277.437 195.537L306.499 212.253C306.79 212.421 306.989 212.346 307.097 212.03C307.205 211.717 307.258 211.37 307.254 210.99C307.15 203.825 307.116 196.995 307.153 190.501ZM339.413 192.737C339.452 192.722 339.485 192.696 339.509 192.662C339.533 192.628 339.546 192.588 339.547 192.546L339.581 158.107C339.581 158.071 339.571 158.034 339.553 158.003C339.535 157.971 339.508 157.944 339.476 157.926C339.444 157.908 339.408 157.899 339.372 157.899C339.335 157.899 339.299 157.91 339.268 157.928L308.511 175.763C308.48 175.781 308.454 175.807 308.436 175.838C308.418 175.87 308.408 175.905 308.408 175.942C308.408 175.978 308.418 176.013 308.436 176.045C308.454 176.076 308.48 176.102 308.511 176.12L337.965 193.212C337.992 193.228 338.022 193.237 338.053 193.24C338.084 193.243 338.115 193.239 338.144 193.228L339.413 192.737ZM307.83 177.031L307.975 249.135C307.975 249.196 307.992 249.256 308.023 249.309C308.054 249.362 308.098 249.405 308.152 249.436C308.206 249.466 308.266 249.482 308.328 249.482C308.39 249.483 308.452 249.467 308.506 249.437L338.994 231.993C339.16 231.898 339.298 231.761 339.394 231.596C339.491 231.431 339.541 231.245 339.541 231.055C339.59 219.586 339.581 208.279 339.513 197.135C339.508 196.492 339.01 196.168 338.446 196.034C338.338 196.006 338.241 195.946 338.169 195.862C338.097 195.777 338.053 195.674 338.044 195.565L337.932 194.374C337.895 193.979 337.703 193.683 337.356 193.485L308.282 176.769C308.236 176.742 308.184 176.728 308.131 176.728C308.078 176.728 308.026 176.742 307.98 176.769C307.934 176.796 307.896 176.834 307.869 176.88C307.843 176.926 307.829 176.978 307.83 177.031ZM403.938 231.792C403.974 231.772 404.005 231.742 404.027 231.705C404.048 231.669 404.06 231.628 404.061 231.585L404.122 195.576C404.123 195.533 404.113 195.49 404.092 195.453C404.071 195.415 404.04 195.384 404.003 195.362C403.966 195.341 403.924 195.329 403.881 195.329C403.838 195.33 403.796 195.341 403.759 195.363L372.623 213.354C372.586 213.375 372.555 213.405 372.533 213.441C372.512 213.477 372.5 213.519 372.5 213.561L372.555 249.336C372.556 249.378 372.567 249.419 372.588 249.455C372.609 249.49 372.639 249.52 372.676 249.541C372.712 249.562 372.752 249.573 372.794 249.574C372.836 249.574 372.877 249.563 372.913 249.543L403.938 231.792ZM275.766 231.876L306.421 249.403C306.486 249.44 306.559 249.46 306.634 249.46C306.708 249.46 306.782 249.44 306.846 249.403C306.911 249.366 306.965 249.312 307.002 249.247C307.039 249.182 307.058 249.109 307.058 249.034L307.097 213.785C307.097 213.671 307.067 213.559 307.009 213.459C306.951 213.36 306.868 213.278 306.768 213.22C297.207 207.683 287.398 201.99 277.342 196.14C276.526 195.665 275.587 196.207 275.508 197.135C275.471 197.586 275.453 198.037 275.453 198.488C275.479 209.476 275.49 220.445 275.486 231.395C275.486 231.608 275.579 231.768 275.766 231.876ZM370.65 212.734C361.042 207.234 351.524 201.506 341.844 196.135C341.675 196.042 341.485 195.994 341.292 195.997C341.1 195.999 340.911 196.052 340.745 196.149C340.579 196.247 340.441 196.386 340.344 196.553C340.248 196.72 340.197 196.909 340.195 197.102L340.016 230.82C340.015 230.884 340.032 230.948 340.063 231.004C340.095 231.06 340.141 231.107 340.197 231.139C340.253 231.172 340.316 231.189 340.381 231.189C340.445 231.189 340.509 231.171 340.564 231.138L370.935 213.516C370.968 213.496 370.998 213.47 371.021 213.439C371.045 213.408 371.062 213.373 371.072 213.336C371.082 213.298 371.084 213.259 371.079 213.221C371.073 213.183 371.061 213.147 371.041 213.114C370.94 212.954 370.81 212.827 370.65 212.734ZM371.466 250.392C371.519 250.362 371.562 250.318 371.593 250.265C371.623 250.212 371.639 250.152 371.639 250.091L371.762 214.383C371.762 214.322 371.746 214.262 371.716 214.209C371.686 214.156 371.642 214.112 371.589 214.081C371.537 214.051 371.477 214.034 371.416 214.034C371.355 214.034 371.295 214.05 371.242 214.081L308.847 250.219C308.793 250.249 308.749 250.293 308.718 250.346C308.687 250.399 308.67 250.46 308.67 250.521C308.67 250.582 308.687 250.643 308.718 250.696C308.749 250.749 308.793 250.793 308.847 250.823L339.664 268.674C339.717 268.704 339.777 268.72 339.838 268.72C339.898 268.72 339.958 268.704 340.011 268.674L371.466 250.392ZM276.431 270.652C276.218 270.787 276.004 270.923 275.788 271.06C275.587 271.187 275.486 271.37 275.486 271.608C275.456 282.92 275.471 294.156 275.531 305.315C275.531 305.374 275.546 305.432 275.576 305.483C275.605 305.534 275.647 305.576 275.698 305.606C275.749 305.635 275.807 305.651 275.866 305.651C275.925 305.651 275.983 305.635 276.034 305.606L306.762 287.816C306.883 287.746 306.983 287.646 307.052 287.524C307.122 287.402 307.159 287.264 307.159 287.123L307.053 251.89C307.053 251.829 307.037 251.769 307.007 251.716C306.977 251.663 306.933 251.619 306.88 251.589C306.827 251.558 306.768 251.542 306.707 251.542C306.646 251.542 306.586 251.558 306.533 251.588L277.476 268.199C277.271 268.314 277.165 268.491 277.157 268.73C277.146 269.225 277.049 269.695 276.867 270.138C276.777 270.358 276.632 270.529 276.431 270.652Z" fill="#0D0D0C"/>
<path d="M372.427 34.5969C372.27 35.0775 372.172 35.5973 372.131 36.1562C372.108 36.4543 372.084 36.4543 372.058 36.1562C372.05 36.1077 372.023 36.0705 371.974 36.0444C371.944 36.0275 371.918 36.0031 371.901 35.9736C371.883 35.9441 371.874 35.9107 371.874 35.8767L371.823 30.6119C371.939 30.053 371.911 29.5165 371.739 29.0023C371.68 28.816 371.562 28.6763 371.387 28.5831C370.411 28.0503 370.035 27.2921 370.258 26.3084C370.784 23.989 374.467 24.6373 373.981 27.1747C373.83 27.9516 373.215 28.2981 372.656 28.7731C372.507 28.8998 372.432 29.0601 372.432 29.2538L372.427 34.5969Z" fill="#0D0D0C"/>
<path d="M519.283 127.921C519.499 128.007 519.641 128.167 519.708 128.402L503.354 137.926C503.183 138.026 503.088 138.175 503.069 138.373C503.006 139.006 503.321 139.522 504.014 139.921C511.309 144.113 518.596 148.316 525.872 152.53C526.089 152.675 525.941 152.789 525.431 152.871L503.327 140.128C503.121 140.01 502.881 139.966 502.646 140.005C502.411 140.044 502.195 140.162 502.035 140.34C501.516 140.921 501.639 141.508 501.639 142.24C501.631 152.904 501.594 163.735 501.527 174.735C501.525 175.052 501.608 175.365 501.767 175.64C501.926 175.916 502.156 176.146 502.432 176.305L532.261 193.491C532.391 193.804 532.387 193.998 532.249 194.072C532.231 194.072 532.212 194.072 532.194 194.072C532.153 194.076 532.115 194.069 532.082 194.05C522.085 188.23 512.083 182.423 502.075 176.629C501.87 176.51 501.709 176.514 501.594 176.64C501.562 176.676 501.544 176.722 501.544 176.769V212.639C501.544 213.116 501.339 213.474 500.929 213.712L469.312 232.005C469.115 232.12 468.915 232.12 468.714 232.005L423.035 205.647C423.032 205.383 423.13 205.245 423.331 205.234L436.102 212.65C436.378 212.81 436.516 212.732 436.516 212.415L436.466 204.697C436.626 203.699 436.661 202.7 436.572 201.701C436.564 201.623 436.602 201.582 436.684 201.578C436.766 201.575 436.806 201.612 436.806 201.69C436.806 202.327 436.855 202.963 436.952 203.596L436.941 212.812C436.94 212.897 436.963 212.981 437.006 213.055C437.049 213.13 437.111 213.193 437.187 213.237L468.731 231.457C468.91 231.561 469.088 231.561 469.267 231.457L500.549 213.422C500.715 213.326 500.853 213.189 500.95 213.024C501.046 212.859 501.096 212.673 501.096 212.483L501.08 176.769C501.079 176.729 501.068 176.691 501.048 176.657C501.028 176.623 500.999 176.594 500.965 176.575C500.93 176.555 500.891 176.544 500.852 176.544C500.812 176.544 500.773 176.554 500.739 176.573L469.558 194.559C469.364 194.67 469.267 194.836 469.267 195.056L469.256 231.016C469.256 231.157 469.189 231.209 469.055 231.172L468.865 231.116C468.783 231.094 468.742 231.04 468.742 230.954V194.967C468.742 194.87 468.716 194.776 468.668 194.693C468.62 194.611 468.551 194.543 468.468 194.497L452.048 185.091C451.977 184.946 451.992 184.821 452.092 184.717C452.159 184.649 452.247 184.631 452.355 184.661L468.205 193.843C468.452 193.986 468.731 194.061 469.016 194.061C469.3 194.061 469.58 193.986 469.826 193.843L500.241 176.277C500.307 176.238 500.359 176.179 500.388 176.109C500.417 176.038 500.423 175.96 500.403 175.886C500.366 175.744 500.286 175.636 500.163 175.562C490.748 170.107 480.566 164.231 469.619 157.934C469.434 157.827 469.224 157.772 469.009 157.773C468.794 157.773 468.582 157.831 468.395 157.94L457.519 164.244C457.314 164.162 457.258 163.993 457.352 163.736C460.765 161.791 464.174 159.836 467.579 157.873C467.766 157.765 467.93 157.636 468.071 157.487C468.276 157.271 468.481 157.256 468.686 157.442C468.757 157.502 468.839 157.535 468.932 157.543C469.029 157.55 469.111 157.517 469.178 157.442C469.271 157.342 469.251 157.273 469.116 157.236C468.975 157.195 468.833 157.183 468.692 157.202C468.52 157.224 468.358 157.191 468.205 157.101L436.555 138.837L436.6 135.215C436.599 135.209 436.601 135.203 436.604 135.198C436.608 135.194 436.613 135.191 436.619 135.19C436.625 135.189 436.631 135.191 436.636 135.194C436.641 135.198 436.644 135.203 436.644 135.209L436.902 136.758C436.846 137.335 436.888 137.873 437.03 138.373C437.071 138.522 437.16 138.635 437.298 138.714L468.418 156.665C468.453 156.686 468.494 156.697 468.535 156.697C468.576 156.697 468.616 156.686 468.652 156.666C468.687 156.646 468.717 156.616 468.738 156.581C468.758 156.545 468.769 156.505 468.77 156.464L468.736 120.382C468.736 120.151 468.636 119.978 468.435 119.862L449.672 109.103C449.572 108.88 449.683 108.762 450.008 108.751L468.233 119.309C468.58 119.51 468.753 119.409 468.753 119.007L468.731 83.8299C468.731 83.1517 468.436 82.645 467.848 82.3097L438.673 65.5148C438.547 65.4421 438.401 65.4096 438.254 65.4216C438.107 65.4335 437.967 65.4894 437.852 65.5819C437.203 66.0998 436.518 66.1668 435.795 65.7831C433.325 64.4585 435.856 60.4735 438.343 62.9662C438.519 63.1413 438.593 63.3537 438.567 63.6034C438.53 63.9685 438.567 64.3281 438.679 64.682C438.727 64.8497 438.828 64.9783 438.981 65.0677L468.775 82.3153C468.932 82.4084 469.09 82.4084 469.251 82.3153L499.112 65.0789C499.229 65.0103 499.326 64.9128 499.394 64.7954C499.463 64.6781 499.5 64.5448 499.504 64.4082L499.526 63.3686C499.53 63.1823 499.599 63.024 499.733 62.8936C501.342 61.3734 504.12 62.6812 502.986 64.9727C502.714 65.5204 502.198 65.8669 501.437 66.0122C501.184 66.0607 500.946 66.0197 500.722 65.8893L499.923 65.431C499.763 65.3378 499.602 65.3378 499.442 65.431L470.245 82.2761C470.107 82.3544 470.001 82.4643 469.927 82.6059C469.811 82.8257 469.645 82.9599 469.429 83.0083C469.087 83.094 469.092 83.1424 469.446 83.1536C469.599 83.1611 469.75 83.1499 469.899 83.1201C470.036 83.0948 470.179 83.1185 470.301 83.1871L501.085 100.971C501.283 101.087 501.395 101.258 501.421 101.485C501.817 104.962 501.477 108.399 501.532 111.842C501.667 119.73 501.674 127.789 501.555 136.02C501.553 136.239 501.608 136.455 501.716 136.645C501.824 136.836 501.98 136.995 502.168 137.106C502.357 137.216 502.571 137.275 502.789 137.276C503.007 137.276 503.222 137.219 503.41 137.11L519.283 127.921ZM469.737 156.632L499.146 139.608C499.388 139.466 499.492 139.258 499.459 138.982C499.34 137.987 499.742 137.266 500.666 136.819C500.783 136.762 500.882 136.674 500.951 136.564C501.021 136.455 501.057 136.328 501.057 136.199L501.069 102.123C501.068 101.93 501.018 101.742 500.923 101.575C500.828 101.408 500.691 101.27 500.526 101.172L469.854 83.4778C469.794 83.4433 469.727 83.4253 469.658 83.4254C469.589 83.4254 469.522 83.4437 469.462 83.4783C469.402 83.5129 469.353 83.5626 469.319 83.6223C469.285 83.6821 469.267 83.7498 469.267 83.8187L469.262 156.364C469.262 156.418 469.276 156.472 469.304 156.519C469.332 156.567 469.372 156.606 469.42 156.633C469.468 156.66 469.522 156.674 469.578 156.674C469.634 156.674 469.688 156.659 469.737 156.632ZM501.057 175.232L501.035 141.285C501.034 141.065 500.975 140.849 500.865 140.659C500.754 140.469 500.596 140.311 500.405 140.201C500.214 140.091 499.998 140.034 499.778 140.033C499.558 140.033 499.342 140.091 499.152 140.2L469.586 157.219C469.508 157.263 469.508 157.308 469.586 157.353C479.732 163.225 489.585 168.905 499.146 174.394C499.675 174.699 500.178 175.042 500.655 175.422C500.923 175.642 501.057 175.579 501.057 175.232Z" fill="#0D0D0C"/>
<path d="M532.249 194.073C532.387 193.998 532.391 193.804 532.261 193.491C532.499 193.637 532.723 193.719 532.931 193.737C533.132 193.752 533.235 193.659 533.239 193.458C533.283 190.719 533.302 188.035 533.295 185.404C533.268 176.328 533.27 168.317 533.3 161.371C533.304 160.421 533.278 159.372 533.222 158.225C533.2 157.692 532.957 157.29 532.495 157.018L525.431 152.871C525.941 152.789 526.088 152.675 525.872 152.53L532.937 156.559C532.973 156.579 533.013 156.589 533.054 156.589C533.095 156.588 533.135 156.577 533.17 156.557C533.205 156.537 533.234 156.507 533.254 156.473C533.274 156.438 533.284 156.398 533.283 156.358V121.539C533.283 120.905 533.008 120.747 532.456 121.064L519.708 128.402C519.641 128.167 519.499 128.007 519.283 127.921L563.715 102.318C563.902 102.21 564 102.048 564.012 101.832L564.062 100.709C564.073 100.496 564.155 100.316 564.308 100.167C564.8 99.6971 565.632 99.1885 566.337 99.4288C567.167 99.7194 567.665 100.271 567.829 101.083C568.198 102.911 566.096 103.755 564.744 102.877C564.615 102.793 564.465 102.747 564.311 102.743C564.157 102.739 564.005 102.778 563.872 102.855C554.408 108.377 544.799 113.936 535.044 119.532C534.928 119.599 534.826 119.681 534.736 119.778C534.558 119.979 534.584 120.149 534.815 120.287L565.627 138.127C565.984 138.336 566.165 138.647 566.169 139.06L566.292 174.628C566.296 175.061 566.486 175.169 566.862 174.953L596.008 158.242C596.116 158.18 596.204 158.089 596.264 157.981C596.323 157.872 596.351 157.75 596.344 157.627C596.28 156.505 596.789 155.723 597.87 155.279C598.034 155.212 598.197 155.211 598.361 155.274C598.931 155.49 599.438 155.805 599.882 156.218C600.049 156.375 600.137 156.567 600.144 156.794C600.189 158.094 599.608 158.936 598.401 159.32C598.192 159.387 597.993 159.363 597.803 159.248L596.931 158.722C596.741 158.61 596.549 158.61 596.355 158.722L567.348 175.551C567.284 175.587 567.231 175.64 567.194 175.704C567.158 175.768 567.138 175.84 567.138 175.914C567.138 175.988 567.158 176.06 567.194 176.124C567.231 176.188 567.284 176.24 567.348 176.277L597.216 193.737C597.376 193.83 597.545 193.896 597.724 193.933C598.045 194.004 598.263 194.173 598.378 194.441C598.46 194.635 598.41 194.784 598.227 194.889L566.124 213.528C565.957 213.621 565.793 213.617 565.632 213.517C563.836 212.373 562.1 211.324 560.423 210.37C551.835 205.5 543.342 200.617 534.943 195.721C534.709 195.587 534.461 195.481 534.2 195.403C534.172 195.394 534.142 195.392 534.113 195.397C534.084 195.402 534.056 195.413 534.032 195.431C534.008 195.448 533.989 195.471 533.975 195.497C533.962 195.523 533.954 195.552 533.954 195.582L533.842 229.423C533.842 229.639 533.932 229.808 534.111 229.931L535.128 230.624C535.289 230.736 535.403 230.906 535.446 231.1C536.145 234.179 532.071 234.671 531.724 232.284C531.571 231.241 531.949 230.522 532.859 230.127C532.995 230.067 533.111 229.969 533.192 229.845C533.274 229.721 533.317 229.576 533.317 229.428L533.267 195.034C533.267 194.855 533.186 194.725 533.026 194.643C532.702 194.475 532.443 194.285 532.249 194.073ZM565.705 139.049C565.705 139.005 565.693 138.961 565.67 138.923C565.648 138.884 565.615 138.853 565.576 138.831L534.323 120.84C534.285 120.819 534.242 120.808 534.198 120.808C534.154 120.808 534.111 120.82 534.073 120.842C534.036 120.864 534.004 120.896 533.982 120.934C533.96 120.971 533.949 121.014 533.948 121.058L533.926 193.592C533.926 193.636 533.937 193.68 533.959 193.719C533.982 193.758 534.014 193.79 534.052 193.812C534.091 193.834 534.135 193.846 534.18 193.845C534.224 193.845 534.268 193.833 534.306 193.81L565.364 175.825C565.402 175.802 565.433 175.77 565.455 175.732C565.476 175.694 565.487 175.65 565.487 175.607L565.705 139.049ZM565.739 212.807C565.766 212.824 565.798 212.833 565.83 212.834C565.862 212.835 565.894 212.828 565.923 212.812L597.484 194.766C597.513 194.75 597.537 194.726 597.554 194.698C597.571 194.669 597.58 194.637 597.58 194.603C597.58 194.57 597.571 194.538 597.554 194.509C597.537 194.481 597.513 194.457 597.484 194.441L565.962 176.456C565.935 176.441 565.904 176.433 565.873 176.433C565.841 176.433 565.811 176.441 565.783 176.456L534.58 194.413C534.552 194.43 534.529 194.453 534.513 194.481C534.497 194.509 534.489 194.541 534.489 194.573C534.489 194.605 534.497 194.637 534.513 194.665C534.529 194.693 534.552 194.716 534.58 194.732L565.739 212.807Z" fill="#0D0D0C"/>
<path d="M336.081 196.862C336.451 196.633 336.734 196.42 336.713 196.386C336.692 196.352 336.375 196.51 336.004 196.738C335.634 196.967 335.351 197.18 335.372 197.214C335.393 197.248 335.711 197.091 336.081 196.862Z" fill="#0D0D0C"/>
<path d="M372.388 279.198L372.399 285.463C372.399 285.657 372.481 285.806 372.645 285.91C372.947 286.104 373.238 286.328 373.517 286.581C374.283 287.269 374.149 288.744 373.355 289.253C370.963 290.784 368.945 287.693 371.024 286.262C371.222 286.125 371.41 285.974 371.589 285.81C371.654 285.748 371.706 285.673 371.742 285.589C371.777 285.506 371.796 285.415 371.796 285.324L371.79 276.923C371.995 276.39 372.095 275.882 372.092 275.398C372.091 275.396 372.09 275.395 372.09 275.394C372.09 275.392 372.09 275.39 372.09 275.39L372.091 275.388L372.094 275.387C372.094 275.387 372.096 275.387 372.098 275.388C372.099 275.389 372.1 275.389 372.102 275.39C372.103 275.391 372.104 275.392 372.105 275.394C372.107 275.395 372.108 275.396 372.109 275.398L372.388 279.198Z" fill="#0D0D0C"/>
</g>
</g>
<g clip-path="url(#clip3_564_3631)">
<g clip-path="url(#clip4_564_3631)">
<path d="M244.984 30.6113L244.934 35.8761C244.934 35.9101 244.925 35.9435 244.907 35.973C244.889 36.0025 244.864 36.0269 244.833 36.0438C244.785 36.0699 244.757 36.1072 244.75 36.1556C244.724 36.4537 244.699 36.4537 244.677 36.1556C244.636 35.5967 244.537 35.0769 244.381 34.5963" stroke="#0D0D0C" stroke-width="1.1178"/>
<path d="M166.8 108.751C167.124 108.762 167.236 108.88 167.135 109.103" stroke="#0D0D0C" stroke-width="1.1178"/>
<path d="M179.906 136.757L180.163 135.209C180.164 135.203 180.167 135.198 180.172 135.194C180.176 135.191 180.182 135.189 180.188 135.19C180.194 135.19 180.199 135.193 180.203 135.198C180.207 135.203 180.208 135.209 180.208 135.215L180.252 138.836" stroke="#0D0D0C" stroke-width="1.1178"/>
<path d="M159.456 163.735C159.549 163.992 159.493 164.162 159.288 164.244" stroke="#0D0D0C" stroke-width="1.1178"/>
<path d="M164.453 184.66C164.561 184.63 164.649 184.649 164.716 184.716C164.816 184.82 164.831 184.945 164.76 185.091" stroke="#0D0D0C" stroke-width="1.1178"/>
<path d="M179.856 203.596C179.953 202.963 180.001 202.327 180.001 201.69C180.001 201.612 180.042 201.575 180.124 201.578C180.206 201.582 180.244 201.623 180.236 201.701C180.147 202.7 180.182 203.698 180.342 204.697" stroke="#0D0D0C" stroke-width="1.1178"/>
<path d="M193.476 205.233C193.677 205.245 193.776 205.382 193.772 205.647" stroke="#0D0D0C" stroke-width="1.1178"/>
<path d="M244.42 279.198L244.699 275.398C244.7 275.396 244.701 275.395 244.702 275.394C244.703 275.392 244.705 275.391 244.706 275.39C244.707 275.389 244.709 275.389 244.71 275.388C244.711 275.387 244.714 275.387 244.714 275.387L244.716 275.388L244.718 275.39C244.718 275.39 244.718 275.392 244.718 275.394C244.717 275.395 244.717 275.396 244.716 275.398C244.712 275.882 244.813 276.39 245.018 276.923" stroke="#0D0D0C" stroke-width="1.1178"/>
<path d="M97.5244 127.921C97.3083 128.007 97.1667 128.167 97.0996 128.402" stroke="#0D0D0C" stroke-width="1.1178"/>
<path d="M90.9354 152.529C90.7193 152.675 90.8665 152.788 91.377 152.87" stroke="#0D0D0C" stroke-width="1.1178"/>
<path d="M84.547 193.491C84.4165 193.804 84.4202 193.998 84.5581 194.072" stroke="#0D0D0C" stroke-width="1.1178"/>
<path d="M244.984 30.6115L244.934 35.8763C244.934 35.9102 244.925 35.9437 244.907 35.9731C244.889 36.0026 244.864 36.0271 244.833 36.0439C244.785 36.07 244.757 36.1073 244.75 36.1557C244.723 36.4538 244.699 36.4538 244.677 36.1557C244.636 35.5968 244.537 35.0771 244.381 34.5964L244.297 63.1673C244.297 63.3509 244.249 63.5311 244.157 63.6899C244.066 63.8488 243.935 63.9808 243.777 64.0727L212.361 82.4436C212.175 82.5517 212.082 82.7119 212.082 82.9243C212.067 93.942 212.078 105.396 212.116 117.285C212.116 117.956 211.808 118.371 211.193 118.532C210.551 118.699 209.902 118.23 209.366 117.917C201.985 113.617 194.646 109.386 187.351 105.224C185.954 104.427 184.571 103.62 183.204 102.804C181.631 101.865 180.044 100.943 178.442 100.038C168.855 94.6052 158.966 88.9287 148.776 83.0081C148.72 82.9746 148.675 82.9876 148.642 83.0472L148.552 83.1981C148.485 83.3137 148.509 83.4068 148.625 83.4776L179.219 101.167C179.416 101.282 179.416 101.398 179.219 101.513L166.8 108.751C167.124 108.762 167.236 108.879 167.135 109.103L179.264 102.162C179.307 102.137 179.355 102.125 179.405 102.125C179.455 102.125 179.503 102.138 179.546 102.163C179.589 102.188 179.625 102.224 179.65 102.267C179.674 102.309 179.688 102.358 179.688 102.407L179.906 136.757L180.163 135.209C180.164 135.203 180.167 135.198 180.172 135.194C180.177 135.191 180.183 135.189 180.188 135.19C180.194 135.19 180.2 135.193 180.203 135.198C180.207 135.203 180.209 135.209 180.208 135.215L180.253 138.836C180.271 138.818 180.29 138.797 180.309 138.775C180.338 138.741 180.353 138.702 180.353 138.658C180.432 127.912 180.46 116.812 180.437 105.358C180.437 104.535 180.398 103.62 180.32 102.614C180.279 102.081 180.489 101.949 180.951 102.217L210.171 119.057C210.364 119.169 210.457 119.336 210.45 119.56C210.409 120.622 210.811 121.365 211.657 121.79C211.84 121.883 211.955 122.029 212.004 122.226C212.108 122.662 212.157 123.103 212.149 123.551C212.015 134.24 212.011 145.118 212.138 156.185C212.141 156.463 212.071 156.737 211.933 156.978C211.796 157.22 211.596 157.42 211.355 157.559L181.946 174.494C181.767 174.595 181.594 174.589 181.426 174.477C180.558 173.911 179.694 173.911 178.833 174.477C178.662 174.589 178.489 174.595 178.313 174.494L159.456 163.735C159.549 163.992 159.493 164.162 159.289 164.244L177.676 174.891C177.855 174.994 178.004 175.142 178.107 175.321C178.211 175.5 178.266 175.703 178.266 175.909C178.267 176.116 178.213 176.319 178.111 176.498C178.008 176.678 177.86 176.827 177.682 176.931L164.453 184.66C164.561 184.631 164.648 184.649 164.715 184.716C164.816 184.821 164.831 184.945 164.76 185.091C169.161 182.624 173.555 180.15 177.945 177.669C178.883 177.136 179.496 177.387 179.783 178.423C179.813 178.538 179.83 178.656 179.834 178.775L179.856 203.596C179.953 202.962 180.001 202.327 180.001 201.69C180.001 201.612 180.042 201.575 180.124 201.578C180.206 201.582 180.243 201.623 180.236 201.701C180.147 202.7 180.182 203.698 180.342 204.697L180.443 178.596C180.443 178.44 180.482 178.287 180.558 178.15C180.633 178.013 180.741 177.898 180.873 177.814C181.667 177.303 182.058 176.581 182.047 175.645C182.045 175.518 182.078 175.393 182.142 175.282C182.206 175.171 182.298 175.078 182.41 175.014L211.864 157.928C212.006 157.846 212.076 157.886 212.076 158.046L212.037 193.983C212.037 194.266 211.916 194.48 211.674 194.626C205.925 197.986 199.898 201.466 193.594 205.066C193.549 205.092 193.517 205.129 193.499 205.178C193.491 205.196 193.484 205.215 193.476 205.233C193.677 205.245 193.776 205.383 193.772 205.647L211.724 195.442C211.768 195.416 211.818 195.402 211.869 195.403C211.921 195.403 211.971 195.417 212.015 195.444C212.059 195.471 212.095 195.509 212.119 195.555C212.144 195.601 212.156 195.652 212.155 195.704C212.084 198.108 212.048 200.371 212.048 202.495C212.063 212.138 212.078 221.749 212.093 231.328C212.093 231.533 212.004 231.688 211.825 231.792L182.047 249.096C181.879 249.193 181.708 249.2 181.533 249.118L180.7 248.732C180.216 248.505 179.74 248.52 179.275 248.777C176.609 250.258 179.157 253.768 181.538 251.885C181.9 251.598 182.03 251.205 181.929 250.705C181.882 250.463 181.911 250.211 182.014 249.986C182.116 249.76 182.286 249.572 182.5 249.448L211.87 232.592C212.039 232.493 212.232 232.441 212.429 232.441C212.625 232.441 212.818 232.493 212.987 232.592L243.369 250.258C243.645 250.42 243.874 250.651 244.034 250.929C244.194 251.206 244.279 251.52 244.28 251.84L244.42 279.198L244.699 275.397C244.7 275.396 244.701 275.395 244.702 275.394C244.703 275.392 244.705 275.391 244.706 275.39C244.708 275.389 244.709 275.388 244.71 275.388C244.712 275.387 244.713 275.387 244.714 275.387C244.715 275.387 244.716 275.387 244.717 275.388C244.717 275.388 244.718 275.389 244.718 275.39C244.718 275.391 244.718 275.392 244.718 275.394C244.717 275.395 244.717 275.396 244.716 275.397C244.712 275.882 244.813 276.39 245.018 276.923L245.152 251.695C245.152 251.652 245.164 251.609 245.186 251.572C245.207 251.535 245.238 251.504 245.275 251.482C245.312 251.461 245.353 251.449 245.395 251.449C245.438 251.449 245.479 251.461 245.515 251.482L276.64 269.356C276.764 269.427 276.905 269.465 277.048 269.465C277.191 269.465 277.332 269.427 277.456 269.356L308.492 251.438C308.527 251.417 308.568 251.406 308.609 251.406C308.65 251.406 308.69 251.417 308.726 251.437C308.761 251.457 308.791 251.487 308.812 251.522C308.832 251.557 308.844 251.598 308.844 251.639L308.95 286.922C308.95 287.35 308.766 287.671 308.397 287.883L279.038 304.969C278.911 305.043 278.777 305.068 278.636 305.041C277.998 304.924 277.484 304.488 276.802 304.561C274.058 304.857 274.857 308.92 277.367 308.356C279.569 307.858 278.272 306.031 279.507 305.326C289.366 299.685 299.223 294.042 309.079 288.397C309.15 288.357 309.226 288.333 309.3 288.328C309.373 288.323 309.442 288.337 309.498 288.369L341.159 306.595C341.304 306.679 341.468 306.722 341.636 306.722C341.803 306.722 341.969 306.679 342.115 306.595L356.16 298.541C356.097 298.169 355.903 297.793 355.579 297.412C355.594 297.785 355.501 298.031 355.3 298.15C351.015 300.688 346.685 303.199 342.311 305.684C342.28 305.701 342.245 305.71 342.21 305.71C342.174 305.71 342.139 305.701 342.108 305.684C342.078 305.666 342.052 305.641 342.033 305.611C342.015 305.581 342.005 305.546 342.003 305.511C341.933 294.385 341.892 283.218 341.88 272.011C341.88 271.705 341.953 271.448 342.098 271.239C342.203 271.087 342.339 270.962 342.506 270.865C343.199 270.466 343.533 269.835 343.507 268.97C343.504 268.796 343.547 268.623 343.633 268.471C343.718 268.319 343.842 268.192 343.993 268.104L352.533 263.141C352.272 263.178 352.149 263.055 352.164 262.772L343.54 267.752C343.302 267.89 343.073 267.875 342.853 267.707C342.033 267.085 341.167 267.087 340.254 267.713C340.165 267.773 340.06 267.807 339.953 267.811C339.845 267.815 339.738 267.789 339.645 267.735L310.537 250.733C310.5 250.712 310.469 250.682 310.448 250.645C310.426 250.608 310.415 250.566 310.415 250.524C310.415 250.481 310.426 250.439 310.448 250.402C310.469 250.365 310.5 250.335 310.537 250.314L341.288 232.39C341.459 232.293 341.631 232.293 341.802 232.39L350.387 237.275C350.297 237.044 350.407 236.906 350.717 236.861L342.154 231.871C342.005 231.785 341.931 231.656 341.931 231.485L341.903 197.141C341.903 196.932 341.957 196.727 342.061 196.546C342.165 196.365 342.315 196.214 342.496 196.109C342.677 196.005 342.882 195.949 343.09 195.949C343.299 195.948 343.505 196.003 343.686 196.107L350.392 199.952C350.296 199.736 350.402 199.604 350.711 199.555L344.015 195.637C343.832 195.53 343.68 195.377 343.574 195.193C343.468 195.009 343.412 194.8 343.411 194.588C343.41 194.376 343.465 194.167 343.57 193.982C343.675 193.798 343.827 193.644 344.01 193.536C347.628 191.393 351.275 189.303 354.953 187.265C355.098 187.187 355.251 187.222 355.411 187.371L355.3 186.253L343.708 193.033C343.522 193.141 343.31 193.198 343.095 193.198C342.879 193.199 342.668 193.142 342.481 193.034C342.295 192.927 342.14 192.771 342.032 192.585C341.925 192.398 341.869 192.186 341.869 191.971L342.026 158.42C342.026 158.373 342.039 158.328 342.063 158.287C342.087 158.247 342.121 158.213 342.161 158.19C342.202 158.167 342.248 158.155 342.295 158.155C342.342 158.155 342.388 158.168 342.428 158.191C352.213 163.828 361.98 169.458 371.731 175.081C372.003 175.237 372.221 175.424 372.385 175.64C372.545 175.856 372.638 175.828 372.664 175.556C372.683 175.314 372.64 175.103 372.536 174.924C372.454 174.787 372.331 174.671 372.167 174.578C362.662 169.09 352.861 163.407 342.763 157.532C342.72 157.507 342.685 157.472 342.66 157.429C342.635 157.386 342.622 157.338 342.622 157.288C342.622 157.239 342.635 157.19 342.66 157.148C342.685 157.105 342.72 157.07 342.763 157.045L372.732 139.692C372.821 139.639 372.849 139.563 372.815 139.462L372.681 139.077C372.663 139.021 372.627 139.008 372.575 139.038L342.395 156.431C342.115 156.591 341.975 156.511 341.975 156.19C341.912 143.034 341.916 130.123 341.987 117.459C342.009 113.343 342.013 109.215 341.998 105.107C341.972 97.4351 341.998 90.4172 342.076 84.0533C342.077 83.987 342.095 83.9221 342.129 83.865C342.162 83.8079 342.211 83.7606 342.268 83.7278C342.326 83.6951 342.391 83.6779 342.457 83.6782C342.524 83.6784 342.589 83.6959 342.646 83.7291L372.569 101.027C372.629 101.064 372.664 101.047 372.676 100.977L372.754 100.462C372.762 100.41 372.754 100.356 372.731 100.308C372.708 100.261 372.671 100.221 372.625 100.194L342.914 83.0808C342.508 82.846 342.506 82.6113 342.909 82.3766C352.686 76.7056 362.455 71.0887 372.217 65.5258C372.575 65.319 372.681 65.006 372.782 64.6148V64.4024L372.547 63.0722C372.514 62.8822 372.413 62.7406 372.245 62.6475L342.21 45.3831C342.114 45.3286 342.033 45.2492 341.977 45.153C341.921 45.0568 341.892 44.9472 341.892 44.8354L341.953 8.09906C341.953 7.9463 341.882 7.89786 341.741 7.95375C340.794 8.30772 339.874 8.74552 338.98 9.26716C329.262 14.9679 319.487 20.6091 309.654 26.1906C309.554 26.2469 309.44 26.2764 309.325 26.2764C309.209 26.2764 309.096 26.2469 308.995 26.1906L277.194 7.96493C277.145 7.93774 277.091 7.92357 277.036 7.92383C276.98 7.92409 276.926 7.93876 276.878 7.9664C276.83 7.99404 276.79 8.0337 276.762 8.08146C276.734 8.12922 276.719 8.18345 276.719 8.23879L276.635 45.0087C276.631 45.2173 276.542 45.372 276.366 45.4726L245.566 63.0722C245.52 63.0986 245.468 63.1125 245.416 63.1127C245.363 63.1129 245.311 63.0993 245.266 63.0733C245.22 63.0473 245.182 63.0098 245.155 62.9646C245.128 62.9193 245.114 62.8678 245.113 62.8152L244.984 30.6115ZM309.856 26.811L340.768 8.92623C340.827 8.89277 340.894 8.87515 340.961 8.87514C341.029 8.87512 341.095 8.89272 341.154 8.92615C341.212 8.95958 341.26 9.00767 341.294 9.06557C341.327 9.12347 341.344 9.18914 341.344 9.25598L341.294 44.8242C341.293 44.9451 341.262 45.0635 341.202 45.1676C341.142 45.2716 341.056 45.3575 340.953 45.4167L311.186 62.6363C310.981 62.7518 310.783 62.7406 310.593 62.6028C309.755 61.9805 308.913 61.9694 308.067 62.5692C307.862 62.7145 307.65 62.7239 307.43 62.5972L277.747 45.4837C277.633 45.4181 277.536 45.3261 277.464 45.2154C277.392 45.1046 277.347 44.9783 277.333 44.8466C277.277 44.3622 277.249 43.8014 277.249 43.1643C277.238 31.7069 277.235 20.2644 277.238 8.83681C277.238 8.80799 277.246 8.77966 277.26 8.75471C277.274 8.72976 277.295 8.70911 277.32 8.69487C277.345 8.68064 277.374 8.67334 277.403 8.67373C277.431 8.67412 277.46 8.68218 277.484 8.69708L308.609 26.811C308.798 26.9212 309.013 26.9792 309.232 26.9792C309.451 26.9792 309.666 26.9212 309.856 26.811ZM371.837 63.3237C371.97 63.4003 372.079 63.5104 372.156 63.6428C372.232 63.7752 372.272 63.9254 372.272 64.0783C372.272 64.2311 372.232 64.3813 372.156 64.5137C372.079 64.6461 371.97 64.7562 371.837 64.8328L342.048 82.0524C341.916 82.1289 341.765 82.1692 341.612 82.1692C341.459 82.1692 341.309 82.1289 341.176 82.0524L311.292 64.8048C311.16 64.7282 311.05 64.6182 310.973 64.4858C310.897 64.3533 310.857 64.2032 310.857 64.0503C310.857 63.8975 310.897 63.7473 310.973 63.6149C311.05 63.4824 311.16 63.3724 311.292 63.2958L341.126 46.065C341.258 45.9885 341.409 45.9482 341.562 45.9482C341.715 45.9482 341.865 45.9885 341.998 46.065L371.837 63.3237ZM245.716 63.9777L276.523 46.037C276.659 45.9573 276.814 45.9153 276.973 45.9153C277.132 45.9153 277.289 45.9573 277.428 46.037L306.899 63.0946C307.072 63.194 307.216 63.3373 307.316 63.51C307.416 63.6827 307.468 63.8787 307.468 64.0783C307.468 64.2778 307.416 64.4738 307.316 64.6465C307.216 64.8192 307.072 64.9625 306.899 65.0619L245.661 100.418C245.598 100.454 245.526 100.473 245.454 100.473C245.381 100.473 245.31 100.454 245.247 100.418C245.184 100.382 245.132 100.33 245.096 100.267C245.059 100.204 245.04 100.133 245.04 100.06L245.18 64.9054C245.182 64.7177 245.232 64.5336 245.326 64.371C245.42 64.2085 245.555 64.073 245.716 63.9777ZM213.585 82.3263L243.922 65.0452C243.955 65.0257 243.992 65.0155 244.03 65.0154C244.068 65.0152 244.106 65.0253 244.139 65.0445C244.173 65.0637 244.2 65.0914 244.22 65.1248C244.24 65.1583 244.251 65.1963 244.252 65.2352L244.314 100.161C244.313 100.457 244.235 100.748 244.087 101.005C243.939 101.262 243.726 101.476 243.47 101.625L214.558 118.431C214.368 118.541 214.152 118.6 213.933 118.6C213.713 118.6 213.497 118.542 213.307 118.432C213.117 118.322 212.96 118.163 212.851 117.973C212.741 117.782 212.684 117.566 212.686 117.347L212.714 83.8185C212.715 83.5143 212.797 83.2162 212.95 82.9542C213.103 82.6922 213.322 82.4756 213.585 82.3263ZM312.969 98.9479C311.594 99.749 310.707 100.241 310.308 100.423C309.589 100.762 308.883 100.731 308.19 100.328C297.772 94.2997 287.816 88.571 278.323 83.1423C277.842 82.8665 277.842 82.5889 278.323 82.3095L307.363 65.6096C307.594 65.4755 307.83 65.4699 308.073 65.5929L309.04 66.0903C309.146 66.1465 309.266 66.173 309.387 66.1671C309.508 66.1612 309.625 66.1231 309.727 66.0568L310.599 65.4923C310.77 65.3842 310.944 65.3805 311.119 65.4811C320.769 71.1409 330.496 76.769 340.299 82.3654C340.433 82.4399 340.519 82.5536 340.556 82.7063C340.582 82.8144 340.546 82.8982 340.45 82.9578C331.235 88.3232 322.075 93.6533 312.969 98.9479ZM308.721 101.558C308.862 101.641 309.022 101.685 309.186 101.686C309.35 101.687 309.512 101.645 309.654 101.564L340.841 83.5726C341.087 83.431 341.21 83.5018 341.21 83.785C341.277 95.1269 341.301 106.448 341.282 117.749C341.279 118.39 341.234 119.014 341.148 119.622C341.122 119.819 341.023 119.966 340.852 120.063L311.253 137.16C311.148 137.221 311.029 137.252 310.908 137.25C310.786 137.248 310.668 137.213 310.565 137.149C309.686 136.612 308.823 136.616 307.978 137.16C307.784 137.283 307.588 137.286 307.391 137.171L277.618 120.091C277.417 119.975 277.315 119.802 277.311 119.571C277.203 108.732 277.201 97.3308 277.305 85.3667C277.309 84.8637 277.354 84.3662 277.439 83.8744C277.448 83.8234 277.468 83.7752 277.5 83.734C277.531 83.6927 277.571 83.6597 277.618 83.6377C277.665 83.6157 277.716 83.6054 277.768 83.6077C277.82 83.61 277.87 83.6248 277.915 83.6509C288.209 89.5044 298.478 95.4734 308.721 101.558ZM245.811 101.53C245.773 101.509 245.741 101.478 245.719 101.44C245.696 101.402 245.685 101.359 245.685 101.315C245.685 101.271 245.696 101.228 245.719 101.19C245.741 101.152 245.773 101.121 245.811 101.1L276.26 83.5223C276.298 83.5008 276.34 83.4894 276.383 83.4894C276.426 83.4893 276.469 83.5006 276.506 83.5222C276.543 83.5437 276.574 83.5746 276.596 83.6119C276.618 83.6492 276.629 83.6916 276.629 83.7347L276.814 119.214C276.813 119.257 276.802 119.299 276.78 119.336C276.759 119.374 276.728 119.405 276.69 119.426C276.653 119.448 276.611 119.459 276.567 119.459C276.524 119.459 276.482 119.447 276.445 119.426L245.811 101.53ZM276.277 156.57L214.765 121.013C214.585 120.909 214.436 120.759 214.333 120.578C214.23 120.398 214.175 120.194 214.176 119.986C214.177 119.778 214.232 119.574 214.336 119.394C214.44 119.215 214.59 119.066 214.77 118.962L244.42 101.977C244.606 101.869 244.794 101.869 244.984 101.977L276.517 120.007C276.594 120.051 276.657 120.115 276.701 120.191C276.746 120.268 276.769 120.355 276.769 120.443C276.679 132.191 276.664 143.459 276.724 154.245C276.728 154.901 276.765 155.555 276.836 156.207C276.892 156.695 276.705 156.816 276.277 156.57ZM281.609 123.003C290.056 127.862 298.445 132.724 306.776 137.59C307.376 137.944 307.575 138.466 307.374 139.155C307.326 139.33 307.223 139.462 307.067 139.552L277.786 156.531C277.555 156.665 277.417 156.6 277.372 156.335C277.298 155.888 277.261 155.458 277.261 155.044C277.205 143.975 277.203 132.571 277.255 120.834C277.259 120.54 277.385 120.471 277.635 120.628C278.831 121.373 280.156 122.164 281.609 123.003ZM340.74 120.879C340.798 120.846 340.864 120.828 340.93 120.828C340.997 120.828 341.063 120.846 341.121 120.879C341.178 120.913 341.226 120.961 341.26 121.019C341.293 121.076 341.31 121.142 341.31 121.209L341.249 156.028C341.248 156.094 341.23 156.159 341.196 156.216C341.162 156.273 341.114 156.321 341.057 156.354C340.999 156.386 340.934 156.403 340.868 156.403C340.801 156.403 340.736 156.385 340.679 156.352L311.342 139.429C311.281 139.394 311.231 139.342 311.197 139.28C311.164 139.218 311.148 139.147 311.152 139.077L311.219 138.087C311.224 138.025 311.244 137.966 311.277 137.913C311.31 137.86 311.355 137.817 311.409 137.786L340.74 120.879ZM212.948 156.66C212.921 156.675 212.89 156.684 212.858 156.684C212.827 156.684 212.796 156.675 212.769 156.659C212.742 156.643 212.719 156.621 212.703 156.593C212.688 156.566 212.68 156.535 212.68 156.503L212.719 122.008C212.719 121.972 212.729 121.937 212.749 121.907C212.769 121.877 212.798 121.854 212.831 121.84L214.021 121.36C214.047 121.35 214.074 121.345 214.101 121.347C214.128 121.349 214.154 121.357 214.178 121.371L243.732 138.473C243.76 138.489 243.784 138.511 243.8 138.539C243.816 138.566 243.825 138.598 243.825 138.63C243.825 138.662 243.816 138.693 243.8 138.72C243.784 138.748 243.76 138.771 243.732 138.786L212.948 156.66ZM276.685 157.336C276.681 157.317 276.689 157.302 276.707 157.291C276.875 157.194 276.916 157.233 276.83 157.409C276.808 157.45 276.784 157.489 276.758 157.526C276.724 157.567 276.707 157.615 276.707 157.671C276.659 169.14 276.64 180.672 276.651 192.267C276.651 192.487 276.558 192.653 276.372 192.764L275.472 193.323C275.245 193.465 275.129 193.67 275.126 193.938L275.114 194.944C275.111 195.205 274.995 195.401 274.768 195.531C265.807 200.695 256.635 205.988 247.253 211.409C246.564 211.808 245.88 212.16 245.202 212.466C245.027 212.548 244.845 212.568 244.655 212.527C244.129 212.419 243.621 212.222 243.129 211.935C233.639 206.402 223.634 200.647 213.116 194.67C212.956 194.577 212.857 194.437 212.82 194.251C212.697 193.625 212.641 192.994 212.652 192.356C212.842 181.633 212.836 170.174 212.635 157.979C212.634 157.833 212.671 157.69 212.742 157.564C212.814 157.438 212.918 157.334 213.043 157.263L244.28 139.306C244.404 139.233 244.545 139.194 244.689 139.193C244.834 139.192 244.976 139.229 245.102 139.3C255.713 145.303 266.202 151.339 276.568 157.409C276.653 157.457 276.692 157.433 276.685 157.336ZM309.654 190.501C309.625 185.769 309.626 181.108 309.66 176.517C309.662 176.29 309.603 176.066 309.49 175.869C309.377 175.671 309.214 175.508 309.017 175.394L277.915 157.498C277.877 157.477 277.846 157.447 277.825 157.41C277.803 157.373 277.792 157.331 277.792 157.288C277.792 157.246 277.803 157.204 277.825 157.167C277.846 157.13 277.877 157.1 277.915 157.079L307.396 140.122C307.616 139.995 307.832 140.003 308.045 140.144C308.876 140.707 309.714 140.712 310.56 140.161C310.65 140.101 310.756 140.067 310.866 140.064C310.976 140.061 311.084 140.089 311.18 140.144L340.936 157.342C341.137 157.457 341.238 157.63 341.238 157.861C341.279 168.961 341.31 180.04 341.333 191.099C341.333 191.509 341.301 191.93 341.238 192.362C341.208 192.552 341.105 192.686 340.93 192.764C340.029 193.178 339.611 193.912 339.678 194.967C339.693 195.22 339.591 195.41 339.371 195.537L310.308 212.253C310.018 212.421 309.818 212.346 309.71 212.03C309.602 211.717 309.55 211.37 309.554 210.99C309.658 203.825 309.692 196.995 309.654 190.501ZM277.395 192.737C277.356 192.722 277.322 192.696 277.298 192.662C277.275 192.628 277.261 192.588 277.261 192.546L277.227 158.107C277.227 158.071 277.236 158.034 277.255 158.003C277.273 157.971 277.299 157.944 277.331 157.926C277.363 157.908 277.399 157.899 277.436 157.899C277.473 157.899 277.509 157.91 277.54 157.928L308.296 175.763C308.328 175.781 308.354 175.807 308.372 175.838C308.39 175.87 308.399 175.905 308.399 175.942C308.399 175.978 308.39 176.013 308.372 176.045C308.354 176.076 308.328 176.102 308.296 176.12L278.842 193.212C278.816 193.228 278.786 193.237 278.755 193.24C278.724 193.243 278.693 193.239 278.663 193.228L277.395 192.737ZM308.978 177.031L308.833 249.135C308.832 249.196 308.816 249.256 308.785 249.309C308.754 249.362 308.709 249.405 308.656 249.436C308.602 249.466 308.541 249.482 308.479 249.482C308.417 249.483 308.356 249.467 308.302 249.437L277.814 231.993C277.648 231.898 277.509 231.761 277.413 231.596C277.317 231.431 277.266 231.245 277.266 231.055C277.218 219.586 277.227 208.279 277.294 197.135C277.3 196.492 277.797 196.168 278.362 196.034C278.47 196.006 278.567 195.946 278.639 195.862C278.711 195.777 278.754 195.674 278.764 195.565L278.876 194.374C278.913 193.979 279.105 193.683 279.452 193.485L308.525 176.769C308.571 176.742 308.624 176.728 308.677 176.728C308.73 176.728 308.782 176.742 308.828 176.769C308.874 176.796 308.912 176.834 308.938 176.88C308.965 176.926 308.978 176.978 308.978 177.031ZM212.87 231.792C212.833 231.772 212.802 231.742 212.781 231.705C212.759 231.669 212.748 231.628 212.747 231.585L212.686 195.576C212.685 195.533 212.695 195.49 212.716 195.453C212.737 195.415 212.767 195.384 212.805 195.362C212.842 195.341 212.884 195.329 212.927 195.329C212.97 195.33 213.012 195.341 213.049 195.363L244.185 213.354C244.222 213.375 244.253 213.405 244.274 213.441C244.296 213.477 244.308 213.519 244.308 213.561L244.252 249.336C244.252 249.378 244.24 249.419 244.219 249.455C244.198 249.49 244.168 249.52 244.132 249.541C244.096 249.562 244.055 249.573 244.013 249.574C243.972 249.574 243.931 249.563 243.894 249.543L212.87 231.792ZM341.042 231.876L310.387 249.403C310.322 249.44 310.249 249.46 310.174 249.46C310.099 249.46 310.026 249.44 309.961 249.403C309.897 249.366 309.843 249.312 309.806 249.247C309.769 249.182 309.749 249.109 309.749 249.034L309.71 213.785C309.71 213.671 309.741 213.559 309.799 213.459C309.857 213.36 309.94 213.278 310.04 213.22C319.601 207.683 329.41 201.99 339.466 196.14C340.282 195.665 341.221 196.207 341.299 197.135C341.336 197.586 341.355 198.037 341.355 198.488C341.329 209.476 341.318 220.445 341.321 231.395C341.321 231.608 341.228 231.768 341.042 231.876ZM246.158 212.734C255.765 207.234 265.283 201.506 274.964 196.135C275.132 196.042 275.322 195.994 275.515 195.997C275.708 195.999 275.897 196.052 276.063 196.149C276.229 196.247 276.367 196.386 276.463 196.553C276.56 196.72 276.611 196.909 276.612 197.102L276.791 230.82C276.792 230.884 276.776 230.948 276.744 231.004C276.712 231.06 276.666 231.107 276.611 231.139C276.555 231.172 276.491 231.189 276.427 231.189C276.362 231.189 276.299 231.171 276.243 231.138L245.873 213.516C245.839 213.496 245.81 213.47 245.786 213.439C245.763 213.408 245.746 213.373 245.736 213.336C245.726 213.298 245.724 213.259 245.729 213.221C245.734 213.183 245.747 213.147 245.767 213.114C245.867 212.954 245.998 212.827 246.158 212.734ZM245.342 250.392C245.289 250.362 245.245 250.318 245.215 250.265C245.184 250.212 245.168 250.152 245.169 250.091L245.046 214.383C245.045 214.322 245.061 214.262 245.092 214.209C245.122 214.156 245.166 214.112 245.218 214.081C245.271 214.051 245.331 214.034 245.392 214.034C245.453 214.034 245.513 214.05 245.566 214.081L307.961 250.219C308.014 250.249 308.059 250.293 308.09 250.346C308.121 250.399 308.137 250.46 308.137 250.521C308.137 250.582 308.121 250.643 308.09 250.696C308.059 250.749 308.014 250.793 307.961 250.823L277.143 268.674C277.091 268.704 277.031 268.72 276.97 268.72C276.909 268.72 276.849 268.704 276.797 268.674L245.342 250.392ZM340.377 270.652C340.589 270.787 340.804 270.923 341.02 271.06C341.221 271.187 341.321 271.37 341.321 271.608C341.351 282.92 341.336 294.156 341.277 305.315C341.277 305.374 341.261 305.432 341.232 305.483C341.203 305.534 341.16 305.576 341.109 305.606C341.058 305.635 341 305.651 340.942 305.651C340.883 305.651 340.825 305.635 340.774 305.606L310.046 287.816C309.925 287.746 309.825 287.646 309.755 287.524C309.686 287.402 309.649 287.264 309.649 287.123L309.755 251.89C309.755 251.829 309.77 251.769 309.801 251.716C309.831 251.663 309.875 251.619 309.927 251.589C309.98 251.558 310.04 251.542 310.101 251.542C310.162 251.542 310.222 251.558 310.275 251.588L339.332 268.199C339.537 268.314 339.643 268.491 339.65 268.73C339.662 269.225 339.758 269.695 339.941 270.138C340.03 270.358 340.176 270.529 340.377 270.652Z" fill="#0D0D0C"/>
<path d="M244.381 34.5969C244.537 35.0775 244.636 35.5973 244.677 36.1562C244.699 36.4543 244.724 36.4543 244.75 36.1562C244.757 36.1077 244.785 36.0705 244.834 36.0444C244.864 36.0275 244.889 36.0031 244.907 35.9736C244.925 35.9441 244.934 35.9107 244.934 35.8767L244.984 30.6119C244.869 30.053 244.897 29.5165 245.068 29.0023C245.128 28.816 245.245 28.6763 245.42 28.5831C246.397 28.0503 246.773 27.2921 246.549 26.3084C246.024 23.989 242.341 24.6373 242.827 27.1747C242.978 27.9516 243.593 28.2981 244.152 28.7731C244.301 28.8998 244.375 29.0601 244.375 29.2538L244.381 34.5969Z" fill="#0D0D0C"/>
<path d="M97.5246 127.921C97.3085 128.007 97.1669 128.167 97.0998 128.402L113.453 137.926C113.625 138.026 113.72 138.175 113.738 138.373C113.802 139.006 113.487 139.522 112.794 139.921C105.498 144.113 98.212 148.316 90.9352 152.53C90.7191 152.675 90.8662 152.789 91.3767 152.871L113.481 140.128C113.686 140.01 113.927 139.966 114.162 140.005C114.397 140.044 114.612 140.162 114.772 140.34C115.292 140.921 115.169 141.508 115.169 142.24C115.176 152.904 115.214 163.735 115.281 174.735C115.282 175.052 115.199 175.365 115.04 175.64C114.881 175.916 114.652 176.146 114.375 176.305L84.547 193.491C84.4166 193.804 84.4203 193.998 84.5582 194.072C84.5768 194.072 84.5954 194.072 84.6141 194.072C84.655 194.076 84.6923 194.069 84.7258 194.05C94.7226 188.23 104.725 182.423 114.733 176.629C114.938 176.51 115.098 176.514 115.214 176.64C115.246 176.676 115.264 176.722 115.264 176.769V212.639C115.264 213.116 115.469 213.474 115.879 213.712L147.496 232.005C147.693 232.12 147.892 232.12 148.094 232.005L193.772 205.647C193.776 205.383 193.677 205.245 193.476 205.234L180.705 212.65C180.43 212.81 180.292 212.732 180.292 212.415L180.342 204.697C180.182 203.699 180.146 202.7 180.236 201.701C180.243 201.623 180.206 201.582 180.124 201.578C180.042 201.575 180.001 201.612 180.001 201.69C180.001 202.327 179.953 202.963 179.856 203.596L179.867 212.812C179.867 212.897 179.845 212.981 179.802 213.055C179.758 213.13 179.696 213.193 179.621 213.237L148.077 231.457C147.898 231.561 147.719 231.561 147.54 231.457L116.259 213.422C116.092 213.326 115.954 213.189 115.858 213.024C115.762 212.859 115.711 212.673 115.711 212.483L115.728 176.769C115.729 176.729 115.74 176.691 115.76 176.657C115.78 176.623 115.809 176.594 115.843 176.575C115.877 176.555 115.916 176.544 115.956 176.544C115.995 176.544 116.034 176.554 116.069 176.573L147.25 194.559C147.443 194.67 147.54 194.836 147.54 195.056L147.552 231.016C147.552 231.157 147.619 231.209 147.753 231.172L147.943 231.116C148.025 231.094 148.066 231.04 148.066 230.954V194.967C148.066 194.87 148.091 194.776 148.14 194.693C148.188 194.611 148.257 194.543 148.34 194.497L164.76 185.091C164.831 184.946 164.816 184.821 164.715 184.717C164.648 184.649 164.561 184.631 164.453 184.661L148.602 193.843C148.356 193.986 148.076 194.061 147.792 194.061C147.507 194.061 147.228 193.986 146.981 193.843L116.566 176.277C116.5 176.238 116.449 176.179 116.42 176.109C116.391 176.038 116.385 175.96 116.404 175.886C116.441 175.744 116.522 175.636 116.644 175.562C126.06 170.107 136.241 164.231 147.188 157.934C147.373 157.827 147.584 157.772 147.799 157.773C148.014 157.773 148.225 157.831 148.412 157.94L159.288 164.244C159.493 164.162 159.549 163.993 159.456 163.736C156.043 161.791 152.634 159.836 149.228 157.873C149.042 157.765 148.878 157.636 148.736 157.487C148.531 157.271 148.327 157.256 148.122 157.442C148.051 157.502 147.969 157.535 147.876 157.543C147.779 157.55 147.697 157.517 147.63 157.442C147.537 157.342 147.557 157.273 147.691 157.236C147.833 157.195 147.974 157.183 148.116 157.202C148.287 157.224 148.449 157.191 148.602 157.101L180.253 138.837L180.208 135.215C180.209 135.209 180.207 135.203 180.203 135.198C180.2 135.194 180.194 135.191 180.188 135.19C180.182 135.189 180.176 135.191 180.172 135.194C180.167 135.198 180.164 135.203 180.163 135.209L179.906 136.758C179.962 137.335 179.919 137.873 179.778 138.373C179.737 138.522 179.647 138.635 179.509 138.714L148.39 156.665C148.354 156.686 148.314 156.697 148.273 156.697C148.232 156.697 148.192 156.686 148.156 156.666C148.12 156.646 148.091 156.616 148.07 156.581C148.049 156.545 148.038 156.505 148.038 156.464L148.071 120.382C148.071 120.151 148.172 119.978 148.373 119.862L167.135 109.103C167.236 108.88 167.124 108.762 166.8 108.751L148.574 119.309C148.228 119.51 148.055 119.409 148.055 119.007L148.077 83.8299C148.077 83.1517 148.371 82.645 148.96 82.3097L178.134 65.5148C178.261 65.4421 178.407 65.4096 178.554 65.4216C178.7 65.4335 178.84 65.4894 178.956 65.5819C179.604 66.0998 180.29 66.1668 181.013 65.7831C183.483 64.4585 180.951 60.4735 178.464 62.9662C178.289 63.1413 178.215 63.3537 178.241 63.6034C178.278 63.9685 178.241 64.3281 178.129 64.682C178.08 64.8497 177.98 64.9783 177.827 65.0677L148.032 82.3153C147.876 82.4084 147.717 82.4084 147.557 82.3153L117.695 65.0789C117.579 65.0103 117.482 64.9128 117.413 64.7954C117.345 64.6781 117.307 64.5448 117.304 64.4082L117.282 63.3686C117.278 63.1823 117.209 63.024 117.075 62.8936C115.465 61.3734 112.687 62.6812 113.822 64.9727C114.094 65.5204 114.61 65.8669 115.37 66.0122C115.624 66.0607 115.862 66.0197 116.086 65.8893L116.885 65.431C117.045 65.3378 117.205 65.3378 117.365 65.431L146.562 82.2761C146.7 82.3544 146.806 82.4643 146.881 82.6059C146.996 82.8257 147.162 82.9599 147.378 83.0083C147.721 83.094 147.715 83.1424 147.362 83.1536C147.209 83.1611 147.058 83.1499 146.909 83.1201C146.771 83.0948 146.629 83.1185 146.506 83.1871L115.722 100.971C115.525 101.087 115.413 101.258 115.387 101.485C114.99 104.962 115.331 108.399 115.275 111.842C115.141 119.73 115.134 127.789 115.253 136.02C115.255 136.239 115.2 136.455 115.092 136.645C114.984 136.836 114.828 136.995 114.64 137.106C114.451 137.216 114.237 137.275 114.019 137.276C113.8 137.276 113.586 137.219 113.397 137.11L97.5246 127.921ZM147.071 156.632L117.662 139.608C117.419 139.466 117.315 139.258 117.349 138.982C117.468 137.987 117.066 137.266 116.141 136.819C116.024 136.762 115.925 136.674 115.856 136.564C115.787 136.455 115.75 136.328 115.75 136.199L115.739 102.123C115.739 101.93 115.789 101.742 115.885 101.575C115.98 101.408 116.116 101.27 116.281 101.172L146.954 83.4778C147.013 83.4433 147.081 83.4253 147.15 83.4254C147.219 83.4254 147.286 83.4437 147.346 83.4783C147.405 83.5129 147.455 83.5626 147.489 83.6223C147.523 83.6821 147.541 83.7498 147.54 83.8187L147.546 156.364C147.546 156.418 147.531 156.472 147.504 156.519C147.476 156.567 147.436 156.606 147.388 156.633C147.34 156.66 147.285 156.674 147.23 156.674C147.174 156.674 147.119 156.659 147.071 156.632ZM115.75 175.232L115.773 141.285C115.774 141.065 115.832 140.849 115.943 140.659C116.054 140.469 116.212 140.311 116.403 140.201C116.593 140.091 116.809 140.034 117.029 140.033C117.249 140.033 117.465 140.091 117.656 140.2L147.222 157.219C147.3 157.263 147.3 157.308 147.222 157.353C137.076 163.225 127.223 168.905 117.662 174.394C117.133 174.699 116.63 175.042 116.153 175.422C115.884 175.642 115.75 175.579 115.75 175.232Z" fill="#0D0D0C"/>
<path d="M84.558 194.073C84.4201 193.998 84.4164 193.804 84.5468 193.491C84.3084 193.637 84.0848 193.719 83.8761 193.737C83.6749 193.752 83.5725 193.659 83.5688 193.458C83.524 190.719 83.5054 188.035 83.5128 185.404C83.5389 176.328 83.5371 168.317 83.5072 161.371C83.5035 160.421 83.5296 159.372 83.5855 158.225C83.6079 157.692 83.85 157.29 84.3121 157.018L91.3765 152.871C90.8661 152.789 90.7189 152.675 90.935 152.53L83.8705 156.559C83.8346 156.579 83.7941 156.589 83.7531 156.589C83.7121 156.588 83.6721 156.577 83.6371 156.557C83.602 156.537 83.5731 156.507 83.5533 156.473C83.5334 156.438 83.5234 156.398 83.524 156.358V121.539C83.524 120.905 83.7997 120.747 84.3512 121.064L97.0996 128.402C97.1667 128.167 97.3083 128.007 97.5244 127.921L53.092 102.318C52.9057 102.21 52.807 102.048 52.7958 101.832L52.7455 100.709C52.7343 100.496 52.6524 100.316 52.4996 100.167C52.0078 99.6971 51.175 99.1885 50.4708 99.4288C49.6399 99.7194 49.1425 100.271 48.9786 101.083C48.6097 102.911 50.7111 103.755 52.0637 102.877C52.1927 102.793 52.3425 102.747 52.4964 102.743C52.6504 102.739 52.8023 102.778 52.9355 102.855C62.3995 108.377 72.0089 113.936 81.7635 119.532C81.879 119.599 81.9815 119.681 82.0709 119.778C82.2497 119.979 82.2237 120.149 81.9927 120.287L51.1806 138.127C50.8229 138.336 50.6422 138.647 50.6385 139.06L50.5155 174.628C50.5118 175.061 50.3218 175.169 49.9454 174.953L20.7989 158.242C20.6913 158.18 20.603 158.089 20.5438 157.981C20.4846 157.872 20.4568 157.75 20.4636 157.627C20.5269 156.505 20.0183 155.723 18.9378 155.279C18.7739 155.212 18.6099 155.211 18.446 155.274C17.8759 155.49 17.3691 155.805 16.9258 156.218C16.7581 156.375 16.6705 156.567 16.6631 156.794C16.6184 158.094 17.1996 158.936 18.4068 159.32C18.6155 159.387 18.8148 159.363 19.0049 159.248L19.8767 158.722C20.0668 158.61 20.2586 158.61 20.4524 158.722L49.4592 175.551C49.5231 175.587 49.5761 175.64 49.6129 175.704C49.6498 175.768 49.6693 175.84 49.6693 175.914C49.6693 175.988 49.6498 176.06 49.6129 176.124C49.5761 176.188 49.5231 176.24 49.4592 176.277L19.5917 193.737C19.4315 193.83 19.262 193.896 19.0831 193.933C18.7627 194.004 18.5447 194.173 18.4292 194.441C18.3472 194.635 18.3975 194.784 18.5801 194.889L50.6832 213.528C50.8509 213.621 51.0148 213.617 51.175 213.517C52.9709 212.373 54.7073 211.324 56.384 210.37C64.9724 205.5 73.4657 200.617 81.8641 195.721C82.0988 195.587 82.3466 195.481 82.6074 195.403C82.6356 195.394 82.6654 195.392 82.6946 195.397C82.7237 195.402 82.7512 195.413 82.7751 195.431C82.799 195.448 82.8185 195.471 82.8321 195.497C82.8456 195.523 82.8529 195.552 82.8533 195.582L82.9651 229.423C82.9651 229.639 82.8757 229.808 82.6968 229.931L81.6797 230.624C81.5179 230.736 81.4041 230.906 81.3611 231.1C80.6625 234.179 84.7368 234.671 85.0833 232.284C85.2361 231.241 84.8579 230.522 83.9488 230.127C83.8124 230.067 83.6964 229.969 83.615 229.845C83.5336 229.721 83.4903 229.576 83.4905 229.428L83.5408 195.034C83.5408 194.855 83.6209 194.725 83.7811 194.643C84.1053 194.475 84.3642 194.285 84.558 194.073ZM51.1024 139.049C51.1026 139.005 51.1146 138.961 51.1372 138.923C51.1598 138.884 51.1921 138.853 51.2309 138.831L82.4845 120.84C82.5227 120.819 82.5657 120.808 82.6095 120.808C82.6532 120.808 82.6961 120.82 82.734 120.842C82.7718 120.864 82.8032 120.896 82.8251 120.934C82.847 120.971 82.8587 121.014 82.8589 121.058L82.8813 193.592C82.8816 193.636 82.8701 193.68 82.8479 193.719C82.8257 193.758 82.7936 193.79 82.7549 193.812C82.7163 193.834 82.6724 193.846 82.6278 193.845C82.5832 193.845 82.5396 193.833 82.5012 193.81L51.4433 175.825C51.4055 175.802 51.3744 175.77 51.3528 175.732C51.3312 175.694 51.32 175.65 51.3203 175.607L51.1024 139.049ZM51.0688 212.807C51.0413 212.824 51.0098 212.833 50.9774 212.834C50.945 212.835 50.9129 212.828 50.8844 212.812L19.3234 194.766C19.2943 194.75 19.2699 194.726 19.2529 194.698C19.236 194.669 19.227 194.637 19.227 194.603C19.227 194.57 19.236 194.538 19.2529 194.509C19.2699 194.481 19.2943 194.457 19.3234 194.441L50.8453 176.456C50.8726 176.441 50.9034 176.433 50.9347 176.433C50.966 176.433 50.9967 176.441 51.0241 176.456L82.2274 194.413C82.2552 194.43 82.2783 194.453 82.2943 194.481C82.3104 194.509 82.3188 194.541 82.3188 194.573C82.3188 194.605 82.3104 194.637 82.2943 194.665C82.2783 194.693 82.2552 194.716 82.2274 194.732L51.0688 212.807Z" fill="#0D0D0C"/>
<path d="M280.727 196.862C280.357 196.633 280.073 196.42 280.094 196.386C280.116 196.352 280.433 196.51 280.803 196.738C281.173 196.967 281.457 197.18 281.435 197.214C281.414 197.248 281.097 197.091 280.727 196.862Z" fill="#0D0D0C"/>
<path d="M244.42 279.198L244.408 285.463C244.408 285.657 244.326 285.806 244.163 285.91C243.861 286.104 243.57 286.328 243.291 286.581C242.525 287.269 242.659 288.744 243.453 289.253C245.845 290.784 247.862 287.693 245.783 286.262C245.586 286.125 245.398 285.974 245.219 285.81C245.154 285.748 245.101 285.673 245.066 285.589C245.03 285.506 245.012 285.415 245.012 285.324L245.018 276.923C244.813 276.39 244.712 275.882 244.716 275.398C244.717 275.396 244.717 275.395 244.718 275.394C244.718 275.392 244.718 275.39 244.718 275.39L244.716 275.388L244.714 275.387C244.714 275.387 244.711 275.387 244.71 275.388C244.709 275.389 244.707 275.389 244.706 275.39C244.705 275.391 244.703 275.392 244.702 275.394C244.701 275.395 244.7 275.396 244.699 275.398L244.42 279.198Z" fill="#0D0D0C"/>
</g>
</g>
</g>
<defs>
<clipPath id="clip0_564_3631">
<rect width="616" height="316" fill="white"/>
</clipPath>
<clipPath id="clip1_564_3631">
<rect width="397.904" height="363" fill="white" transform="translate(308.404 -23)"/>
</clipPath>
<clipPath id="clip2_564_3631">
<rect width="636.026" height="316.336" fill="white" transform="translate(244.026 0.269043)"/>
</clipPath>
<clipPath id="clip3_564_3631">
<rect width="397.904" height="363" fill="white" transform="matrix(-1 0 0 1 308.404 -23)"/>
</clipPath>
<clipPath id="clip4_564_3631">
<rect width="636.026" height="316.336" fill="white" transform="matrix(-1 0 0 1 372.782 0.269043)"/>
</clipPath>
</defs>
</svg>
