<svg width="615" height="334" viewBox="0 0 615 334" fill="none" xmlns="http://www.w3.org/2000/svg">
<g clip-path="url(#clip0_564_3244)">
<path d="M614.95 276.106V277.732C590.705 277.661 566.46 277.682 542.215 277.797C537.093 277.82 532.351 278.152 527.987 278.79C516.325 280.487 504.215 283.397 494.239 289.6C490.442 291.961 487.375 294.932 485.037 298.512C485.014 298.555 485.021 298.59 485.061 298.618C485.293 298.784 485.534 298.799 485.782 298.665C485.996 298.549 486.178 298.383 486.315 298.18C489.303 293.635 492.965 290.637 497.302 289.186C501.319 287.842 505.616 287.396 510.193 287.85C511.689 287.997 512.878 287.773 514.279 287.4C518.164 286.377 520.731 289.316 523.356 291.516C524.912 292.817 527.017 293.692 528.951 294.289C531.012 294.924 533.064 295.628 535.107 296.401C538.856 297.82 540.866 300.262 539.364 304.401C536.904 311.172 532.298 318.612 527.354 323.49C523.033 327.756 517.749 330.6 511.5 332.023C505.579 333.375 499.693 333.809 493.842 333.324C483.476 332.473 479.431 325.856 479.402 316.092C479.398 315.793 479.268 315.718 479.011 315.868C476.784 317.153 474.3 318.133 471.56 318.807C468.586 319.534 465.907 320.669 463.193 322.272C461.805 323.092 460.11 323.668 458.107 323.999C454.447 324.602 450.863 325.199 447.232 325.453C432.236 326.506 417.77 327.145 403.834 327.369C386.034 327.653 368.028 328.097 350.027 328.162C333.595 328.225 317.087 328.292 300.502 328.363C246.804 328.599 196.786 328.455 150.448 327.931C140.828 327.825 131.318 327.639 121.915 327.375C118.184 327.269 110.65 327.6 112.241 321.367C112.256 321.304 112.259 321.239 112.248 321.175C112.237 321.111 112.213 321.049 112.178 320.995C112.142 320.941 112.096 320.894 112.042 320.859C111.987 320.823 111.926 320.799 111.862 320.788C111.255 320.685 110.674 320.526 110.118 320.309C108.267 319.575 109.249 316.282 109.733 314.992C114.2 303.248 119.136 291.494 124.541 279.73C125.274 278.14 126.321 276.206 127.657 275.1C130.85 272.469 138.562 274.651 142.234 275.544C144.095 275.993 146.127 276.206 148.331 276.182C170.542 275.952 193.131 275.922 214.461 276.011C283.814 276.287 353.995 276.551 425.004 276.803C425.118 276.803 425.181 276.748 425.193 276.638L425.205 276.478C425.209 276.454 425.199 276.441 425.175 276.437C422.68 275.968 420.269 275.293 417.943 274.414C413.13 272.597 408.302 270.462 403.461 268.01C394.902 263.673 386.271 259.388 377.566 255.154C371.893 252.395 366.24 249.877 360.606 247.603C360.536 247.575 360.458 247.572 360.385 247.592C360.312 247.612 360.246 247.655 360.198 247.715C355.467 253.812 347.336 256.922 339.903 259.057C330.241 261.836 320.201 263.431 309.786 263.841C295.538 264.401 280.843 263.352 265.701 260.695C260.734 259.824 256.092 258.677 251.775 257.253C246.553 255.533 240.776 252.771 238.499 247.384C238.426 247.211 238.307 247.06 238.155 246.949C238.003 246.837 237.824 246.769 237.636 246.751C235.365 246.526 232.964 246.377 230.433 246.302C219.947 245.994 206.393 245.836 189.772 245.829C126.54 245.793 63.9751 245.805 0.523697 245.693C0.45978 245.692 0.396658 245.678 0.338051 245.653C0.279445 245.628 0.226539 245.591 0.182451 245.546C0.138364 245.5 0.103987 245.446 0.0813458 245.387C0.0587047 245.328 0.0482577 245.265 0.0506203 245.202L0.0742741 244.622C0.086101 244.354 0.226053 244.22 0.49413 244.22C74.2665 244.153 148.015 244.252 221.74 244.516C227.91 244.539 233.37 244.758 238.121 245.172C238.949 245.249 239.705 245.941 239.989 246.727C241.444 250.749 245.134 253.013 248.901 254.492C253.73 256.384 259.015 257.866 264.755 258.939C272.762 260.433 281.535 261.487 291.076 262.102C307.97 263.196 324.357 262.067 340.205 257.348C346.656 255.426 353.865 252.629 358.312 247.585C358.71 247.135 358.631 246.794 358.075 246.562C357.377 246.272 356.609 245.994 355.887 246.39C354.397 247.202 352.82 247.861 351.156 248.365C345.385 250.12 339.673 251.31 334.019 251.937C324.254 253.021 314.008 253.368 303.281 252.978C287.114 252.393 270.674 251.251 255.4 248.295C251.663 247.573 247.848 246.538 243.957 245.19C240.173 243.883 233.703 240.589 235.743 235.356C236.997 232.163 239.966 229.975 242.958 228.467C249.563 225.143 257.02 223.428 264.382 222.169C272.149 220.84 279.98 219.892 287.877 219.324C287.936 219.32 287.992 219.295 288.035 219.255C288.079 219.214 288.109 219.159 288.119 219.1L289.384 211.158C289.507 210.373 289.172 209.963 288.379 209.928C281.441 209.648 275.222 209.516 269.722 209.532C232.925 209.63 197.686 209.567 164.007 209.343C157.207 209.299 150.666 209.201 144.386 209.047C140.984 208.964 137.669 208.694 134.44 208.237C131.406 207.805 131.732 205.481 131.702 203.234C131.087 156.801 130.709 110.458 130.277 63.0967C130.123 46.3931 130.096 29.6876 130.194 12.9801C130.214 9.55819 130.373 6.25256 130.673 3.06324C130.803 1.63809 131.205 -0.0117637 132.855 6.32183e-05C151.431 0.145929 167.695 0.220831 181.647 0.224773C260.521 0.264196 337.741 0.212945 413.307 0.0710219C425.26 0.0513103 437.331 0.0907361 449.521 0.189294C453.925 0.224775 457.8 0.457371 461.147 0.887083C463.021 1.12953 464.677 1.76227 464.766 3.95617C464.939 8.09559 465.052 12.1877 465.103 16.2325C465.682 63.7827 466.351 111.605 466.794 160.521C466.936 176.428 466.843 190.818 466.516 203.689C466.469 205.495 466.264 207.399 465.901 209.402C465.825 209.817 465.604 210.193 465.277 210.462C464.951 210.731 464.539 210.877 464.115 210.874C416.35 210.476 368.731 210.216 321.258 210.094C317.927 210.086 314.501 209.816 310.98 209.283C310.947 209.278 310.912 209.281 310.879 209.29C310.846 209.3 310.816 209.316 310.79 209.339C310.764 209.361 310.743 209.389 310.729 209.42C310.715 209.452 310.708 209.486 310.708 209.52L310.833 218.745C310.837 218.97 310.951 219.086 311.176 219.094C323.298 219.526 335.734 220.992 347.124 225.037C356.053 228.206 366.786 234.09 361.316 245.71C361.198 245.967 361.269 246.15 361.529 246.26C376.324 252.41 390.794 260.086 405.052 267.064C414.661 271.771 425.796 276.868 436.47 275.899C440.905 275.496 445.192 274.846 448.326 278.79C451.2 282.397 452.88 287.016 454.193 291.439C456.893 300.522 458.695 309.256 459.598 317.642C459.755 319.096 459.627 320.464 459.213 321.746C459.154 321.939 459.225 322.031 459.426 322.024C459.942 322.012 460.435 321.892 460.904 321.663C463.146 320.593 465.174 319.173 467.569 318.41C469.82 317.693 472.077 316.989 474.34 316.299C476.327 315.69 479.189 314.508 479.739 312.255C480.33 309.826 480.831 307.423 481.241 305.046C481.671 302.566 482.364 300.408 483.322 298.571C486.249 292.977 491.773 288.89 497.396 285.975C505.409 281.812 514.019 279.778 523.191 278.045C529.617 276.827 536.697 276.202 544.432 276.171C567.944 276.064 591.45 276.042 614.95 276.106ZM290.721 209.496C290.871 210.06 290.908 210.62 290.833 211.176C290.478 213.774 290.118 216.376 289.751 218.981C289.747 219.013 289.749 219.045 289.759 219.076C289.768 219.106 289.784 219.134 289.806 219.158C289.827 219.182 289.853 219.2 289.883 219.213C289.912 219.225 289.944 219.231 289.976 219.23C296.469 218.938 302.83 218.877 309.059 219.047C309.093 219.048 309.127 219.043 309.159 219.03C309.19 219.018 309.22 218.999 309.244 218.974C309.268 218.95 309.288 218.921 309.3 218.888C309.313 218.856 309.32 218.821 309.319 218.786C309.122 211.103 309.074 203.604 309.177 196.292C309.206 194.157 306.853 194.198 305.38 194.127C300.527 193.902 294.795 193.861 288.184 194.003C256.583 194.693 223.231 195.182 188.128 195.47C175.682 195.572 164.918 195.412 155.835 194.991C149.709 194.701 142.192 193.459 140.087 186.658C138.875 182.726 138.745 178.149 138.78 173.98C139.194 128.758 139.145 81.8384 138.633 33.2219C138.601 30.2257 138.782 27.2729 139.177 24.3635C139.732 20.2478 141.438 17.2141 144.292 15.2627C147.615 12.986 152.772 12.034 156.811 11.7146C165.22 11.0523 173.989 10.8927 182.516 10.9281C250.695 11.1923 319.531 11.6654 389.026 12.3474C407.516 12.5287 424.034 12.9387 438.581 13.5774C441.593 13.7114 444.481 14.1746 447.244 14.967C450.278 15.8363 452.105 18.0125 452.88 20.9869C453.239 22.3589 453.455 23.5002 453.53 24.4108C454.09 31.0418 454.384 38.0966 454.411 45.5751C454.553 82.6328 454.674 119.208 454.772 155.299C454.808 168.636 455.113 181.616 455.689 194.24C455.694 194.341 455.678 194.442 455.642 194.537C455.607 194.632 455.553 194.719 455.483 194.792C455.413 194.865 455.33 194.923 455.237 194.962C455.144 195.001 455.044 195.021 454.944 195.02C425.968 194.811 396.655 194.612 367.005 194.423C350.743 194.32 335.157 194.466 320.247 194.86C317.538 194.931 314.274 195.221 311.844 196.504C310.986 196.96 310.868 197.983 310.904 198.852C310.998 201.568 311.087 204.332 311.17 207.143C311.181 207.49 311.357 207.699 311.696 207.77C315.983 208.692 320.679 208.42 325.043 208.444C371.562 208.712 417.764 209 463.648 209.307C463.878 209.309 464.1 209.224 464.27 209.068C464.44 208.912 464.545 208.698 464.565 208.467C465.103 201.696 465.31 195.286 465.298 188.492C465.227 128.754 464.145 68.6494 463.441 8.2316C463.424 6.71775 463.228 5.10929 463.128 3.58362C463.116 3.37074 463.018 3.20516 462.832 3.08689C462.335 2.76756 461.786 2.56453 461.182 2.4778C458.293 2.05992 455.293 1.82732 452.182 1.78001C445.567 1.67751 438.964 1.63218 432.372 1.644C328.124 1.80367 228.63 1.85098 132.985 1.60261C132.839 1.6025 132.697 1.65312 132.584 1.74585C132.471 1.83857 132.393 1.96767 132.364 2.11117C132.084 3.53828 131.923 5.03833 131.879 6.61131C131.741 11.622 131.676 16.6524 131.684 21.7025C131.708 40.0618 131.773 56.3238 131.879 70.4885C132.246 118.25 132.719 163.184 133.299 205.292C133.31 206.167 133.75 206.672 134.617 206.806C136.616 207.109 138.495 207.291 140.253 207.35C150.523 207.708 163.181 207.902 178.229 207.929C211.723 207.992 243.66 208.006 274.039 207.971C278.703 207.963 283.333 208.12 287.93 208.444C288.722 208.503 289.519 208.7 290.319 209.035C290.532 209.126 290.666 209.279 290.721 209.496ZM304.204 192.489C306.031 192.548 310.017 192.602 310.419 194.849C310.474 195.164 310.649 195.259 310.945 195.132C313.385 194.092 316.015 193.506 318.834 193.376C322.232 193.218 325.632 193.13 329.034 193.11C367.614 192.881 409.227 193.01 453.873 193.494C453.921 193.495 453.968 193.485 454.011 193.466C454.054 193.447 454.093 193.419 454.125 193.384C454.157 193.348 454.181 193.307 454.196 193.262C454.21 193.217 454.215 193.169 454.21 193.122C454.009 191.249 453.879 189.351 453.82 187.427C453.485 176.448 453.296 165.563 453.252 154.773C453.122 121.468 453.014 88.1422 452.927 54.7942C452.9 44.2525 452.691 35.3093 452.3 27.9648C452.153 25.2919 451.798 22.0159 450.698 19.5973C449.072 16.0315 443.046 15.3987 439.61 15.2213C426.703 14.559 414.979 14.1727 404.437 14.0623C350.258 13.4946 289.002 12.9939 220.67 12.5603C200.489 12.4341 183.435 12.4578 169.507 12.6312C163.018 12.714 157.739 13.057 153.671 13.6602C146.888 14.6654 141.69 17.0072 140.696 24.8189C140.298 27.953 140.119 31.1522 140.158 34.4164C140.655 74.829 140.761 115.386 140.478 156.086C140.426 163.083 140.405 170.081 140.413 177.079C140.413 182.353 140.921 189.562 146.752 191.78C150.43 193.175 154.12 193.524 158.135 193.625C168.484 193.885 178.832 193.97 189.181 193.879C229.057 193.536 263.651 193.047 292.962 192.412C296.494 192.337 300.242 192.363 304.204 192.489ZM315.433 234.41C312.27 233.44 309.94 231.932 309.674 228.384C309.504 226.066 309.398 223.592 309.354 220.962C309.353 220.864 309.314 220.77 309.245 220.701C309.177 220.631 309.084 220.591 308.988 220.59C302.554 220.42 296.144 220.507 289.757 220.85C289.552 220.862 289.438 220.968 289.414 221.169C289.055 224.173 288.927 227.038 289.03 229.762C289.095 231.613 289.609 233.836 291.543 234.492C293.029 234.993 294.584 235.273 296.209 235.332C304.2 235.624 312.22 235.849 320.27 236.006C320.334 236.006 320.369 235.975 320.377 235.912L320.401 235.752C320.401 235.728 320.389 235.715 320.365 235.711C318.682 235.336 317.038 234.902 315.433 234.41ZM350.902 238.786C352.889 239.259 359.766 241.181 358.052 244.51C358.009 244.594 358.001 244.692 358.028 244.782C358.056 244.872 358.117 244.949 358.199 244.995C358.55 245.192 358.923 245.322 359.317 245.385C359.425 245.403 359.535 245.385 359.632 245.335C359.729 245.285 359.807 245.205 359.855 245.107C364.018 236.527 358.058 231.559 351.151 228.396C347.646 226.791 344.072 225.524 340.429 224.593C331.295 222.26 321.552 220.964 311.199 220.708C310.982 220.7 310.874 220.807 310.874 221.028C310.89 223.878 311.034 226.456 311.306 228.762C311.625 231.459 314.286 232.541 316.61 233.132C319.835 233.956 322.979 234.755 326.042 235.527C328.297 236.095 330.554 236.426 332.813 236.521C338.975 236.769 345.012 237.366 350.902 238.786ZM291.638 236.142C288.574 235.368 287.64 232.825 287.504 229.992C287.362 227.02 287.467 224.099 287.817 221.229C287.823 221.184 287.818 221.138 287.804 221.095C287.79 221.052 287.766 221.012 287.735 220.979C287.704 220.946 287.667 220.92 287.625 220.903C287.583 220.886 287.537 220.878 287.492 220.88C284.508 221.045 281.5 221.315 278.468 221.69C275.015 222.12 271.547 222.585 268.066 223.085C262.934 223.827 257.481 225.031 251.71 226.699C246.695 228.141 239.806 230.779 237.47 235.291C235.341 239.424 240.244 242.032 243.431 243.292C250.119 245.941 257.576 247.337 264.601 248.306C279.109 250.309 294.33 251.399 310.265 251.576C318.646 251.667 326.623 251.249 334.197 250.323C340.926 249.501 347.49 248.147 353.788 245.722C353.827 245.707 353.863 245.683 353.894 245.654C353.924 245.624 353.948 245.588 353.964 245.549C353.98 245.51 353.988 245.468 353.987 245.425C353.986 245.383 353.977 245.341 353.959 245.302C353.92 245.204 353.847 245.137 353.741 245.101C346.459 242.484 338.659 240.177 330.341 238.182C329.592 238.005 328.88 237.901 328.206 237.869C323.515 237.652 313.746 237.378 298.899 237.047C296.211 236.988 293.79 236.686 291.638 236.142ZM355.083 241.943C353.262 241.096 351.472 240.489 349.714 240.122C346.012 239.349 342.44 238.792 338.998 238.449C338.983 238.449 338.973 238.456 338.969 238.472L338.939 238.65C338.924 238.725 338.953 238.774 339.028 238.797C344.717 240.378 350.382 242.162 356.023 244.149C356.096 244.174 356.173 244.183 356.25 244.175C356.326 244.166 356.4 244.14 356.465 244.099C356.531 244.058 356.586 244.003 356.627 243.938C356.668 243.873 356.694 243.8 356.703 243.723C356.723 243.522 356.674 243.337 356.555 243.168C356.173 242.631 355.682 242.223 355.083 241.943ZM115.334 305.076C113.063 310.654 111.484 314.851 110.597 317.665C110.549 317.816 110.533 317.975 110.55 318.133C110.566 318.29 110.615 318.443 110.692 318.581C110.77 318.719 110.875 318.839 111.001 318.935C111.127 319.031 111.271 319.1 111.425 319.138L111.744 319.215C112.233 319.333 112.55 319.154 112.696 318.677C116.197 307.2 120.303 296.278 125.014 285.91C126.871 281.824 129.13 278.483 134.085 277.832C136.115 277.564 138.071 277.458 139.951 277.513C143.145 277.604 143.18 277.316 140.058 276.65C137.231 276.046 130.265 274.201 128.225 276.744C127.279 277.927 126.407 279.395 125.611 281.15C122.035 289.054 118.61 297.029 115.334 305.076ZM142.423 286.963C142.53 284.757 143.706 281.15 146.291 280.824C147.268 280.702 149.295 280.631 152.37 280.612C169.191 280.517 187.105 280.566 206.111 280.759C206.228 280.761 206.341 280.718 206.427 280.639C206.513 280.559 206.565 280.45 206.572 280.334C206.643 279.317 205.88 279.145 205.082 279.151C200.876 279.179 197.152 279.236 193.912 279.322C186.63 279.516 179.301 279.697 171.925 279.866C170.08 279.906 167.654 279.835 164.646 279.654C156.426 279.153 147.637 278.966 138.278 279.092C136.378 279.119 134.588 279.328 132.908 279.719C129.585 280.487 127.634 283.935 126.356 286.785C121.598 297.426 117.589 308.109 114.328 318.836C114.182 319.325 114.364 319.585 114.872 319.617C119.006 319.871 123.11 320.167 127.226 320.279C154.715 321.036 179.753 321.551 202.338 321.823C247.99 322.378 299.339 322.956 356.384 323.555C389.543 323.902 417.878 323.991 441.39 323.821C446.239 323.786 450.447 323.461 454.015 322.846C455.099 322.656 456.162 322.296 457.203 321.763C457.423 321.645 457.591 321.476 457.705 321.255C458.669 319.357 457.764 314.945 457.427 312.834C456.024 304.007 454.041 295.799 451.478 288.21C450.136 284.231 447.221 277.17 442.04 277.223C439.884 277.247 437.355 277.353 434.454 277.542C434.178 277.558 434.105 277.688 434.235 277.933C434.785 278.979 435.134 280.239 435.352 281.398C437.178 291.21 438.956 301.328 440.686 311.752C441.319 315.548 438.871 316.554 435.766 317.05C432.64 317.555 429.242 317.857 425.571 317.955C409.156 318.393 390.7 318.209 372.197 318.168C317.493 318.042 260.381 317.565 200.86 316.737C183.813 316.5 168.168 316.049 153.925 315.383C149.553 315.178 145.238 314.894 140.98 314.531C138.8 314.342 136.626 313.971 134.458 313.419C132.92 313.025 132.299 312.138 132.595 310.758C133.127 308.281 133.742 306.53 136.657 306.341C140.162 306.116 144.02 306.008 148.23 306.016C180.547 306.063 212.923 306.3 245.329 306.749C245.664 306.757 245.842 306.591 245.861 306.252L246.015 303.018C246.035 302.627 245.85 302.43 245.459 302.426C244.292 302.422 243.206 302.442 242.201 302.485C229.925 302.998 217.755 303.489 205.691 303.958C203.823 304.029 200.659 304.112 199.571 302.485C199.497 302.373 199.396 302.281 199.277 302.217C199.158 302.153 199.026 302.119 198.891 302.119C181.044 302.079 162.815 301.88 144.203 301.522C142.512 301.486 140.848 301.429 139.212 301.35C138.124 301.291 136.989 300.717 137.095 299.434C137.265 297.467 137.671 295.579 138.313 293.769C138.633 292.882 139.419 292.486 140.318 292.427C143.511 292.214 146.543 292.115 149.413 292.131C165.888 292.23 183.327 292.344 201.729 292.474C201.947 292.476 202.159 292.407 202.335 292.278C202.51 292.149 202.64 291.967 202.705 291.758L203.474 289.269C203.624 288.792 203.448 288.553 202.947 288.553C187.667 288.577 168.689 288.471 146.013 288.234C144.854 288.222 143.771 287.986 142.766 287.524C142.66 287.475 142.57 287.396 142.509 287.296C142.448 287.196 142.418 287.08 142.423 286.963ZM207.199 278.057C207.956 278.66 208.26 279.433 208.11 280.375C208.103 280.421 208.106 280.468 208.119 280.513C208.132 280.557 208.154 280.599 208.185 280.634C208.215 280.669 208.252 280.698 208.295 280.717C208.337 280.737 208.383 280.747 208.429 280.748L262.49 280.96C262.805 280.96 263.022 280.815 263.141 280.523C263.625 279.311 264.495 278.719 265.884 278.648C269.271 278.483 272.608 278.339 275.896 278.217C275.92 278.217 275.931 278.203 275.931 278.175L275.925 277.962C275.925 277.86 275.874 277.809 275.772 277.809L207.371 277.578C206.85 277.574 206.793 277.734 207.199 278.057ZM181.629 277.883C181.629 277.862 181.625 277.842 181.617 277.822C181.609 277.803 181.597 277.785 181.582 277.771C181.567 277.756 181.55 277.744 181.53 277.736C181.511 277.728 181.49 277.724 181.469 277.724L165.846 277.751C165.804 277.751 165.763 277.768 165.733 277.798C165.703 277.828 165.687 277.869 165.687 277.911L165.687 278.077C165.687 278.098 165.691 278.118 165.699 278.138C165.707 278.157 165.719 278.175 165.734 278.19C165.749 278.204 165.766 278.216 165.786 278.224C165.805 278.232 165.826 278.236 165.847 278.236L181.47 278.209C181.512 278.209 181.553 278.192 181.583 278.162C181.613 278.132 181.63 278.091 181.629 278.049L181.629 277.883ZM315.427 281.067C315.853 279.766 316.143 279.139 317.355 278.412C317.86 278.108 317.816 277.954 317.225 277.951L282.442 277.814C282.363 277.814 282.338 277.852 282.365 277.927L283.382 280.943C283.418 281.037 283.487 281.087 283.589 281.091L314.907 281.439C315.171 281.443 315.345 281.319 315.427 281.067ZM371.103 282.19C371.954 280.316 373.923 280.109 375.739 279.937C379.247 279.598 382.644 279.571 385.928 279.855C387.507 279.991 388.807 280.748 389.275 282.356C389.316 282.5 389.402 282.627 389.52 282.719C389.638 282.81 389.782 282.861 389.931 282.865L401.64 283.107C401.672 283.108 401.704 283.102 401.733 283.09C401.763 283.078 401.79 283.061 401.813 283.038C401.836 283.015 401.853 282.988 401.865 282.958C401.877 282.929 401.883 282.897 401.882 282.865C401.851 281.461 402.619 280.663 404.188 280.47C405.45 280.316 406.706 280.255 407.955 280.286C415.946 280.48 423.253 280.393 429.877 280.026C431.083 279.959 432.173 280.184 433.147 280.7C433.316 280.791 433.407 280.74 433.419 280.547C433.525 279.05 432.644 278.625 431.26 278.583C430.417 278.56 429.604 278.544 428.824 278.536C395.141 278.276 361.47 278.104 327.81 278.021C327.712 278.021 327.662 278.071 327.662 278.169L327.751 281.575C327.755 281.674 327.806 281.725 327.905 281.729L342.05 282.025C342.511 282.033 342.751 281.806 342.771 281.345C342.824 280.038 343.617 279.518 344.876 279.429C348.29 279.188 351.724 279.066 355.178 279.062C357.147 279.062 358.111 279.884 357.998 281.877C357.994 281.935 358.002 281.993 358.022 282.048C358.041 282.102 358.072 282.152 358.112 282.195C358.152 282.238 358.2 282.272 358.254 282.296C358.307 282.319 358.365 282.332 358.424 282.332L370.564 282.533C370.678 282.535 370.79 282.504 370.886 282.443C370.982 282.382 371.057 282.294 371.103 282.19ZM319.259 279.358C319.168 279.366 319.08 279.392 318.999 279.435L317.337 280.31C317.205 280.379 317.099 280.491 317.037 280.628C316.974 280.764 316.959 280.917 316.994 281.063C317.029 281.209 317.111 281.339 317.228 281.433C317.344 281.527 317.489 281.579 317.639 281.581L325.575 281.7C325.666 281.701 325.757 281.684 325.842 281.65C325.927 281.615 326.004 281.564 326.068 281.498C326.132 281.433 326.182 281.355 326.215 281.27C326.249 281.185 326.264 281.093 326.261 281.002L326.202 279.506C326.198 279.415 326.176 279.326 326.137 279.244C326.098 279.162 326.043 279.089 325.975 279.029C325.907 278.968 325.828 278.923 325.742 278.894C325.656 278.865 325.565 278.854 325.474 278.861L319.259 279.358ZM265.234 280.422C265.212 280.425 265.19 280.432 265.171 280.443C265.151 280.454 265.135 280.469 265.122 280.487L264.838 280.848C264.819 280.872 264.807 280.9 264.803 280.93C264.8 280.96 264.805 280.99 264.818 281.017C264.831 281.045 264.851 281.068 264.877 281.084C264.902 281.1 264.932 281.108 264.962 281.108L281.62 281.031C281.646 281.031 281.672 281.025 281.695 281.013C281.718 281 281.737 280.983 281.752 280.961C281.766 280.94 281.776 280.915 281.778 280.889C281.781 280.863 281.778 280.837 281.768 280.813L281.171 279.399C281.158 279.368 281.136 279.341 281.107 279.323C281.079 279.305 281.045 279.296 281.011 279.299L265.234 280.422ZM356.496 281.303C356.496 281.142 356.432 280.987 356.318 280.873C356.204 280.759 356.049 280.694 355.887 280.694H344.983C344.821 280.694 344.666 280.759 344.552 280.873C344.438 280.987 344.374 281.142 344.374 281.303V281.54C344.374 281.702 344.438 281.856 344.552 281.971C344.666 282.085 344.821 282.149 344.983 282.149H355.887C356.049 282.149 356.204 282.085 356.318 281.971C356.432 281.856 356.496 281.702 356.496 281.54V281.303ZM372.948 282.599L387.601 282.906C387.613 282.906 387.624 282.904 387.635 282.899C387.646 282.895 387.656 282.888 387.664 282.88C387.672 282.872 387.679 282.862 387.683 282.851C387.688 282.84 387.69 282.829 387.69 282.817V282.764C387.696 282.369 387.036 281.977 385.855 281.673C384.674 281.37 383.069 281.179 381.392 281.144L379.228 281.096C378.395 281.079 377.57 281.1 376.799 281.159C376.029 281.218 375.328 281.314 374.737 281.44C374.146 281.566 373.676 281.721 373.355 281.896C373.034 282.07 372.867 282.261 372.865 282.457V282.51C372.865 282.532 372.873 282.554 372.889 282.571C372.904 282.587 372.925 282.597 372.948 282.599ZM414.596 283.574C416.737 283.693 419.593 284.254 419.96 286.844C419.983 287.015 420.068 287.17 420.199 287.282C420.33 287.393 420.497 287.452 420.669 287.448C424.312 287.353 427.779 287.377 431.071 287.519C431.753 287.55 432.421 287.672 433.076 287.885C433.312 287.96 433.415 287.873 433.383 287.625C433.198 286.08 432.934 284.556 432.591 283.054C432.362 282.076 431.743 281.605 430.734 281.641C422.562 281.948 414.602 282.041 406.855 281.918C406.016 281.907 405.164 281.944 404.301 282.031C404.148 282.045 404.002 282.098 403.875 282.184C403.747 282.269 403.644 282.386 403.573 282.522L403.455 282.746C403.434 282.787 403.424 282.833 403.425 282.879C403.427 282.925 403.44 282.97 403.464 283.01C403.487 283.05 403.521 283.083 403.56 283.106C403.6 283.129 403.646 283.142 403.692 283.143C407.165 283.213 410.8 283.357 414.596 283.574ZM146.486 282.167C146.332 282.167 146.18 282.209 146.048 282.288C145.916 282.367 145.807 282.48 145.735 282.616L144.179 285.49C144.11 285.62 144.075 285.765 144.079 285.911C144.082 286.058 144.123 286.201 144.198 286.327C144.273 286.453 144.379 286.558 144.507 286.631C144.634 286.704 144.778 286.743 144.925 286.744L203.722 287.004C203.898 287.004 204.07 286.95 204.215 286.848C204.359 286.747 204.468 286.603 204.526 286.436L205.626 283.361C205.672 283.233 205.686 283.095 205.667 282.96C205.648 282.825 205.597 282.697 205.518 282.585C205.439 282.474 205.335 282.383 205.214 282.321C205.093 282.258 204.958 282.226 204.822 282.226L146.486 282.167ZM207.725 282.267C207.662 282.267 207.601 282.287 207.549 282.324C207.498 282.361 207.461 282.414 207.442 282.474L206.087 286.649C206.073 286.694 206.07 286.741 206.078 286.787C206.086 286.833 206.104 286.876 206.132 286.914C206.159 286.951 206.195 286.981 206.237 287.002C206.279 287.023 206.325 287.034 206.371 287.034L262.212 287.158C262.288 287.158 262.36 287.129 262.415 287.078C262.47 287.026 262.503 286.955 262.508 286.88L262.756 282.853C262.759 282.812 262.753 282.772 262.739 282.734C262.725 282.696 262.704 282.662 262.676 282.632C262.648 282.603 262.615 282.579 262.578 282.563C262.541 282.547 262.501 282.539 262.46 282.539L207.725 282.267ZM264.702 282.581C264.619 282.581 264.54 282.612 264.48 282.668C264.419 282.723 264.382 282.8 264.376 282.882L264.051 286.838C264.048 286.883 264.054 286.928 264.069 286.97C264.084 287.012 264.107 287.051 264.138 287.084C264.168 287.117 264.205 287.143 264.246 287.161C264.287 287.178 264.332 287.187 264.376 287.187L281.218 287.205C281.303 287.205 281.385 287.172 281.446 287.112C281.507 287.052 281.542 286.971 281.543 286.886L281.596 282.995C281.597 282.951 281.589 282.909 281.573 282.868C281.557 282.828 281.534 282.792 281.503 282.761C281.473 282.73 281.437 282.706 281.397 282.689C281.357 282.672 281.314 282.664 281.271 282.664L264.702 282.581ZM314.588 287.282C314.689 287.282 314.786 287.244 314.86 287.174C314.933 287.105 314.978 287.01 314.984 286.909L315.197 283.438C315.2 283.385 315.192 283.331 315.174 283.281C315.156 283.23 315.128 283.184 315.091 283.145C315.055 283.106 315.011 283.074 314.962 283.052C314.913 283.031 314.86 283.019 314.806 283.018L283.566 282.628C283.463 282.626 283.363 282.665 283.288 282.736C283.213 282.806 283.168 282.904 283.164 283.007L283.022 286.791C283.02 286.844 283.029 286.896 283.048 286.945C283.067 286.994 283.095 287.039 283.131 287.077C283.168 287.115 283.211 287.145 283.259 287.166C283.307 287.187 283.359 287.198 283.412 287.199L314.588 287.282ZM325.699 287.323C325.784 287.323 325.866 287.29 325.927 287.23C325.988 287.17 326.023 287.089 326.024 287.004L326.089 283.586C326.09 283.543 326.082 283.501 326.067 283.461C326.051 283.421 326.028 283.385 325.998 283.354C325.969 283.324 325.933 283.299 325.894 283.282C325.855 283.265 325.813 283.256 325.77 283.255L317.101 283.072C317.018 283.07 316.938 283.099 316.877 283.154C316.816 283.209 316.777 283.285 316.77 283.367L316.462 286.945C316.459 286.99 316.465 287.034 316.48 287.077C316.495 287.119 316.518 287.158 316.549 287.19C316.579 287.223 316.616 287.249 316.657 287.267C316.698 287.285 316.743 287.294 316.787 287.294L325.699 287.323ZM342.038 287.347C342.109 287.347 342.178 287.321 342.231 287.272C342.283 287.224 342.316 287.158 342.322 287.087L342.576 283.888C342.579 283.849 342.575 283.81 342.562 283.773C342.55 283.736 342.53 283.702 342.504 283.674C342.478 283.645 342.446 283.622 342.411 283.606C342.375 283.589 342.337 283.581 342.298 283.58L327.875 283.314C327.838 283.313 327.801 283.32 327.766 283.333C327.731 283.347 327.7 283.367 327.673 283.393C327.646 283.419 327.624 283.45 327.609 283.484C327.594 283.518 327.586 283.555 327.585 283.592L327.544 287.051C327.543 287.089 327.55 287.127 327.564 287.162C327.578 287.197 327.599 287.229 327.625 287.256C327.651 287.283 327.683 287.304 327.718 287.319C327.753 287.334 327.79 287.341 327.828 287.341L342.038 287.347ZM356.419 287.371C356.467 287.371 356.515 287.361 356.559 287.342C356.603 287.323 356.642 287.295 356.675 287.26C356.708 287.225 356.733 287.184 356.749 287.139C356.765 287.094 356.772 287.046 356.768 286.998L356.603 284.148C356.598 284.059 356.56 283.976 356.497 283.915C356.433 283.853 356.348 283.818 356.26 283.817L344.462 283.616C344.375 283.614 344.29 283.645 344.224 283.703C344.158 283.761 344.117 283.842 344.108 283.929L343.8 286.969C343.795 287.017 343.8 287.065 343.815 287.112C343.83 287.158 343.855 287.2 343.887 287.236C343.919 287.272 343.959 287.302 344.003 287.322C344.047 287.342 344.095 287.352 344.143 287.353L356.419 287.371ZM358.501 283.858C358.457 283.857 358.412 283.865 358.371 283.882C358.33 283.899 358.292 283.924 358.261 283.955C358.229 283.986 358.205 284.024 358.188 284.065C358.171 284.106 358.163 284.151 358.164 284.195L358.229 287.022C358.231 287.109 358.266 287.191 358.328 287.252C358.39 287.313 358.473 287.347 358.56 287.347L370.842 287.406C370.89 287.407 370.936 287.397 370.979 287.378C371.023 287.358 371.061 287.33 371.092 287.295C371.124 287.26 371.147 287.218 371.161 287.173C371.175 287.128 371.179 287.08 371.174 287.034L370.866 284.355C370.857 284.274 370.82 284.2 370.76 284.145C370.7 284.091 370.622 284.06 370.541 284.059L358.501 283.858ZM388.34 287.406C388.397 287.406 388.453 287.393 388.503 287.368C388.554 287.343 388.599 287.307 388.634 287.263C388.669 287.219 388.694 287.167 388.707 287.112C388.719 287.057 388.719 287 388.707 286.945L388.234 284.721C388.216 284.637 388.17 284.561 388.104 284.506C388.037 284.451 387.954 284.421 387.867 284.42L372.918 284.112C372.866 284.111 372.814 284.121 372.766 284.141C372.717 284.162 372.674 284.191 372.638 284.229C372.602 284.267 372.574 284.312 372.556 284.361C372.538 284.41 372.53 284.462 372.534 284.514L372.676 287.01C372.682 287.105 372.723 287.195 372.792 287.26C372.861 287.326 372.953 287.363 373.048 287.365L388.34 287.406ZM402.403 287.424C402.452 287.425 402.501 287.414 402.545 287.393C402.59 287.371 402.629 287.34 402.659 287.301C402.69 287.262 402.711 287.216 402.721 287.168C402.73 287.12 402.729 287.069 402.716 287.022L402.16 284.881C402.143 284.813 402.105 284.753 402.05 284.709C401.996 284.665 401.928 284.64 401.859 284.639L390.221 284.432C390.175 284.43 390.129 284.439 390.086 284.457C390.044 284.476 390.006 284.503 389.975 284.537C389.944 284.571 389.921 284.612 389.907 284.656C389.894 284.7 389.89 284.747 389.896 284.792L390.215 287.116C390.225 287.193 390.262 287.263 390.32 287.314C390.377 287.365 390.451 287.394 390.528 287.394L402.403 287.424ZM403.958 285.236L403.916 286.773C403.915 286.846 403.927 286.917 403.954 286.985C403.98 287.052 404.019 287.114 404.069 287.166C404.119 287.218 404.179 287.26 404.245 287.289C404.311 287.318 404.382 287.334 404.455 287.335L405.519 287.365C407.214 287.406 408.893 287.427 410.46 287.425C412.027 287.423 413.451 287.399 414.65 287.355C415.849 287.311 416.8 287.246 417.448 287.166C418.096 287.085 418.429 286.99 418.428 286.886L418.458 285.833C418.456 285.623 417.1 285.389 414.687 285.181C412.273 284.974 408.999 284.811 405.584 284.727L404.52 284.698C404.447 284.696 404.376 284.709 404.308 284.735C404.241 284.761 404.179 284.8 404.127 284.85C404.075 284.9 404.033 284.96 404.004 285.026C403.975 285.092 403.959 285.164 403.958 285.236ZM205.691 288.589C205.633 288.589 205.576 288.607 205.528 288.641C205.481 288.675 205.445 288.723 205.425 288.778L204.213 292.125C204.197 292.168 204.191 292.214 204.197 292.26C204.202 292.306 204.219 292.349 204.245 292.387C204.271 292.425 204.306 292.456 204.347 292.477C204.388 292.499 204.433 292.51 204.479 292.509L261.751 292.994C261.823 292.996 261.894 292.97 261.947 292.922C262.001 292.873 262.035 292.806 262.041 292.734L262.348 289.044C262.351 289.005 262.346 288.965 262.334 288.928C262.321 288.891 262.301 288.857 262.274 288.828C262.247 288.799 262.215 288.776 262.179 288.76C262.143 288.745 262.104 288.737 262.064 288.737L205.691 288.589ZM264.264 288.743C264.172 288.742 264.083 288.777 264.015 288.839C263.947 288.902 263.905 288.988 263.897 289.08L263.602 292.657C263.598 292.708 263.604 292.759 263.621 292.807C263.637 292.855 263.664 292.899 263.698 292.936C263.733 292.973 263.774 293.003 263.821 293.023C263.867 293.043 263.918 293.054 263.968 293.053L280.958 293.178C281.006 293.178 281.054 293.17 281.099 293.152C281.143 293.134 281.184 293.108 281.219 293.075C281.253 293.041 281.281 293.001 281.3 292.957C281.319 292.913 281.33 292.865 281.33 292.817L281.431 289.186C281.432 289.137 281.424 289.088 281.406 289.042C281.389 288.996 281.362 288.954 281.328 288.919C281.294 288.884 281.253 288.856 281.207 288.837C281.162 288.817 281.113 288.808 281.064 288.808L264.264 288.743ZM535.059 299.209C536.999 300.374 536.851 302.621 535.154 303.846C530.21 307.405 526.916 311.805 523.179 316.311C517.017 323.733 509.868 325.507 500.714 324.484C493.689 323.697 486.912 321.905 483.074 315.814C482.524 314.933 482.217 313.922 481.661 313.071C481.467 312.775 481.335 312.801 481.264 313.147C480.573 316.53 481.111 320.457 482.169 323.673C483.435 327.517 486.108 330.024 489.94 331.012C495.681 332.49 501.666 332.118 507.603 331.189C515.427 329.977 522.186 327.009 527.484 321.054C531.746 316.264 535.118 310.796 537.602 304.65C539.317 300.398 537.289 298.754 533.622 297.518C531.284 296.734 528.955 295.945 526.633 295.153C524.488 294.416 522.479 293.069 520.607 291.114C519.335 289.789 517.076 288.335 515.208 288.796C513.889 289.121 512.677 289.511 511.305 289.464C509.33 289.393 507.372 289.05 505.391 289.168C497.905 289.612 491.353 292.675 487.474 299.298C487.356 299.5 487.318 299.738 487.367 299.966C487.832 302.099 488.28 304.206 488.71 306.288C489.644 310.8 492.187 313.301 496.864 313.414C508.833 313.709 517.751 306.578 527.389 300.398C529.725 298.896 532.41 297.631 535.059 299.209ZM283.365 288.819C283.269 288.819 283.177 288.856 283.107 288.922C283.038 288.988 282.997 289.079 282.992 289.174L282.809 292.847C282.806 292.897 282.814 292.947 282.832 292.995C282.849 293.042 282.877 293.085 282.911 293.121C282.946 293.158 282.988 293.187 283.034 293.207C283.081 293.227 283.131 293.237 283.181 293.237L314.008 293.544C314.101 293.545 314.191 293.51 314.26 293.448C314.329 293.386 314.372 293.3 314.381 293.207L314.718 289.263C314.722 289.212 314.715 289.16 314.698 289.111C314.681 289.063 314.655 289.018 314.62 288.98C314.585 288.942 314.542 288.912 314.495 288.892C314.448 288.871 314.397 288.861 314.345 288.861L283.365 288.819ZM316.51 288.843C316.464 288.843 316.42 288.86 316.386 288.89C316.352 288.921 316.331 288.963 316.326 289.009L315.877 293.337C315.874 293.362 315.877 293.388 315.885 293.412C315.893 293.436 315.905 293.458 315.922 293.476C315.938 293.495 315.959 293.511 315.982 293.521C316.004 293.532 316.029 293.538 316.054 293.538L325.788 293.668C325.812 293.668 325.837 293.664 325.859 293.654C325.882 293.644 325.902 293.63 325.919 293.613C325.937 293.595 325.95 293.574 325.959 293.551C325.968 293.528 325.972 293.504 325.971 293.479L325.823 289.062C325.822 289.014 325.802 288.969 325.767 288.936C325.733 288.903 325.688 288.884 325.64 288.885L316.51 288.843ZM341.441 292.776C341.558 292.776 341.671 292.733 341.757 292.654C341.844 292.575 341.897 292.466 341.908 292.35L342.168 289.417C342.174 289.352 342.166 289.287 342.145 289.225C342.124 289.164 342.091 289.107 342.047 289.059C342.003 289.011 341.949 288.973 341.89 288.947C341.83 288.921 341.766 288.908 341.701 288.908L327.917 288.896C327.795 288.896 327.678 288.944 327.59 289.029C327.503 289.114 327.453 289.23 327.449 289.352L327.378 292.161C327.377 292.222 327.388 292.284 327.41 292.342C327.432 292.399 327.466 292.452 327.509 292.496C327.552 292.541 327.603 292.577 327.66 292.601C327.717 292.626 327.778 292.639 327.84 292.64L341.441 292.776ZM356.727 293.941C356.765 293.941 356.803 293.933 356.838 293.918C356.874 293.903 356.905 293.881 356.932 293.853C356.959 293.826 356.979 293.793 356.993 293.757C357.006 293.721 357.012 293.683 357.011 293.645L356.833 289.222C356.83 289.148 356.799 289.079 356.746 289.028C356.693 288.978 356.623 288.949 356.55 288.95L344.019 288.926C343.949 288.926 343.88 288.951 343.828 288.998C343.776 289.045 343.742 289.11 343.735 289.18L343.268 293.527C343.264 293.566 343.268 293.605 343.28 293.643C343.292 293.68 343.312 293.715 343.338 293.744C343.364 293.774 343.396 293.798 343.432 293.814C343.468 293.831 343.506 293.839 343.546 293.84L356.727 293.941ZM371.972 294.1C372.029 294.1 372.086 294.088 372.138 294.063C372.19 294.039 372.236 294.004 372.272 293.96C372.309 293.916 372.336 293.864 372.35 293.809C372.365 293.753 372.367 293.695 372.356 293.639L371.558 289.322C371.541 289.232 371.494 289.151 371.424 289.093C371.353 289.035 371.265 289.003 371.174 289.003L358.743 288.926C358.691 288.926 358.638 288.936 358.59 288.957C358.541 288.978 358.498 289.008 358.461 289.046C358.425 289.085 358.396 289.13 358.378 289.179C358.359 289.229 358.351 289.281 358.353 289.334L358.513 293.603C358.516 293.704 358.558 293.799 358.629 293.87C358.701 293.94 358.797 293.98 358.897 293.982L371.972 294.1ZM389.275 294.218C389.333 294.219 389.392 294.207 389.445 294.183C389.499 294.159 389.546 294.123 389.585 294.079C389.623 294.034 389.651 293.982 389.667 293.925C389.683 293.869 389.686 293.809 389.677 293.751L388.979 289.346C388.964 289.252 388.915 289.166 388.843 289.105C388.77 289.043 388.678 289.009 388.583 289.009L373.557 288.973C373.498 288.973 373.44 288.986 373.386 289.011C373.333 289.036 373.286 289.072 373.248 289.117C373.21 289.162 373.183 289.215 373.168 289.272C373.153 289.329 373.15 289.388 373.16 289.446L373.959 293.81C373.976 293.901 374.025 293.983 374.096 294.042C374.167 294.102 374.257 294.135 374.349 294.136L389.275 294.218ZM404.046 294.337C404.085 294.338 404.123 294.33 404.158 294.314C404.193 294.298 404.224 294.274 404.248 294.245C404.273 294.215 404.29 294.18 404.299 294.143C404.308 294.106 404.309 294.067 404.301 294.029L403.26 289.228C403.248 289.171 403.217 289.12 403.171 289.083C403.126 289.046 403.07 289.026 403.012 289.026L390.818 288.991C390.781 288.991 390.745 288.998 390.712 289.013C390.678 289.028 390.649 289.05 390.624 289.078C390.6 289.105 390.582 289.137 390.572 289.172C390.561 289.208 390.559 289.244 390.564 289.281L391.273 294.047C391.283 294.106 391.313 294.16 391.359 294.199C391.404 294.238 391.462 294.259 391.522 294.26L404.046 294.337ZM405.081 288.991C405.052 288.991 405.022 288.998 404.995 289.011C404.969 289.024 404.945 289.043 404.926 289.066C404.908 289.089 404.894 289.116 404.887 289.145C404.88 289.174 404.88 289.204 404.886 289.233L405.927 294.171C405.936 294.216 405.961 294.256 405.996 294.285C406.032 294.314 406.076 294.33 406.122 294.331L419.498 294.372C419.528 294.373 419.557 294.367 419.584 294.354C419.612 294.342 419.635 294.324 419.655 294.301C419.674 294.279 419.688 294.252 419.696 294.224C419.703 294.195 419.705 294.165 419.699 294.136L418.824 289.186C418.816 289.14 418.792 289.098 418.756 289.068C418.721 289.038 418.676 289.021 418.629 289.021L405.081 288.991ZM433.72 294.218C433.844 294.216 433.965 294.184 434.073 294.124C434.181 294.065 434.272 293.98 434.34 293.877C434.408 293.773 434.449 293.655 434.461 293.532C434.472 293.41 434.453 293.286 434.406 293.172L432.94 289.647C432.884 289.512 432.79 289.396 432.669 289.313C432.548 289.23 432.406 289.184 432.26 289.18L421.266 288.926C421.155 288.924 421.045 288.946 420.943 288.991C420.841 289.036 420.751 289.103 420.678 289.187C420.605 289.271 420.552 289.37 420.522 289.478C420.492 289.585 420.485 289.697 420.504 289.807L421.178 293.787C421.209 293.964 421.302 294.125 421.441 294.24C421.579 294.355 421.755 294.416 421.935 294.414L433.72 294.218ZM199.778 300.138L201.688 294.473C201.702 294.433 201.706 294.39 201.701 294.348C201.695 294.306 201.679 294.266 201.655 294.231C201.631 294.197 201.598 294.168 201.561 294.149C201.523 294.129 201.482 294.118 201.439 294.118C183.317 293.881 165.186 293.741 147.047 293.698C145.849 293.694 143.791 293.793 140.874 293.994C140.066 294.049 139.583 294.475 139.425 295.271L138.727 298.837C138.601 299.464 138.859 299.787 139.502 299.807C159.093 300.398 179.045 300.374 199.21 300.54C199.336 300.542 199.459 300.503 199.561 300.431C199.663 300.359 199.739 300.256 199.778 300.138ZM203.852 294.136C203.764 294.136 203.678 294.163 203.606 294.214C203.534 294.264 203.479 294.336 203.45 294.42L201.463 299.954C201.441 300.018 201.434 300.087 201.443 300.154C201.452 300.221 201.477 300.285 201.515 300.34C201.554 300.396 201.606 300.441 201.665 300.473C201.725 300.504 201.792 300.521 201.859 300.522L261.012 300.7C261.12 300.7 261.224 300.659 261.303 300.586C261.382 300.512 261.43 300.411 261.437 300.303L261.798 294.987C261.802 294.929 261.794 294.87 261.775 294.815C261.755 294.76 261.724 294.71 261.684 294.667C261.644 294.624 261.596 294.59 261.542 294.567C261.489 294.544 261.431 294.532 261.372 294.532L203.852 294.136ZM263.785 294.573C263.699 294.571 263.615 294.602 263.551 294.659C263.486 294.716 263.445 294.795 263.436 294.881L262.957 300.297C262.953 300.344 262.959 300.392 262.974 300.436C262.989 300.481 263.013 300.522 263.045 300.557C263.076 300.592 263.115 300.62 263.158 300.64C263.201 300.659 263.247 300.669 263.294 300.67L280.674 300.729C280.764 300.731 280.851 300.697 280.916 300.635C280.981 300.573 281.02 300.488 281.023 300.398L281.259 295.135C281.262 295.089 281.255 295.043 281.239 295C281.223 294.956 281.199 294.917 281.167 294.883C281.136 294.849 281.098 294.822 281.056 294.804C281.014 294.785 280.968 294.775 280.922 294.774L263.785 294.573ZM313.281 300.8C313.361 300.801 313.439 300.771 313.499 300.718C313.559 300.664 313.597 300.59 313.606 300.51L314.15 295.443C314.155 295.397 314.15 295.351 314.136 295.307C314.122 295.263 314.099 295.223 314.068 295.189C314.038 295.155 314 295.128 313.958 295.109C313.916 295.091 313.871 295.082 313.825 295.082L283.104 294.81C283.062 294.809 283.019 294.817 282.979 294.832C282.94 294.848 282.903 294.871 282.873 294.901C282.842 294.931 282.817 294.966 282.8 295.005C282.783 295.044 282.774 295.086 282.773 295.129L282.614 300.392C282.612 300.436 282.619 300.479 282.635 300.52C282.65 300.561 282.674 300.598 282.705 300.63C282.735 300.661 282.771 300.686 282.812 300.703C282.852 300.72 282.895 300.729 282.939 300.729L313.281 300.8ZM357.034 300.853C357.079 300.853 357.122 300.844 357.163 300.827C357.204 300.81 357.241 300.784 357.271 300.752C357.301 300.72 357.325 300.682 357.34 300.64C357.355 300.599 357.362 300.555 357.36 300.51L357.088 295.803C357.082 295.722 357.046 295.646 356.987 295.59C356.928 295.535 356.85 295.503 356.768 295.502L316.001 295.111C315.919 295.111 315.839 295.142 315.779 295.198C315.719 295.254 315.682 295.331 315.676 295.413L315.232 300.451C315.228 300.496 315.233 300.542 315.248 300.585C315.262 300.628 315.286 300.667 315.316 300.701C315.347 300.734 315.384 300.761 315.426 300.779C315.467 300.797 315.512 300.806 315.557 300.806L357.034 300.853ZM373.308 300.859C373.34 300.86 373.372 300.853 373.401 300.84C373.43 300.827 373.455 300.807 373.476 300.783C373.496 300.759 373.511 300.73 373.519 300.699C373.527 300.668 373.527 300.636 373.521 300.605L372.616 295.827C372.607 295.778 372.58 295.734 372.541 295.702C372.502 295.671 372.454 295.654 372.404 295.655L358.879 295.531C358.85 295.531 358.822 295.537 358.795 295.548C358.769 295.56 358.745 295.577 358.725 295.598C358.705 295.619 358.689 295.644 358.679 295.671C358.669 295.698 358.665 295.727 358.667 295.756L358.885 300.646C358.888 300.701 358.912 300.752 358.952 300.789C358.991 300.827 359.044 300.848 359.098 300.847L373.308 300.859ZM390.286 300.924C390.332 300.924 390.377 300.914 390.418 300.895C390.46 300.875 390.496 300.847 390.526 300.812C390.556 300.778 390.578 300.737 390.59 300.693C390.603 300.649 390.606 300.603 390.599 300.558L389.967 296.087C389.955 296.013 389.919 295.945 389.862 295.895C389.806 295.845 389.734 295.817 389.659 295.815L374.592 295.667C374.545 295.667 374.498 295.676 374.456 295.695C374.413 295.715 374.375 295.743 374.345 295.779C374.314 295.814 374.292 295.856 374.279 295.901C374.267 295.946 374.264 295.994 374.272 296.04L375.071 300.64C375.083 300.715 375.121 300.782 375.179 300.831C375.236 300.879 375.309 300.906 375.384 300.907L390.286 300.924ZM434.731 300.073C434.811 300.067 434.886 300.03 434.94 299.971C434.994 299.911 435.023 299.834 435.021 299.753L434.944 296.111C434.944 296.07 434.935 296.029 434.918 295.991C434.902 295.954 434.878 295.919 434.848 295.891C434.819 295.862 434.784 295.84 434.745 295.825C434.707 295.81 434.666 295.802 434.625 295.803L421.905 295.993C421.86 295.994 421.816 296.004 421.775 296.024C421.735 296.044 421.699 296.072 421.67 296.107C421.642 296.142 421.621 296.182 421.609 296.226C421.598 296.269 421.596 296.315 421.604 296.359L422.378 300.676C422.391 300.753 422.432 300.822 422.494 300.87C422.555 300.918 422.632 300.942 422.709 300.936L434.731 300.073ZM405.436 300.918C405.489 300.919 405.541 300.907 405.588 300.885C405.636 300.862 405.678 300.829 405.71 300.788C405.743 300.747 405.767 300.7 405.779 300.648C405.791 300.597 405.791 300.544 405.779 300.493L404.803 296.199C404.786 296.123 404.743 296.054 404.682 296.005C404.621 295.955 404.545 295.928 404.466 295.927L391.888 295.803C391.838 295.803 391.789 295.813 391.743 295.834C391.697 295.854 391.656 295.884 391.623 295.922C391.59 295.959 391.566 296.003 391.551 296.051C391.537 296.099 391.533 296.15 391.54 296.199L392.172 300.623C392.184 300.706 392.225 300.782 392.288 300.837C392.351 300.893 392.431 300.924 392.515 300.924L405.436 300.918ZM420.563 300.853C420.591 300.853 420.619 300.846 420.645 300.834C420.67 300.822 420.693 300.804 420.711 300.782C420.729 300.76 420.742 300.734 420.749 300.707C420.756 300.679 420.757 300.651 420.752 300.623L419.936 296.105C419.928 296.059 419.903 296.018 419.868 295.989C419.832 295.96 419.787 295.944 419.741 295.945L406.595 295.933C406.566 295.934 406.538 295.94 406.511 295.953C406.485 295.966 406.462 295.984 406.444 296.007C406.426 296.029 406.413 296.056 406.407 296.084C406.4 296.112 406.4 296.142 406.406 296.17L407.464 300.771C407.474 300.814 407.498 300.853 407.532 300.881C407.567 300.909 407.609 300.924 407.654 300.924L420.563 300.853ZM410.327 315.223C410.3 315.357 410.245 315.484 410.166 315.595C410.087 315.706 409.984 315.798 409.866 315.867C409.748 315.935 409.617 315.977 409.481 315.991C409.345 316.004 409.208 315.988 409.079 315.945C405.231 314.628 401.533 312.986 397.985 311.019C397.555 310.782 397.134 310.512 396.72 310.208C396.12 309.767 395.636 309.548 395.265 309.552C389.683 309.607 383.602 309.615 377.022 309.576C376.954 309.575 376.887 309.59 376.826 309.62C376.765 309.65 376.711 309.693 376.67 309.747C376.629 309.801 376.601 309.864 376.588 309.931C376.575 309.997 376.578 310.066 376.596 310.132C377.172 312.245 377.276 314.332 376.91 316.394C376.904 316.425 376.906 316.456 376.914 316.486C376.923 316.516 376.938 316.544 376.958 316.568C376.978 316.592 377.003 316.611 377.032 316.623C377.06 316.636 377.091 316.643 377.123 316.642C390.881 316.658 403.43 316.658 414.768 316.642C421.552 316.63 427.777 316.366 433.442 315.85C435.749 315.637 437.448 315.166 438.54 314.437C439.119 314.046 439.34 313.402 439.202 312.503C438.563 308.281 437.828 304.009 436.996 299.688C436.937 299.377 436.843 299.365 436.712 299.653C436.224 300.745 435.333 301.395 434.04 301.604C430.555 302.172 426.886 302.401 423.035 302.29C422.986 302.288 422.938 302.298 422.893 302.317C422.848 302.337 422.809 302.367 422.777 302.404C422.745 302.442 422.722 302.486 422.709 302.534C422.697 302.582 422.695 302.632 422.703 302.681C423.248 305.543 424.625 308.919 420.119 309.245C416.95 309.473 413.463 309.562 409.658 309.511C409.378 309.507 409.272 309.639 409.339 309.907C409.694 311.342 410.019 312.777 410.315 314.212C410.386 314.551 410.39 314.888 410.327 315.223ZM527.591 302.119C518.525 308.227 509.401 314.768 498.011 315.016C489.443 315.205 487.592 309.96 486.338 302.734C486.204 301.953 485.979 301.926 485.664 302.651C484.816 304.602 483.937 306.765 483.027 309.138C481.915 312.048 485.179 316.601 487.207 318.257C488.95 319.676 490.933 320.707 493.156 321.349C498.325 322.844 503.184 323.425 507.733 323.094C517.147 322.408 521.772 315.726 527.253 308.973C529.276 306.477 531.659 304.384 534.267 302.551C535.148 301.924 534.947 300.723 533.971 300.321C531.86 299.458 529.3 300.972 527.591 302.119ZM260.734 306.903C260.779 306.903 260.822 306.886 260.855 306.855C260.888 306.824 260.908 306.782 260.911 306.737L261.248 302.456C261.25 302.432 261.247 302.408 261.239 302.386C261.231 302.363 261.219 302.343 261.203 302.325C261.187 302.307 261.167 302.293 261.146 302.283C261.124 302.273 261.101 302.267 261.077 302.267L247.789 302.249C247.744 302.249 247.701 302.266 247.668 302.297C247.635 302.327 247.615 302.37 247.612 302.415L247.358 306.625C247.356 306.649 247.359 306.674 247.367 306.696C247.376 306.719 247.388 306.74 247.405 306.758C247.422 306.776 247.442 306.79 247.464 306.8C247.487 306.809 247.511 306.814 247.535 306.814L260.734 306.903ZM263.058 302.261C262.978 302.261 262.9 302.291 262.842 302.346C262.784 302.401 262.749 302.476 262.744 302.556L262.49 306.578C262.487 306.621 262.492 306.664 262.507 306.705C262.521 306.746 262.544 306.783 262.573 306.815C262.602 306.846 262.638 306.872 262.678 306.889C262.717 306.906 262.76 306.915 262.803 306.915L280.491 307.11C280.571 307.11 280.648 307.079 280.706 307.024C280.764 306.969 280.8 306.894 280.804 306.814L280.993 302.639C280.995 302.598 280.988 302.556 280.973 302.517C280.959 302.478 280.936 302.442 280.908 302.412C280.879 302.382 280.845 302.357 280.807 302.341C280.769 302.324 280.727 302.315 280.686 302.314L263.058 302.261ZM282.838 302.302C282.756 302.302 282.676 302.334 282.617 302.391C282.557 302.449 282.522 302.527 282.519 302.61L282.371 306.82C282.37 306.862 282.376 306.905 282.391 306.945C282.406 306.984 282.429 307.021 282.458 307.051C282.487 307.082 282.523 307.107 282.561 307.124C282.6 307.141 282.642 307.15 282.685 307.151L312.695 307.482C312.775 307.483 312.852 307.453 312.911 307.4C312.97 307.346 313.007 307.272 313.015 307.193L313.417 302.692C313.421 302.648 313.416 302.603 313.402 302.561C313.387 302.519 313.364 302.48 313.334 302.447C313.304 302.414 313.268 302.388 313.227 302.37C313.186 302.352 313.142 302.343 313.097 302.344L282.838 302.302ZM315.333 302.391C315.253 302.39 315.176 302.42 315.117 302.474C315.058 302.527 315.021 302.601 315.013 302.681L314.57 307.204C314.566 307.248 314.571 307.293 314.585 307.334C314.599 307.376 314.621 307.415 314.65 307.447C314.68 307.48 314.716 307.507 314.756 307.525C314.796 307.543 314.839 307.553 314.883 307.553L357.354 307.902C357.397 307.902 357.44 307.893 357.48 307.876C357.52 307.859 357.556 307.834 357.586 307.803C357.616 307.771 357.639 307.734 357.654 307.693C357.669 307.652 357.676 307.609 357.673 307.565L357.437 302.74C357.432 302.658 357.396 302.581 357.337 302.525C357.278 302.469 357.199 302.438 357.117 302.438L315.333 302.391ZM374.396 308.038C374.436 308.039 374.475 308.031 374.511 308.014C374.547 307.998 374.579 307.974 374.605 307.945C374.631 307.915 374.65 307.88 374.661 307.842C374.672 307.804 374.674 307.764 374.668 307.725L373.923 302.663C373.913 302.598 373.88 302.539 373.83 302.497C373.78 302.454 373.717 302.431 373.651 302.432H359.258C359.222 302.433 359.186 302.441 359.153 302.456C359.12 302.47 359.09 302.492 359.065 302.518C359.04 302.545 359.021 302.576 359.008 302.61C358.996 302.644 358.99 302.68 358.992 302.716L359.246 307.648C359.251 307.716 359.28 307.78 359.33 307.827C359.379 307.874 359.444 307.901 359.512 307.902L374.396 308.038ZM393 308.086C393.035 308.086 393.068 308.078 393.099 308.061C393.129 308.045 393.155 308.021 393.173 307.992C393.191 307.963 393.202 307.93 393.204 307.895C393.206 307.861 393.199 307.827 393.183 307.796L390.67 302.556C390.654 302.523 390.629 302.495 390.597 302.475C390.566 302.455 390.53 302.445 390.493 302.444L375.733 302.456C375.704 302.456 375.676 302.463 375.65 302.475C375.624 302.488 375.602 302.505 375.583 302.527C375.565 302.549 375.551 302.574 375.543 302.602C375.535 302.629 375.533 302.658 375.538 302.687L376.306 307.861C376.313 307.908 376.337 307.951 376.373 307.982C376.408 308.014 376.454 308.031 376.502 308.032L393 308.086ZM393.284 302.45C393.144 302.451 393.006 302.489 392.886 302.561C392.766 302.633 392.667 302.737 392.601 302.86C392.534 302.984 392.502 303.123 392.508 303.263C392.514 303.403 392.557 303.539 392.633 303.656L395.241 307.624C395.311 307.732 395.407 307.821 395.519 307.882C395.632 307.944 395.758 307.977 395.886 307.979L406.542 308.074C406.661 308.075 406.779 308.05 406.886 307.999C406.994 307.948 407.088 307.873 407.162 307.78C407.236 307.687 407.288 307.578 407.314 307.462C407.34 307.346 407.339 307.225 407.311 307.11L406.317 303.041C406.276 302.87 406.178 302.718 406.04 302.61C405.901 302.502 405.73 302.443 405.554 302.444L393.284 302.45ZM421.533 307.607C421.569 307.605 421.605 307.596 421.637 307.58C421.67 307.564 421.699 307.542 421.722 307.514C421.746 307.486 421.763 307.454 421.773 307.419C421.783 307.384 421.786 307.347 421.781 307.311L421.184 302.663C421.175 302.6 421.144 302.543 421.096 302.501C421.048 302.46 420.987 302.438 420.924 302.438L408.062 302.456C408.022 302.456 407.984 302.465 407.948 302.482C407.913 302.498 407.882 302.523 407.857 302.554C407.833 302.585 407.816 302.621 407.807 302.659C407.798 302.697 407.799 302.737 407.807 302.775L409.049 307.837C409.063 307.897 409.097 307.949 409.146 307.986C409.195 308.023 409.255 308.041 409.315 308.038L421.533 307.607ZM246.896 315.312C246.68 315.313 246.467 315.27 246.268 315.185C246.07 315.1 245.891 314.975 245.743 314.818C245.595 314.661 245.481 314.476 245.407 314.273C245.334 314.07 245.304 313.854 245.317 313.638L245.637 308.517C245.638 308.488 245.634 308.459 245.624 308.432C245.614 308.405 245.599 308.38 245.579 308.359C245.559 308.338 245.535 308.321 245.508 308.31C245.481 308.298 245.453 308.292 245.424 308.293C216.736 307.953 187.923 307.701 158.987 307.536C150.503 307.488 142.975 307.612 136.403 307.908C134.954 307.973 134.523 309.552 134.186 310.658C133.985 311.336 134.227 311.758 134.913 311.923C137.282 312.503 139.652 312.881 142.021 313.059C154.392 313.965 167.254 314.539 180.606 314.78C202.08 315.166 223.566 315.529 245.063 315.868C246.049 315.883 247.034 315.893 248.02 315.897C259.669 315.941 271.546 316.015 283.648 316.122C301.779 316.284 322.131 316.412 344.705 316.506C349.479 316.526 354.103 316.552 358.578 316.583C358.613 316.583 358.647 316.575 358.678 316.559C358.709 316.543 358.735 316.521 358.755 316.493C358.775 316.464 358.788 316.432 358.792 316.399C358.796 316.365 358.791 316.331 358.779 316.299C358.026 314.364 357.726 312.266 357.88 310.007C357.885 309.943 357.876 309.878 357.855 309.817C357.834 309.756 357.801 309.7 357.757 309.652C357.713 309.604 357.66 309.566 357.601 309.54C357.542 309.513 357.478 309.499 357.413 309.499L314.7 309.103C314.614 309.101 314.53 309.131 314.465 309.188C314.399 309.244 314.357 309.324 314.345 309.41C314.126 311.06 313.979 314.058 312.228 314.738C311.424 315.05 310.338 315.227 308.97 315.27C301.349 315.519 293.688 315.582 285.984 315.46C281.112 315.383 280.532 313.822 280.715 309.185C280.731 308.858 280.573 308.693 280.242 308.689L262.786 308.494C262.537 308.49 262.397 308.612 262.366 308.86C262.224 310.007 262.119 311.17 262.052 312.349C261.966 313.843 261.171 314.649 259.669 314.768C255.309 315.111 251.051 315.292 246.896 315.312ZM259.853 313.242C259.988 313.236 260.117 313.181 260.216 313.088C260.315 312.994 260.377 312.869 260.391 312.734L260.781 309.091C260.789 309.012 260.781 308.932 260.757 308.857C260.732 308.781 260.692 308.712 260.639 308.653C260.586 308.594 260.522 308.546 260.449 308.514C260.377 308.481 260.299 308.464 260.219 308.464L247.748 308.34C247.601 308.338 247.46 308.393 247.353 308.493C247.246 308.594 247.182 308.732 247.174 308.878L246.944 313.201C246.939 313.28 246.952 313.359 246.98 313.433C247.008 313.507 247.051 313.574 247.107 313.63C247.163 313.686 247.23 313.73 247.303 313.759C247.377 313.788 247.456 313.801 247.535 313.798L259.853 313.242ZM312.092 308.908L282.643 308.86C282.511 308.86 282.385 308.913 282.292 309.006C282.199 309.099 282.146 309.225 282.146 309.357L282.14 310.942C282.141 311.725 282.464 312.476 283.039 313.03C283.615 313.585 284.395 313.897 285.21 313.898L309.502 313.946C309.906 313.947 310.307 313.871 310.681 313.722C311.055 313.574 311.394 313.357 311.68 313.082C311.967 312.807 312.194 312.481 312.348 312.122C312.503 311.763 312.583 311.378 312.583 310.989L312.589 309.404C312.589 309.273 312.537 309.146 312.443 309.053C312.35 308.96 312.224 308.908 312.092 308.908ZM360.062 309.493C359.945 309.493 359.829 309.517 359.722 309.566C359.615 309.615 359.52 309.686 359.443 309.774C359.366 309.863 359.309 309.967 359.276 310.08C359.243 310.193 359.235 310.311 359.252 310.427L359.897 314.898C359.924 315.088 360.019 315.263 360.162 315.39C360.306 315.518 360.491 315.591 360.683 315.596L374.793 315.95C374.907 315.953 375.022 315.932 375.128 315.888C375.234 315.844 375.329 315.777 375.408 315.694C375.487 315.61 375.547 315.51 375.585 315.402C375.622 315.293 375.636 315.178 375.626 315.063L375.207 310.303C375.189 310.1 375.096 309.911 374.946 309.773C374.796 309.636 374.6 309.559 374.396 309.558L360.062 309.493ZM408.346 314.171C408.39 314.19 408.439 314.198 408.487 314.191C408.535 314.185 408.58 314.165 408.618 314.135C408.655 314.104 408.683 314.063 408.699 314.017C408.715 313.971 408.717 313.922 408.706 313.875L407.725 309.765C407.711 309.708 407.679 309.656 407.633 309.62C407.586 309.583 407.529 309.564 407.47 309.564L399.357 309.546C399.297 309.545 399.239 309.565 399.192 309.602C399.145 309.639 399.112 309.691 399.099 309.749C399.086 309.807 399.093 309.868 399.12 309.922C399.146 309.975 399.19 310.018 399.245 310.043L408.346 314.171ZM406.252 325.518C393.42 325.264 380.594 325.329 367.761 325.193C316.169 324.637 264.576 324.085 212.983 323.537C189.833 323.293 160.562 322.711 125.168 321.793C122.053 321.71 118.446 321.466 114.346 321.06C114.106 321.036 113.946 321.139 113.867 321.367C112.962 324.152 114.482 325.306 117.043 325.483C121.336 325.775 127.001 325.99 134.038 326.128C151.589 326.47 173.025 326.689 198.347 326.784C246.593 326.969 294.837 326.928 343.079 326.66C362.404 326.553 381.735 326.175 401.06 325.968C402.799 325.95 404.543 325.779 406.288 325.773C406.359 325.773 406.392 325.737 406.388 325.666V325.66C406.388 325.57 406.343 325.522 406.252 325.518Z" fill="#020102"/>
<path d="M215.957 122.672L204.844 116.264L208.548 109.857L212.58 116.831L215.957 122.672ZM213.523 115.85L209.303 108.55L213.523 101.251H221.964L226.184 108.55L221.964 115.85H213.523ZM221.209 99.9438H214.279L217.744 93.9506L221.209 99.9438ZM222.907 100.27L219.531 94.4294L230.883 100.975V114.067L227.505 108.223L222.907 100.27ZM230.644 116.264L219.531 122.672L222.907 116.831L226.939 109.857L230.644 116.264ZM204.604 100.975L215.957 94.4294L212.58 100.27L207.982 108.223L204.604 114.067V100.975ZM221.209 117.157L217.744 123.15L214.279 117.157H221.209Z" stroke="#131316" stroke-width="1.30734"/>
<path d="M246.202 111.386C246.202 111.386 247.907 112.944 249.806 112.944C250.566 112.944 251.385 112.65 251.385 111.743C251.385 109.949 244.598 110.012 244.598 105.376C244.598 102.595 246.937 100.76 249.932 100.76C253.178 100.76 254.778 102.469 254.778 102.469L253.22 105.485C253.22 105.485 251.704 104.158 249.89 104.158C249.129 104.158 248.289 104.494 248.289 105.338C248.289 107.236 255.077 106.896 255.077 111.663C255.077 114.17 253.157 116.342 249.764 116.342C246.223 116.342 244.262 114.191 244.262 114.191L246.202 111.386Z" fill="#131316"/>
<path d="M258.428 101.012H262.115V110.537C262.115 112.116 263.149 112.961 264.728 112.961C266.307 112.961 267.34 112.116 267.34 110.537V101.012H271.028V110.537C271.028 113.931 268.541 116.333 264.745 116.333C260.91 116.333 258.419 113.931 258.419 110.537V101.012H258.428Z" fill="#131316"/>
<path d="M275.396 101.012H280.646C282.183 101.012 282.922 101.117 283.578 101.369C285.283 102.024 286.358 103.561 286.358 105.753C286.358 107.358 285.598 109.105 284.103 109.865V109.907C284.103 109.907 284.313 110.18 284.669 110.814L287.601 116.085H283.489L280.814 111.008H279.088V116.085H275.4V101.012H275.396ZM280.688 107.841C281.868 107.841 282.607 107.186 282.607 105.984C282.607 104.846 282.187 104.174 280.331 104.174H279.088V107.841H280.688Z" fill="#131316"/>
<path d="M290.806 101.012H300.247V104.174H294.493V106.913H299.088V110.075H294.493V112.923H300.545V116.085H290.806V101.012Z" fill="#131316"/>
<path d="M304.443 114.863H306.383V102.49H304.443V101.268H311.188C312.095 101.268 313.023 101.352 313.716 101.688C315.17 102.343 316.098 103.796 316.098 105.711C316.098 107.757 315.065 109.336 313.401 109.928C312.704 110.159 312.032 110.222 311.209 110.222H307.857V114.859H309.798V116.081H304.443V114.863ZM311.062 108.958C311.78 108.958 312.368 108.853 312.855 108.664C313.952 108.223 314.607 107.169 314.607 105.711C314.607 104.363 314.061 103.393 313.07 102.885C312.524 102.654 311.847 102.528 311.066 102.528H307.862V108.958H311.062Z" fill="#131316"/>
<path d="M319.008 114.863H320.949V102.49H319.008V101.268H329.487V104.342H328.135V102.532H322.423V107.988H328.03V109.256H322.423V114.817H328.538V112.901H329.865V116.085H319.008V114.863Z" fill="#131316"/>
<path d="M340.785 101.012C345.002 101.012 348.353 104.3 348.353 108.58C348.353 112.923 345.002 116.337 340.785 116.337C336.589 116.337 333.238 112.923 333.238 108.58C333.238 104.3 336.589 101.012 340.785 101.012ZM340.785 114.989C344.095 114.989 346.812 112.209 346.812 108.58C346.812 105.039 344.095 102.36 340.785 102.36C337.476 102.36 334.779 105.039 334.779 108.58C334.779 112.205 337.476 114.989 340.785 114.989Z" fill="#131316"/>
<path d="M351.663 114.863H353.603V102.49H351.663V101.268H358.408C359.315 101.268 360.244 101.352 360.937 101.688C362.39 102.343 363.318 103.796 363.318 105.711C363.318 107.757 362.285 109.336 360.622 109.928C359.924 110.159 359.252 110.222 358.429 110.222H355.078V114.859H357.018V116.081H351.663V114.863ZM358.282 108.958C359 108.958 359.588 108.853 360.076 108.664C361.172 108.223 361.827 107.169 361.827 105.711C361.827 104.363 361.281 103.393 360.29 102.885C359.744 102.654 359.068 102.528 358.286 102.528H355.082V108.958H358.282Z" fill="#131316"/>
<path d="M366.229 114.863H368.169V102.532H366.229V101.268H371.583V102.532H369.643V114.817H375.565V112.351H376.913V116.085H366.229V114.863Z" fill="#131316"/>
<path d="M379.74 114.863H381.68V102.49H379.74V101.268H390.214V104.342H388.866V102.532H383.154V107.988H388.761V109.256H383.154V114.817H389.265V112.901H390.597V116.085H379.74V114.863Z" fill="#131316"/>
</g>
<defs>
<clipPath id="clip0_564_3244">
<rect width="615" height="334" fill="white"/>
</clipPath>
</defs>
</svg>
