<svg width="615" height="395" viewBox="0 0 615 395" fill="none" xmlns="http://www.w3.org/2000/svg">
<g clip-path="url(#clip0_564_3346)">
<path d="M343.192 158.304L352.657 164.741C356.216 166.809 360.368 168.78 364.474 169.342C375.31 170.818 371.923 186.015 370.589 193.262C369.098 201.392 370.769 209.051 375.198 216.275C376.777 218.848 378.268 221.425 379.672 224.008C383.224 230.535 384.115 237.782 386.184 244.638C386.903 247.261 387.967 249.696 389.376 251.945C389.494 252.13 389.556 252.346 389.555 252.566C389.553 252.787 389.489 253.003 389.368 253.189L385 259.843C381.622 263.934 378.73 267.944 376.322 271.87C372.88 277.496 371.838 283.593 373.197 290.162C373.267 290.497 373.249 290.754 373.145 290.934C372.99 291.219 372.73 291.349 372.365 291.324C372.1 291.309 371.933 291.176 371.863 290.927C371.538 289.758 371.294 288.626 371.129 287.532C369.945 279.769 361.275 270.169 354.86 265.403C352.395 263.582 349.525 261.154 348.048 258.359C347.848 257.984 347.669 257.994 347.509 258.389C344.966 264.834 343.127 270.182 341.993 274.433C339.95 282.082 339.108 290.067 339.468 298.39C339.474 298.534 339.447 298.678 339.389 298.809C339.33 298.941 339.242 299.057 339.13 299.149C339.019 299.24 338.888 299.305 338.748 299.337C338.608 299.369 338.462 299.368 338.322 299.335C334.295 298.365 329.851 297.064 324.99 295.43C322.767 294.686 320.644 294.239 318.621 294.089C317.656 294.014 317.634 294.131 318.553 294.441C320.931 295.246 323.494 296.087 326.242 296.967C329.089 297.881 336.081 300.286 333.038 304.393C332.834 304.673 332.904 304.785 333.248 304.73C337.465 304.091 341.606 303.279 345.673 302.295C345.933 302.23 346.19 302.237 346.445 302.317C350.236 303.501 354.036 304.68 357.843 305.854C358.997 306.209 360.178 306.314 361.387 306.169C364.285 305.809 367.19 305.452 370.102 305.097C371.406 304.937 372.687 305.035 373.946 305.389C400.689 312.928 427.394 320.457 454.061 327.975C454.411 328.075 454.763 328.093 455.118 328.028L523.123 316.15C523.523 316.08 523.525 316.001 523.13 315.911L432.824 295.393C432.499 295.323 432.175 295.31 431.85 295.355L381.32 302.879C380.98 302.929 380.773 302.787 380.698 302.452L380.631 302.145C380.551 301.78 380.691 301.555 381.05 301.47C381.52 301.365 381.87 301.243 382.1 301.103C382.609 300.783 382.612 300.461 382.107 300.136L377.289 297.071C377.13 296.971 377.013 296.815 376.962 296.634C376.911 296.453 376.929 296.259 377.011 296.09L377.139 295.835C377.221 295.662 377.367 295.528 377.546 295.458C377.726 295.389 377.926 295.389 378.105 295.46L379.222 295.902C379.512 296.017 379.796 296.007 380.076 295.873C381.99 294.933 383.361 293.46 384.19 291.451C384.295 291.201 384.313 290.947 384.243 290.687C383.708 288.714 383.613 286.69 383.958 284.617C383.979 284.494 384.028 284.377 384.1 284.274C384.172 284.172 384.266 284.087 384.375 284.026C384.484 283.964 384.605 283.927 384.73 283.918C384.855 283.909 384.98 283.928 385.097 283.973C387.652 284.984 386.978 288.828 386.109 290.762C386.009 290.997 385.991 291.236 386.056 291.481C387.502 296.614 392.156 295.902 392.718 290.987C392.753 290.717 392.698 290.465 392.553 290.23C390.635 287.097 389.398 281.852 391.017 278.225C391.091 278.058 391.212 277.917 391.365 277.818C391.518 277.719 391.697 277.666 391.88 277.667C392.064 277.668 392.243 277.722 392.397 277.822C392.551 277.922 392.673 278.065 392.748 278.232C394.277 281.689 394.854 285.479 394.479 289.6C394.414 290.305 394.726 290.734 395.416 290.889C395.616 290.934 395.815 290.937 396.015 290.897C396.449 290.8 396.847 290.583 397.165 290.271C397.483 289.958 397.708 289.562 397.814 289.128C398.511 286.236 398.743 282.039 397.177 279.207C396.372 277.743 395.928 276.232 395.843 274.673C395.818 274.223 395.581 273.978 395.131 273.939C385.352 273.107 380.024 279.829 376.052 287.54C375.897 287.839 375.652 287.977 375.318 287.952L374.988 287.929C374.93 287.925 374.873 287.909 374.821 287.881C374.77 287.853 374.725 287.814 374.69 287.767C374.655 287.72 374.631 287.666 374.619 287.608C374.607 287.551 374.608 287.492 374.621 287.435C374.988 285.891 375.917 284.64 376.457 283.126C377.391 280.508 378.258 277.863 379.057 275.19C379.781 272.772 382.169 268.128 386.221 261.259C387.245 259.491 388.699 257.235 390.582 254.492C393.572 250.131 397.304 245.448 402.272 243.679C404.456 242.9 405.869 243.484 406.514 245.433C406.859 249.419 404.798 253.308 402.692 256.838C400.991 259.693 401.621 263.342 402.939 266.542C404.388 270.049 405.557 273.389 406.446 276.561C406.526 276.846 406.684 277.078 406.919 277.258C411.25 280.555 415.019 283.388 420.58 283.193C420.619 283.191 420.657 283.18 420.691 283.162C420.725 283.143 420.755 283.117 420.778 283.086C420.801 283.054 420.817 283.018 420.824 282.979C420.831 282.941 420.829 282.901 420.819 282.863C418.796 275.19 417.799 267.419 420.857 259.85C422.251 256.396 425.555 251.96 426.919 248.1C427.788 245.647 428.438 242.997 428.868 240.15C429.13 238.381 429.789 235.773 430.666 234.2C432.689 230.578 433.806 228.142 434.016 226.893C434.935 221.343 436.581 216.097 438.954 211.157L442.603 196.431C444.627 188.818 448.853 176.933 459.06 178.379C462.342 178.844 465.517 179.323 468.584 179.818C472.668 180.477 480.064 180.013 478.708 173.943C476.834 165.555 477.012 157.379 479.24 149.416C480.654 144.38 482.292 139.04 484.156 133.395C487.251 124.028 491.747 116.302 499.428 110.292C506.682 104.619 515.195 99.8306 524.494 100.857C526.677 101.102 528.558 102.201 530.137 104.154C530.736 104.889 532.115 105.736 533.082 105.706C537.548 105.556 541.355 105.159 545.132 108.081C551.756 113.207 553.517 122.124 554.559 130.075C555.418 136.57 555.65 142.824 555.256 148.839C554.302 163.512 552.048 176.888 548.496 188.968C545.704 198.48 542.724 208.619 539.557 219.385C536.879 228.482 535.425 237.347 535.195 245.98C535.035 251.89 535.752 257.415 537.346 262.556C537.392 262.708 537.395 262.871 537.354 263.025C537.313 263.179 537.23 263.318 537.114 263.427C536.997 263.536 536.853 263.611 536.697 263.642C536.541 263.674 536.379 263.661 536.229 263.605C530.871 261.596 526.285 257.505 522.666 253.226C518.085 248.1 515.697 242.043 515.502 235.054C515.447 228.14 516.334 221.295 518.162 214.521C520.21 206.943 522.146 199.569 523.97 192.4C525.918 184.771 526.817 176.221 525.146 168.555C523.49 160.941 518.552 154.632 518.072 146.703C517.757 141.555 520.403 135.928 517.33 131.207C515.562 128.479 512.512 126.98 513.771 122.709C513.861 122.394 513.768 122.324 513.494 122.499C509.877 124.827 506.312 126.62 502.8 127.879C494.422 130.892 491.222 136.302 488.959 144.89C486.524 151.949 484.291 159.143 485.033 165.475C485.607 170.366 486.182 175.257 486.756 180.148C486.891 181.302 487.198 182.543 487.678 183.872C487.783 184.157 487.968 184.372 488.232 184.517C489.591 185.266 490.57 186.133 491.17 187.117C491.405 187.502 491.322 187.806 490.923 188.031C490.658 188.181 490.638 188.358 490.863 188.563C495.411 192.715 500.162 192.287 504.823 189.088C507.304 187.387 510.766 184.974 513.733 185.588C515.247 185.903 516.174 186.722 516.513 188.046C517.008 189.987 514.693 192.857 513.194 194.019C508.238 197.85 504.077 203.338 500.709 210.482C499.63 212.775 499.011 214.951 498.851 217.009C498.646 219.587 499.126 222.07 500.29 224.458C502.977 229.973 506.662 235.326 511.343 240.517L513.696 243.717C514.175 244.366 514.053 244.873 513.329 245.238C507.753 248.07 504.321 254.02 500.559 259.011C499.91 259.875 499.358 259.955 498.903 259.251C497.914 255.029 496.088 250.958 493.425 247.036C490.748 243.09 487.703 238.763 484.291 234.057C482.08 231.015 480.252 227.695 478.049 224.728C474.242 219.594 461.353 201.902 474.054 198.852C474.769 198.682 475.241 198.272 475.471 197.623C475.905 196.389 476.447 195.163 477.097 193.944C477.681 192.835 478.476 192.685 479.457 193.352C479.967 193.701 480.294 193.576 480.439 192.977C481.023 190.514 482.7 189.17 485.467 188.945C485.692 188.93 485.852 188.82 485.947 188.616C486.232 187.991 486.656 187.499 487.221 187.139C487.451 186.989 487.503 186.795 487.378 186.555C486.981 185.805 486.576 185.161 485.737 184.846C483.374 183.962 481.348 182.756 479.66 181.227C479.445 181.032 479.212 181.012 478.963 181.167C472.72 185.131 462.941 187.911 455.44 185.708C455.14 185.623 454.955 185.733 454.886 186.038L454.106 189.462L453.559 192.954C453.065 198.15 453.12 203.491 453.724 208.976C454.743 218.171 456.264 227.665 455.83 236.8C455.313 247.553 454.001 259.034 451.004 269.765C450.96 269.923 450.883 270.069 450.778 270.195C450.674 270.321 450.543 270.424 450.396 270.495C450.248 270.567 450.087 270.606 449.923 270.611C449.759 270.615 449.596 270.585 449.445 270.521C443.877 268.213 437.875 269.839 435.492 275.22C435.471 275.265 435.463 275.315 435.469 275.364C435.475 275.413 435.494 275.46 435.525 275.5C435.555 275.54 435.596 275.571 435.643 275.59C435.69 275.61 435.741 275.616 435.792 275.61C439.808 275.04 443.967 273.114 447.797 271.713C452.368 270.042 456.849 270.529 461.577 272.14C465.909 273.604 470.123 275.4 474.219 277.528C475.333 278.242 476.565 278.657 477.914 278.772L482.29 279.911L492.601 283.456C497.552 285.264 500.794 286.258 502.328 286.438C505.745 286.838 509.002 287.242 512.1 287.652C517.345 288.341 519.893 290.777 522.921 294.718C523.41 295.358 524 295.875 524.689 296.27C526.383 297.239 528.051 298.218 529.695 299.207C535.175 302.504 540.703 302.664 546.278 299.687C546.838 299.392 546.803 299.23 546.173 299.2C541.407 298.975 536.936 298.213 532.76 296.914C528.009 295.438 524.487 293.025 520.59 289.915C514.85 285.329 509.439 280.683 505.738 274.793C504.584 272.954 504.186 270.981 504.546 268.873C506.21 264.117 509.157 260.05 513.389 256.673C516.076 254.53 518.857 254.09 521.729 255.354C528.646 258.846 533.876 264.639 540.726 267.696C541.01 267.826 541.12 267.739 541.055 267.434C539.047 257.895 538.103 249.607 539.497 240.322C541.12 229.481 543.461 219.814 546.518 211.321C549.501 203.048 555.301 192.595 564.983 192.692C565.377 192.692 565.41 192.585 565.08 192.37C561.463 190.012 557.796 188.358 554.079 187.409C551.257 186.69 551.269 186.015 554.117 185.386C575.594 180.672 582.353 204.51 582.128 220.958C582.078 224.73 581.559 229.014 580.569 233.81C576.608 253.094 569.484 271.226 559.197 288.206C556.994 291.848 554.429 295.003 551.501 297.671C551.282 297.871 551.322 297.986 551.621 298.016C553.085 298.151 554.454 298.218 555.728 298.218C597.617 298.218 639.689 298.218 681.944 298.218C682.268 298.218 682.496 298.365 682.626 298.66C682.681 298.77 682.696 298.882 682.671 298.997C682.571 299.452 682.286 299.682 681.816 299.687C638.713 299.777 597.088 299.757 556.942 299.627C554.769 299.617 552.491 299.562 550.108 299.462C549.503 299.437 548.954 299.599 548.459 299.949C540.606 305.479 533.217 303.569 525.806 298.57C525.416 298.305 525.339 298.378 525.573 298.788C526.158 299.807 527.409 301.148 527.694 302.235C527.844 302.814 527.622 303.076 527.027 303.021C504.906 301.058 482.437 298.583 459.622 295.595C459.127 295.53 458.822 295.755 458.707 296.27C458.652 296.514 458.52 296.707 458.31 296.847C458.065 297.012 457.806 297.032 457.531 296.907C457.366 296.832 457.206 296.659 457.051 296.39C456.841 296.015 456.602 295.66 456.332 295.325C456.172 295.131 455.967 295.018 455.717 294.988C446.995 293.869 438.999 292.39 431.73 290.552C430.406 290.217 429.07 289.653 427.721 288.858C427.326 288.624 427.144 288.279 427.174 287.824C427.189 287.679 427.229 287.542 427.294 287.412C427.353 287.292 427.455 287.199 427.579 287.152C427.703 287.104 427.839 287.106 427.961 287.157C431.183 288.481 434.173 289.363 436.931 289.803C442.316 290.662 448.174 291.196 454.503 291.406C454.818 291.416 454.965 291.266 454.946 290.957C454.503 282.826 464.642 278.622 471.536 278.165C471.956 278.135 471.976 278.03 471.596 277.85C465.534 274.995 457.561 271.203 451.184 272.41C448.081 272.994 444.979 274.298 442.011 275.43C439.703 276.314 437.275 276.921 434.728 277.251C434.558 277.274 434.386 277.235 434.242 277.142C434.098 277.048 433.991 276.906 433.941 276.741C433.821 276.341 433.818 275.937 433.933 275.527C435.897 268.678 443.165 266.737 449.355 268.895C449.407 268.913 449.462 268.92 449.517 268.915C449.572 268.911 449.626 268.894 449.674 268.868C449.723 268.841 449.765 268.804 449.8 268.76C449.834 268.716 449.858 268.665 449.872 268.611C453.754 252.664 455.582 235.481 453.334 219.002C452.465 212.648 451.913 206.303 451.678 199.969L452.577 189.335L453.866 184.389C453.889 184.306 453.928 184.229 453.981 184.161C454.034 184.094 454.1 184.038 454.175 183.997C454.25 183.957 454.333 183.932 454.418 183.924C454.503 183.917 454.588 183.927 454.668 183.955C461.855 186.308 470.712 184.187 477.179 180.627C477.224 180.602 477.234 180.567 477.209 180.522V180.515C477.184 180.46 477.142 180.442 477.082 180.462C474.344 181.502 471.516 181.801 468.599 181.362C465.581 180.902 462.552 180.43 459.509 179.945C455.003 179.221 451.433 180.935 448.801 185.086C445.678 190.751 443.533 197.023 442.364 203.903C441.809 205.821 441.262 207.797 440.723 209.83C440.178 211.873 439.494 213.839 438.669 215.728C437.325 218.81 436.319 222.25 435.649 226.046C435.305 227.99 434.555 229.973 433.401 231.996C431.041 236.14 430.246 240.397 429.437 244.901C428.598 249.554 425.78 254.005 423.375 258.262C418.833 266.288 420.31 275.272 422.505 283.658C422.532 283.759 422.536 283.865 422.518 283.968C422.501 284.071 422.461 284.17 422.402 284.256C422.343 284.343 422.266 284.416 422.177 284.47C422.087 284.525 421.987 284.559 421.883 284.572C416.211 285.231 411.685 282.976 407.278 279.222C407.004 278.982 406.866 279.044 406.866 279.409C406.861 281.392 406.526 283.333 405.862 285.232C405.762 285.526 405.557 285.681 405.247 285.696C403.379 285.816 401.69 285.092 400.182 283.523C399.792 283.118 399.625 283.196 399.68 283.755C399.912 286.153 399.785 289.563 398.241 291.286C397.232 292.42 395.965 292.665 394.442 292.021C394.147 291.901 393.967 291.996 393.902 292.306C392.935 297.019 387.63 298.353 385.314 293.497C385.139 293.132 384.952 293.125 384.752 293.475C383.788 295.158 382.487 296.395 380.848 297.184C380.518 297.344 380.521 297.496 380.856 297.641C382.364 298.295 383.416 299.257 384.01 300.526C384.14 300.806 384.36 300.923 384.67 300.878C399.912 298.595 415.149 296.33 430.381 294.082C431.765 293.877 433.139 293.929 434.503 294.239C465.606 301.323 496.668 308.382 527.687 315.416C527.826 315.449 527.951 315.526 528.041 315.636C528.132 315.745 528.184 315.881 528.189 316.023C528.199 316.508 527.969 316.79 527.499 316.87C503.44 321.091 479.36 325.31 455.26 329.527C454.772 329.61 454.272 329.585 453.799 329.452C427.151 321.933 400.497 314.417 373.834 306.903C372.59 306.553 371.321 306.456 370.027 306.611C367.879 306.876 365.821 307.113 363.852 307.323C363.193 307.388 363.181 307.52 363.815 307.72C388.674 315.424 413.625 323.167 438.669 330.95C439.249 331.13 439.299 331.54 438.819 332.179C438.713 332.324 438.557 332.421 438.384 332.449L423.742 334.855L412.554 336.691L365.119 344.536C364.794 344.591 364.477 344.559 364.167 344.439L319.055 327.024L306.953 322.355L291.224 316.293C291.096 316.243 290.984 316.158 290.903 316.047C290.822 315.936 290.774 315.804 290.765 315.667C290.757 315.53 290.787 315.393 290.854 315.273C290.921 315.153 291.02 315.054 291.141 314.989C291.356 314.874 291.688 314.789 292.138 314.734C313.3 312.131 334.33 309.531 355.227 306.933C355.777 306.863 355.787 306.746 355.257 306.581L346.58 303.928C346.236 303.825 345.872 303.812 345.523 303.891C338.247 305.532 330.356 306.551 322.81 308.185C309.179 311.13 293.434 304.685 282.509 296.442C280.598 295.003 279.384 293.115 277.608 291.833C276.439 290.989 275.275 290.037 274.116 288.978C273.806 288.694 273.729 288.746 273.883 289.136C284.345 315.716 258.094 320.647 239.308 318.976C230.675 318.211 221.842 317.597 212.81 317.132C200.311 316.495 193.297 316.428 184.499 312.958C181.681 311.849 179.331 309.906 177.447 307.128C177.283 306.878 177.05 306.771 176.75 306.806C171.025 307.405 165.008 308.552 159.972 311.714C159.642 311.919 159.672 312.029 160.062 312.044C168.343 312.359 175.821 315.783 183.158 319.365C184.377 319.955 185.643 320.292 186.957 320.377C198.432 321.126 209.87 321.498 221.27 321.493C222.14 321.488 222.464 321.908 222.245 322.752C220.286 330.271 218.805 337.745 217.801 345.173C217.781 345.308 217.833 345.401 217.958 345.451L224.538 348.118C224.564 348.129 224.592 348.134 224.62 348.131C224.649 348.129 224.676 348.119 224.7 348.104C224.723 348.088 224.743 348.067 224.756 348.042C224.77 348.017 224.777 347.989 224.777 347.961C224.952 340.292 226.066 332.432 228.12 324.378C228.149 324.268 228.2 324.164 228.27 324.073C228.341 323.983 228.43 323.908 228.53 323.853C228.631 323.797 228.743 323.763 228.857 323.751C228.972 323.74 229.088 323.752 229.199 323.786C236.208 326.015 243.274 326.239 250.398 324.461C253.553 323.674 256.573 321.913 259.571 320.384C262.138 319.07 264.509 318.099 266.682 317.469C271.213 316.16 275.005 315.294 278.057 314.869C285.191 313.887 290.542 321.299 296.05 325.053C296.964 325.677 297.846 326.292 298.695 326.896C303.483 330.486 311.711 336.833 304.937 343.315C304.962 343.81 305.269 344.896 305.859 346.575C306.573 348.628 306.254 350.224 304.9 351.363C302.794 353.124 299.16 353.042 296.477 352.285C296.177 352.2 296.082 352.305 296.192 352.6C297.796 356.886 294.918 360.273 290.662 360.378L286.698 359.779C286.463 359.744 286.303 359.838 286.218 360.063C284.584 364.355 281.367 366.168 276.566 365.504C274.613 365.234 270.841 364.005 265.251 361.817C261.969 361.397 259.753 361.237 258.604 361.337C252.069 361.877 243.519 362.993 237.442 359.674C234.692 358.167 232.683 355.582 230.383 353.446C229.299 352.442 228.017 351.563 226.538 350.809C226.239 350.654 226.096 350.744 226.111 351.078L226.441 359.591C226.446 359.725 226.416 359.857 226.355 359.976C226.294 360.095 226.204 360.196 226.092 360.269C225.981 360.343 225.853 360.387 225.72 360.397C225.586 360.407 225.453 360.382 225.332 360.326L217.029 356.436C216.739 356.301 216.587 356.394 216.572 356.714L216.137 364.949C216.131 365.071 216.092 365.189 216.025 365.29C215.958 365.392 215.865 365.474 215.756 365.527C215.647 365.581 215.525 365.604 215.404 365.595C215.282 365.585 215.165 365.543 215.066 365.474C213.322 364.275 211.349 363.56 209.146 363.331C200.798 362.461 192.854 364.822 184.604 364.41C173.656 363.848 162.767 362.813 151.827 361.742L133.692 360.603C128.336 360.758 122.891 360.935 117.356 361.135C110.157 361.395 103.185 360.923 96.4408 359.719C89.3668 358.46 82.4801 355.087 78.2087 349.01C77.6942 348.281 77.2845 347.499 76.9798 346.665C76.8848 346.42 76.9323 346.208 77.1221 346.028C77.262 345.893 77.4319 345.838 77.6317 345.863C77.8215 345.888 77.9864 345.97 78.1263 346.11C81.0388 349.128 84.4285 351.068 88.2952 351.933C99.5807 354.461 110.839 354.273 122.069 351.371C127.26 350.027 132.68 348.63 138.33 347.182C141.817 346.287 146.389 345.611 152.044 345.151C157.339 345.191 161.448 345.613 164.371 346.417C167.244 347.207 170.126 347.934 173.019 348.598C178.314 350.012 183.677 350.988 189.108 351.528C194.106 352.03 199.696 351.378 204.829 351.543C208.121 351.653 211.534 352.485 215.066 354.038C215.201 354.098 215.275 354.056 215.29 353.911L216.107 346.402C216.122 346.262 216.067 346.16 215.942 346.095C213.11 344.576 210.782 342.456 208.958 339.733C206.91 336.681 205.881 335.147 205.871 335.132C200.805 329.032 194.203 325.727 187.017 322.61C185.578 321.985 184.017 321.618 182.333 321.508C173.696 320.964 165.837 320.369 158.758 319.725C153.07 319.208 143.936 317.267 141.935 311.287C141.845 311.027 141.67 310.86 141.41 310.785C135.558 309.061 129.061 307.518 122.998 308.275C121.013 308.529 119.341 307.345 119.289 305.307C119.279 304.967 119.224 304.623 119.124 304.273C119.054 304.033 118.924 303.836 118.734 303.681C117.191 302.422 114.778 300.961 113.916 299.454C112.103 296.292 114.898 293.527 115.295 290.53C115.809 286.693 115.575 282.826 114.59 278.929C113.571 274.935 112.237 270.949 111.563 266.909C109.652 255.579 110.911 244.061 111.698 232.678C112.425 222.217 110.814 211.464 106.25 202.756C100.442 191.673 90.7306 183.88 77.9989 183.295C77.8408 183.289 77.6896 183.227 77.5718 183.118C77.454 183.01 77.3771 182.863 77.3544 182.703C77.2995 182.303 77.4569 182.071 77.8265 182.006C83.8165 180.972 89.5516 179.428 95.032 177.375C102.925 174.423 110.801 171.468 118.66 168.51C123.945 166.527 128.938 163.844 133.639 160.462C133.701 160.417 133.771 160.385 133.844 160.368C133.918 160.351 133.993 160.35 134.067 160.364C134.336 160.414 134.509 160.564 134.584 160.814C134.634 160.974 134.599 161.169 134.479 161.399C131.996 166.18 130.43 171.05 129.78 176.011C128.816 183.395 127.674 189.647 126.356 194.768C126.291 195.013 126.383 195.16 126.633 195.21C131.813 196.199 136.534 198.207 140.796 201.235C141.42 201.68 141.488 202.197 140.998 202.786C137.544 206.96 131.871 209.216 126.888 210.819C126.618 210.904 126.483 211.089 126.483 211.374C126.488 212.693 126.635 213.782 126.925 214.641C128.444 219.142 129.316 222.217 129.54 223.866C130.135 228.247 130.694 232.601 131.219 236.927L134.771 255.099C137.948 269.312 140.466 283.725 142.325 298.338C142.759 301.733 142.572 305.584 142.962 309.256C142.991 309.516 143.129 309.686 143.374 309.766L149.076 311.632C149.346 311.722 149.523 311.629 149.608 311.354C150.668 307.852 151.492 304.36 152.081 300.878C154.07 289.048 155.766 277.181 157.17 265.276C158.354 255.244 158.641 245.298 158.031 235.436C157.677 230.126 156.87 224.895 155.611 219.744C155.136 217.781 154.577 215.733 153.932 213.599C151.299 204.882 148.817 196.124 146.484 187.327C143.089 174.527 141.957 161.503 147.106 149.191C147.24 148.867 147.15 148.784 146.836 148.944C145.787 149.469 144.723 150.111 143.643 150.87C132.338 158.858 120.443 165.21 107.959 169.926C94.2077 175.119 79.0255 176.731 66.2263 184.202C57.6536 189.203 53.1374 197.083 52.6778 207.844C52.4455 213.187 53.3747 216.949 55.0083 221.685C56.6569 226.489 56.8593 231.592 56.2897 236.613C55.6753 242.028 55.0558 247.336 54.4313 252.537C53.9317 256.748 54.0816 262.99 54.8809 271.263C55.7852 280.58 57.1865 289.948 59.0849 299.365C60.0141 303.971 61.0907 308.349 62.3146 312.501L65.8292 325.113L68.7367 338.504C68.7645 338.632 68.7634 338.765 68.7336 338.893C68.7037 339.021 68.6458 339.14 68.564 339.243C68.4822 339.345 68.3786 339.428 68.2607 339.486C68.1429 339.544 68.0136 339.574 67.8824 339.576L59.3771 339.696L25.6556 339.681L-28.8534 339.628C-29.0519 339.628 -29.2408 339.559 -29.3854 339.433C-29.6202 339.233 -29.7401 339.006 -29.7451 338.751C-29.7551 338.457 -29.6177 338.267 -29.3329 338.182L-28.0815 337.807C-27.9017 338.332 -27.4495 338.359 -26.7251 337.89L49.6953 338.099L53.607 338.084L66.8783 338.129C66.9103 338.13 66.942 338.123 66.9711 338.11C67.0003 338.097 67.0261 338.077 67.0469 338.053C67.0676 338.029 67.0828 338 67.0912 337.969C67.0996 337.938 67.1011 337.906 67.0956 337.875C64.9824 324.746 60.0665 311.946 57.4587 298.967C55.2206 287.802 53.7319 277.053 52.9925 266.722C52.7677 263.63 52.6903 260.45 52.7602 257.183C52.8951 250.551 54.0716 243.14 54.806 236.448C55.3605 231.387 55.1482 227.325 54.169 224.263C53.4297 221.935 52.6678 219.24 51.8835 216.177C51.299 213.899 51.0567 211.244 51.1566 208.212C51.7411 190.362 63.2738 181.729 78.9881 177.008C89.2094 173.935 100.12 171.523 110.162 167.513C118.949 164.011 127.43 159.643 135.603 154.407C139.747 151.754 143.921 148.427 148.462 146.539C148.773 146.409 149.042 146.193 149.237 145.916C149.432 145.639 149.545 145.312 149.563 144.972L151.062 116.646C152.201 103.592 154.562 89.8265 161.726 78.6759C173.663 61.1707 198.107 64.7002 214.931 72.2014C228.634 78.3112 239.962 87.0514 248.915 98.4218C252.736 103.27 256.041 111.281 246.816 113.237C246.372 113.327 246.167 113.599 246.202 114.054C246.392 116.576 246.776 119.147 247.356 121.765C247.756 123.568 247.721 126.241 247.251 129.783C246.512 133.075 245.577 136.302 244.448 139.465C243.879 141.053 243.916 142.23 244.044 143.848L243.984 153.141C243.982 153.186 243.991 153.231 244.008 153.274C244.026 153.316 244.052 153.354 244.086 153.385C244.119 153.416 244.158 153.44 244.202 153.454C244.245 153.469 244.29 153.475 244.336 153.47C261.721 151.799 278.402 145.212 290.684 132.788C290.879 132.593 290.979 132.356 290.984 132.076C291.064 126.93 291.753 121.735 293.052 116.489C293.112 116.249 293.025 116.089 292.79 116.009C290.107 115.135 288.551 113.139 288.121 110.022C287.577 106.04 288.179 102.313 289.927 98.8414C291.006 96.953 292.123 95.7365 293.277 95.192C294.011 94.8473 294.553 94.555 294.903 94.3152C295.118 94.1703 295.225 93.968 295.225 93.7082C295.32 88.3927 296.507 83.322 298.785 78.4961C305.424 65.6294 319.025 60.2565 332.934 63.239C341.319 65.0374 349.742 69.2339 355.092 75.8133C364.999 87.9981 362.114 105.368 355.055 118.37C355.021 118.431 355 118.499 354.993 118.569C354.986 118.639 354.994 118.71 355.016 118.777C355.037 118.845 355.073 118.907 355.119 118.961C355.166 119.014 355.223 119.058 355.287 119.089L357.153 119.974C357.408 120.098 357.533 120.303 357.528 120.588C357.43 128.441 353.399 135.695 345.051 136.677C344.923 136.691 344.8 136.735 344.692 136.805C344.584 136.876 344.494 136.97 344.429 137.082C342.58 140.189 340.56 143.124 338.366 145.887C337.772 146.631 337.422 147.41 337.317 148.225C336.838 151.792 336.898 155.386 337.497 159.008C337.557 159.353 337.675 159.373 337.849 159.068L339.236 156.655C339.615 155.996 340.108 155.901 340.712 156.37L343.192 158.304ZM294.304 114.541C294.397 114.539 294.489 114.558 294.574 114.598C294.658 114.638 294.732 114.697 294.789 114.771C294.847 114.844 294.886 114.93 294.905 115.021C294.923 115.113 294.92 115.207 294.896 115.298C293.377 120.783 292.56 126.488 292.445 132.413C292.44 132.673 292.503 132.918 292.633 133.147C292.94 133.702 293.075 133.927 292.947 134.601C292.723 135.793 292.453 137.029 292.55 138.258C293.994 156.248 300.653 172.11 312.528 185.843C312.604 185.93 312.699 185.999 312.806 186.042C312.913 186.085 313.028 186.103 313.143 186.092C313.258 186.082 313.369 186.045 313.467 185.983C313.565 185.921 313.646 185.837 313.705 185.738C319.213 176.288 323.791 166.382 328.894 156.648C329.294 155.883 329.179 155.798 328.55 156.393C325.792 158.991 322.662 160.931 319.16 162.215C307.927 166.344 299.422 158.761 296.432 148.382C293.352 137.696 293.06 124.312 297.024 113.544C297.384 112.555 297.963 111.681 298.762 110.921C300.571 109.203 301.662 106.985 302.037 104.267C302.662 99.7606 303.943 95.764 305.881 92.2769C308.392 87.7732 312.948 84.2662 317.999 87.8332C319.887 89.1596 322.06 91.4302 324.391 92.779C331.817 97.0954 340.495 96.8556 347.936 101.412C351.735 103.735 351.428 106.845 350.042 110.764C347.584 117.688 344.958 124.505 342.166 131.214C340.6 134.968 339.468 138.76 338.381 142.53C338.047 143.694 338.227 143.778 338.921 142.784C340.595 140.396 342.161 137.998 343.62 135.59C343.689 135.477 343.784 135.382 343.898 135.314C344.012 135.246 344.14 135.207 344.272 135.201C352.035 134.781 355.362 128.644 356.014 121.592C356.039 121.327 355.937 121.128 355.707 120.993L353.586 119.734C353.401 119.623 353.267 119.444 353.211 119.236C353.155 119.028 353.182 118.806 353.286 118.617C358.472 109.198 361.627 97.485 359.004 86.7991C356.404 76.233 347.749 69.5112 337.632 66.0716C315.773 58.6453 296.597 71.5719 296.642 94.9447C296.641 95.1126 296.586 95.2756 296.484 95.4083C296.383 95.5411 296.24 95.6362 296.08 95.6791C292.138 96.7507 290.519 100.063 289.718 103.915C288.968 107.504 289.028 114.691 294.304 114.541ZM165.158 76.7126C163.379 78.7009 161.988 80.6667 160.984 82.6101C155.596 93.0263 153.445 105.706 152.598 116.699L151.197 142.574C151.177 142.954 151.297 143.004 151.557 142.724C152.781 141.43 154.037 141.133 155.326 141.833C161.995 145.452 167.278 139.637 169.489 133.829C171.145 129.476 172.659 124.275 175.566 120.618C181.929 112.637 194.316 118.767 191.843 128.486C191.558 129.595 190.771 132.281 189.482 136.542C189.367 136.917 189.495 137.174 189.864 137.314L194.855 139.165C195.205 139.29 195.452 139.185 195.597 138.85C196.506 136.762 197.296 134.559 197.965 132.241C198.724 129.638 200.228 127.757 202.476 126.598C204.162 125.729 206.47 126.073 208.389 126.073C209.353 126.068 210.774 125.546 212.653 124.507C218.393 121.322 214.481 110.659 216.894 105.159C217.713 103.29 218.767 101.264 220.056 99.0812C226.636 87.9531 198.452 80.2871 192.008 78.4811C191.857 78.4395 191.726 78.3451 191.638 78.2147C191.55 78.0843 191.511 77.9264 191.528 77.7692L191.565 77.4395C191.61 77.0798 191.81 76.9199 192.165 76.9599C217.351 79.6051 240.784 95.9713 243.684 122.064C244.141 126.246 243.954 130.592 244.021 134.796C244.031 135.49 244.154 135.513 244.388 134.863C246.082 130.127 246.577 124.837 245.482 119.831C245.018 117.703 244.756 115.397 244.696 112.915C244.692 112.713 244.759 112.516 244.885 112.36C245.011 112.204 245.188 112.097 245.385 112.06C246.274 111.89 247.246 111.618 248.3 111.243C255.044 108.83 248.765 100.378 246.187 97.3352C236.835 86.2845 225.237 77.944 211.394 72.3138C200.018 67.6902 187.114 65.592 175.267 69.7435C171.285 71.1373 167.915 73.4603 165.158 76.7126ZM182.146 190.354C188.77 187.821 193.147 191.208 198.145 194.903C201.3 197.548 209.573 202.494 211.791 195.929C212.525 193.761 213.212 191.441 213.852 188.968C214.534 186.338 216.347 183.49 219.427 183.767C219.545 183.777 219.664 183.746 219.761 183.679C219.858 183.612 219.928 183.513 219.959 183.4C220.573 181.107 219.884 178.889 219.18 176.731C219.141 176.616 219.134 176.493 219.159 176.375C219.185 176.257 219.241 176.148 219.323 176.059C219.405 175.97 219.51 175.905 219.625 175.87C219.741 175.835 219.864 175.832 219.981 175.861C221.51 176.236 222.974 176.383 224.373 176.303C224.688 176.284 224.857 176.119 224.882 175.809C225.467 168.697 232.893 172.961 236.677 171.095C241.174 168.877 237.794 160.559 238.004 156.243C238.221 151.762 240.169 146.718 241.826 142.335C242.27 141.161 242.5 140.012 242.515 138.888C242.53 137.684 242.517 136.5 242.477 135.336L242.492 127.864C242.687 105.016 226.688 87.9006 205.736 81.3062C205.706 81.2962 205.686 81.3037 205.676 81.3287C205.676 81.3387 205.674 81.3512 205.669 81.3662C205.659 81.4111 205.676 81.4436 205.721 81.4636C211.206 83.5168 223.638 88.9198 222.499 96.5558C222.072 99.4109 219.862 102.259 218.603 104.919C216.759 108.853 217.449 114.473 217.321 118.64C217.134 124.852 211.566 128.112 205.961 127.52C198.452 126.733 199.659 136.939 195.912 140.686C195.811 140.785 195.684 140.853 195.546 140.882C195.408 140.911 195.265 140.9 195.132 140.851L188.553 138.423C188.313 138.333 188.113 138.161 187.99 137.937C187.866 137.713 187.827 137.452 187.879 137.202C188.378 134.838 188.973 132.71 189.662 130.817C190.342 128.948 190.634 127.142 190.539 125.399C190.284 120.73 185.563 117.426 181.082 118.7C178.314 119.489 176.261 121.38 174.922 124.372C173.613 127.3 172.262 130.625 170.868 134.346C168.245 141.346 162.228 147.003 154.427 143.092C154.157 142.957 153.885 142.952 153.61 143.077C152.846 143.431 152.211 143.926 151.707 144.56C151.257 145.125 151.025 145.969 151.01 147.093C150.77 162.33 154.539 176.526 162.318 189.68C163.722 192.053 165.353 194.006 167.211 195.54C169.729 197.618 172.479 199.362 175.462 200.77C175.541 200.808 175.628 200.828 175.716 200.83C175.804 200.831 175.891 200.814 175.971 200.779C176.051 200.744 176.123 200.693 176.181 200.628C176.239 200.563 176.283 200.486 176.308 200.403C177.47 196.731 178.571 192.467 182.146 190.354ZM342.975 125.122C345.338 119.606 347.426 113.961 349.24 108.186C350.009 105.728 349.255 103.847 346.977 102.543C344.309 101.01 341.894 99.9854 339.73 99.4709C335.534 98.4717 331.69 97.3876 328.198 96.2186C323.574 94.6749 320.839 92.1046 317.482 89.2795C315.588 87.6858 313.55 87.436 311.367 88.5301C307.785 90.3211 305.357 96.0837 304.503 99.7107C303.536 103.855 303.394 108.291 300.209 111.536C299.309 112.45 298.68 113.382 298.32 114.331C293.981 125.736 293.929 151.02 305.08 159.203C315.968 167.199 328.332 155.733 334.934 147.895C335.694 146.996 336.211 145.887 336.486 144.568C337.68 138.918 339.843 132.436 342.975 125.122ZM508.136 123.96C510.054 123.001 511.86 121.909 513.553 120.685C514.488 120.011 515.242 119.167 515.817 118.153C518.339 113.726 521.896 110.357 526.488 108.044C526.555 108.01 526.629 107.991 526.705 107.988C526.78 107.986 526.856 107.999 526.925 108.029C526.995 108.058 527.058 108.102 527.109 108.157C527.16 108.213 527.199 108.279 527.222 108.351C527.332 108.691 527.289 109.003 527.095 109.288C524.427 113.109 521.115 116.614 517.158 119.801C516.399 120.416 515.854 121.17 515.524 122.064C515.082 123.293 514.52 125.609 515.479 126.628C516.563 127.772 517.653 129.078 518.747 130.547C520.295 133.47 520.752 136.605 520.118 139.952C519.074 145.427 519.591 150.525 521.669 155.246C522.888 158.024 524.092 160.864 525.281 163.767C529.103 173.126 527.507 185.356 524.764 195.585C523.155 201.58 521.524 207.57 519.871 213.555C517.742 221.258 516.311 230.288 517.293 238.269C517.782 242.72 519.394 246.674 522.126 250.131C525.658 254.962 529.96 258.796 535.03 261.634C535.071 261.655 535.116 261.664 535.161 261.66C535.206 261.656 535.249 261.639 535.286 261.612C535.322 261.584 535.349 261.547 535.365 261.505C535.381 261.462 535.384 261.416 535.375 261.372C533.886 255.257 533.372 248.95 533.831 242.45C534.606 234.027 536.139 225.794 538.432 217.751C539.856 212.84 542.334 204.58 545.866 192.969C549.448 181.184 551.926 168.82 553.3 155.876C554.374 145.764 554.047 135.71 552.318 125.714C551.082 118.58 548.796 111.423 541.917 107.826C541.078 107.387 540.004 107.142 538.695 107.092C536.132 107.062 531.98 107.796 529.927 105.99C529.463 105.581 528.536 104.624 527.147 103.12C521.752 101.492 516.226 102.099 510.571 104.941C503.1 108.688 496.168 113.956 491.605 120.918C486.711 128.389 484.418 137.157 481.84 145.707C480.267 150.917 479.347 155.256 479.083 158.723C478.683 163.979 479.038 168.872 480.147 173.403C480.691 175.627 480.299 177.47 478.97 178.934C478.69 179.244 478.753 179.346 479.158 179.241C479.657 179.106 480.092 179.293 480.461 179.803C481.563 181.302 483.796 182.403 485.512 183.175C485.817 183.31 485.929 183.215 485.849 182.89C484.845 178.866 484.688 174.827 484.126 170.691C483.546 166.434 483.334 163.267 483.489 161.189C483.834 156.58 485.1 152.031 486.501 147.445C487.785 143.269 488.984 139.929 490.098 137.426C492.102 132.925 494.737 129.935 498.004 128.456C501.391 126.923 504.768 125.424 508.136 123.96ZM518.687 116.474L518.822 116.601C518.842 116.621 518.864 116.621 518.889 116.601C520.303 115.153 521.574 113.796 522.703 112.532C523.378 111.783 523.323 111.726 522.538 112.36C521.314 113.359 520.026 114.668 518.672 116.287C518.617 116.352 518.622 116.414 518.687 116.474ZM308.174 243.012C307.99 243.042 307.825 243.02 307.68 242.945C307.45 242.825 307.34 242.635 307.35 242.375C307.755 234.497 308.419 226.643 309.343 218.815C309.953 213.669 310.757 209.026 311.756 204.884C312.206 203.011 312.301 201.175 312.041 199.376C311.322 194.386 309.613 190.079 306.916 186.457C306.506 185.903 305.926 185.703 305.177 185.858C304.912 185.908 304.762 186.068 304.727 186.338C304.373 189.025 302.607 190.362 299.429 190.347C299.308 190.346 299.19 190.316 299.083 190.259C298.977 190.201 298.886 190.118 298.819 190.018C298.753 189.917 298.712 189.801 298.701 189.681C298.689 189.56 298.708 189.439 298.755 189.327C299.639 187.264 301.008 185.77 302.861 184.846C303.096 184.726 303.184 184.539 303.124 184.284C302.629 182.211 301.975 180.413 301.16 178.889C298.702 174.313 296.537 169.801 294.663 165.355C290.742 156.043 289.565 146.381 291.134 136.37C291.144 136.32 291.126 136.282 291.081 136.257C291.061 136.247 291.039 136.237 291.014 136.227C290.944 136.207 290.894 136.23 290.864 136.295C288.668 140.499 286.75 144.118 287.147 148.944C287.814 157.15 290.917 165.13 292.535 172.249C299.135 201.225 303.708 229.489 306.256 257.04C306.281 257.32 306.433 257.49 306.713 257.55C310 258.284 313.283 258.594 316.56 258.479C316.75 258.469 316.787 258.392 316.672 258.247C316.607 258.167 316.547 258.082 316.492 257.992C316.398 257.832 316.355 257.647 316.365 257.437C316.897 245.343 319.415 233.66 322.727 221.82C325.19 213.007 327.661 204.222 330.138 195.465C330.198 195.25 330.163 195.05 330.034 194.865C327.688 191.643 322.382 186.345 318.598 191.433C316.845 193.791 315.473 196.636 314.484 199.969C314.01 201.587 313.835 203.386 313.96 205.364C314.129 208.007 314.082 210.649 313.817 213.292C312.888 222.604 311.172 232.364 308.669 242.57C308.604 242.825 308.439 242.972 308.174 243.012ZM284.539 207.65L291.389 226.384C293.102 231.424 294.781 236.503 296.424 241.618C297.189 244.009 297.474 246.302 298.058 248.685C298.727 251.388 299.921 254.07 301.64 256.733C301.835 257.028 302.11 257.183 302.464 257.198L304.488 257.28C304.522 257.281 304.556 257.275 304.587 257.263C304.619 257.25 304.647 257.231 304.671 257.207C304.694 257.183 304.712 257.154 304.723 257.123C304.734 257.091 304.738 257.058 304.735 257.025C303.576 244.056 301.97 231.205 299.916 218.47L298.927 212.438C296.649 198.899 293.959 185.426 290.857 172.017C289.947 168.065 289.028 164.566 288.099 161.518C285.941 154.437 284.052 146.059 287.724 139.3C288.299 138.241 288.186 138.161 287.387 139.06C278.574 148.952 272.714 162.433 270.444 175.112C270.399 175.372 270.509 175.512 270.774 175.532C275.535 175.876 280.013 176.993 284.21 178.881C284.339 178.94 284.451 179.029 284.537 179.141C284.623 179.254 284.679 179.386 284.702 179.525C284.724 179.665 284.711 179.808 284.664 179.941C284.618 180.075 284.539 180.195 284.435 180.29C281.662 182.838 278.35 183.647 274.933 184.659C274.693 184.729 274.635 184.871 274.76 185.086C276.714 188.538 278.42 192.11 279.878 195.802C281.472 199.834 283.026 203.783 284.539 207.65ZM195.575 194.948C194.026 193.674 192.505 192.675 191.011 191.95C186.972 189.987 181.554 190.579 179.74 195.225C178.896 197.383 178.082 199.549 177.298 201.722C177.003 202.541 176.456 202.781 175.656 202.441C173.009 201.327 170.491 199.836 168.103 197.968C167.998 197.888 167.903 197.895 167.818 197.99L167.661 198.163C167.641 198.183 167.641 198.205 167.661 198.23C169.724 200.408 171.667 202.661 173.491 204.989C174.02 205.669 174.407 206.431 174.652 207.275C174.822 207.854 174.647 208.294 174.128 208.594L164.206 214.319C163.781 214.564 163.811 214.651 164.296 214.581C167.683 214.109 170.306 212.978 172.771 216.035C172.951 216.265 173.109 216.25 173.243 215.99C177.028 208.586 181.929 200.598 188.77 195.75C188.98 195.605 189.21 195.542 189.46 195.562L190.554 195.652C187.267 208.401 184.072 220.838 180.969 232.963C177.35 247.096 174.937 261.701 174.907 276.329C174.897 282.574 175.082 288.818 175.462 295.063C175.671 298.46 176.431 301.643 177.74 304.61C177.885 304.94 178.137 305.077 178.497 305.022C195.068 302.619 211.249 299.682 227.041 296.21C227.38 296.135 227.418 295.985 227.153 295.76C226.239 294.991 225.652 293.947 225.392 292.628C225.362 292.486 225.369 292.338 225.412 292.198C225.455 292.058 225.533 291.93 225.639 291.826L226.478 290.994C226.723 290.754 226.693 290.554 226.389 290.395L224.155 289.241C220.738 286.528 219.21 282.549 217.988 278.457C216.31 272.138 214.511 265.803 212.593 259.453C209.041 247.681 208.186 236.418 211.514 224.743C212.977 219.632 214.898 214.022 217.276 207.912C218.75 204.125 219.812 199.879 220.461 195.173C220.696 193.474 221.413 191.983 222.612 190.699C222.709 190.594 222.826 190.511 222.956 190.452C223.087 190.394 223.227 190.363 223.37 190.36C223.512 190.357 223.654 190.383 223.786 190.436C223.919 190.489 224.039 190.568 224.14 190.669C228.742 195.203 226.636 202.516 227.857 208.309C229.216 214.714 231.459 220.721 234.587 226.331C238.858 233.995 243.509 241.329 248.54 248.333L258.941 263.118L267.904 276.666C268.033 276.861 268.106 276.841 268.121 276.606C268.291 273.089 269.475 270.032 271.673 267.434C275.405 263.028 281.197 263.14 286.3 263.2C286.57 263.2 286.818 263.125 287.042 262.975C288.421 262.031 289.835 261.941 291.284 262.706C291.377 262.756 291.456 262.83 291.512 262.921C291.569 263.011 291.601 263.115 291.606 263.223C291.626 263.722 291.386 264.024 290.887 264.129C289.852 264.354 288.858 264.499 287.904 264.564C287.512 264.593 287.143 264.763 286.862 265.044C280.583 271.346 274.52 280.983 278.889 290.042C279.404 291.112 280.218 291.921 281.332 292.47C285.114 294.344 289.038 295.345 293.105 295.475C293.459 295.485 293.544 295.338 293.36 295.033C290.025 289.66 290.205 281.275 291.898 275.722C292.91 272.38 292.947 269.345 292.94 265.95C292.93 261.289 295.233 258.429 299.849 257.37C300.164 257.295 300.231 257.125 300.051 256.86C298.158 254.033 296.897 250.9 296.267 247.463C295.031 240.779 292.43 234.065 290.235 227.635L283.925 210.317C279.938 199.466 277.136 192.003 273.112 185.258C272.602 184.404 272.822 183.825 273.771 183.52C276.014 182.8 278.207 182.051 280.35 181.272C281.09 181.002 281.787 180.6 282.441 180.065C282.471 180.041 282.494 180.01 282.508 179.974C282.522 179.938 282.526 179.9 282.521 179.863C282.516 179.825 282.501 179.791 282.478 179.762C282.454 179.733 282.424 179.711 282.389 179.698C278.112 178.02 273.799 177.103 269.447 176.948C269.351 176.945 269.256 176.922 269.17 176.879C269.083 176.836 269.007 176.775 268.946 176.699C268.885 176.624 268.84 176.536 268.816 176.442C268.791 176.348 268.787 176.25 268.803 176.154C271.006 162.98 276.109 151.097 284.112 140.506C284.132 140.476 284.157 140.471 284.187 140.491C284.247 140.526 284.267 140.521 284.247 140.476C272.342 148.824 258.784 153.665 243.572 154.999C242.847 155.064 242.485 154.734 242.485 154.01L242.507 145.572C242.507 145.152 242.43 145.137 242.275 145.527C241.281 148.025 240.477 150.705 239.862 153.568C239.068 157.285 239.862 160.844 240.409 164.516C240.659 166.185 240.572 167.721 240.147 169.125C238.738 173.801 233.702 173.269 229.753 172.946C226.801 172.707 226.366 174.917 226.164 177.15C226.147 177.338 226.06 177.511 225.921 177.637C225.782 177.762 225.601 177.829 225.414 177.825L221.495 177.727C221.15 177.717 221.033 177.877 221.143 178.207C221.937 180.635 221.89 182.845 221.001 184.839C220.876 185.114 220.661 185.238 220.356 185.213C217.803 184.989 216.177 186.133 215.478 188.646C214.863 190.864 214.214 193.182 213.529 195.6C211.641 202.277 205.489 201.347 200.91 198.56C198.932 197.356 197.153 196.152 195.575 194.948ZM291.981 148.112C292.655 155.281 294.558 162.133 297.691 168.667C299.389 172.214 301.083 175.579 302.772 178.761C303.516 180.155 304.1 181.879 304.525 183.932C304.58 184.192 304.74 184.327 305.005 184.337L306.608 184.389C306.878 184.399 307.1 184.504 307.275 184.704C310.443 188.286 312.426 192.62 313.225 197.705C313.33 198.39 313.487 198.402 313.697 197.743C315.736 191.178 320.419 183.917 327.973 190.437C328.527 190.916 329.067 191.426 329.591 191.965C329.851 192.235 329.984 192.185 329.989 191.815C330.123 181.709 330.386 171.647 330.775 161.631C330.825 160.407 330.628 159.17 330.183 157.922C330.172 157.89 330.151 157.862 330.124 157.842C330.097 157.821 330.065 157.809 330.032 157.806C329.998 157.802 329.964 157.809 329.934 157.824C329.904 157.839 329.879 157.863 329.861 157.892C326.122 164.883 322.967 172.174 319.16 179.121C317.731 181.714 316.32 184.187 314.926 186.54C313.023 189.747 309.748 184.996 308.504 183.385C300.026 172.429 294.561 160.237 292.108 146.808C292.083 146.688 292.061 146.688 292.041 146.808C291.961 147.253 291.941 147.688 291.981 148.112ZM330.558 155.658C332.409 157.907 332.357 161.211 332.229 164.104C331.835 172.727 331.602 180.812 331.532 188.361C331.517 189.445 331.64 189.46 331.899 188.406C333.623 181.382 335.237 174.325 336.74 167.236C336.99 166.077 337.025 164.988 336.845 163.969C336.036 159.33 335.377 155.374 335.594 149.873C335.614 149.459 335.491 149.411 335.227 149.731C333.588 151.724 331.857 153.525 330.034 155.134C329.889 155.259 329.909 155.351 330.093 155.411L330.303 155.479C330.408 155.514 330.493 155.573 330.558 155.658ZM157.919 184.457C152.439 173.621 149.656 162.11 149.571 149.926C149.571 149.861 149.538 149.826 149.474 149.821H149.466C149.401 149.816 149.364 149.846 149.354 149.911C148.604 155.341 148.704 160.729 149.653 166.075C150.47 170.683 151.317 174.445 153.393 178.267C155.036 181.289 156.817 184.057 158.736 186.57C159.095 187.044 159.15 187.012 158.901 186.472C158.621 185.873 158.294 185.201 157.919 184.457ZM186.597 205.446L188.261 198.507C188.406 197.908 188.251 197.815 187.796 198.23C181.606 203.835 177.02 211.344 173.423 218.957C173.094 219.602 172.696 220.361 172.232 221.236C172.027 221.61 171.735 221.735 171.355 221.61C171.045 221.5 170.928 221.288 171.003 220.973L171.662 218.178C171.697 218.025 171.699 217.867 171.67 217.714C170.786 213.052 162.28 216.627 160.115 217.953C159.505 218.108 159.125 218.016 158.975 217.676C158.881 217.456 158.873 217.204 158.953 216.919L162.64 213.607L172.719 207.739C172.802 207.691 172.873 207.626 172.927 207.547C172.982 207.468 173.019 207.378 173.035 207.284C173.052 207.189 173.047 207.091 173.022 206.998C172.998 206.904 172.953 206.817 172.891 206.743L167.938 200.733C166.794 199.179 165.695 197.633 164.641 196.094C163.667 194.67 162.48 193.194 161.081 191.666C155.671 185.738 150.688 178.297 148.971 170.346C147.668 164.296 147.17 158.484 147.48 152.908C147.53 152.019 147.425 151.999 147.165 152.848C145.052 159.668 144.515 166.916 145.554 174.595C147.375 188.069 152.246 201.61 155.911 214.813C158.623 224.575 159.95 234.527 159.89 244.668C159.792 260.323 157.679 275.085 155.169 290.814C153.595 300.676 152.951 305.569 150.74 312.831C150.705 312.945 150.648 313.05 150.571 313.141C150.495 313.233 150.401 313.307 150.295 313.361C150.189 313.415 150.074 313.447 149.956 313.455C149.838 313.463 149.72 313.447 149.608 313.408L143.973 311.497C143.925 311.482 143.872 311.482 143.824 311.497C143.775 311.512 143.732 311.541 143.701 311.58C143.67 311.62 143.652 311.667 143.649 311.717C143.647 311.766 143.661 311.815 143.688 311.857C146.716 316.465 154.554 317.866 159.687 318.324C166.751 318.953 173.651 319.488 180.385 319.927C180.735 319.947 180.752 319.88 180.437 319.725C173.146 316.173 165.517 312.981 157.177 313.79C157.081 313.799 156.985 313.776 156.904 313.724C156.822 313.673 156.76 313.596 156.727 313.505C156.578 313.07 156.67 312.691 157.005 312.366C161.958 307.63 169.144 306.206 175.904 305.382C176.218 305.347 176.316 305.182 176.196 304.887C174.717 301.215 173.91 297.316 173.775 293.19C173.506 285.044 173.146 276.546 173.596 268.963C174.145 259.716 175.392 250.743 177.335 242.045C179.858 230.725 182.945 218.525 186.597 205.446ZM341.889 175.584L346.325 187.911C346.37 188.036 346.384 188.169 346.364 188.3C346.344 188.431 346.292 188.555 346.213 188.661C346.133 188.767 346.028 188.851 345.908 188.906C345.787 188.961 345.655 188.985 345.523 188.975C343.49 188.845 341.601 189.46 339.858 190.819C339.513 191.088 339.451 191.413 339.67 191.793C341.596 195.098 344.481 198.74 348.341 199.721C348.423 199.741 348.499 199.779 348.565 199.832C348.631 199.885 348.685 199.952 348.723 200.028C348.761 200.104 348.781 200.188 348.784 200.274C348.787 200.359 348.771 200.444 348.738 200.523C345.955 207.097 343.177 212.868 340.405 217.833C333.211 230.715 324.975 244.526 317.639 258.194C317.519 258.414 317.584 258.529 317.834 258.539C320.876 258.674 325.065 258.906 327.276 261.177C327.431 261.332 327.529 261.539 327.553 261.761C328.535 270.799 316.485 269.495 311.202 269.465C309.393 269.455 307.67 269.862 306.031 270.686C305.961 270.723 305.903 270.779 305.864 270.848C305.825 270.917 305.807 270.996 305.813 271.075C305.819 271.153 305.847 271.229 305.895 271.292C305.943 271.355 306.009 271.402 306.084 271.428C314.649 274.298 324.256 272.14 332.514 276.734C332.615 276.79 332.704 276.868 332.773 276.961C332.843 277.054 332.893 277.16 332.919 277.273C333.87 281.17 329.554 282.864 326.204 283.336C325.53 283.431 325.517 283.585 326.167 283.8C329.494 284.894 334.065 286.52 336.156 289.465C336.385 289.789 336.505 290.178 336.497 290.574C336.489 290.971 336.354 291.355 336.111 291.669C334.417 293.872 330.798 294.501 328.175 294.411C327.136 294.376 327.109 294.524 328.093 294.853C331.225 295.907 334.38 296.837 337.557 297.641C337.605 297.653 337.655 297.653 337.704 297.642C337.752 297.631 337.797 297.609 337.835 297.578C337.874 297.547 337.904 297.507 337.925 297.462C337.946 297.417 337.956 297.368 337.954 297.319C337.61 287.582 338.973 278.16 342.046 269.053C343.475 264.816 345.018 260.617 346.677 256.456C346.772 256.221 346.784 255.984 346.714 255.744C345.346 250.843 345.143 245.86 346.107 240.794C347.686 232.521 350.584 224.433 354.8 216.53C355.634 214.966 356.191 215.061 356.471 216.814C358.502 229.628 353.414 243.859 348.603 255.572C348.508 255.801 348.51 256.031 348.61 256.261C349.614 258.529 351.066 260.41 352.964 261.904C355.642 264.017 357.89 265.9 359.708 267.554C364.27 271.7 368.014 276.584 370.941 282.204C371.081 282.469 371.169 282.454 371.204 282.159C371.588 279.142 372.415 276.297 373.684 273.624C376.981 267.464 381.328 262.106 385.584 256.441C386.114 255.731 386.836 254.547 387.75 252.889C387.806 252.787 387.837 252.673 387.841 252.557C387.845 252.441 387.821 252.326 387.772 252.222L385.277 246.954C383.948 242.253 382.744 237.742 381.665 233.42C380.721 229.648 379.759 226.951 378.78 225.327C375.842 220.471 373.647 216.659 372.193 213.892C368.858 207.537 367.809 200.216 369.106 193.104C369.99 188.278 370.934 183.482 370.597 178.544C370.379 175.434 368.484 171.448 365.089 170.923C362.236 170.483 359.921 169.876 358.142 169.102C355.859 168.098 353.591 166.976 351.338 165.737L340.465 158.146C340.26 158.006 340.093 158.041 339.963 158.251C338.674 160.319 338.184 162.273 338.494 164.111C338.978 166.939 340.11 170.763 341.889 175.584ZM133.879 258.007L130.305 240.824C129.545 235.513 128.781 230.153 128.012 224.743C127.772 223.071 127.592 221.543 127.022 219.947C126.023 217.169 125.319 214.369 124.909 211.546C124.749 210.427 125.212 209.705 126.296 209.381C131.047 207.957 135.7 205.986 139.35 202.561C139.389 202.524 139.42 202.479 139.44 202.428C139.459 202.378 139.467 202.323 139.463 202.269C139.459 202.215 139.442 202.163 139.415 202.116C139.387 202.069 139.35 202.029 139.305 201.999C134.923 199.042 130.152 197.196 124.992 196.461C124.894 196.447 124.8 196.41 124.718 196.354C124.636 196.299 124.568 196.226 124.517 196.14C124.467 196.055 124.437 195.959 124.428 195.861C124.419 195.762 124.433 195.663 124.467 195.57C125.157 193.726 125.656 191.94 125.966 190.212C126.885 185.116 127.774 179.748 128.634 174.108C129.113 170.98 130.075 167.653 131.519 164.126C131.654 163.802 131.571 163.732 131.271 163.916C127.2 166.444 122.162 168.835 116.157 171.088C107.704 174.265 99.8729 177.15 92.664 179.743C90.2111 180.627 87.3135 181.497 83.9714 182.351C83.5717 182.451 83.5742 182.543 83.9788 182.628C91.8697 184.269 98.7189 189.268 103.717 195.907C109.442 203.515 112.595 212.765 113.174 223.656C113.939 237.924 110.611 251.802 112.934 266.1C114.298 274.508 119.604 285.104 115.857 293.594C113.444 299.072 116.037 299.544 119.514 302.429C120.443 303.201 120.848 304.168 120.818 305.3C120.812 305.52 120.855 305.739 120.943 305.941C121.03 306.143 121.161 306.324 121.326 306.47C121.491 306.616 121.686 306.725 121.897 306.788C122.108 306.851 122.331 306.867 122.549 306.836C128.596 305.959 135.056 307.51 140.901 309.069C141.166 309.139 141.298 309.036 141.298 308.762C141.268 304.375 141.156 301.375 140.961 299.762C139.257 285.694 136.897 271.775 133.879 258.007ZM337.939 190.931C339.236 188.885 341.536 187.844 344.017 187.559C344.346 187.519 344.456 187.342 344.346 187.027L338.112 169.214C337.992 168.875 337.894 168.882 337.819 169.237C334.662 184.114 330.578 200.076 325.567 217.122C322.098 228.917 319.22 241.101 318.081 253.338C318.016 254.043 318.156 254.083 318.501 253.458C328.025 236.043 338.824 219.407 346.842 201.22C346.861 201.176 346.872 201.128 346.873 201.08C346.873 201.032 346.864 200.984 346.846 200.939C346.828 200.894 346.801 200.853 346.767 200.819C346.733 200.785 346.692 200.758 346.647 200.74C342.765 199.069 339.933 195.345 337.917 191.725C337.849 191.603 337.815 191.465 337.819 191.325C337.823 191.185 337.865 191.049 337.939 190.931ZM545.439 219.549L542.726 230.85C539.649 242.86 539.572 254.872 542.494 266.887C542.629 267.457 542.599 268.064 542.846 268.611C542.953 268.839 543.13 269.023 543.348 269.135C547.912 271.391 554.664 275.797 551.202 281.769C551.04 282.046 550.789 282.259 550.49 282.373C550.192 282.487 549.864 282.497 549.561 282.399C545.139 280.975 542.764 274.77 541.775 270.327C541.72 270.077 541.58 269.892 541.355 269.772C539.062 268.528 536.724 267.449 534.656 265.92C531.666 263.71 520.71 254.695 517.368 256.119C514.65 257.278 512.417 259.019 510.668 261.342C509.494 262.486 508.513 263.857 507.723 265.456C506.679 266.929 506.087 268.368 505.947 269.772C505.295 276.396 519.773 287.629 524.719 291.241C531.546 296.225 540.081 297.491 548.496 297.881C548.828 297.895 549.153 297.783 549.403 297.566C552.73 294.689 555.338 291.631 557.751 287.674C568.127 270.709 575.336 252.304 579.378 232.461C580.782 225.572 580.989 218.54 580 211.366C578.306 199.047 571.944 184.906 557.107 186.397C556.707 186.437 556.692 186.532 557.062 186.682C561.443 188.446 566.092 190.969 571.007 194.251C571.347 194.476 571.362 194.78 571.052 195.165C570.971 195.27 570.857 195.345 570.728 195.379C570.599 195.413 570.463 195.403 570.341 195.352C555.398 189.245 548.264 208.871 545.439 219.549ZM303.206 186.56C303.166 186.518 303.097 186.505 303.002 186.522C302.908 186.538 302.79 186.584 302.656 186.656C302.522 186.728 302.374 186.826 302.22 186.943C302.066 187.06 301.91 187.194 301.761 187.338C301.458 187.629 301.201 187.941 301.045 188.206C300.889 188.472 300.847 188.668 300.928 188.753C300.968 188.795 301.037 188.808 301.132 188.791C301.226 188.775 301.344 188.729 301.478 188.657C301.613 188.585 301.761 188.487 301.914 188.37C302.068 188.253 302.224 188.119 302.374 187.975C302.676 187.684 302.933 187.372 303.09 187.106C303.246 186.841 303.288 186.644 303.206 186.56ZM486.329 190.931C485.919 190.891 485.522 190.776 485.137 190.586C484.888 190.467 484.635 190.462 484.381 190.571C483.666 190.871 483.059 191.311 482.56 191.89C482.013 192.52 481.923 193.471 481.428 194.243C480.879 195.103 480.119 195.277 479.15 194.768C478.64 194.498 478.286 194.633 478.086 195.173C477.322 197.196 476.482 199.954 474.069 200.448C472.88 200.688 471.979 201.14 471.364 201.804C465.969 207.635 479.053 223.206 482.185 228.205C488.157 237.729 496.146 246.115 499.878 256.823C500.017 257.223 500.207 257.248 500.447 256.898C503.639 252.222 506.847 247.508 511.733 244.309C511.957 244.159 511.987 243.976 511.822 243.762C507.476 238.081 502.995 232.836 499.623 226.481C496.68 220.931 496.613 215.333 499.42 209.688C502.163 204.165 505.213 199.122 509.417 195.405C511.395 193.651 513.696 191.905 514.917 189.545C515.033 189.321 515.098 189.073 515.105 188.821C515.112 188.569 515.063 188.318 514.96 188.088C514.857 187.857 514.703 187.653 514.51 187.49C514.317 187.327 514.09 187.21 513.846 187.147C510.129 186.188 505.88 190.639 502.635 192.01C497.375 194.233 492.751 193.047 488.764 188.451C488.704 188.381 488.629 188.326 488.544 188.289C488.46 188.252 488.368 188.234 488.276 188.236C488.184 188.238 488.093 188.26 488.01 188.301C487.928 188.342 487.855 188.401 487.798 188.473C487.318 189.073 487.003 189.762 486.854 190.541C486.799 190.826 486.624 190.956 486.329 190.931ZM220.798 281.754C221.987 285.616 224.315 288.147 227.782 289.346C228.022 289.425 228.259 289.415 228.494 289.316L231.297 288.087C237.015 286.011 245.138 285.209 250.646 288.386C250.768 288.458 250.872 288.558 250.947 288.678C251.023 288.798 251.068 288.935 251.079 289.076C251.09 289.218 251.067 289.36 251.011 289.49C250.955 289.621 250.868 289.736 250.758 289.825C245.512 294.052 235.381 293.055 229.109 291.361C228.781 291.271 228.432 291.288 228.115 291.409C227.797 291.531 227.526 291.75 227.342 292.037C227.158 292.323 227.07 292.66 227.091 293C227.113 293.339 227.242 293.663 227.46 293.924L228.869 295.61C229.089 295.87 229.366 295.972 229.701 295.917C235.673 294.951 253.051 293.265 251.822 303.996C251.796 304.219 251.694 304.426 251.532 304.58C251.371 304.735 251.16 304.828 250.938 304.842C243.579 305.315 234.901 301.785 229.191 297.761C229.051 297.664 228.893 297.596 228.726 297.561C228.558 297.526 228.385 297.525 228.217 297.559C211.941 300.818 195.934 304.048 179.268 306.386C179.217 306.394 179.168 306.414 179.126 306.447C179.085 306.479 179.053 306.522 179.033 306.57C179.014 306.619 179.007 306.671 179.014 306.723C179.021 306.775 179.042 306.824 179.074 306.866C182.603 311.519 187.939 312.958 193.409 313.992C196.911 314.657 200.336 315.056 203.683 315.191C215.273 315.666 226.743 316.415 238.094 317.439C248.517 318.383 270.901 318.016 274.183 304.468C276.409 295.251 270.399 283.133 265.423 275.49C261.819 269.944 258.252 264.541 254.385 259.258L249.252 251.93C242.323 242.418 236.637 233.5 232.196 225.177C229.523 220.156 227.563 214.459 226.314 208.084C225.287 202.809 226.853 197.091 223.811 192.355C223.773 192.298 223.722 192.251 223.662 192.218C223.602 192.186 223.534 192.169 223.466 192.169C223.398 192.169 223.33 192.186 223.27 192.218C223.21 192.251 223.159 192.298 223.121 192.355C222.497 193.299 222.115 194.316 221.975 195.405C221.515 198.972 220.833 202.034 219.929 204.592C218.076 209.838 216.137 215.395 214.114 221.266C210.507 231.727 209.91 242.125 212.323 252.462C214.204 260.532 217.156 269.525 219.397 277.865C219.852 279.554 220.319 280.85 220.798 281.754ZM312.139 208.983L309.493 229.936C309.493 229.942 309.495 229.949 309.499 229.955C309.503 229.96 309.509 229.964 309.516 229.966L309.553 229.973C309.653 229.991 309.787 229.739 309.945 229.233C310.104 228.727 310.285 227.976 310.478 227.024C310.671 226.071 310.872 224.936 311.069 223.683C311.267 222.43 311.457 221.084 311.629 219.722L311.667 219.407C311.839 218.046 311.989 216.695 312.109 215.433C312.229 214.17 312.317 213.021 312.367 212.051C312.417 211.08 312.429 210.308 312.401 209.778C312.374 209.247 312.307 208.97 312.206 208.961H312.176C312.172 208.96 312.168 208.96 312.164 208.96C312.16 208.961 312.156 208.962 312.152 208.964C312.149 208.966 312.146 208.969 312.144 208.972C312.141 208.976 312.14 208.979 312.139 208.983ZM347.883 253.368C350.182 247.688 352.022 242.238 353.406 237.017C354.965 231.147 355.594 225.347 355.295 219.617C355.27 219.052 355.135 219.025 354.89 219.534C353.126 223.256 351.485 227.278 349.967 231.599C347.711 237.999 345.89 246.864 347.636 253.353C347.706 253.603 347.789 253.608 347.883 253.368ZM387.278 262.511C384.035 267.706 381.418 273.102 379.424 278.697C379.08 279.676 379.237 279.766 379.896 278.967C383.863 274.186 389.036 272 395.416 272.41C395.676 272.43 395.845 272.315 395.925 272.065L396.158 271.293C396.195 271.177 396.258 271.072 396.343 270.986C396.428 270.9 396.531 270.836 396.645 270.799C396.885 270.719 397.099 270.754 397.289 270.904C397.469 271.043 397.599 271.231 397.679 271.466C397.794 271.81 397.881 272.148 397.941 272.477C398.016 272.862 398.243 273.102 398.623 273.197C400.402 273.641 402.322 274.483 404.386 275.722C404.426 275.746 404.473 275.756 404.519 275.752C404.566 275.748 404.61 275.729 404.646 275.698C404.681 275.668 404.706 275.627 404.717 275.581C404.729 275.536 404.725 275.488 404.708 275.445C403.529 272.357 402.307 269.098 401.044 265.666C399.425 261.267 400.084 258.059 402.49 254.125C403.364 252.691 404.108 250.978 404.723 248.985C405.507 246.427 405.235 245.03 403.906 244.796C401.493 245.395 399.482 246.502 397.874 248.115C393.667 252.322 390.135 257.12 387.278 262.511ZM302.412 280.518C302.274 280.441 302.163 280.323 302.094 280.181C302.025 280.039 302.001 279.879 302.025 279.722C302.049 279.565 302.121 279.419 302.23 279.303C302.339 279.187 302.481 279.106 302.637 279.072C303.346 278.922 304.095 278.892 304.885 278.982C310.055 279.581 314.989 280.54 319.685 281.859C321.119 282.264 322.427 282.394 323.611 282.249C326.332 281.912 329.539 281.552 331.36 279.334C331.474 279.195 331.554 279.031 331.595 278.856C331.636 278.681 331.636 278.499 331.595 278.324C331.555 278.149 331.475 277.986 331.361 277.846C331.247 277.707 331.104 277.596 330.94 277.521C328.118 276.212 325.045 275.422 321.723 275.153C315.863 274.68 310.04 274.501 304.435 272.38C304.28 272.32 304.15 272.209 304.066 272.066C303.983 271.923 303.952 271.756 303.978 271.593C304.375 269.173 307.463 268.161 309.561 268.086C312.613 267.986 315.846 267.901 319.258 267.831C322.682 267.764 326.212 266.467 326.137 262.503C326.135 262.311 326.08 262.124 325.978 261.961C325.876 261.798 325.732 261.667 325.56 261.581C324.036 260.817 322.382 260.37 320.599 260.24C316.313 259.933 312.034 260.188 307.807 259.303C306.094 258.944 304.34 258.881 302.547 259.116C302.268 259.15 301.987 259.106 301.737 258.989C301.298 258.784 300.833 258.724 300.344 258.809C291.853 260.293 295.488 268.461 293.757 274.216C291.808 280.683 291.209 288.971 294.941 294.793C295.051 294.965 295.213 295.098 295.403 295.172C295.593 295.246 295.801 295.258 295.997 295.206C299.449 294.286 302.931 293.387 306.443 292.508C312.326 291.039 318.366 292.328 324.166 292.905C327.141 293.197 332.656 293.28 334.717 290.987C334.795 290.901 334.854 290.801 334.892 290.692C334.93 290.583 334.945 290.467 334.936 290.352C334.928 290.236 334.896 290.123 334.843 290.02C334.79 289.916 334.716 289.825 334.627 289.75C331.48 287.12 327.538 285.741 323.754 284.512C322.315 284.048 320.816 283.818 319.258 283.823C313.712 283.838 307.298 283.261 302.412 280.518ZM284.937 264.999C284.958 264.979 284.973 264.954 284.979 264.926C284.986 264.898 284.983 264.868 284.973 264.841C284.962 264.815 284.944 264.792 284.92 264.776C284.896 264.76 284.868 264.751 284.839 264.751C279.316 264.482 274.333 265.156 271.291 270.566C267.424 277.446 270.998 284.265 276.559 289.271C276.923 289.6 277.028 289.53 276.873 289.061C273.936 280.263 278.604 271.458 284.937 264.999ZM543.506 271.361C544.697 274.643 546.039 279.326 549.598 280.818C549.703 280.862 549.821 280.866 549.928 280.827C550.035 280.788 550.123 280.709 550.175 280.608C552.386 276.396 547.215 272.919 543.843 271.076C543.473 270.876 543.361 270.971 543.506 271.361ZM399.193 274.793C398.708 274.553 398.516 274.7 398.616 275.235C399.028 277.423 399.065 280.413 400.609 281.972C401.568 282.936 402.645 283.673 403.839 284.182C404.318 284.392 404.633 284.247 404.783 283.748C405.312 281.994 405.465 280.228 405.24 278.45C405.18 277.94 404.918 277.573 404.453 277.348L399.193 274.793ZM459.652 291.444C462.297 286.813 465.174 282.339 470.15 280.083C470.735 279.824 470.71 279.736 470.075 279.821C464.268 280.623 456.062 284.205 456.414 291.092C456.429 291.436 456.609 291.621 456.954 291.646L458.977 291.803C459.277 291.823 459.502 291.704 459.652 291.444ZM481.78 293.939C492.616 294.778 503.392 293.527 513.404 293.557C515.762 293.562 518.102 293.857 520.425 294.441C520.83 294.546 520.905 294.434 520.65 294.104C518.412 291.231 515.474 289.57 511.837 289.121C507.109 288.529 502.5 288.162 498.004 286.79C495.566 286.051 493.173 285.264 490.825 284.43C485.909 282.496 480.936 281.025 475.905 280.016C475.291 279.896 474.859 279.866 474.609 279.926C468.157 281.567 464.35 285.936 461.3 291.579C461.15 291.858 461.233 292.013 461.547 292.043L481.78 293.939ZM392.945 287.766C393.061 287.75 393.119 287.346 393.105 286.643C393.091 285.94 393.007 284.995 392.871 284.017C392.804 283.532 392.726 283.054 392.642 282.61C392.558 282.165 392.469 281.763 392.381 281.426C392.293 281.089 392.207 280.824 392.128 280.646C392.049 280.468 391.979 280.381 391.921 280.388C391.805 280.405 391.748 280.809 391.762 281.512C391.776 282.215 391.86 283.16 391.995 284.138C392.063 284.623 392.14 285.101 392.225 285.545C392.309 285.99 392.397 286.392 392.486 286.729C392.574 287.066 392.66 287.331 392.739 287.509C392.817 287.687 392.888 287.774 392.945 287.766ZM313.181 281.94C313.185 281.914 313.115 281.876 312.975 281.828C312.834 281.779 312.626 281.72 312.362 281.655C312.098 281.59 311.783 281.52 311.435 281.449C311.088 281.378 310.714 281.307 310.336 281.24C309.958 281.174 309.583 281.113 309.232 281.061C308.881 281.009 308.562 280.967 308.291 280.938C308.021 280.908 307.805 280.892 307.656 280.89C307.508 280.888 307.429 280.9 307.425 280.925C307.42 280.95 307.49 280.988 307.631 281.037C307.771 281.086 307.979 281.144 308.244 281.209C308.508 281.274 308.823 281.344 309.17 281.415C309.518 281.487 309.891 281.557 310.269 281.624C310.647 281.691 311.022 281.752 311.373 281.804C311.724 281.856 312.044 281.898 312.314 281.927C312.585 281.956 312.8 281.972 312.949 281.975C313.098 281.977 313.177 281.965 313.181 281.94ZM231.08 289.758C230.425 290.012 230.443 290.212 231.132 290.357C236.602 291.511 243.077 291.931 248.203 289.788C249.102 289.408 249.082 289.078 248.143 288.798C242.622 287.175 236.935 287.495 231.08 289.758ZM452.42 292.935C453.312 293.152 454.264 293.437 455.125 293.31C455.645 293.23 455.647 293.135 455.133 293.025C454.209 292.83 453.307 292.775 452.428 292.86C452.263 292.875 452.26 292.9 452.42 292.935ZM309.021 297.746C309.117 297.671 309.229 297.618 309.348 297.591C309.467 297.564 309.591 297.563 309.711 297.589C311.234 297.933 312.666 298.388 314.005 298.952C316.785 300.114 319.835 300.638 322.48 302.16C323.809 302.924 324.94 303.441 325.875 303.711C327.95 304.303 331.367 305.494 332.342 302.639C332.392 302.497 332.402 302.344 332.372 302.196C332.341 302.048 332.271 301.911 332.169 301.8C331.41 300.946 330.553 300.319 329.599 299.919C326.721 298.71 323.287 297.496 319.295 296.277C317.507 295.733 315.9 294.863 314.477 293.669C314.277 293.505 314.047 293.41 313.787 293.385C311.534 293.185 309.353 293.34 307.245 293.849C304.003 294.639 300.603 295.515 297.046 296.48C296.717 296.569 296.682 296.722 296.941 296.937C303.476 302.325 313.75 305.787 322.218 305.277C323.941 305.172 324.011 304.775 322.427 304.086C320.734 303.346 318.973 302.594 317.144 301.83C314.791 300.848 311.712 300.301 309.126 299.117C308.896 299.012 308.744 298.838 308.669 298.593C308.579 298.278 308.697 297.996 309.021 297.746ZM458.288 293.849C458.627 293.804 458.675 293.662 458.43 293.422C458.125 293.117 457.728 293.052 457.239 293.227C456.924 293.342 456.911 293.482 457.201 293.647C457.526 293.837 457.888 293.904 458.288 293.849ZM460.079 293.774L460.049 293.969C460.034 294.089 460.086 294.156 460.206 294.171C481.638 297.079 503.265 299.365 525.011 301.388C525.366 301.418 525.446 301.285 525.251 300.991L522.816 297.184C522.649 296.925 522.409 296.722 522.126 296.599C520.068 295.72 517.473 295.216 514.34 295.086C507.731 294.816 501.279 295.408 494.789 295.67C488.577 295.917 482.35 295.573 476.287 294.988C471.047 294.484 465.779 293.974 460.483 293.46C460.387 293.449 460.29 293.476 460.214 293.535C460.139 293.594 460.09 293.68 460.079 293.774ZM318.141 307.375C319.015 307.33 319.862 307.183 320.681 306.933C320.811 306.893 320.806 306.871 320.666 306.866C312.086 306.529 301.145 303.374 294.911 297.086C294.731 296.907 294.516 296.824 294.266 296.839C290.589 297.029 287.1 296.445 283.798 295.086C282.703 294.636 282.631 294.763 283.58 295.468C293.255 302.609 306.016 307.982 318.141 307.375ZM231.297 297.454C236.85 300.826 243.257 303.134 249.814 303.501C249.893 303.505 249.972 303.493 250.045 303.465C250.119 303.437 250.186 303.393 250.242 303.337C250.298 303.281 250.341 303.214 250.37 303.141C250.398 303.067 250.41 302.988 250.406 302.909C249.911 295.063 236.138 296.539 231.357 297.176C231.072 297.211 231.052 297.304 231.297 297.454ZM326.894 305.487C326.439 305.277 325.999 305.165 325.575 305.15C325.39 305.145 325.26 305.227 325.185 305.397C325.145 305.497 325.13 305.602 325.14 305.712C325.19 306.066 325.39 306.206 325.74 306.131L326.849 305.907C327.288 305.817 327.303 305.677 326.894 305.487ZM335.511 310.912L315.496 313.363L295.053 315.903C294.733 315.943 294.723 316.02 295.023 316.135L309.456 321.696L318.965 325.39L364.422 342.94C364.668 343.033 364.932 343.059 365.186 343.015L434.503 331.565C435.002 331.48 435.01 331.363 434.525 331.213L359.941 308.065C359.681 307.985 359.416 307.96 359.146 307.99L335.511 310.912ZM304.458 346.994C304.093 344.771 302.662 343.285 300.164 342.536C295.525 340.64 285.154 336.473 283.46 331.303C283.423 331.185 283.424 331.059 283.464 330.943C283.503 330.827 283.578 330.727 283.678 330.658C284.232 330.268 284.934 330.271 285.783 330.666C288.221 331.8 290.107 332.791 291.441 333.641C295.478 336.034 299.429 338.881 303.296 342.183C303.491 342.348 303.688 342.356 303.888 342.206C306.246 340.417 306.773 338.242 305.469 335.679C304.195 333.171 301.782 330.758 298.23 328.44C294.958 326.192 291.748 323.677 288.601 320.894C284.884 317.604 281.145 315.394 276.102 316.63C271.261 317.821 266.045 318.811 261.594 321.021C257.128 323.239 253.291 325.63 248.113 326.507C241.813 327.581 235.653 327.239 229.633 325.48C229.601 325.471 229.568 325.468 229.534 325.472C229.501 325.475 229.47 325.485 229.441 325.502C229.412 325.518 229.387 325.539 229.367 325.565C229.348 325.591 229.334 325.621 229.326 325.652C227.473 333.171 226.439 340.827 226.224 348.62C226.22 348.71 226.242 348.799 226.289 348.876C226.336 348.953 226.404 349.016 226.486 349.055C229.911 350.801 232.204 353.147 234.901 355.829C243.864 364.739 256.326 357.313 266.914 360.873C269.517 361.747 272.072 362.629 274.58 363.518C278.44 364.882 282.876 364.275 284.667 360.138C284.957 359.469 284.772 358.984 284.112 358.684C281.15 357.316 278.589 355.417 276.431 352.989C276.285 352.823 276.182 352.624 276.131 352.409C276.081 352.194 276.084 351.969 276.141 351.756C276.199 351.542 276.308 351.346 276.459 351.185C276.61 351.023 276.799 350.902 277.008 350.831C277.923 350.524 278.949 351.191 279.601 351.446C282.669 352.655 284.827 354.7 286.076 357.583C286.176 357.813 286.343 357.975 286.578 358.07C288.586 358.894 290.315 359.117 291.763 358.737C294.761 357.958 295.767 356.062 294.783 353.049C294.514 352.225 293.966 351.69 293.142 351.446C288.706 350.112 279.661 346.14 279.541 340.827C279.537 340.649 279.577 340.473 279.657 340.315C279.736 340.156 279.854 340.019 279.999 339.916C280.144 339.813 280.312 339.748 280.488 339.725C280.664 339.702 280.844 339.723 281.01 339.785C286.54 341.864 291.116 345.283 294.738 350.044C294.888 350.244 295.081 350.384 295.315 350.464C298.298 351.461 306.121 352.487 304.458 346.994ZM191.108 322.865C198.19 325.847 205.406 330.696 209.303 337.485C211.027 340.487 213.267 342.808 216.025 344.446C216.25 344.581 216.38 344.519 216.414 344.259C217.334 337.525 218.708 330.586 220.536 323.442C220.616 323.122 220.491 322.962 220.161 322.962C210.01 322.977 199.951 322.66 189.984 322.01C189.46 321.98 189.432 322.083 189.902 322.318C190.182 322.463 190.584 322.645 191.108 322.865ZM297.983 339.388L285.866 332.104C285.847 332.094 285.825 332.091 285.803 332.096C285.782 332.102 285.764 332.116 285.753 332.134L285.731 332.172C285.659 332.286 285.744 332.493 285.982 332.782C286.22 333.071 286.606 333.435 287.117 333.854C287.629 334.274 288.256 334.739 288.964 335.225C289.671 335.71 290.444 336.206 291.239 336.683L291.419 336.788C292.212 337.265 293.012 337.715 293.772 338.111C294.532 338.507 295.237 338.843 295.848 339.098C296.458 339.354 296.962 339.524 297.329 339.6C297.697 339.675 297.922 339.654 297.991 339.538L298.013 339.501C298.024 339.482 298.027 339.459 298.021 339.438C298.016 339.417 298.002 339.399 297.983 339.388ZM292.273 349.272C289.658 346.335 285.716 343.143 281.879 341.666C280.98 341.322 280.793 341.551 281.317 342.356C283.633 345.9 288.219 348.178 292.071 349.572C292.535 349.742 292.603 349.642 292.273 349.272ZM145.547 347.436C141.4 347.996 137.219 348.865 133.002 350.044C127.257 351.643 121.662 352.974 116.217 354.038C108.463 355.552 100.278 355.61 91.6599 354.211C88.3726 353.681 85.3627 352.737 82.63 351.378C81.6508 350.894 81.5759 351.006 82.4052 351.715C86.0971 354.853 90.4509 356.931 95.4666 357.95C101.666 359.209 107.964 359.779 114.358 359.659C122.459 359.501 130.14 358.924 137.896 359.232L160.1 361.008C167.528 361.807 174.979 362.411 182.453 362.821C185.531 362.991 188.833 362.903 192.36 362.559C199.644 361.839 207.632 360.408 214.444 363.293C214.604 363.358 214.688 363.306 214.698 363.136L215.148 355.919C215.153 355.779 215.091 355.68 214.961 355.62C210.43 353.551 205.848 352.68 201.217 353.004C192.899 353.599 184.986 353.009 177.477 351.236C174.345 350.496 171.263 349.75 168.23 348.995C160.801 346.617 153.24 346.098 145.547 347.436ZM224.523 358.332C224.56 358.349 224.6 358.356 224.64 358.352C224.681 358.349 224.719 358.335 224.753 358.313C224.787 358.29 224.814 358.26 224.833 358.224C224.852 358.188 224.861 358.148 224.86 358.107L224.628 349.924C224.627 349.877 224.612 349.832 224.585 349.793C224.559 349.755 224.521 349.725 224.478 349.707L217.816 346.987C217.782 346.974 217.746 346.969 217.709 346.973C217.673 346.976 217.638 346.987 217.607 347.006C217.576 347.025 217.55 347.05 217.53 347.081C217.511 347.111 217.498 347.146 217.494 347.182L216.722 354.473C216.716 354.524 216.727 354.576 216.752 354.62C216.778 354.665 216.817 354.7 216.864 354.72L224.523 358.332ZM284.035 356.732C284.117 356.619 283.888 356.288 283.4 355.81C282.912 355.332 282.204 354.747 281.431 354.184C280.659 353.621 279.886 353.125 279.282 352.807C278.677 352.488 278.292 352.372 278.21 352.484C278.128 352.597 278.356 352.928 278.844 353.406C279.333 353.884 280.041 354.469 280.813 355.032C281.586 355.595 282.359 356.091 282.963 356.409C283.567 356.728 283.953 356.844 284.035 356.732Z" fill="#131316"/>
</g>
<defs>
<clipPath id="clip0_564_3346">
<rect width="592" height="394.916" fill="white" transform="translate(11.5)"/>
</clipPath>
</defs>
</svg>
