<svg width="615" height="396" viewBox="0 0 615 396" fill="none" xmlns="http://www.w3.org/2000/svg">
<g clip-path="url(#clip0_564_3505)">
<path d="M558.093 349.484C558.569 348.238 558.41 348.172 557.617 349.287C554.969 353.012 553.296 357.509 551.147 361.487C549.189 365.12 546.413 368.437 544.058 371.86C541.363 375.774 539.483 380.061 537.033 384.039C535.21 386.995 532.638 388.97 529.318 389.963C526.49 390.806 523.345 391.371 519.882 391.657C515.68 392.008 508.34 392.186 497.863 392.191C482.999 392.195 467.804 392.12 452.278 391.966C420.562 391.652 388.848 391.354 357.136 391.073C354.879 391.055 352.625 390.898 350.373 390.602C347.936 390.289 346.947 389.124 347.407 387.11C347.481 386.768 347.328 386.641 346.947 386.73C342.042 387.859 336.185 388.649 329.376 389.098C318.492 389.82 308.38 390.312 299.039 390.574C278.672 391.151 257.528 391.549 235.606 391.769C163.424 392.481 87.3042 392.76 7.24609 392.605C4.87263 392.605 2.45424 392.605 -0.00909184 392.605C-0.0815195 392.605 -0.153017 392.591 -0.218785 392.564C-0.284552 392.537 -0.343063 392.498 -0.390384 392.449C-0.437705 392.401 -0.472745 392.344 -0.49314 392.282C-0.513535 392.221 -0.518814 392.156 -0.508627 392.092L-0.484841 391.917C-0.410835 391.49 -0.130673 391.277 0.355649 391.277C55.5691 391.16 110.529 390.989 165.235 390.764C200.451 390.619 235.273 390.277 269.701 389.738C285.465 389.49 301.188 389.014 316.872 388.311C322.703 388.049 329.101 387.59 336.069 386.934C339.642 386.601 343.284 385.978 346.995 385.065C347.26 385 347.503 384.88 347.705 384.715C347.906 384.549 348.06 384.344 348.153 384.116L349.532 380.806C349.807 380.136 349.604 379.611 348.922 379.232C347.431 378.402 345.927 377.875 344.41 377.651C340.134 377.023 336.016 376.395 332.056 375.767C313.206 372.792 296.061 366.631 280.62 357.284C275.204 354.01 270.978 349.645 271.715 343.314C272.159 339.551 273.098 335.735 274.53 331.866C278.035 322.411 282.8 312.542 288.827 302.258C296.935 288.418 305.237 275.865 313.732 264.597C321.027 254.927 328.24 245.421 335.371 236.079C340.842 228.911 345.206 222.202 348.462 215.952C350.724 211.609 352.987 207.156 355.249 202.592C358.096 196.865 361.759 191.44 368.174 188.558C370.933 187.312 373.663 186.094 376.365 184.904C380.464 183.105 384.777 181.692 388.774 179.718C392.934 177.666 397.385 176.501 402.126 176.225C408.557 175.852 414.948 174.763 421.267 173.913C422.864 173.697 422.874 173.43 421.299 173.112C417.017 172.247 415.852 167.778 415.432 164.306C414.977 160.488 414.723 156.353 414.67 151.902C414.448 133.879 414.158 115.926 413.798 98.0426C413.41 78.9415 413.402 60.3183 415.662 41.7795C416.336 36.2769 417.358 30.5704 419.499 25.2435C423.456 15.3908 433.328 10.4644 444.389 8.39127C445.932 8.1008 447.436 7.64869 448.901 7.03494C451.195 6.0745 454.361 5.3858 458.4 4.96883C464.563 4.33634 470.28 3.83504 475.55 3.46492C482.65 2.97298 490.526 3.22129 499.179 4.20984C510.994 5.55914 521.146 9.83193 529.635 17.0282C540.578 26.3117 544.677 38.2727 541.854 51.569C541.796 51.8266 541.904 52.007 542.179 52.1101C545.121 53.2134 546.247 58.4982 547.032 61.0281C552.413 78.3395 556.349 95.9156 558.838 113.756C561.878 135.486 564.915 156.859 567.949 177.876C568.124 179.109 568.042 180.275 567.703 181.376C567.629 181.61 567.722 181.767 567.981 181.847C574.229 183.749 580.25 186.352 586.043 189.655C592.585 193.379 597.453 197.968 598.54 205.045C599.674 212.417 599.983 218.868 599.008 226.599C597.002 242.537 594.298 258.399 590.642 273.951C589.54 278.645 587.447 284.429 585.425 289.398C581.27 299.63 577.139 309.925 572.366 320.136C566.9 331.83 561.904 343.904 557.379 356.357C556.095 359.889 555.12 363.478 554.454 367.123C552.987 375.163 557.728 382.984 561.986 389.998C562.043 390.093 562.13 390.172 562.236 390.227C562.343 390.282 562.465 390.309 562.589 390.307L597.319 389.836C597.757 389.832 597.977 390.021 597.977 390.406L597.985 390.806C597.985 390.985 597.905 391.157 597.762 391.283C597.619 391.41 597.425 391.481 597.224 391.481C582.496 391.429 570.428 391.631 561.019 392.085C547.798 392.722 535.944 392.982 525.457 392.865C525.337 392.865 525.22 392.839 525.116 392.788C524.756 392.624 524.584 392.413 524.6 392.155C524.637 391.57 524.984 391.27 525.639 391.256L559.703 390.413C560.073 390.403 560.171 390.256 559.996 389.97C555.722 382.949 551.417 375.451 552.677 367.369C553.605 361.41 555.849 355.387 558.093 349.484ZM463.688 19.6706C464.164 22.2287 461.318 22.7206 459.256 21.9897C454.594 20.3312 444.928 15.4611 445.776 10.0357C445.784 9.9864 445.778 9.93614 445.759 9.88925C445.74 9.84235 445.709 9.8002 445.668 9.76639C445.626 9.73258 445.577 9.7081 445.522 9.69504C445.468 9.68198 445.411 9.68073 445.356 9.69139C433.098 12.1792 423.258 17.3234 420.046 28.7643C418.312 34.9205 417.168 41.728 416.613 49.1866C415.556 63.3262 415.167 77.7 415.447 92.3081C415.854 113.588 416.172 134.462 416.399 154.931C416.431 157.499 416.676 160.492 417.136 163.912C417.66 167.792 418.746 172.887 424.772 171.39C429.99 170.097 434.113 166.899 438.648 164.376C443.977 161.411 448.306 157.075 447.719 151.045C447.576 149.611 447.45 148.147 447.339 146.653C447.318 146.418 447.231 146.191 447.085 145.992C444.051 142.019 440.921 137.976 437.697 133.862C431.774 126.301 428.483 118.099 424.614 109.526C422.288 104.377 421.339 99.1623 421.767 93.8823C422.248 87.9884 422.43 84.06 422.314 82.0969C421.986 76.4186 421.434 69.8829 420.657 62.4899C419.745 53.7897 419.967 46.4739 426.604 39.3409C432.963 32.5101 442.644 26.5787 452.73 26.0868C456.394 25.9088 460.356 26.0845 464.616 26.6139C473.576 27.7243 482.766 28.3848 492.186 28.5957C494.818 28.6566 497.76 29.0267 501.011 29.706C517.861 33.2339 510.708 49.3693 518.225 58.6879C519.256 59.967 520.263 61.2296 521.246 62.4758C524.362 66.4043 523.76 70.6981 523.466 75.4277C523.414 76.2992 523.559 76.3249 523.903 75.505C524.844 73.2702 525.787 71.0706 526.733 68.9061C527.621 66.8821 527.827 65.0831 529.223 63.1435C532.532 58.524 535.968 54.9914 539.531 52.5458C539.737 52.4006 539.875 52.2155 539.943 51.9906C540.461 50.1494 540.784 48.2472 540.911 46.2842C541.598 35.4617 537.718 26.3445 529.271 18.9327C520.001 10.8017 509.701 6.78195 496.793 5.50995C489.376 4.77908 482.634 4.59636 476.565 4.9618C469.334 5.40219 461.767 6.14244 453.864 7.18252C452.966 7.29965 452.107 7.49877 451.287 7.77987C451.246 7.79479 451.21 7.82127 451.187 7.85524C451.163 7.88922 451.152 7.9288 451.155 7.96792C451.159 8.00704 451.177 8.04352 451.207 8.07176C451.236 8.09999 451.276 8.11843 451.319 8.12422C457.512 9.06593 462.737 14.5053 463.688 19.6706ZM447.537 10.2677C447.006 14.7583 456.735 19.7549 461.151 20.8231C461.302 20.8592 461.462 20.8454 461.6 20.7843C461.738 20.7232 461.843 20.6193 461.896 20.4928C462.023 20.207 462.044 19.9166 461.96 19.6214C460.374 14.182 455.363 9.43136 448.512 9.48056C448.268 9.48284 448.033 9.56447 447.853 9.70976C447.673 9.85504 447.56 10.0537 447.537 10.2677ZM523.133 80.333C523.018 80.4527 522.867 80.5409 522.698 80.5873C522.528 80.6338 522.347 80.6365 522.176 80.5953C522.005 80.554 521.85 80.4705 521.731 80.3543C521.611 80.2382 521.531 80.0943 521.5 79.9395C521.368 79.2742 521.344 78.5995 521.429 77.9155C521.984 73.3968 522.903 67.5357 519.962 63.6565C517.813 60.8103 515.236 58.2874 514.134 54.9211C512.596 50.2407 512.294 45.1387 510.867 40.3037C508.639 32.7068 502.089 30.718 494.224 30.3034C489.181 30.041 483.369 29.7435 476.787 29.4109C465.901 28.8627 454.871 25.6089 444.516 29.3195C439.224 31.217 434.213 34.3677 429.482 38.7717C424.244 43.6442 421.754 49.4583 422.013 56.2142C422.156 60.0232 422.618 65.5024 423.4 72.6518C424.17 79.7357 424.249 86.7563 423.551 93.7698C423.049 98.811 423.955 103.911 426.271 109.069C428.776 114.64 431.115 119.592 433.288 123.925C434.755 126.856 436.801 130.004 438.949 132.696C442.792 137.507 446.334 142.174 449.575 146.695C452.794 151.185 458.027 153.554 463.807 155.5C471.911 158.237 479.444 157.417 486.406 153.041C495.471 147.344 503.144 141.642 509.424 135.936C516.473 129.533 521.151 123.061 522.341 113.799C522.811 110.139 523.112 106.483 523.244 102.828C523.25 102.608 523.194 102.397 523.078 102.196C520.842 98.394 524.648 93.5028 528.153 91.5702C528.729 91.2516 529.234 91.3687 529.667 91.9216C529.802 92.0925 529.873 92.296 529.872 92.5038C529.87 92.7115 529.796 92.9133 529.659 93.0811C527.291 95.9578 525.819 98.8274 525.243 101.69C525.214 101.831 525.247 101.977 525.335 102.097C525.424 102.217 525.561 102.303 525.718 102.336C530.975 103.433 535.741 96.5106 537.39 92.6384C539.103 88.6256 539.214 84.9291 537.16 81.1904C536.061 79.1852 535.479 77.1261 535.416 75.0131C535.352 72.9329 534.385 70.225 532.514 66.8892C532.36 66.6174 532.136 66.5589 531.84 66.7135L529.477 67.9293C529.091 68.126 528.819 68.4095 528.66 68.7796C527.243 72.1107 525.808 75.3645 524.354 78.541C524.053 79.1969 523.646 79.7942 523.133 80.333ZM524.917 103.974C524.466 113.939 523.546 123.398 516.156 131.417C516.076 131.503 516.018 131.604 515.985 131.713C515.952 131.822 515.946 131.936 515.965 132.049C516.893 137.13 517.591 142.106 519.28 147.032C519.299 147.087 519.333 147.136 519.379 147.176C519.425 147.217 519.481 147.246 519.543 147.263C519.605 147.28 519.67 147.283 519.733 147.272C519.797 147.261 519.856 147.237 519.906 147.201C520.932 146.446 521.984 146.439 523.062 147.18C528.057 150.609 532.294 154.336 535.773 158.361C537.541 160.413 537.834 163.154 539.555 165.206C542.425 168.607 545.787 172.479 550.243 174.545C555.677 177.071 560.747 179.041 565.451 180.455C565.726 180.54 565.917 180.463 566.022 180.224C566.35 179.465 566.443 178.678 566.3 177.862C565.232 171.823 564.307 165.847 563.525 159.935C561.267 142.97 559.074 127.397 556.943 113.215C553.692 91.5842 549.419 73.1438 544.122 57.8938C543.609 56.418 543.036 55.1179 542.401 53.9935C542.338 53.8845 542.239 53.795 542.118 53.7364C541.996 53.6779 541.857 53.6531 541.72 53.6652C541.582 53.6773 541.452 53.7258 541.346 53.8044C541.24 53.883 541.163 53.9881 541.125 54.1059C539.835 58.2475 537.385 61.9277 533.774 65.1463C533.589 65.315 533.566 65.5 533.703 65.7015C536.076 69.2059 537.305 72.9493 537.39 76.9316C537.406 77.6695 537.834 78.8432 538.231 79.4967C542.068 85.9551 540.427 92.1956 536.351 97.9512C534.115 101.093 529.723 104.993 525.211 103.784C525.178 103.776 525.143 103.774 525.11 103.78C525.076 103.785 525.044 103.797 525.016 103.816C524.987 103.834 524.964 103.857 524.947 103.885C524.93 103.912 524.92 103.943 524.917 103.974ZM532.966 63.6424C535.519 61.3163 537.406 58.5122 538.825 55.4974C539.074 54.9633 538.968 54.9001 538.508 55.3077C535.955 57.5565 533.552 60.1755 531.3 63.1645C531.126 63.3988 531.168 63.5956 531.427 63.7549C531.982 64.1015 532.495 64.0641 532.966 63.6424ZM455.989 169.942C455.603 170.041 455.286 170.001 455.038 169.823C454.747 169.612 454.451 169.605 454.15 169.802C447.497 174.088 440.734 177.757 434.358 182.479C425.198 189.263 416.37 196.455 407.875 204.054C400.588 210.576 394.118 217.526 392.596 227.049C391.248 235.489 395.593 239.15 404.735 239.628C409.804 239.895 414.937 239.89 420.134 239.614C427.598 239.22 435.257 238.839 443.112 238.468C447.426 238.265 455.03 237.815 457.94 241.005C457.97 241.037 458.009 241.062 458.052 241.077C458.096 241.093 458.143 241.098 458.189 241.093C458.235 241.088 458.278 241.073 458.315 241.049C458.352 241.025 458.381 240.993 458.4 240.956C461.772 234.805 465.322 228.74 469.049 222.762C484.479 198.039 501.455 173.997 517.527 149.942C517.676 149.726 517.694 149.504 517.583 149.274C515.926 145.859 515.418 142.338 514.887 138.733C514.639 137.074 514.472 135.458 514.388 133.883C514.387 133.851 514.375 133.82 514.354 133.793C514.333 133.767 514.303 133.747 514.269 133.736C514.235 133.724 514.198 133.722 514.162 133.73C514.127 133.737 514.095 133.754 514.07 133.778C506.342 141.265 497.723 147.955 488.213 153.849C485.57 155.489 482.79 156.779 479.872 157.721C471.467 160.427 460.541 156.92 453.396 152.535C453.042 152.315 452.944 152.382 453.103 152.739L454.269 155.395C454.364 155.625 454.549 155.735 454.824 155.725C456.135 155.678 456.935 156.266 457.226 157.489C458.151 161.345 457.945 165.316 456.608 169.401C456.564 169.53 456.485 169.647 456.377 169.742C456.269 169.836 456.135 169.905 455.989 169.942ZM522.015 150.862C522.047 150.899 522.092 150.926 522.142 150.939L526.242 152.029C526.297 152.046 526.358 152.046 526.412 152.027C526.467 152.008 526.513 151.972 526.541 151.927C526.568 151.881 526.577 151.827 526.564 151.777C526.551 151.726 526.519 151.681 526.472 151.649L521.746 148.234C521.708 148.207 521.663 148.191 521.615 148.187C521.567 148.184 521.519 148.193 521.476 148.213L520.493 148.698C520.462 148.713 520.436 148.734 520.415 148.76C520.395 148.785 520.381 148.814 520.374 148.845C520.367 148.876 520.368 148.907 520.376 148.938C520.384 148.968 520.4 148.996 520.422 149.021L522.015 150.862ZM449.471 150.897C449.686 153.968 449.004 157.335 446.831 159.759C445.954 160.738 446.136 160.933 447.378 160.342C449.175 159.494 450.896 158.358 452.54 156.934C452.778 156.723 452.839 156.48 452.722 156.203C451.967 154.353 451.134 152.528 450.225 150.729C449.633 149.557 449.382 149.614 449.471 150.897ZM437.562 318.112C437.387 317.597 437.29 317.07 437.269 316.531C436.861 304.983 437.993 293.839 440.662 283.101C443.374 272.213 448.507 259.589 456.061 245.229C457.845 241.835 455.371 240.275 451.985 240.12C448.147 239.937 444.384 239.94 440.694 240.127C431.882 240.577 423.168 241.001 414.551 241.399C409.773 241.619 405.116 241.378 400.58 240.675C390.938 239.171 389.701 232.333 391.248 225.088C391.528 223.781 391.332 223.722 390.661 224.912C386.252 232.748 383.477 241.062 380.115 249.734C376.251 259.685 372.13 269.5 367.753 279.179C367.294 280.191 366.715 281.082 366.017 281.85C365.869 282.01 365.671 282.127 365.447 282.187C365.224 282.247 364.986 282.246 364.763 282.184C364.541 282.123 364.345 282.004 364.201 281.843C364.057 281.682 363.972 281.486 363.955 281.281C363.813 279.585 363.813 277.957 363.955 276.397C365.356 260.87 367.915 246.187 371.631 232.347C374.921 220.077 380.408 206.584 390.835 197.582C391.729 196.804 395.828 193.803 403.133 188.579C408.853 184.489 414.477 180.397 420.007 176.302C420.498 175.932 420.432 175.813 419.808 175.944C419 176.105 418.215 176.408 417.39 176.562C412.926 177.391 408.438 177.188 403.982 178.066C398.886 179.073 394.139 180.226 389.741 181.524C385.245 182.845 381.019 185.136 376.793 187.083C376.751 187.102 376.716 187.131 376.693 187.167C376.669 187.203 376.657 187.245 376.659 187.287C376.661 187.329 376.675 187.37 376.702 187.406C376.728 187.442 376.765 187.471 376.809 187.49C383.667 190.189 383.398 197.357 378.521 201.616C373.867 205.692 368.15 209.037 363.789 213.542C357.477 220.056 355.447 228.707 355.519 237.267C355.556 242.275 355.905 247.145 356.565 251.877C357.771 260.521 359.565 270.348 361.949 281.358C362.647 284.577 363.575 287.889 364.732 291.295C366.234 295.69 367.473 300.771 368.451 306.538C368.594 307.372 368.441 308.093 367.991 308.703C367.214 309.764 366.762 311.268 366.493 312.497C366.479 312.562 366.486 312.628 366.513 312.689C366.541 312.75 366.587 312.803 366.647 312.841C366.707 312.88 366.778 312.902 366.852 312.906C366.926 312.91 366.999 312.895 367.064 312.863C370.989 310.902 375.239 309.975 379.306 312.209C383.667 314.606 386.546 316.616 392.223 316.025C401.556 315.055 414.662 311.76 422.148 318.64C422.327 318.804 422.447 319.011 422.493 319.236C422.538 319.46 422.508 319.692 422.405 319.901C422.303 320.11 422.132 320.288 421.915 320.411C421.699 320.534 421.446 320.598 421.188 320.593C419.83 320.575 418.508 320.619 417.224 320.727C416.425 320.797 416.386 320.994 417.105 321.317C419.84 322.554 425.24 322.673 428.729 322.61C433.64 322.526 438.698 322.186 443.905 321.591C444.402 321.535 444.426 321.408 443.977 321.212C442.544 320.584 441.764 319.443 441.637 317.789C441.172 311.525 442.177 305.282 444.651 299.061C448.483 289.428 453.196 280.133 458.788 271.175C463.731 263.248 470.132 255.998 477.993 249.425C486.778 242.081 496.507 234.948 504.532 226.458C506.443 224.434 509.257 221.342 509.543 218.798C509.575 218.545 509.495 218.327 509.305 218.145C508.575 217.437 507.635 217.016 506.482 216.88C502.65 216.421 498.572 216.053 494.247 215.776C492.841 215.687 491.427 215.387 490.005 214.877C489.623 214.738 489.317 214.471 489.154 214.134C488.99 213.796 488.983 213.414 489.133 213.071C489.934 211.258 495.437 209.873 497.633 209.388C504.555 207.849 512.445 206.479 518.32 203.169C522.126 201.032 524.307 197.118 525.956 193.471C529.101 186.49 531.927 179.408 534.432 172.226C535.151 170.16 535.743 168.063 536.209 165.936C536.425 164.943 536.071 164.004 535.146 163.118C529.96 158.129 524.664 154.16 519.256 151.214C519.023 151.087 518.838 151.127 518.701 151.333C506.178 169.816 493.925 187.959 481.941 205.762C473.478 218.327 465.737 231.026 458.717 243.859C457.765 245.594 457.417 247.59 456.584 249.361C453.365 256.183 450.468 262.702 447.894 268.919C442.097 282.925 440.29 297.985 439.695 313.235C439.637 314.819 439.494 316.377 439.267 317.909C439.244 318.068 439.167 318.218 439.047 318.338C438.927 318.458 438.768 318.544 438.593 318.583C438.339 318.644 438.098 318.609 437.871 318.478C437.718 318.389 437.615 318.267 437.562 318.112ZM527.042 153.989L533.663 159.443C533.674 159.452 533.687 159.459 533.701 159.463C533.715 159.468 533.73 159.47 533.744 159.469C533.759 159.468 533.774 159.465 533.787 159.459C533.8 159.454 533.812 159.446 533.822 159.436C533.983 159.279 533.787 158.84 533.277 158.215C532.767 157.591 531.985 156.832 531.102 156.105L530.983 156.006C530.545 155.646 530.096 155.304 529.66 155C529.225 154.696 528.812 154.437 528.445 154.237C528.078 154.036 527.765 153.899 527.523 153.832C527.281 153.766 527.115 153.771 527.035 153.849C527.025 153.859 527.017 153.87 527.012 153.882C527.007 153.894 527.004 153.908 527.005 153.921C527.006 153.934 527.01 153.947 527.016 153.958C527.022 153.97 527.031 153.981 527.042 153.989ZM455.791 160.982C456.029 159.815 455.947 158.703 455.545 157.644C455.503 157.541 455.421 157.503 455.299 157.531L455.101 157.574C454.969 157.602 454.916 157.674 454.943 157.791C455.249 159.019 455.537 160.216 455.807 161.383C455.812 161.411 455.799 161.429 455.767 161.439C455.762 161.439 455.757 161.441 455.751 161.446C455.714 161.479 455.699 161.472 455.704 161.425C455.73 161.279 455.759 161.132 455.791 160.982ZM365.882 274.583C365.755 275.82 365.652 277.041 365.573 278.245C365.488 279.58 365.721 279.625 366.271 278.378C372.154 265.138 377.887 251.413 383.065 237.358C386.839 227.117 392.276 218.049 399.375 210.154C408.557 199.943 419.206 190.463 430.695 182.676C436.082 179.027 441.521 175.353 447.013 171.657C449.318 170.106 451.663 168.747 454.047 167.581C454.321 167.445 454.456 167.239 454.451 166.962C454.403 164.259 454.076 161.561 453.468 158.867C453.399 158.581 453.227 158.515 452.952 158.67C451.99 159.19 451.382 159.918 451.129 160.855C451.062 161.12 450.897 161.357 450.661 161.53C449.281 162.57 447.759 163.577 446.094 164.552C439.132 168.633 432.974 171.697 427.619 173.744C426.022 174.353 424.513 175.161 423.091 176.169C413.671 182.824 404.688 189.605 396.037 195.684C390.159 199.817 385.597 204.724 382.351 210.407C378.36 217.402 375.202 225.388 372.876 234.364C369.641 246.874 367.309 260.28 365.882 274.583ZM447.838 295.793C444.627 303.052 442.66 310.361 443.445 317.937C443.548 318.921 444.119 319.89 445.396 319.862C448.885 319.778 452.516 318.78 455.807 317.852C465.391 315.14 475.495 312.155 486.12 308.899C489.366 307.906 492.627 307.07 495.905 306.39C496.56 306.255 497.031 305.915 497.316 305.371C500.271 299.777 503.202 294.392 506.11 289.215C515.329 272.794 525.354 257.007 536.185 241.856C543.67 231.378 550.917 221.581 560.353 213.331C567.608 206.992 586.622 194.616 596.066 203.689C596.51 204.11 596.647 204.043 596.478 203.485C594.512 196.907 589.041 192.958 582.721 189.634C577.271 186.771 571.451 184.452 565.261 182.676C559.631 181.06 555.305 179.479 552.281 177.933C549.643 176.579 546.567 174.719 543.051 172.353C540.821 170.853 539.206 168.949 538.207 166.639C538.186 166.596 538.151 166.56 538.106 166.536C538.06 166.512 538.008 166.502 537.955 166.507C537.903 166.511 537.854 166.531 537.815 166.562C537.776 166.594 537.749 166.636 537.739 166.681C536.058 174.77 532.434 182.803 529.144 190.582C527.426 194.658 525.972 197.561 524.783 199.29C520.691 205.235 514.189 207.196 506.133 209.037C502.829 209.791 499.211 210.646 495.278 211.602C493.999 211.916 492.9 212.312 491.98 212.79C490.759 213.427 490.851 213.816 492.257 213.956C496.465 214.373 500.821 214.76 505.325 215.116C511.993 215.65 512.556 219.157 509.17 223.528C501.741 233.12 490.6 241.244 480.808 249.193C471.287 256.928 463.681 265.778 457.987 275.743C454.253 282.265 450.859 288.976 447.838 295.793ZM308.007 301.506C308.154 301.502 308.3 301.526 308.435 301.577L320.71 306.538C321.297 306.772 321.41 306.655 321.051 306.187C317.8 301.858 315.038 297.7 312.765 293.713C311.068 290.747 311.023 287.856 312.63 285.041C314.398 281.955 318.252 283.733 320.06 285.673C320.081 285.696 320.104 285.699 320.131 285.68L320.297 285.568C320.419 285.488 320.44 285.39 320.361 285.272C318.521 282.593 316.943 279.873 315.627 277.113C314.818 275.413 315.009 273.684 314.723 271.906C314.554 270.861 314.8 269.971 315.461 269.235C317.2 267.291 319.486 266.973 322.319 268.28C322.716 268.462 322.859 268.364 322.748 267.984C321.883 265.117 322.319 260.184 327.156 261.287C330.716 262.102 333.626 265.152 336.148 267.57C336.502 267.907 336.631 267.849 336.536 267.394C335.881 264.372 336.97 262.33 339.803 261.266C343.316 259.952 347.177 262.714 348.613 265.342C349.136 266.298 349.791 267.174 350.579 267.97C353.624 271.049 356.425 274.593 358.984 278.603C359.798 279.882 360.028 279.805 359.674 278.371C356.565 265.712 354.604 253.109 353.79 240.563C353.013 228.609 355.963 217.055 366.374 208.882C369.376 206.521 372.603 204.075 376.055 201.545C377.652 200.379 378.852 199.001 379.655 197.413C381.027 194.686 380.274 190.681 376.92 189.205C375.466 188.563 374.142 188.486 372.947 188.973C370.864 189.826 368.758 190.988 366.628 192.459C366.009 192.89 365.303 193.072 364.51 193.007C364.22 192.983 363.979 193.07 363.789 193.267C359.238 197.989 356.47 203.429 353.695 209.395C348.073 221.497 340.707 232.291 332.056 243.339C314.477 265.785 299.103 286.748 286.416 310.087C281.151 319.771 276.275 329.905 273.904 340.299C272.968 344.375 273.04 348.472 276.275 351.719C278.484 353.93 281.26 355.959 284.6 357.804C299.039 365.76 314.604 371.438 330.97 374.024C334.903 374.647 338.891 375.235 342.935 375.788C346.144 376.233 348.663 377.088 350.492 378.353C350.703 378.503 350.888 378.48 351.047 378.283C354.417 374.066 363.218 373.223 366.731 377.946C366.916 378.194 367.077 378.182 367.214 377.911C368.388 375.638 370.613 374.127 373.891 373.378C379.89 372 386.762 370.707 394.507 369.498C400.786 368.522 405.496 366.863 408.93 361.747C409.236 361.293 409.152 361.225 408.676 361.543C405.029 363.982 401.056 365.191 397.091 362.386C396.055 361.656 395.18 360.843 394.467 359.948C388.718 352.787 390.55 345.612 395.553 338.865C398.186 335.323 401.098 331.76 404.291 328.176C407.954 324.058 412.585 319.103 418.825 319.117C419.983 319.117 420.073 318.843 419.095 318.295C411.372 313.959 400.66 316.784 391.945 317.55C388.023 317.897 384.579 317.161 381.614 315.344C380.102 314.416 378.622 313.638 377.173 313.01C373.946 311.598 370.505 313.032 367.508 314.395C366.881 314.676 366.152 314.648 365.51 314.402C365.198 314.28 364.928 314.334 364.701 314.564C361.148 318.169 353.64 317.979 348.684 316.932C334.411 313.91 320.9 308.899 307.563 303.038C307.04 302.809 306.863 302.446 307.032 301.949C307.122 301.682 307.447 301.534 308.007 301.506ZM495.572 308.133C493.811 308.358 492.36 308.787 490.624 309.377C490.566 309.396 490.568 309.405 490.632 309.405C492.368 309.384 494.937 309.068 496.309 309.848C497.335 310.429 497.58 311.261 497.046 312.343C494.612 317.269 490.989 323.369 485.977 326.475C480.744 329.727 476.365 333.107 472.839 336.616C470.492 338.956 467.716 340.418 464.402 341.24C457.731 342.894 450.822 345.347 443.675 348.598C439.631 350.433 436.658 349.934 432.598 349.955C428.528 349.969 424.571 350.709 420.728 352.175C416.185 353.911 413.885 357.031 411.61 360.791C408.343 366.181 404.529 369.267 397.171 370.553C389.876 371.822 383.017 373.068 376.595 374.291C371.908 375.177 367.048 377.362 368.713 382.471C369.437 384.716 369.609 386.976 369.228 389.253C369.181 389.534 369.318 389.675 369.641 389.675C401.902 389.918 434.335 390.209 466.939 390.546C485.251 390.734 500.712 390.696 513.325 390.434C516.454 390.368 519.703 390.141 523.07 389.752C528.985 389.063 533.314 387.215 535.963 382.521C538.223 378.515 540.173 374.376 542.893 370.595C545.311 367.229 547.96 363.883 549.878 360.285C551.544 357.144 552.86 353.813 554.739 350.784C558.577 344.6 562.153 338.5 565.19 331.781C569.308 322.664 573.457 313.24 577.638 303.509C580.231 297.472 582.333 291.457 583.879 285.385C588.486 267.31 591.483 248.869 594.805 230.415C595.947 224.062 596.745 217.955 597.2 212.094C597.771 204.729 591.673 200.765 583.776 202.487C570.074 205.481 558.609 215.945 550.069 226.388C545.702 231.734 541.151 237.761 536.415 244.47C522.533 264.115 510.18 284.403 499.354 305.336C498.585 306.826 497.53 307.88 495.572 308.133ZM588.597 275.181C591.927 261.472 594.488 247.644 596.28 233.697C596.291 233.594 596.24 233.535 596.129 233.521H596.121C596.021 233.512 595.963 233.549 595.947 233.633C593.595 247.454 591.023 261.252 588.232 275.026C588.216 275.101 588.25 275.146 588.335 275.16L588.557 275.202C588.578 275.202 588.591 275.195 588.597 275.181ZM327.968 269.375C328.573 269.204 329.029 268.696 329.236 267.962C329.444 267.228 329.385 266.329 329.073 265.463C328.761 264.596 328.221 263.833 327.573 263.342C326.924 262.85 326.22 262.67 325.615 262.841C325.01 263.012 324.554 263.52 324.346 264.254C324.139 264.988 324.198 265.887 324.51 266.753C324.822 267.62 325.362 268.383 326.01 268.875C326.659 269.366 327.363 269.546 327.968 269.375ZM339.779 263.332C337.21 267.746 347.249 273.164 347.645 267.731C347.655 267.541 347.585 267.351 347.447 267.197C346.123 265.757 342.864 262.777 340.493 262.918C340.345 262.926 340.202 262.969 340.077 263.041C339.952 263.114 339.849 263.214 339.779 263.332ZM361.156 305.505C360.496 305.566 360.036 305.339 359.777 304.823C356.724 298.646 353.648 291.991 349.501 286.713C345.843 282.07 342.351 277.488 339.026 272.967C338.011 271.59 335.397 269.029 331.184 265.286C330.835 264.977 330.732 265.033 330.875 265.455C331.961 268.673 330.034 271.751 325.935 270.753C325.523 270.65 325.414 270.77 325.61 271.112C326.937 273.412 328.406 275.729 330.019 278.062C335.31 285.741 340.39 293.155 345.258 300.305C345.486 300.637 345.438 300.935 345.116 301.197C345.058 301.244 344.997 301.281 344.933 301.309C344.426 301.525 344.024 301.422 343.728 301L325.293 274.612C325.272 274.58 325.24 274.555 325.203 274.539C325.166 274.522 325.124 274.516 325.083 274.521C325.042 274.525 325.003 274.54 324.971 274.564C324.94 274.587 324.916 274.619 324.904 274.654C323.897 277.704 320.155 277.774 317.641 276.08C317.049 275.687 316.896 275.792 317.181 276.397C317.816 277.76 318.537 279.114 319.346 280.459C324.717 289.398 329.614 297.365 334.039 304.359C334.142 304.523 334.176 304.714 334.132 304.898C334.088 305.082 333.97 305.245 333.801 305.357C333.679 305.437 333.505 305.456 333.277 305.414C332.807 305.329 332.455 305.102 332.223 304.732C328.528 298.838 324.769 293.474 320.948 288.639C320.615 288.217 320.424 288.264 320.377 288.779C320.16 291.328 318.664 292.492 315.889 292.272C315.64 292.253 315.41 292.183 315.199 292.061C314.988 291.935 314.771 291.82 314.549 291.717C313.645 291.29 313.428 291.48 313.899 292.286C317.076 297.711 320.559 302.902 324.349 307.859C324.492 308.047 324.682 308.187 324.92 308.281C333.357 311.495 341.688 313.912 349.913 315.533C354.607 316.461 361.593 316.651 364.312 312.266C365.383 310.537 366.588 307.958 366.001 305.948C364.653 301.267 363.509 296.559 362.568 291.822C361.923 288.571 361.019 285.795 359.856 283.494C357.247 278.357 353.56 273.874 349.54 269.186C349.382 268.999 349.236 269.008 349.104 269.214C346.765 272.911 342.404 271.934 339.787 269.102C338.566 267.776 338.344 267.898 339.121 269.467C339.764 270.767 340.588 272.166 341.659 273.22C345.623 277.09 349.244 281.803 352.522 287.36C356.148 293.516 359.174 299.131 361.6 304.205C361.648 304.307 361.672 304.417 361.672 304.528C361.656 305.147 361.484 305.472 361.156 305.505ZM319.734 269.327C318.64 269.903 316.309 272.117 317.205 273.354C318.307 274.879 320.147 276.059 322.185 275.434C323.152 275.139 323.247 274.162 323.176 273.389C323.001 271.627 322.047 270.275 320.313 269.334C320.228 269.285 320.128 269.259 320.026 269.258C319.924 269.256 319.823 269.28 319.734 269.327ZM317.036 290.764C317.334 290.702 317.611 290.569 317.849 290.371C318.088 290.174 318.284 289.916 318.426 289.612C318.569 289.309 318.655 288.966 318.68 288.603C318.705 288.239 318.668 287.863 318.572 287.496C318.475 287.128 318.321 286.776 318.118 286.46C317.914 286.144 317.666 285.87 317.387 285.653C317.108 285.437 316.803 285.282 316.491 285.198C316.179 285.114 315.864 285.103 315.566 285.164C315.268 285.226 314.992 285.359 314.753 285.557C314.515 285.754 314.318 286.012 314.176 286.316C314.033 286.619 313.947 286.962 313.922 287.325C313.897 287.689 313.934 288.065 314.031 288.432C314.127 288.8 314.281 289.152 314.485 289.468C314.688 289.784 314.936 290.058 315.215 290.275C315.494 290.491 315.799 290.646 316.111 290.73C316.424 290.814 316.738 290.825 317.036 290.764ZM415.812 350.953C416.034 351.463 416.047 351.946 415.852 352.4C415.656 352.859 415.786 352.948 416.24 352.667C421.474 349.413 429.141 347.91 436.024 348.493C438.172 348.669 440.591 348.247 442.51 347.368C449.503 344.159 456.764 341.573 464.291 339.61C469.12 338.352 471.523 335.506 474.829 332.498C479.904 327.853 486.858 325.147 490.838 319.532C492.445 317.26 493.951 314.711 495.358 311.886C495.415 311.771 495.439 311.645 495.427 311.519C495.415 311.394 495.367 311.273 495.287 311.168C495.208 311.064 495.1 310.979 494.974 310.921C494.848 310.863 494.707 310.835 494.565 310.839C491.293 310.923 487.872 311.483 484.304 312.519C474.123 315.463 463.728 319.349 453.642 321.521C444.429 323.507 434.554 324.344 424.019 324.03C421.164 323.945 418.302 323.43 415.432 322.484C414.506 322.174 413.663 322.303 412.902 322.87C411.337 324.027 409.974 325.344 408.811 326.82C403.895 333.051 400.107 339.383 397.448 345.815C396.782 347.439 396.029 350.517 399.216 350.608C402.288 350.702 405.763 350.536 409.643 350.109C411.314 349.922 412.952 349.912 414.559 350.081C414.837 350.111 415.101 350.208 415.322 350.362C415.542 350.515 415.712 350.72 415.812 350.953ZM399.169 352.119C394.015 351.979 394.832 347.593 396.005 344.754C397.395 341.367 399.182 338.005 401.365 334.67C401.413 334.595 401.397 334.531 401.318 334.48L401.31 334.473C401.204 334.412 401.114 334.426 401.04 334.515C394.356 342.252 387.878 352.098 397.607 360.721C399.819 362.682 402.888 362.991 405.552 361.55C409.68 359.325 412.559 356.186 414.187 352.133C414.21 352.077 414.219 352.016 414.214 351.956C414.209 351.896 414.19 351.838 414.158 351.785C414.126 351.732 414.081 351.685 414.027 351.648C413.974 351.612 413.912 351.585 413.846 351.571C413.127 351.421 412.387 351.391 411.626 351.48C407.085 352.014 402.933 352.227 399.169 352.119ZM360.03 376.357C357.208 376.315 354.25 376.962 352.569 379.098C350.944 381.157 351.951 383.385 349.984 385.339C349.39 385.936 349.08 386.871 349.033 387.658C349.007 388.015 349.141 388.367 349.406 388.638C349.672 388.909 350.047 389.077 350.452 389.106C355.802 389.49 361.119 389.665 366.406 389.633C366.717 389.628 366.839 389.49 366.77 389.218C366.221 387.03 366.094 384.741 366.39 382.352C366.802 379.07 363.63 376.407 360.03 376.357Z" fill="#131316"/>
</g>
<defs>
<clipPath id="clip0_564_3505">
<rect width="615" height="396" fill="white"/>
</clipPath>
</defs>
</svg>
