<svg width="40" height="40" viewBox="0 0 40 40" fill="none" xmlns="http://www.w3.org/2000/svg">
<path d="M9.67814 30.8839C9.70765 30.8342 9.73788 30.7848 9.76884 30.7356C12.0263 27.1469 13.3332 22.9029 13.3332 18.3333C13.3332 14.6514 16.3179 11.6667 19.9998 11.6667C23.6817 11.6667 26.6665 14.6514 26.6665 18.3333C26.6665 20.0284 26.5511 21.6976 26.3277 23.3333M22.7987 34.7394C23.8182 32.7044 24.654 30.5615 25.2845 28.3333M31.6828 30.2199C32.7578 26.4428 33.3333 22.4553 33.3333 18.3333C33.3333 10.9695 27.3638 5 20 5C17.5714 5 15.2945 5.6493 13.3333 6.78376M5 25.6069C6.06776 23.4089 6.66667 20.9411 6.66667 18.3333C6.66667 15.9048 7.31596 13.6278 8.45043 11.6667M19.9998 18.3333C19.9998 24.1953 18.3185 29.6647 15.4118 34.2854" stroke="#131316" stroke-width="2" stroke-linecap="round" stroke-linejoin="round"/>
</svg>
