<svg width="40" height="40" viewBox="0 0 40 40" fill="none" xmlns="http://www.w3.org/2000/svg">
<path d="M15.0013 19.1653L18.3346 22.4986L25.8346 14.9986M33.3346 19.9986C33.3346 28.1794 24.4114 34.1293 21.1646 36.0234C20.7956 36.2387 20.6111 36.3463 20.3508 36.4022C20.1487 36.4455 19.8539 36.4455 19.6518 36.4022C19.3915 36.3463 19.207 36.2387 18.838 36.0234C15.5912 34.1293 6.66797 28.1794 6.66797 19.9986V12.028C6.66797 10.6955 6.66797 10.0292 6.8859 9.45649C7.07843 8.95055 7.39127 8.49911 7.7974 8.1412C8.25713 7.73604 8.88097 7.5021 10.1286 7.03423L19.065 3.6831C19.4115 3.55317 19.5847 3.4882 19.7629 3.46245C19.921 3.4396 20.0816 3.4396 20.2397 3.46245C20.4179 3.4882 20.5911 3.55317 20.9376 3.6831L29.874 7.03423C31.1216 7.5021 31.7455 7.73604 32.2052 8.1412C32.6113 8.49911 32.9242 8.95055 33.1167 9.45649C33.3346 10.0292 33.3346 10.6955 33.3346 12.028V19.9986Z" stroke="#131316" stroke-width="2" stroke-linecap="round" stroke-linejoin="round"/>
</svg>
