<svg width="40" height="40" viewBox="0 0 40 40" fill="none" xmlns="http://www.w3.org/2000/svg">
<path d="M14.3167 22.5154L25.7 29.1487M25.6833 10.8487L14.3167 17.482M35 8.33203C35 11.0935 32.7614 13.332 30 13.332C27.2386 13.332 25 11.0935 25 8.33203C25 5.57061 27.2386 3.33203 30 3.33203C32.7614 3.33203 35 5.57061 35 8.33203ZM15 19.9987C15 22.7601 12.7614 24.9987 10 24.9987C7.23858 24.9987 5 22.7601 5 19.9987C5 17.2373 7.23858 14.9987 10 14.9987C12.7614 14.9987 15 17.2373 15 19.9987ZM35 31.6654C35 34.4268 32.7614 36.6654 30 36.6654C27.2386 36.6654 25 34.4268 25 31.6654C25 28.9039 27.2386 26.6654 30 26.6654C32.7614 26.6654 35 28.9039 35 31.6654Z" stroke="#131316" stroke-width="2" stroke-linecap="round" stroke-linejoin="round"/>
</svg>
