<svg width="375" height="1386" viewBox="0 0 375 1386" fill="none" xmlns="http://www.w3.org/2000/svg">
<g opacity="0.5" filter="url(#filter0_f_714_8410)">
<path d="M-280.739 682.288C-264.797 748.962 -131.165 764.036 -55.4187 716.442C49.4798 650.531 56.4352 568.36 -21.8474 475.822C-119.701 360.149 -173.612 372.596 -158.692 545.464C-143.772 718.333 -296.682 615.614 -280.739 682.288Z" fill="#FF6B00"/>
</g>
<g filter="url(#filter1_f_714_8410)">
<path d="M205.371 637.148C281.509 685.815 -39.9878 631.992 -59.6793 966.598C-81.0292 1000 -160.059 987.624 -236.198 938.956C-312.337 890.289 -514.315 854.078 -492.965 820.677C-471.615 787.276 129.232 588.48 205.371 637.148Z" fill="url(#paint0_linear_714_8410)" fill-opacity="0.5"/>
</g>
<g filter="url(#filter2_f_714_8410)">
<path d="M205.371 637.148C281.509 685.815 -39.9878 631.992 -59.6793 966.598C-81.0292 1000 -160.059 987.624 -236.198 938.956C-312.337 890.289 -514.315 854.078 -492.965 820.677C-471.615 787.276 129.232 588.48 205.371 637.148Z" fill="url(#paint1_linear_714_8410)"/>
</g>
<defs>
<filter id="filter0_f_714_8410" x="-681.906" y="0.238281" width="1112.81" height="1143.95" filterUnits="userSpaceOnUse" color-interpolation-filters="sRGB">
<feFlood flood-opacity="0" result="BackgroundImageFix"/>
<feBlend mode="normal" in="SourceGraphic" in2="BackgroundImageFix" result="shape"/>
<feGaussianBlur stdDeviation="200" result="effect1_foregroundBlur_714_8410"/>
</filter>
<filter id="filter1_f_714_8410" x="-894.535" y="229.519" width="1511.55" height="1155.85" filterUnits="userSpaceOnUse" color-interpolation-filters="sRGB">
<feFlood flood-opacity="0" result="BackgroundImageFix"/>
<feBlend mode="normal" in="SourceGraphic" in2="BackgroundImageFix" result="shape"/>
<feGaussianBlur stdDeviation="200" result="effect1_foregroundBlur_714_8410"/>
</filter>
<filter id="filter2_f_714_8410" x="-894.535" y="229.519" width="1511.55" height="1155.85" filterUnits="userSpaceOnUse" color-interpolation-filters="sRGB">
<feFlood flood-opacity="0" result="BackgroundImageFix"/>
<feBlend mode="normal" in="SourceGraphic" in2="BackgroundImageFix" result="shape"/>
<feGaussianBlur stdDeviation="200" result="effect1_foregroundBlur_714_8410"/>
</filter>
<linearGradient id="paint0_linear_714_8410" x1="-102.334" y1="824.444" x2="-355.988" y2="762.272" gradientUnits="userSpaceOnUse">
<stop stop-color="#00A3FF"/>
<stop offset="1" stop-color="#2ED3B7"/>
</linearGradient>
<linearGradient id="paint1_linear_714_8410" x1="-102.334" y1="824.444" x2="-355.988" y2="762.272" gradientUnits="userSpaceOnUse">
<stop stop-color="#00A3FF"/>
<stop offset="1" stop-color="#2ED3B7"/>
</linearGradient>
</defs>
</svg>
