<svg width="375" height="1105" viewBox="0 0 375 1105" fill="none" xmlns="http://www.w3.org/2000/svg">
<g opacity="0.8" filter="url(#filter0_f_571_11976)">
<path d="M-1596.1 603.151C-1663.22 858.271 -1079.67 106.576 -375.297 785.803C-263.378 815.249 -118.238 632.303 -51.1172 377.183C16.0035 122.063 377.873 -355.328 265.954 -384.773C154.035 -414.218 -1528.98 348.031 -1596.1 603.151Z" fill="url(#paint0_linear_571_11976)" fill-opacity="0.5"/>
</g>
<g opacity="0.4" filter="url(#filter1_f_571_11976)">
<path d="M1153.5 369.927C1144.31 557.797 909.105 -78.6513 284.269 231.768C201.852 227.737 142.489 72.1698 151.679 -115.7C160.868 -303.57 17.4331 -705.892 99.8498 -701.86C182.266 -697.829 1162.69 182.057 1153.5 369.927Z" fill="#FF6B00"/>
</g>
<defs>
<filter id="filter0_f_571_11976" x="-1917.37" y="-701.604" width="2520.65" height="1806.52" filterUnits="userSpaceOnUse" color-interpolation-filters="sRGB">
<feFlood flood-opacity="0" result="BackgroundImageFix"/>
<feBlend mode="normal" in="SourceGraphic" in2="BackgroundImageFix" result="shape"/>
<feGaussianBlur stdDeviation="158" result="effect1_foregroundBlur_571_11976"/>
</filter>
<filter id="filter1_f_571_11976" x="-241.791" y="-1017.89" width="1711.35" height="1739.2" filterUnits="userSpaceOnUse" color-interpolation-filters="sRGB">
<feFlood flood-opacity="0" result="BackgroundImageFix"/>
<feBlend mode="normal" in="SourceGraphic" in2="BackgroundImageFix" result="shape"/>
<feGaussianBlur stdDeviation="158" result="effect1_foregroundBlur_571_11976"/>
</filter>
<linearGradient id="paint0_linear_571_11976" x1="-565.035" y1="396.282" x2="-143.621" y2="-239.086" gradientUnits="userSpaceOnUse">
<stop stop-color="#00A3FF"/>
<stop offset="1" stop-color="#2ED3B7"/>
</linearGradient>
</defs>
</svg>
